<svg width="12" height="13" viewBox="0 0 12 13" fill="none" xmlns="http://www.w3.org/2000/svg">
<path d="M0 6.5C0 3.18629 2.68629 0.5 6 0.5C9.31371 0.5 12 3.18629 12 6.5C12 9.81371 9.31371 12.5 6 12.5C2.68629 12.5 0 9.81371 0 6.5Z" fill="#CCCFDB"/>
<path d="M0 6.5C0 3.18629 2.68629 0.5 6 0.5C9.31371 0.5 12 3.18629 12 6.5C12 9.81371 9.31371 12.5 6 12.5C2.68629 12.5 0 9.81371 0 6.5Z" fill="#196CFA"/>
<path d="M0 6.5C0 3.18629 2.68629 0.5 6 0.5C9.31371 0.5 12 3.18629 12 6.5C12 9.81371 9.31371 12.5 6 12.5C2.68629 12.5 0 9.81371 0 6.5Z" fill="#FF0059"/>
<path d="M5.96861 7.2583C5.63243 7.2583 5.44127 7.06714 5.42809 6.71777L5.3358 3.71191C5.32262 3.36255 5.59288 3.10547 5.96202 3.10547C6.33116 3.10547 6.60802 3.36914 6.59484 3.71851L6.50255 6.71777C6.48937 7.07373 6.2982 7.2583 5.96861 7.2583Z" fill="white"/>
<path d="M5.96851 9.57214C5.59277 9.57214 5.25 9.2887 5.25 8.8866C5.25 8.49109 5.58618 8.20105 5.96851 8.20105C6.35083 8.20105 6.68701 8.4845 6.68701 8.8866C6.68701 9.2887 6.34424 9.57214 5.96851 9.57214Z" fill="white"/>
</svg>
