<?xml version="1.0" encoding="UTF-8"?>
<svg width="16px" height="16px" viewBox="0 0 16 16" version="1.1" xmlns="http://www.w3.org/2000/svg" xmlns:xlink="http://www.w3.org/1999/xlink">
    <g id="Review" stroke="none" stroke-width="1" fill="none" fill-rule="evenodd">
        <g id="Desktop-HD-Copy-13" transform="translate(-246.000000, -297.000000)" fill="#FC265D">
            <g id="picto-flag-copy" transform="translate(238.000000, 289.000000)">
                <g id="Group" class="variable-fill" transform="translate(8.520000, 8.000000)">
                    <circle id="Oval" cx="13.836478" cy="1.10691824" r="1.10691824"></circle>
                    <circle id="Oval" cx="13.836478" cy="4.22641509" r="1.10691824"></circle>
                    <circle id="Oval" cx="13.836478" cy="7.39622642" r="1.10691824"></circle>
                    <circle id="Oval" cx="10.6666667" cy="1.10691824" r="1.10691824"></circle>
                    <circle id="Oval" cx="7.54716981" cy="1.10691824" r="1.10691824"></circle>
                    <circle id="Oval" cx="10.6666667" cy="4.22641509" r="1.10691824"></circle>
                    <circle id="Oval" cx="10.6666667" cy="7.39622642" r="1.10691824"></circle>
                    <path d="M7.54716981,2.86792453 C6.18867925,2.86792453 6.5408805,4.57861635 6.5408805,5.93710692 C5.78616352,5.33333333 4.67924528,5.63522013 4.37735849,6.49056604 C3.57232704,5.83647799 2.36477987,6.28930818 2.21383648,7.34591195 C-1.50943396,7.39622642 0.402515723,13.3836478 1.50943396,14.0377358 L1.50943396,16 L7.79874214,16 L7.79874214,14.0377358 C7.79874214,14.0377358 9.25786164,12.427673 9.66037736,10.7169811 C10.0628931,8.95597484 8.95597484,8.65408805 8.55345912,8.65408805 L8.55345912,3.87421384 C8.55345912,3.32075472 8.10062893,2.86792453 7.54716981,2.86792453 Z" id="Path"></path>
                </g>
            </g>
        </g>
    </g>
</svg>