<svg width="204" height="190" viewBox="0 0 204 190" fill="none" xmlns="http://www.w3.org/2000/svg">
<path d="M93.5 189.763C145.139 189.763 187 147.283 187 94.8814C187 42.4799 145.139 0 93.5 0C41.8614 0 0 42.4799 0 94.8814C0 147.283 41.8614 189.763 93.5 189.763Z" fill="url(#paint0_linear_5395_219994)"/>
<path d="M122.093 142.319H86.9067C84.6644 142.319 82.8467 144.164 82.8467 146.439C82.8467 148.715 84.6644 150.559 86.9067 150.559H122.093C124.336 150.559 126.153 148.715 126.153 146.439C126.153 144.164 124.336 142.319 122.093 142.319Z" fill="#DFEAFB"/>
<path d="M134.273 158.8H74.7265C72.4842 158.8 70.6665 160.644 70.6665 162.92C70.6665 165.195 72.4842 167.04 74.7265 167.04H134.273C136.515 167.04 138.333 165.195 138.333 162.92C138.333 160.644 136.515 158.8 134.273 158.8Z" fill="#DFEAFB"/>
<g filter="url(#filter0_d_5395_219994)">
<path d="M58 81H193C194.326 81 195.598 81.5268 196.536 82.4645C197.473 83.4021 198 84.6739 198 86V111C198 112.326 197.473 113.598 196.536 114.536C195.598 115.473 194.326 116 193 116H58C56.6739 116 55.4021 115.473 54.4645 114.536C53.5268 113.598 53 112.326 53 111V86C53 84.6739 53.5268 83.4021 54.4645 82.4645C55.4021 81.5268 56.6739 81 58 81V81Z" fill="white"/>
</g>
<path d="M132 89H106C104.343 89 103 90.3431 103 92C103 93.6569 104.343 95 106 95H132C133.657 95 135 93.6569 135 92C135 90.3431 133.657 89 132 89Z" fill="#B4DAFF"/>
<path d="M150 102H106C104.343 102 103 103.343 103 105C103 106.657 104.343 108 106 108H150C151.657 108 153 106.657 153 105C153 103.343 151.657 102 150 102Z" fill="#DEE9FC"/>
<path d="M83.5 108C88.7467 108 93 103.747 93 98.5C93 93.2533 88.7467 89 83.5 89C78.2533 89 74 93.2533 74 98.5C74 103.747 78.2533 108 83.5 108Z" fill="#1485FD"/>
<path d="M82.703 101H83.487L81.667 96.177H80.862L79.042 101H79.833L80.295 99.796H82.241L82.703 101ZM81.268 97.108L81.989 99.131H80.547L81.268 97.108ZM86.0872 96.863C86.6122 96.863 86.8292 97.304 86.8292 97.71C86.8292 98.123 86.5912 98.55 86.0592 98.55H84.9112V96.863H86.0872ZM84.1622 101H84.9112V99.229H86.1012C87.1372 99.229 87.5712 98.473 87.5712 97.71C87.5712 96.947 87.1372 96.177 86.1012 96.177H84.1622V101Z" fill="white"/>
<g filter="url(#filter1_d_5395_219994)">
<path d="M15 124H150C151.326 124 152.598 124.527 153.536 125.464C154.473 126.402 155 127.674 155 129V154C155 155.326 154.473 156.598 153.536 157.536C152.598 158.473 151.326 159 150 159H15C13.6739 159 12.4021 158.473 11.4645 157.536C10.5268 156.598 10 155.326 10 154V129C10 127.674 10.5268 126.402 11.4645 125.464C12.4021 124.527 13.6739 124 15 124V124Z" fill="white"/>
</g>
<path d="M89 132H63C61.3431 132 60 133.343 60 135C60 136.657 61.3431 138 63 138H89C90.6569 138 92 136.657 92 135C92 133.343 90.6569 132 89 132Z" fill="#B4DAFF"/>
<path d="M107 145H63C61.3431 145 60 146.343 60 148C60 149.657 61.3431 151 63 151H107C108.657 151 110 149.657 110 148C110 146.343 108.657 145 107 145Z" fill="#DEE9FC"/>
<path d="M27.5 151C32.7467 151 37 146.747 37 141.5C37 136.253 32.7467 132 27.5 132C22.2533 132 18 136.253 18 141.5C18 146.747 22.2533 151 27.5 151Z" fill="#1485FD"/>
<path d="M23.923 144.631C25.015 144.631 25.428 143.91 25.428 143.056V138.177H24.707V143.056C24.707 143.532 24.49 143.938 23.923 143.938C23.867 143.938 23.552 143.924 23.433 143.882L23.363 144.554C23.545 144.596 23.79 144.631 23.923 144.631ZM28.1431 143.07C29.1161 143.07 29.7741 142.433 29.7741 141.628C29.7741 140.921 29.2631 140.48 28.4511 140.277L27.8421 140.123C27.2331 139.969 27.1841 139.647 27.1841 139.493C27.1841 139.052 27.5901 138.779 28.0451 138.779C28.5421 138.779 28.8991 139.087 28.8991 139.542H29.6131C29.6131 138.667 28.9341 138.121 28.0661 138.121C27.2121 138.121 26.4631 138.66 26.4631 139.507C26.4631 139.906 26.6311 140.515 27.6601 140.774L28.2761 140.928C28.6681 141.033 29.0531 141.236 29.0531 141.663C29.0531 142.062 28.7171 142.412 28.1431 142.412C27.5411 142.412 27.1561 142.013 27.1421 141.6H26.4281C26.4281 142.377 27.1141 143.07 28.1431 143.07Z" fill="white"/>
<g filter="url(#filter2_d_5395_219994)">
<path d="M150 38H15C12.2386 38 10 40.2386 10 43V68C10 70.7614 12.2386 73 15 73H150C152.761 73 155 70.7614 155 68V43C155 40.2386 152.761 38 150 38Z" fill="white"/>
</g>
<path d="M87 46H61C59.3431 46 58 47.3431 58 49C58 50.6569 59.3431 52 61 52H87C88.6569 52 90 50.6569 90 49C90 47.3431 88.6569 46 87 46Z" fill="#B4DAFF"/>
<path d="M105 59H61C59.3431 59 58 60.3431 58 62C58 63.6569 59.3431 65 61 65H105C106.657 65 108 63.6569 108 62C108 60.3431 106.657 59 105 59Z" fill="#DEE9FC"/>
<path d="M40.5 65C45.7467 65 50 60.7467 50 55.5C50 50.2533 45.7467 46 40.5 46C35.2533 46 31 50.2533 31 55.5C31 60.7467 35.2533 65 40.5 65Z" fill="#1485FD"/>
<path d="M35.8246 55.6C35.8246 56.384 36.5246 57.07 37.5256 57.07C38.4426 57.07 39.0936 56.531 39.1706 55.775C39.2476 55.075 38.8486 54.536 37.8686 54.277L37.2526 54.116C36.6786 53.969 36.6086 53.675 36.6086 53.486C36.6086 53.094 36.9936 52.821 37.4416 52.821C37.9456 52.821 38.2816 53.101 38.2816 53.549H39.0236C39.0236 52.667 38.3516 52.121 37.4556 52.121C36.6086 52.121 35.8666 52.674 35.8666 53.5C35.8666 53.927 36.0276 54.515 37.0636 54.795L37.6726 54.949C38.1206 55.054 38.4636 55.285 38.4356 55.733C38.3866 56.09 38.0926 56.391 37.5256 56.391C36.9446 56.391 36.5876 55.992 36.5666 55.6H35.8246ZM40.8661 52.87H42.0001C42.9451 52.87 43.4281 53.647 43.4281 54.599C43.4281 55.558 42.9451 56.314 42.0001 56.314H40.8661V52.87ZM42.0001 57C43.3721 57 44.1701 55.971 44.1701 54.599C44.1701 53.227 43.3721 52.177 42.0001 52.177H40.1241V57H42.0001Z" fill="white"/>
<defs>
<filter id="filter0_d_5395_219994" x="47" y="78" width="157" height="47" filterUnits="userSpaceOnUse" color-interpolation-filters="sRGB">
<feFlood flood-opacity="0" result="BackgroundImageFix"/>
<feColorMatrix in="SourceAlpha" type="matrix" values="0 0 0 0 0 0 0 0 0 0 0 0 0 0 0 0 0 0 127 0" result="hardAlpha"/>
<feOffset dy="3"/>
<feGaussianBlur stdDeviation="3"/>
<feColorMatrix type="matrix" values="0 0 0 0 0 0 0 0 0 0 0 0 0 0 0 0 0 0 0.161 0"/>
<feBlend mode="normal" in2="BackgroundImageFix" result="effect1_dropShadow_5395_219994"/>
<feBlend mode="normal" in="SourceGraphic" in2="effect1_dropShadow_5395_219994" result="shape"/>
</filter>
<filter id="filter1_d_5395_219994" x="4" y="121" width="157" height="47" filterUnits="userSpaceOnUse" color-interpolation-filters="sRGB">
<feFlood flood-opacity="0" result="BackgroundImageFix"/>
<feColorMatrix in="SourceAlpha" type="matrix" values="0 0 0 0 0 0 0 0 0 0 0 0 0 0 0 0 0 0 127 0" result="hardAlpha"/>
<feOffset dy="3"/>
<feGaussianBlur stdDeviation="3"/>
<feColorMatrix type="matrix" values="0 0 0 0 0 0 0 0 0 0 0 0 0 0 0 0 0 0 0.161 0"/>
<feBlend mode="normal" in2="BackgroundImageFix" result="effect1_dropShadow_5395_219994"/>
<feBlend mode="normal" in="SourceGraphic" in2="effect1_dropShadow_5395_219994" result="shape"/>
</filter>
<filter id="filter2_d_5395_219994" x="4" y="35" width="157" height="47" filterUnits="userSpaceOnUse" color-interpolation-filters="sRGB">
<feFlood flood-opacity="0" result="BackgroundImageFix"/>
<feColorMatrix in="SourceAlpha" type="matrix" values="0 0 0 0 0 0 0 0 0 0 0 0 0 0 0 0 0 0 127 0" result="hardAlpha"/>
<feOffset dy="3"/>
<feGaussianBlur stdDeviation="3"/>
<feColorMatrix type="matrix" values="0 0 0 0 0 0 0 0 0 0 0 0 0 0 0 0 0 0 0.161 0"/>
<feBlend mode="normal" in2="BackgroundImageFix" result="effect1_dropShadow_5395_219994"/>
<feBlend mode="normal" in="SourceGraphic" in2="effect1_dropShadow_5395_219994" result="shape"/>
</filter>
<linearGradient id="paint0_linear_5395_219994" x1="93.5" y1="0" x2="93.5" y2="189.763" gradientUnits="userSpaceOnUse">
<stop stop-color="#E3ECFA"/>
<stop offset="1" stop-color="#DAE7FF"/>
</linearGradient>
</defs>
</svg>
