<svg width="12" height="16" viewBox="0 0 12 16" fill="none" xmlns="http://www.w3.org/2000/svg">
<path d="M6.00463 15.0352C9.20711 15.0352 11.7768 12.459 11.7768 9.25649C11.7768 8.86909 11.5057 8.59146 11.1183 8.59146C10.7438 8.59146 10.492 8.86909 10.492 9.25649C10.492 11.7487 8.49688 13.7503 6.00463 13.7503C3.51884 13.7503 1.51729 11.7487 1.51729 9.25649C1.51729 6.74487 3.49947 4.75623 5.98526 4.75623C6.40494 4.75623 6.79234 4.78851 7.13454 4.84662L5.37188 6.58991C5.25567 6.70613 5.1911 6.84817 5.1911 7.0225C5.1911 7.37761 5.46873 7.65525 5.81739 7.65525C6.00463 7.65525 6.15313 7.59714 6.26935 7.47446L8.91656 4.80788C9.05861 4.66584 9.12318 4.51088 9.12318 4.33009C9.12318 4.15577 9.05215 3.98789 8.91656 3.85876L6.26935 1.16635C6.15313 1.03722 6.00463 0.972656 5.81739 0.972656C5.46873 0.972656 5.1911 1.2632 5.1911 1.61832C5.1911 1.79265 5.25567 1.93469 5.36543 2.05737L6.90856 3.56821C6.6051 3.52302 6.29518 3.49719 5.98526 3.49719C2.78924 3.49719 0.232422 6.05401 0.232422 9.25649C0.232422 12.459 2.80861 15.0352 6.00463 15.0352Z" fill="#196DFD"/>
</svg>
