<svg width="12" height="12" viewBox="0 0 12 12" fill="none" xmlns="http://www.w3.org/2000/svg">
<path fill-rule="evenodd" clip-rule="evenodd" d="M10.0945 11.2835C11.0098 11.2835 11.4722 10.7009 11.4722 9.58224V2.43946C11.4722 1.31503 11.0098 0.732422 10.0945 0.732422H1.91236C1.00168 0.732422 0.534668 1.3092 0.534668 2.43946V9.58224C0.534668 10.7067 1.00168 11.2835 1.91236 11.2835H10.0945ZM4.32939 4.06494H1.34644V2.47442C1.34644 1.80442 2.01003 1.45486 2.34682 1.45486H4.32939V4.06494ZM4.97026 4.06494H10.7497V2.47442C10.7497 1.80442 10.3827 1.45486 9.74182 1.45486H4.97026V4.06494ZM10.7497 7.31007H4.97026V4.71164H10.7497V7.31007ZM1.34644 7.31007H4.32939V4.71164H1.34644V7.31007ZM9.74182 10.561H4.97026V7.95094H10.7497V9.54146C10.7497 10.2173 10.3827 10.561 9.74182 10.561ZM2.30959 10.561H4.32939V7.95094H1.34644V9.54146C1.34644 10.2173 1.71929 10.561 2.30959 10.561Z" fill="#1F2B37"/>
</svg>
