<svg width="10" height="12" viewBox="0 0 20 19" fill="none" xmlns="http://www.w3.org/2000/svg">
    <path fill-rule="evenodd" clip-rule="evenodd" d="M19.375 16.0412C19.375 17.9589 18.5824 18.9576 17.0132 18.9576H2.98676C1.4256 18.9576 0.625 17.9688 0.625 16.0412V3.79648C0.625 1.85889 1.4256 0.870117 2.98676 0.870117H17.0132C18.5824 0.870117 19.375 1.86887 19.375 3.79648V16.0412ZM2.0166 3.8564C2.0166 2.70783 3.15419 2.10858 3.73154 2.10858H16.4087C17.5073 2.10858 18.1365 2.70783 18.1365 3.8564V15.9713C18.1365 17.1299 17.5073 17.7192 16.4087 17.7192H3.66772C2.65578 17.7192 2.0166 17.1299 2.0166 15.9713V3.8564Z" fill="#1F2B37"/>
    <path fill-rule="evenodd" clip-rule="evenodd" d="M9.28798 5.04724C9.28798 4.78508 9.5005 4.57256 9.76266 4.57256H15.9335C16.1957 4.57256 16.4082 4.78508 16.4082 5.04724V6.23395C16.4082 6.49611 16.1957 6.70863 15.9335 6.70863H9.76266C9.5005 6.70863 9.28798 6.49611 9.28798 6.23395V5.04724Z" fill="#1F2B37"/>
    <path fill-rule="evenodd" clip-rule="evenodd" d="M6.43987 9.31939C6.43987 9.05723 6.6524 8.84471 6.91456 8.84471H13.0854C13.3476 8.84471 13.5601 9.05723 13.5601 9.31939V10.5061C13.5601 10.7683 13.3476 10.9808 13.0854 10.9808H6.91456C6.6524 10.9808 6.43987 10.7683 6.43987 10.5061V9.31939Z" fill="#1F2B37"/>
    <path fill-rule="evenodd" clip-rule="evenodd" d="M3.59177 13.5915C3.59177 13.3294 3.8043 13.1169 4.06646 13.1169H10.2373C10.4995 13.1169 10.712 13.3294 10.712 13.5915V14.7783C10.712 15.0404 10.4995 15.2529 10.2373 15.2529H4.06646C3.8043 15.2529 3.59177 15.0404 3.59177 14.7783V13.5915Z" fill="#1F2B37"/>
</svg>
