<svg width="30" height="29" viewBox="0 0 30 29" fill="none" xmlns="http://www.w3.org/2000/svg">
<g filter="url(#filter0_d_2310_74821)">
<path d="M2 5C2 2.79086 3.79086 1 6 1H24C26.2091 1 28 2.79086 28 5V23C28 25.2091 26.2091 27 24 27H6C3.79086 27 2 25.2091 2 23V5Z" fill="white"/>
<path fill-rule="evenodd" clip-rule="evenodd" d="M15.0001 7C16.4631 7 17.7573 7.11889 18.5446 7.30111C20.1143 7.63145 21.3505 8.87114 21.6799 10.4454C21.8616 11.2349 21.9801 12.5328 21.9801 14C21.9801 15.4672 21.8616 16.7651 21.6799 17.5546C21.3505 19.1289 20.1143 20.3685 18.5446 20.6989C17.7573 20.8811 16.4631 21 15.0001 21C13.537 21 12.2429 20.8811 11.4556 20.6989C9.88583 20.3685 8.64967 19.1289 8.32027 17.5546C8.13857 16.7651 8.02002 15.4672 8.02002 14C8.02002 12.5328 8.13857 11.2349 8.32027 10.4454C8.64967 8.87114 9.88583 7.63145 11.4556 7.30111C12.2429 7.11889 13.537 7 15.0001 7ZM15.9217 17.1201C16.2637 17.1921 16.5449 17.4302 16.6774 17.7464C16.7211 17.8507 16.8274 17.9147 16.94 17.9043C16.9737 17.9013 17.0024 17.8985 17.0261 17.8962C17.5728 17.8415 18.0025 17.7653 18.2523 17.6764L18.2537 17.6758C18.4215 17.6125 18.5409 17.4502 18.5409 17.2599L18.5406 17.2457L18.5393 17.2223L18.5388 17.2169C18.5383 17.212 18.538 17.2071 18.5379 17.2025C18.4953 16.6311 18.1493 15.2936 17.6325 13.7669C17.0418 12.0215 16.424 10.6085 16.1454 10.3329L16.1449 10.3324C16.1009 10.2865 16.0496 10.2476 15.9929 10.2176C15.9707 10.2049 15.9427 10.1928 15.9094 10.1814L15.9064 10.1804C15.7237 10.1184 15.3864 10.0768 14.9997 10.0768C14.6138 10.0768 14.2764 10.1184 14.0934 10.1805L14.0908 10.1814C14.0575 10.1928 14.0294 10.2049 14.0073 10.2176C13.9506 10.2476 13.8993 10.2865 13.8548 10.3329C13.5762 10.6085 12.9584 12.0215 12.3676 13.7669C11.8508 15.2936 11.5049 16.6311 11.4622 17.2025C11.4621 17.2071 11.4618 17.212 11.4614 17.2169L11.4609 17.2223L11.4595 17.2457L11.4593 17.2599C11.4593 17.4502 11.5787 17.6125 11.7464 17.6758L11.7479 17.6764C11.9979 17.7654 12.4281 17.8417 12.9755 17.8963L13.0508 17.9035C13.1683 17.9143 13.2793 17.8481 13.3257 17.7396C13.4593 17.4268 13.7389 17.1916 14.0785 17.1201C14.2832 17.0727 14.6197 17.0418 15.0001 17.0418C15.3805 17.0418 15.717 17.0727 15.9217 17.1201Z" fill="currentColor"/>
</g>
<defs>
<filter id="filter0_d_2310_74821" x="0.5" y="0" width="29" height="29" filterUnits="userSpaceOnUse" color-interpolation-filters="sRGB">
<feFlood flood-opacity="0" result="BackgroundImageFix"/>
<feColorMatrix in="SourceAlpha" type="matrix" values="0 0 0 0 0 0 0 0 0 0 0 0 0 0 0 0 0 0 127 0" result="hardAlpha"/>
<feMorphology radius="0.5" operator="dilate" in="SourceAlpha" result="effect1_dropShadow_2310_74821"/>
<feOffset dy="0.5"/>
<feGaussianBlur stdDeviation="0.5"/>
<feColorMatrix type="matrix" values="0 0 0 0 0.0235294 0 0 0 0 0.0705882 0 0 0 0 0.286275 0 0 0 0.2 0"/>
<feBlend mode="normal" in2="BackgroundImageFix" result="effect1_dropShadow_2310_74821"/>
<feBlend mode="normal" in="SourceGraphic" in2="effect1_dropShadow_2310_74821" result="shape"/>
</filter>
</defs>
</svg>
