<svg width="30" height="29" viewBox="0 0 30 29" fill="none" xmlns="http://www.w3.org/2000/svg">
<g filter="url(#filter0_d_2310_74839)">
<path d="M2 5C2 2.79086 3.79086 1 6 1H24C26.2091 1 28 2.79086 28 5V23C28 25.2091 26.2091 27 24 27H6C3.79086 27 2 25.2091 2 23V5Z" fill="white"/>
<path d="M19.9091 8.54537H19.303V7.33325H18.0909V8.54537H12.0303V7.33325H10.8182V8.54537H10.2121C9.54545 8.54537 9 9.09083 9 9.75749V19.4545C9 20.1211 9.54545 20.6666 10.2121 20.6666H19.9091C20.5758 20.6666 21.1212 20.1211 21.1212 19.4545V9.75749C21.1212 9.09083 20.5758 8.54537 19.9091 8.54537ZM19.9091 19.4545H10.2121V11.5757H19.9091V19.4545Z" fill="currentColor"/>
</g>
<defs>
<filter id="filter0_d_2310_74839" x="0.5" y="0" width="29" height="29" filterUnits="userSpaceOnUse" color-interpolation-filters="sRGB">
<feFlood flood-opacity="0" result="BackgroundImageFix"/>
<feColorMatrix in="SourceAlpha" type="matrix" values="0 0 0 0 0 0 0 0 0 0 0 0 0 0 0 0 0 0 127 0" result="hardAlpha"/>
<feMorphology radius="0.5" operator="dilate" in="SourceAlpha" result="effect1_dropShadow_2310_74839"/>
<feOffset dy="0.5"/>
<feGaussianBlur stdDeviation="0.5"/>
<feColorMatrix type="matrix" values="0 0 0 0 0.0235294 0 0 0 0 0.0705882 0 0 0 0 0.286275 0 0 0 0.2 0"/>
<feBlend mode="normal" in2="BackgroundImageFix" result="effect1_dropShadow_2310_74839"/>
<feBlend mode="normal" in="SourceGraphic" in2="effect1_dropShadow_2310_74839" result="shape"/>
</filter>
</defs>
</svg>
