<svg width="30" height="29" viewBox="0 0 30 29" fill="none" xmlns="http://www.w3.org/2000/svg">
<g filter="url(#filter0_d_2310_74741)">
<path d="M2 5C2 2.79086 3.79086 1 6 1H24C26.2091 1 28 2.79086 28 5V23C28 25.2091 26.2091 27 24 27H6C3.79086 27 2 25.2091 2 23V5Z" fill="white"/>
<path d="M15.0739 10.2962V7.33325H7.6665V20.6666H22.4813V10.2962H15.0739ZM10.6295 19.1851H9.14799V17.7036H10.6295V19.1851ZM10.6295 16.2221H9.14799V14.7407H10.6295V16.2221ZM10.6295 13.2592H9.14799V11.7777H10.6295V13.2592ZM10.6295 10.2962H9.14799V8.81473H10.6295V10.2962ZM13.5924 19.1851H12.1109V17.7036H13.5924V19.1851ZM13.5924 16.2221H12.1109V14.7407H13.5924V16.2221ZM13.5924 13.2592H12.1109V11.7777H13.5924V13.2592ZM13.5924 10.2962H12.1109V8.81473H13.5924V10.2962ZM20.9998 19.1851H15.0739V17.7036H16.5554V16.2221H15.0739V14.7407H16.5554V13.2592H15.0739V11.7777H20.9998V19.1851ZM19.5184 13.2592H18.0369V14.7407H19.5184V13.2592ZM19.5184 16.2221H18.0369V17.7036H19.5184V16.2221Z" fill="currentColor"/>
</g>
<defs>
<filter id="filter0_d_2310_74741" x="0.5" y="0" width="29" height="29" filterUnits="userSpaceOnUse" color-interpolation-filters="sRGB">
<feFlood flood-opacity="0" result="BackgroundImageFix"/>
<feColorMatrix in="SourceAlpha" type="matrix" values="0 0 0 0 0 0 0 0 0 0 0 0 0 0 0 0 0 0 127 0" result="hardAlpha"/>
<feMorphology radius="0.5" operator="dilate" in="SourceAlpha" result="effect1_dropShadow_2310_74741"/>
<feOffset dy="0.5"/>
<feGaussianBlur stdDeviation="0.5"/>
<feColorMatrix type="matrix" values="0 0 0 0 0.0235294 0 0 0 0 0.0705882 0 0 0 0 0.286275 0 0 0 0.2 0"/>
<feBlend mode="normal" in2="BackgroundImageFix" result="effect1_dropShadow_2310_74741"/>
<feBlend mode="normal" in="SourceGraphic" in2="effect1_dropShadow_2310_74741" result="shape"/>
</filter>
</defs>
</svg>
