<svg
    width="30"
    height="29"
    viewBox="0 0 30 29"
    fill="none"
    xmlns="http://www.w3.org/2000/svg"
>
    <g filter="url(#filter0_d_2310_74773)">
        <path d="M2 5C2 2.79086 3.79086 1 6 1H24C26.2091 1 28 2.79086 28 5V23C28 25.2091 26.2091 27 24 27H6C3.79086 27 2 25.2091 2 23V5Z" fill="white"/>
        <path d="m14.29,13.87c1.45,0 2.62,-1.17 2.62,-2.61c0,-1.45 -1.17,-2.61 -2.62,-2.61c-1.44,0 -2.61,1.17 -2.61,2.61c0,1.45 1.17,2.61 2.61,2.61z" fill="currentColor" id="svg_3"/>
        <path d="m14.74,14.54c-0.15,-0.01 -0.29,-0.02 -0.45,-0.02c-1.57,0 -3.05,0.44 -4.32,1.19c-0.57,0.34 -0.91,0.98 -0.91,1.65l0,1.74l6.06,0c-0.52,-0.74 -0.83,-1.64 -0.83,-2.61c0,-0.7 0.16,-1.35 0.45,-1.95z" fill="currentColor" id="svg_4"/>
        <path d="m16.09,17.35l-0.89,0l0.31,-0.74l0.45,0c0,-0.08 0,-0.13 -0.01,-0.15l0,-0.13c0,-0.03 0.01,-0.05 0.01,-0.08l-0.74,0l0.31,-0.74l0.58,0c0.21,-0.63 0.57,-1.11 1.08,-1.47c0.5,-0.37 1.06,-0.55 1.71,-0.55c0.4,0 0.76,0.08 1.09,0.22c0.33,0.14 0.64,0.38 0.97,0.7l-0.33,0.78c-0.31,-0.31 -0.59,-0.53 -0.86,-0.67c-0.27,-0.15 -0.57,-0.21 -0.9,-0.21c-0.56,0 -1.04,0.22 -1.42,0.66c-0.17,0.2 -0.3,0.38 -0.38,0.54l3.44,0l-0.31,0.74l-3.33,0c-0.01,0.06 -0.01,0.13 -0.01,0.19c0,0.05 0,0.11 0.01,0.17l3.17,0l-0.31,0.74l-2.68,0c0.2,0.37 0.45,0.66 0.77,0.87c0.33,0.21 0.68,0.31 1.05,0.31c0.34,0 0.65,-0.08 0.92,-0.22c0.27,-0.15 0.57,-0.39 0.9,-0.74l0,1.13c-0.53,0.44 -1.13,0.66 -1.79,0.66c-0.65,0 -1.21,-0.17 -1.71,-0.52c-0.49,-0.35 -0.85,-0.85 -1.09,-1.49z" fill="currentColor" id="svg_5"/>
    </g>
    <defs>
        <filter id="filter0_d_2310_74792" x="0.5" y="0" width="29" height="29" filterUnits="userSpaceOnUse" color-interpolation-filters="sRGB"> 
        <feFlood flood-opacity="0" result="BackgroundImageFix"/>
        <feColorMatrix in="SourceAlpha" result="hardAlpha" type="matrix" values="0 0 0 0 0 0 0 0 0 0 0 0 0 0 0 0 0 0 127 0"/>
        <feMorphology in="SourceAlpha" operator="dilate" radius="0.5"/>
        <feOffset dy="0.5"/>
        <feGaussianBlur stdDeviation="0.5"/>
        <feColorMatrix type="matrix" values="0 0 0 0 0.0235294 0 0 0 0 0.0705882 0 0 0 0 0.286275 0 0 0 0.2 0"/>
        <feBlend in2="BackgroundImageFix"/>
        <feBlend in="SourceGraphic" in2="effect1_dropShadow_2310_74773"/>
        </filter>
    </defs>
</svg>