

<svg width="30" height="29" viewBox="0 0 30 29" fill="none" xmlns="http://www.w3.org/2000/svg">
<g filter="url(#filter0_d_2310_74717)">
    <path d="M2 5C2 2.79086 3.79086 1 6 1H24C26.2091 1 28 2.79086 28 5V23C28 25.2091 26.2091 27 24 27H6C3.79086 27 2 25.2091 2 23V5Z" fill="white"/>
</g>
<g transform="matrix(0.8 0 0 0.8 15 14.5)" id="AGL7J300X2E9XOoCCD8IB"  >
    <g style="" vector-effect="non-scaling-stroke"   >
        <g transform="matrix(1 0 0 1 0 0)" id="Z1OeqJGS0te1-UvU2ex_t"  >
            <path style="stroke: none; stroke-width: 1; stroke-dasharray: none; stroke-linecap: butt; stroke-dashoffset: 0; stroke-linejoin: miter; stroke-miterlimit: 4; fill: currentColor; fill-rule: evenodd; opacity: 1;" vector-effect="non-scaling-stroke"  transform=" translate(-10, -9.91)" d="M 19.375 16.0412 C 19.375 17.9589 18.5824 18.9576 17.0132 18.9576 L 2.98676 18.9576 C 1.4256 18.9576 0.625 17.9688 0.625 16.0412 L 0.625 3.79648 C 0.625 1.85889 1.4256 0.870117 2.98676 0.870117 L 17.0132 0.870117 C 18.5824 0.870117 19.375 1.86887 19.375 3.79648 L 19.375 16.0412 Z M 2.0166 3.8564 C 2.0166 2.70783 3.15419 2.10858 3.73154 2.10858 L 16.4087 2.10858 C 17.5073 2.10858 18.1365 2.70783 18.1365 3.8564 L 18.1365 15.9713 C 18.1365 17.1299 17.5073 17.7192 16.4087 17.7192 L 3.66772 17.7192 C 2.65578 17.7192 2.0166 17.1299 2.0166 15.9713 L 2.0166 3.8564 Z" stroke-linecap="round" />
        </g>
        <g transform="matrix(1 0 0 1 -2.85 4.27)" id="W8C5YuVklkWKYgy0KwRw8"  >
            <path style="stroke: none; stroke-width: 1; stroke-dasharray: none; stroke-linecap: butt; stroke-dashoffset: 0; stroke-linejoin: miter; stroke-miterlimit: 4; fill: currentColor; fill-rule: evenodd; opacity: 1;" vector-effect="non-scaling-stroke"  transform=" translate(-7.15, -14.18)" d="M 3.59177 13.5915 C 3.59177 13.3294 3.8043 13.1169 4.06646 13.1169 L 10.2373 13.1169 C 10.4995 13.1169 10.712 13.3294 10.712 13.5915 L 10.712 14.7783 C 10.712 15.0404 10.4995 15.2529 10.2373 15.2529 L 4.06646 15.2529 C 3.8043 15.2529 3.59177 15.0404 3.59177 14.7783 L 3.59177 13.5915 Z" stroke-linecap="round" />
        </g>
        <g transform="matrix(1 0 0 1 0 0)" id="goL3V48ETAEfjELe5O52B"  >
            <path style="stroke: none; stroke-width: 1; stroke-dasharray: none; stroke-linecap: butt; stroke-dashoffset: 0; stroke-linejoin: miter; stroke-miterlimit: 4; fill: currentColor; fill-rule: evenodd; opacity: 1;" vector-effect="non-scaling-stroke"  transform=" translate(-10, -9.91)" d="M 6.43987 9.31939 C 6.43987 9.05723 6.6524 8.84471 6.91456 8.84471 L 13.0854 8.84471 C 13.3476 8.84471 13.5601 9.05723 13.5601 9.31939 L 13.5601 10.5061 C 13.5601 10.7683 13.3476 10.9808 13.0854 10.9808 L 6.91456 10.9808 C 6.6524 10.9808 6.43987 10.7683 6.43987 10.5061 L 6.43987 9.31939 Z" stroke-linecap="round" />
        </g>
        <g transform="matrix(1 0 0 1 2.85 -4.27)" id="4MOlnj-WSHAPRPiAadyIK"  >
            <path style="stroke: none; stroke-width: 1; stroke-dasharray: none; stroke-linecap: butt; stroke-dashoffset: 0; stroke-linejoin: miter; stroke-miterlimit: 4; fill: currentColor; fill-rule: evenodd; opacity: 1;" vector-effect="non-scaling-stroke"  transform=" translate(-12.85, -5.64)" d="M 9.28798 5.04724 C 9.28798 4.78508 9.5005 4.57256 9.76266 4.57256 L 15.9335 4.57256 C 16.1957 4.57256 16.4082 4.78508 16.4082 5.04724 L 16.4082 6.23395 C 16.4082 6.49611 16.1957 6.70863 15.9335 6.70863 L 9.76266 6.70863 C 9.5005 6.70863 9.28798 6.49611 9.28798 6.23395 L 9.28798 5.04724 Z" stroke-linecap="round" />
        </g>
    </g>
</g>
</svg>