<svg width="14" height="14" viewBox="0 0 14 14" fill="none" xmlns="http://www.w3.org/2000/svg">
<path d="M11.0384 11.0885L12.1298 10.9713L13.0208 12.1975C13.4195 11.4467 13.304 10.4936 12.6708 9.86048C12.1349 9.32341 11.3681 9.15932 10.6896 9.36478L4.64245 3.31738C4.84592 2.63852 4.68147 1.87136 4.1444 1.33501C3.70732 0.89667 3.11395 0.705687 2.54013 0.763141C2.78541 1.0979 3.37878 1.91001 3.38741 1.92207L2.96751 2.9178L1.87611 3.03379L0.985138 1.80924C0.586366 2.56003 0.701896 3.51269 1.33474 4.14515C1.87181 4.68221 2.63825 4.84712 3.31675 4.64202L9.36392 10.6892C9.15882 11.3677 9.32328 12.1345 9.86043 12.6716C10.2987 13.1098 10.892 13.3001 11.4635 13.2434C11.2194 12.9087 10.6261 12.0966 10.6186 12.0852L11.0384 11.0885Z" fill="#1F2B37"/>
</svg>
