<svg width="20" height="20" viewBox="0 0 20 20" fill="none" xmlns="http://www.w3.org/2000/svg">
<path fill-rule="evenodd" clip-rule="evenodd" d="M4.79667 16.88H19.38V19.38H4.79667V16.88ZM1.88008 19.38C1.18964 19.38 0.630005 18.8204 0.630005 18.1299C0.630005 17.4396 1.18964 16.88 1.88008 16.88C2.57037 16.88 3.13 17.4396 3.13 18.1299C3.13 18.8204 2.57037 19.38 1.88008 19.38ZM4.79667 11.4633H19.38V13.9633H4.79667V11.4633ZM1.88008 13.9633C1.18964 13.9633 0.630005 13.4037 0.630005 12.7134C0.630005 12.0229 1.18964 11.4633 1.88008 11.4633C2.57037 11.4633 3.13 12.0229 3.13 12.7134C3.13 13.4037 2.57037 13.9633 1.88008 13.9633ZM4.79667 6.04662H19.38V8.54659H4.79667V6.04662ZM1.88008 8.54659C1.18964 8.54659 0.630005 7.98695 0.630005 7.29651C0.630005 6.60622 1.18964 6.04659 1.88008 6.04659C2.57037 6.04659 3.13 6.60622 3.13 7.29651C3.13 7.98695 2.57037 8.54659 1.88008 8.54659ZM4.79667 0.62992H19.38V3.12988H4.79667V0.62992ZM1.88008 3.12988C1.18964 3.12988 0.630005 2.57025 0.630005 1.87996C0.630005 1.18952 1.18964 0.629883 1.88008 0.629883C2.57037 0.629883 3.13 1.18952 3.13 1.87996C3.13 2.57025 2.57037 3.12988 1.88008 3.12988Z" fill="#1F2B37"/>
</svg>
