<svg width="6" height="14" viewBox="0 0 6 14" fill="none" xmlns="http://www.w3.org/2000/svg">
<path d="M3.08714 0.333252C1.521 0.333252 0.229996 1.60309 0.229996 3.19039C0.229996 3.59251 0.56862 3.93114 0.970737 3.93114C1.37285 3.93114 1.71148 3.59251 1.71148 3.19039C1.71148 2.42849 2.32523 1.81473 3.08714 1.81473C3.84904 1.81473 4.4628 2.42849 4.4628 3.19039V3.74066C4.4628 4.22743 4.31465 4.62955 3.97603 4.94701C3.17179 5.75124 1.49984 5.92055 0.907244 5.89939C0.716768 5.89939 0.526292 5.96288 0.378144 6.11103C0.229996 6.25918 0.166504 6.42849 0.166504 6.64013V11.8042C0.166504 12.5449 0.4628 12.9893 0.737932 13.2221C1.16121 13.6031 1.69031 13.6666 1.94428 13.6666C1.98661 13.6666 2.00777 13.6666 2.02894 13.6666H4.23C5.35169 13.6666 5.83846 12.7142 5.90195 12.0581C5.90195 12.037 5.90195 12.0158 5.90195 11.9946V3.19039C5.94428 1.60309 4.67444 0.333252 3.08714 0.333252Z" fill="#1F2B37"/>
</svg>
