<svg width="10" height="14" viewBox="0 0 10 14" fill="none" xmlns="http://www.w3.org/2000/svg">
<path d="M6.53663 10.1954L6.36308 9.88915C6.31002 9.80092 6.25208 9.71571 6.18953 9.63394L5.4545 8.61307V8.47014C5.54761 8.19979 5.62264 7.92355 5.6791 7.64324C5.73263 7.3738 5.76675 7.10087 5.78118 6.82654L5.90369 5.09106C5.97073 4.69448 5.87906 4.28744 5.64847 3.9579C5.52655 3.80694 5.37024 3.68738 5.19263 3.60923C5.01502 3.53108 4.82127 3.49661 4.6276 3.50871C4.32236 3.50396 4.02303 3.59305 3.77007 3.76393C3.47683 3.95847 3.20025 4.177 2.94316 4.41729L2.02438 5.32586C1.89143 5.45265 1.78097 5.60108 1.6977 5.76484C1.6307 5.9271 1.59269 6.09987 1.5854 6.27527L1.47311 7.74533C1.45575 7.82409 1.45496 7.90559 1.47077 7.98468C1.48659 8.06376 1.51867 8.13869 1.56499 8.20472C1.61433 8.26282 1.67519 8.31006 1.74372 8.34344C1.81225 8.37683 1.88696 8.39564 1.96313 8.39868C2.03826 8.40642 2.11419 8.39863 2.18619 8.3758C2.25819 8.35297 2.32473 8.31559 2.38168 8.26597C2.44406 8.20858 2.49427 8.13925 2.52934 8.06209C2.56442 7.98493 2.58363 7.90152 2.58586 7.81679L2.71857 6.24465L3.24942 5.76484C3.27611 5.75054 3.30592 5.74306 3.3362 5.74306C3.36647 5.74306 3.39628 5.75054 3.42297 5.76484C3.47401 5.76484 3.49443 5.82609 3.49443 5.90776L3.39234 7.31656C3.3857 7.61645 3.45974 7.91261 3.60673 8.17409C3.7192 8.42297 3.86331 8.65629 4.03549 8.86828L5.18908 10.3792C5.23334 10.4286 5.27108 10.4835 5.30137 10.5425C5.32104 10.5921 5.34495 10.6399 5.37283 10.6854L6.66934 13.2682C6.72366 13.3982 6.81623 13.5086 6.93477 13.5847C7.03908 13.638 7.1545 13.666 7.27165 13.6664C7.34876 13.6683 7.42548 13.6548 7.49733 13.6267C7.56919 13.5987 7.63475 13.5566 7.69021 13.503C7.75216 13.4442 7.80066 13.3728 7.83237 13.2935C7.86409 13.2142 7.87828 13.1289 7.87397 13.0436C7.85131 12.8778 7.78821 12.72 7.69021 12.5843L6.53663 10.1954Z" fill="#1F2B37"/>
<path d="M4.62756 2.84534C4.82774 2.96623 5.05728 3.0298 5.29113 3.02909C5.53176 3.03251 5.76859 2.96888 5.97511 2.84534C6.1818 2.72999 6.35977 2.56946 6.49576 2.37573C6.61675 2.16859 6.6769 1.93153 6.66931 1.69175C6.67581 1.4521 6.61573 1.21533 6.49576 1.00777C6.37967 0.806608 6.21462 0.63805 6.01595 0.51775C5.80943 0.394205 5.5726 0.330578 5.33197 0.333993C5.0843 0.325551 4.83954 0.389402 4.62756 0.51775C4.42654 0.63506 4.26081 0.804322 4.14775 1.00777C4.02421 1.21429 3.96058 1.45112 3.964 1.69175C3.97166 1.93658 4.04963 2.17402 4.18859 2.37573C4.2982 2.56294 4.44816 2.72336 4.62756 2.84534Z" fill="#1F2B37"/>
<path d="M9.28319 6.08147C9.15846 5.97503 8.99778 5.92026 8.83401 5.92834H7.4252L6.40433 4.90747L6.30225 6.41836L6.7208 6.83692C6.80677 6.9313 6.91584 7.00167 7.03727 7.04109C7.17193 7.08668 7.31375 7.10744 7.45583 7.10234H8.83401C8.91763 7.10742 9.00142 7.09557 9.08035 7.0675C9.15929 7.03944 9.23175 6.99573 9.2934 6.939C9.40063 6.83014 9.46074 6.68346 9.46074 6.53066C9.46074 6.37785 9.40063 6.23117 9.2934 6.12231L9.28319 6.08147Z" fill="#1F2B37"/>
<path d="M3.60694 9.22583L2.49419 11.2676L0.860799 12.1353C0.783844 12.1737 0.716185 12.2285 0.662529 12.2957C0.608872 12.3629 0.570508 12.441 0.550104 12.5246C0.5297 12.6082 0.527746 12.6952 0.544379 12.7795C0.561012 12.8639 0.595831 12.9437 0.646416 13.0133C0.735929 13.1484 0.875382 13.2426 1.03421 13.2751C1.19304 13.3077 1.35829 13.2759 1.49374 13.1868L3.53548 11.9413L4.43385 10.2773L3.60694 9.25646V9.22583Z" fill="#1F2B37"/>
</svg>
