<svg width="24" height="24" viewBox="0 0 24 24" fill="none" xmlns="http://www.w3.org/2000/svg">
<path d="M12.005 17.6299C13.0405 17.6299 13.88 18.4693 13.88 19.5049C13.88 20.5404 13.0405 21.3799 12.005 21.3799C10.9695 21.3799 10.13 20.5404 10.13 19.5049C10.13 18.4693 10.9695 17.6299 12.005 17.6299Z" fill="#1F2B37"/>
<path d="M12.005 10.1299C13.0405 10.1299 13.88 10.9693 13.88 12.0049C13.88 13.0404 13.0405 13.8799 12.005 13.8799C10.9695 13.8799 10.13 13.0404 10.13 12.0049C10.13 10.9693 10.9695 10.1299 12.005 10.1299Z" fill="#1F2B37"/>
<path d="M12.005 2.62988C13.0405 2.62988 13.88 3.46935 13.88 4.50488C13.88 5.54042 13.0405 6.37988 12.005 6.37988C10.9695 6.37988 10.13 5.54042 10.13 4.50488C10.13 3.46935 10.9695 2.62988 12.005 2.62988Z" fill="#1F2B37"/>
</svg>
