<svg width="24" height="24" viewBox="0 0 24 24" fill="none" xmlns="http://www.w3.org/2000/svg">
<path d="M6.38 4.50488C6.38 5.54042 5.54054 6.37988 4.505 6.37988C3.46947 6.37988 2.63 5.54042 2.63 4.50488C2.63 3.46935 3.46947 2.62988 4.505 2.62988C5.54054 2.62988 6.38 3.46935 6.38 4.50488Z" fill="#1F2B37"/>
<path d="M13.88 4.50488C13.88 5.54042 13.0405 6.37988 12.005 6.37988C10.9695 6.37988 10.13 5.54042 10.13 4.50488C10.13 3.46935 10.9695 2.62988 12.005 2.62988C13.0405 2.62988 13.88 3.46935 13.88 4.50488Z" fill="#1F2B37"/>
<path d="M21.38 4.50488C21.38 5.54042 20.5405 6.37988 19.505 6.37988C18.4695 6.37988 17.63 5.54042 17.63 4.50488C17.63 3.46935 18.4695 2.62988 19.505 2.62988C20.5405 2.62988 21.38 3.46935 21.38 4.50488Z" fill="#1F2B37"/>
<path d="M6.38 12.0049C6.38 13.0404 5.54054 13.8799 4.505 13.8799C3.46947 13.8799 2.63 13.0404 2.63 12.0049C2.63 10.9693 3.46947 10.1299 4.505 10.1299C5.54054 10.1299 6.38 10.9693 6.38 12.0049Z" fill="#1F2B37"/>
<path d="M13.88 12.0049C13.88 13.0404 13.0405 13.8799 12.005 13.8799C10.9695 13.8799 10.13 13.0404 10.13 12.0049C10.13 10.9693 10.9695 10.1299 12.005 10.1299C13.0405 10.1299 13.88 10.9693 13.88 12.0049Z" fill="#1F2B37"/>
<path d="M21.38 12.0049C21.38 13.0404 20.5405 13.8799 19.505 13.8799C18.4695 13.8799 17.63 13.0404 17.63 12.0049C17.63 10.9693 18.4695 10.1299 19.505 10.1299C20.5405 10.1299 21.38 10.9693 21.38 12.0049Z" fill="#1F2B37"/>
<path d="M6.38 19.5049C6.38 20.5404 5.54054 21.3799 4.505 21.3799C3.46947 21.3799 2.63 20.5404 2.63 19.5049C2.63 18.4693 3.46947 17.6299 4.505 17.6299C5.54054 17.6299 6.38 18.4693 6.38 19.5049Z" fill="#1F2B37"/>
<path d="M13.88 19.5049C13.88 20.5404 13.0405 21.3799 12.005 21.3799C10.9695 21.3799 10.13 20.5404 10.13 19.5049C10.13 18.4693 10.9695 17.6299 12.005 17.6299C13.0405 17.6299 13.88 18.4693 13.88 19.5049Z" fill="#1F2B37"/>
<path d="M21.38 19.5049C21.38 20.5404 20.5405 21.3799 19.505 21.3799C18.4695 21.3799 17.63 20.5404 17.63 19.5049C17.63 18.4693 18.4695 17.6299 19.505 17.6299C20.5405 17.6299 21.38 18.4693 21.38 19.5049Z" fill="#1F2B37"/>
</svg>
