<svg width="24" height="24" viewBox="0 0 24 24" fill="none" xmlns="http://www.w3.org/2000/svg">
<path d="M2 19V17H22V19H2ZM3 16V15C3 12.8667 3.65433 10.9833 4.963 9.35C6.271 7.71667 7.95 6.68333 10 6.25V6C10 5.45 10.196 4.97933 10.588 4.588C10.9793 4.196 11.45 4 12 4C12.55 4 13.021 4.196 13.413 4.588C13.8043 4.97933 14 5.45 14 6V6.25C16.0667 6.68333 17.75 7.71667 19.05 9.35C20.35 10.9833 21 12.8667 21 15V16H3ZM5.05 14H18.95C18.7167 12.2667 17.9417 10.8333 16.625 9.7C15.3083 8.56667 13.7667 8 12 8C10.2333 8 8.696 8.56667 7.388 9.7C6.07933 10.8333 5.3 12.2667 5.05 14Z" fill="#1F2B37"/>
</svg>
