<svg width="24" height="24" viewBox="0 0 24 24" fill="none" xmlns="http://www.w3.org/2000/svg">
<path d="M9.14991 16.5875H12.649C14.7019 16.5875 16 15.5011 16 13.8433C16 12.5382 15.0476 11.5928 13.6861 11.5223V11.4659C14.8007 11.3177 15.5626 10.4782 15.5626 9.41294C15.5626 7.91735 14.4198 7.00024 12.5503 7.00024H9.14991C8.42328 7.00024 8 7.42352 8 8.17132V15.4165C8 16.1572 8.42328 16.5875 9.14991 16.5875ZM10.2787 10.972V8.5946H11.8519C12.776 8.5946 13.3263 9.02494 13.3263 9.75157C13.3263 10.5135 12.7196 10.972 11.6896 10.972H10.2787ZM10.2787 15.0073V12.3759H11.8871C13.0441 12.3759 13.6861 12.8345 13.6861 13.681C13.6861 14.5487 13.0723 15.0073 11.9365 15.0073H10.2787Z" fill="#1F2B37"/>
</svg>
