<svg width="24" height="24" viewBox="0 0 24 24" fill="none" xmlns="http://www.w3.org/2000/svg">
<path d="M20.8451 15.8793L16.7435 14.1215C16.3835 13.9681 15.9655 14.0711 15.7181 14.3742L13.9016 16.5934C11.0509 15.2494 8.75674 12.9552 7.41266 10.1045L9.63192 8.28805C9.93566 8.04101 10.0388 7.62252 9.88461 7.26264L8.12678 3.16103C7.95688 2.77152 7.53406 2.5578 7.11968 2.65199L3.31104 3.53091C2.91224 3.623 2.62979 3.97818 2.62988 4.38748C2.62988 13.7809 10.2435 21.3799 19.6223 21.3799C20.0317 21.3801 20.3871 21.0977 20.4792 20.6987L21.3581 16.8901C21.4517 16.4737 21.2364 16.0496 20.8451 15.8793Z" fill="#1F2B37"/>
</svg>
