<svg width="24" height="24" viewBox="0 0 24 24" fill="none" xmlns="http://www.w3.org/2000/svg">
<path d="M5.99998 21.6001C5.36346 21.6001 4.75301 21.3472 4.30292 20.8972C3.85283 20.4471 3.59998 19.8366 3.59998 19.2001L3.59998 16.8001C3.59998 16.1636 3.85283 15.5531 4.30292 15.103C4.75301 14.653 5.36346 14.4001 5.99998 14.4001H15.6C16.2365 14.4001 16.8469 14.653 17.297 15.103C17.7471 15.5531 18 16.1636 18 16.8001V19.2001C18 19.8366 17.7471 20.4471 17.297 20.8972C16.8469 21.3472 16.2365 21.6001 15.6 21.6001H5.99998ZM4.79998 19.2001C4.79998 19.5184 4.9264 19.8236 5.15145 20.0486C5.37649 20.2737 5.68172 20.4001 5.99998 20.4001H15.6C15.9182 20.4001 16.2235 20.2737 16.4485 20.0486C16.6735 19.8236 16.8 19.5184 16.8 19.2001V16.8001C16.8 16.4818 16.6735 16.1766 16.4485 15.9516C16.2235 15.7265 15.9182 15.6001 15.6 15.6001H5.99998C5.68172 15.6001 5.37649 15.7265 5.15145 15.9516C4.9264 16.1766 4.79998 16.4818 4.79998 16.8001V19.2001ZM8.39998 7.8001C8.24085 7.8001 8.08823 7.73688 7.97571 7.62436C7.86319 7.51184 7.79998 7.35923 7.79998 7.2001C7.79998 7.04097 7.86319 6.88835 7.97571 6.77583C8.08823 6.66331 8.24085 6.6001 8.39998 6.6001H13.2C13.3591 6.6001 13.5117 6.66331 13.6242 6.77583C13.7368 6.88835 13.8 7.04097 13.8 7.2001C13.8 7.35923 13.7368 7.51184 13.6242 7.62436C13.5117 7.73688 13.3591 7.8001 13.2 7.8001H8.39998ZM14.2548 12.0001H5.99998C5.36346 12.0001 4.75301 11.7472 4.30292 11.2972C3.85283 10.8471 3.59998 10.2366 3.59998 9.6001L3.59998 4.8001C3.59998 4.16358 3.85283 3.55313 4.30292 3.10304C4.75301 2.65295 5.36346 2.4001 5.99998 2.4001H15.6C16.2365 2.4001 16.8469 2.65295 17.297 3.10304C17.7471 3.55313 18 4.16358 18 4.8001V6.1021C17.6117 5.96542 17.1883 5.96542 16.8 6.1021V4.8001C16.8 4.48184 16.6735 4.17661 16.4485 3.95157C16.2235 3.72652 15.9182 3.6001 15.6 3.6001H5.99998C5.68172 3.6001 5.37649 3.72652 5.15145 3.95157C4.9264 4.17661 4.79998 4.48184 4.79998 4.8001L4.79998 9.6001C4.79998 9.91836 4.9264 10.2236 5.15145 10.4486C5.37649 10.6737 5.68172 10.8001 5.99998 10.8001H13.302C13.3914 11.0531 13.5365 11.2828 13.7268 11.4721L14.2548 12.0001ZM21.6 15.0001C21.6 15.1592 21.5368 15.3118 21.4242 15.4244C21.3117 15.5369 21.1591 15.6001 21 15.6001C20.8408 15.6001 20.6882 15.5369 20.5757 15.4244C20.4632 15.3118 20.4 15.1592 20.4 15.0001V12.6001C20.4 12.1227 20.2103 11.6649 19.8728 11.3273C19.5352 10.9897 19.0774 10.8001 18.6 10.8001H16.4484L17.8248 12.1753C17.9374 12.288 18.0007 12.4408 18.0007 12.6001C18.0007 12.7594 17.9374 12.9122 17.8248 13.0249C17.7121 13.1376 17.5593 13.2009 17.4 13.2009C17.2406 13.2009 17.0878 13.1376 16.9752 13.0249L14.5752 10.6249C14.5193 10.5692 14.475 10.503 14.4447 10.4301C14.4145 10.3572 14.3989 10.279 14.3989 10.2001C14.3989 10.1212 14.4145 10.043 14.4447 9.97014C14.475 9.89724 14.5193 9.83103 14.5752 9.7753L16.9752 7.3753C17.0878 7.26263 17.2406 7.19934 17.4 7.19934C17.5593 7.19934 17.7121 7.26263 17.8248 7.3753C17.9374 7.48796 18.0007 7.64077 18.0007 7.8001C18.0007 7.95943 17.9374 8.11223 17.8248 8.2249L16.4484 9.6001H18.6C18.9939 9.6001 19.3841 9.67769 19.748 9.82846C20.112 9.97922 20.4427 10.2002 20.7213 10.4788C20.9999 10.7574 21.2208 11.0881 21.3716 11.452C21.5224 11.816 21.6 12.2061 21.6 12.6001V15.0001Z" fill="#1F2B37"/>
</svg>
