<svg width="24" height="24" viewBox="0 0 24 24" fill="none" xmlns="http://www.w3.org/2000/svg">
<g clip-path="url(#clip0_1102_14)">
<path d="M21.3334 4H2.66671C2.31309 4 1.97395 4.14048 1.7239 4.39052C1.47385 4.64057 1.33337 4.97971 1.33337 5.33333V18.6667C1.33337 19.0203 1.47385 19.3594 1.7239 19.6095C1.97395 19.8595 2.31309 20 2.66671 20H21.3334C21.687 20 22.0261 19.8595 22.2762 19.6095C22.5262 19.3594 22.6667 19.0203 22.6667 18.6667V5.33333C22.6667 4.97971 22.5262 4.64057 22.2762 4.39052C22.0261 4.14048 21.687 4 21.3334 4ZM21.3334 18.6667H2.66671V5.33333H21.3334V18.6667Z" fill="#1F2B37"/>
<path d="M6.00004 9.33333H18C18.1769 9.33333 18.3464 9.2631 18.4714 9.13807C18.5965 9.01305 18.6667 8.84348 18.6667 8.66667C18.6667 8.48986 18.5965 8.32029 18.4714 8.19526C18.3464 8.07024 18.1769 8 18 8H6.00004C5.82323 8 5.65366 8.07024 5.52864 8.19526C5.40361 8.32029 5.33337 8.48986 5.33337 8.66667C5.33337 8.84348 5.40361 9.01305 5.52864 9.13807C5.65366 9.2631 5.82323 9.33333 6.00004 9.33333Z" fill="#1F2B37"/>
<path d="M6.00004 12.0001H18C18.1769 12.0001 18.3464 11.9298 18.4714 11.8048C18.5965 11.6798 18.6667 11.5102 18.6667 11.3334C18.6667 11.1566 18.5965 10.987 18.4714 10.862C18.3464 10.737 18.1769 10.6667 18 10.6667H6.00004C5.82323 10.6667 5.65366 10.737 5.52864 10.862C5.40361 10.987 5.33337 11.1566 5.33337 11.3334C5.33337 11.5102 5.40361 11.6798 5.52864 11.8048C5.65366 11.9298 5.82323 12.0001 6.00004 12.0001Z" fill="#1F2B37"/>
<path d="M6.00004 14.6666H12.6667C12.8435 14.6666 13.0131 14.5963 13.1381 14.4713C13.2631 14.3463 13.3334 14.1767 13.3334 13.9999C13.3334 13.8231 13.2631 13.6535 13.1381 13.5285C13.0131 13.4035 12.8435 13.3333 12.6667 13.3333H6.00004C5.82323 13.3333 5.65366 13.4035 5.52864 13.5285C5.40361 13.6535 5.33337 13.8231 5.33337 13.9999C5.33337 14.1767 5.40361 14.3463 5.52864 14.4713C5.65366 14.5963 5.82323 14.6666 6.00004 14.6666Z" fill="#1F2B37"/>
</g>
<defs>
<clipPath id="clip0_1102_14">
<rect width="24" height="24" fill="white"/>
</clipPath>
</defs>
</svg>
