<svg width="24" height="24" viewBox="0 0 24 24" fill="none" xmlns="http://www.w3.org/2000/svg">
<path d="M21.3118 11.8664L18.3211 9.50629C18.2961 9.48661 18.266 9.47437 18.2344 9.47098C18.2027 9.4676 18.1708 9.47319 18.1422 9.48714C18.1135 9.50108 18.0894 9.5228 18.0726 9.54982C18.0557 9.57683 18.0468 9.60805 18.0469 9.63988V11.1563H12.8438V5.95316H14.3625C14.5032 5.95316 14.5829 5.7891 14.4961 5.67894L12.1336 2.68832C12.118 2.66808 12.0979 2.6517 12.075 2.64043C12.052 2.62915 12.0268 2.62329 12.0012 2.62329C11.9756 2.62329 11.9504 2.62915 11.9274 2.64043C11.9045 2.6517 11.8844 2.66808 11.8688 2.68832L9.50629 5.67894C9.48661 5.70397 9.47437 5.73403 9.47098 5.76568C9.4676 5.79734 9.47319 5.82931 9.48714 5.85793C9.50108 5.88655 9.5228 5.91066 9.54982 5.9275C9.57683 5.94435 9.60805 5.95324 9.63988 5.95316H11.1563V11.1563H5.95316V9.63754C5.95316 9.49691 5.7891 9.41723 5.67894 9.50394L2.68832 11.8664C2.66808 11.8821 2.6517 11.9021 2.64043 11.9251C2.62915 11.9481 2.62329 11.9733 2.62329 11.9989C2.62329 12.0244 2.62915 12.0497 2.64043 12.0726C2.6517 12.0956 2.66808 12.1157 2.68832 12.1313L5.6766 14.4938C5.78676 14.5805 5.95082 14.5032 5.95082 14.3602V12.8438H11.1539V18.0469H9.63519C9.49457 18.0469 9.41488 18.211 9.5016 18.3211L11.8641 21.3094C11.9321 21.3961 12.0633 21.3961 12.1289 21.3094L14.4914 18.3211C14.5782 18.211 14.5008 18.0469 14.3579 18.0469H12.8438V12.8438H18.0469V14.3625C18.0469 14.5032 18.211 14.5829 18.3211 14.4961L21.3094 12.1336C21.3296 12.1178 21.3459 12.0976 21.3573 12.0746C21.3686 12.0515 21.3746 12.0263 21.3748 12.0006C21.375 11.9749 21.3695 11.9496 21.3586 11.9263C21.3476 11.9031 21.3316 11.8826 21.3118 11.8664Z" fill="#1F2B37"/>
</svg>
