<svg width="24" height="24" viewBox="0 0 24 24" fill="none" xmlns="http://www.w3.org/2000/svg">
<path d="M17.9811 16.5193L14.5244 15.0379C14.221 14.9086 13.8688 14.9954 13.6602 15.2509L12.1294 17.1212C9.72688 15.9884 7.79342 14.055 6.66066 11.6525L8.531 10.1216C8.78698 9.91344 8.87389 9.56075 8.74396 9.25746L7.2625 5.80074C7.11932 5.47247 6.76299 5.29235 6.41376 5.37173L3.20395 6.11246C2.86784 6.19007 2.62981 6.48941 2.62988 6.83436C2.62988 14.7509 9.04642 21.1551 16.9506 21.1551C17.2956 21.1553 17.5951 20.9172 17.6728 20.581L18.4135 17.3712C18.4924 17.0203 18.3109 16.6628 17.9811 16.5193Z" fill="#1F2B37"/>
<path fill-rule="evenodd" clip-rule="evenodd" d="M16.2719 2.86011L21.3799 7.96807L15.2787 8.96129L16.2719 2.86011Z" fill="#1F2B37"/>
</svg>
