<svg width="24" height="24" viewBox="0 0 24 24" fill="none" xmlns="http://www.w3.org/2000/svg">
<path d="M8.61009 16.3379H12.4517C12.7585 16.3379 12.9759 16.1525 12.9759 15.8457C12.9759 15.5453 12.7649 15.3599 12.4581 15.3599H11.1413L12.5859 8.63545H13.8963C14.2095 8.63545 14.4205 8.44369 14.4205 8.13687C14.4205 7.84284 14.2159 7.65747 13.9027 7.65747H10.0547C9.74787 7.65747 9.53693 7.84284 9.53693 8.13687C9.53693 8.44369 9.75426 8.63545 10.0611 8.63545H11.3714L9.92045 15.3599H8.60369C8.29687 15.3599 8.08594 15.5453 8.08594 15.8457C8.08594 16.1525 8.30327 16.3379 8.61009 16.3379Z" fill="#1F2B37"/>
</svg>
