<svg width="24" height="24" viewBox="0 0 24 24" fill="none" xmlns="http://www.w3.org/2000/svg">
<path d="M17.0016 10.0669H13.078L15.6197 2.92761C15.6417 2.86002 15.631 2.78594 15.5903 2.72768C15.5498 2.66927 15.4842 2.63319 15.4132 2.63034H9.9669C9.86322 2.6259 9.76983 2.69223 9.73991 2.79148L6.78981 12.5109C6.76844 12.5813 6.78253 12.6578 6.82764 12.7159C6.87276 12.7741 6.9432 12.8067 7.0168 12.8035H10.6249L9.07731 21.1115C9.05768 21.2165 9.11387 21.3208 9.21217 21.3623C9.31031 21.4037 9.42428 21.3711 9.4857 21.2841L17.183 10.4167C17.227 10.3483 17.231 10.2615 17.1934 10.1894C17.1561 10.1172 17.0828 10.0705 17.0014 10.0672L17.0016 10.0669Z" fill="#1F2B37"/>
</svg>
