<svg width="24" height="24" viewBox="0 0 24 24" fill="none" xmlns="http://www.w3.org/2000/svg">
<path d="M7.42516 21.3799H16.5743C17.8141 21.3799 18.4195 20.7648 18.4195 19.4193V12.3653C18.4195 11.1544 17.9198 10.5297 16.8915 10.424V8.00213C16.8915 4.37899 14.5177 2.62988 11.9997 2.62988C9.4818 2.62988 7.10802 4.37899 7.10802 8.00213V10.472C6.16619 10.6162 5.57996 11.2312 5.57996 12.3653V19.4193C5.57996 20.7648 6.18541 21.3799 7.42516 21.3799ZM8.6553 7.80031C8.6553 5.38808 10.2026 4.10989 11.9997 4.10989C13.7969 4.10989 15.3442 5.38808 15.3442 7.80031V10.4144L8.6553 10.424V7.80031Z" fill="#1F2B37"/>
</svg>
