<svg width="24" height="24" viewBox="0 0 24 24" fill="none" xmlns="http://www.w3.org/2000/svg">
<path d="M4.29446 3.42847L3.42859 4.29375L4.95392 6.92979L5.94312 6.78481L11.9812 12.8194L11.4661 13.3136C11.2023 13.5772 11.2023 13.9766 11.4661 14.2402L11.7339 14.5084C11.9976 14.772 12.4012 14.772 12.5991 14.5084L13.3825 15.2907C13.3166 15.6861 13.3825 16.1559 13.7122 16.4855L17.2773 20.0276C18.0027 20.7526 19.1897 20.7526 19.9151 20.0276C20.7724 19.2368 20.7645 18.0546 20.0391 17.3296L16.4945 13.7664C16.1648 13.4369 15.6946 13.3051 15.2989 13.4369L14.433 12.6546C14.6309 12.391 14.6309 11.9877 14.433 11.7893L14.1857 11.5429C14.1258 11.4804 14.0538 11.4307 13.9741 11.3967C13.8945 11.3628 13.8087 11.3453 13.7221 11.3453C13.6355 11.3453 13.5498 11.3628 13.4701 11.3967C13.3905 11.4307 13.3185 11.4804 13.2585 11.5429L12.8259 11.9752L6.78789 5.94128L6.93165 4.95276L4.2938 3.42847L4.29446 3.42847ZM17.154 3.4489C15.8529 3.34082 14.1277 4.2028 13.3205 4.9521C12.3274 5.94457 12.4896 7.24216 13.279 8.49494L11.8783 9.89534L12.8675 11.0071C13.395 10.5458 14.1732 10.5458 14.7008 11.0071L14.9692 11.2747L15.0312 11.3366L15.6082 10.76C16.8005 11.4605 18.0416 11.5613 18.9879 10.6156C19.9112 9.75893 20.9122 7.64614 20.4506 6.39402L18.5962 8.3091C18.3324 8.57271 17.9328 8.57271 17.669 8.3091L15.752 6.39402C15.6894 6.33411 15.6397 6.26218 15.6057 6.18257C15.5717 6.10295 15.5542 6.01729 15.5542 5.93073C15.5542 5.84418 15.5717 5.75851 15.6057 5.6789C15.6397 5.59928 15.6894 5.52736 15.752 5.46745L17.6697 3.55236C17.5048 3.49437 17.3399 3.46471 17.154 3.4489ZM9.89989 11.6661L7.50868 14.055C7.25173 13.998 6.98911 13.9703 6.7259 13.9726C4.87941 13.9726 3.42859 15.4225 3.42859 17.2677C3.42859 19.1129 4.87941 20.5628 6.7259 20.5628C8.57239 20.5628 10.0232 19.1129 10.0232 17.2677C10.0232 16.9296 9.96979 16.6047 9.87879 16.2996L11.2801 14.8992L11.0744 14.6317C10.5468 14.1044 10.5508 13.3057 11.0124 12.7779L9.89923 11.6661H9.89989ZM15.0107 14.6732C15.0932 14.6732 15.171 14.689 15.2369 14.7555L19.1324 18.6477C19.2643 18.7795 19.2643 18.989 19.1324 19.1208C19.0005 19.2526 18.7894 19.2526 18.6575 19.1208L14.7634 15.2287C14.6315 15.0969 14.6315 14.8874 14.7634 14.7555C14.8294 14.6896 14.9283 14.6732 15.0107 14.6732ZM7.17961 15.5576L8.43654 16.8143L7.98283 18.5231L6.27285 18.9765L5.01525 17.7198L5.46896 16.011L7.17961 15.5576Z" fill="#1F2B37"/>
</svg>
