<svg width="24" height="24" viewBox="0 0 24 24" fill="none" xmlns="http://www.w3.org/2000/svg">
<path d="M18.0575 18.1329L19.6946 17.9571L21.031 19.7964C21.6292 18.6702 21.4559 17.2406 20.5061 16.2908C19.7023 15.4852 18.552 15.2391 17.5343 15.5473L8.46355 6.47619C8.76877 5.4579 8.52208 4.30717 7.71647 3.50264C7.06086 2.84513 6.17081 2.55865 5.31007 2.64483C5.67799 3.14697 6.56805 4.36514 6.581 4.38323L5.95114 5.87683L4.31405 6.05081L2.97758 4.21398C2.37943 5.34017 2.55272 6.76916 3.50199 7.71784C4.30759 8.52344 5.45726 8.7708 6.475 8.46316L15.5458 17.5339C15.2381 18.5517 15.4848 19.7019 16.2905 20.5075C16.9479 21.1648 17.8379 21.4502 18.6952 21.3653C18.329 20.8631 17.439 19.645 17.4278 19.628L18.0575 18.1329Z" fill="#1F2B37"/>
</svg>
