<svg width="24" height="24" viewBox="0 0 24 24" fill="none" xmlns="http://www.w3.org/2000/svg">
<path d="M17.875 1.5H6.125C3.57068 1.5 1.5 3.57069 1.5 6.125V17.875C1.5 20.4293 3.57068 22.5 6.125 22.5H17.875C20.4293 22.5 22.5 20.4293 22.5 17.875V6.125C22.5 3.57069 20.4293 1.5 17.875 1.5Z" fill="#1F2B37"/>
<path d="M12.0001 5.13525C9.95582 5.13527 7.99531 5.81167 6.54982 7.01567C5.10433 8.21967 4.29225 9.85264 4.29224 11.5553C4.2941 12.6629 4.63991 13.7512 5.29605 14.7145C5.9522 15.6777 6.89637 16.4833 8.0368 17.0528C7.73306 17.7327 7.27751 18.3704 6.68903 18.9393C7.83024 18.739 8.90153 18.3181 9.8195 17.7095C10.5273 17.8847 11.2617 17.9742 12.0001 17.9754C14.0443 17.9754 16.0048 17.299 17.4503 16.095C18.8958 14.891 19.7079 13.2581 19.7079 11.5553C19.7079 9.85264 18.8958 8.21967 17.4503 7.01567C16.0048 5.81167 14.0443 5.13527 12.0001 5.13525Z" fill="white"/>
</svg>
