<svg width="24" height="24" viewBox="0 0 24 24" fill="none" xmlns="http://www.w3.org/2000/svg">
<path d="M14.1428 16H10.0628V15.34L12.5028 12.59C13.0094 12.01 13.2628 11.48 13.2628 11C13.2628 10.6733 13.1494 10.41 12.9228 10.21C12.7028 10.0033 12.4128 9.9 12.0528 9.9C11.6928 9.9 11.4061 9.98667 11.1928 10.16C10.9861 10.3267 10.8261 10.5967 10.7128 10.97L10.0428 10.79C10.1628 10.2833 10.3994 9.89333 10.7528 9.62C11.1128 9.34667 11.5561 9.21 12.0828 9.21C12.6494 9.21 13.1094 9.37667 13.4628 9.71C13.8161 10.0433 13.9928 10.48 13.9928 11.02C13.9928 11.6467 13.7661 12.2133 13.3128 12.72L11.0028 15.32H14.1428V16Z" fill="#1F2B37"/>
<circle cx="12" cy="12" r="9.625" stroke="#1F2B37" stroke-width="0.75"/>
</svg>
