<svg width="24" height="24" viewBox="0 0 24 24" fill="none" xmlns="http://www.w3.org/2000/svg">
<path fill-rule="evenodd" clip-rule="evenodd" d="M21 18.7567V13.8C21 13.3029 20.5971 12.9 20.1 12.9C19.6029 12.9 19.2 13.3029 19.2 13.8V18.5996C19.2 18.9312 18.9738 19.2 18.6875 19.2H5.3125C5.02946 19.2 4.8 18.9252 4.8 18.5996V5.40042C4.8 5.06882 5.02619 4.8 5.3125 4.8H10.2C10.6971 4.8 11.1 4.39706 11.1 3.9C11.1 3.40294 10.6971 3 10.2 3H4.99509C3.89262 3 3 4.00437 3 5.24332V18.7567C3 19.9937 3.89323 21 4.99509 21H19.0049C20.1074 21 21 19.9956 21 18.7567ZM11.2271 11.3755L17.8026 4.8H15.5995C15.1029 4.8 14.7002 4.39604 14.7002 3.9C14.7002 3.40294 15.1039 3 15.5995 3H20.101C20.3492 3 20.5739 3.10089 20.7369 3.26402C20.8996 3.42688 21.0002 3.6516 21.0002 3.89929V8.40071C21.0002 8.89738 20.5963 9.3 20.1002 9.3C19.6032 9.3 19.2002 8.89632 19.2002 8.40071V6.20252L12.6272 12.7755C12.2406 13.1621 11.613 13.1613 11.2272 12.7755C10.8406 12.3889 10.8412 11.7615 11.2271 11.3755Z" fill="#1F2B37"/>
</svg>
