<svg width="24" height="24" viewBox="0 0 24 24" fill="none" xmlns="http://www.w3.org/2000/svg">
<path d="M6.90687 9.96278C7.15713 9.96278 7.33299 9.82074 7.33299 9.52314V7.45342C7.33299 7.1761 7.13684 7.00024 6.85276 7.00024C6.62279 7.00024 6.48075 7.08141 6.31842 7.18963L5.86524 7.50076C5.72997 7.58869 5.66233 7.67662 5.66233 7.8119C5.66233 7.98776 5.79084 8.10274 5.93965 8.10274C6.02081 8.10274 6.06816 8.08921 6.17638 8.01481L6.46722 7.8119H6.48075V9.52314C6.48075 9.82074 6.64984 9.96278 6.90687 9.96278ZM9.21332 9.19848H17.9521C18.2633 9.19848 18.5 8.96174 18.5 8.65061C18.5 8.33947 18.2633 8.10274 17.9521 8.10274H9.21332C8.90218 8.10274 8.66545 8.33947 8.66545 8.65061C8.66545 8.95498 8.90218 9.19848 9.21332 9.19848ZM5.87201 13.8384H7.52914C7.71176 13.8384 7.84703 13.7167 7.84703 13.5273C7.84703 13.3312 7.71176 13.2094 7.52914 13.2094H6.62279V13.1959L7.13684 12.7765C7.57648 12.418 7.75234 12.2084 7.75234 11.8296C7.75234 11.3155 7.31946 10.9638 6.62279 10.9638C6.00052 10.9638 5.55411 11.2817 5.55411 11.6943C5.55411 11.904 5.68939 12.0122 5.91259 12.0122C6.06139 12.0122 6.16285 11.9649 6.25078 11.8228C6.34547 11.674 6.46046 11.5929 6.63632 11.5929C6.81894 11.5929 6.94745 11.7146 6.94745 11.8905C6.94745 12.0393 6.87305 12.1678 6.54162 12.4383L5.69615 13.1282C5.56764 13.2297 5.52029 13.3447 5.52029 13.4935C5.52029 13.6964 5.65557 13.8384 5.87201 13.8384ZM9.21332 13.0877H17.9521C18.2633 13.0877 18.5 12.8509 18.5 12.5398C18.5 12.2354 18.2633 11.9919 17.9521 11.9919H9.21332C8.90218 11.9919 8.66545 12.2287 8.66545 12.5398C8.66545 12.8509 8.90218 13.0877 9.21332 13.0877ZM6.63632 17.8426C7.40739 17.8426 7.86056 17.5044 7.86056 16.9633C7.86056 16.6048 7.6103 16.3613 7.16389 16.3207V16.3005C7.48855 16.2396 7.74558 16.0231 7.74558 15.6511C7.74558 15.1574 7.26535 14.8936 6.62955 14.8936C6.12227 14.8936 5.56764 15.1236 5.56764 15.5497C5.56764 15.7391 5.70291 15.8608 5.90583 15.8608C6.04787 15.8608 6.10874 15.8135 6.20343 15.712C6.35224 15.5497 6.47399 15.5023 6.62955 15.5023C6.8257 15.5023 6.96774 15.597 6.96774 15.7864C6.96774 15.9623 6.81894 16.057 6.56191 16.057H6.48075C6.30489 16.057 6.18991 16.1517 6.18991 16.3343C6.18991 16.5101 6.29813 16.6116 6.48075 16.6116H6.56868C6.85276 16.6116 7.00156 16.7063 7.00156 16.9024C7.00156 17.0783 6.84599 17.2 6.63632 17.2C6.40635 17.2 6.25078 17.0715 6.12903 16.9565C6.04787 16.8889 5.98023 16.8348 5.86524 16.8348C5.6488 16.8348 5.5 16.9565 5.5 17.1595C5.5 17.5991 6.10874 17.8426 6.63632 17.8426ZM9.21332 16.9768H17.9521C18.2633 16.9768 18.5 16.7401 18.5 16.429C18.5 16.1246 18.2633 15.8811 17.9521 15.8811H9.21332C8.90218 15.8811 8.66545 16.1246 8.66545 16.429C8.66545 16.7401 8.90218 16.9768 9.21332 16.9768Z" fill="#1F2B37"/>
</svg>
