<svg width="24" height="24" viewBox="0 0 24 24" fill="none" xmlns="http://www.w3.org/2000/svg">
<path d="M6.43483 5.31868C6.78414 5.23929 7.14057 5.41944 7.28379 5.74779L8.7656 9.20536C8.89557 9.50874 8.80863 9.86151 8.55259 10.0698L6.6818 11.601C7.81483 14.0041 9.74877 15.938 12.1519 17.071L13.6831 15.2002C13.8917 14.9447 14.244 14.8579 14.5475 14.9872L18.005 16.469C18.3349 16.6125 18.5164 16.9701 18.4375 17.3211L17.6966 20.5317C17.619 20.868 17.3194 21.1061 16.9742 21.1059C9.06814 21.1059 2.65002 14.7001 2.65002 6.78167C2.65002 6.43664 2.88804 6.13722 3.22423 6.05959L6.43483 5.31868ZM18.85 5.36105L17.8566 11.4637L12.7473 6.35451L18.85 5.36105Z" fill="#1F2B37"/>
</svg>
