<svg width="24" height="24" viewBox="0 0 24 24" fill="none" xmlns="http://www.w3.org/2000/svg">
<path d="M14.8584 19.3329C16.7797 19.2847 20.1072 17.3772 20.1072 17.3772L22.5892 14.7183H22.5893C22.7078 14.5361 22.7453 14.313 22.6931 14.1022C22.6408 13.8914 22.5034 13.7117 22.3135 13.606C22.0746 13.4712 21.7825 13.4712 21.5437 13.606L18.9881 15.07L16.2971 15.4168C16.2342 15.4204 16.1714 15.4204 16.1085 15.4168C15.8261 15.4186 15.5492 15.3388 15.311 15.1871L13.3691 13.9438H16.2809C16.546 13.9172 16.7829 13.7671 16.9205 13.5392C17.058 13.3111 17.0801 13.0315 16.9801 12.7846C16.8799 12.5378 16.6694 12.3525 16.4118 12.2845C15.3157 11.9994 13.6541 11.595 12.6406 11.595V11.5951C12.4983 11.5942 12.3561 11.6049 12.2155 11.6272C11.3031 11.8019 9.46691 12.4914 7.97095 13.0751V18.7629C10.1748 19.0066 13.3601 19.3328 14.6954 19.3328L14.8584 19.3329Z" fill="#1F2B37"/>
<path d="M4.26617 12.5559H7.62842V19.6181H4.26617V12.5559Z" fill="#1F2B37"/>
<path d="M13.7904 7.86296H12.5001L12.9383 6.80393H13.5834C13.5834 6.69032 13.5794 6.61729 13.5713 6.58483V6.39006C13.5713 6.34949 13.5753 6.31297 13.5834 6.28051H12.5001L12.9383 5.22149H13.7782C14.0947 4.32071 14.614 3.61064 15.3363 3.09127C16.0585 2.56379 16.8822 2.30005 17.8073 2.30005C18.3916 2.30005 18.9151 2.40555 19.3776 2.61654C19.8483 2.81942 20.3149 3.15619 20.7775 3.62687L20.3027 4.75893C19.8645 4.3126 19.4466 3.99205 19.049 3.79729C18.6513 3.59441 18.2172 3.49297 17.7465 3.49297C16.935 3.49297 16.2492 3.80946 15.6893 4.44244C15.4377 4.71835 15.2551 4.97803 15.1415 5.22149H20.1201L19.6698 6.28051H14.8616C14.8534 6.36978 14.8494 6.45904 14.8494 6.54831C14.8494 6.62946 14.8534 6.71467 14.8616 6.80393H19.4506L19.0124 7.86296H15.1415C15.4174 8.39044 15.7907 8.80836 16.2614 9.11674C16.7321 9.417 17.2393 9.56713 17.783 9.56713C18.278 9.56713 18.7243 9.46163 19.122 9.25064C19.5196 9.03965 19.9538 8.68258 20.4245 8.17944V9.81058C19.6535 10.4436 18.7893 10.76 17.8317 10.76C16.8903 10.76 16.0667 10.5085 15.3606 10.0053C14.6627 9.50221 14.1393 8.78808 13.7904 7.86296Z" fill="#1F2B37"/>
</svg>
