<svg width="24" height="24" viewBox="0 0 24 24" fill="none" xmlns="http://www.w3.org/2000/svg">
<path d="M17.8333 12.3855L11.4586 18.7602C10.9152 19.3097 10.3244 19.6654 9.68633 19.8272C9.04825 19.989 8.42543 19.9814 7.81788 19.8043C7.21033 19.6272 6.67452 19.3036 6.21046 18.8334C5.73419 18.3572 5.40599 17.8168 5.22586 17.2123C5.04573 16.6078 5.0381 15.9896 5.20296 15.3576C5.36783 14.7256 5.72198 14.1318 6.26541 13.5761L14.994 4.85669C15.3176 4.53307 15.6794 4.3041 16.0794 4.16976C16.4793 4.03543 16.8777 4.00795 17.2746 4.08733C17.6715 4.16671 18.0287 4.3621 18.3462 4.67351C18.6576 4.99103 18.853 5.34823 18.9324 5.74512C19.0118 6.14202 18.9828 6.54044 18.8454 6.94038C18.708 7.34033 18.4775 7.70517 18.1539 8.03489L9.6268 16.5712C9.4253 16.7788 9.21464 16.8688 8.99482 16.8413C8.775 16.8139 8.59182 16.7299 8.44527 16.5895C8.31094 16.449 8.23004 16.2704 8.20256 16.0537C8.17508 15.8369 8.26209 15.6247 8.46359 15.4171L14.4262 9.45455C14.5605 9.32022 14.6307 9.15993 14.6368 8.9737C14.6429 8.78746 14.5819 8.62413 14.4536 8.48369C14.3132 8.34936 14.1514 8.28524 13.9682 8.29135C13.785 8.29745 13.6202 8.37378 13.4736 8.52032L7.49273 14.492C7.19353 14.8035 6.99509 15.1484 6.89739 15.527C6.79969 15.9056 6.79817 16.2781 6.89281 16.6444C6.98746 17.0108 7.16606 17.3314 7.42862 17.6061C7.72171 17.8931 8.05143 18.0839 8.4178 18.1786C8.78416 18.2732 9.15358 18.2671 9.52605 18.1603C9.89851 18.0534 10.2343 17.8473 10.5335 17.542L19.1156 8.95996C19.6651 8.41652 20.03 7.82881 20.2101 7.19684C20.3902 6.56486 20.3963 5.9451 20.2284 5.33755C20.0605 4.72999 19.7384 4.18503 19.2621 3.70265C18.7859 3.23859 18.244 2.9226 17.6364 2.75469C17.0289 2.58677 16.4076 2.5883 15.7725 2.75927C15.1375 2.93023 14.5452 3.29049 13.9957 3.84004L5.22128 12.6144C4.67784 13.1579 4.27789 13.7471 4.02144 14.3821C3.76499 15.0172 3.64134 15.6614 3.6505 16.3147C3.65966 16.968 3.79399 17.6 4.0535 18.2106C4.313 18.8212 4.687 19.3708 5.17548 19.8593C5.67007 20.3477 6.22115 20.7217 6.8287 20.9813C7.43625 21.2408 8.0667 21.3736 8.72005 21.3797C9.37339 21.3858 10.0176 21.2606 10.6526 21.0041C11.2876 20.7477 11.8738 20.3508 12.4112 19.8135L18.8408 13.393C18.9752 13.2525 19.0423 13.0785 19.0423 12.8709C19.0423 12.6633 18.9721 12.4923 18.8317 12.358C18.6973 12.2114 18.534 12.1443 18.3417 12.1565C18.1493 12.1687 17.9799 12.245 17.8333 12.3855Z" fill="#1F2B37"/>
</svg>
