<svg width="24" height="24" viewBox="0 0 24 24" fill="none" xmlns="http://www.w3.org/2000/svg">
<path fill-rule="evenodd" clip-rule="evenodd" d="M12.854 8.96823L10.3369 4.94L10.9124 4.58041C11.2289 4.38264 11.2613 3.85829 10.9844 3.41518C10.7075 2.97208 10.222 2.77135 9.90553 2.96912L4.15092 6.565C3.83442 6.76278 3.802 7.28713 4.07888 7.73024C4.35577 8.17334 4.84127 8.37407 5.15777 8.17629L5.73323 7.81671L8.25035 11.8449C9.08603 13.1823 8.9895 14.7437 8.03423 15.3406L9.04108 16.9519L12.4766 14.8052L16.0005 20.4447L17.0794 20.8908L17.1515 19.7255L13.6275 14.086L17.0975 11.9177L16.0907 10.3064C15.1354 10.9033 13.6897 10.3056 12.854 8.96823Z" fill="#1F2B37"/>
</svg>
