<svg width="24" height="24" viewBox="0 0 24 24" fill="none" xmlns="http://www.w3.org/2000/svg">
<path d="M12.0063 21.3799C16.2763 21.3799 19.7026 17.945 19.7026 13.675C19.7026 13.1585 19.3411 12.7883 18.8245 12.7883C18.3252 12.7883 17.9895 13.1585 17.9895 13.675C17.9895 16.998 15.3293 19.6667 12.0063 19.6667C8.69195 19.6667 6.02321 16.998 6.02321 13.675C6.02321 10.3262 8.66612 7.67465 11.9805 7.67465C12.5401 7.67465 13.0566 7.71769 13.5129 7.79517L11.1627 10.1196C11.0077 10.2745 10.9216 10.4639 10.9216 10.6963C10.9216 11.1698 11.2918 11.54 11.7567 11.54C12.0063 11.54 12.2043 11.4625 12.3593 11.299L15.8889 7.74352C16.0783 7.55413 16.1644 7.34751 16.1644 7.10647C16.1644 6.87403 16.0697 6.6502 15.8889 6.47802L12.3593 2.88815C12.2043 2.71597 12.0063 2.62988 11.7567 2.62988C11.2918 2.62988 10.9216 3.01728 10.9216 3.49076C10.9216 3.7232 11.0077 3.9126 11.1541 4.07616L13.2116 6.09063C12.807 6.03036 12.3937 5.99593 11.9805 5.99593C7.71915 5.99593 4.31006 9.40502 4.31006 13.675C4.31006 17.945 7.74498 21.3799 12.0063 21.3799Z" fill="#1F2B37"/>
</svg>
