<svg width="24" height="24" viewBox="0 0 24 24" fill="none" xmlns="http://www.w3.org/2000/svg">
<path d="M20.3991 12.3532V9.62111C20.3991 9.05797 19.9402 8.59914 19.3771 8.59914H12.4321L12.3488 4.67827C12.599 4.55316 12.7659 4.30294 12.7659 4.01081C12.7659 3.59374 12.4321 3.26001 12.015 3.26001C11.598 3.26001 11.2642 3.59373 11.2642 4.01081C11.2642 4.32359 11.4519 4.57396 11.7023 4.69905L11.598 8.59907H4.65301C4.08987 8.59907 3.63104 9.05789 3.63104 9.62104V12.3531C3.08883 12.3531 2.63 12.8119 2.63 13.3541V15.9819C2.63 16.5241 3.08883 16.9829 3.63104 16.9829V19.715C3.63104 20.2782 4.08987 20.737 4.65301 20.737H19.3563C19.9195 20.737 20.3783 20.2782 20.3783 19.715L20.3781 16.9831C20.9203 16.9831 21.3792 16.5243 21.3792 15.9821L21.3793 13.3542C21.4001 12.7912 20.9412 12.3532 20.3991 12.3532ZM5.88347 13.2709C5.88347 12.0194 6.90544 10.9976 8.15671 10.9976C9.40813 10.9976 10.4299 12.0196 10.4299 13.2709C10.4299 14.5223 9.40798 15.5441 8.15671 15.5441C6.90544 15.565 5.88347 14.5431 5.88347 13.2709ZM14.0576 17.6297C14.0576 17.9983 13.7588 18.2971 13.3902 18.2971H10.6399C10.2713 18.2971 9.9725 17.9983 9.9725 17.6297C9.9725 17.2611 10.2713 16.9623 10.6399 16.9623H13.3902C13.7588 16.9623 14.0576 17.2611 14.0576 17.6297ZM15.8735 15.565C14.6221 15.565 13.6002 14.5431 13.6002 13.2918C13.6002 12.0404 14.6222 11.0186 15.8735 11.0186C17.1249 11.0186 18.1467 12.0405 18.1467 13.2918C18.1467 14.5431 17.1248 15.565 15.8735 15.565Z" fill="#1F2B37"/>
</svg>
