<svg width="24" height="24" viewBox="0 0 24 24" fill="none" xmlns="http://www.w3.org/2000/svg">
<path d="M14.3054 16.7934L14.0451 16.334C13.9655 16.2016 13.8786 16.0738 13.7848 15.9512L12.6822 14.4198V14.2055C12.8219 13.7999 12.9344 13.3856 13.0191 12.9651C13.0994 12.5609 13.1506 12.1515 13.1723 11.7401L13.356 9.13684C13.4566 8.54197 13.3191 7.93141 12.9732 7.43709C12.7903 7.21065 12.5559 7.03131 12.2894 6.91408C12.023 6.79686 11.7324 6.74516 11.4419 6.76331C10.984 6.75618 10.535 6.88982 10.1556 7.14614C9.71574 7.43794 9.30086 7.76575 8.91523 8.12618L7.53706 9.48904C7.33763 9.67921 7.17194 9.90187 7.04704 10.1475C6.94654 10.3909 6.88953 10.65 6.87859 10.9132L6.71015 13.1182C6.68412 13.2364 6.68292 13.3586 6.70665 13.4773C6.73037 13.5959 6.7785 13.7083 6.84797 13.8073C6.92199 13.8945 7.01328 13.9653 7.11607 14.0154C7.21886 14.0655 7.33093 14.0937 7.44518 14.0983C7.55788 14.1099 7.67177 14.0982 7.77977 14.0639C7.88777 14.0297 7.98758 13.9736 8.07301 13.8992C8.16657 13.8131 8.24189 13.7091 8.2945 13.5934C8.34711 13.4776 8.37594 13.3525 8.37927 13.2254L8.57834 10.8672L9.37462 10.1475C9.41466 10.1261 9.45937 10.1148 9.50478 10.1148C9.5502 10.1148 9.59491 10.1261 9.63495 10.1475C9.71151 10.1475 9.74214 10.2394 9.74214 10.3619L9.58901 12.4751C9.57903 12.9249 9.6901 13.3692 9.91058 13.7614C10.0793 14.1347 10.2955 14.4847 10.5537 14.8027L12.2841 17.069C12.3505 17.1431 12.4071 17.2255 12.4525 17.314C12.4821 17.3884 12.5179 17.4601 12.5597 17.5284L14.5045 21.4026C14.586 21.5976 14.7248 21.7631 14.9026 21.8773C15.0591 21.9573 15.2322 21.9993 15.408 21.9998C15.5236 22.0026 15.6387 21.9824 15.7465 21.9403C15.8543 21.8983 15.9526 21.8352 16.0358 21.7548C16.1287 21.6666 16.2015 21.5594 16.2491 21.4404C16.2966 21.3215 16.3179 21.1937 16.3114 21.0657C16.2775 20.8169 16.1828 20.5802 16.0358 20.3766L14.3054 16.7934Z" fill="#1F2B37"/>
<path d="M11.4419 5.76812C11.7422 5.94947 12.0865 6.04482 12.4372 6.04376C12.7982 6.04888 13.1534 5.95344 13.4632 5.76812C13.7732 5.59511 14.0402 5.35432 14.2442 5.06372C14.4257 4.753 14.5159 4.39741 14.5045 4.03775C14.5143 3.67827 14.4241 3.32312 14.2442 3.01177C14.07 2.71003 13.8225 2.4572 13.5245 2.27675C13.2147 2.09143 12.8594 1.99599 12.4985 2.00111C12.127 1.98845 11.7599 2.08423 11.4419 2.27675C11.1404 2.45271 10.8918 2.7066 10.7222 3.01177C10.5369 3.32156 10.4414 3.6768 10.4465 4.03775C10.458 4.40499 10.575 4.76115 10.7834 5.06372C10.9479 5.34453 11.1728 5.58517 11.4419 5.76812Z" fill="#1F2B37"/>
<path d="M18.4246 10.6223C18.2375 10.4627 17.9965 10.3805 17.7508 10.3926H15.6376L14.1063 8.86133L13.9532 11.1277L14.581 11.7555C14.71 11.8971 14.8736 12.0026 15.0557 12.0618C15.2577 12.1301 15.4704 12.1613 15.6836 12.1536H17.7508C17.8763 12.1612 18.0019 12.1435 18.1203 12.1014C18.2387 12.0593 18.3474 11.9937 18.4399 11.9086C18.6008 11.7453 18.6909 11.5253 18.6909 11.2961C18.6909 11.0669 18.6008 10.8469 18.4399 10.6836L18.4246 10.6223Z" fill="#1F2B37"/>
<path d="M9.91059 15.3386L8.24147 18.4012L5.79138 19.7028C5.67595 19.7605 5.57446 19.8426 5.49398 19.9434C5.41349 20.0443 5.35594 20.1614 5.32534 20.2868C5.29473 20.4121 5.2918 20.5426 5.31675 20.6692C5.3417 20.7958 5.39393 20.9154 5.46981 21.0198C5.60408 21.2225 5.81326 21.3638 6.0515 21.4126C6.28975 21.4614 6.53762 21.4137 6.74079 21.2801L9.8034 19.4119L11.151 16.9159L9.91059 15.3846V15.3386Z" fill="#1F2B37"/>
</svg>
