<svg width="24" height="24" viewBox="0 0 24 24" fill="none" xmlns="http://www.w3.org/2000/svg">
<path d="M15.7331 9.75008C15.8703 9.57548 15.8529 9.32536 15.6928 9.17147C15.5328 9.01758 15.2822 9.00997 15.1131 9.15388L7.36255 15.7478L3.26968 14.1649C2.90609 14.0258 2.65695 13.6875 2.63195 13.299C2.60695 12.9105 2.81067 12.543 3.15342 12.3584L20.145 2.84018C20.4171 2.69361 20.7478 2.70877 21.0053 2.87964C21.2628 3.0505 21.4054 3.34929 21.3761 3.65697L19.8856 19.1938C19.8554 19.5169 19.6744 19.8068 19.3973 19.9758C19.1203 20.1448 18.7798 20.1732 18.4786 20.0523L13.4974 18.1236L10.3704 21.0539C10.1345 21.2743 9.79001 21.3331 9.49437 21.2034C9.19874 21.0738 9.00868 20.7805 9.01103 20.4577V18.1564L15.7331 9.75008Z" fill="#1F2B37"/>
</svg>
