<svg width="24" height="24" viewBox="0 0 24 24" fill="none" xmlns="http://www.w3.org/2000/svg">
<path fill-rule="evenodd" clip-rule="evenodd" d="M18.3175 15.5049C18.5883 15.0257 18.7967 14.5257 18.9425 13.984L21.38 12.9632V11.0465L18.9217 10.0049C18.7758 9.46322 18.5675 8.96322 18.2967 8.48405L19.2967 6.04655L17.9425 4.69238L15.505 5.69238C15.0258 5.42155 14.5258 5.21322 13.9842 5.06738L12.9633 2.62988H11.0467L10.005 5.08822C9.46334 5.23405 8.96334 5.44238 8.48417 5.71322L6.04667 4.71322L4.6925 6.06738L5.6925 8.50488C5.42167 8.98405 5.21334 9.48405 5.0675 10.0257L2.63 11.0465V12.9632L5.08834 14.0049C5.23417 14.5465 5.4425 15.0465 5.71334 15.5257L4.71334 17.9632L6.0675 19.3174L8.505 18.3174C8.98417 18.5882 9.48417 18.7966 10.0258 18.9424L11.0467 21.3799H12.9633L14.005 18.9216C14.5467 18.7757 15.0467 18.5674 15.5258 18.2965L17.9633 19.2965L19.3175 17.9424L18.3175 15.5049ZM12.005 8.25488C14.0702 8.25488 15.755 9.93967 15.755 12.0049C15.755 14.0701 14.0702 15.7549 12.005 15.7549C9.93979 15.7549 8.255 14.0701 8.255 12.0049C8.255 9.93967 9.93979 8.25488 12.005 8.25488Z" fill="#1F2B37"/>
</svg>
