<svg width="24" height="24" viewBox="0 0 24 24" fill="none" xmlns="http://www.w3.org/2000/svg">
<path d="M11.5698 4.68994C11.8657 4.68994 12.108 4.7915 12.2966 4.99461C12.4852 5.19772 12.5795 5.44145 12.5795 5.72581V18.3303C12.5795 18.6204 12.4852 18.8584 12.2966 19.0441C12.108 19.2298 11.8686 19.3226 11.5785 19.3226C11.3754 19.3226 11.1853 19.2805 11.0083 19.1964C10.8313 19.1122 10.6442 18.9773 10.4469 18.7916L6.96496 15.5012C6.91854 15.449 6.8518 15.4229 6.76475 15.4229H4.42318C3.84286 15.4229 3.39892 15.2662 3.09136 14.9528C2.78379 14.6395 2.63 14.1723 2.63 13.5514V10.4873C2.63 9.87216 2.78379 9.40501 3.09136 9.08583C3.39892 8.76666 3.84286 8.60707 4.42318 8.60707H6.76475C6.8518 8.60707 6.91854 8.58386 6.96496 8.53743L10.4469 5.28186C10.6674 5.07295 10.8589 4.92207 11.0214 4.82922C11.1839 4.73637 11.3667 4.68994 11.5698 4.68994ZM19.1136 6.11125L19.2256 6.12622C19.4142 6.16684 19.5665 6.2742 19.6826 6.4483C20.2223 7.1795 20.6401 8.03111 20.9361 9.00314C21.232 9.97517 21.38 10.9748 21.38 12.0019C21.38 13.0291 21.2306 14.0258 20.9317 14.992C20.6328 15.9582 20.2165 16.8127 19.6826 17.5555C19.5665 17.7296 19.4142 17.8355 19.2256 17.8733C19.037 17.911 18.8585 17.8747 18.6902 17.7645C18.5161 17.6484 18.4175 17.4932 18.3943 17.2988C18.3711 17.1043 18.4233 16.9085 18.551 16.7112C18.992 16.0728 19.3358 15.346 19.5825 14.5306C19.8291 13.7153 19.9524 12.8724 19.9524 12.0019C19.9524 11.1314 19.8306 10.2871 19.5868 9.46884C19.3431 8.6506 18.9978 7.9252 18.551 7.29266C18.4233 7.09535 18.3711 6.89949 18.3943 6.70509C18.4175 6.51068 18.5161 6.35545 18.6902 6.23938C18.8585 6.12332 19.037 6.0856 19.2256 6.12622L19.1136 6.11125ZM15.9256 8.29301L16.0353 8.30676C16.221 8.34448 16.3719 8.44458 16.4879 8.60707C16.8187 9.04811 17.0741 9.56314 17.254 10.1522C17.4339 10.7412 17.5238 11.3578 17.5238 12.0019C17.5238 12.6461 17.4339 13.2641 17.254 13.856C17.0741 14.448 16.8187 14.9586 16.4879 15.3881C16.3719 15.5564 16.221 15.6594 16.0353 15.6971C15.8496 15.7348 15.6784 15.6985 15.5217 15.5883C15.336 15.4606 15.2287 15.2952 15.1996 15.0921C15.1706 14.889 15.2287 14.6859 15.3737 14.4828C15.6059 14.152 15.7858 13.7719 15.9134 13.3424C16.0411 12.913 16.1049 12.4662 16.1049 12.0019C16.1049 11.5377 16.0411 11.0894 15.9134 10.657C15.7858 10.2247 15.6059 9.84315 15.3737 9.51237C15.2287 9.31506 15.1706 9.11485 15.1996 8.91174C15.2287 8.70863 15.336 8.54324 15.5217 8.41557C15.6784 8.30531 15.8496 8.26904 16.0353 8.30676L15.9256 8.29301Z" fill="#1F2B37"/>
</svg>
