<svg width="24" height="24" viewBox="0 0 24 24" fill="none" xmlns="http://www.w3.org/2000/svg">
<path d="M15.3 17.3C15.1 17.1 15 16.8623 15 16.587C15 16.3123 15.1 16.075 15.3 15.875L18.175 13H7C6.71667 13 6.479 12.904 6.287 12.712C6.09567 12.5207 6 12.2833 6 12C6 11.7167 6.09567 11.479 6.287 11.287C6.479 11.0957 6.71667 11 7 11H18.175L15.3 8.1C15.1167 7.91667 15.0207 7.68733 15.012 7.412C15.004 7.13733 15.1 6.9 15.3 6.7C15.4833 6.51667 15.7167 6.425 16 6.425C16.2833 6.425 16.5167 6.51667 16.7 6.7L21.3 11.3C21.4 11.4 21.471 11.5083 21.513 11.625C21.5543 11.7417 21.575 11.8667 21.575 12C21.575 12.1333 21.5543 12.2583 21.513 12.375C21.471 12.4917 21.4 12.6 21.3 12.7L16.7 17.3C16.5167 17.4833 16.2877 17.575 16.013 17.575C15.7377 17.575 15.5 17.4833 15.3 17.3ZM3 18C2.71667 18 2.47933 17.904 2.288 17.712C2.096 17.5207 2 17.2833 2 17V7C2 6.71667 2.096 6.479 2.288 6.287C2.47933 6.09567 2.71667 6 3 6C3.28333 6 3.521 6.09567 3.713 6.287C3.90433 6.479 4 6.71667 4 7V17C4 17.2833 3.90433 17.5207 3.713 17.712C3.521 17.904 3.28333 18 3 18Z" fill="#1F2B37"/>
</svg>
