<svg width="24" height="24" viewBox="0 0 24 24" fill="none" xmlns="http://www.w3.org/2000/svg">
<path d="M19.5855 9.01942L21.8371 6.41021C21.9633 6.26285 22.0054 6.05252 21.9633 5.86316C21.9212 5.67382 21.774 5.52646 21.5846 5.46333L14.7461 3.23294C14.5146 3.14884 14.2831 3.23294 14.1148 3.4013L11.9896 5.88415L9.84329 3.4013C9.69593 3.23294 9.44346 3.14884 9.212 3.23294L2.39448 5.48433C2.20513 5.54745 2.05777 5.69481 2.0158 5.88417C1.97367 6.07351 2.0158 6.284 2.14203 6.43121L4.39357 9.04043L2.14203 11.6287C2.0158 11.776 1.97367 11.9864 2.0158 12.1757C2.05792 12.3651 2.20514 12.5124 2.39448 12.5756L4.58274 13.2699V17.9833C4.58274 18.2357 4.75109 18.4672 4.98257 18.5303L11.8211 20.7819C11.8843 20.8029 11.9474 20.8029 12.0105 20.8029C12.0736 20.8029 12.1367 20.8029 12.1998 20.7819L19.0384 18.5303C19.2908 18.4462 19.4382 18.2358 19.4382 17.9833V13.2699L21.6055 12.5546C21.7949 12.4914 21.9422 12.3441 21.9842 12.1547C22.0263 11.9654 21.9842 11.7549 21.858 11.6077L19.5855 9.01942ZM7.02361 9.01942L11.9895 7.39917L16.9553 9.01942L11.9895 10.6397L7.02361 9.01942ZM14.767 4.45336L20.4062 6.30508L18.6597 8.34613L15.777 7.39913L12.9994 6.49441L14.767 4.45336ZM9.21195 4.45336L10.9584 6.49441L9.06473 7.1257L5.34031 8.34613L3.59384 6.30508L9.21195 4.45336ZM5.34027 9.69276L10.9795 11.5445L9.23299 13.5855L3.5938 11.7338L5.34027 9.69276ZM5.7401 17.5624V13.6697L9.23307 14.8058C9.29618 14.8268 9.35929 14.8268 9.42241 14.8268C9.59076 14.8268 9.75911 14.7637 9.86436 14.6163L11.4215 12.8068V19.4139L5.7401 17.5624ZM18.2389 17.5624L12.5787 19.4141V12.828L14.1358 14.6376C14.241 14.7638 14.4094 14.8481 14.5777 14.8481C14.6409 14.8481 14.704 14.8481 14.7671 14.8271L18.2601 13.6909L18.2599 17.5626L18.2389 17.5624ZM14.7671 13.5855L13.0206 11.5444L18.6388 9.69272L20.3852 11.7338L14.7671 13.5855Z" fill="#1F2B37"/>
</svg>
