<svg width="24" height="24" viewBox="0 0 24 24" fill="none" xmlns="http://www.w3.org/2000/svg">
<path d="M12.0057 18.6707C9.691 18.6707 7.59574 17.5024 6.36559 15.5466L7.94891 14.5808C8.2602 14.3889 8.23832 14.1157 7.9039 13.9751L3.63212 12.1693C3.2977 12.0261 2.99829 12.2086 2.97266 12.5712L2.63199 17.1955C2.60511 17.5593 2.83827 17.7024 3.14831 17.5105L4.59474 16.6292C6.18431 19.1689 9.00467 20.746 12.005 20.746C15.8593 20.746 19.311 18.1675 20.3949 14.472L18.4021 13.887C17.5751 16.7042 14.9442 18.6707 12.0057 18.6707Z" fill="#1F2B37"/>
<path d="M20.863 6.49292L19.4166 7.37553C17.8258 4.83583 15.0054 3.26001 12.0057 3.26001C8.15269 3.26001 4.701 5.83846 3.61462 9.53267L5.60799 10.119C6.43435 7.30239 9.0678 5.3359 12.005 5.3359C14.3197 5.3359 16.415 6.50417 17.6451 8.46004L16.0606 9.42578C15.7505 9.61518 15.7724 9.88959 16.1068 10.0327L20.3773 11.8361C20.7118 11.9792 21.0112 11.7961 21.0368 11.4329L21.3775 6.80983C21.4062 6.44603 21.1743 6.30227 20.863 6.49292Z" fill="#1F2B37"/>
</svg>
