<svg width="24" height="24" viewBox="0 0 24 24" fill="none" xmlns="http://www.w3.org/2000/svg">
<path fill-rule="evenodd" clip-rule="evenodd" d="M19.0181 21.0575C20.5873 21.0575 21.3799 20.0587 21.3799 18.1411V5.89633C21.3799 3.96873 20.5873 2.96997 19.0181 2.96997H4.99165C3.43048 2.96997 2.62988 3.95874 2.62988 5.89633V18.1411C2.62988 20.0687 3.43048 21.0575 4.99165 21.0575H19.0181ZM9.13512 8.68286H4.02148V5.95625C4.02148 4.80768 5.15908 4.20843 5.73642 4.20843H9.13512V8.68286ZM10.2338 8.68286H20.1414V5.95625C20.1414 4.80768 19.5122 4.20843 18.4136 4.20843H10.2338V8.68286ZM20.1414 14.2459H10.2338V9.79148H20.1414V14.2459ZM4.02148 14.2459H9.13512V9.79148H4.02148V14.2459ZM18.4136 19.819H10.2338V15.3446H20.1414V18.0712C20.1414 19.2297 19.5122 19.819 18.4136 19.819ZM5.6726 19.819H9.13512V15.3446H4.02148V18.0712C4.02148 19.2297 4.66066 19.819 5.6726 19.819Z" fill="#1F2B37"/>
</svg>
