<svg width="24" height="24" viewBox="0 0 24 24" fill="none" xmlns="http://www.w3.org/2000/svg">
<path fill-rule="evenodd" clip-rule="evenodd" d="M21.375 18.0412C21.375 19.9589 20.5824 20.9576 19.0132 20.9576H4.98676C3.4256 20.9576 2.625 19.9688 2.625 18.0412V5.79648C2.625 3.85889 3.4256 2.87012 4.98676 2.87012H19.0132C20.5824 2.87012 21.375 3.86887 21.375 5.79648V18.0412ZM4.0166 5.8564C4.0166 4.70783 5.15419 4.10858 5.73154 4.10858H18.4087C19.5073 4.10858 20.1365 4.70783 20.1365 5.8564V17.9713C20.1365 19.1299 19.5073 19.7192 18.4087 19.7192H5.66772C4.65578 19.7192 4.0166 19.1299 4.0166 17.9713V5.8564Z" fill="#1F2B37"/>
<path fill-rule="evenodd" clip-rule="evenodd" d="M11.288 7.04724C11.288 6.78508 11.5005 6.57256 11.7627 6.57256H17.9335C18.1957 6.57256 18.4082 6.78508 18.4082 7.04724V8.23395C18.4082 8.49611 18.1957 8.70863 17.9335 8.70863H11.7627C11.5005 8.70863 11.288 8.49611 11.288 8.23395V7.04724Z" fill="#1F2B37"/>
<path fill-rule="evenodd" clip-rule="evenodd" d="M8.43987 11.3194C8.43987 11.0572 8.6524 10.8447 8.91456 10.8447H15.0854C15.3476 10.8447 15.5601 11.0572 15.5601 11.3194V12.5061C15.5601 12.7683 15.3476 12.9808 15.0854 12.9808H8.91456C8.6524 12.9808 8.43987 12.7683 8.43987 12.5061V11.3194Z" fill="#1F2B37"/>
<path fill-rule="evenodd" clip-rule="evenodd" d="M5.59177 15.5915C5.59177 15.3294 5.8043 15.1169 6.06646 15.1169H12.2373C12.4995 15.1169 12.712 15.3294 12.712 15.5915V16.7783C12.712 17.0404 12.4995 17.2529 12.2373 17.2529H6.06646C5.8043 17.2529 5.59177 17.0404 5.59177 16.7783V15.5915Z" fill="#1F2B37"/>
</svg>
