<svg width="24" height="24" viewBox="0 0 24 24" fill="none" xmlns="http://www.w3.org/2000/svg">
<path d="M16.7273 3.81818H19.4545C19.6957 3.81818 19.9269 3.91396 20.0974 4.08445C20.2679 4.25494 20.3636 4.48617 20.3636 4.72727V21.0909C20.3636 21.332 20.2679 21.5632 20.0974 21.7337C19.9269 21.9042 19.6957 22 19.4545 22H4.90909C4.66798 22 4.43675 21.9042 4.26627 21.7337C4.09578 21.5632 4 21.332 4 21.0909V4.72727C4 4.48617 4.09578 4.25494 4.26627 4.08445C4.43675 3.91396 4.66798 3.81818 4.90909 3.81818H7.63636V2H9.45455V3.81818H14.9091V2H16.7273V3.81818ZM16.7273 5.63636V7.45455H14.9091V5.63636H9.45455V7.45455H7.63636V5.63636H5.81818V20.1818H18.5455V5.63636H16.7273ZM7.63636 9.27273H16.7273V11.0909H7.63636V9.27273ZM7.63636 12.9091H16.7273V14.7273H7.63636V12.9091Z" fill="#1F2B37"/>
</svg>
