<svg width="24" height="24" viewBox="0 0 24 24" fill="none" xmlns="http://www.w3.org/2000/svg">
<path d="M9.06549 20.8772C8.14422 20.5636 7.27695 20.1094 6.49435 19.531C5.71042 18.9653 5.02241 18.2774 4.45677 17.4935C3.27058 15.9005 2.63 13.9674 2.63 11.9813C2.63 9.99516 3.27058 8.06202 4.45677 6.46904C5.61125 4.90199 7.21407 3.7221 9.05335 3.0853C10.9648 2.43836 13.0361 2.43836 14.9476 3.0853C15.8709 3.39411 16.7389 3.84861 17.5187 4.43153C18.3027 4.99718 18.9907 5.68511 19.5563 6.46904C20.1353 7.2653 20.5817 8.14994 20.8782 9.08871C21.5251 10.9961 21.5251 13.0635 20.8782 14.9708C20.5694 15.8942 20.1149 16.7622 19.532 17.542C18.9664 18.3259 18.2784 19.0138 17.4944 19.5795C16.7118 20.158 15.8446 20.6121 14.9233 20.9257C13.0134 21.5567 10.9511 21.5567 9.04121 20.9257L9.06549 20.8772ZM20.4538 12.5452H3.5593V11.4052H20.4538V12.5452ZM14.5353 19.6401C15.3327 19.3792 16.0823 18.99 16.7546 18.488C17.4255 17.9931 18.0184 17.4002 18.5133 16.7294C19.0293 16.0563 19.4384 15.3077 19.7261 14.51C20.2762 12.869 20.2762 11.0935 19.7261 9.45253C19.1781 7.86066 18.1586 6.47321 16.8032 5.47453C16.1302 4.95855 15.3816 4.54947 14.5838 4.26172C12.9388 3.71159 11.1593 3.71159 9.51423 4.26172C8.71801 4.5529 7.96995 4.96171 7.29484 5.47453C6.6278 5.96982 6.03898 6.56266 5.54832 7.23311C5.02488 7.90128 4.61512 8.65112 4.33552 9.45253C3.78545 11.0935 3.78545 12.869 4.33552 14.51C4.6177 15.3102 5.02724 16.0597 5.54832 16.7294C6.04659 17.3974 6.63901 17.9897 7.30698 18.488C7.98078 18.9877 8.72996 19.3766 9.52637 19.6401C11.1673 20.1902 12.9429 20.1902 14.5838 19.6401H14.5353ZM9.32013 8.42168C8.53837 8.29378 7.77351 8.07816 7.04005 7.77889C6.4407 7.54493 5.8867 7.2084 5.40279 6.78438L6.26384 6.05669C6.7125 6.38874 7.20687 6.65425 7.73143 6.84501C8.36099 7.07206 9.01073 7.23857 9.6719 7.34226C11.2201 7.56873 12.793 7.56873 14.3412 7.34226C15.0026 7.24005 15.6525 7.07351 16.2816 6.84501C16.8073 6.65682 17.3021 6.39112 17.7492 6.05669L18.6224 6.78438C18.1322 7.20591 17.5746 7.54209 16.973 7.77889C16.2396 8.07816 15.4747 8.29378 14.6929 8.42168C13.8045 8.58182 12.9032 8.65897 12.0005 8.65211C11.1019 8.65739 10.2046 8.58026 9.32013 8.42168ZM14.6929 15.5772C15.4739 15.7146 16.2382 15.9341 16.973 16.2322C17.5739 16.4651 18.1314 16.7971 18.6224 17.2145L17.7492 17.9422C17.2992 17.6122 16.8052 17.3469 16.2816 17.1539C15.6521 16.9296 15.0022 16.7672 14.3412 16.6688C12.793 16.4423 11.2201 16.4423 9.6719 16.6688C9.01116 16.7686 8.36144 16.9311 7.73143 17.1539C7.20788 17.3469 6.71382 17.6122 6.26384 17.9422L5.40279 17.2145C5.88747 16.7946 6.44146 16.4622 7.04005 16.2322C7.77488 15.9341 8.53916 15.7146 9.32013 15.5772C10.2054 15.4247 11.1022 15.3476 12.0005 15.3468C12.903 15.346 13.8038 15.4231 14.6929 15.5772ZM10.2176 20.0767C9.60415 19.5821 9.10381 18.9618 8.75015 18.2575C8.28559 17.3837 7.94675 16.4487 7.74357 15.4802C7.48761 14.3378 7.36141 13.1701 7.36753 11.9994C7.36235 10.8248 7.48852 9.6532 7.74357 8.50655C7.94675 7.53801 8.28559 6.60304 8.75015 5.72924C9.107 5.02362 9.60671 4.39995 10.2176 3.89789C10.719 3.48131 11.3487 3.25003 12.0005 3.24297C12.6557 3.25213 13.2884 3.483 13.7955 3.89789C14.4064 4.39995 14.9061 5.02362 15.2629 5.72924C15.7275 6.60304 16.0663 7.53801 16.2695 8.50655C16.5205 9.65366 16.6426 10.8252 16.6334 11.9994C16.6433 13.1697 16.5212 14.3373 16.2695 15.4802C16.0663 16.4487 15.7275 17.3837 15.2629 18.2575C14.9093 18.9618 14.4089 19.5821 13.7955 20.0767C13.2916 20.5169 12.6453 20.7594 11.9763 20.7594C11.3072 20.7594 10.6609 20.5169 10.157 20.0767H10.2176ZM10.7028 4.91665C10.2341 5.40574 9.85987 5.9773 9.59906 6.60247C9.25064 7.37951 8.99041 8.19312 8.82299 9.02808C8.63545 9.9992 8.54191 10.9861 8.54392 11.9752C8.54129 12.9482 8.63485 13.9191 8.82299 14.8738C8.99215 15.7083 9.25232 16.5217 9.59906 17.2994C9.85979 17.9282 10.2339 18.5038 10.7028 18.9974C10.8609 19.1903 11.0599 19.3457 11.2853 19.4524C11.5108 19.5591 11.7572 19.6145 12.0066 19.6145C12.256 19.6145 12.5023 19.5591 12.7277 19.4524C12.9532 19.3457 13.1522 19.1903 13.3103 18.9974C13.7791 18.5013 14.1569 17.9265 14.4262 17.2994C14.7633 16.5192 15.0194 15.7064 15.1902 14.8738C15.3784 13.9191 15.4718 12.9482 15.4691 11.9752C15.4712 10.9861 15.3778 9.9992 15.1902 9.02808C15.0212 8.195 14.7651 7.38199 14.4262 6.60247C14.157 5.97891 13.7791 5.4081 13.3103 4.91665C13.1498 4.7275 12.9501 4.57557 12.7249 4.47136C12.4998 4.36715 12.2547 4.31317 12.0066 4.31317C11.7585 4.31317 11.5133 4.36715 11.2881 4.47136C11.063 4.57557 10.8633 4.7275 10.7028 4.91665ZM12.5827 3.3764V20.5497H11.4425V3.3764H12.5827Z" fill="#1F2B37"/>
</svg>
