<svg width="24" height="24" viewBox="0 0 24 24" fill="none" xmlns="http://www.w3.org/2000/svg">
<path d="M18.0439 11.5256L10.2523 19.2339C9.62723 19.859 8.79397 20.1924 7.91897 20.1924C7.04398 20.1924 6.21057 19.859 5.58569 19.2339C4.29406 17.9423 4.29406 15.859 5.58569 14.5673L15.1273 4.5465C15.6064 4.06738 16.2315 3.81727 16.8773 3.81727C17.5231 3.81727 18.1689 4.06722 18.6272 4.5465C19.6064 5.52567 19.6064 7.08816 18.6272 8.06736L10.0439 16.5673C9.81476 16.7965 9.48139 16.9423 9.14817 16.9423C8.81481 16.9423 8.50238 16.8173 8.25242 16.5673C8.02325 16.3382 7.87749 16.0048 7.87749 15.6716C7.87749 15.3382 8.00247 15.0258 8.25242 14.7758L14.8149 8.29668L13.9816 7.46342L7.41916 13.9422C6.46076 14.9006 6.46076 16.4421 7.41916 17.4005C7.89829 17.8797 8.52333 18.1088 9.14832 18.1088C9.77332 18.1088 10.3984 17.8797 10.8775 17.4005L19.4816 8.90058C20.9191 7.46305 20.9191 5.15059 19.4816 3.7131C18.7732 2.98401 17.8357 2.62988 16.8983 2.62988C15.9608 2.62988 15.0233 2.98403 14.2941 3.71325L4.75247 13.734C3.00251 15.484 3.00251 18.3174 4.75247 20.0674C5.62747 20.9423 6.77329 21.3799 7.91916 21.3799C9.06503 21.3799 10.2109 20.9423 11.0859 20.0674L18.8775 12.359L18.0439 11.5256Z" fill="black"/>
</svg>
