<svg width="24" height="24" viewBox="0 0 24 24" fill="none" xmlns="http://www.w3.org/2000/svg">
<path d="M2.63052 16.7118C2.62869 15.6244 3.07172 14.5835 3.85683 13.831C6.54803 11.14 9.24011 8.44989 11.9327 5.76012C12.1275 5.56547 12.3161 5.36448 12.5146 5.17359V5.17371C12.5976 5.06369 12.7244 4.9953 12.862 4.98639C12.9995 4.97747 13.1341 5.02888 13.2306 5.12719C13.3271 5.22561 13.3761 5.36104 13.3646 5.49842C13.3531 5.6358 13.2824 5.76134 13.1709 5.8423C10.9729 8.04235 8.77427 10.2418 6.57532 12.4407C5.86302 13.1534 5.14021 13.8563 4.44536 14.5856C4.03152 14.9848 3.74453 15.497 3.61999 16.0584C3.49543 16.6198 3.5389 17.2053 3.74503 17.742C4.15644 18.925 5.02677 19.6154 6.2748 19.7844C7.32988 19.9273 8.20631 19.5452 8.94609 18.805C11.9961 15.7539 15.0462 12.703 18.0967 9.65283C18.7013 9.04776 19.3231 8.45757 19.8948 7.82242C20.1805 7.52201 20.3683 7.14198 20.4333 6.73254C20.4983 6.3232 20.4375 5.90373 20.2588 5.52959C20.1056 5.13675 19.8374 4.79922 19.4891 4.56132C19.141 4.32331 18.729 4.19618 18.3073 4.1963C17.6585 4.17591 17.0335 4.44164 16.5981 4.92314C14.7553 6.77162 12.9102 8.61766 11.0626 10.4615C10.0066 11.5177 8.95403 12.5775 7.89235 13.6283C7.50952 14.0072 7.30825 14.4415 7.42476 14.9797C7.51757 15.4023 7.81616 15.7499 8.21963 15.9058C8.62309 16.0616 9.07786 16.0045 9.4304 15.7541C9.55337 15.6644 9.66865 15.5646 9.77478 15.4555C11.9243 13.3087 14.0726 11.1608 16.22 9.01183C16.3319 8.86639 16.502 8.77761 16.6853 8.76906C16.8406 8.76772 16.9855 8.84746 17.0673 8.97947C17.1492 9.11135 17.1564 9.27658 17.0863 9.41519C17.0391 9.50519 16.9765 9.5864 16.9017 9.65503C14.7176 11.8392 12.5335 14.0232 10.3489 16.2069C10.0558 16.5287 9.67493 16.7576 9.25315 16.8654C8.83136 16.9731 8.38735 16.955 7.97582 16.8132C7.51387 16.6544 7.11575 16.3502 6.84111 15.9463C6.5666 15.5422 6.4303 15.0601 6.45265 14.5721C6.49283 13.9803 6.75343 13.4251 7.18302 13.016C10.099 10.0976 13.0162 7.18035 15.9344 4.26425C17.0903 3.10928 18.7146 2.92365 20.0013 3.7952C20.7826 4.32371 21.2845 5.1761 21.3678 6.11576C21.4509 7.05546 21.1067 7.98269 20.4304 8.6404C18.0312 11.05 15.6274 13.455 13.219 15.8556C12.0039 17.0708 10.789 18.2859 9.57383 19.5011C8.82942 20.2861 7.80022 20.7383 6.71838 20.7556C5.63666 20.7729 4.59342 20.3539 3.82422 19.5931C3.05503 18.8322 2.62468 17.7937 2.63005 16.7119L2.63052 16.7118Z" fill="#1F2B37"/>
</svg>
