<svg width="24" height="24" viewBox="0 0 24 24" fill="none" xmlns="http://www.w3.org/2000/svg">
<path d="M11.6463 16.4977C13.8452 16.4977 15.2131 15.1873 15.2131 13.2761V8.12409C15.2131 7.74696 14.9702 7.51685 14.5994 7.51685C14.2287 7.51685 13.9922 7.74696 13.9922 8.12409V13.1738C13.9922 14.5034 13.1293 15.3918 11.6463 15.3918C10.1697 15.3918 9.30682 14.5034 9.30682 13.1738V8.12409C9.30682 7.74696 9.06392 7.51685 8.69318 7.51685C8.32244 7.51685 8.08594 7.74696 8.08594 8.12409V13.2761C8.08594 15.1873 9.45384 16.4977 11.6463 16.4977ZM8.46946 18.3769H14.8232C15.0405 18.3769 15.2131 18.2171 15.2131 17.9934C15.2131 17.7761 15.0405 17.6163 14.8232 17.6163H8.46946C8.25852 17.6163 8.08594 17.7761 8.08594 17.9934C8.08594 18.2171 8.25852 18.3769 8.46946 18.3769Z" fill="#1F2B37"/>
</svg>
