<svg width="24" height="24" viewBox="0 0 24 24" fill="none" xmlns="http://www.w3.org/2000/svg">
<path fill-rule="evenodd" clip-rule="evenodd" d="M1.88226 11.7296C1.88226 6.08149 6.4989 1.5 12.1911 1.5C17.8832 1.5 22.4999 6.08149 22.5 11.7296C22.5 17.3778 17.8832 21.959 12.1911 21.959C10.4479 21.9603 8.733 21.5218 7.20748 20.6848L1.5 22.5L3.35997 17.0136C2.42244 15.4714 1.88226 13.6611 1.88226 11.7296ZM7.42145 18.9097C8.79216 19.8047 10.433 20.3305 12.1911 20.3305L12.1861 20.3304C16.9659 20.3304 20.854 16.4722 20.854 11.7293C20.854 6.98623 16.9659 3.12813 12.1861 3.12813C7.40621 3.12813 3.51814 6.98623 3.51814 11.7293C3.51814 13.6103 4.12951 15.3548 5.16901 16.7707L4.08866 19.9663L7.42145 18.9097Z" fill="#1F2B37"/>
<path d="M9.42325 7.19708C9.25133 6.78639 9.12103 6.77084 8.86057 6.76027C8.76167 6.75391 8.6626 6.75049 8.56349 6.75C8.22465 6.75 7.87036 6.84875 7.65667 7.06708C7.39622 7.33222 6.75 7.95082 6.75 9.21943C6.75 10.488 7.67756 11.715 7.80256 11.8866C7.93287 12.058 9.61091 14.6991 12.2164 15.7755C14.2538 16.6177 14.8584 16.5397 15.3221 16.4409C15.9995 16.2954 16.849 15.7961 17.0627 15.1932C17.2764 14.59 17.2764 14.0752 17.2137 13.9661C17.1512 13.8569 16.9791 13.7947 16.7187 13.6645C16.4582 13.5345 15.1918 12.9107 14.9521 12.8275C14.7175 12.7391 14.4936 12.7704 14.3165 13.02C14.0663 13.3683 13.8215 13.7219 13.6234 13.935C13.467 14.1014 13.2116 14.1222 12.998 14.0337C12.7114 13.9143 11.909 13.6333 10.9188 12.7547C10.1527 12.0737 9.63164 11.2264 9.48061 10.9717C9.32942 10.7118 9.46502 10.5608 9.58473 10.4205C9.71503 10.2593 9.84004 10.145 9.97034 9.99415C10.1006 9.84346 10.1736 9.7654 10.257 9.58859C10.3457 9.41707 10.283 9.24026 10.2205 9.11026C10.158 8.98026 9.63694 7.71165 9.42325 7.19708Z" fill="#1F2B37"/>
</svg>
