<svg width="24" height="24" viewBox="0 0 24 24" fill="none" xmlns="http://www.w3.org/2000/svg">
<path fill-rule="evenodd" clip-rule="evenodd" d="M7.9121 18.1747C9.13595 18.9737 10.6009 19.4433 12.1707 19.4433L12.1662 19.4431C16.434 19.4431 19.9054 15.9983 19.9054 11.7636C19.9054 7.52872 16.434 4.08398 12.1662 4.08398C7.89849 4.08398 4.427 7.52872 4.427 11.7636C4.427 13.4431 4.97286 15.0006 5.90099 16.2648L4.93639 19.1181L7.9121 18.1747Z" fill="#25D365"/>
<path fill-rule="evenodd" clip-rule="evenodd" d="M2.96631 11.7634C2.96631 6.7205 7.0883 2.62988 12.1707 2.62988C17.2529 2.62988 21.3749 6.7205 21.375 11.7634C21.375 16.8065 17.2529 20.8968 12.1707 20.8968C10.6142 20.898 9.08303 20.5065 7.72096 19.7591L2.625 21.3799L4.28569 16.4813C3.4486 15.1043 2.96631 13.488 2.96631 11.7634ZM7.91201 18.1743C9.13586 18.9733 10.6009 19.4429 12.1706 19.4429L12.1661 19.4427C16.4339 19.4427 19.9054 15.9979 19.9054 11.7632C19.9054 7.52831 16.4339 4.08357 12.1661 4.08357C7.8984 4.08357 4.42692 7.52831 4.42692 11.7632C4.42692 13.4426 4.97277 15.0002 5.9009 16.2644L4.93631 19.1177L7.91201 18.1743Z" fill="white"/>
<path d="M9.69933 7.71656C9.54583 7.34987 9.42949 7.33599 9.19694 7.32655C9.10863 7.32088 9.02018 7.31782 8.93169 7.31738C8.62915 7.31738 8.31282 7.40555 8.12203 7.60049C7.88948 7.83722 7.3125 8.38954 7.3125 9.52223C7.3125 10.6549 8.14067 11.7504 8.25229 11.9037C8.36863 12.0567 9.86688 14.4148 12.1932 15.3759C14.0124 16.1279 14.5522 16.0582 14.9662 15.97C15.571 15.84 16.3295 15.3942 16.5202 14.8559C16.711 14.3173 16.711 13.8578 16.6551 13.7603C16.5993 13.6628 16.4457 13.6073 16.2131 13.4911C15.9806 13.375 14.8498 12.818 14.6358 12.7437C14.4264 12.6648 14.2264 12.6927 14.0683 12.9156C13.8449 13.2266 13.6263 13.5423 13.4494 13.7325C13.3098 13.8811 13.0818 13.8997 12.8911 13.8207C12.6352 13.7141 11.9187 13.4632 11.0346 12.6787C10.3506 12.0707 9.8854 11.3141 9.75054 11.0867C9.61555 10.8547 9.73662 10.7199 9.84351 10.5947C9.95985 10.4507 10.0715 10.3486 10.1878 10.2139C10.3041 10.0794 10.3693 10.0097 10.4437 9.85184C10.5229 9.6987 10.467 9.54083 10.4112 9.42476C10.3554 9.30869 9.89012 8.176 9.69933 7.71656Z" fill="white"/>
</svg>
