<svg width="24" height="24" viewBox="0 0 24 24" fill="none" xmlns="http://www.w3.org/2000/svg">
<path d="M4.43343 10.9498C6.42644 8.83171 9.06294 7.71455 12.0033 7.71455C14.9615 7.71455 17.607 8.83171 19.5911 10.9588C19.743 11.1107 19.9843 11.1107 20.1452 10.9409L21.2623 9.80587C21.4143 9.66287 21.4143 9.46625 21.2892 9.32326C19.3766 6.95488 15.7659 5.22998 12.0033 5.22998C8.24071 5.22998 4.63005 6.95488 2.71747 9.32326C2.59234 9.46625 2.60129 9.66287 2.74428 9.80587L3.86144 10.9588C4.02231 11.1286 4.27256 11.1197 4.43343 10.9498ZM16.7669 14.3371L18.027 13.0859C18.17 12.9518 18.1879 12.7552 18.0539 12.6122C16.8205 11.0928 14.5326 9.97568 12.0033 9.97568C9.47406 9.97568 7.18611 11.0928 5.94383 12.6122C5.8187 12.7552 5.83658 12.9429 5.97958 13.0859L7.23974 14.346C7.41849 14.5248 7.65086 14.5069 7.82066 14.3103C8.79483 13.2289 10.3857 12.4513 12.0033 12.4602C13.6388 12.4513 15.2207 13.2557 16.2128 14.3371C16.3736 14.5158 16.5971 14.5158 16.7669 14.3371ZM12.0033 18.7789C12.191 18.7789 12.3519 18.6895 12.6647 18.3857L14.6398 16.482C14.7828 16.3569 14.8007 16.1603 14.6934 16.0083C14.1483 15.3112 13.1473 14.7214 12.0033 14.7214C10.8325 14.7214 9.81367 15.338 9.27744 16.062C9.197 16.1871 9.22381 16.3569 9.36681 16.482L11.342 18.3857C11.6548 18.6895 11.8156 18.7789 12.0033 18.7789Z" fill="#1F2B37"/>
</svg>
