<svg width="24" height="24" viewBox="0 0 24 24" fill="none" xmlns="http://www.w3.org/2000/svg">
<path d="M17.9229 9.50962C17.6393 9.66745 17.7206 9.66403 17.6393 9.66745C17.4898 9.67444 16.9456 9.73096 17.0404 9.66745C17.1348 9.60438 17.204 9.51617 17.2217 9.447C17.2275 9.42364 17.2372 9.3698 17.2217 9.35224C17.1445 9.26359 16.8708 9.31729 16.7569 9.28918C16.667 9.26716 16.5007 9.17925 16.4095 9.16274C16.3319 9.14905 16.172 9.14905 16.0946 9.16274C15.8699 9.20409 15.3379 9.4464 15.4324 9.79372C15.5271 10.1405 15.6115 10.2771 15.7595 10.33C15.8388 10.3581 16.017 10.2978 16.0946 10.33C16.1767 10.3636 16.28 10.5223 16.3464 10.5821C16.3844 10.6157 16.4567 10.6911 16.5043 10.7085C16.5339 10.7186 16.6082 10.6861 16.6303 10.7085C16.6527 10.731 16.6082 10.8121 16.6303 10.8345C16.6973 10.9016 16.9142 10.8345 17.009 10.8345H17.2613H17.5138H17.8923H18.0493C18.1283 10.8345 18.3092 10.8902 18.365 10.8345C18.4096 10.7903 18.365 10.6455 18.365 10.5824V10.4246C18.365 10.3478 18.29 10.1348 18.365 10.1168C18.3968 10.1094 18.4197 10.1379 18.5224 9.999C18.7433 9.69956 18.7621 9.79075 18.7433 9.69956C18.7312 9.64081 18.9204 9.64616 18.9639 9.60481C19.0211 9.55096 19.09 9.35312 18.9639 9.28961C18.8377 9.22654 18.7748 9.19486 18.7116 9.16317C18.5462 9.08076 18.0179 8.81644 18.0179 8.91104C18.0179 9.0058 17.9866 9.16317 17.9866 9.25778C17.9864 9.35268 18.2072 9.35224 17.9229 9.50961L17.9229 9.50962Z" fill="#1F2B37"/>
<path d="M11.995 2.63013C6.83098 2.63013 2.63 6.83111 2.63 11.9947C2.63 17.1588 6.83098 21.3601 11.995 21.3601C17.159 21.3601 21.36 17.1588 21.36 11.9951C21.36 6.83111 17.159 2.63013 11.995 2.63013ZM20.6034 11.9947C20.6034 12.21 20.5928 12.4221 20.577 12.6336C20.5369 12.6455 20.5018 12.6565 20.4774 12.6613C20.3198 12.693 20.4774 12.6613 20.3829 12.6613C20.2885 12.6613 20.2444 12.7621 20.1938 12.7877C20.1442 12.8121 20.0262 12.8026 19.9733 12.7877C19.9136 12.7715 19.8153 12.693 19.8153 12.5987C19.8153 12.5039 19.563 12.4722 19.3423 12.283C19.1218 12.094 19.2241 12.0466 19.2478 11.9678C19.2594 11.9296 19.2302 11.8487 19.2164 11.8109C19.1767 11.7014 19.1106 11.4171 18.9955 11.4C18.9518 11.3939 18.8979 11.4921 18.8695 11.5265C18.8085 11.5997 18.6489 11.8421 18.6169 11.811C18.5851 11.7802 18.5746 12.1731 18.6169 12.2833C18.6715 12.4249 18.859 12.6904 18.9954 12.7563C19.0611 12.788 18.9954 12.7563 19.1846 12.9772C19.3738 13.1977 19.3296 13.2334 19.4056 13.2924C19.4862 13.3555 19.7455 13.2487 19.8151 13.3241C19.8795 13.3934 19.8441 13.6125 19.8151 13.7025C19.7824 13.8047 19.6578 13.9234 19.5629 14.0493C19.4684 14.1753 19.416 14.162 19.3736 14.2066C19.2509 14.3381 19.2163 14.8059 19.1844 14.9007C19.1526 14.9955 18.964 15.7838 18.9323 15.878C18.9009 15.9728 18.8392 16.0451 18.8059 16.0989C18.6669 16.3238 18.4618 16.8141 18.3331 17.0451C18.1881 17.3045 17.7655 17.9592 17.7025 18.0539C17.6398 18.1487 17.5518 18.2236 17.4819 18.2434C17.3452 18.2812 17.0417 18.3052 16.9142 18.2434C16.7882 18.1821 16.6205 17.9317 16.5677 17.8019C16.4518 17.5153 16.4902 16.8773 16.4412 16.5721C16.4121 16.389 16.3079 16.0319 16.2838 15.8481C16.2542 15.6209 16.252 15.1231 16.2208 14.934C16.1891 14.7445 16.2001 14.7872 16.2208 14.7445C16.2777 14.6236 15.9367 14.3972 15.8421 14.3661C15.7476 14.3344 15.7476 14.2397 15.6216 14.1135C15.4956 13.9871 15.3836 14.0676 15.3063 14.0823C15.2206 14.098 15.0468 14.0546 14.9595 14.0506C14.8255 14.0445 14.5445 14.1076 14.4233 14.0506C14.2109 13.9502 13.9573 13.5193 13.8244 13.3251C13.7649 13.2378 13.6666 13.0415 13.6349 12.9467C13.6036 12.8524 13.5409 12.5921 13.5087 12.4741C13.472 12.3391 13.3386 12.0768 13.3514 11.9379C13.3659 11.7722 13.5404 11.5595 13.698 11.3703C13.855 11.1812 13.9291 11.1739 14.0133 11.1181C14.1482 11.0292 14.1394 10.9917 14.486 10.6767C14.8331 10.3615 14.486 10.6767 14.486 10.5188C14.486 10.361 14.3847 10.297 14.423 10.2352C14.4561 10.1813 14.423 10.2352 14.2968 10.0147C14.1708 9.79382 14.1893 9.88054 14.1393 9.85689C13.9923 9.78757 14.3597 9.35279 14.3916 9.25801C14.4234 9.16325 14.549 9.25801 14.7382 9.16325C14.9277 9.0685 14.8805 9.1576 14.9277 9.16325C15.0242 9.17515 15.0105 8.88182 15.0221 8.78483C15.026 8.75315 15.0318 8.68874 15.0221 8.6584C15.0015 8.59399 14.9251 8.46844 14.8648 8.4375C14.8012 8.40493 14.6755 8.4375 14.5811 8.40627C14.4862 8.37458 14.36 8.3432 14.2654 8.27983C14.1707 8.21676 14.1014 8.06369 14.1393 7.99616C14.2116 7.8669 14.5811 7.80665 14.6755 7.74359C14.77 7.68096 14.6755 7.55453 14.6755 7.45992C14.6755 7.36517 15.0311 7.33765 15.1483 7.36517C15.2339 7.3854 15.4172 7.44802 15.4636 7.52299C15.5011 7.58353 15.4474 7.73778 15.4636 7.80666C15.4798 7.87508 15.5267 8.02665 15.5893 8.05879C15.6317 8.0808 15.7309 8.03157 15.7788 8.02755C15.8123 8.02443 15.7788 8.02755 15.8733 7.93279C15.968 7.83804 15.9598 7.76129 15.9999 7.7119C16.0329 7.67055 16.1375 7.62994 16.1889 7.61759C16.281 7.59558 16.4729 7.61313 16.5673 7.61759C16.655 7.62161 16.8268 7.65344 16.9139 7.64928C16.9813 7.64526 17.0718 7.61759 17.1662 7.55452C17.261 7.49145 17.5763 7.33363 17.6708 7.23932C17.7652 7.14457 17.7652 6.89199 17.7338 6.79782C17.7022 6.70307 17.7377 6.70262 17.7338 6.67139C17.7254 6.59731 17.5549 6.52546 17.4816 6.51356C17.4171 6.50345 17.2845 6.54212 17.2294 6.57663C17.1347 6.63673 17.0094 6.83144 16.9455 6.92337C16.9093 6.97588 16.8705 7.10693 16.819 7.14426C16.7867 7.16777 16.7021 7.17193 16.6616 7.17595C16.5364 7.18874 16.2825 7.18472 16.1568 7.17595C16.0457 7.16806 15.7889 7.19707 15.7157 7.11288C15.7007 7.09533 15.7157 7.06424 15.7157 7.02036V6.98674V6.95357C15.7157 6.90984 15.7059 6.88172 15.7157 6.86104C15.7678 6.74918 16.0269 6.64893 16.0942 6.5454C16.1563 6.4493 16.1493 6.1945 16.2203 6.1039C16.3933 5.88122 16.9763 5.71194 17.1976 5.5367C17.2572 5.48939 17.3576 5.41978 17.4512 5.34213C19.3744 6.92214 20.6033 9.31768 20.6033 11.9947L20.6034 11.9947ZM13.9782 3.61982C13.9016 3.73659 13.7786 3.86095 13.6661 3.92848C13.5086 4.02279 13.6581 4.18894 13.6661 4.27522C13.6803 4.4265 13.5326 4.71805 13.4457 4.84242C13.3337 5.00247 12.9408 5.28434 12.8781 5.37866C12.8154 5.47342 12.6713 5.59836 12.5945 5.66277C12.4869 5.75262 12.2472 5.94644 12.1527 6.00906C12.0583 6.07213 11.8688 6.22996 11.6364 6.67146C11.4039 7.11296 11.3325 7.03307 11.2382 6.95513C11.1032 6.84327 10.6166 6.71178 10.6706 6.54516C10.6953 6.46841 10.6706 6.54516 10.4188 6.34554C10.1666 6.14547 10.1489 5.81109 10.1979 5.63036C10.216 5.56238 10.2998 5.44457 10.3243 5.37823C10.3807 5.22606 10.3539 4.84777 10.4818 4.74766C10.5543 4.69069 10.4818 4.74766 10.3554 4.40092C10.2293 4.05419 9.92284 4.17557 9.8193 4.05419C9.78807 4.01745 9.83091 3.90826 9.85114 3.86468C9.87628 3.8086 9.96567 3.71994 10.0085 3.67517C10.0287 3.65449 10.0557 3.62921 10.0851 3.60198C10.6999 3.46216 11.3386 3.38585 11.9952 3.38585C12.6777 3.38659 13.341 3.46885 13.9782 3.61983L13.9782 3.61982ZM6.85574 5.09348C7.2865 5.09348 7.11426 5.09259 7.36014 5.0618C7.61198 5.03011 7.6212 4.99293 7.70718 4.96704C7.81339 4.93536 7.70718 4.96704 8.14868 4.93536C8.59018 4.90368 8.14868 4.93536 8.32465 4.90412C8.50017 4.87244 8.52695 4.8406 8.62155 4.90412C8.71601 4.96719 8.90894 4.87735 8.99997 4.90412C9.13414 4.94324 9.31517 5.21887 9.37839 5.31363C9.44176 5.40839 9.69329 5.6925 9.78851 5.88125C9.88297 6.07076 9.78851 5.88125 9.56762 6.03908C9.34717 6.1969 9.44118 6.16507 9.34672 6.16507C9.25227 6.16507 9.07823 6.17295 9.00013 6.13338C8.93171 6.09932 8.85496 5.95221 8.78891 5.91293C8.68389 5.85031 8.57545 5.72566 8.32494 5.75511C8.27154 5.76166 8.19137 5.84808 8.14897 5.88155C8.08337 5.93361 7.9611 6.04904 7.89669 6.10244C7.81994 6.16551 7.64769 6.27127 7.58149 6.3458C7.51307 6.4221 7.42367 6.60715 7.32921 6.66977C7.23446 6.73284 7.36105 6.99554 7.42367 7.07974C7.47008 7.14236 7.57108 7.27386 7.64427 7.30019C7.75613 7.34154 8.02254 7.26895 8.11699 7.23757C8.21145 7.20588 8.24343 7.20588 8.43264 7.11113C8.62185 7.01638 8.43264 7.11113 8.55878 7.01638C8.68492 6.92162 8.72196 6.87745 8.7889 6.859C8.91593 6.8236 9.1938 6.80843 9.31547 6.859C9.39788 6.89262 9.51048 7.04256 9.56775 7.11113C9.69374 7.26018 9.78864 7.42633 10.1035 7.67875C10.4187 7.93088 10.4506 8.15132 10.5139 8.27763C10.5768 8.40407 10.4821 8.65605 10.4192 8.75066C10.3561 8.84542 10.2212 8.96189 10.1352 9.00279C9.82491 9.15095 9.34668 9.22369 8.78889 9.28646C8.23182 9.34953 8.77922 9.50735 8.78889 9.57057C8.79915 9.63364 8.27466 10.0121 7.99085 10.2325C7.70718 10.453 7.99085 10.2325 7.89639 10.2642C7.80163 10.2959 7.70718 10.4537 7.61243 10.5483C7.51767 10.6426 7.51767 10.9894 7.42322 11.0524C7.32876 11.1159 6.98141 11.2102 6.88697 11.2102H6.63514H6.38286C6.28811 11.2102 6.21314 11.1891 6.16197 11.2102C6.09012 11.2401 5.97112 11.3588 5.94107 11.4307C5.9262 11.467 5.92426 11.553 5.94107 11.5885C5.9848 11.6792 6.18234 11.7725 6.25672 11.8406C6.4379 12.0068 6.85587 12.4716 6.91912 12.5661C6.98219 12.6604 7.15593 13.0007 7.29739 13.0702C7.439 13.14 7.77012 13.0702 7.92796 13.0702C8.02717 13.0702 8.22605 13.0583 8.32513 13.0702C8.51047 13.0927 8.84279 13.1966 9.06144 13.1966C9.28011 13.1966 9.37724 13.3011 9.44165 13.3857C9.52361 13.4943 9.56809 13.5752 9.88345 13.7013C10.1984 13.8273 10.237 13.9078 10.3496 13.985C10.508 14.0936 10.955 14.2371 11.0495 14.3002C11.1443 14.3633 11.2705 14.8674 11.4282 15.12C11.5857 15.3725 11.7119 15.593 11.5857 15.8766C11.4596 16.1608 11.6802 16.2551 11.5857 16.3497C11.4913 16.4441 11.4913 16.5392 11.239 16.9173C10.9867 17.2956 10.9237 17.5792 10.829 17.6109C10.7346 17.6422 10.0667 18.0871 10.1668 18.3045C10.2229 18.4264 10.1668 18.3045 9.75728 18.6513C9.34731 18.998 9.40994 18.9669 9.22103 19.0612C9.03152 19.156 9.0522 19.5057 9.06321 19.6605C9.0702 19.7627 9.05577 19.925 9.0531 20.0842C8.93127 20.0396 8.81093 19.9917 8.69163 19.9421C8.68107 19.835 8.6653 19.7321 8.65326 19.6607C8.62187 19.4712 8.27454 18.0526 8.27454 17.8947C8.27454 17.7369 8.04309 17.6225 7.99088 17.5163C7.92528 17.3817 7.99088 17.0669 7.99088 16.9174C7.99088 16.8385 8.02524 16.6732 7.99088 16.6018C7.96916 16.5563 7.86964 16.5106 7.83335 16.4758C7.68029 16.3303 7.38591 16.0233 7.27346 15.8448C7.2275 15.7725 7.1918 15.5974 7.13974 15.5296C7.08514 15.4582 6.89147 15.3916 6.85577 15.3092C6.80565 15.1928 6.88716 14.994 6.88716 14.8046C6.88716 14.6151 6.98162 14.5837 7.18035 14.3316C7.37908 14.0794 7.20295 14.1742 7.17112 14.0794C7.13929 13.9847 7.20295 13.9216 7.17112 13.8269C7.13929 13.7321 6.94175 13.5137 6.85592 13.4174C6.80044 13.3543 6.69973 13.2182 6.63547 13.1648C6.48063 13.036 6.10845 12.8676 5.94128 12.7548C5.80145 12.6605 5.5355 12.4531 5.40549 12.3448C5.21718 12.1875 4.84545 11.8642 4.68049 11.6829C4.62753 11.6241 4.54676 11.4866 4.49128 11.4303C4.40009 11.3387 4.14856 11.2261 4.08116 11.1151C3.96201 10.9164 3.94356 10.432 3.92378 10.2006C3.90489 9.98089 3.94416 9.53778 3.92378 9.31748C3.91723 9.24564 3.92066 9.13214 3.9217 9.00927C4.50436 7.4376 5.53385 6.08024 6.85579 5.09351L6.85574 5.09348Z" fill="#1F2B37"/>
</svg>
