<svg width="86" height="30" viewBox="0 0 50 30" fill="none" xmlns="http://www.w3.org/2000/svg">
<!-- <svg width="86" height="30" viewBox="0 0 86 30" fill="none" xmlns="http://www.w3.org/2000/svg"> -->
  <path fill-rule="evenodd" clip-rule="evenodd" d="M40.332 21.3481C39.428 21.4841 38.408 21.5521 37.272 21.5521C36.52 21.5521 35.832 21.4801 35.208 21.3361C34.584 21.1921 34.052 20.9601 33.612 20.6401C33.172 20.3201 32.828 19.9041 32.58 19.3921C32.332 18.8801 32.208 18.2481 32.208 17.4961C32.208 16.7761 32.348 16.1681 32.628 15.6721C32.908 15.1761 33.288 14.7721 33.768 14.4601C34.248 14.1481 34.804 13.9241 35.436 13.7881C36.068 13.6521 36.728 13.5841 37.416 13.5841C37.736 13.5841 38.072 13.6041 38.424 13.6441C38.776 13.6841 39.152 13.7521 39.552 13.8481V13.3681C39.552 13.0321 39.512 12.7121 39.432 12.4081C39.352 12.1041 39.212 11.8361 39.012 11.6041C38.812 11.3721 38.548 11.1921 38.22 11.0641C37.892 10.9361 37.48 10.8721 36.984 10.8721C36.312 10.8721 35.696 10.9201 35.136 11.0161C34.576 11.1121 34.12 11.2241 33.768 11.3521L33.408 9.00007C33.776 8.87207 34.312 8.74407 35.016 8.61607C35.72 8.48807 36.472 8.42407 37.272 8.42407C38.232 8.42407 39.04 8.54407 39.696 8.78407C40.352 9.02407 40.876 9.36007 41.268 9.79207C41.66 10.2241 41.94 10.7481 42.108 11.3641C42.276 11.9801 42.36 12.6561 42.36 13.3921V21.0001C41.912 21.0961 41.236 21.2121 40.332 21.3481ZM16.14 21.2881V11.1601C16.332 11.1281 16.62 11.0881 17.004 11.0401C17.388 10.9921 17.74 10.9681 18.06 10.9681C18.956 10.9681 19.568 11.2601 19.896 11.8441C20.224 12.4281 20.388 13.3761 20.388 14.6881V21.2881H23.292V14.3521C23.292 13.8401 23.268 13.3601 23.22 12.9121C23.172 12.4641 23.084 12.0401 22.956 11.6401C23.164 11.4961 23.476 11.3481 23.892 11.1961C24.308 11.0441 24.748 10.9681 25.212 10.9681C26.124 10.9681 26.74 11.2601 27.06 11.8441C27.38 12.4281 27.54 13.3761 27.54 14.6881V21.2881H30.444V14.2321C30.444 13.3841 30.376 12.6041 30.24 11.8921C30.104 11.1801 29.856 10.5721 29.496 10.0681C29.136 9.56407 28.64 9.17207 28.008 8.89207C27.376 8.61207 26.572 8.47207 25.596 8.47207C25.212 8.47207 24.832 8.51207 24.456 8.59207C24.08 8.67207 23.724 8.77207 23.388 8.89207C23.052 9.01207 22.748 9.14407 22.476 9.28807C22.204 9.43207 21.98 9.56807 21.804 9.69607C21.436 9.32807 20.976 9.03207 20.424 8.80807C19.872 8.58407 19.164 8.47207 18.3 8.47207C17.292 8.47207 16.336 8.54407 15.432 8.68807C14.528 8.83207 13.796 8.98407 13.236 9.14407V21.2881H16.14ZM5.304 21.5761C6.376 21.5761 7.36 21.5001 8.256 21.3481C9.152 21.1961 9.88 21.0481 10.44 20.9041V8.73607H7.536V18.8881C7.344 18.9361 7.052 18.9761 6.66 19.0081C6.268 19.0401 5.896 19.0561 5.544 19.0561C4.568 19.0561 3.884 18.7681 3.492 18.1921C3.1 17.6161 2.904 16.6561 2.904 15.3121V8.73607H0V15.7681C0 16.6161 0.088 17.3961 0.264 18.1081C0.44 18.8201 0.732 19.4321 1.14 19.9441C1.548 20.4561 2.092 20.8561 2.772 21.1441C3.452 21.4321 4.296 21.5761 5.304 21.5761ZM37.512 19.2481C36.776 19.2481 36.192 19.1161 35.76 18.8521C35.328 18.5881 35.112 18.1121 35.112 17.4241C35.112 17.0721 35.192 16.7801 35.352 16.5481C35.512 16.3161 35.724 16.1361 35.988 16.0081C36.252 15.8801 36.548 15.7921 36.876 15.7441C37.204 15.6961 37.528 15.6721 37.848 15.6721C38.216 15.6721 38.552 15.6961 38.856 15.7441C39.16 15.7921 39.392 15.8401 39.552 15.8881V19.1041C39.088 19.2001 38.408 19.2481 37.512 19.2481ZM47.916 11.1601V21.2881H45.012V9.14407C45.572 8.98407 46.3 8.83207 47.196 8.68807C48.092 8.54407 49.084 8.47207 50.172 8.47207C51.196 8.47207 52.052 8.61207 52.74 8.89207C53.428 9.17207 53.976 9.56407 54.384 10.0681C54.792 10.5721 55.08 11.1801 55.248 11.8921C55.416 12.6041 55.5 13.3841 55.5 14.2321V21.2881H52.596V14.6881C52.596 14.0161 52.552 13.4441 52.464 12.9721C52.376 12.5001 52.232 12.1161 52.032 11.8201C51.832 11.5241 51.56 11.3081 51.216 11.1721C50.872 11.0361 50.452 10.9681 49.956 10.9681C49.588 10.9681 49.204 10.9921 48.804 11.0401C48.404 11.0881 48.108 11.1281 47.916 11.1601Z" fill="#196DFD"/>
  <!-- <path d="M68.2945 8.08811L59.25 3.86261V7.62046L68.2945 11.846L80.9235 6.2626V2.5L68.2945 8.08811Z" fill="#196DFD"/> -->
  <!-- <path d="M68.2939 15.6014V19.3593L80.923 13.7759V10.0181L68.2939 15.6014Z" fill="#196DFD"/> -->
  <!-- <path d="M68.2939 23.1171V26.8749L80.923 21.2915V17.5337L68.2939 23.1171Z" fill="#196DFD"/> -->
</svg>
