<?xml version="1.0" encoding="UTF-8"?>
<svg width="22px" height="16px" viewBox="0 0 22 16" version="1.1" xmlns="http://www.w3.org/2000/svg" xmlns:xlink="http://www.w3.org/1999/xlink">
    <g id="Review" stroke="none" stroke-width="1" fill="none" fill-rule="evenodd">
        <g id="Desktop-HD-Copy-17" transform="translate(-1348.000000, -18.000000)">
            <g id="btn-/-card-copy-2" transform="translate(1343.000000, 10.000000)">
                <g id="Group-9" transform="translate(5.000000, 8.000000)" fill-rule="nonzero">
                    <path d="M19.6,10.72 C20.4184142,9.63547789 20.8638007,8.31518169 20.8695652,6.95652174 C20.8695652,3.13043478 17.28,0 12.8695652,0 C9.96521739,0 7.30434783,1.35652174 5.91304348,3.55130435 C2.52521739,3.99652174 0,6.50086957 0,9.44347826 C0.0049989042,10.6039605 0.388456776,11.7311313 1.09217391,12.653913 L0.309565217,15.5617391 C0.280345762,15.6914185 0.327593329,15.8264115 0.431304348,15.9095652 C0.541013595,15.9958068 0.69164445,16.0081311 0.813913043,15.9408696 L3.36,14.5321739 C4.47116021,15.1086501 5.70472245,15.4092862 6.95652174,15.4086957 C8.65910759,15.4257575 10.3179315,14.8695492 11.666087,13.8295652 C12.0649263,13.8842918 12.4669897,13.9121806 12.8695652,13.9130435 C14.3234003,13.9208278 15.7568252,13.5708332 17.0434783,12.893913 L20.0104348,14.5634783 C20.0603613,14.59181 20.1165239,14.6073443 20.173913,14.6086957 C20.250765,14.6084564 20.325374,14.5827714 20.386087,14.5356522 C20.4910842,14.4533234 20.5397329,14.3181881 20.5113043,14.1878261 L19.6,10.72 Z" id="Path" fill="#FFFFFF"></path>
                    <path d="M3.52347826,13.8504348 C3.4158605,13.7883016 3.28326994,13.7883016 3.17565217,13.8504348 L1.19652174,14.9565217 L1.80869565,12.6678261 C1.83548046,12.5605397 1.80965544,12.4469096 1.73913043,12.3617391 C1.07032815,11.5355231 0.702359883,10.5064385 0.695652174,9.44347826 C0.695652174,7.00869565 2.7026087,4.8973913 5.46434783,4.32695652 C5.07501128,5.14903422 4.87191979,6.0469124 4.86956522,6.95652174 C4.86956522,10.1182609 7.28347826,12.8313043 10.7130435,13.6521739 C9.58491599,14.3486381 8.28223427,14.7104941 6.95652174,14.6956522 C5.75883366,14.7074769 4.57769548,14.4154832 3.52347826,13.8469565 L3.52347826,13.8504348 Z" id="Path" fill="#1F2B37"></path>
                    <path d="M17.2104348,12.1982609 C17.102817,12.1361277 16.9702265,12.1361277 16.8626087,12.1982609 C15.6403087,12.8729969 14.2657187,13.2238287 12.8695652,13.2173913 C12.4503667,13.2187009 12.0317049,13.1873013 11.6173913,13.1234783 C8.11130435,12.6052174 5.56521739,10.013913 5.56521739,6.95652174 C5.56923029,5.9302755 5.85693249,4.92512345 6.39652174,4.05217391 L6.39652174,4.05217391 C7.65217391,1.9826087 10.146087,0.695652174 12.8695652,0.695652174 C16.8973913,0.695652174 20.173913,3.5026087 20.173913,6.95652174 C20.1670039,8.22095299 19.7344857,9.44621717 18.946087,10.4347826 C18.8801847,10.5194932 18.8570797,10.6298836 18.8834783,10.733913 L19.6278261,13.5652174 L17.2104348,12.1982609 Z" id="Path" fill="#1F2B37"></path>
                    <circle id="Oval" fill="#FFFFFF" cx="16.6956522" cy="6.95652174" r="1.04347826"></circle>
                    <circle id="Oval" fill="#FFFFFF" cx="12.8695652" cy="6.95652174" r="1.04347826"></circle>
                    <circle id="Oval" fill="#FFFFFF" cx="9.04347826" cy="6.95652174" r="1.04347826"></circle>
                </g>
            </g>
        </g>
    </g>
</svg>