<svg width="10" height="9" viewBox="0 0 10 9" fill="none" xmlns="http://www.w3.org/2000/svg">
<path fill-rule="evenodd" clip-rule="evenodd" d="M9.5 7.87834V5.4C9.5 5.15147 9.29853 4.95 9.05 4.95C8.80147 4.95 8.6 5.15147 8.6 5.4V7.79979C8.6 7.96559 8.48691 8.1 8.34375 8.1H1.65625C1.51473 8.1 1.4 7.9626 1.4 7.79979V1.20021C1.4 1.03441 1.51309 0.9 1.65625 0.9H4.1C4.34853 0.9 4.55 0.698528 4.55 0.45C4.55 0.201472 4.34853 0 4.1 0H1.49754C0.946311 0 0.5 0.502184 0.5 1.12166V7.87834C0.5 8.49684 0.946616 9 1.49754 9H8.50245C9.05369 9 9.5 8.49782 9.5 7.87834ZM4.61357 4.18774L7.90131 0.9H6.79977C6.55144 0.9 6.35012 0.698022 6.35012 0.45C6.35012 0.201472 6.55196 0 6.79977 0H9.05048C9.17459 0 9.28695 0.0504461 9.36844 0.132012C9.4498 0.213438 9.50012 0.325801 9.50012 0.449644V2.70036C9.50012 2.94869 9.29815 3.15 9.05012 3.15C8.8016 3.15 8.60012 2.94816 8.60012 2.70036V1.60126L5.31361 4.88777C5.12032 5.08106 4.80652 5.08066 4.61361 4.88774C4.4203 4.69443 4.42058 4.38073 4.61357 4.18774Z" fill="#196DFD"/>
</svg>
