<svg width="8" height="10" viewBox="0 0 8 10" fill="none" xmlns="http://www.w3.org/2000/svg">
<path d="M1.71264 9.68994H6.28722C6.90709 9.68994 7.20982 9.38241 7.20982 8.70967V5.18264C7.20982 4.57718 6.95995 4.26484 6.44579 4.21198V3.00106C6.44579 1.18949 5.2589 0.314941 3.99993 0.314941C2.74096 0.314941 1.55407 1.18949 1.55407 3.00106V4.23601C1.08316 4.30809 0.790039 4.61562 0.790039 5.18264V8.70967C0.790039 9.38241 1.09277 9.68994 1.71264 9.68994ZM2.32771 2.90015C2.32771 1.69404 3.10135 1.05495 3.99993 1.05495C4.89851 1.05495 5.67215 1.69404 5.67215 2.90015V4.20718L2.32771 4.21198V2.90015Z" fill="#1D1C1D"/>
</svg>
