<?xml version="1.0" encoding="UTF-8"?>
<svg width="16px" height="16px" viewBox="0 0 16 16" version="1.1" xmlns="http://www.w3.org/2000/svg" xmlns:xlink="http://www.w3.org/1999/xlink">
    <g id="Review" stroke="none" stroke-width="1" fill="none" fill-rule="evenodd">
        <g id="Desktop-HD-Copy-17" transform="translate(-1391.000000, -18.000000)">
            <g id="btn-/-card-copy" transform="translate(1383.000000, 10.000000)">
                <path d="M20.0435827,17.806173 C19.7364308,17.6752718 19.3797329,17.7631724 19.1685721,18.0218007 L17.6185534,19.9155742 C15.1859433,18.7686217 13.2282513,16.8109289 12.0812992,14.378318 L13.975072,12.8282988 C14.2342611,12.617493 14.3222624,12.2603861 14.1906996,11.9532879 L12.6906816,8.45324447 C12.5457051,8.12086099 12.184902,7.93849136 11.8312962,8.01886409 L8.58125702,8.76887339 C8.24094396,8.84745888 8,9.1505511 8,9.49981996 C8,17.5155444 14.4969533,24 22.5001748,24 C22.8495604,24.0002239 23.1528219,23.7591698 23.2314336,23.4187426 L23.9814426,20.1687023 C24.0612927,19.8133987 23.8775652,19.4514515 23.5436248,19.3061916 L20.0435827,17.806173 Z" id="Path" fill="#1F2B37" fill-rule="nonzero"></path>
            </g>
        </g>
    </g>
</svg>