<?xml version="1.0" encoding="UTF-8"?>
<svg id="search" width="14" height="14" viewBox="0 0 18 18" version="1.1" xmlns="http://www.w3.org/2000/svg" xmlns:xlink="http://www.w3.org/1999/xlink">
    <g id="Review" stroke="none" stroke-width="1" fill="none" fill-rule="evenodd">
        <g id="To-do-/-Dashboard-Copy-24" transform="translate(-27.000000, -703.000000)">
            <g id="icon-/-menu-/-logement-copy-4" transform="translate(16.000000, 692.000000)"></g>
            <path class="fill" d="M34.7138823,703 C30.4627861,703 27,706.462758 27,710.713885 C27,714.964989 30.462781,718.427777 34.7138823,718.427777 C36.5632666,718.427777 38.2605098,717.774609 39.5913064,716.684117 L43.6812717,720.774077 C43.982494,721.075295 44.4728372,721.07532 44.7740723,720.774077 C45.0753101,720.472835 45.0753101,719.990537 44.7740723,719.68932 L40.6841071,715.599334 C41.7731045,714.269006 42.4277671,712.561834 42.4277671,710.713885 C42.4277671,706.462758 38.964981,703 34.7138823,703 L34.7138823,703 Z M34.7138823,704.542777 C38.1311978,704.542777 40.8849896,707.296546 40.8849896,710.713885 C40.8849896,714.131203 38.1311927,716.884997 34.7138823,716.884997 C31.2965744,716.884997 28.5427775,714.131203 28.5427775,710.713885 C28.5427775,707.296546 31.2965693,704.542777 34.7138823,704.542777 Z" id="Shape" fill="#FFFFFF" fill-rule="nonzero"></path>
        </g>
    </g>
</svg>