<svg width="24" height="24" viewBox="0 0 24 24" fill="none" xmlns="http://www.w3.org/2000/svg">
<path d="M10.1943 11.5343C12.2831 11.5343 13.9765 9.84094 13.9765 7.75212C13.9765 5.6633 12.2831 3.96997 10.1943 3.96997C8.1055 3.96997 6.41217 5.6633 6.41217 7.75212C6.41217 9.84094 8.1055 11.5343 10.1943 11.5343Z" fill="#1F2B37"/>
<path d="M10.8278 12.4986C10.6198 12.4892 10.4118 12.4797 10.1943 12.4797C7.9061 12.4797 5.76919 13.1132 3.9443 14.2006C3.11223 14.6923 2.63 15.6189 2.63 16.5928V19.0985H11.3857C10.6387 18.03 10.1943 16.7252 10.1943 15.3163C10.1943 14.3046 10.4307 13.3591 10.8278 12.4986Z" fill="#1F2B37"/>
<path d="M20.3588 15.3163C20.3588 15.1083 20.3304 14.9192 20.3021 14.7206L21.38 13.7656L20.4344 12.1298L19.0634 12.5932C18.7608 12.3379 18.4205 12.1393 18.0422 11.9975L17.7586 10.5886H15.8675L15.5838 11.9975C15.2056 12.1393 14.8652 12.3379 14.5627 12.5932L13.1916 12.1298L12.2461 13.7656L13.324 14.7206C13.2956 14.9192 13.2673 15.1083 13.2673 15.3163C13.2673 15.5243 13.2956 15.7134 13.324 15.912L12.2461 16.867L13.1916 18.5028L14.5627 18.0395C14.8652 18.2947 15.2056 18.4933 15.5838 18.6351L15.8675 20.044H17.7586L18.0422 18.6351C18.4205 18.4933 18.7608 18.2947 19.0634 18.0395L20.4344 18.5028L21.38 16.867L20.3021 15.912C20.3304 15.7134 20.3588 15.5243 20.3588 15.3163ZM16.813 17.2074C15.7729 17.2074 14.922 16.3564 14.922 15.3163C14.922 14.2762 15.7729 13.4252 16.813 13.4252C17.8531 13.4252 18.7041 14.2762 18.7041 15.3163C18.7041 16.3564 17.8531 17.2074 16.813 17.2074Z" fill="#1F2B37"/>
</svg>
