<svg width="24" height="24" viewBox="0 0 24 24" fill="none" xmlns="http://www.w3.org/2000/svg">
<path fill-rule="evenodd" clip-rule="evenodd" d="M12.0001 1.5C14.1947 1.5 16.1359 1.67833 17.3169 1.95167C19.6715 2.44718 21.5257 4.30671 22.0198 6.66804C22.2924 7.85237 22.4702 9.79914 22.4702 12C22.4702 14.2009 22.2924 16.1476 22.0198 17.332C21.5257 19.6933 19.6715 21.5528 17.3169 22.0483C16.1359 22.3217 14.1947 22.5 12.0001 22.5C9.80553 22.5 7.8643 22.3217 6.68334 22.0483C4.32874 21.5528 2.47451 19.6933 1.98041 17.332C1.70786 16.1476 1.53003 14.2009 1.53003 12C1.53003 9.79914 1.70786 7.85237 1.98041 6.66804C2.47451 4.30671 4.32874 2.44718 6.68334 1.95167C7.8643 1.67833 9.80553 1.5 12.0001 1.5ZM13.3825 16.6802C13.8956 16.7882 14.3174 17.1453 14.5161 17.6196C14.5816 17.7761 14.7411 17.872 14.9101 17.8565C14.9605 17.8519 15.0035 17.8478 15.0391 17.8443C15.8592 17.7623 16.5037 17.648 16.8784 17.5146L16.8806 17.5136C17.1322 17.4188 17.3113 17.1753 17.3113 16.8898C17.3113 16.8827 17.3112 16.8756 17.3109 16.8686L17.3089 16.8334L17.3082 16.8254C17.3075 16.8179 17.307 16.8107 17.3069 16.8037C17.243 15.9467 16.724 13.9403 15.9488 11.6503C15.0627 9.03228 14.1359 6.9128 13.718 6.4994L13.7174 6.49865C13.6513 6.42974 13.5744 6.37141 13.4893 6.32642C13.4561 6.3074 13.414 6.28922 13.3641 6.27206L13.3596 6.27055C13.0856 6.1776 12.5795 6.11523 11.9996 6.11523C11.4207 6.11523 10.9147 6.1776 10.6401 6.27072L10.6362 6.27206C10.5862 6.28922 10.5442 6.3074 10.5109 6.32642C10.4259 6.37141 10.3489 6.42974 10.2822 6.4994C9.86431 6.9128 8.93758 9.03228 8.05142 11.6503C7.27627 13.9403 6.75729 15.9467 6.69337 16.8037C6.69319 16.8107 6.69274 16.8179 6.69203 16.8254L6.69131 16.8334L6.6893 16.8686C6.68908 16.8756 6.68896 16.8827 6.68896 16.8898C6.68896 17.1753 6.86801 17.4188 7.11963 17.5136L7.12186 17.5146C7.49682 17.6481 8.14219 17.7625 8.96327 17.8445C8.99498 17.8476 9.03262 17.8512 9.0762 17.8552C9.25241 17.8715 9.41897 17.7722 9.48848 17.6094C9.68892 17.1402 10.1083 16.7874 10.6178 16.6802C10.9248 16.6091 11.4295 16.5627 12.0001 16.5627C12.5707 16.5627 13.0754 16.6091 13.3825 16.6802Z" fill="#1F2B37"/>
</svg>
