<svg width="24" height="24" viewBox="0 0 24 24" fill="none" xmlns="http://www.w3.org/2000/svg">
<path d="M12.131 2C9.78175 2 7.84524 3.90476 7.84524 6.28571C7.84524 6.88889 8.35317 7.39683 8.95635 7.39683C9.55952 7.39683 10.0675 6.88889 10.0675 6.28571C10.0675 5.14286 10.9881 4.22222 12.131 4.22222C13.2738 4.22222 14.1944 5.14286 14.1944 6.28571V7.11111C14.1944 7.84127 13.9722 8.44444 13.4643 8.92064C12.2579 10.127 9.75 10.381 8.86111 10.3492C8.5754 10.3492 8.28968 10.4444 8.06746 10.6667C7.84524 10.8889 7.75 11.1429 7.75 11.4603V19.2063C7.75 20.3175 8.19444 20.9841 8.60714 21.3333C9.24206 21.9048 10.0357 22 10.4167 22C10.4802 22 10.5119 22 10.5437 22H13.8452C15.5278 22 16.2579 20.5714 16.3532 19.5873C16.3532 19.5556 16.3532 19.5238 16.3532 19.4921V6.28571C16.4167 3.90476 14.5119 2 12.131 2Z" fill="#1F2B37"/>
</svg>
