<svg width="24" height="24" viewBox="0 0 24 24" fill="none" xmlns="http://www.w3.org/2000/svg">
<path d="M6.46236 12.0492C6.46236 11.4089 6.29815 10.9001 6.21607 10.5389C6.16007 10.2318 6.0177 9.94708 5.80565 9.71804C5.56001 9.5085 5.26696 9.36198 4.95194 9.29119C4.44291 9.16652 3.92794 9.06791 3.40886 8.9957C3.19544 8.9957 3.08041 8.84793 3.08041 8.66735C3.07819 8.62637 3.08418 8.5854 3.09784 8.5467C3.1115 8.50801 3.13271 8.4724 3.16016 8.4419C3.18762 8.41139 3.22071 8.3866 3.25776 8.36895C3.2948 8.3513 3.33501 8.34109 3.376 8.33899C4.03267 8.20766 4.55792 8.10922 4.93551 7.9943C5.24921 7.92896 5.54227 7.78808 5.78921 7.58388C5.9991 7.35748 6.14625 7.08011 6.21607 6.77938C6.29815 6.41821 6.38027 5.92575 6.46236 5.28549C6.45968 5.24241 6.46641 5.19922 6.4822 5.15904C6.49799 5.11886 6.52244 5.08266 6.55374 5.05293C6.58504 5.0232 6.62243 5.00071 6.66336 4.987C6.70429 4.97329 6.74772 4.96869 6.79061 4.97357C6.83159 4.97136 6.87256 4.97724 6.91125 4.99091C6.94995 5.00457 6.98556 5.02578 7.01606 5.05323C7.04656 5.08068 7.07136 5.11388 7.08901 5.15092C7.10666 5.18797 7.11697 5.22808 7.11907 5.26906C7.11907 5.92573 7.28308 6.43466 7.36516 6.81224C7.40406 7.13238 7.55027 7.42989 7.77979 7.65643C8.00931 7.88297 8.30867 8.02522 8.62928 8.05993C9.00687 8.15843 9.53221 8.24049 10.271 8.33899C10.345 8.35152 10.4135 8.3858 10.468 8.43749C10.4843 8.4736 10.4928 8.51279 10.4928 8.55242C10.4928 8.59204 10.4843 8.63123 10.468 8.66735C10.4726 8.74747 10.4462 8.82633 10.3942 8.88749C10.3422 8.94864 10.2688 8.98739 10.189 8.9957C9.51591 9.11062 8.99057 9.22556 8.54732 9.32406C8.23696 9.39416 7.94909 9.54082 7.71005 9.75081C7.49202 9.97784 7.34384 10.2628 7.2832 10.5716C7.2832 10.9328 7.11899 11.4254 7.0369 12.0656C7.02198 12.1471 6.98186 12.2218 6.92208 12.2791C6.85315 12.3042 6.77758 12.3042 6.70865 12.2791C6.64908 12.2704 6.59354 12.2437 6.54953 12.2026C6.50552 12.1615 6.47511 12.108 6.46236 12.0492ZM13.0291 22.8842C12.9366 22.7981 12.8784 22.6816 12.8649 22.556C12.7527 21.6672 12.5938 20.7849 12.3888 19.9128C12.2602 19.2897 12.033 18.6913 11.7156 18.1399C11.4378 17.6885 11.0549 17.311 10.5994 17.0399C10.0552 16.7319 9.46889 16.5052 8.85914 16.3668C8.13681 16.2027 7.21751 16.0549 6.2325 15.9071C6.17006 15.9096 6.10773 15.8989 6.04973 15.8756C5.99173 15.8524 5.93943 15.8171 5.89603 15.7721C5.85262 15.7272 5.81905 15.6735 5.79783 15.6147C5.77661 15.5559 5.7681 15.4934 5.77278 15.431C5.7701 15.374 5.77889 15.317 5.79863 15.2634C5.81837 15.2098 5.84877 15.1608 5.88781 15.1191C5.97807 15.0231 6.10106 14.9645 6.2325 14.955C7.11509 14.8678 7.99201 14.7308 8.85914 14.5446C9.47529 14.4185 10.0681 14.1969 10.6159 13.8879C11.0752 13.6075 11.4584 13.2185 11.7321 12.7551C12.0467 12.2024 12.2738 11.6043 12.4052 10.9821C12.61 10.0997 12.7635 9.20623 12.8649 8.30612C12.8821 8.18635 12.9401 8.07627 13.0291 7.9943C13.0707 7.95526 13.1198 7.92496 13.1734 7.90522C13.2269 7.88548 13.2839 7.87669 13.3409 7.87937C13.398 7.87571 13.4553 7.88403 13.509 7.90382C13.5627 7.92361 13.6118 7.95445 13.6529 7.9943C13.7419 8.07627 13.7999 8.18635 13.817 8.30612C13.9484 9.3568 14.1126 10.2597 14.2768 10.9821C14.4082 11.6043 14.6351 12.2024 14.9497 12.7551C15.2234 13.2185 15.6068 13.6075 16.0661 13.8879C16.6139 14.1969 17.2065 14.4185 17.8226 14.5446C18.6951 14.7319 19.5777 14.8689 20.4659 14.955C20.5264 14.9596 20.5852 14.9765 20.6389 15.0047C20.6925 15.0329 20.7397 15.0719 20.7777 15.1191C20.8214 15.1581 20.8558 15.2064 20.8785 15.2603C20.9013 15.3143 20.9117 15.3726 20.909 15.431C20.9142 15.4922 20.9052 15.5538 20.8823 15.6108C20.8595 15.6678 20.8237 15.7187 20.7777 15.7594C20.7412 15.8071 20.6939 15.8453 20.6397 15.871C20.5854 15.8967 20.5259 15.909 20.4659 15.9071C19.5773 15.9977 18.6946 16.1402 17.8226 16.334C17.2044 16.4528 16.6107 16.6748 16.0661 16.9907C15.6088 17.2664 15.2255 17.6496 14.9497 18.107C14.6352 18.6656 14.4083 19.2691 14.2768 19.8965C14.1126 20.6188 13.9484 21.5381 13.817 22.556C13.8036 22.6816 13.7453 22.7981 13.6529 22.8842C13.6118 22.9241 13.5627 22.9549 13.509 22.9747C13.4553 22.9945 13.398 23.0028 13.3409 22.9992C13.2746 23.0004 13.2089 22.9863 13.1491 22.9578C13.0893 22.9293 13.037 22.8873 12.9962 22.835L13.0291 22.8842ZM11.2233 5.48249C11.173 5.17294 11.1072 4.86612 11.0263 4.56315C10.9957 4.37309 10.91 4.19617 10.78 4.05424C10.6342 3.91941 10.4603 3.81851 10.271 3.75875C9.952 3.67518 9.62869 3.60942 9.30243 3.56175C9.27437 3.55968 9.24697 3.5521 9.22187 3.53941C9.19676 3.52672 9.17444 3.50916 9.15614 3.4878C9.13783 3.46644 9.12396 3.44161 9.11525 3.41486C9.10655 3.38811 9.10319 3.35994 9.10543 3.33189C9.10543 3.21698 9.10543 3.1513 9.30243 3.11847C9.62926 3.06672 9.95265 2.99545 10.271 2.90504C10.4617 2.85709 10.637 2.76103 10.78 2.62598C10.907 2.48203 10.9922 2.30602 11.0263 2.11707C11.1087 1.80891 11.1744 1.49653 11.2233 1.1813C11.2312 1.13056 11.257 1.08431 11.2962 1.05114C11.3354 1.01797 11.3853 1.00013 11.4367 1.00074C11.4626 0.998491 11.4885 1.00138 11.5132 1.00926C11.538 1.01713 11.5611 1.02985 11.581 1.04663C11.6008 1.06342 11.617 1.08393 11.6289 1.10705C11.6407 1.13017 11.648 1.1554 11.6501 1.1813C11.6989 1.49653 11.7647 1.80891 11.8471 2.11707C11.8757 2.3132 11.9658 2.49518 12.1044 2.63681C12.2431 2.77843 12.4232 2.87234 12.6186 2.90504C12.937 2.99545 13.2604 3.06672 13.5872 3.11847C13.7185 3.11847 13.7842 3.21698 13.7842 3.33189C13.7864 3.35994 13.7831 3.38811 13.7744 3.41486C13.7657 3.44161 13.7518 3.46644 13.7335 3.4878C13.7152 3.50916 13.6929 3.52672 13.6677 3.53941C13.6426 3.5521 13.6152 3.55968 13.5872 3.56175C13.2609 3.60942 12.9376 3.67518 12.6186 3.75875C12.4245 3.81875 12.2453 3.91949 12.0932 4.05424C11.9694 4.20034 11.8849 4.37542 11.8471 4.56315C11.7661 4.86612 11.7004 5.17294 11.6501 5.48249C11.6502 5.5098 11.6446 5.53681 11.6337 5.56185C11.6228 5.58688 11.6067 5.60945 11.5866 5.62798C11.5665 5.6465 11.5429 5.66058 11.517 5.66946C11.4912 5.67834 11.4639 5.68176 11.4367 5.67948C11.3218 5.6959 11.2561 5.63024 11.2233 5.48249Z" fill="#1F2B37"/>
</svg>
