<svg width="24" height="24" viewBox="0 0 24 24" fill="none" xmlns="http://www.w3.org/2000/svg">
<path d="M2.63 12.5465C2.63 12.8227 2.85386 13.0465 3.13 13.0465H10.4633C10.7395 13.0465 10.9633 12.8227 10.9633 12.5465V3.12988C10.9633 2.85374 10.7395 2.62988 10.4633 2.62988H3.13C2.85386 2.62988 2.63 2.85374 2.63 3.12988V12.5465ZM2.63 20.8799C2.63 21.156 2.85386 21.3799 3.13 21.3799H10.4633C10.7395 21.3799 10.9633 21.156 10.9633 20.8799V15.6299C10.9633 15.3537 10.7395 15.1299 10.4633 15.1299H3.13C2.85386 15.1299 2.63 15.3537 2.63 15.6299V20.8799ZM13.0467 20.8799C13.0467 21.156 13.2705 21.3799 13.5467 21.3799H20.88C21.1561 21.3799 21.38 21.156 21.38 20.8799V11.4632C21.38 11.1871 21.1561 10.9632 20.88 10.9632H13.5467C13.2705 10.9632 13.0467 11.1871 13.0467 11.4632V20.8799ZM13.5467 2.62988C13.2705 2.62988 13.0467 2.85374 13.0467 3.12988V8.37988C13.0467 8.65603 13.2705 8.87988 13.5467 8.87988H20.88C21.1561 8.87988 21.38 8.65603 21.38 8.37988V3.12988C21.38 2.85374 21.1561 2.62988 20.88 2.62988H13.5467Z" fill="#1F2B37"/>
</svg>
