<svg width="24" height="24" viewBox="0 0 24 24" fill="none" xmlns="http://www.w3.org/2000/svg">
<path d="M18.9389 2C19.7359 2 20.3847 2.64874 20.3851 3.4458V20.5546C20.3851 21.3513 19.7363 22 18.9393 22H5.4458C4.64874 22 4 21.3513 4 20.5546V3.4458C4 2.64874 4.64874 2 5.4458 2H18.9389ZM15.9752 17.9884H8.40949C8.1795 17.9884 7.99283 18.1751 7.99283 18.4051C7.99283 18.6355 8.1795 18.8217 8.40949 18.8217H15.9752C16.2052 18.8217 16.3918 18.6355 16.3918 18.4051C16.3918 18.1751 16.2052 17.9884 15.9752 17.9884ZM15.9752 15.2143H8.40949C8.1795 15.2143 7.99283 15.401 7.99283 15.631C7.99283 15.8614 8.1795 16.0476 8.40949 16.0476H15.9752C16.2052 16.0476 16.3918 15.8614 16.3918 15.631C16.3918 15.401 16.2052 15.2143 15.9752 15.2143ZM12.1923 4.14704C9.66822 4.14704 7.61451 6.20033 7.61451 8.72444C7.61451 11.2486 9.6678 13.3023 12.1923 13.3023C14.7169 13.3023 16.7702 11.2486 16.7702 8.72444C16.7702 6.20075 14.7164 4.14704 12.1923 4.14704ZM13.5631 9.1411C13.474 11.2136 12.7332 12.4689 12.1923 12.4689C11.6515 12.4689 10.9107 11.2136 10.8215 9.1411H13.5631ZM9.98863 9.1411C10.0374 10.3619 10.299 11.4148 10.7007 12.1573C9.49822 11.6327 8.62324 10.4952 8.47241 9.1411H9.98863ZM15.9123 9.1411C15.7614 10.4952 14.8864 11.6327 13.684 12.1573C14.0856 11.4148 14.3473 10.3619 14.396 9.1411H15.9123ZM10.7007 5.29201C10.299 6.03408 10.0374 7.08698 9.98863 8.30779H8.47241C8.62324 6.95365 9.49822 5.81617 10.7007 5.29201ZM12.1923 4.97994C12.7332 4.97994 13.474 6.23533 13.5631 8.30737H10.8215C10.9107 6.23533 11.6515 4.97994 12.1923 4.97994ZM13.684 5.2916C14.8864 5.81617 15.7614 6.95365 15.9123 8.30737H14.396C14.3473 7.08698 14.0856 6.03367 13.684 5.2916Z" fill="#1F2B37"/>
</svg>
