<svg width="24" height="24" viewBox="0 0 24 24" fill="none" xmlns="http://www.w3.org/2000/svg">
<path d="M4.67004 3.0965V20.9132C4.67004 21.0985 4.7797 21.2662 4.94941 21.3406C5.11916 21.4149 5.31677 21.3818 5.45298 21.2562L7.07638 19.759C7.25379 19.5954 7.52331 19.5932 7.70342 19.754L8.76764 20.7037C9.30187 21.1805 10.1058 21.1784 10.6374 20.6987L11.6862 19.7526C11.8645 19.5918 12.1332 19.5918 12.3114 19.7526L13.3602 20.6988C13.8919 21.1785 14.6958 21.1806 15.2299 20.7038L16.2943 19.754C16.4742 19.5933 16.7438 19.5955 16.9213 19.7591L18.5447 21.2563C18.6326 21.3373 18.746 21.3799 18.8611 21.3799C18.9243 21.3799 18.9881 21.3671 19.0483 21.3407C19.218 21.2663 19.3276 21.0986 19.3276 20.9133V3.0965C19.3276 2.83879 19.1187 2.62988 18.861 2.62988H5.13666C4.87895 2.62988 4.67004 2.83879 4.67004 3.0965Z" fill="#1F2B37"/>
<path d="M8.87958 9.89905H14.8684C15.1261 9.89905 15.335 9.69015 15.335 9.43244C15.335 9.17472 15.1261 8.96582 14.8684 8.96582H8.87958C8.62191 8.96582 8.41296 9.17472 8.41296 9.43244C8.41296 9.69015 8.62191 9.89905 8.87958 9.89905Z" fill="#F4F6F8"/>
<path d="M8.87958 13.1427H14.8684C15.1261 13.1427 15.335 12.9338 15.335 12.6761C15.335 12.4184 15.1261 12.2095 14.8684 12.2095H8.87958C8.62191 12.2095 8.41296 12.4184 8.41296 12.6761C8.41296 12.9338 8.62191 13.1427 8.87958 13.1427Z" fill="#F4F6F8"/>
</svg>
