<svg width="24" height="24" viewBox="0 0 24 24" fill="none" xmlns="http://www.w3.org/2000/svg">
<path d="M5.06893 2.62995C4.80279 2.62995 4.43994 2.84765 4.43994 3.11377V19.3234C4.43994 19.3475 4.60938 19.6136 4.70608 19.7346L5.84317 21.1863C5.93987 21.3073 6.08517 21.3799 6.2303 21.3799C6.37543 21.3799 6.52057 21.3073 6.61743 21.1863L7.39171 20.2187L8.16599 21.1863C8.26269 21.3073 8.40799 21.3799 8.55312 21.3799C8.69825 21.3799 8.84339 21.3073 8.94025 21.1863L9.71453 20.2187L10.4888 21.1863C10.6824 21.4283 11.0695 21.4283 11.2388 21.1863L12.013 20.2187L12.7873 21.1863C12.9809 21.4283 13.368 21.4283 13.5373 21.1863L14.3115 20.2187L15.0858 21.1863C15.1825 21.3073 15.3278 21.3799 15.4729 21.3799C15.6181 21.3799 15.7632 21.3073 15.8601 21.1863L16.6344 20.2187L17.4086 21.1863C17.6022 21.4283 17.9893 21.4283 18.1586 21.1863L19.2957 19.7346C19.3924 19.6136 19.5618 19.1056 19.5618 19.0814L19.5606 3.11371C19.5606 2.84757 19.1978 2.62988 18.9316 2.62988L5.06893 2.62995ZM8.06882 6.01694H15.3268C15.593 6.01694 15.8107 6.25894 15.8107 6.52509C15.8107 6.79122 15.593 7.00891 15.3268 7.00891H8.06882C7.80269 7.00891 7.585 6.79121 7.585 6.52509C7.585 6.25895 7.8027 6.01694 8.06882 6.01694ZM15.3268 15.9362H8.06882C7.80269 15.9362 7.585 15.6701 7.585 15.404C7.585 15.1378 7.8027 14.9202 8.06882 14.9202H15.3268C15.593 14.9202 15.8107 15.1379 15.8107 15.404C15.8108 15.6701 15.593 15.9362 15.3268 15.9362ZM15.3268 12.791H8.06882C7.80269 12.791 7.585 12.5249 7.585 12.2588C7.585 11.9927 7.8027 11.775 8.06882 11.775H15.3268C15.593 11.775 15.8107 11.9927 15.8107 12.2588C15.8108 12.5249 15.593 12.791 15.3268 12.791ZM15.8108 9.40406C15.8108 9.88788 15.2786 9.91221 15.327 9.88788H8.069C7.80286 9.88788 7.58517 9.67018 7.58517 9.40406C7.58517 9.13792 7.80287 8.92023 8.069 8.92023H15.327C15.5932 8.92007 15.811 9.13794 15.811 9.40406H15.8108Z" fill="#1F2B37"/>
</svg>
