<svg width="24" height="24" viewBox="0 0 24 24" fill="none" xmlns="http://www.w3.org/2000/svg">
<path d="M12.4046 4.7673C13.1688 4.7673 13.7883 4.14782 13.7883 3.38365C13.7883 2.61948 13.1688 2 12.4046 2C11.6405 2 11.021 2.61948 11.021 3.38365C11.021 4.14782 11.6405 4.7673 12.4046 4.7673Z" fill="#1F2B37"/>
<path d="M17.6872 3.38365C17.6872 4.14782 17.0677 4.7673 16.3036 4.7673C15.5394 4.7673 14.9199 4.14782 14.9199 3.38365C14.9199 2.61948 15.5394 2 16.3036 2C17.0677 2 17.6872 2.61948 17.6872 3.38365Z" fill="#1F2B37"/>
<path d="M21.6491 3.38365C21.6491 4.14782 21.0297 4.7673 20.2655 4.7673C19.5013 4.7673 18.8818 4.14782 18.8818 3.38365C18.8818 2.61948 19.5013 2 20.2655 2C21.0297 2 21.6491 2.61948 21.6491 3.38365Z" fill="#1F2B37"/>
<path d="M21.6491 7.28306C21.6491 8.04723 21.0297 8.66671 20.2655 8.66671C19.5013 8.66671 18.8818 8.04723 18.8818 7.28306C18.8818 6.51889 19.5013 5.89941 20.2655 5.89941C21.0297 5.89941 21.6491 6.51889 21.6491 7.28306Z" fill="#1F2B37"/>
<path d="M20.2655 12.6286C21.0297 12.6286 21.6491 12.0091 21.6491 11.245C21.6491 10.4808 21.0297 9.86133 20.2655 9.86133C19.5013 9.86133 18.8818 10.4808 18.8818 11.245C18.8818 12.0091 19.5013 12.6286 20.2655 12.6286Z" fill="#1F2B37"/>
<path d="M17.6872 7.28306C17.6872 8.04723 17.0677 8.66671 16.3036 8.66671C15.5394 8.66671 14.9199 8.04723 14.9199 7.28306C14.9199 6.51889 15.5394 5.89941 16.3036 5.89941C17.0677 5.89941 17.6872 6.51889 17.6872 7.28306Z" fill="#1F2B37"/>
<path d="M16.3036 12.6286C17.0677 12.6286 17.6872 12.0091 17.6872 11.245C17.6872 10.4808 17.0677 9.86133 16.3036 9.86133C15.5394 9.86133 14.9199 10.4808 14.9199 11.245C14.9199 12.0091 15.5394 12.6286 16.3036 12.6286Z" fill="#1F2B37"/>
<path d="M11.1 6.84282C11.1 6.10006 11.6022 5.58496 12.4047 5.58496C13.0965 5.58496 13.6626 6.151 13.6626 6.84282V12.8177C14.1657 12.8177 15.5493 13.195 15.0462 15.3963C14.5431 17.5346 12.7192 19.5472 12.7192 19.5472V22.0001H4.85752V19.5472C3.47387 18.7296 1.08394 11.2453 5.73803 11.1824C5.9267 9.86169 7.43614 9.29565 8.44243 10.1133C8.81979 9.04408 10.1566 8.69534 11.1 9.45006V6.84282Z" fill="#1F2B37"/>
</svg>
