<svg width="24" height="24" viewBox="0 0 24 24" fill="none" xmlns="http://www.w3.org/2000/svg">
<path fill-rule="evenodd" clip-rule="evenodd" d="M6.79667 18.88H21.38V21.38H6.79667V18.88ZM3.88008 21.38C3.18964 21.38 2.63 20.8204 2.63 20.1299C2.63 19.4396 3.18964 18.88 3.88008 18.88C4.57037 18.88 5.13 19.4396 5.13 20.1299C5.13 20.8204 4.57037 21.38 3.88008 21.38ZM6.79667 13.4633H21.38V15.9633H6.79667V13.4633ZM3.88008 15.9633C3.18964 15.9633 2.63 15.4037 2.63 14.7134C2.63 14.0229 3.18964 13.4633 3.88008 13.4633C4.57037 13.4633 5.13 14.0229 5.13 14.7134C5.13 15.4037 4.57037 15.9633 3.88008 15.9633ZM6.79667 8.04662H21.38V10.5466H6.79667V8.04662ZM3.88008 10.5466C3.18964 10.5466 2.63 9.98695 2.63 9.29651C2.63 8.60622 3.18964 8.04659 3.88008 8.04659C4.57037 8.04659 5.13 8.60622 5.13 9.29651C5.13 9.98695 4.57037 10.5466 3.88008 10.5466ZM6.79667 2.62992H21.38V5.12988H6.79667V2.62992ZM3.88008 5.12988C3.18964 5.12988 2.63 4.57025 2.63 3.87996C2.63 3.18952 3.18964 2.62988 3.88008 2.62988C4.57037 2.62988 5.13 3.18952 5.13 3.87996C5.13 4.57025 4.57037 5.12988 3.88008 5.12988Z" fill="#1F2B37"/>
</svg>
