<svg width="24" height="24" viewBox="0 0 24 24" fill="none" xmlns="http://www.w3.org/2000/svg">
<path d="M10.9013 12.2412C13.1853 12.2412 15.0369 10.3896 15.0369 8.1056C15.0369 5.82155 13.1853 3.96997 10.9013 3.96997C8.61721 3.96997 6.76562 5.82155 6.76562 8.1056C6.76562 10.3896 8.61721 12.2412 10.9013 12.2412Z" fill="#1F2B37"/>
<path d="M11.594 13.2958C11.3665 13.2855 11.1391 13.2751 10.9013 13.2751C8.39921 13.2751 6.06258 13.9679 4.06714 15.1569C3.1573 15.6945 2.63 16.7077 2.63 17.7726V20.5125H12.204C11.3872 19.3442 10.9013 17.9174 10.9013 16.3769C10.9013 15.2706 11.1597 14.2367 11.594 13.2958Z" fill="#1F2B37"/>
<path d="M13.7399 17.7398H12.329L12.8082 16.5818H13.5136C13.5136 16.4576 13.5092 16.3777 13.5003 16.3422V16.1292C13.5003 16.0849 13.5047 16.045 13.5136 16.0095H12.329L12.8082 14.8515H13.7266C14.0726 13.8665 14.6405 13.0901 15.4303 12.5222C16.22 11.9454 17.1207 11.657 18.1323 11.657C18.7712 11.657 19.3435 11.7723 19.8493 12.0031C20.364 12.2249 20.8742 12.5931 21.38 13.1078L20.8609 14.3457C20.3817 13.8576 19.9247 13.5071 19.4899 13.2942C19.0551 13.0723 18.5804 12.9614 18.0657 12.9614C17.1784 12.9614 16.4286 13.3075 15.8163 13.9996C15.5412 14.3013 15.3415 14.5853 15.2173 14.8515H20.6612L20.1688 16.0095H14.9112C14.9023 16.1071 14.8979 16.2047 14.8979 16.3023C14.8979 16.391 14.9023 16.4842 14.9112 16.5818H19.9292L19.45 17.7398H15.2173C15.519 18.3166 15.9272 18.7736 16.4419 19.1108C16.9565 19.4391 17.5111 19.6032 18.1057 19.6032C18.6469 19.6032 19.135 19.4879 19.5698 19.2572C20.0046 19.0265 20.4793 18.636 20.994 18.0859V19.8694C20.151 20.5616 19.206 20.9077 18.1589 20.9077C17.1296 20.9077 16.2289 20.6326 15.4569 20.0824C14.6938 19.5323 14.1214 18.7514 13.7399 17.7398Z" fill="#1F2B37"/>
</svg>
