<svg width="24" height="24" viewBox="0 0 24 24" fill="none" xmlns="http://www.w3.org/2000/svg">
<path d="M17.9709 13.7027V6.88448C17.9709 5.94698 17.2039 5.17993 16.2664 5.17993H4.33455C3.39705 5.17993 2.63 5.94698 2.63 6.88448V13.7027C2.63 14.6402 3.39705 15.4072 4.33455 15.4072H16.2664C17.2039 15.4072 17.9709 14.6402 17.9709 13.7027ZM10.3005 12.8504C8.88569 12.8504 7.74364 11.7083 7.74364 10.2936C7.74364 8.8788 8.88569 7.73675 10.3005 7.73675C11.7152 7.73675 12.8573 8.8788 12.8573 10.2936C12.8573 11.7083 11.7152 12.8504 10.3005 12.8504ZM21.38 7.73675V17.1117C21.38 18.0493 20.613 18.8163 19.6755 18.8163H5.18682V17.1117H19.6755V7.73675H21.38Z" fill="#1F2B37"/>
</svg>
