<svg width="24" height="24" viewBox="0 0 24 24" fill="none" xmlns="http://www.w3.org/2000/svg">
<path d="M21.9844 10.2529L20.3416 4.05271C20.2914 3.8595 20.1405 3.70862 19.9473 3.65842L13.7471 2.01948C13.5565 1.96721 13.3525 2.02189 13.2137 2.1625L2.16235 13.21C1.94588 13.4267 1.94588 13.7779 2.16235 13.9946L10.0053 21.8377C10.2221 22.0541 10.5733 22.0541 10.79 21.8377L21.8375 10.7863C21.9791 10.648 22.0353 10.4442 21.9844 10.2529ZM7.26089 12.8196C7.47766 12.6031 7.82879 12.6031 8.04556 12.8196L11.1805 15.9544C11.3208 16.0946 11.3757 16.299 11.3244 16.4906C11.2731 16.6822 11.1235 16.8318 10.9319 16.8831C10.7403 16.9344 10.5359 16.8795 10.3958 16.7391L7.26089 13.6042C7.04442 13.3875 7.04442 13.0363 7.26089 12.8196ZM13.1402 14.7793C12.9235 14.9958 12.5723 14.9958 12.3555 14.7793L9.22067 11.6445C9.0805 11.5043 9.02575 11.3 9.07706 11.1085C9.12836 10.917 9.27792 10.7675 9.46939 10.7162C9.66087 10.6649 9.86517 10.7196 10.0053 10.8598L13.1402 13.9946C13.3567 14.2114 13.3567 14.5626 13.1402 14.7793ZM14.5125 6.94019C15.0278 6.42408 15.8034 6.26936 16.4773 6.54821C17.1512 6.82706 17.5907 7.48452 17.5907 8.21386C17.5907 8.94319 17.1512 9.60066 16.4773 9.87951C15.8034 10.1584 15.0278 10.0036 14.5125 9.48753C13.8115 8.78308 13.8115 7.64463 14.5125 6.94019Z" fill="#1F2B37"/>
</svg>
