<svg width="24" height="24" viewBox="0 0 24 24" fill="none" xmlns="http://www.w3.org/2000/svg">
<path d="M12.1111 6.44444V2H1V22H23.2222V6.44444H12.1111ZM5.44444 19.7778H3.22222V17.5556H5.44444V19.7778ZM5.44444 15.3333H3.22222V13.1111H5.44444V15.3333ZM5.44444 10.8889H3.22222V8.66667H5.44444V10.8889ZM5.44444 6.44444H3.22222V4.22222H5.44444V6.44444ZM9.88889 19.7778H7.66667V17.5556H9.88889V19.7778ZM9.88889 15.3333H7.66667V13.1111H9.88889V15.3333ZM9.88889 10.8889H7.66667V8.66667H9.88889V10.8889ZM9.88889 6.44444H7.66667V4.22222H9.88889V6.44444ZM21 19.7778H12.1111V17.5556H14.3333V15.3333H12.1111V13.1111H14.3333V10.8889H12.1111V8.66667H21V19.7778ZM18.7778 10.8889H16.5556V13.1111H18.7778V10.8889ZM18.7778 15.3333H16.5556V17.5556H18.7778V15.3333Z" fill="#1F2B37"/>
</svg>
