<svg width="24" height="24" viewBox="0 0 24 24" fill="none" xmlns="http://www.w3.org/2000/svg">
<path fill-rule="evenodd" clip-rule="evenodd" d="M10.5135 7.75382C10.5135 6.85393 11.2519 6.50766 12.4752 6.50766C14.2289 6.50766 16.4442 7.03858 18.1981 7.98472V2.5615C16.2828 1.80002 14.3905 1.5 12.4752 1.5C7.79044 1.5 4.67505 3.94623 4.67505 8.03096C4.67505 14.4 13.4442 13.3847 13.4442 16.131C13.4442 17.1923 12.5213 17.5386 11.2289 17.5386C9.31357 17.5386 6.86734 16.7539 4.92882 15.6924V21.1847C7.07503 22.1078 9.24429 22.5 11.2289 22.5C16.0289 22.5 19.3289 20.1232 19.3289 15.9924C19.3059 9.11551 10.5135 10.3385 10.5135 7.75382Z" fill="#1F2B37"/>
</svg>
