<svg width="24" height="24" viewBox="0 0 24 24" fill="none" xmlns="http://www.w3.org/2000/svg">
<path d="M7.8847 10.8545L16.3232 19.293L16.3234 19.5873C16.232 20.5321 15.5554 21.8864 14.0128 21.9933L13.8155 22H10.3869C10.0059 22 9.2123 21.9048 8.57738 21.3333C8.19219 21.0074 7.77935 20.4049 7.72602 19.4227L7.72023 19.2063V11.4603C7.72023 11.2287 7.77094 11.0308 7.8847 10.8545ZM12.1012 2C14.4121 2 16.2744 3.79436 16.3239 6.0769L16.323 16.113L21.0005 20.7906L20.0105 21.7805L3.03998 4.80995L4.02993 3.82L10.4269 10.2181C11.3965 10.0531 12.5231 9.71205 13.27 9.07264L13.4345 8.92064C13.8963 8.48773 14.1219 7.94989 14.1591 7.3071L14.1647 7.11111V6.28571C14.1647 5.14286 13.244 4.22222 12.1012 4.22222C10.9583 4.22222 10.0377 5.14286 10.0377 6.28571C10.0377 6.88889 9.52976 7.39683 8.92658 7.39683C8.32341 7.39683 7.81547 6.88889 7.81547 6.28571C7.81547 3.90476 9.75198 2 12.1012 2Z" fill="#1F2B37"/>
</svg>
