<svg width="24" height="24" viewBox="0 0 24 24" fill="none" xmlns="http://www.w3.org/2000/svg">
<path d="M5.71099 5.03213H12.1203C12.2469 5.03213 12.3496 4.92948 12.3496 4.80283C12.3496 4.67639 12.2469 4.57373 12.1203 4.57373H5.71099C5.58435 4.57373 5.48169 4.67638 5.48169 4.80283C5.48169 4.92947 5.58434 5.03213 5.71099 5.03213Z" fill="#1F2B37"/>
<path d="M5.71099 8.26181H16.8403C16.9669 8.26181 17.0696 8.15916 17.0696 8.03252C17.0696 7.90588 16.9669 7.80322 16.8403 7.80322H5.71099C5.58435 7.80322 5.48169 7.90588 5.48169 8.03252C5.48169 8.15916 5.58434 8.26181 5.71099 8.26181Z" fill="#1F2B37"/>
<path d="M5.71099 9.50913H16.8403C16.9669 9.50913 17.0696 9.40648 17.0696 9.27983C17.0696 9.15319 16.9669 9.05054 16.8403 9.05054H5.71099C5.58435 9.05054 5.48169 9.15319 5.48169 9.27983C5.48169 9.40648 5.58434 9.50913 5.71099 9.50913Z" fill="#1F2B37"/>
<path d="M5.71099 15.799H13.8449H13.8447C13.9713 15.799 14.074 15.6963 14.074 15.5697C14.074 15.4432 13.9713 15.3406 13.8447 15.3406H5.7108C5.58416 15.3406 5.48151 15.4432 5.48151 15.5697C5.48151 15.6963 5.58416 15.799 5.7108 15.799H5.71099Z" fill="#1F2B37"/>
<path d="M12.1203 20.0605H5.71105C5.58441 20.0605 5.48175 20.1632 5.48175 20.2898C5.48175 20.4165 5.5844 20.5191 5.71105 20.5191H12.1203C12.247 20.5191 12.3496 20.4165 12.3496 20.2898C12.3496 20.1632 12.247 20.0605 12.1203 20.0605Z" fill="#1F2B37"/>
<path d="M5.71099 10.8097H16.8403C16.9669 10.8097 17.0696 10.7073 17.0696 10.5806C17.0696 10.454 16.9669 10.3513 16.8403 10.3513H5.71099C5.58435 10.3513 5.48169 10.454 5.48169 10.5806C5.48169 10.7073 5.58434 10.8097 5.71099 10.8097Z" fill="#1F2B37"/>
<path d="M5.71099 12.057H16.8403C16.9669 12.057 17.0696 11.9546 17.0696 11.8279C17.0696 11.7013 16.9669 11.5986 16.8403 11.5986H5.71099C5.58435 11.5986 5.48169 11.7013 5.48169 11.8279C5.48169 11.9546 5.58434 12.057 5.71099 12.057Z" fill="#1F2B37"/>
<path d="M5.71099 13.3046H16.8403C16.9669 13.3046 17.0696 13.2019 17.0696 13.0755C17.0696 12.9488 16.9669 12.8462 16.8403 12.8462H5.71099C5.58435 12.8462 5.48169 12.9488 5.48169 13.0755C5.48169 13.2019 5.58434 13.3046 5.71099 13.3046Z" fill="#1F2B37"/>
<path d="M5.71105 14.5517H16.8403C16.967 14.5517 17.0696 14.449 17.0696 14.3226C17.0696 14.1959 16.967 14.0933 16.8403 14.0933H5.71105C5.58441 14.0933 5.48175 14.1959 5.48175 14.3226C5.48175 14.449 5.5844 14.5517 5.71105 14.5517Z" fill="#1F2B37"/>
<path d="M20.0523 14.3985C20.0521 14.1875 19.9753 13.9837 19.836 13.8252C19.6967 13.6667 19.5047 13.5642 19.2953 13.537C19.0862 13.5095 18.8742 13.5594 18.6988 13.6769V8.98873C18.6991 8.50193 18.527 8.03087 18.2129 7.65923L18.2027 7.64906C18.1481 7.58459 18.0897 7.52319 18.0276 7.46581L13.4054 2.66927C13.0147 2.24273 12.4627 1.9998 11.8842 2H3.96002V22H18.6977V16.1089L19.7979 15.0087C19.9601 14.8472 20.0514 14.6279 20.052 14.399L20.0523 14.3985ZM17.0329 6.97146H17.0327C16.9009 6.94537 16.7666 6.93213 16.6321 6.93194H13.9502V4.06662C13.9502 3.95572 13.9411 3.84501 13.9235 3.73563L17.0329 6.97146ZM18.3321 21.6424H4.32677V2.36688H11.883C12.3337 2.36746 12.7659 2.54668 13.0846 2.86536C13.4033 3.18407 13.5827 3.61617 13.583 4.0669V6.55536H5.71046C5.58382 6.55536 5.48116 6.65801 5.48116 6.78466C5.48116 6.9113 5.58381 7.01395 5.71046 7.01395H13.583V7.28911L16.6306 7.28892C17.0606 7.28911 17.4745 7.45316 17.7879 7.7475L17.9272 7.89237C18.1885 8.19937 18.3317 8.58944 18.3307 8.99257V14.0171L14.0992 18.2498C13.8342 18.5148 13.1409 19.9782 13.0043 20.267C12.9627 20.3545 12.9807 20.4586 13.0494 20.5271C13.1179 20.5956 13.2221 20.6137 13.3096 20.5722C13.6003 20.4356 15.0638 19.7423 15.3268 19.4774L18.3297 16.4745L18.3321 21.6424Z" fill="#1F2B37"/>
</svg>
