<svg width="22" height="22" viewBox="0 0 22 22" fill="none" xmlns="http://www.w3.org/2000/svg">
<path d="M0 2C0 0.89543 0.895431 0 2 0H20C21.1046 0 22 0.895431 22 2V20C22 21.1046 21.1046 22 20 22H2C0.89543 22 0 21.1046 0 20V2Z" fill="#E9FBE3"/>
<path d="M16.4826 15.1425L13.3139 13.7846C13.0359 13.666 12.7129 13.7456 12.5218 13.9798L11.1185 15.6942C8.91622 14.6559 7.14389 12.8835 6.10553 10.6812L7.82 9.27798C8.05465 9.08714 8.13432 8.76384 8.01521 8.48582L6.65721 5.31716C6.52596 5.01624 6.19932 4.85114 5.87919 4.9239L2.93687 5.6029C2.62878 5.67405 2.41057 5.94844 2.41064 6.26464C2.41064 13.5214 8.29247 19.3919 15.5379 19.3919C15.8543 19.3922 16.1288 19.1739 16.2 18.8657L16.879 15.9234C16.9513 15.6017 16.7849 15.2741 16.4826 15.1425Z" fill="#00B388"/>
<path fill-rule="evenodd" clip-rule="evenodd" d="M14.9158 2.62158L19.5981 7.30388L14.0054 8.21433L14.9158 2.62158Z" fill="#00B388"/>
</svg>
