<svg width="22" height="22" viewBox="0 0 22 22" fill="none" xmlns="http://www.w3.org/2000/svg">
<path d="M0 2C0 0.89543 0.895431 0 2 0H20C21.1046 0 22 0.895431 22 2V20C22 21.1046 21.1046 22 20 22H2C0.89543 22 0 21.1046 0 20V2Z" fill="#E8F0FF"/>
<path d="M5.8986 4.87548C6.21881 4.8027 6.54553 4.96784 6.67681 5.26883L8.03514 8.43827C8.15428 8.71636 8.07459 9.03974 7.83988 9.23063L6.12499 10.6342C7.16361 12.8371 8.93638 14.6098 11.1392 15.6485L12.5428 13.9336C12.734 13.6994 13.057 13.6198 13.3352 13.7383L16.5046 15.0966C16.807 15.2282 16.9734 15.5559 16.9011 15.8777L16.2219 18.8207C16.1507 19.129 15.8761 19.3473 15.5597 19.3471C8.31247 19.3471 2.4292 13.4751 2.4292 6.21655C2.4292 5.90027 2.64738 5.62581 2.95555 5.55465L5.8986 4.87548ZM17.2792 4.91432L16.3685 10.5084L11.6851 5.82499L17.2792 4.91432Z" fill="#196DFD"/>
</svg>
