<svg width="12" height="12" viewBox="0 0 12 12" fill="none" xmlns="http://www.w3.org/2000/svg">
    <path fill-rule="evenodd" clip-rule="evenodd" d="M12 6C12 2.68629 9.31371 0 6 0C2.68629 0 0 2.68629 0 6C0 9.31371 2.68629 12 6 12C9.31371 12 12 9.31371 12 6ZM0.75 6C0.75 3.10051 3.10051 0.75 6 0.75C8.8995 0.75 11.25 3.10051 11.25 6C11.25 8.8995 8.8995 11.25 6 11.25C3.10051 11.25 0.75 8.8995 0.75 6Z" fill="#FF0155"/>
    <path d="M5.99854 6.58521C5.73707 6.58521 5.58839 6.43652 5.57813 6.16479L5.50636 3.8269C5.4961 3.55518 5.70631 3.35522 5.99342 3.35522C6.28053 3.35522 6.49586 3.5603 6.4856 3.83203L6.41383 6.16479C6.40357 6.44165 6.25489 6.58521 5.99854 6.58521Z" fill="#FF0155"/>
    <path d="M5.99854 8.38477C5.7063 8.38477 5.4397 8.16431 5.4397 7.85156C5.4397 7.54395 5.70117 7.31836 5.99854 7.31836C6.2959 7.31836 6.55737 7.53882 6.55737 7.85156C6.55737 8.16431 6.29077 8.38477 5.99854 8.38477Z" fill="#FF0155"/>
</svg>
