<?xml version="1.0" encoding="UTF-8"?>
<svg width="18px" height="16px" viewBox="0 0 18 16" version="1.1" xmlns="http://www.w3.org/2000/svg" xmlns:xlink="http://www.w3.org/1999/xlink">
    <g id="Review" stroke="none" stroke-width="1" fill="none" fill-rule="evenodd">
        <g id="Desktop-HD-Copy-13" transform="translate(-103.000000, -297.000000)" fill="#FC265D">
            <g id="picto-flag-copy" transform="translate(96.000000, 289.000000)">
                <g id="Group" class="variable-fill" transform="translate(7.000000, 8.000000)" fill-rule="nonzero">
                    <path d="M6.41904762,9.6 C6.07619048,9.6 5.75238095,9.48571429 5.48571429,9.2952381 L3.75238095,10.2857143 C4.4,11.047619 5.35238095,11.5238095 6.41904762,11.5238095 C6.83809524,11.5238095 7.21904762,11.447619 7.58095238,11.3142857 L6.57142857,9.58095238 C6.53333333,9.58095238 6.47619048,9.6 6.41904762,9.6 Z" id="Path"></path>
                    <path d="M6.41904762,6.4 C6.76190476,6.4 7.08571429,6.51428571 7.35238095,6.7047619 L9.08571429,5.71428571 C8.43809524,4.95238095 7.48571429,4.47619048 6.41904762,4.47619048 C6,4.47619048 5.61904762,4.55238095 5.25714286,4.68571429 L6.26666667,6.41904762 C6.3047619,6.41904762 6.36190476,6.4 6.41904762,6.4 Z" id="Path"></path>
                    <path d="M4.81904762,8 C4.81904762,7.65714286 4.93333333,7.33333333 5.12380952,7.06666667 L4.13333333,5.33333333 C3.37142857,5.98095238 2.8952381,6.93333333 2.8952381,8 C2.8952381,8.41904762 2.97142857,8.8 3.1047619,9.16190476 L4.83809524,8.15238095 C4.83809524,8.11428571 4.81904762,8.05714286 4.81904762,8 Z" id="Path"></path>
                    <path d="M8,7.82857143 C8,7.88571429 8.01904762,7.94285714 8.01904762,8 C8.01904762,8.34285714 7.9047619,8.66666667 7.71428571,8.93333333 L8.7047619,10.6666667 C9.46666667,10.0190476 9.94285714,9.06666667 9.94285714,8 C9.94285714,7.58095238 9.86666667,7.2 9.73333333,6.83809524 L8,7.82857143 Z" id="Path"></path>
                    <path d="M15.5428571,0 L1.6,0 C0.723809524,0 0,0.723809524 0,1.6 L0,14.4 C0,15.2761905 0.723809524,16 1.6,16 L15.5619048,16 C16.4380952,16 17.1619048,15.2761905 17.1619048,14.4 L17.1619048,1.6 C17.1428571,0.723809524 16.4190476,0 15.5428571,0 Z M8.8952381,12.1142857 C8.87619048,12.1333333 8.85714286,12.152381 8.81904762,12.1714286 C8.8,12.1904762 8.76190476,12.1904762 8.74285714,12.1904762 C8.05714286,12.5714286 7.27619048,12.8190476 6.41904762,12.8190476 C4.66666667,12.8190476 3.14285714,11.8666667 2.3047619,10.4571429 C2.28571429,10.4380952 2.26666667,10.4190476 2.24761905,10.4 C2.22857143,10.3619048 2.22857143,10.3238095 2.20952381,10.2857143 C1.82857143,9.6 1.6,8.83809524 1.6,8 C1.6,6.24761905 2.53333333,4.74285714 3.94285714,3.88571429 C3.96190476,3.86666667 3.98095238,3.84761905 4.01904762,3.82857143 C4.05714286,3.80952381 4.0952381,3.80952381 4.13333333,3.79047619 C4.81904762,3.40952381 5.58095238,3.18095238 6.41904762,3.18095238 C8.17142857,3.18095238 9.67619048,4.11428571 10.5333333,5.52380952 C10.552381,5.54285714 10.5714286,5.56190476 10.5904762,5.6 C10.6095238,5.63809524 10.6095238,5.67619048 10.6285714,5.71428571 C11.0095238,6.4 11.2380952,7.16190476 11.2380952,8 C11.2380952,9.75238095 10.2857143,11.2571429 8.8952381,12.1142857 Z M14.8761905,9.44761905 L14.8761905,10.7428571 C14.8761905,11.1047619 14.5904762,11.3904762 14.2285714,11.3904762 C13.8666667,11.3904762 13.5809524,11.1047619 13.5809524,10.7428571 L13.5809524,9.44761905 C13.0285714,9.2 12.6285714,8.64761905 12.6285714,8 C12.6285714,7.12380952 13.3333333,6.4 14.2285714,6.4 C15.1238095,6.4 15.8285714,7.1047619 15.8285714,8 C15.8285714,8.64761905 15.447619,9.2 14.8761905,9.44761905 Z" id="Shape"></path>
                </g>
            </g>
        </g>
    </g>
</svg>