<svg width="17" height="16" viewBox="0 0 17 16" fill="none" xmlns="http://www.w3.org/2000/svg">
<path d="M0.5 8C0.5 3.58172 4.08172 0 8.5 0C12.9183 0 16.5 3.58172 16.5 8C16.5 12.4183 12.9183 16 8.5 16C4.08172 16 0.5 12.4183 0.5 8Z" fill="#FF0059"/>
<path d="M8.45815 9.01074C8.00991 9.01074 7.75503 8.75586 7.73745 8.29004L7.6144 4.28223C7.59682 3.81641 7.95718 3.47363 8.44936 3.47363C8.94155 3.47363 9.31069 3.8252 9.29311 4.29102L9.17007 8.29004C9.15249 8.76465 8.89761 9.01074 8.45815 9.01074Z" fill="white"/>
<path d="M8.45801 12.0959C7.95703 12.0959 7.5 11.7179 7.5 11.1818C7.5 10.6545 7.94824 10.2677 8.45801 10.2677C8.96777 10.2677 9.41602 10.6457 9.41602 11.1818C9.41602 11.7179 8.95898 12.0959 8.45801 12.0959Z" fill="white"/>
</svg>
