<svg width="11" height="8" viewBox="0 0 11 8" fill="none" xmlns="http://www.w3.org/2000/svg">
  <path d="M8.55245 7.33115C8.55245 7.55515 8.36918 7.73842 8.14518 7.73842H2.85063C2.62663 7.73842 2.44336 7.55515 2.44336 7.33115V6.92387C2.44336 6.69987 2.62663 6.5166 2.85063 6.5166H8.14518C8.36918 6.5166 8.55245 6.69987 8.55245 6.92387V7.33115Z" fill="#1B71FF"/>
  <path d="M9.77441 4.07236C9.77441 4.29636 9.59113 4.47963 9.36713 4.47963H1.62895C1.40495 4.47963 1.22168 4.29636 1.22168 4.07236V3.66509C1.22168 3.44109 1.40495 3.25781 1.62895 3.25781H9.36713C9.59113 3.25781 9.77441 3.44109 9.77441 3.66509V4.07236Z" fill="#1B71FF"/>
  <path d="M10.9964 0.814545C10.9964 1.03855 10.8131 1.22182 10.5891 1.22182H0.407273C0.183273 1.22182 0 1.03855 0 0.814545V0.407273C0 0.183273 0.183273 0 0.407273 0H10.5891C10.8131 0 10.9964 0.183273 10.9964 0.407273V0.814545Z" fill="#1B71FF"/>
</svg>
