<svg width="16" height="16" viewBox="0 0 12 13" fill="none" xmlns="http://www.w3.org/2000/svg">
  <path d="M0 2.5C0 1.39543 0.895431 0.5 2 0.5H10C11.1046 0.5 12 1.39543 12 2.5V10.5C12 11.6046 11.1046 12.5 10 12.5H2C0.895431 12.5 0 11.6046 0 10.5V2.5Z" fill="#196DFD"/>
  <path d="M6.90383 3.01637C6.90383 3.68017 6.36572 4.21829 5.70192 4.21829C5.03812 4.21829 4.5 3.68017 4.5 3.01637C4.5 2.35257 5.03812 1.81445 5.70192 1.81445C6.36572 1.81445 6.90383 2.35257 6.90383 3.01637Z" fill="white"/>
  <path d="M6.75359 10.419V5.17987H4.5V5.95033H5.2512V10.419H4.5V11.1895H7.50479V10.419H6.75359Z" fill="white"/>
</svg>
