<svg width="12" height="20" viewBox="0 0 12 20" fill="none" xmlns="http://www.w3.org/2000/svg">
    <path d="M0 7C0 5.89543 0.895431 5 2 5H10C11.1046 5 12 5.89543 12 7V15C12 16.1046 11.1046 17 10 17H2C0.895431 17 0 16.1046 0 15V7Z" fill="white"/>
    <path d="M6.90383 7.51637C6.90383 8.18017 6.36572 8.71829 5.70192 8.71829C5.03812 8.71829 4.5 8.18017 4.5 7.51637C4.5 6.85257 5.03812 6.31445 5.70192 6.31445C6.36572 6.31445 6.90383 6.85257 6.90383 7.51637Z" fill="#196DFD"/>
    <path d="M6.75359 14.919V9.67987H4.5V10.4503H5.2512V14.919H4.5V15.6895H7.50479V14.919H6.75359Z" fill="#196DFD"/>
</svg>
