<?xml version="1.0" encoding="UTF-8"?>
<svg id="loupe" width="12px" height="12px" viewBox="0 0 12 12" version="1.1" xmlns="http://www.w3.org/2000/svg" xmlns:xlink="http://www.w3.org/1999/xlink">
    <g id="Réservation-Final" stroke="none" stroke-width="1" fill="none" fill-rule="evenodd">
        <g id="Page-Reservation-Master-Copy-4" transform="translate(-269.000000, -91.000000)">
            <g id="Card-Background" transform="translate(-14.000000, -49.000000)"></g>
            <rect id="Rectangle-Copy-12" x="254" y="77" width="1163" height="40" rx="2"></rect>
            <path d="M274.142588,91 C271.308524,91 269,93.3085052 269,96.1425899 C269,98.9766591 271.308521,101.285185 274.142588,101.285185 C275.375511,101.285185 276.507007,100.849739 277.394204,100.122745 L280.120848,102.849385 C280.321663,103.050196 280.648558,103.050214 280.849382,102.849385 C281.050207,102.648556 281.050207,102.327025 280.849382,102.126214 L278.122738,99.3995563 C278.848736,98.5126706 279.285178,97.3745562 279.285178,96.1425899 C279.285178,93.3085052 276.976654,91 274.142588,91 L274.142588,91 Z M274.142588,92.0285183 C276.420799,92.0285183 278.25666,93.8643641 278.25666,96.1425899 C278.25666,98.420802 276.420795,100.256665 274.142588,100.256665 C271.864383,100.256665 270.028518,98.420802 270.028518,96.1425899 C270.028518,93.8643641 271.86438,92.0285183 274.142588,92.0285183 Z" id="Shape-Copy" fill="#000000" fill-rule="nonzero"></path>
        </g>
    </g>
</svg>