<svg width="14" height="4" viewBox="0 0 14 4" fill="none" xmlns="http://www.w3.org/2000/svg">
<path d="M3.25339 2.00293C3.25339 2.69329 2.69374 3.25293 2.00339 3.25293C1.31303 3.25293 0.753387 2.69329 0.753387 2.00293C0.753387 1.31257 1.31303 0.75293 2.00339 0.75293C2.69374 0.75293 3.25339 1.31257 3.25339 2.00293Z" fill="#1D1C1D"/>
<path d="M8.25339 2.00293C8.25339 2.69329 7.69374 3.25293 7.00339 3.25293C6.31303 3.25293 5.75339 2.69329 5.75339 2.00293C5.75339 1.31257 6.31303 0.75293 7.00339 0.75293C7.69374 0.75293 8.25339 1.31257 8.25339 2.00293Z" fill="#1D1C1D"/>
<path d="M13.2534 2.00293C13.2534 2.69329 12.6937 3.25293 12.0034 3.25293C11.313 3.25293 10.7534 2.69329 10.7534 2.00293C10.7534 1.31257 11.313 0.75293 12.0034 0.75293C12.6937 0.75293 13.2534 1.31257 13.2534 2.00293Z" fill="#1D1C1D"/>
</svg>
