<svg width="246" height="240" viewBox="0 0 246 240" fill="none" xmlns="http://www.w3.org/2000/svg">
<path d="M125.5 210.973C177.139 210.973 219 169.111 219 117.473C219 65.834 177.139 23.9727 125.5 23.9727C73.8614 23.9727 32 65.834 32 117.473C32 169.111 73.8614 210.973 125.5 210.973Z" fill="url(#paint0_linear_5258_220472)"/>
<g filter="url(#filter0_d_5258_220472)">
<path d="M179.107 77.5791H71.8935C68.4509 77.5791 65.6602 80.3699 65.6602 83.8124V214.712C65.6602 218.155 68.4509 220.946 71.8935 220.946H179.107C182.549 220.946 185.34 218.155 185.34 214.712V83.8124C185.34 80.3699 182.549 77.5791 179.107 77.5791Z" fill="white"/>
</g>
<path d="M113.033 96.2793H80.6199C78.5543 96.2793 76.8799 97.9538 76.8799 100.019C76.8799 102.085 78.5543 103.759 80.6199 103.759H113.033C115.099 103.759 116.773 102.085 116.773 100.019C116.773 97.9538 115.099 96.2793 113.033 96.2793Z" fill="#B4DAFF"/>
<path d="M135.473 112.486H80.6199C78.5543 112.486 76.8799 114.161 76.8799 116.226C76.8799 118.292 78.5543 119.966 80.6199 119.966H135.473C137.539 119.966 139.213 118.292 139.213 116.226C139.213 114.161 137.539 112.486 135.473 112.486Z" fill="#DFEAFB"/>
<path d="M113.033 129.938H80.6199C78.5543 129.938 76.8799 131.613 76.8799 133.678C76.8799 135.744 78.5543 137.418 80.6199 137.418H113.033C115.099 137.418 116.773 135.744 116.773 133.678C116.773 131.613 115.099 129.938 113.033 129.938Z" fill="#B4DAFF"/>
<path d="M135.473 146.146H80.6199C78.5543 146.146 76.8799 147.82 76.8799 149.886C76.8799 151.951 78.5543 153.626 80.6199 153.626H135.473C137.539 153.626 139.213 151.951 139.213 149.886C139.213 147.82 137.539 146.146 135.473 146.146Z" fill="#DFEAFB"/>
<path d="M113.033 163.6H80.6199C78.5543 163.6 76.8799 165.274 76.8799 167.34C76.8799 169.405 78.5543 171.08 80.6199 171.08H113.033C115.099 171.08 116.773 169.405 116.773 167.34C116.773 165.274 115.099 163.6 113.033 163.6Z" fill="#B4DAFF"/>
<path d="M135.473 179.807H80.6199C78.5543 179.807 76.8799 181.481 76.8799 183.547C76.8799 185.612 78.5543 187.287 80.6199 187.287H135.473C137.539 187.287 139.213 185.612 139.213 183.547C139.213 181.481 137.539 179.807 135.473 179.807Z" fill="#DFEAFB"/>
<g filter="url(#filter1_d_5258_220472)">
<path d="M179.107 14H71.8935C68.4509 14 65.6602 16.7908 65.6602 20.2333V57.6333C65.6602 61.0759 68.4509 63.8667 71.8935 63.8667H179.107C182.549 63.8667 185.34 61.0759 185.34 57.6333V20.2333C185.34 16.7908 182.549 14 179.107 14Z" fill="#1485FD"/>
</g>
<path d="M113.033 27.7139H80.6199C78.5543 27.7139 76.8799 29.3883 76.8799 31.4539C76.8799 33.5194 78.5543 35.1939 80.6199 35.1939H113.033C115.099 35.1939 116.773 33.5194 116.773 31.4539C116.773 29.3883 115.099 27.7139 113.033 27.7139Z" fill="#B4DAFF"/>
<path d="M135.473 43.9209H80.6199C78.5543 43.9209 76.8799 45.5954 76.8799 47.6609C76.8799 49.7264 78.5543 51.4009 80.6199 51.4009H135.473C137.539 51.4009 139.213 49.7264 139.213 47.6609C139.213 45.5954 137.539 43.9209 135.473 43.9209Z" fill="white"/>
<defs>
<filter id="filter0_d_5258_220472" x="59.6602" y="68.5791" width="131.68" height="155.366" filterUnits="userSpaceOnUse" color-interpolation-filters="sRGB">
<feFlood flood-opacity="0" result="BackgroundImageFix"/>
<feColorMatrix in="SourceAlpha" type="matrix" values="0 0 0 0 0 0 0 0 0 0 0 0 0 0 0 0 0 0 127 0" result="hardAlpha"/>
<feOffset dy="-3"/>
<feGaussianBlur stdDeviation="3"/>
<feColorMatrix type="matrix" values="0 0 0 0 0.788235 0 0 0 0 0.803922 0 0 0 0 0.85098 0 0 0 0.349 0"/>
<feBlend mode="normal" in2="BackgroundImageFix" result="effect1_dropShadow_5258_220472"/>
<feBlend mode="normal" in="SourceGraphic" in2="effect1_dropShadow_5258_220472" result="shape"/>
</filter>
<filter id="filter1_d_5258_220472" x="59.6602" y="5" width="131.68" height="61.8662" filterUnits="userSpaceOnUse" color-interpolation-filters="sRGB">
<feFlood flood-opacity="0" result="BackgroundImageFix"/>
<feColorMatrix in="SourceAlpha" type="matrix" values="0 0 0 0 0 0 0 0 0 0 0 0 0 0 0 0 0 0 127 0" result="hardAlpha"/>
<feOffset dy="-3"/>
<feGaussianBlur stdDeviation="3"/>
<feColorMatrix type="matrix" values="0 0 0 0 0.788235 0 0 0 0 0.803922 0 0 0 0 0.85098 0 0 0 0.349 0"/>
<feBlend mode="normal" in2="BackgroundImageFix" result="effect1_dropShadow_5258_220472"/>
<feBlend mode="normal" in="SourceGraphic" in2="effect1_dropShadow_5258_220472" result="shape"/>
</filter>
<linearGradient id="paint0_linear_5258_220472" x1="125.5" y1="23.9727" x2="125.5" y2="210.973" gradientUnits="userSpaceOnUse">
<stop stop-color="#E3ECFA"/>
<stop offset="1" stop-color="#DAE7FF"/>
</linearGradient>
</defs>
</svg>
