<svg width="246" height="240" viewBox="0 0 246 240" fill="none" xmlns="http://www.w3.org/2000/svg">
<path d="M154.127 93.0351L171.143 94.841L236.084 101.766L236.233 101.782L236.447 101.818C240.946 102.535 244.005 107.424 243.418 112.945L231.439 225.27C231.201 227.79 230.146 230.162 228.435 232.026C226.811 233.744 224.758 234.689 222.66 234.689H222.28H222.127L221.913 234.667L156.976 227.726L139.96 225.913L154.127 93.0351ZM153.637 92.4277L139.346 226.404L156.914 228.275L221.851 235.199L222.244 235.242H222.653C227.288 235.242 231.381 230.983 231.981 225.329L243.96 113.01C244.58 107.19 241.277 102.035 236.529 101.278L236.136 101.236L171.202 94.2986L153.637 92.4277Z" fill="#53B8AA"/>
<path d="M184.768 35.2308C194.395 49.4115 193.255 70.257 202.083 93.3697C210.853 116.492 229.591 141.781 229.194 168.947C228.87 196.058 209.382 224.936 183.628 232.452C157.943 239.971 125.99 226.017 99.9051 210.365C73.7621 194.648 53.4752 177.22 34.9779 154.279C16.4676 131.371 -0.278969 103.006 0.919537 74.6418C2.15702 46.3357 21.4208 17.9743 46.6544 6.58358C71.888 -4.80709 103.095 0.714479 128.952 7.21045C154.754 13.6415 175.145 21.0501 184.768 35.2308Z" fill="#53B8AA" fill-opacity="0.1"/>
<path d="M98.3429 219.265C96.8036 219.261 95.318 218.699 94.1608 217.684C93.0036 216.669 92.2532 215.269 92.0483 213.743L66.8407 24.0351C66.6174 22.3636 67.0671 20.6718 68.091 19.3318C69.1149 17.9918 70.6291 17.1133 72.3006 16.8896L156.076 5.78471C156.353 5.74854 156.631 5.7301 156.911 5.72949C158.45 5.73375 159.936 6.2953 161.094 7.31032C162.252 8.32534 163.003 9.72519 163.208 11.2511L188.413 200.953C188.634 202.624 188.184 204.314 187.161 205.654C186.139 206.993 184.626 207.872 182.956 208.098L99.1776 219.21C98.9009 219.246 98.622 219.264 98.3429 219.265Z" fill="white"/>
<path d="M175.392 209.362L182.992 208.352C184.731 208.115 186.307 207.199 187.373 205.805C188.44 204.411 188.912 202.651 188.686 200.91L163.481 11.2054C163.242 9.46771 162.326 7.89502 160.932 6.83026C159.538 5.76549 157.78 5.29503 156.04 5.52144L148.44 6.53156L175.392 209.362Z" fill="#E8F0FF"/>
<path d="M156.911 6.00577C158.382 6.00969 159.803 6.54595 160.909 7.5155C162.016 8.48504 162.735 9.82238 162.932 11.2805L188.14 200.985C188.346 202.582 187.913 204.194 186.934 205.472C185.956 206.75 184.512 207.589 182.917 207.806L99.1421 218.937C98.8772 218.972 98.6103 218.99 98.3431 218.989C96.8722 218.985 95.4522 218.449 94.3454 217.481C93.2387 216.512 92.5197 215.175 92.3213 213.718L67.117 24.0126C66.9084 22.4166 67.3404 20.8029 68.3186 19.5246C69.2968 18.2463 70.7414 17.4076 72.3365 17.1918L156.112 6.06099C156.377 6.02494 156.643 6.00649 156.911 6.00577ZM156.911 5.45361C156.62 5.45389 156.329 5.47342 156.04 5.51208L72.2651 16.6429C70.525 16.8789 68.949 17.794 67.8816 19.1883C66.8141 20.5826 66.3419 22.3427 66.5681 24.084L91.7757 213.789C91.9914 215.379 92.7752 216.838 93.9823 217.895C95.1894 218.952 96.7384 219.537 98.3431 219.541C98.6342 219.541 98.925 219.521 99.2136 219.483L182.992 208.352C184.732 208.115 186.307 207.2 187.373 205.805C188.44 204.411 188.912 202.652 188.686 200.911L163.481 11.2058C163.264 9.61565 162.48 8.1576 161.272 7.10048C160.065 6.04336 158.516 5.45846 156.911 5.45361Z" fill="#1F549C"/>
<path d="M157.5 75L74.8081 86.0946" stroke="#1F549C" stroke-width="2" stroke-miterlimit="10"/>
<path d="M112.914 68.8736C125.47 68.8736 135.65 58.6944 135.65 46.1377C135.65 33.5811 125.47 23.4019 112.914 23.4019C100.357 23.4019 90.1777 33.5811 90.1777 46.1377C90.1777 58.6944 100.357 68.8736 112.914 68.8736Z" fill="#1F549C" fill-opacity="0.05"/>
<path d="M124.92 53.2069L106.437 39.0605L104.394 41.73L122.876 55.8764L124.92 53.2069Z" fill="#E8F0FF"/>
<path d="M126.233 56.3333L124.944 53.2314L122.901 55.898L126.233 56.3333Z" fill="#E8F0FF"/>
<path d="M119.052 48.7199L119.27 35.4226L116.938 33.6362L113.274 44.2994L119.052 48.7199Z" fill="#E8F0FF"/>
<path d="M107.044 41.6458L107.135 36.2315L106.184 35.5039L104.693 39.8465L107.044 41.6458Z" fill="#E8F0FF"/>
<path d="M117.009 51.3896L104.229 55.0728L101.896 53.2864L111.231 46.9658L117.009 51.3896Z" fill="#E8F0FF"/>
<path d="M107.044 41.6456L101.841 43.1461L100.893 42.4186L104.693 39.8462L107.044 41.6456Z" fill="#E8F0FF"/>
<path d="M158.648 188.83L145.297 87.1592L138.992 87.9872L152.342 189.658L158.648 188.83Z" fill="#E8F0FF"/>
<path d="M139.847 153.376L131.341 89.3721L125.027 90.2111L133.533 154.215L139.847 153.376Z" fill="#E8F0FF"/>
<path d="M110.01 87.5103L126.298 210.089" stroke="#1F549C" stroke-width="2" stroke-miterlimit="10" stroke-linecap="round"/>
<path d="M100.087 95.4555L99.835 93.5591L88.7915 95.0267L89.0435 96.9231L100.087 95.4555Z" fill="#132079"/>
<path d="M102.733 115.375L102.481 113.479L91.4379 114.947L91.69 116.843L102.733 115.375Z" fill="#132079"/>
<path d="M104.211 126.496L103.959 124.6L92.9155 126.068L93.1675 127.964L104.211 126.496Z" fill="#132079"/>
<path d="M106.42 143.136L106.168 141.24L95.1245 142.707L95.3766 144.604L106.42 143.136Z" fill="#132079"/>
<path d="M101.342 104.895L100.604 99.3408L89.5601 100.808L90.2982 106.362L101.342 104.895Z" fill="#132079"/>
<path d="M103.564 121.635L102.826 116.081L91.7822 117.548L92.5203 123.102L103.564 121.635Z" fill="#132079"/>
<path d="M105.979 139.813L105.241 134.259L94.1977 135.726L94.9358 141.28L105.979 139.813Z" fill="#132079"/>
<path d="M107.502 151.273L107.133 148.498L96.0898 149.965L96.4586 152.741L107.502 151.273Z" fill="#132079"/>
<path d="M100.422 97.9782L100.325 97.2441L89.2812 98.7118L89.3787 99.4459L100.422 97.9782Z" fill="#132079"/>
<path d="M108.787 160.948L108.535 159.051L97.4917 160.519L97.7437 162.415L108.787 160.948Z" fill="#132079"/>
<path d="M109.957 169.744L109.219 164.19L98.1753 165.658L98.9134 171.212L109.957 169.744Z" fill="#132079"/>
<path d="M109.041 162.827L108.943 162.093L97.8999 163.561L97.9974 164.295L109.041 162.827Z" fill="#132079"/>
<path d="M106.621 144.638L106.524 143.904L95.4804 145.371L95.578 146.105L106.621 144.638Z" fill="#132079"/>
<path d="M107.042 147.36L106.946 146.627L95.9167 148.075L96.0129 148.808L107.042 147.36Z" fill="#132079"/>
<path d="M47.9927 239.724C46.3199 239.721 44.6944 239.169 43.3651 238.153C42.0357 237.138 41.076 235.715 40.6327 234.102L12.096 129.841C11.5626 127.889 11.8266 125.805 12.8297 124.047C13.8329 122.289 15.4932 121.002 17.4454 120.468L30.1125 117.002C31.3533 121.208 34.1942 124.76 38.0251 126.895C41.856 129.029 46.3712 129.576 50.6009 128.418C54.8307 127.26 58.4376 124.49 60.6469 120.701C62.8563 116.913 63.4918 112.41 62.417 108.158L75.0841 104.692C76.0513 104.426 77.0614 104.354 78.0566 104.479C79.0519 104.604 80.0127 104.924 80.884 105.421C81.7553 105.918 82.5201 106.582 83.1344 107.375C83.7488 108.168 84.2007 109.074 84.4643 110.042L113.001 214.302C113.534 216.255 113.269 218.34 112.267 220.099C111.264 221.857 109.604 223.146 107.652 223.682L94.9845 227.148C93.7627 222.919 90.9256 219.342 87.0867 217.188C83.2478 215.035 78.7156 214.48 74.4703 215.642C70.225 216.804 66.6077 219.59 64.4007 223.399C62.1938 227.207 61.5745 231.731 62.6768 235.992L50.0097 239.458C49.3523 239.636 48.6739 239.726 47.9927 239.724Z" fill="white"/>
<path d="M77.0978 104.696C78.7089 104.699 80.2745 105.23 81.5555 106.207C82.8364 107.184 83.7622 108.554 84.1914 110.107L112.728 214.367C112.983 215.299 113.053 216.272 112.932 217.231C112.811 218.19 112.502 219.115 112.023 219.954C111.545 220.794 110.905 221.531 110.142 222.123C109.378 222.715 108.506 223.151 107.574 223.406L95.1696 226.807C93.8766 222.568 90.9821 219.001 87.101 216.863C83.2198 214.724 78.6579 214.183 74.3843 215.355C70.1107 216.526 66.462 219.317 64.2135 223.135C61.9649 226.954 61.2937 231.498 62.3422 235.804L49.9414 239.198C49.0092 239.454 48.0357 239.524 47.0765 239.403C46.1173 239.283 45.1912 238.974 44.3514 238.496C43.5115 238.017 42.7743 237.377 42.1819 236.613C41.5895 235.849 41.1536 234.976 40.899 234.043L12.3622 129.783C11.8495 127.901 12.1042 125.892 13.0705 124.198C14.0369 122.503 15.6359 121.261 17.5168 120.744L29.9143 117.35C31.178 121.622 34.066 125.229 37.9586 127.396C41.8512 129.564 46.4383 130.119 50.7356 128.943C55.0329 127.767 58.698 124.953 60.9444 121.105C63.1908 117.258 63.8395 112.683 62.7515 108.363L75.149 104.969C75.7839 104.794 76.4394 104.706 77.0978 104.705V104.696ZM77.0978 104.153C76.39 104.154 75.6854 104.249 75.0028 104.436L62.0726 107.963C62.0889 108.018 62.1084 108.074 62.1213 108.126C62.6927 110.212 62.8474 112.391 62.5768 114.537C62.3061 116.684 61.6154 118.756 60.5439 120.635C59.4725 122.515 58.0413 124.165 56.3322 125.491C54.6231 126.817 52.6695 127.794 50.5829 128.365C48.4963 128.937 46.3176 129.091 44.1712 128.821C42.0248 128.55 39.9527 127.859 38.0733 126.788C36.1939 125.717 34.5439 124.285 33.2175 122.576C31.8912 120.867 30.9144 118.914 30.3431 116.827C30.3431 116.772 30.3171 116.716 30.3009 116.661L17.3706 120.202C15.3474 120.756 13.6272 122.091 12.5881 123.913C11.5491 125.736 11.2762 127.896 11.8296 129.92L40.3664 234.18C40.6397 235.182 41.1081 236.121 41.7446 236.942C42.3812 237.763 43.1735 238.451 44.0761 238.966C44.9788 239.48 45.9741 239.812 47.005 239.942C48.036 240.071 49.0824 239.996 50.0843 239.721L63.0113 236.184C61.8579 231.969 62.4259 227.469 64.5903 223.674C66.7548 219.878 70.3385 217.097 74.553 215.944C78.7675 214.791 83.2676 215.359 87.0633 217.523C90.859 219.688 93.6394 223.271 94.7928 227.486L107.72 223.945C109.743 223.391 111.463 222.056 112.502 220.234C113.541 218.411 113.814 216.251 113.261 214.227L84.7241 109.967C84.266 108.295 83.2717 106.82 81.894 105.768C80.5163 104.716 78.8313 104.145 77.0978 104.144V104.153Z" fill="#53B8AA"/>
<path d="M43.1587 175.784L41.9683 176.11L50.6446 207.804L51.8351 207.478L43.1587 175.784Z" fill="#132079"/>
<path d="M55.2617 172.472L54.0713 172.798L62.7477 204.492L63.9381 204.166L55.2617 172.472Z" fill="#132079"/>
<path d="M59.8499 170.437L58.665 170.758L67.2086 202.303L68.3935 201.982L59.8499 170.437Z" fill="#132079"/>
<path d="M70.8745 168.196L69.6841 168.521L78.3604 200.215L79.5509 199.889L70.8745 168.196Z" fill="#132079"/>
<path d="M48.6825 174.273L45.1958 175.227L53.8722 206.921L57.3589 205.966L48.6825 174.273Z" fill="#132079"/>
<path d="M59.1937 171.396L55.707 172.35L64.3834 204.044L67.8701 203.089L59.1937 171.396Z" fill="#132079"/>
<path d="M69.1894 168.661L65.7026 169.615L74.379 201.309L77.8657 200.354L69.1894 168.661Z" fill="#132079"/>
<path d="M74.9708 167.077L73.229 167.554L81.9054 199.248L83.6471 198.771L74.9708 167.077Z" fill="#132079"/>
<path d="M43.4169 174.863L42.9585 174.987L51.5021 206.532L51.9604 206.408L43.4169 174.863Z" fill="#132079"/>
<path d="M80.0003 165.008L78.8154 165.329L87.359 196.875L88.5439 196.554L80.0003 165.008Z" fill="#132079"/>
<path d="M86.5731 163.899L83.0864 164.854L91.7628 196.547L95.2495 195.593L86.5731 163.899Z" fill="#132079"/>
<path d="M82.2305 165.088L81.77 165.214L90.4464 196.908L90.9069 196.781L82.2305 165.088Z" fill="#132079"/>
<path d="M71.8189 167.941L71.3584 168.067L80.0348 199.761L80.4953 199.634L71.8189 167.941Z" fill="#132079"/>
<path d="M71.7347 167.237L71.2764 167.361L79.8199 198.907L80.2783 198.783L71.7347 167.237Z" fill="#132079"/>
<path d="M54.8454 144.736L26.1152 152.601L27.803 158.766L56.5331 150.901L54.8454 144.736Z" fill="#53B8AA"/>
<path d="M42.7807 157.065L28.4141 160.998L29.2579 164.08L43.6246 160.147L42.7807 157.065Z" fill="#53B8AA"/>
<path d="M77.4942 152.129C82.0021 152.129 85.6564 148.475 85.6564 143.967C85.6564 139.459 82.0021 135.805 77.4942 135.805C72.9864 135.805 69.332 139.459 69.332 143.967C69.332 148.475 72.9864 152.129 77.4942 152.129Z" fill="#E8F0FF"/>
<path d="M245.146 88.3592L180.657 77.6484L167.267 158.27L231.756 168.981L245.146 88.3592Z" fill="#E8F0FF"/>
<path d="M216.758 234.336C216.625 234.336 216.495 234.336 216.362 234.336H216.134L133.752 225.566L147.992 92.1001L230.49 100.899L230.607 100.922C235.249 101.662 238.402 106.684 237.808 112.355L225.829 224.67C225.251 230.091 221.282 234.336 216.777 234.336H216.758Z" fill="white"/>
<path d="M148.225 92.4052L165.242 94.2176L230.166 101.146H230.315L230.533 101.181C235.028 101.899 238.091 106.787 237.503 112.312L225.524 224.627C225.285 227.146 224.23 229.518 222.52 231.383C220.896 233.101 218.843 234.047 216.745 234.047C216.618 234.047 216.488 234.047 216.365 234.047H216.212L215.998 234.024L151.071 227.096L134.054 225.283L148.225 92.4052ZM147.735 91.7979L133.444 225.774L151.009 227.648L215.949 234.573L216.342 234.615H216.755C221.39 234.615 225.479 230.357 226.083 224.702L238.065 112.38C238.685 106.557 235.382 101.405 230.63 100.645L230.234 100.603L165.3 93.6687L147.735 91.7979Z" fill="#53B8AA"/>
<path d="M189.027 136.422L157.469 179.717L210.746 185.398L189.027 136.422Z" fill="#E8F3F4"/>
<path d="M216.519 123.526L165.274 118.059L164.306 127.134L215.551 132.601L216.519 123.526Z" fill="#53B8AA"/>
<path d="M185.909 191.839C199.271 191.839 210.103 181.007 210.103 167.645C210.103 154.283 199.271 143.451 185.909 143.451C172.546 143.451 161.714 154.283 161.714 167.645C161.714 181.007 172.546 191.839 185.909 191.839Z" fill="#E8F0FF"/>
</svg>
