<svg width="187" height="200" viewBox="0 0 187 200" fill="none" xmlns="http://www.w3.org/2000/svg">
<path d="M93.5 189.763C145.139 189.763 187 147.283 187 94.8814C187 42.4799 145.139 0 93.5 0C41.8614 0 0 42.4799 0 94.8814C0 147.283 41.8614 189.763 93.5 189.763Z" fill="url(#paint0_linear_5388_219878)"/>
<path d="M153.8 199.186H32V65.9733C37.7408 65.9667 43.2447 63.6496 47.3041 59.5302C51.3635 55.4109 53.6469 49.8257 53.6533 44H132.147C132.141 46.8859 132.699 49.7443 133.788 52.41C134.878 55.0756 136.478 57.4955 138.495 59.5296C140.5 61.5773 142.884 63.2013 145.511 64.3074C148.139 65.4135 150.956 65.9797 153.8 65.9733V199.186Z" fill="white"/>
<path d="M93.5 136.08C111.438 136.08 125.98 121.323 125.98 103.12C125.98 84.9168 111.438 70.1602 93.5 70.1602C75.5618 70.1602 61.02 84.9168 61.02 103.12C61.02 121.323 75.5618 136.08 93.5 136.08Z" fill="#4285F4"/>
<path d="M104.983 118.657L93.5 107.004L82.0166 118.657L78.1888 114.772L89.6722 103.119L78.1888 91.4662L82.0166 87.5818L93.5 99.2349L104.983 87.5818L108.811 91.4662L97.3278 103.119L108.811 114.772L104.983 118.657Z" fill="white"/>
<path d="M111.093 144.319H75.9067C73.6644 144.319 71.8467 146.164 71.8467 148.439C71.8467 150.715 73.6644 152.559 75.9067 152.559H111.093C113.336 152.559 115.153 150.715 115.153 148.439C115.153 146.164 113.336 144.319 111.093 144.319Z" fill="#DFEAFB"/>
<path d="M123.273 160.8H63.7265C61.4842 160.8 59.6665 162.644 59.6665 164.92C59.6665 167.195 61.4842 169.04 63.7265 169.04H123.273C125.515 169.04 127.333 167.195 127.333 164.92C127.333 162.644 125.515 160.8 123.273 160.8Z" fill="#DFEAFB"/>
<defs>
<linearGradient id="paint0_linear_5388_219878" x1="93.5" y1="0" x2="93.5" y2="189.763" gradientUnits="userSpaceOnUse">
<stop stop-color="#E3ECFA"/>
<stop offset="1" stop-color="#DAE7FF"/>
</linearGradient>
</defs>
</svg>
