<svg width="202" height="199" viewBox="0 0 202 199" fill="none" xmlns="http://www.w3.org/2000/svg">
<g clip-path="url(#clip0_865_79051)">
<path d="M105.135 199C158.567 199 201.883 155.566 201.883 101.987C201.883 48.4086 158.567 4.97461 105.135 4.97461C51.7023 4.97461 8.38672 48.4086 8.38672 101.987C8.38672 155.566 51.7023 199 105.135 199Z" fill="url(#paint0_linear_865_79051)"/>
<g filter="url(#filter0_d_865_79051)">
<path d="M160.603 60.5947H49.6657C46.1035 60.5947 43.2158 63.4903 43.2158 67.0622V202.88C43.2158 206.452 46.1035 209.347 49.6657 209.347H160.603C164.166 209.347 167.053 206.452 167.053 202.88V67.0622C167.053 63.4903 164.166 60.5947 160.603 60.5947Z" fill="white"/>
</g>
<path d="M93.525 73.5303H59.9856C57.8483 73.5303 56.1157 75.2676 56.1157 77.4108C56.1157 79.5539 57.8483 81.2913 59.9856 81.2913H93.525C95.6623 81.2913 97.3949 79.5539 97.3949 77.4108C97.3949 75.2676 95.6623 73.5303 93.525 73.5303Z" fill="#E1EBFA"/>
<path d="M93.525 127.857H59.9856C57.8483 127.857 56.1157 129.595 56.1157 131.738C56.1157 133.881 57.8483 135.618 59.9856 135.618H93.525C95.6623 135.618 97.3949 133.881 97.3949 131.738C97.3949 129.595 95.6623 127.857 93.525 127.857Z" fill="#E1EBFA"/>
<path d="M147.704 92.9326H62.5657C59.7159 92.9326 57.4058 95.2491 57.4058 98.1066V111.042C57.4058 113.899 59.7159 116.216 62.5657 116.216H147.704C150.554 116.216 152.864 113.899 152.864 111.042V98.1066C152.864 95.2491 150.554 92.9326 147.704 92.9326Z" stroke="#1485FD" stroke-width="2"/>
<path d="M147.704 145.966H62.5656C59.0034 145.966 56.1157 148.861 56.1157 152.433V162.781C56.1157 166.353 59.0034 169.249 62.5656 169.249H147.704C151.266 169.249 154.154 166.353 154.154 162.781V152.433C154.154 148.861 151.266 145.966 147.704 145.966Z" fill="#DFEAFB"/>
<path d="M76.7556 46.3666C79.6053 46.3666 81.9155 44.0501 81.9155 41.1926C81.9155 38.335 79.6053 36.0186 76.7556 36.0186C73.9059 36.0186 71.5957 38.335 71.5957 41.1926C71.5957 44.0501 73.9059 46.3666 76.7556 46.3666Z" fill="white"/>
<path d="M105.135 46.3666C107.984 46.3666 110.294 44.0501 110.294 41.1926C110.294 38.335 107.984 36.0186 105.135 36.0186C102.285 36.0186 99.9746 38.335 99.9746 41.1926C99.9746 44.0501 102.285 46.3666 105.135 46.3666Z" fill="#1485FD"/>
<path d="M133.514 46.3666C136.364 46.3666 138.674 44.0501 138.674 41.1926C138.674 38.335 136.364 36.0186 133.514 36.0186C130.665 36.0186 128.354 38.335 128.354 41.1926C128.354 44.0501 130.665 46.3666 133.514 46.3666Z" fill="white"/>
<path d="M119.324 118.802C122.887 118.802 125.774 115.907 125.774 112.335C125.774 108.763 122.887 105.867 119.324 105.867C115.762 105.867 112.875 108.763 112.875 112.335C112.875 115.907 115.762 118.802 119.324 118.802Z" fill="#DFEAFB"/>
<path d="M124.364 139.978C123.332 139.978 122.369 139.978 121.492 139.922C120.411 139.849 119.372 139.478 118.488 138.851C117.604 138.223 116.91 137.364 116.481 136.366L111.039 125.581C110.64 125.115 110.441 124.51 110.485 123.897C110.528 123.284 110.812 122.714 111.274 122.31C111.652 122.005 112.124 121.841 112.609 121.845C112.966 121.856 113.317 121.944 113.637 122.103C113.957 122.263 114.239 122.49 114.463 122.769L116.934 126.151L116.972 126.195V113.344C116.972 112.707 117.224 112.095 117.674 111.645C118.123 111.194 118.733 110.94 119.369 110.94C120.005 110.94 120.615 111.194 121.064 111.645C121.514 112.095 121.766 112.707 121.766 113.344V121.752C121.739 121.443 121.775 121.131 121.874 120.837C121.973 120.542 122.132 120.272 122.341 120.042C122.55 119.813 122.805 119.63 123.088 119.505C123.372 119.379 123.678 119.315 123.988 119.315C124.298 119.315 124.604 119.379 124.887 119.505C125.171 119.63 125.425 119.813 125.634 120.042C125.843 120.272 126.002 120.542 126.101 120.837C126.2 121.131 126.237 121.443 126.209 121.752V123.505C126.181 123.195 126.218 122.884 126.317 122.589C126.416 122.295 126.575 122.024 126.784 121.795C126.993 121.566 127.247 121.383 127.531 121.257C127.814 121.132 128.121 121.067 128.43 121.067C128.74 121.067 129.047 121.132 129.33 121.257C129.614 121.383 129.868 121.566 130.077 121.795C130.286 122.024 130.445 122.295 130.544 122.589C130.643 122.884 130.68 123.195 130.652 123.505V124.855C130.624 124.546 130.661 124.234 130.76 123.94C130.859 123.645 131.018 123.375 131.227 123.146C131.436 122.916 131.69 122.733 131.973 122.608C132.257 122.482 132.563 122.418 132.873 122.418C133.183 122.418 133.489 122.482 133.773 122.608C134.056 122.733 134.311 122.916 134.52 123.146C134.729 123.375 134.888 123.645 134.987 123.94C135.086 124.234 135.122 124.546 135.094 124.855V133.052C135.051 135.573 133.914 139.824 129.916 139.824C129.626 139.837 127.168 139.979 124.37 139.979L124.364 139.978Z" fill="#1485FD" stroke="white"/>
</g>
<defs>
<filter id="filter0_d_865_79051" x="37.2158" y="51.5947" width="135.837" height="160.753" filterUnits="userSpaceOnUse" color-interpolation-filters="sRGB">
<feFlood flood-opacity="0" result="BackgroundImageFix"/>
<feColorMatrix in="SourceAlpha" type="matrix" values="0 0 0 0 0 0 0 0 0 0 0 0 0 0 0 0 0 0 127 0" result="hardAlpha"/>
<feOffset dy="-3"/>
<feGaussianBlur stdDeviation="3"/>
<feColorMatrix type="matrix" values="0 0 0 0 0.788235 0 0 0 0 0.803922 0 0 0 0 0.85098 0 0 0 0.349 0"/>
<feBlend mode="normal" in2="BackgroundImageFix" result="effect1_dropShadow_865_79051"/>
<feBlend mode="normal" in="SourceGraphic" in2="effect1_dropShadow_865_79051" result="shape"/>
</filter>
<linearGradient id="paint0_linear_865_79051" x1="105.135" y1="4.97461" x2="105.135" y2="199" gradientUnits="userSpaceOnUse">
<stop stop-color="#E3ECFA"/>
<stop offset="1" stop-color="#DAE7FF"/>
</linearGradient>
<clipPath id="clip0_865_79051">
<rect width="202" height="199" fill="white"/>
</clipPath>
</defs>
</svg>
