<svg width="186" height="150" viewBox="0 0 186 150" fill="none" xmlns="http://www.w3.org/2000/svg">
<path d="M75 150C116.421 150 150 116.421 150 75C150 33.5786 116.421 0 75 0C33.5786 0 0 33.5786 0 75C0 116.421 33.5786 150 75 150Z" fill="url(#paint0_linear_5689_227784)"/>
<g filter="url(#filter0_d_5689_227784)">
<path d="M172.031 43H34.9688C30.5677 43 27 44.8882 27 47.2174V135.783C27 138.112 30.5677 140 34.9688 140H172.031C176.432 140 180 138.112 180 135.783V47.2174C180 44.8882 176.432 43 172.031 43Z" fill="white"/>
</g>
<path d="M74 58H48C46.3431 58 45 59.3431 45 61C45 62.6569 46.3431 64 48 64H74C75.6569 64 77 62.6569 77 61C77 59.3431 75.6569 58 74 58Z" fill="#B4DAFF"/>
<path d="M75.08 58H46.92C45.8596 58 45 59.3431 45 61C45 62.6569 45.8596 64 46.92 64H75.08C76.1404 64 77 62.6569 77 61C77 59.3431 76.1404 58 75.08 58Z" fill="#DFEAFB"/>
<path d="M74 85H48C46.3431 85 45 86.3431 45 88C45 89.6569 46.3431 91 48 91H74C75.6569 91 77 89.6569 77 88C77 86.3431 75.6569 85 74 85Z" fill="#B4DAFF"/>
<path d="M75.08 98H46.92C45.8596 98 45 99.3431 45 101C45 102.657 45.8596 104 46.92 104H75.08C76.1404 104 77 102.657 77 101C77 99.3431 76.1404 98 75.08 98Z" fill="#DFEAFB"/>
<path d="M74 112H48C46.3431 112 45 113.343 45 115C45 116.657 46.3431 118 48 118H74C75.6569 118 77 116.657 77 115C77 113.343 75.6569 112 74 112Z" fill="#B4DAFF"/>
<path d="M75.08 125H46.92C45.8596 125 45 126.343 45 128C45 129.657 45.8596 131 46.92 131H75.08C76.1404 131 77 129.657 77 128C77 126.343 76.1404 125 75.08 125Z" fill="#DFEAFB"/>
<path d="M116 85H90C88.3431 85 87 86.3431 87 88C87 89.6569 88.3431 91 90 91H116C117.657 91 119 89.6569 119 88C119 86.3431 117.657 85 116 85Z" fill="#B4DAFF"/>
<path d="M117.08 98H88.92C87.8596 98 87 99.3431 87 101C87 102.657 87.8596 104 88.92 104H117.08C118.14 104 119 102.657 119 101C119 99.3431 118.14 98 117.08 98Z" fill="#DFEAFB"/>
<path d="M116 112H90C88.3431 112 87 113.343 87 115C87 116.657 88.3431 118 90 118H116C117.657 118 119 116.657 119 115C119 113.343 117.657 112 116 112Z" fill="#B4DAFF"/>
<path d="M117.08 125H88.92C87.8596 125 87 126.343 87 128C87 129.657 87.8596 131 88.92 131H117.08C118.14 131 119 129.657 119 128C119 126.343 118.14 125 117.08 125Z" fill="#DFEAFB"/>
<path d="M158 58H132C130.343 58 129 59.3431 129 61C129 62.6569 130.343 64 132 64H158C159.657 64 161 62.6569 161 61C161 59.3431 159.657 58 158 58Z" fill="#B4DAFF"/>
<path d="M159.08 98H130.92C129.86 98 129 99.3431 129 101C129 102.657 129.86 104 130.92 104H159.08C160.14 104 161 102.657 161 101C161 99.3431 160.14 98 159.08 98Z" fill="#DFEAFB"/>
<path d="M158 112H132C130.343 112 129 113.343 129 115C129 116.657 130.343 118 132 118H158C159.657 118 161 116.657 161 115C161 113.343 159.657 112 158 112Z" fill="#B4DAFF"/>
<path d="M159.08 125H130.92C129.86 125 129 126.343 129 128C129 129.657 129.86 131 130.92 131H159.08C160.14 131 161 129.657 161 128C161 126.343 160.14 125 159.08 125Z" fill="#DFEAFB"/>
<path d="M162.368 69.5254H127.632C126.469 69.5254 125.526 70.4679 125.526 71.6307V76.8938C125.526 78.0565 126.469 78.9991 127.632 78.9991H162.368C163.531 78.9991 164.474 78.0565 164.474 76.8938V71.6307C164.474 70.4679 163.531 69.5254 162.368 69.5254Z" stroke="#1485FD" stroke-width="2"/>
<path d="M141.857 81C144.619 81 146.857 78.7614 146.857 76C146.857 73.2386 144.619 71 141.857 71C139.096 71 136.857 73.2386 136.857 76C136.857 78.7614 139.096 81 141.857 81Z" fill="#DFEAFB"/>
<path d="M145.765 97.3704C144.965 97.3704 144.218 97.3704 143.538 97.3274C142.7 97.2707 141.894 96.9841 141.209 96.4991C140.524 96.0141 139.985 95.3495 139.654 94.5784L135.435 86.2404C135.125 85.8801 134.971 85.4121 135.005 84.9384C135.039 84.4647 135.259 84.0236 135.617 83.7114C135.91 83.4757 136.275 83.3489 136.652 83.3524C136.928 83.3604 137.2 83.4284 137.448 83.5517C137.696 83.675 137.915 83.8506 138.089 84.0664L140.005 86.6814L140.034 86.7154V76.7804C140.034 76.2875 140.229 75.8148 140.578 75.4662C140.926 75.1177 141.399 74.9219 141.892 74.9219C142.385 74.9219 142.858 75.1177 143.206 75.4662C143.555 75.8148 143.751 76.2875 143.751 76.7804V83.2804C143.729 83.0412 143.757 82.8001 143.834 82.5726C143.911 82.345 144.034 82.1359 144.196 81.9586C144.358 81.7813 144.555 81.6397 144.775 81.5429C144.995 81.446 145.232 81.396 145.473 81.396C145.713 81.396 145.95 81.446 146.17 81.5429C146.39 81.6397 146.587 81.7813 146.749 81.9586C146.911 82.1359 147.034 82.345 147.111 82.5726C147.188 82.8001 147.216 83.0412 147.195 83.2804V84.6354C147.173 84.3962 147.201 84.1551 147.278 83.9276C147.355 83.7 147.478 83.4909 147.64 83.3136C147.802 83.1363 147.999 82.9947 148.219 82.8979C148.439 82.801 148.676 82.751 148.917 82.751C149.157 82.751 149.394 82.801 149.614 82.8979C149.834 82.9947 150.031 83.1363 150.193 83.3136C150.355 83.4909 150.478 83.7 150.555 83.9276C150.632 84.1551 150.66 84.3962 150.639 84.6354V85.6794C150.617 85.4402 150.645 85.1991 150.722 84.9716C150.799 84.744 150.922 84.5349 151.084 84.3576C151.246 84.1803 151.443 84.0387 151.663 83.9419C151.883 83.845 152.12 83.795 152.361 83.795C152.601 83.795 152.838 83.845 153.058 83.9419C153.278 84.0387 153.475 84.1803 153.637 84.3576C153.799 84.5349 153.922 84.744 153.999 84.9716C154.076 85.1991 154.104 85.4402 154.083 85.6794V92.0164C154.049 93.9654 153.168 97.2514 150.069 97.2514C149.844 97.2614 147.938 97.3714 145.769 97.3714L145.765 97.3704Z" fill="#1485FD" stroke="white"/>
<defs>
<filter id="filter0_d_5689_227784" x="21" y="40" width="165" height="109" filterUnits="userSpaceOnUse" color-interpolation-filters="sRGB">
<feFlood flood-opacity="0" result="BackgroundImageFix"/>
<feColorMatrix in="SourceAlpha" type="matrix" values="0 0 0 0 0 0 0 0 0 0 0 0 0 0 0 0 0 0 127 0" result="hardAlpha"/>
<feOffset dy="3"/>
<feGaussianBlur stdDeviation="3"/>
<feColorMatrix type="matrix" values="0 0 0 0 0.788235 0 0 0 0 0.803922 0 0 0 0 0.85098 0 0 0 0.349 0"/>
<feBlend mode="normal" in2="BackgroundImageFix" result="effect1_dropShadow_5689_227784"/>
<feBlend mode="normal" in="SourceGraphic" in2="effect1_dropShadow_5689_227784" result="shape"/>
</filter>
<linearGradient id="paint0_linear_5689_227784" x1="75" y1="0" x2="75" y2="150" gradientUnits="userSpaceOnUse">
<stop stop-color="#E3ECFA"/>
<stop offset="1" stop-color="#DAE7FF"/>
</linearGradient>
</defs>
</svg>
