<svg width="186" height="150" viewBox="0 0 186 150" fill="none" xmlns="http://www.w3.org/2000/svg">
  <path d="M75.75 150C117.171 150 150.75 116.421 150.75 75C150.75 33.5786 117.171 0 75.75 0C34.3286 0 0.75 33.5786 0.75 75C0.75 116.421 34.3286 150 75.75 150Z" fill="url(#paint0_linear_5987_233581)"/>
  <g filter="url(#filter0_d_5987_233581)">
    <rect x="22.25" y="42" width="157" height="97.1905" rx="5.98095" fill="white"/>
    <rect x="60.3784" y="59.1953" width="24.6714" height="21.681" rx="2.24286" fill="#EEF4FF"/>
    <rect x="60.3784" y="83.8672" width="24.6714" height="21.681" rx="2.24286" fill="#E8F0FF"/>
    <rect x="60.3784" y="108.537" width="24.6714" height="21.681" rx="2.24286" fill="#EEF4FF"/>
    <rect x="88.7881" y="59.1953" width="24.6714" height="21.681" rx="2.24286" fill="#EEF4FF"/>
    <rect x="117.198" y="59.1953" width="24.6714" height="21.681" rx="2.24286" fill="#EEF4FF"/>
    <rect x="145.607" y="59.1953" width="24.6714" height="21.681" rx="2.24286" fill="#EEF4FF"/>
    <rect x="88.7881" y="83.8672" width="24.6714" height="21.681" rx="2.24286" fill="#E8F0FF"/>
    <rect x="117.198" y="83.8672" width="24.6714" height="21.681" rx="2.24286" fill="#E8F0FF"/>
    <rect x="145.607" y="83.8672" width="24.6714" height="21.681" rx="2.24286" fill="#E8F0FF"/>
    <rect x="88.7881" y="108.537" width="24.6714" height="21.681" rx="2.24286" fill="#EEF4FF"/>
    <rect x="117.198" y="108.537" width="24.6714" height="21.681" rx="2.24286" fill="#EEF4FF"/>
    <rect x="145.607" y="108.537" width="24.6714" height="21.681" rx="2.24286" fill="#EEF4FF"/>
    <rect x="31.2214" y="59.1934" width="24.6714" height="11.9619" rx="2.24286" fill="#B4DAFF"/>
    <rect x="31.2214" y="74.8945" width="24.6714" height="11.9619" rx="2.24286" fill="#DFEAFB"/>
    <path d="M83.5696 50.9707H61.8587C61.0412 50.9707 60.3784 51.9749 60.3784 53.2136C60.3784 54.4523 61.0412 55.4564 61.8587 55.4564H83.5696C84.3871 55.4564 85.0498 54.4523 85.0498 53.2136C85.0498 51.9749 84.3871 50.9707 83.5696 50.9707Z" fill="#DFEAFB"/>
    <path d="M111.979 50.9707H90.2684C89.4508 50.9707 88.7881 51.9749 88.7881 53.2136C88.7881 54.4523 89.4508 55.4564 90.2684 55.4564H111.979C112.797 55.4564 113.46 54.4523 113.46 53.2136C113.46 51.9749 112.797 50.9707 111.979 50.9707Z" fill="#DFEAFB"/>
    <path d="M140.389 50.9707H118.678C117.86 50.9707 117.198 51.9749 117.198 53.2136C117.198 54.4523 117.86 55.4564 118.678 55.4564H140.389C141.206 55.4564 141.869 54.4523 141.869 53.2136C141.869 51.9749 141.206 50.9707 140.389 50.9707Z" fill="#DFEAFB"/>
    <path d="M168.798 50.9707H147.087C146.27 50.9707 145.607 51.9749 145.607 53.2136C145.607 54.4523 146.27 55.4564 147.087 55.4564H168.798C169.616 55.4564 170.279 54.4523 170.279 53.2136C170.279 51.9749 169.616 50.9707 168.798 50.9707Z" fill="#DFEAFB"/>
  </g>
  <defs>
    <filter id="filter0_d_5987_233581" x="16.25" y="39" width="169" height="109.191" filterUnits="userSpaceOnUse" color-interpolation-filters="sRGB">
      <feFlood flood-opacity="0" result="BackgroundImageFix"/>
      <feColorMatrix in="SourceAlpha" type="matrix" values="0 0 0 0 0 0 0 0 0 0 0 0 0 0 0 0 0 0 127 0" result="hardAlpha"/>
      <feOffset dy="3"/>
      <feGaussianBlur stdDeviation="3"/>
      <feComposite in2="hardAlpha" operator="out"/>
      <feColorMatrix type="matrix" values="0 0 0 0 0.788235 0 0 0 0 0.803922 0 0 0 0 0.85098 0 0 0 0.349 0"/>
      <feBlend mode="normal" in2="BackgroundImageFix" result="effect1_dropShadow_5987_233581"/>
      <feBlend mode="normal" in="SourceGraphic" in2="effect1_dropShadow_5987_233581" result="shape"/>
    </filter>
    <linearGradient id="paint0_linear_5987_233581" x1="75.75" y1="0" x2="75.75" y2="150" gradientUnits="userSpaceOnUse">
      <stop stop-color="#E3ECFA"/>
      <stop offset="1" stop-color="#DAE7FF"/>
    </linearGradient>
  </defs>
</svg>
