<svg fill="none" height="40" viewBox="0 0 40 40" width="40" xmlns="http://www.w3.org/2000/svg"><path d="m39.0364 24.9143c-2.9718-3.0858-11.086-1.8285-13.0288-1.6-2.857-2.743-4.7997-6.0573-5.4855-7.2 1.0285-3.0858 1.714-6.17151 1.8285-9.48551 0-2.85725-1.1427-5.942755-4.343-5.942755-1.1427 0-2.1715.685505-2.743 1.599755-1.3712 2.40025-.8 7.20024 1.3715 12.11451-1.257 3.5427-2.4 6.9712-5.6 13.0285-3.31424 1.371-10.285735 4.5712-10.857234 8-.2285005 1.0282.114249 2.0572.914244 2.857.8.6857 1.82851 1.0285 2.85726 1.0285 4.2285 0 8.34273-5.8283 11.20003-10.743 2.4-.7998 6.1715-1.9428 9.943-2.6285 4.457 3.8857 8.3427 4.457 10.4 4.457 2.7427 0 3.7715-1.1428 4.1142-2.1715.5713-1.1425.2285-2.3998-.5712-3.314zm-2.8575 1.943c-.1143.8-1.1425 1.5997-2.9713 1.1427-2.1715-.5712-4.1142-1.6-5.8285-2.9715 1.4858-.2287 4.7998-.5715 7.2-.1142.9143.2285 1.8285.8 1.5998 1.943zm-19.0855-23.54301c.2285-.34275.5715-.57125.9142-.57125 1.0285 0 1.257 1.25699 1.257 2.28574-.1142 2.40025-.5715 4.8-1.3712 7.08572-1.7145-4.57146-1.3715-7.77171-.8-8.80021zm-.2285 22.17151c.9142-1.8285 2.1715-5.0288 2.6285-6.4003 1.0285 1.714 2.7427 3.7715 3.6572 4.6858 0 .1145-3.543.8-6.2857 1.7145zm-6.743 4.5715c-2.62853 4.3427-5.37153 7.0855-6.85728 7.0855-.2285 0-.45726-.1143-.68575-.2285-.343-.2288-.45725-.5715-.343-1.0285.343-1.6 3.3145-3.7715 7.88603-5.8285z" fill="#1f2b37"/></svg>