<svg width="10" height="10" viewBox="0 0 10 10" fill="none" xmlns="http://www.w3.org/2000/svg">
<path d="M1.8449 6.47902H0.415039L0.90065 5.30546H1.61558C1.61558 5.17956 1.61108 5.09863 1.60209 5.06265V4.84683C1.60209 4.80186 1.60659 4.76139 1.61558 4.72542H0.415039L0.90065 3.55186H1.83141C2.18213 2.55366 2.75766 1.76679 3.55802 1.19125C4.35838 0.60672 5.27115 0.314453 6.29633 0.314453C6.94382 0.314453 7.52385 0.43136 8.03644 0.665173C8.55802 0.889993 9.07511 1.26319 9.5877 1.78478L9.06162 3.03927C8.57601 2.54467 8.11288 2.18945 7.67223 1.97363C7.23159 1.74881 6.75047 1.6364 6.22889 1.6364C5.32961 1.6364 4.56972 1.98712 3.94921 2.68855C3.67043 2.99431 3.4681 3.28208 3.3422 3.55186H8.85928L8.36018 4.72542H3.03195C3.02295 4.82434 3.01846 4.92327 3.01846 5.02219C3.01846 5.11211 3.02295 5.20654 3.03195 5.30546H8.11738L7.63176 6.47902H3.3422C3.64795 7.06355 4.06162 7.52668 4.5832 7.86841C5.10479 8.20114 5.66684 8.36751 6.26935 8.36751C6.81792 8.36751 7.31252 8.2506 7.75317 8.01679C8.19382 7.78298 8.67493 7.38729 9.19651 6.82974V8.63729C8.3422 9.33873 7.38446 9.68945 6.32331 9.68945C5.28015 9.68945 4.36738 9.41068 3.585 8.85312C2.81162 8.29557 2.23159 7.5042 1.8449 6.47902Z" fill="#1F2B37"/>
</svg>
