<svg width="1287" height="221" viewBox="0 0 1287 221" fill="none" xmlns="http://www.w3.org/2000/svg">

  <defs>

    <!-- line1 -->
    <mask id="mask-element-line1-1">
      <rect x="41" width="63" height="16" rx="2" fill="#EEF1F5"/>
      <path fill="hsla(200,0%,10%,.6)" id="mask" d="M30 0H61V16H21L30 0Z"/>
    </mask>
    <mask id="mask-element-line1-2">
      <rect x="282" width="59" height="16" rx="2" fill="#EEF1F5"/>
      <path fill="hsla(200,0%,10%,.6)" id="mask" d="M271 0H302V16H262L271 0Z"/>
    </mask>
    <mask id="mask-element-line1-3">
      <rect x="1004" y="0.111328" width="162" height="16" rx="2" fill="#EEF1F5"/>
      <path fill="hsla(200,0%,10%,.6)" id="mask" d="M993 0H1024V16H984L993 0Z"/>
    </mask>

    <!-- line2 -->
    <mask id="mask-element-line2-1">
      <rect x="41" y="34.1113" width="216" height="16" rx="2" fill="#EEF1F5"/>
      <path fill="hsla(200,0%,10%,.6)" id="mask" d="M30 34H61V50H21L30 34Z"/>
    </mask>
    <mask id="mask-element-line2-2">
      <rect x="313" y="34.1113" width="90" height="16" rx="2" fill="#EEF1F5"/>
      <path fill="hsla(200,0%,10%,.6)" id="mask" d="M303 34H333V50H293L300 34Z"/>
    </mask>
    <mask id="mask-element-line2-3">
      <rect x="421" y="34.1113" width="61" height="16" rx="2" fill="#EEF1F5"/>
      <path fill="hsla(200,0%,10%,.6)" id="mask" d="M411 34H441V50H401L410 34Z"/>
    </mask>
    <mask id="mask-element-line2-4">
      <rect x="507" y="34.1113" width="188" height="16" rx="2" fill="#EEF1F5"/>
      <path fill="hsla(200,0%,10%,.6)" id="mask" d="M497 34H527V50H487L496 34Z"/>
    </mask>
    <mask id="mask-element-line2-5">
      <rect x="720" y="34.1113" width="258" height="16" rx="2" fill="#EEF1F5"/>
      <path fill="hsla(200,0%,10%,.6)" id="mask" d="M710 34H740V50H700L709 34Z"/>
    </mask>
    <mask id="mask-element-line2-6">
      <rect x="1192" y="34.1113" width="95" height="16" rx="2" fill="#EEF1F5"/>
      <path fill="hsla(200,0%,10%,.6)" id="mask" d="M1182 34H1212V50H1172L1181 34Z"/>
    </mask>
    <mask id="mask-element-line2-7">
      <rect x="1003" y="34.1113" width="94" height="16" rx="2" fill="#EEF1F5"/>
      <path fill="hsla(200,0%,10%,.6)" id="mask" d="M993 34H1023V50H983L992 34Z"/>
    </mask>

    <!-- line3 -->
    <mask id="mask-element-line3-1">
      <rect x="41" y="68.1113" width="216" height="16" rx="2" fill="#EEF1F5"/>
      <path fill="hsla(200,0%,10%,.6)" id="mask" d="M30 68H61V84H21L30 68Z"/>
    </mask>
    <mask id="mask-element-line3-2">
      <rect x="313" y="68.1113" width="90" height="16" rx="2" fill="#EEF1F5"/>
      <path fill="hsla(200,0%,10%,.6)" id="mask" d="M300 68H333V84H293L300 68Z"/>
    </mask>
    <mask id="mask-element-line3-3">
      <rect x="421" y="68.1113" width="61" height="16" rx="2" fill="#EEF1F5"/>
      <path fill="hsla(200,0%,10%,.6)" id="mask" d="M410 68H441V84H401L410 68Z"/>
    </mask>
    <mask id="mask-element-line3-4">
      <rect x="507" y="68.1113" width="188" height="16" rx="2" fill="#EEF1F5"/>
      <path fill="hsla(200,0%,10%,.6)" id="mask" d="M496 68H527V84H487L496 68Z"/>
    </mask>
    <mask id="mask-element-line3-5">
      <rect x="720" y="68.1113" width="258" height="16" rx="2" fill="#EEF1F5"/>
      <path fill="hsla(200,0%,10%,.6)" id="mask" d="M709 68H740V84H700L709 68Z"/>
    </mask>
    <mask id="mask-element-line3-6">
      <rect x="1192" y="68.1113" width="95" height="16" rx="2" fill="#EEF1F5"/>
      <path fill="hsla(200,0%,10%,.6)" id="mask" d="M1181 68H1212V84H1172L1181 68Z"/>
    </mask>
    <mask id="mask-element-line3-7">
      <rect x="1003" y="68.1113" width="94" height="16" rx="2" fill="#EEF1F5"/>
      <path fill="hsla(200,0%,10%,.6)" id="mask" d="M992 68H1023V84H983L992 68Z"/>
    </mask>

    <!-- line4 -->
    <mask id="mask-element-line4-1">
      <rect x="41" y="102.111" width="216" height="16" rx="2" fill="#EEF1F5"/>
      <path fill="hsla(200,0%,10%,.6)" id="mask" d="M30 102H61V120H21L30 102Z"/>
    </mask>
    <mask id="mask-element-line4-2">
      <rect x="313" y="102.111" width="90" height="16" rx="2" fill="#EEF1F5"/>
      <path fill="hsla(200,0%,10%,.6)" id="mask" d="M300 102H333V120H293L300 102Z"/>
    </mask>
    <mask id="mask-element-line4-3">
      <rect x="421" y="102.111" width="61" height="16" rx="2" fill="#EEF1F5"/>
      <path fill="hsla(200,0%,10%,.6)" id="mask" d="M410 102H441V120H401L410 102Z"/>
    </mask>
    <mask id="mask-element-line4-4">
      <rect x="507" y="102.111" width="188" height="16" rx="2" fill="#EEF1F5"/>
      <path fill="hsla(200,0%,10%,.6)" id="mask" d="M496 102H527V120H487L496 102Z"/>
    </mask>
    <mask id="mask-element-line4-5">
      <rect x="720" y="102.111" width="258" height="16" rx="2" fill="#EEF1F5"/>
      <path fill="hsla(200,0%,10%,.6)" id="mask" d="M709 102H740V120H700L709 102Z"/>
    </mask>
    <mask id="mask-element-line4-6">
      <rect x="1192" y="102.111" width="95" height="16" rx="2" fill="#EEF1F5"/>
      <path fill="hsla(200,0%,10%,.6)" id="mask" d="M1181 102H1212V120H1172L1181 102Z"/>
    </mask>
    <mask id="mask-element-line4-7">
      <rect x="1003" y="102.111" width="94" height="16" rx="2" fill="#EEF1F5"/>
      <path fill="hsla(200,0%,10%,.6)" id="mask" d="M992 102H1023V120H983L992 102Z"/>
    </mask>

    <!-- line5 -->
    <mask id="mask-element-line5-1">
      <rect x="41" y="136.111" width="216" height="16" rx="2" fill="#EEF1F5"/>
      <path fill="hsla(200,0%,10%,.6)" id="mask" d="M30 136H61V154H21L30 136Z"/>
    </mask>
    <mask id="mask-element-line5-2">
      <rect x="313" y="136.111" width="90" height="16" rx="2" fill="#EEF1F5"/>
      <path fill="hsla(200,0%,10%,.6)" id="mask" d="M300 136H333V154H293L300 136Z"/>
    </mask>
    <mask id="mask-element-line5-3">
      <rect x="421" y="136.111" width="61" height="16" rx="2" fill="#EEF1F5"/>
      <path fill="hsla(200,0%,10%,.6)" id="mask" d="M410 136H441V154H401L410 136Z"/>
    </mask>
    <mask id="mask-element-line5-4">
      <rect x="507" y="136.111" width="188" height="16" rx="2" fill="#EEF1F5"/>
      <path fill="hsla(200,0%,10%,.6)" id="mask" d="M496 136H527V154H487L496 136Z"/>
    </mask>
    <mask id="mask-element-line5-5">
      <rect x="720" y="136.111" width="258" height="16" rx="2" fill="#EEF1F5"/>
      <path fill="hsla(200,0%,10%,.6)" id="mask" d="M709 136H740V154H700L709 136Z"/>
    </mask>
    <mask id="mask-element-line5-6">
      <rect x="1192" y="136.111" width="95" height="16" rx="2" fill="#EEF1F5"/>
      <path fill="hsla(200,0%,10%,.6)" id="mask" d="M1181 136H1212V154H1172L1181 136Z"/>
    </mask>
    <mask id="mask-element-line5-7">
      <rect x="1003" y="136.111" width="94" height="16" rx="2" fill="#EEF1F5"/>
      <path fill="hsla(200,0%,10%,.6)" id="mask" d="M992 136H1023V154H983L992 136Z"/>
    </mask>

    <!-- line6 -->
    <mask id="mask-element-line6-1">
      <rect x="41" y="170.111" width="216" height="16" rx="2" fill="#EEF1F5"/>
      <path fill="hsla(200,0%,10%,.6)" id="mask" d="M30 170H61V188H21L30 170Z"/>
    </mask>
    <mask id="mask-element-line6-2">
      <rect x="313" y="170.111" width="90" height="16" rx="2" fill="#EEF1F5"/>
      <path fill="hsla(200,0%,10%,.6)" id="mask" d="M300 170H333V188H293L300 170Z"/>
    </mask>
    <mask id="mask-element-line6-3">
      <rect x="421" y="170.111" width="61" height="16" rx="2" fill="#EEF1F5"/>
      <path fill="hsla(200,0%,10%,.6)" id="mask" d="M410 170H441V188H401L410 170Z"/>
    </mask>
    <mask id="mask-element-line6-4">
      <rect x="507" y="170.111" width="188" height="16" rx="2" fill="#EEF1F5"/>
      <path fill="hsla(200,0%,10%,.6)" id="mask" d="M496 170H527V188H487L496 170Z"/>
    </mask>
    <mask id="mask-element-line6-5">
      <rect x="720" y="170.111" width="258" height="16" rx="2" fill="#EEF1F5"/>
      <path fill="hsla(200,0%,10%,.6)" id="mask" d="M709 170H740V188H700L709 170Z"/>
    </mask>
    <mask id="mask-element-line6-6">
      <rect x="1192" y="170.111" width="95" height="16" rx="2" fill="#EEF1F5"/>
      <path fill="hsla(200,0%,10%,.6)" id="mask" d="M1181 170H1212V188H1172L1181 170Z"/>
    </mask>
    <mask id="mask-element-line6-7">
      <rect x="1003" y="170.111" width="94" height="16" rx="2" fill="#EEF1F5"/>
      <path fill="hsla(200,0%,10%,.6)" id="mask" d="M992 170H1023V188H983L992 170Z"/>
    </mask>

    <!-- line7 -->
    <mask id="mask-element-line7-1">
      <rect x="41" y="204.111" width="216" height="16" rx="2" fill="#EEF1F5"/>
      <path fill="hsla(200,0%,10%,.6)" id="mask" d="M30 204H61V222H21L30 204Z"/>
    </mask>
    <mask id="mask-element-line7-2">
      <rect x="313" y="204.111" width="90" height="16" rx="2" fill="#EEF1F5"/>
      <path fill="hsla(200,0%,10%,.6)" id="mask" d="M300 204H333V222H293L300 204Z"/>
    </mask>
    <mask id="mask-element-line7-3">
      <rect x="421" y="204.111" width="61" height="16" rx="2" fill="#EEF1F5"/>
      <path fill="hsla(200,0%,10%,.6)" id="mask" d="M410 204H441V222H401L410 204Z"/>
    </mask>
    <mask id="mask-element-line7-4">
      <rect x="507" y="204.111" width="188" height="16" rx="2" fill="#EEF1F5"/>
      <path fill="hsla(200,0%,10%,.6)" id="mask" d="M496 204H527V222H487L496 204Z"/>
    </mask>
    <mask id="mask-element-line7-5">
      <rect x="720" y="204.111" width="258" height="16" rx="2" fill="#EEF1F5"/>
      <path fill="hsla(200,0%,10%,.6)" id="mask" d="M709 204H740V222H700L709 204Z"/>
    </mask>
    <mask id="mask-element-line7-6">
      <rect x="1192" y="204.111" width="95" height="16" rx="2" fill="#EEF1F5"/>
      <path fill="hsla(200,0%,10%,.6)" id="mask" d="M1181 204H1212V222H1172L1181 204Z"/>
    </mask>
    <mask id="mask-element-line7-7">
      <rect x="1003" y="204.111" width="94" height="16" rx="2" fill="#EEF1F5"/>
      <path fill="hsla(200,0%,10%,.6)" id="mask" d="M992 204H1023V222H983L992 204Z"/>
    </mask>

  </defs>

  <!-- line1 -->
  <rect mask="url(#mask-element-line1-1)" x="41" width="63" height="16" rx="2" fill="#EEF1F5"/>
  <rect mask="url(#mask-element-line1-2)" x="282" width="59" height="16" rx="2" fill="#EEF1F5"/>
  <rect x="421" width="33" height="16" rx="2" fill="#EEF1F5"/>
  <rect x="508" width="52" height="16" rx="2" fill="#EEF1F5"/>
  <rect x="720" y="0.111328" width="24" height="16" rx="2" fill="#EEF1F5"/>
  <rect mask="url(#mask-element-line1-3)" x="1004" y="0.111328" width="162" height="16" rx="2" fill="#EEF1F5"/>
  <rect x="1192" y="0.111328" width="38" height="16" rx="2" fill="#EEF1F5"/>
  <rect mask="url(#mask-element)" y="0.111328" width="16" height="16" rx="2" fill="#EEF1F5"/>
  <line x1="-4.37114e-08" y1="24.6113" x2="1287" y2="24.6112" stroke="#EEF1F5"/>

  <!-- line2 -->
  <rect mask="url(#mask-element-line2-1)" x="41" y="34.1113" width="216" height="16" rx="2" fill="#EEF1F5"/>
  <rect mask="url(#mask-element-line2-2)" x="313" y="34.1113" width="90" height="16" rx="2" fill="#EEF1F5"/>
  <rect mask="url(#mask-element-line2-3)" x="421" y="34.1113" width="61" height="16" rx="2" fill="#EEF1F5"/>
  <rect mask="url(#mask-element-line2-4)" x="507" y="34.1113" width="188" height="16" rx="2" fill="#EEF1F5"/>
  <rect mask="url(#mask-element-line2-5)" x="720" y="34.1113" width="258" height="16" rx="2" fill="#EEF1F5"/>
  <rect mask="url(#mask-element-line2-6)" x="1192" y="34.1113" width="95" height="16" rx="2" fill="#EEF1F5"/>
  <rect y="34.1113" width="16" height="16" rx="2" fill="#EEF1F5"/>
  <rect x="282" y="34.1113" width="22" height="16" rx="2" fill="#EEF1F5"/>
  <rect mask="url(#mask-element-line2-7)" x="1003" y="34.1113" width="94" height="16" rx="2" fill="#EEF1F5"/>

  <!-- line3 -->
  <rect mask="url(#mask-element-line3-1)" x="41" y="68.1113" width="216" height="16" rx="2" fill="#EEF1F5"/>
  <rect mask="url(#mask-element-line3-2)" x="313" y="68.1113" width="90" height="16" rx="2" fill="#EEF1F5"/>
  <rect mask="url(#mask-element-line3-3)" x="421" y="68.1113" width="61" height="16" rx="2" fill="#EEF1F5"/>
  <rect mask="url(#mask-element-line3-4)" x="507" y="68.1113" width="188" height="16" rx="2" fill="#EEF1F5"/>
  <rect mask="url(#mask-element-line3-5)" x="720" y="68.1113" width="258" height="16" rx="2" fill="#EEF1F5"/>
  <rect mask="url(#mask-element-line3-6)" x="1192" y="68.1113" width="95" height="16" rx="2" fill="#EEF1F5"/>
  <rect y="68.1113" width="16" height="16" rx="2" fill="#EEF1F5"/>
  <rect x="282" y="68.1113" width="22" height="16" rx="2" fill="#EEF1F5"/>
  <rect mask="url(#mask-element-line3-7)" x="1003" y="68.1113" width="94" height="16" rx="2" fill="#EEF1F5"/>

  <!-- line4 -->
  <rect mask="url(#mask-element-line4-1)" x="41" y="102.111" width="216" height="16" rx="2" fill="#EEF1F5"/>
  <rect mask="url(#mask-element-line4-2)" x="313" y="102.111" width="90" height="16" rx="2" fill="#EEF1F5"/>
  <rect mask="url(#mask-element-line4-3)" x="421" y="102.111" width="61" height="16" rx="2" fill="#EEF1F5"/>
  <rect mask="url(#mask-element-line4-4)" x="507" y="102.111" width="188" height="16" rx="2" fill="#EEF1F5"/>
  <rect mask="url(#mask-element-line4-5)" x="720" y="102.111" width="258" height="16" rx="2" fill="#EEF1F5"/>
  <rect mask="url(#mask-element-line4-6)" x="1192" y="102.111" width="95" height="16" rx="2" fill="#EEF1F5"/>
  <rect y="102.111" width="16" height="16" rx="2" fill="#EEF1F5"/>
  <rect x="282" y="102.111" width="22" height="16" rx="2" fill="#EEF1F5"/>
  <rect mask="url(#mask-element-line4-7)" x="1003" y="102.111" width="94" height="16" rx="2" fill="#EEF1F5"/>

  <!-- line5 -->
  <rect mask="url(#mask-element-line5-1)" x="41" y="136.111" width="216" height="16" rx="2" fill="#EEF1F5"/>
  <rect mask="url(#mask-element-line5-2)" x="313" y="136.111" width="90" height="16" rx="2" fill="#EEF1F5"/>
  <rect mask="url(#mask-element-line5-3)" x="421" y="136.111" width="61" height="16" rx="2" fill="#EEF1F5"/>
  <rect mask="url(#mask-element-line5-4)" x="507" y="136.111" width="188" height="16" rx="2" fill="#EEF1F5"/>
  <rect mask="url(#mask-element-line5-5)" x="720" y="136.111" width="258" height="16" rx="2" fill="#EEF1F5"/>
  <rect mask="url(#mask-element-line5-6)" x="1192" y="136.111" width="95" height="16" rx="2" fill="#EEF1F5"/>
  <rect y="136.111" width="16" height="16" rx="2" fill="#EEF1F5"/>
  <rect x="282" y="136.111" width="22" height="16" rx="2" fill="#EEF1F5"/>
  <rect mask="url(#mask-element-line5-7)" x="1003" y="136.111" width="94" height="16" rx="2" fill="#EEF1F5"/>

  <!-- line6 -->
  <rect mask="url(#mask-element-line6-1)" x="41" y="170.111" width="216" height="16" rx="2" fill="#EEF1F5"/>
  <rect mask="url(#mask-element-line6-2)" x="313" y="170.111" width="90" height="16" rx="2" fill="#EEF1F5"/>
  <rect mask="url(#mask-element-line6-3)" x="421" y="170.111" width="61" height="16" rx="2" fill="#EEF1F5"/>
  <rect mask="url(#mask-element-line6-4)" x="507" y="170.111" width="188" height="16" rx="2" fill="#EEF1F5"/>
  <rect mask="url(#mask-element-line6-5)" x="720" y="170.111" width="258" height="16" rx="2" fill="#EEF1F5"/>
  <rect mask="url(#mask-element-line6-6)" x="1192" y="170.111" width="95" height="16" rx="2" fill="#EEF1F5"/>
  <rect y="170.111" width="16" height="16" rx="2" fill="#EEF1F5"/>
  <rect x="282" y="170.111" width="22" height="16" rx="2" fill="#EEF1F5"/>
  <rect mask="url(#mask-element-line6-7)" x="1003" y="170.111" width="94" height="16" rx="2" fill="#EEF1F5"/>

  <!-- line7 -->
  <rect mask="url(#mask-element-line7-1)" x="41" y="204.111" width="216" height="16" rx="2" fill="#EEF1F5"/>
  <rect mask="url(#mask-element-line7-2)" x="313" y="204.111" width="90" height="16" rx="2" fill="#EEF1F5"/>
  <rect mask="url(#mask-element-line7-3)" x="421" y="204.111" width="61" height="16" rx="2" fill="#EEF1F5"/>
  <rect mask="url(#mask-element-line7-4)" x="507" y="204.111" width="188" height="16" rx="2" fill="#EEF1F5"/>
  <rect mask="url(#mask-element-line7-5)" x="720" y="204.111" width="258" height="16" rx="2" fill="#EEF1F5"/>
  <rect mask="url(#mask-element-line7-6)" x="1192" y="204.111" width="95" height="16" rx="2" fill="#EEF1F5"/>
  <rect y="204.111" width="16" height="16" rx="2" fill="#EEF1F5"/>
  <rect x="282" y="204.111" width="22" height="16" rx="2" fill="#EEF1F5"/>
  <rect mask="url(#mask-element-line7-7)" x="1003" y="204.111" width="94" height="16" rx="2" fill="#EEF1F5"/>

</svg>
