<svg width="11" height="12" viewBox="0 0 11 12" fill="none" xmlns="http://www.w3.org/2000/svg">
   <g>

    <path
        d="M1.49998 0.400391C1.12867 0.400391 0.772577 0.54789 0.510026 0.810441C0.247475 1.07299 0.0999756 1.42909 0.0999756 1.80039V3.20039C0.0999756 3.57169 0.247475 3.92779 0.510026 4.19034C0.772577 4.45289 1.12867 4.60039 1.49998 4.60039H7.09998C7.47128 4.60039 7.82737 4.45289 8.08992 4.19034C8.35248 3.92779 8.49998 3.57169 8.49998 3.20039V1.80039C8.49998 1.42909 8.35248 1.07299 8.08992 0.810441C7.82737 0.54789 7.47128 0.400391 7.09998 0.400391H1.49998ZM0.799976 1.80039C0.799976 1.61474 0.873725 1.43669 1.005 1.30542C1.13628 1.17414 1.31432 1.10039 1.49998 1.10039H7.09998C7.28563 1.10039 7.46367 1.17414 7.59495 1.30542C7.72623 1.43669 7.79998 1.61474 7.79998 1.80039V3.20039C7.79998 3.38604 7.72623 3.56409 7.59495 3.69537C7.46367 3.82664 7.28563 3.90039 7.09998 3.90039H1.49998C1.31432 3.90039 1.13628 3.82664 1.005 3.69537C0.873725 3.56409 0.799976 3.38604 0.799976 3.20039V1.80039ZM2.89998 8.45039C2.80715 8.45039 2.71813 8.48727 2.65249 8.5529C2.58685 8.61854 2.54998 8.70757 2.54998 8.80039C2.54998 8.89322 2.58685 8.98224 2.65249 9.04788C2.71813 9.11352 2.80715 9.15039 2.89998 9.15039H5.69998C5.7928 9.15039 5.88183 9.11352 5.94746 9.04788C6.0131 8.98224 6.04998 8.89322 6.04998 8.80039C6.04998 8.70757 6.0131 8.61854 5.94746 8.5529C5.88183 8.48727 5.7928 8.45039 5.69998 8.45039H2.89998ZM6.31528 6.00039H1.49998C1.12867 6.00039 0.772577 6.14789 0.510026 6.41044C0.247475 6.67299 0.0999756 7.02909 0.0999756 7.40039V10.2004C0.0999756 10.5717 0.247475 10.9278 0.510026 11.1903C0.772577 11.4529 1.12867 11.6004 1.49998 11.6004H7.09998C7.47128 11.6004 7.82737 11.4529 8.08992 11.1903C8.35248 10.9278 8.49998 10.5717 8.49998 10.2004V9.44089C8.27345 9.52062 8.0265 9.52062 7.79998 9.44089V10.2004C7.79998 10.386 7.72623 10.5641 7.59495 10.6954C7.46367 10.8266 7.28563 10.9004 7.09998 10.9004H1.49998C1.31432 10.9004 1.13628 10.8266 1.005 10.6954C0.873725 10.5641 0.799976 10.386 0.799976 10.2004V7.40039C0.799976 7.21474 0.873725 7.03669 1.005 6.90542C1.13628 6.77414 1.31432 6.70039 1.49998 6.70039H5.75948C5.81161 6.55278 5.8963 6.41881 6.00728 6.30839L6.31528 6.00039ZM10.6 4.25039C10.6 4.15757 10.5631 4.06854 10.4975 4.0029C10.4318 3.93727 10.3428 3.90039 10.25 3.90039C10.1571 3.90039 10.0681 3.93727 10.0025 4.0029C9.93685 4.06854 9.89998 4.15757 9.89998 4.25039V5.65039C9.89998 5.92887 9.78935 6.19594 9.59244 6.39285C9.39552 6.58977 9.12845 6.70039 8.84998 6.70039H7.59488L8.39778 5.89819C8.4635 5.83247 8.50042 5.74333 8.50042 5.65039C8.50042 5.55745 8.4635 5.46831 8.39778 5.40259C8.33206 5.33687 8.24292 5.29995 8.14998 5.29995C8.05703 5.29995 7.9679 5.33687 7.90218 5.40259L6.50218 6.80259C6.46958 6.8351 6.44372 6.87373 6.42608 6.91625C6.40843 6.95877 6.39935 7.00435 6.39935 7.05039C6.39935 7.09643 6.40843 7.14201 6.42608 7.18453C6.44372 7.22706 6.46958 7.26568 6.50218 7.29819L7.90218 8.69819C7.9679 8.76391 8.05703 8.80083 8.14998 8.80083C8.24292 8.80083 8.33206 8.76391 8.39778 8.69819C8.4635 8.63247 8.50042 8.54333 8.50042 8.45039C8.50042 8.35745 8.4635 8.26831 8.39778 8.20259L7.59488 7.40039H8.84998C9.07979 7.40039 9.30735 7.35513 9.51967 7.26718C9.73199 7.17923 9.92491 7.05033 10.0874 6.88783C10.2499 6.72533 10.3788 6.53241 10.4668 6.32009C10.5547 6.10777 10.6 5.8802 10.6 5.65039V4.25039Z"
        fill="currentColor"
    />
    </g>
</svg>
