<svg viewBox="0 0 60 27" fill="none" xmlns="http://www.w3.org/2000/svg">
<path fill-rule="evenodd" clip-rule="evenodd" d="M14 3L8 3L11 0L14 3Z" fill="#061249"/>
<rect y="3" width="60" height="24" rx="4" fill="#061249"/>
<path d="M13.1782 16.02H9.91116L9.17416 18H8.15116L10.9452 10.663H12.1662L14.9602 18H13.9262L13.1782 16.02ZM11.5392 11.653L10.2522 15.107H12.8372L11.5392 11.653ZM19.7897 13.875L19.1627 14.491C18.9427 14.249 18.7337 14.0803 18.5357 13.985C18.345 13.8823 18.1213 13.831 17.8647 13.831C17.388 13.831 16.9993 13.9923 16.6987 14.315C16.4053 14.6303 16.2587 15.0447 16.2587 15.558C16.2587 16.0787 16.4053 16.5003 16.6987 16.823C16.9993 17.1383 17.3917 17.296 17.8757 17.296C18.147 17.296 18.378 17.2447 18.5687 17.142C18.7667 17.032 18.9757 16.8487 19.1957 16.592L19.8227 17.219C19.2507 17.835 18.6017 18.143 17.8757 18.143C17.1497 18.143 16.541 17.8973 16.0497 17.406C15.5583 16.9073 15.3127 16.2913 15.3127 15.558C15.3127 14.832 15.5583 14.2233 16.0497 13.732C16.541 13.2333 17.146 12.984 17.8647 12.984C18.576 12.984 19.2177 13.281 19.7897 13.875ZM21.8324 13.127H22.6134V13.974H21.8324V16.504C21.8324 16.966 21.9717 17.197 22.2504 17.197C22.3531 17.197 22.4961 17.1713 22.6794 17.12V17.989C22.4814 18.0477 22.2871 18.077 22.0964 18.077C21.7151 18.077 21.4181 17.9413 21.2054 17.67C20.9927 17.3913 20.8864 17.0027 20.8864 16.504V13.974H20.3474V13.127H20.8864V12.005L21.8324 11.642V13.127ZM27.8279 13.127V18H26.8819V17.549C26.5299 17.945 26.0826 18.143 25.5399 18.143C25.1806 18.143 24.8469 18.0587 24.5389 17.89C24.2383 17.7213 24.0036 17.494 23.8349 17.208C23.6369 16.878 23.5379 16.394 23.5379 15.756V13.127H24.4839V15.668C24.4839 16.1667 24.5609 16.559 24.7149 16.845C24.8689 17.1237 25.1733 17.263 25.6279 17.263C25.8626 17.263 26.0753 17.2153 26.2659 17.12C26.4566 17.0173 26.5959 16.8853 26.6839 16.724C26.8159 16.482 26.8819 16.0933 26.8819 15.558V13.127H27.8279ZM33.8316 13.127V18H32.8856V17.472C32.5776 17.7213 32.3063 17.8973 32.0716 18C31.8369 18.0953 31.5803 18.143 31.3016 18.143C30.6123 18.143 30.0256 17.89 29.5416 17.384C29.0576 16.878 28.8156 16.2693 28.8156 15.558C28.8156 14.8467 29.0576 14.2417 29.5416 13.743C30.0256 13.237 30.6123 12.984 31.3016 12.984C31.5803 12.984 31.8333 13.0353 32.0606 13.138C32.2953 13.2333 32.5703 13.4057 32.8856 13.655V13.127H33.8316ZM31.3676 13.831C30.8909 13.831 30.5023 13.9923 30.2016 14.315C29.9083 14.6303 29.7616 15.0483 29.7616 15.569C29.7616 16.075 29.9083 16.4893 30.2016 16.812C30.5023 17.1347 30.8836 17.296 31.3456 17.296C31.8076 17.296 32.1816 17.1347 32.4676 16.812C32.7609 16.4893 32.9076 16.0713 32.9076 15.558C32.9076 15.0593 32.7609 14.6487 32.4676 14.326C32.1816 13.996 31.8149 13.831 31.3676 13.831ZM36.1072 10.663V18H35.1612V10.663H36.1072ZM37.4276 13.127H38.3736V18H37.4276V13.127ZM37.4496 11.037C37.5742 10.9123 37.7246 10.85 37.9006 10.85C38.0766 10.85 38.2269 10.9123 38.3516 11.037C38.4762 11.1617 38.5386 11.312 38.5386 11.488C38.5386 11.6567 38.4762 11.8033 38.3516 11.928C38.2269 12.0527 38.0766 12.115 37.9006 12.115C37.7246 12.115 37.5742 12.0527 37.4496 11.928C37.3249 11.8033 37.2626 11.653 37.2626 11.477C37.2626 11.3083 37.3249 11.1617 37.4496 11.037ZM39.3202 16.801L40.1122 16.482C40.2588 16.7827 40.4055 16.9953 40.5522 17.12C40.6988 17.2373 40.8822 17.296 41.1022 17.296C41.3295 17.296 41.5165 17.23 41.6632 17.098C41.8098 16.966 41.8832 16.7973 41.8832 16.592C41.8832 16.4307 41.8318 16.3097 41.7292 16.229C41.6338 16.141 41.4248 16.0347 41.1022 15.91L40.5852 15.712C39.8958 15.4407 39.5512 15.0153 39.5512 14.436C39.5512 14.0253 39.7052 13.6807 40.0132 13.402C40.3212 13.1233 40.7062 12.984 41.1682 12.984C41.8428 12.984 42.3562 13.3103 42.7082 13.963L41.9602 14.337C41.7255 13.9923 41.4542 13.82 41.1462 13.82C40.9408 13.82 40.7722 13.875 40.6402 13.985C40.5082 14.095 40.4422 14.2343 40.4422 14.403C40.4422 14.5643 40.4862 14.6853 40.5742 14.766C40.6622 14.8393 40.8748 14.942 41.2122 15.074L41.6852 15.25C42.4405 15.5433 42.8182 15.976 42.8182 16.548C42.8182 17.0027 42.6495 17.384 42.3122 17.692C41.9822 17.9927 41.5715 18.143 41.0802 18.143C40.2442 18.143 39.6575 17.6957 39.3202 16.801ZM48.2522 15.943H44.4682C44.5342 16.361 44.6992 16.691 44.9632 16.933C45.2345 17.175 45.5682 17.296 45.9642 17.296C46.2355 17.296 46.4922 17.2337 46.7342 17.109C46.9762 16.9843 47.1595 16.8157 47.2842 16.603C47.3282 16.5297 47.3575 16.4857 47.3722 16.471L48.1862 16.812C47.6655 17.6993 46.9248 18.143 45.9642 18.143C45.2675 18.143 44.6808 17.8973 44.2042 17.406C43.7348 16.9073 43.5002 16.2913 43.5002 15.558C43.5002 14.8393 43.7312 14.2307 44.1932 13.732C44.6552 13.2333 45.2235 12.984 45.8982 12.984C46.5875 12.984 47.1522 13.237 47.5922 13.743C48.0395 14.2417 48.2632 14.8797 48.2632 15.657C48.2632 15.701 48.2595 15.7963 48.2522 15.943ZM44.4682 15.184H47.3172C47.2438 14.7587 47.0825 14.425 46.8332 14.183C46.5838 13.941 46.2758 13.82 45.9092 13.82C45.5352 13.82 45.2198 13.941 44.9632 14.183C44.7065 14.425 44.5415 14.7587 44.4682 15.184ZM49.2655 18V13.127H50.2115V13.6C50.4461 13.402 50.6368 13.2737 50.7835 13.215C50.9301 13.149 51.1281 13.116 51.3775 13.116C51.4948 13.116 51.6011 13.1197 51.6965 13.127V13.974C51.6011 13.9667 51.5021 13.963 51.3995 13.963C51.1428 13.963 50.9301 14.007 50.7615 14.095C50.5928 14.183 50.4718 14.315 50.3985 14.491C50.3251 14.6597 50.2738 14.832 50.2445 15.008C50.2225 15.1767 50.2115 15.3893 50.2115 15.646V18H49.2655Z" fill="white"/>
</svg>
