<svg xmlns="http://www.w3.org/2000/svg" height="16px" width="16px" fill="#000000" viewBox="0 0 64 64" x="0px" y="0px">
    <g>
        <path d="M32,6.5A25.5,25.5,0,1,0,57.5,32,25.53,25.53,0,0,0,32,6.5Zm0,48A22.5,22.5,0,1,1,54.5,32,22.52,22.52,0,0,1,32,54.5ZM30.59,22.41A2,2,0,0,1,30,21a1.72,1.72,0,0,1,0-.39,1.82,1.82,0,0,1,.11-.38,1.63,1.63,0,0,1,.19-.34,1.79,1.79,0,0,1,.25-.31,2.07,2.07,0,0,1,2.82,0,1.79,1.79,0,0,1,.25.31,2.27,2.27,0,0,1,.19.34,1.82,1.82,0,0,1,.11.38A1.72,1.72,0,0,1,34,21a2,2,0,0,1-.59,1.41,1.42,1.42,0,0,1-.3.25,1.48,1.48,0,0,1-.35.19,1.58,1.58,0,0,1-.37.11A1.72,1.72,0,0,1,32,23,2,2,0,0,1,30.59,22.41ZM36.7,43a1.5,1.5,0,0,1-1.5,1.5H28.8a1.5,1.5,0,1,1,0-3h1.7v-12H29a1.5,1.5,0,0,1,0-3h3A1.5,1.5,0,0,1,33.5,28V41.5h1.7A1.5,1.5,0,0,1,36.7,43Z" fill="#1b71ff"/>
    </g>
</svg>