<svg width="14" height="14" viewBox="0 0 14 14" fill="none" xmlns="http://www.w3.org/2000/svg">
<path fill-rule="evenodd" clip-rule="evenodd" d="M1.09896 6.84225C1.09896 3.54753 3.792 0.875 7.11247 0.875C10.4329 0.875 13.1259 3.54753 13.126 6.84225C13.126 10.137 10.4329 12.8094 7.11247 12.8094C6.0956 12.8102 5.09523 12.5544 4.20534 12.0661L0.875977 13.125L1.96096 9.9246C1.41406 9.02496 1.09896 7.96899 1.09896 6.84225ZM4.33016 11.0307C5.12974 11.5527 6.08687 11.8595 7.11246 11.8595L7.10952 11.8594C9.89777 11.8594 12.1658 9.60876 12.1658 6.84207C12.1658 4.0753 9.89777 1.82474 7.10952 1.82474C4.32126 1.82474 2.05323 4.0753 2.05323 6.84207C2.05323 7.93934 2.40986 8.95694 3.01623 9.78291L2.38603 11.647L4.33016 11.0307Z" fill="#1F2B37"/>
<path d="M5.49787 4.1983C5.39758 3.95873 5.32157 3.94965 5.16964 3.94349C5.11195 3.93978 5.05416 3.93779 4.99635 3.9375C4.79869 3.9375 4.59202 3.9951 4.46737 4.12246C4.31544 4.27713 3.93848 4.63798 3.93848 5.378C3.93848 6.11802 4.47955 6.83373 4.55247 6.93388C4.62848 7.03385 5.60734 8.57449 7.12718 9.20238C8.31571 9.69368 8.66839 9.64814 8.93889 9.59054C9.33403 9.50564 9.82955 9.21437 9.95421 8.86267C10.0789 8.51081 10.0789 8.21055 10.0423 8.14687C10.0059 8.08319 9.90548 8.0469 9.75354 7.97099C9.60161 7.89515 8.86288 7.53122 8.72304 7.48269C8.58621 7.43116 8.45555 7.44939 8.35226 7.59498C8.20633 7.79818 8.06349 8.00445 7.94793 8.12873C7.85674 8.22579 7.70772 8.23794 7.58316 8.18633C7.41595 8.11666 6.94789 7.95275 6.37027 7.44023C5.92339 7.04301 5.61944 6.54872 5.53133 6.40013C5.44314 6.24855 5.52224 6.16047 5.59207 6.07865C5.66808 5.98458 5.741 5.91791 5.81701 5.82992C5.89302 5.74202 5.93557 5.69648 5.98421 5.59335C6.03594 5.49329 5.9994 5.39015 5.96294 5.31432C5.92648 5.23849 5.62252 4.49846 5.49787 4.1983Z" fill="#1F2B37"/>
</svg>
