<?xml version="1.0" encoding="UTF-8"?>
<svg width="17px" height="16px" viewBox="0 0 17 16" version="1.1" xmlns="http://www.w3.org/2000/svg" xmlns:xlink="http://www.w3.org/1999/xlink">
    <g id="Symbols" stroke="none" stroke-width="1" fill="none" fill-rule="evenodd">
        <g id="navbar-/-main-/-reduce" transform="translate(-26.000000, -556.000000)">
            <g id="Group" transform="translate(16.000000, 546.000000)" fill="#FFFFFF" fill-rule="nonzero">
                <g id="icon-/-circle-/-dark-/-phone" transform="translate(10.000000, 10.000000)">
                    <path d="M13.8165683,9.88188517 C13.244373,9.33911542 12.5291289,9.33911542 11.9569337,9.88188517 C11.5277872,10.2889625 11.0807597,10.6960398 10.6694944,11.1200787 C10.5622077,11.2388095 10.4549211,11.2557711 10.3118723,11.1879249 C10.0257747,11.0352709 9.73967707,10.9335016 9.47146054,10.763886 C8.21978342,10.0175776 7.16479842,9.05076899 6.23498113,7.96522949 C5.77007249,7.42245974 5.35880715,6.84576688 5.07270952,6.2012278 C5.01906621,6.06553537 5.01906621,5.98072759 5.14423393,5.87895827 C5.57338037,5.48884251 6.00252681,5.06480364 6.43167325,4.67468788 C7.02174961,4.11495658 7.02174961,3.43649439 6.43167325,2.87676309 C6.09193232,2.55449355 5.75219138,2.23222401 5.41245045,1.90995447 C5.05482842,1.57072338 4.71508748,1.24845384 4.35746545,0.909222748 C3.76738909,0.366452998 3.05214502,0.366452998 2.47994977,0.892261193 C2.05080333,1.29933851 1.62165689,1.72337737 1.17462934,2.11349313 C0.763364002,2.48664733 0.548790781,2.94460931 0.513028578,3.4704175 C0.441504171,4.33545679 0.673958493,5.14961141 0.977937223,5.92984293 C1.62165689,7.57511373 2.60511748,9.01684588 3.78527019,10.3568087 C5.37668825,12.171695 7.28996613,13.5964656 9.52510385,14.6141589 C10.5264455,15.0721209 11.5814305,15.4283135 12.70794,15.4961598 C13.4947084,15.5300829 14.1741903,15.3435058 14.7106234,14.7668129 C15.0861265,14.3766972 15.4973918,14.0205045 15.8907761,13.6303887 C16.4808524,13.0706574 16.4808524,12.3921953 15.8907761,11.832464 C15.2112942,11.2048864 14.5139312,10.5433858 13.8165683,9.88188517 Z" id="Path"></path>
                </g>
            </g>
        </g>
    </g>
</svg>