<svg width="24px" height="24px" viewBox="0 0 96 96" fill="none" xmlns="http://www.w3.org/2000/svg">
<rect width="96" height="96" fill="#116DB3"/>
<path fill-rule="evenodd" clip-rule="evenodd" d="M29.2265 39.4667L39.4665 27.4133C39.4665 27.4133 50.8798 40 50.7731 40V68.6933L29.2265 64.7467V61.0133L39.3598 59.3067C39.3598 59.3067 41.0665 59.3067 40.9598 57.3867C40.7465 55.68 38.9331 56 38.9331 56L29.2265 57.3867V39.4667ZM40.2124 54.2933C41.919 54.1867 43.519 53.2267 44.5857 51.84C45.6524 50.3467 46.2924 48.5333 46.2924 46.5067V45.9733C46.1857 43.9467 45.439 42.0267 44.2657 40.64C43.0924 39.2533 41.4924 38.4 39.679 38.4H39.359C37.6524 38.5067 36.0524 39.4667 34.9857 40.8533C33.919 42.24 33.279 44.16 33.279 46.1867V46.72C33.3857 48.7467 34.1324 50.6667 35.3057 52.0533C36.479 53.44 38.079 54.2933 39.8924 54.2933H40.2124Z" fill="#116DB3"/>
<path fill-rule="evenodd" clip-rule="evenodd" d="M43.1997 41.3867C42.2397 40.2133 40.9597 39.5733 39.5731 39.5733H39.3597C37.9731 39.68 36.7997 40.32 35.9464 41.4933C35.0931 42.6667 34.4531 44.2667 34.4531 46.08V46.5067C34.5597 48.32 35.1997 49.92 36.1597 51.0933C37.1197 52.2667 38.3997 52.9067 39.7864 52.9067H39.9997C41.3864 52.8 42.5597 52.16 43.4131 50.9867C44.2664 49.8133 44.9064 48.2133 44.9064 46.4V45.9733C44.9064 44.16 44.2664 42.56 43.1997 41.3867ZM55.146 52.48V59.4133L60.266 58.56V51.84L55.146 52.48ZM39.2528 41.3867C37.3328 41.4933 35.9461 43.84 36.0528 46.5067C36.1594 49.28 37.8661 51.4133 39.8928 51.2C38.6128 50.6667 37.6528 48.7467 37.5461 46.4C37.3328 44.16 38.0794 42.1333 39.2528 41.3867Z" fill="#116DB3"/>
<path fill-rule="evenodd" clip-rule="evenodd" d="M62.4005 49.3867V42.7733L66.6672 42.3467V48.8533L62.4005 49.3867ZM66.6672 57.3867L62.4005 58.1333V51.52L66.6672 50.88V57.3867Z" fill="#116DB3"/>
<path fill-rule="evenodd" clip-rule="evenodd" d="M59.9471 24H36.4805L22.6138 40.32L27.5205 40V57.7067L23.7871 58.1333C23.7871 58.1333 21.9738 58.4533 22.4005 60.3733C22.8271 61.76 24.2138 61.76 24.2138 61.76L27.5205 61.2267V65.92L50.8805 70.1867L69.2271 66.0267V40.4267L74.2405 40C74.1338 39.8933 59.9471 24 59.9471 24ZM55.1476 43.4133L60.2676 42.88V49.6L55.1476 50.24V43.4133ZM29.2265 61.0133V64.7467L50.8798 68.5867V40L39.4665 27.4133L29.2265 39.4667V57.4933L38.9331 56C38.9331 56 40.8531 55.68 40.9598 57.3867C41.0665 59.3067 39.3598 59.3067 39.3598 59.3067L29.2265 61.0133ZM55.1476 59.4133V52.48L60.2676 51.84V58.56L55.1476 59.4133ZM62.2938 58.1333L66.5604 57.3867V50.88L62.2938 51.52V58.1333ZM62.4005 49.3867V42.7733L66.6672 42.3467V48.8533C66.5605 48.8533 62.4005 49.3867 62.4005 49.3867ZM39.6806 38.2933C41.494 38.2933 43.094 39.1467 44.2673 40.5333C45.4406 41.92 46.1873 43.84 46.294 45.8667V46.4C46.294 48.4267 45.654 50.3467 44.5873 51.7333C43.5206 53.12 42.0273 54.08 40.214 54.1867H39.894C38.0806 54.1867 36.4806 53.3333 35.3073 51.9467C34.134 50.6667 33.3873 48.7467 33.2806 46.6133V46.08C33.2806 44.0533 33.9206 42.1333 34.9873 40.7467C36.054 39.36 37.5473 38.4 39.3606 38.2933H39.6806ZM43.5198 50.9867C42.6665 52.16 41.3865 52.9067 40.1065 52.9067H39.8931C38.5065 52.9067 37.2265 52.2667 36.2665 51.0933C35.3065 49.92 34.5598 48.32 34.5598 46.5067V46.08C34.5598 44.2667 35.0931 42.6667 36.0531 41.4933C36.9065 40.32 38.1865 39.5733 39.4665 39.5733H39.6798C41.0665 39.5733 42.3465 40.2133 43.3065 41.3867C44.2665 42.56 45.0131 44.16 45.0131 45.9733V46.4C45.0131 48.2133 44.4798 49.8133 43.5198 50.9867ZM39.2537 41.3867C38.1871 42.1333 37.4404 44.16 37.5471 46.4C37.6537 48.7467 38.6137 50.6667 39.7871 51.3067C37.8671 51.4133 36.1604 49.28 36.0537 46.5067C35.8404 43.84 37.3337 41.4933 39.2537 41.3867Z" fill="white"/>
<path d="M55.146 43.4133L60.266 42.9867V49.7067L55.146 50.3467V43.4133Z" fill="#116DB3"/>
</svg>
