<svg width="24px" height="24px" viewBox="0 0 96 96" fill="none" xmlns="http://www.w3.org/2000/svg">
<rect width="96" height="96" fill="#072F54"/>
<path d="M59.0234 48.4958C58.5821 61.5772 56.6413 74.7131 56.6413 74.7131L59.5573 73.8131L70.7696 39.4566L87.6085 34.8784C89.7442 34.2131 92.299 32.7991 93.3995 32.1001C94.5 31.4011 96 30.5 96 30.5C96 30.5 96 29.5 96 28.5C94.5 28 93 27.9523 91.6334 27.9523C89.9085 27.9523 87.6907 28.0305 85.7193 28.5392L68.9214 33.1175L40.3773 9.6001L37.4202 10.3044L53.9717 31.3958L55.902 36.6392L40.0076 40.9827C40.0076 40.9827 13.565 49.7322 0.34375 54.107C0.34375 54.4592 0.522395 55.7313 0.721551 56.5685C14.4604 53.4863 41.938 47.3218 41.938 47.3218L57.7091 43.0566C57.7091 43.0566 59.116 45.7489 59.0234 48.4958Z" fill="#FBC108"/>
</svg>
