<svg width="24px" height="24px" viewBox="0 0 96 96" fill="none" xmlns="http://www.w3.org/2000/svg">
<rect width="96" height="96" fill="#DB4050"/>
<path d="M26.6665 27.0232H69.3332V40.3919H58.8638V38.1251C58.9037 37.5057 58.6727 36.8999 58.2324 36.4692C57.7921 36.0385 57.1872 35.8266 56.5789 35.89H47.1274V43.3967H55.8726V51.4622H47.1274V57.4823C47.1274 59.1376 47.8233 59.8229 49.9109 59.8229H53.2241V68.6369H26.6665V59.8123H30.1771C30.64 59.8253 31.0868 59.6393 31.4073 59.2999C31.7278 58.9605 31.892 58.4995 31.8596 58.0305V37.9986C31.8596 36.744 31.6623 35.8162 29.9797 35.8162H26.6665V26.96" fill="white"/>
</svg>
