<svg width="24px" height="24px" viewBox="0 0 96 96" fill="none" xmlns="http://www.w3.org/2000/svg">
<rect width="96" height="96" fill="#FA7009"/>
<path d="M45.1485 21.6248C46.6735 20.2906 48.9002 20.2017 50.5186 21.3582L50.8556 21.625L71.5203 39.7083C72.3562 40.4398 72.8752 41.4602 72.9802 42.5556L73 42.9694V66.0002C73 68.2675 71.2587 70.1281 69.0406 70.3177L68.6667 70.3336H26.6667C24.6416 70.3336 23 68.6919 23 66.6669C23 64.761 24.4542 63.1947 26.3135 63.017L26.6667 63.0002H65.6667V44.3309L48 28.8696L30.3333 44.3282V51.4586C30.3333 53.3646 28.8792 54.9308 27.0198 55.1085L26.6667 55.1253C24.7607 55.1253 23.1945 53.6711 23.0168 51.8118L23 51.4586V42.9694C23 41.8586 23.4263 40.7959 24.1815 39.9955L24.48 39.7081L45.1485 21.6248Z" fill="white"/>
</svg>
