<?xml version="1.0" encoding="UTF-8"?>
<svg width="36px" height="36px" viewBox="0 0 36 36" version="1.1" xmlns="http://www.w3.org/2000/svg" xmlns:xlink="http://www.w3.org/1999/xlink">
    <title>logo / housing anywhere</title>
    <g id="logo-/-housing-anywhere" stroke="none" stroke-width="1" fill="none" fill-rule="evenodd">
        <circle id="Oval" fill="#FA7009" cx="18" cy="18" r="18"></circle>
        <path d="M16.9307027,8.10920639 C17.5025481,7.60888742 18.3375684,7.57556897 18.9444643,8.00922876 L19.0708427,8.10930347 L26.8201255,14.8905466 C27.1335619,15.1648286 27.3281974,15.5475081 27.3675801,15.958249 L27.375,16.1134352 L27.375,24.75 C27.375,25.6002278 26.7220303,26.2979464 25.8902112,26.3690353 L25.75,26.375 L10,26.375 C9.24060847,26.375 8.625,25.7593915 8.625,25 C8.625,24.2852786 9.17031408,23.697922 9.86757832,23.6312944 L10,23.625 L24.625,23.625 L24.625,16.624 L18,10.826 L11.375,16.623 L11.375,19.2969006 C11.375,20.0116221 10.8296859,20.5989786 10.1324217,20.6656063 L10,20.6719006 C9.28527856,20.6719006 8.69792205,20.1265865 8.63129436,19.4293223 L8.625,19.2969006 L8.625,16.1134489 C8.625,15.6969023 8.78484421,15.298381 9.06806545,14.9982453 L9.17998549,14.8904632 L16.9307027,8.10920639 Z" id="Path-Copy" fill="#FFFFFF" fill-rule="nonzero"></path>
    </g>
</svg>
