<svg width="24px" height="24px" viewBox="0 0 96 96" fill="none" xmlns="http://www.w3.org/2000/svg">
<rect width="96" height="96" fill="#FF6E14"/>
<path d="M80.6767 55.5676V46.9673C80.6767 45.9884 81.3073 45.4196 82.056 45.4196C82.8041 45.4196 83.434 46.002 83.434 46.9673V47.3515H83.474C84.2227 46.1737 85.3652 45.4196 86.8354 45.4196C88.8841 45.4196 90 46.8885 90 49.1245V55.5676H87.0323V49.958C87.0323 48.648 86.4153 48.2115 85.6543 48.2115C84.5112 48.2115 83.6451 49.1903 83.6451 51.2546V55.5676H80.6767ZM77.578 45.4196C76.7634 45.4196 76.0941 46.055 76.0941 47.0738V55.5676H79.0618V47.0738C79.0483 46.055 78.379 45.4196 77.578 45.4196ZM77.578 43.8448C78.5894 43.8448 79.3768 43.0119 79.3768 42.0324C79.3768 41.0536 78.5894 40.22 77.578 40.22C77.34 40.2199 77.1042 40.2667 76.8843 40.3578C76.6644 40.4488 76.4645 40.5823 76.2962 40.7506C76.1279 40.919 75.9944 41.1188 75.9034 41.3387C75.8123 41.5586 75.7655 41.7944 75.7656 42.0324C75.7527 43.0777 76.5801 43.8448 77.578 43.8448ZM69.7127 53.2258C68.3864 53.2258 67.5854 52.1669 67.5854 50.5927C67.5854 49.0179 68.3864 47.9732 69.7127 47.9732C71.0384 47.9732 71.8394 49.0322 71.8394 50.6063C71.8394 52.1811 71.0384 53.2265 69.7127 53.2265V53.2258ZM69.7127 55.7665C72.8379 55.7665 74.8465 53.6229 74.8465 50.5927C74.8465 47.5632 72.8373 45.4203 69.7127 45.4203C66.5876 45.4203 64.5783 47.5632 64.5783 50.5927C64.5783 53.6229 66.5876 55.7665 69.7127 55.7665ZM58.1175 50.5927C58.1175 52.2205 58.9049 53.1857 60.1926 53.1857C61.0458 53.1857 61.6764 52.7628 61.9914 52.194H62.0308L64.1839 53.5828C63.4359 55.0518 61.8733 55.7665 60.1003 55.7665C57.0144 55.7665 55.124 53.6229 55.124 50.5927C55.124 47.5632 57.0144 45.4203 60.1003 45.4203C61.8733 45.4203 63.4359 46.1344 64.1839 47.6026L62.0314 48.9921H61.9921C61.6771 48.4097 61.0465 47.9997 60.1933 47.9997C58.9063 48.0133 58.1182 48.9656 58.1182 50.5927H58.1175ZM44.6847 55.5683V46.9679C44.6847 45.9884 45.3154 45.4203 46.0641 45.4203C46.8121 45.4203 47.442 46.002 47.442 46.9679V47.3515H47.4821C48.2308 46.1737 49.3732 45.4196 50.8435 45.4196C52.8921 45.4196 54.008 46.8885 54.008 49.1245V55.5676H51.0403V49.958C51.0403 48.648 50.4233 48.2115 49.6624 48.2115C48.5193 48.2115 47.6531 49.1903 47.6531 51.2546V55.5676H44.6847V55.5683ZM38.3692 53.2265C37.0428 53.2265 36.2418 52.1675 36.2418 50.5927C36.2418 49.0179 37.0428 47.9732 38.3692 47.9732C39.6949 47.9732 40.4959 49.0322 40.4959 50.6063C40.4959 52.1811 39.6949 53.2265 38.3692 53.2265ZM38.3692 55.7665C41.4944 55.7665 43.503 53.6229 43.503 50.5927C43.503 47.5632 41.4937 45.4203 38.3692 45.4203C35.244 45.4203 33.2348 47.5632 33.2348 50.5927C33.2348 53.6229 35.244 55.7665 38.3692 55.7665ZM27.1941 53.2258C25.8678 53.2258 25.0668 52.1669 25.0668 50.5927C25.0668 49.0179 25.8678 47.9732 27.1941 47.9732C28.5205 47.9732 29.3215 49.0322 29.3215 50.6063C29.3215 52.1811 28.5205 53.2265 27.1941 53.2265V53.2258ZM28.1791 45.4203C26.9708 45.4203 25.9336 45.9226 25.0933 46.9944H25.0539V42.2306C25.0539 41.2117 24.3839 40.5764 23.57 40.5764C22.7555 40.5764 22.0862 41.2117 22.0862 42.2306V55.567H24.857V54.0587H24.8964C25.5657 55.1305 26.7088 55.7659 28.0739 55.7659C30.6214 55.7659 32.355 53.5557 32.355 50.5527C32.3686 47.6155 30.7001 45.4189 28.1791 45.4189V45.4203ZM19.4857 51.691C19.1049 52.4323 18.1329 53.3317 16.9511 53.3317C16.2818 53.3317 15.8874 53.0405 15.6118 52.8022L20.8514 49.0186C20.2473 47.0209 18.7764 45.4196 16.0584 45.4196C12.9197 45.4196 11.4358 48.0398 11.4358 50.1563C11.4358 51.0563 11.6069 51.8634 11.9089 52.5911C11.239 52.9611 10.7143 53.2394 10.2411 53.2394C9.36141 53.2394 8.94124 52.7235 8.94124 51.7575V42.217C8.94124 41.2117 8.27126 40.5764 7.47028 40.5764C6.6693 40.5764 6 41.2117 6 42.217V52.008C6 54.2569 7.5626 55.7523 9.78159 55.7523C10.8846 55.7523 11.9877 55.3817 13.2747 54.5216C14.1839 55.3363 15.3631 55.7845 16.5838 55.7794C19.1443 55.7794 20.6675 54.6418 21.4162 53.1199L19.4857 51.691ZM16.0578 47.8015C17.0434 47.8015 17.3977 48.3968 17.5688 48.6615L14.2854 51.1222C14.1673 50.8181 14.0621 50.328 14.0621 49.9974C14.0757 48.4891 15.1258 47.8015 16.0578 47.8015Z" fill="white"/>
</svg>
