<svg width="24px" height="24px" viewBox="0 0 96 96" fill="none" xmlns="http://www.w3.org/2000/svg">
<rect width="96" height="96" fill="#F15A31"/>
<path fill-rule="evenodd" clip-rule="evenodd" d="M40.1511 40.0993L40.2065 40.237C41.8614 44.4286 43.7615 49.1376 45.5814 53.8198C46.5481 56.3051 47.4457 58.4655 48.3192 60.7029C48.3674 60.8262 48.3759 60.9012 48.4542 61.063C48.599 60.7394 48.5801 60.7831 48.6851 60.5013L49.4242 58.5216C51.6081 52.6718 54.0842 46.0411 56.0535 40.5259C56.0816 40.4483 56.1109 40.3765 56.1409 40.3054L56.2264 40.0993H60.3809L60.2732 40.3922C60.0429 41.0138 59.7344 41.8625 59.4089 42.7574C58.889 44.1886 58.3496 45.6693 58 46.5969C55.1507 54.1557 52.2943 61.712 49.4385 69.2689C49.2741 69.7033 49.0798 70.2095 48.8567 70.7007C47.2742 74.1703 44.5691 76 41.0056 76C39.9149 76 38.7597 75.9009 37.5445 75.5003L37.3899 72.6465H37.6071C38.0428 72.6465 38.472 72.6511 38.8954 72.655C39.8504 72.6641 40.7525 72.6733 41.6644 72.6348C43.0258 72.5787 44.0812 71.8918 44.7165 70.6466C45.3166 69.4692 45.8672 68.1339 46.3982 66.5651C46.5136 66.2259 46.2833 65.6513 46.132 65.2716C45.1822 62.8881 44.1757 60.3591 43.1464 57.7728C40.8001 51.8792 38.3735 45.7848 36.2164 40.3974L36.0963 40.0993H40.1511ZM48.012 29.7238C50.0739 29.7238 51.7451 31.3957 51.7451 33.4569C51.7451 35.5189 50.0739 37.1907 48.012 37.1907C45.95 37.1907 44.2782 35.5189 44.2782 33.4569C44.2782 31.3957 45.95 29.7238 48.012 29.7238ZM38.9685 23.5674C41.6696 21.0391 45.1979 19.7834 48.903 20.0306C55.2583 20.4507 60.5257 25.5419 61.1558 31.8718C61.2771 33.0825 61.2347 34.2951 61.0319 35.4765L61.0156 35.5691H57.1448L57.1781 35.4308C57.2922 34.9657 57.3698 34.5424 57.409 34.1732C57.467 33.7798 57.4944 33.4452 57.4944 33.1445C57.4944 28.3122 53.8304 24.3019 48.9708 23.8159C48.4764 23.765 47.9911 23.7553 47.5292 23.7866L47.4248 23.7938C42.3408 24.0912 38.5086 28.1113 38.5086 33.1445C38.5086 33.4426 38.5366 33.77 38.5947 34.1471C38.6417 34.5352 38.7264 34.9651 38.8465 35.4295L38.883 35.5691H34.9881L34.9718 35.4765C34.8446 34.7368 34.78 33.9788 34.78 33.2228C34.78 29.5249 36.2679 26.0957 38.9685 23.5674Z" fill="white"/>
</svg>
