<svg width="24px" height="24px" viewBox="0 0 96 96" fill="none" xmlns="http://www.w3.org/2000/svg">
<rect width="96" height="96" fill="#008BE3"/>
<path d="M20.94 56.7477V59.6157H12.72V56.7477H20.94Z" fill="white"/>
<path d="M21.8519 42.6238V46.0438H12.7559V30.5158H16.3079V42.6238H21.8519Z" fill="white"/>
<path d="M23.1118 38.2799C23.1118 33.7079 26.7238 30.2039 31.1878 30.2039C35.6518 30.2039 39.2638 33.7079 39.2638 38.2799C39.2638 42.8519 35.6518 46.3559 31.1878 46.3559C26.7238 46.3559 23.1118 42.8399 23.1118 38.2799ZM35.7118 38.2799C35.7118 35.5079 33.7198 33.6719 31.1878 33.6719C28.6558 33.6719 26.6638 35.5079 26.6638 38.2799C26.6638 41.0519 28.6558 42.8879 31.1878 42.8879C33.7198 42.8879 35.7118 41.0519 35.7118 38.2799Z" fill="white"/>
<path d="M57.42 38.7239C57.42 43.4759 54.12 46.3559 49.764 46.3559C44.88 46.3559 41.376 42.7679 41.376 38.3039C41.376 33.8039 44.952 30.2039 49.512 30.2039C52.488 30.2039 54.996 31.6679 56.304 33.7559L53.292 35.4839C52.644 34.4639 51.252 33.6599 49.5 33.6599C46.884 33.6599 44.928 35.5919 44.928 38.3159C44.928 40.9559 46.788 42.8879 49.812 42.8879C51.876 42.8879 53.232 41.9759 53.784 40.4879H49.632V37.3919H57.42V38.7239Z" fill="white"/>
<path d="M64.2358 30.5158V46.0438H60.6838V30.5158H64.2358Z" fill="white"/>
<path d="M67.4878 38.2799C67.4878 33.7079 70.8838 30.2039 75.5638 30.2039C78.3838 30.2039 80.8678 31.5959 82.2118 33.7919L79.1518 35.5679C78.4678 34.3679 77.1358 33.6599 75.5638 33.6599C72.8158 33.6599 71.0398 35.5079 71.0398 38.2799C71.0398 41.0519 72.8158 42.8879 75.5638 42.8879C77.1358 42.8879 78.4918 42.1799 79.1518 40.9799L82.2118 42.7559C80.8798 44.9519 78.3958 46.3439 75.5638 46.3439C70.8838 46.3439 67.4878 42.8399 67.4878 38.2799Z" fill="white"/>
<path d="M26.9639 50.0277V65.5557H23.4119V50.0277H26.9639Z" fill="white"/>
<path d="M45.7558 65.5557H42.2038V56.5317L38.1838 63.1197H37.7878L33.7678 56.5317V65.5557H30.2158V50.0277H33.7678L37.9798 56.9277L42.1918 50.0277H45.7438V65.5557H45.7558Z" fill="white"/>
<path d="M64.5358 65.5557H60.9838V56.5317L56.9638 63.1197H56.5678L52.5598 56.5317V65.5557H49.0078V50.0277H52.5598L56.7718 56.9277L60.9838 50.0277H64.5358V65.5557Z" fill="white"/>
<path d="M67.1279 57.7918C67.1279 53.2198 70.7399 49.7158 75.2039 49.7158C79.668 49.7158 83.28 53.2198 83.28 57.7918C83.28 62.3638 79.668 65.8678 75.2039 65.8678C70.7519 65.8678 67.1279 62.3638 67.1279 57.7918ZM79.728 57.7918C79.728 55.0198 77.736 53.1838 75.2039 53.1838C72.6719 53.1838 70.6799 55.0198 70.6799 57.7918C70.6799 60.5638 72.6719 62.3998 75.2039 62.3998C77.736 62.4118 79.728 60.5638 79.728 57.7918Z" fill="white"/>
</svg>
