<svg width="24px" height="24px" viewBox="0 0 96 96" fill="none" xmlns="http://www.w3.org/2000/svg">
<rect width="96" height="96" fill="#ECEFF4"/>
<path d="M71.9998 27.3335C78.1631 27.3335 83.8249 30.4339 87.443 35.5617C88.5043 37.0659 88.1453 39.1457 86.6411 40.2071C85.1369 41.2684 83.0571 40.9094 81.9958 39.4052C79.5956 36.0035 75.9373 34.0002 71.9998 34.0002C65.0665 34.0002 59.3332 40.2112 59.3332 48.0002C59.3332 55.7891 65.0665 62.0002 71.9998 62.0002C75.8912 62.0002 79.5104 60.0441 81.9135 56.7104C82.9901 55.2171 85.0734 54.8791 86.5668 55.9556C88.0602 57.0322 88.3981 59.1155 87.3216 60.6089C83.6964 65.6378 78.0919 68.6668 71.9998 68.6668C61.2601 68.6668 52.6665 59.3571 52.6665 48.0002C52.6665 36.6432 61.2601 27.3335 71.9998 27.3335Z" fill="#508ED6"/>
<path d="M14.6667 28.665C15.9883 28.665 17.2405 29.2249 18.1202 30.1931L18.3993 30.5307L29.3387 45.1094L40.2659 30.5361C41.7259 28.5884 44.416 28.1068 46.4477 29.3616L46.799 29.6011C47.8571 30.3942 48.5234 31.5942 48.6461 32.8973L48.6667 33.3351V64.0001C48.6667 65.841 47.1743 67.3334 45.3333 67.3334C43.6074 67.3334 42.1879 66.0217 42.0172 64.3409L42 64.0001V39.3361L33.0754 51.2436C32.8985 51.4795 32.7 51.6978 32.4824 51.8958L32.1423 52.1771C30.1953 53.6381 27.478 53.3472 25.8789 51.5738L25.6087 51.2455L16.6667 39.3281V64.0001C16.6667 65.726 15.355 67.1455 13.6741 67.3162L13.3333 67.3334C11.6074 67.3334 10.1879 66.0217 10.0172 64.3409L10 64.0001V33.3317C10 30.7544 12.0893 28.665 14.6667 28.665Z" fill="#F37D20"/>
</svg>
