<svg width="24px" height="24px" viewBox="0 0 96 96" fill="none" xmlns="http://www.w3.org/2000/svg">
<rect width="96" height="96" fill="#E00034"/>
<path fill-rule="evenodd" clip-rule="evenodd" d="M63.6468 30.9336C63.498 30.7563 63.2998 30.6665 63.0572 30.6665H57.081C56.8372 30.6665 56.6089 30.7563 56.3945 30.9336C56.1788 31.1108 56.05 31.3172 56.0068 31.5527L51.8139 54.4503C51.4462 56.4576 51.4506 58.0891 51.8295 59.3431C52.2078 60.6002 52.8443 61.5641 53.7384 62.2451C54.6344 62.9237 55.7355 63.382 57.046 63.6169C58.3565 63.8536 59.7408 63.9713 61.2021 63.9713C61.8098 63.9713 62.8527 63.9446 63.5543 63.893C64.4078 63.8311 65.2612 63.7419 66.0103 63.6424C66.6255 63.5592 67.1001 63.4839 67.4809 63.3953C68.1124 63.2782 68.4719 62.968 68.5645 62.4654L69.3179 58.3471C69.3623 58.1116 69.3079 57.904 69.1591 57.7268C69.0078 57.5495 68.8108 57.4627 68.5688 57.4627H61.9836C60.9182 57.4627 60.2048 57.2472 59.8428 56.8193C59.4801 56.3914 59.4032 55.6017 59.6145 54.4503L63.8075 31.5527C63.8513 31.3172 63.7981 31.1108 63.6468 30.9336ZM47.9198 33.4919C46.5049 33.2655 44.706 33.1508 42.5745 33.1508C38.8849 33.1508 35.9949 33.8324 33.9866 35.1793C32.0077 36.505 30.7666 38.4801 30.2945 41.0464C29.995 42.6894 30.1332 44.1504 30.7065 45.3905C31.2805 46.633 32.2297 47.6697 33.5252 48.4715L39.9672 52.4909C40.7269 52.9607 41.2302 53.3844 41.5072 53.7862C41.8148 54.2354 41.9199 54.7276 41.8248 55.2472C41.671 56.0903 41.2909 56.73 40.6962 57.1452C40.116 57.5513 39.13 57.7485 37.6806 57.7485C37.2292 57.7485 36.6189 57.7303 35.8711 57.6951C35.1171 57.6593 34.2949 57.6047 33.4251 57.5319C32.5635 57.4621 31.6738 57.3801 30.7822 57.2909C29.9218 57.2041 29.1171 57.1064 28.3937 56.9983H28.2118C28.0092 56.9983 27.8572 57.0505 27.7316 57.1628C27.5946 57.2854 27.5152 57.4262 27.4815 57.6059L26.6861 61.947C26.6155 62.3343 26.7287 62.5024 27.1382 62.6116C27.7828 62.7865 28.515 62.9443 29.3172 63.0845C30.1163 63.2241 30.9648 63.3497 31.837 63.456C32.6998 63.561 33.5646 63.6417 34.4055 63.6945C35.2453 63.7467 36.0518 63.7734 36.8084 63.7734C38.7648 63.7734 40.518 63.5464 42.0168 63.0991C43.508 62.6529 44.8054 62.0387 45.8746 61.2714C46.9332 60.5115 47.796 59.5968 48.44 58.5504C49.0853 57.4997 49.5224 56.3652 49.7393 55.1798C49.8625 54.5061 49.9188 53.8172 49.9031 53.1349C49.8888 52.4854 49.7437 51.8336 49.4742 51.1968C49.201 50.5547 48.7814 49.9167 48.2243 49.2988C47.6628 48.6779 46.8806 48.0497 45.9021 47.4324L39.7471 43.6236C39.2125 43.2746 38.8186 42.9589 38.541 42.6567C38.1927 42.2761 38.0614 41.7887 38.1602 41.2479C38.3365 40.2822 38.8993 39.8458 39.3394 39.6491C39.8928 39.4021 40.7231 39.2825 41.8755 39.2825C42.5826 39.2825 43.3967 39.3092 44.2946 39.3632C45.1756 39.4166 46.0603 39.4797 46.9213 39.552C47.7779 39.6242 48.5782 39.7061 49.2991 39.7948C50.0007 39.8822 50.5509 39.9447 50.9354 39.9787H51.078C51.3356 39.9787 51.5951 39.9313 51.6982 39.3717L52.4936 35.0312C52.5636 34.6427 52.4492 34.4758 52.0384 34.3647C50.7278 34.0151 49.3423 33.7214 47.9198 33.4919Z" fill="white"/>
</svg>
