<svg width="24px" height="24px" viewBox="0 0 96 96" fill="none" xmlns="http://www.w3.org/2000/svg">
<rect width="96" height="96" fill="#36417D"/>
<path fill-rule="evenodd" clip-rule="evenodd" d="M86.4926 52.6793L48.0609 14.3999L48.0452 14.4156L48.0295 14.3999L33.3351 29.0361V22.3161H26.7719V35.5769L9.6001 52.6815L14.2929 57.3586L20.1908 51.4853V53.0242C20.1908 68.3234 32.6855 80.7733 48.0452 80.7733C63.4027 80.7733 75.8996 68.3234 75.8996 53.0242V51.4853L81.7953 57.3586L86.4903 52.6815L86.4926 52.6793ZM69.3342 53.022C69.3342 64.7148 59.7829 74.2303 48.0453 74.2303C36.3077 74.2303 26.7563 64.717 26.7563 53.022V44.9423L48.0453 23.7362L69.3342 44.9423V53.022ZM36.4804 60.6753C38.7966 64.74 43.106 67.2639 47.7271 67.2639C54.8894 67.2639 60.7164 61.3479 60.7164 54.0783V52.4799H54.1007V54.0783C54.1007 57.6453 51.2409 60.5488 47.7271 60.5488C45.4577 60.5488 43.3423 59.3084 42.2057 57.3121L36.4804 60.6753Z" fill="white"/>
</svg>
