<svg width="96" height="96" viewBox="0 0 96 96" fill="none" xmlns="http://www.w3.org/2000/svg">
<rect width="96" height="96" fill="#FF0059"/>
<path d="M44.7038 48.7237C51.556 48.7237 57.1107 43.169 57.1107 36.3169C57.1107 29.4647 51.556 23.91 44.7038 23.91C37.8517 23.91 32.297 29.4647 32.297 36.3169C32.297 43.169 37.8517 48.7237 44.7038 48.7237Z" fill="white"/>
<path d="M46.7819 51.8873C46.0996 51.8563 45.4172 51.8253 44.7038 51.8253C37.1976 51.8253 30.1877 53.9034 24.2014 57.4704C21.4719 59.0833 19.89 62.123 19.89 65.3177V73.5373H48.6119C46.1616 70.0324 44.7038 65.752 44.7038 61.1304C44.7038 57.8116 45.4792 54.7099 46.7819 51.8873Z" fill="white"/>
<path d="M53.2196 65.2196H48.987L50.4245 61.7456H52.5408C52.5408 61.3729 52.5275 61.1333 52.5009 61.0268V60.3879C52.5009 60.2548 52.5142 60.135 52.5408 60.0286H48.987L50.4245 56.5546H53.1797C54.2179 53.5997 55.9216 51.2704 58.2909 49.5666C60.6601 47.8363 63.3621 46.9711 66.3969 46.9711C68.3135 46.9711 70.0306 47.3172 71.548 48.0093C73.092 48.6749 74.6226 49.7796 76.14 51.3236L74.5827 55.0372C73.1452 53.573 71.7742 52.5215 70.4698 51.8826C69.1654 51.2171 67.7412 50.8844 66.1972 50.8844C63.5351 50.8844 61.2857 51.9226 59.4489 53.999C58.6236 54.9041 58.0247 55.7559 57.652 56.5546H73.9837L72.5063 60.0286H56.7336C56.707 60.3214 56.6936 60.6142 56.6936 60.907C56.6936 61.1732 56.707 61.4528 56.7336 61.7456H71.7875L70.35 65.2196H57.652C58.5571 66.9499 59.7816 68.3209 61.3256 69.3325C62.8696 70.3174 64.5334 70.8099 66.317 70.8099C67.9409 70.8099 69.405 70.4638 70.7094 69.7717C72.0138 69.0796 73.438 67.9083 74.982 66.2578V71.6085C72.4531 73.6849 69.618 74.7231 66.4767 74.7231C63.3887 74.7231 60.6867 73.8979 58.3707 72.2474C56.0814 70.5969 54.3643 68.2543 53.2196 65.2196Z" fill="white"/>
</svg>
