<svg width="96" height="96" viewBox="0 0 96 96" fill="none" xmlns="http://www.w3.org/2000/svg">
<rect width="96" height="96" fill="#FF0059"/>
<path d="M48 18.8333C51.8302 18.8333 55.6229 19.5877 59.1616 21.0535C62.7002 22.5193 65.9156 24.6677 68.6239 27.376C71.3323 30.0844 73.4807 33.2997 74.9465 36.8384C76.4122 40.377 77.1666 44.1698 77.1666 48C77.1666 55.7355 74.0937 63.1541 68.6239 68.6239C63.1541 74.0937 55.7355 77.1666 48 77.1666C44.1698 77.1666 40.377 76.4122 36.8384 74.9465C33.2997 73.4807 30.0844 71.3323 27.376 68.6239C21.9062 63.1541 18.8333 55.7355 18.8333 48C18.8333 40.2645 21.9062 32.8458 27.376 27.376C32.8458 21.9062 40.2645 18.8333 48 18.8333ZM48 24.6666C41.8116 24.6666 35.8767 27.125 31.5008 31.5008C27.125 35.8767 24.6666 41.8116 24.6666 48C24.6666 54.1884 27.125 60.1233 31.5008 64.4991C35.8767 68.875 41.8116 71.3333 48 71.3333C54.1884 71.3333 60.1233 68.875 64.4991 64.4991C68.875 60.1233 71.3333 54.1884 71.3333 48C71.3333 41.8116 68.875 35.8767 64.4991 31.5008C60.1233 27.125 54.1884 24.6666 48 24.6666ZM48 43.625C49.1603 43.625 50.2731 44.0859 51.0936 44.9064C51.914 45.7269 52.375 46.8397 52.375 48C52.375 49.1603 51.914 50.2731 51.0936 51.0936C50.2731 51.914 49.1603 52.375 48 52.375C46.8397 52.375 45.7269 51.914 44.9064 51.0936C44.0859 50.2731 43.625 49.1603 43.625 48C43.625 46.8397 44.0859 45.7269 44.9064 44.9064C45.7269 44.0859 46.8397 43.625 48 43.625ZM34.875 43.625C36.0353 43.625 37.1481 44.0859 37.9686 44.9064C38.789 45.7269 39.25 46.8397 39.25 48C39.25 49.1603 38.789 50.2731 37.9686 51.0936C37.1481 51.914 36.0353 52.375 34.875 52.375C33.7147 52.375 32.6019 51.914 31.7814 51.0936C30.9609 50.2731 30.5 49.1603 30.5 48C30.5 46.8397 30.9609 45.7269 31.7814 44.9064C32.6019 44.0859 33.7147 43.625 34.875 43.625ZM61.125 43.625C62.2853 43.625 63.3981 44.0859 64.2186 44.9064C65.039 45.7269 65.5 46.8397 65.5 48C65.5 49.1603 65.039 50.2731 64.2186 51.0936C63.3981 51.914 62.2853 52.375 61.125 52.375C59.9647 52.375 58.8519 51.914 58.0314 51.0936C57.2109 50.2731 56.75 49.1603 56.75 48C56.75 46.8397 57.2109 45.7269 58.0314 44.9064C58.8519 44.0859 59.9647 43.625 61.125 43.625Z" fill="white"/>
</svg>
