<svg width="96" height="96" viewBox="0 0 96 96" fill="none" xmlns="http://www.w3.org/2000/svg">
<rect width="96" height="96" fill="#FF0059"/>
<path d="M31.3872 48.1476C31.3872 46.2268 30.8946 44.7002 30.6483 43.6166C30.4803 42.6954 30.0532 41.8412 29.4171 41.1541C28.6801 40.5255 27.801 40.0859 26.8559 39.8736C25.3288 39.4996 23.7839 39.2037 22.2267 38.9871C21.5865 38.9871 21.2413 38.5438 21.2413 38.002C21.2347 37.8791 21.2527 37.7562 21.2936 37.6401C21.3346 37.524 21.3983 37.4172 21.4806 37.3257C21.563 37.2342 21.6623 37.1598 21.7734 37.1068C21.8845 37.0539 22.0052 37.0233 22.1281 37.017C24.0981 36.623 25.6739 36.3277 26.8067 35.9829C27.7478 35.7869 28.6269 35.3642 29.3678 34.7516C29.9974 34.0724 30.4389 33.2403 30.6483 32.3381C30.8946 31.2546 31.1409 29.7772 31.3872 27.8565C31.3792 27.7272 31.3993 27.5977 31.4467 27.4771C31.4941 27.3566 31.5675 27.248 31.6613 27.1588C31.7552 27.0696 31.8674 27.0021 31.9902 26.961C32.113 26.9199 32.2433 26.9061 32.372 26.9207C32.4949 26.9141 32.6178 26.9317 32.7339 26.9727C32.85 27.0137 32.9568 27.0773 33.0483 27.1597C33.1398 27.242 33.2142 27.3416 33.2671 27.4528C33.3201 27.5639 33.351 27.6842 33.3573 27.8072C33.3573 29.7772 33.8494 31.304 34.0956 32.4367C34.2123 33.3971 34.6509 34.2897 35.3395 34.9693C36.028 35.6489 36.9261 36.0757 37.888 36.1798C39.0207 36.4753 40.5967 36.7215 42.813 37.017C43.035 37.0545 43.2407 37.1574 43.404 37.3125C43.4529 37.4208 43.4785 37.5384 43.4785 37.6572C43.4785 37.7761 43.4529 37.8937 43.404 38.002C43.418 38.2424 43.3387 38.479 43.1827 38.6625C43.0268 38.8459 42.8066 38.9622 42.5671 38.9871C40.5479 39.3319 38.9718 39.6767 37.6421 39.9722C36.711 40.1825 35.8474 40.6225 35.1303 41.2524C34.4762 41.9335 34.0316 42.7883 33.8497 43.7149C33.8497 44.7985 33.3571 46.2761 33.1108 48.1969C33.0661 48.4412 32.9457 48.6653 32.7663 48.8372C32.5596 48.9125 32.3328 48.9125 32.1261 48.8372C31.9474 48.8112 31.7807 48.731 31.6487 48.6078C31.5167 48.4846 31.4254 48.3241 31.3872 48.1476ZM51.0873 80.6527C50.8101 80.3943 50.6353 80.0448 50.5949 79.6679C50.2583 77.0016 49.7814 74.3546 49.1665 71.7384C48.7808 69.8692 48.099 68.0738 47.1471 66.4196C46.3134 65.0654 45.1647 63.9331 43.7984 63.1196C42.1658 62.1958 40.4068 61.5157 38.5776 61.1005C36.4105 60.608 33.6526 60.1646 30.6976 59.7213C30.5103 59.7288 30.3233 59.6967 30.1493 59.6269C29.9753 59.5571 29.8184 59.4513 29.6882 59.3164C29.558 59.1815 29.4573 59.0205 29.3936 58.8442C29.33 58.6678 29.3044 58.4801 29.3185 58.2931C29.3104 58.122 29.3368 57.951 29.396 57.7902C29.4552 57.6295 29.5464 57.4824 29.6636 57.3574C29.9343 57.0693 30.3033 56.8936 30.6976 56.865C33.3454 56.6033 35.9762 56.1923 38.5776 55.6337C40.426 55.2554 42.2043 54.5906 43.8477 53.6636C45.2256 52.8224 46.3754 51.6554 47.1964 50.2653C48.1401 48.6073 48.8215 46.8129 49.2158 44.9462C49.8302 42.2992 50.2908 39.6187 50.5949 36.9184C50.6464 36.559 50.8203 36.2288 51.0873 35.9829C51.2123 35.8658 51.3595 35.7749 51.5202 35.7157C51.6809 35.6565 51.8517 35.6301 52.0228 35.6381C52.1942 35.6271 52.366 35.6521 52.5272 35.7115C52.6884 35.7708 52.8356 35.8634 52.9589 35.9829C53.2259 36.2288 53.3997 36.559 53.4512 36.9184C53.8452 40.0704 54.3379 42.7792 54.8304 44.9462C55.2247 46.8129 55.9055 48.6073 56.8492 50.2653C57.6702 51.6554 58.8206 52.8224 60.1985 53.6636C61.8419 54.5906 63.6196 55.2554 65.468 55.6337C68.0854 56.1957 70.7334 56.6068 73.3979 56.865C73.5792 56.8787 73.7558 56.9294 73.9167 57.0141C74.0777 57.0988 74.2193 57.2157 74.3333 57.3574C74.4644 57.4743 74.5676 57.6191 74.6357 57.7809C74.7039 57.9428 74.7351 58.1177 74.7271 58.2931C74.7427 58.4767 74.7156 58.6614 74.6472 58.8324C74.5788 59.0034 74.4712 59.1561 74.3333 59.2782C74.2238 59.4212 74.0819 59.536 73.9191 59.6131C73.7564 59.6902 73.5779 59.7271 73.3979 59.7213C70.732 59.993 68.0839 60.4206 65.468 61.0019C63.6134 61.3584 61.8322 62.0245 60.1985 62.972C58.8264 63.7993 57.6766 64.9489 56.8492 66.321C55.9057 67.9967 55.2252 69.8073 54.8304 71.6894C54.3379 73.8564 53.8452 76.6144 53.4512 79.6679C53.4109 80.0448 53.2361 80.3943 52.9589 80.6527C52.8356 80.7722 52.6884 80.8648 52.5272 80.9241C52.366 80.9835 52.1942 81.0085 52.0228 80.9975C51.824 81.0013 51.627 80.9588 51.4474 80.8733C51.2679 80.7878 51.1111 80.6618 50.9887 80.5051L51.0873 80.6527ZM45.6699 28.4475C45.5191 27.5188 45.3219 26.5983 45.0789 25.6895C44.9872 25.1193 44.7302 24.5885 44.3401 24.1627C43.9027 23.7582 43.3811 23.4555 42.813 23.2762C41.8561 23.0255 40.8862 22.8283 39.9074 22.6853C39.8232 22.679 39.741 22.6563 39.6657 22.6182C39.5904 22.5802 39.5235 22.5275 39.4685 22.4634C39.4136 22.3993 39.372 22.3248 39.3459 22.2446C39.3198 22.1643 39.3097 22.0798 39.3164 21.9957C39.3164 21.6509 39.3164 21.4539 39.9074 21.3554C40.8879 21.2002 41.8581 20.9863 42.813 20.7151C43.3852 20.5713 43.9112 20.2831 44.3401 19.878C44.7212 19.4461 44.9768 18.9181 45.0789 18.3512C45.3262 17.4267 45.5235 16.4896 45.6699 15.5439C45.6936 15.3917 45.7711 15.2529 45.8887 15.1534C46.0063 15.0539 46.1561 15.0004 46.3102 15.0022C46.3879 14.9955 46.4656 15.0041 46.5398 15.0278C46.6141 15.0514 46.6835 15.0895 46.7431 15.1399C46.8026 15.1902 46.8512 15.2518 46.8867 15.3212C46.9223 15.3905 46.9443 15.4662 46.9505 15.5439C47.0969 16.4896 47.2942 17.4267 47.5414 18.3512C47.6272 18.9396 47.8974 19.4856 48.3134 19.9104C48.7294 20.3353 49.2696 20.617 49.8561 20.7151C50.811 20.9863 51.7812 21.2002 52.7617 21.3554C53.1557 21.3554 53.3526 21.6509 53.3526 21.9957C53.3594 22.0798 53.3493 22.1643 53.3232 22.2446C53.2971 22.3248 53.2555 22.3993 53.2005 22.4634C53.1456 22.5275 53.0787 22.5802 53.0034 22.6182C52.928 22.6563 52.8458 22.679 52.7617 22.6853C51.7829 22.8283 50.813 23.0255 49.8561 23.2762C49.2737 23.4563 48.736 23.7585 48.2797 24.1627C47.9084 24.601 47.6547 25.1263 47.5414 25.6895C47.2985 26.5983 47.1013 27.5188 46.9505 28.4475C46.9508 28.5294 46.9339 28.6104 46.9012 28.6855C46.8684 28.7607 46.8201 28.8284 46.7599 28.8839C46.6997 28.9395 46.6288 28.9818 46.5513 29.0084C46.4738 29.035 46.3918 29.0453 46.3102 29.0384C45.9654 29.0877 45.7684 28.8907 45.6699 28.4475Z" fill="white"/>
</svg>
