<svg width="30" height="29" viewBox="0 0 30 29" fill="none" xmlns="http://www.w3.org/2000/svg">
<g filter="url(#filter0_d_2310_74749)">
<path d="M2 5C2 2.79086 3.79086 1 6 1H24C26.2091 1 28 2.79086 28 5V23C28 25.2091 26.2091 27 24 27H6C3.79086 27 2 25.2091 2 23V5Z" fill="white"/>
<path d="M15.2698 9.17812C15.7792 9.17812 16.1922 8.76513 16.1922 8.25568C16.1922 7.74624 15.7792 7.33325 15.2698 7.33325C14.7603 7.33325 14.3473 7.74624 14.3473 8.25568C14.3473 8.76513 14.7603 9.17812 15.2698 9.17812Z" fill="currentColor"/>
<path d="M18.7915 8.25568C18.7915 8.76513 18.3785 9.17812 17.869 9.17812C17.3596 9.17812 16.9466 8.76513 16.9466 8.25568C16.9466 7.74624 17.3596 7.33325 17.869 7.33325C18.3785 7.33325 18.7915 7.74624 18.7915 8.25568Z" fill="currentColor"/>
<path d="M21.4328 8.25568C21.4328 8.76513 21.0198 9.17812 20.5103 9.17812C20.0009 9.17812 19.5879 8.76513 19.5879 8.25568C19.5879 7.74624 20.0009 7.33325 20.5103 7.33325C21.0198 7.33325 21.4328 7.74624 21.4328 8.25568Z" fill="currentColor"/>
<path d="M21.4328 10.8553C21.4328 11.3647 21.0198 11.7777 20.5103 11.7777C20.0009 11.7777 19.5879 11.3647 19.5879 10.8553C19.5879 10.3458 20.0009 9.93286 20.5103 9.93286C21.0198 9.93286 21.4328 10.3458 21.4328 10.8553Z" fill="currentColor"/>
<path d="M20.5103 14.419C21.0198 14.419 21.4328 14.006 21.4328 13.4966C21.4328 12.9871 21.0198 12.5741 20.5103 12.5741C20.0009 12.5741 19.5879 12.9871 19.5879 13.4966C19.5879 14.006 20.0009 14.419 20.5103 14.419Z" fill="currentColor"/>
<path d="M18.7915 10.8553C18.7915 11.3647 18.3785 11.7777 17.869 11.7777C17.3596 11.7777 16.9466 11.3647 16.9466 10.8553C16.9466 10.3458 17.3596 9.93286 17.869 9.93286C18.3785 9.93286 18.7915 10.3458 18.7915 10.8553Z" fill="currentColor"/>
<path d="M17.869 14.419C18.3785 14.419 18.7915 14.006 18.7915 13.4966C18.7915 12.9871 18.3785 12.5741 17.869 12.5741C17.3596 12.5741 16.9466 12.9871 16.9466 13.4966C16.9466 14.006 17.3596 14.419 17.869 14.419Z" fill="currentColor"/>
<path d="M14.4 10.5618C14.4 10.0666 14.7348 9.72323 15.2698 9.72323C15.731 9.72323 16.1084 10.1006 16.1084 10.5618V14.545C16.4438 14.545 17.3662 14.7966 17.0308 16.2641C16.6954 17.6897 15.4794 19.0314 15.4794 19.0314V20.6666H10.2383V19.0314C9.31592 18.4863 7.72263 13.4968 10.8254 13.4549C10.9511 12.5744 11.9574 12.197 12.6283 12.7421C12.8799 12.0293 13.7711 11.7968 14.4 12.3V10.5618Z" fill="currentColor"/>
</g>
<defs>
<filter id="filter0_d_2310_74749" x="0.5" y="0" width="29" height="29" filterUnits="userSpaceOnUse" color-interpolation-filters="sRGB">
<feFlood flood-opacity="0" result="BackgroundImageFix"/>
<feColorMatrix in="SourceAlpha" type="matrix" values="0 0 0 0 0 0 0 0 0 0 0 0 0 0 0 0 0 0 127 0" result="hardAlpha"/>
<feMorphology radius="0.5" operator="dilate" in="SourceAlpha" result="effect1_dropShadow_2310_74749"/>
<feOffset dy="0.5"/>
<feGaussianBlur stdDeviation="0.5"/>
<feColorMatrix type="matrix" values="0 0 0 0 0.0235294 0 0 0 0 0.0705882 0 0 0 0 0.286275 0 0 0 0.2 0"/>
<feBlend mode="normal" in2="BackgroundImageFix" result="effect1_dropShadow_2310_74749"/>
<feBlend mode="normal" in="SourceGraphic" in2="effect1_dropShadow_2310_74749" result="shape"/>
</filter>
</defs>
</svg>
