<svg width="30" height="29" viewBox="0 0 30 29" fill="none" xmlns="http://www.w3.org/2000/svg">
<g filter="url(#filter0_d_2310_74800)">
<path d="M2 5C2 2.79086 3.79086 1 6 1H24C26.2091 1 28 2.79086 28 5V23C28 25.2091 26.2091 27 24 27H6C3.79086 27 2 25.2091 2 23V5Z" fill="white"/>
<path d="M13.7963 13.6896C15.1889 13.6896 16.3178 12.5607 16.3178 11.1682C16.3178 9.77561 15.1889 8.64673 13.7963 8.64673C12.4038 8.64673 11.2749 9.77561 11.2749 11.1682C11.2749 12.5607 12.4038 13.6896 13.7963 13.6896Z" fill="currentColor"/>
<path d="M14.2186 14.3324C14.0799 14.3261 13.9413 14.3198 13.7963 14.3198C12.2708 14.3198 10.8462 14.7422 9.62962 15.4671C9.0749 15.7949 8.75342 16.4126 8.75342 17.0619V18.7323H14.5905C14.0926 18.02 13.7963 17.1501 13.7963 16.2109C13.7963 15.5364 13.9539 14.9061 14.2186 14.3324Z" fill="currentColor"/>
<path d="M20.5725 16.2109C20.5725 16.0722 20.5536 15.9461 20.5347 15.8137L21.2533 15.1771L20.623 14.0866L19.7089 14.3954C19.5072 14.2252 19.2803 14.0929 19.0282 13.9983L18.8391 13.0591H17.5783L17.3892 13.9983C17.1371 14.0929 16.9102 14.2252 16.7084 14.3954L15.7944 14.0866L15.1641 15.1771L15.8827 15.8137C15.8638 15.9461 15.8448 16.0722 15.8448 16.2109C15.8448 16.3496 15.8638 16.4756 15.8827 16.608L15.1641 17.2447L15.7944 18.3352L16.7084 18.0263C16.9102 18.1965 17.1371 18.3289 17.3892 18.4234L17.5783 19.3627H18.8391L19.0282 18.4234C19.2803 18.3289 19.5072 18.1965 19.7089 18.0263L20.623 18.3352L21.2533 17.2447L20.5347 16.608C20.5536 16.4756 20.5725 16.3496 20.5725 16.2109ZM18.2087 17.4716C17.5153 17.4716 16.948 16.9043 16.948 16.2109C16.948 15.5175 17.5153 14.9502 18.2087 14.9502C18.9021 14.9502 19.4694 15.5175 19.4694 16.2109C19.4694 16.9043 18.9021 17.4716 18.2087 17.4716Z" fill="currentColor"/>
</g>
<defs>
<filter id="filter0_d_2310_74800" x="0.5" y="0" width="29" height="29" filterUnits="userSpaceOnUse" color-interpolation-filters="sRGB">
<feFlood flood-opacity="0" result="BackgroundImageFix"/>
<feColorMatrix in="SourceAlpha" type="matrix" values="0 0 0 0 0 0 0 0 0 0 0 0 0 0 0 0 0 0 127 0" result="hardAlpha"/>
<feMorphology radius="0.5" operator="dilate" in="SourceAlpha" result="effect1_dropShadow_2310_74800"/>
<feOffset dy="0.5"/>
<feGaussianBlur stdDeviation="0.5"/>
<feColorMatrix type="matrix" values="0 0 0 0 0.0235294 0 0 0 0 0.0705882 0 0 0 0 0.286275 0 0 0 0.2 0"/>
<feBlend mode="normal" in2="BackgroundImageFix" result="effect1_dropShadow_2310_74800"/>
<feBlend mode="normal" in="SourceGraphic" in2="effect1_dropShadow_2310_74800" result="shape"/>
</filter>
</defs>
</svg>
