<svg width="30" height="29" viewBox="0 0 30 29" fill="none" xmlns="http://www.w3.org/2000/svg">
<g filter="url(#filter0_d_2310_74871)">
<path d="M2 5C2 2.79086 3.79086 1 6 1H24C26.2091 1 28 2.79086 28 5V23C28 25.2091 26.2091 27 24 27H6C3.79086 27 2 25.2091 2 23V5Z" fill="white"/>
<path d="M20.1853 7.33325H9.81498C9.00016 7.33325 8.3335 7.99992 8.3335 8.81473V19.1851C8.3335 19.9999 9.00016 20.6666 9.81498 20.6666H20.1853C21.0002 20.6666 21.6668 19.9999 21.6668 19.1851V8.81473C21.6668 7.99992 21.0002 7.33325 20.1853 7.33325ZM12.7779 17.7036H11.2965V13.9999H12.7779V17.7036ZM15.7409 17.7036H14.2594V15.4814H15.7409V17.7036ZM15.7409 13.9999H14.2594V12.5184H15.7409V13.9999ZM18.7039 17.7036H17.2224V10.2962H18.7039V17.7036Z" fill="currentColor"/>
</g>
<defs>
<filter id="filter0_d_2310_74871" x="0.5" y="0" width="29" height="29" filterUnits="userSpaceOnUse" color-interpolation-filters="sRGB">
<feFlood flood-opacity="0" result="BackgroundImageFix"/>
<feColorMatrix in="SourceAlpha" type="matrix" values="0 0 0 0 0 0 0 0 0 0 0 0 0 0 0 0 0 0 127 0" result="hardAlpha"/>
<feMorphology radius="0.5" operator="dilate" in="SourceAlpha" result="effect1_dropShadow_2310_74871"/>
<feOffset dy="0.5"/>
<feGaussianBlur stdDeviation="0.5"/>
<feColorMatrix type="matrix" values="0 0 0 0 0.0235294 0 0 0 0 0.0705882 0 0 0 0 0.286275 0 0 0 0.2 0"/>
<feBlend mode="normal" in2="BackgroundImageFix" result="effect1_dropShadow_2310_74871"/>
<feBlend mode="normal" in="SourceGraphic" in2="effect1_dropShadow_2310_74871" result="shape"/>
</filter>
</defs>
</svg>
