<svg width="30" height="29" viewBox="0 0 30 29" fill="none" xmlns="http://www.w3.org/2000/svg">
<g filter="url(#filter0_d_2310_74733)">
<path d="M2 5C2 2.79086 3.79086 1 6 1H24C26.2091 1 28 2.79086 28 5V23C28 25.2091 26.2091 27 24 27H6C3.79086 27 2 25.2091 2 23V5Z" fill="white"/>
<path d="M10.3793 7.75346C10.2019 7.75346 9.95996 7.8986 9.95996 8.07601V18.8824C9.95996 18.8985 10.0729 19.0759 10.1374 19.1566L10.8954 20.1244C10.9599 20.205 11.0568 20.2534 11.1535 20.2534C11.2503 20.2534 11.347 20.205 11.4116 20.1244L11.9278 19.4793L12.444 20.1244C12.5085 20.205 12.6053 20.2534 12.7021 20.2534C12.7988 20.2534 12.8956 20.205 12.9602 20.1244L13.4764 19.4793L13.9925 20.1244C14.1216 20.2857 14.3797 20.2857 14.4925 20.1244L15.0087 19.4793L15.5249 20.1244C15.6539 20.2857 15.912 20.2857 16.0248 20.1244L16.541 19.4793L17.0572 20.1244C17.1217 20.205 17.2185 20.2534 17.3153 20.2534C17.412 20.2534 17.5088 20.205 17.5734 20.1244L18.0896 19.4793L18.6058 20.1244C18.7348 20.2857 18.9929 20.2857 19.1057 20.1244L19.8638 19.1566C19.9282 19.0759 20.0412 18.7373 20.0412 18.7211L20.0404 8.07597C20.0404 7.89854 19.7985 7.75342 19.6211 7.75342L10.3793 7.75346ZM12.3792 10.0115H17.2179C17.3953 10.0115 17.5404 10.1728 17.5404 10.3502C17.5404 10.5276 17.3953 10.6728 17.2179 10.6728H12.3792C12.2018 10.6728 12.0567 10.5276 12.0567 10.3502C12.0567 10.1728 12.2018 10.0115 12.3792 10.0115ZM17.2179 16.6243H12.3792C12.2018 16.6243 12.0567 16.4469 12.0567 16.2695C12.0567 16.0921 12.2018 15.9469 12.3792 15.9469H17.2179C17.3953 15.9469 17.5404 16.0921 17.5404 16.2695C17.5406 16.4469 17.3953 16.6243 17.2179 16.6243ZM17.2179 14.5275H12.3792C12.2018 14.5275 12.0567 14.3501 12.0567 14.1727C12.0567 13.9953 12.2018 13.8501 12.3792 13.8501H17.2179C17.3953 13.8501 17.5404 13.9953 17.5404 14.1727C17.5406 14.3501 17.3953 14.5275 17.2179 14.5275ZM17.5406 12.2695C17.5406 12.5921 17.1857 12.6083 17.218 12.5921H12.3793C12.2019 12.5921 12.0568 12.447 12.0568 12.2695C12.0568 12.0921 12.2019 11.947 12.3793 11.947H17.218C17.3954 11.9469 17.5407 12.0921 17.5407 12.2695H17.5406Z" fill="currentColor"/>
</g>
<defs>
<filter id="filter0_d_2310_74733" x="0.5" y="0" width="29" height="29" filterUnits="userSpaceOnUse" color-interpolation-filters="sRGB">
<feFlood flood-opacity="0" result="BackgroundImageFix"/>
<feColorMatrix in="SourceAlpha" type="matrix" values="0 0 0 0 0 0 0 0 0 0 0 0 0 0 0 0 0 0 127 0" result="hardAlpha"/>
<feMorphology radius="0.5" operator="dilate" in="SourceAlpha" result="effect1_dropShadow_2310_74733"/>
<feOffset dy="0.5"/>
<feGaussianBlur stdDeviation="0.5"/>
<feColorMatrix type="matrix" values="0 0 0 0 0.0235294 0 0 0 0 0.0705882 0 0 0 0 0.286275 0 0 0 0.2 0"/>
<feBlend mode="normal" in2="BackgroundImageFix" result="effect1_dropShadow_2310_74733"/>
<feBlend mode="normal" in="SourceGraphic" in2="effect1_dropShadow_2310_74733" result="shape"/>
</filter>
</defs>
</svg>
