<svg width="30" height="29" viewBox="0 0 30 29" fill="none" xmlns="http://www.w3.org/2000/svg">
<g filter="url(#filter0_d_2310_74847)">
<path d="M2 5C2 2.79086 3.79086 1 6 1H24C26.2091 1 28 2.79086 28 5V23C28 25.2091 26.2091 27 24 27H6C3.79086 27 2 25.2091 2 23V5Z" fill="white"/>
<path d="M17.7533 16.0866L19 7.99992H16.3333V7.33325H13.6667V7.99992H10.3333C9.6 7.99992 9 8.59992 9 9.33325V11.9999C9 12.7333 9.6 13.3333 10.3333 13.3333H11.82L12.2467 16.0866C11.4933 16.6999 11 17.6199 11 18.6666V19.3333C11 20.0666 11.6 20.6666 12.3333 20.6666H17.6667C18.4 20.6666 19 20.0666 19 19.3333V18.6666C19 17.6199 18.5067 16.6999 17.7533 16.0866ZM10.3333 11.9999V9.33325H11.2067L11.62 11.9999H10.3333ZM15 18.6666C14.6333 18.6666 14.3333 18.3666 14.3333 17.9999C14.3333 17.6333 14.6333 17.3333 15 17.3333C15.3667 17.3333 15.6667 17.6333 15.6667 17.9999C15.6667 18.3666 15.3667 18.6666 15 18.6666ZM16.5267 15.3333H13.48L12.5533 9.33325H17.4467L16.5267 15.3333Z" fill="currentColor"/>
</g>
<defs>
<filter id="filter0_d_2310_74847" x="0.5" y="0" width="29" height="29" filterUnits="userSpaceOnUse" color-interpolation-filters="sRGB">
<feFlood flood-opacity="0" result="BackgroundImageFix"/>
<feColorMatrix in="SourceAlpha" type="matrix" values="0 0 0 0 0 0 0 0 0 0 0 0 0 0 0 0 0 0 127 0" result="hardAlpha"/>
<feMorphology radius="0.5" operator="dilate" in="SourceAlpha" result="effect1_dropShadow_2310_74847"/>
<feOffset dy="0.5"/>
<feGaussianBlur stdDeviation="0.5"/>
<feColorMatrix type="matrix" values="0 0 0 0 0.0235294 0 0 0 0 0.0705882 0 0 0 0 0.286275 0 0 0 0.2 0"/>
<feBlend mode="normal" in2="BackgroundImageFix" result="effect1_dropShadow_2310_74847"/>
<feBlend mode="normal" in="SourceGraphic" in2="effect1_dropShadow_2310_74847" result="shape"/>
</filter>
</defs>
</svg>
