<svg width="30" height="29" viewBox="0 0 30 29" fill="none" xmlns="http://www.w3.org/2000/svg">
<g filter="url(#filter0_d_2310_74784)">
<path d="M2 5C2 2.79086 3.79086 1 6 1H24C26.2091 1 28 2.79086 28 5V23C28 25.2091 26.2091 27 24 27H6C3.79086 27 2 25.2091 2 23V5Z" fill="white"/>
<path d="M11.3082 14.0329C11.3082 13.606 11.1987 13.2668 11.144 13.026C11.1066 12.8213 11.0117 12.6315 10.8703 12.4788C10.7066 12.3391 10.5112 12.2414 10.3012 12.1942C9.96186 12.1111 9.61855 12.0454 9.27249 11.9972C9.13021 11.9972 9.05352 11.8987 9.05352 11.7783C9.05205 11.751 9.05604 11.7237 9.06515 11.6979C9.07425 11.6721 9.08839 11.6483 9.1067 11.628C9.125 11.6077 9.14706 11.5911 9.17176 11.5794C9.19646 11.5676 9.22326 11.5608 9.25058 11.5594C9.68836 11.4719 10.0385 11.4062 10.2903 11.3296C10.4994 11.2861 10.6948 11.1921 10.8594 11.056C10.9993 10.9051 11.0974 10.7202 11.144 10.5197C11.1987 10.2789 11.2534 9.95058 11.3082 9.52374C11.3064 9.49502 11.3109 9.46623 11.3214 9.43944C11.3319 9.41266 11.3482 9.38852 11.3691 9.3687C11.3899 9.34888 11.4149 9.33389 11.4422 9.32475C11.4694 9.3156 11.4984 9.31254 11.527 9.3158C11.5543 9.31432 11.5816 9.31824 11.6074 9.32735C11.6332 9.33646 11.657 9.3506 11.6773 9.3689C11.6976 9.3872 11.7142 9.40933 11.7259 9.43403C11.7377 9.45873 11.7446 9.48547 11.746 9.51279C11.746 9.95057 11.8553 10.2899 11.91 10.5416C11.936 10.755 12.0334 10.9533 12.1864 11.1044C12.3395 11.2554 12.539 11.3502 12.7528 11.3734C13.0045 11.439 13.3547 11.4937 13.8472 11.5594C13.8966 11.5678 13.9423 11.5906 13.9786 11.6251C13.9894 11.6491 13.9951 11.6753 13.9951 11.7017C13.9951 11.7281 13.9894 11.7542 13.9786 11.7783C13.9817 11.8317 13.964 11.8843 13.9294 11.9251C13.8947 11.9658 13.8458 11.9917 13.7926 11.9972C13.3439 12.0738 12.9936 12.1505 12.6981 12.2161C12.4912 12.2629 12.2993 12.3606 12.14 12.5006C11.9946 12.652 11.8958 12.8419 11.8554 13.0478C11.8554 13.2886 11.7459 13.617 11.6912 14.0438C11.6812 14.0981 11.6545 14.1479 11.6146 14.1861C11.5687 14.2028 11.5183 14.2028 11.4724 14.1861C11.4326 14.1803 11.3956 14.1625 11.3663 14.1351C11.3369 14.1078 11.3167 14.0721 11.3082 14.0329V14.0329ZM15.686 21.2562C15.6243 21.1988 15.5855 21.1211 15.5765 21.0374C15.5017 20.4449 15.3958 19.8567 15.2591 19.2753C15.1734 18.8599 15.0219 18.4609 14.8103 18.0933C14.6251 17.7924 14.3698 17.5408 14.0662 17.36C13.7034 17.1547 13.3125 17.0036 12.906 16.9113C12.4245 16.8018 11.8116 16.7033 11.1549 16.6048C11.1133 16.6065 11.0717 16.5994 11.0331 16.5838C10.9944 16.5683 10.9595 16.5448 10.9306 16.5148C10.9017 16.4849 10.8793 16.4491 10.8651 16.4099C10.851 16.3707 10.8453 16.329 10.8484 16.2874C10.8467 16.2494 10.8525 16.2114 10.8657 16.1757C10.8788 16.14 10.8991 16.1073 10.9251 16.0795C10.9853 16.0155 11.0673 15.9764 11.1549 15.9701C11.7433 15.9119 12.3279 15.8206 12.906 15.6965C13.3168 15.6124 13.712 15.4647 14.0772 15.2587C14.3834 15.0717 14.6389 14.8124 14.8213 14.5035C15.031 14.135 15.1824 13.7363 15.2701 13.3215C15.4066 12.7332 15.5089 12.1376 15.5765 11.5375C15.588 11.4576 15.6266 11.3843 15.686 11.3296C15.7137 11.3036 15.7464 11.2834 15.7822 11.2702C15.8179 11.2571 15.8558 11.2512 15.8938 11.253C15.9319 11.2506 15.9701 11.2561 16.0059 11.2693C16.0417 11.2825 16.0745 11.303 16.1019 11.3296C16.1612 11.3843 16.1998 11.4576 16.2113 11.5375C16.2988 12.2379 16.4083 12.8399 16.5178 13.3215C16.6054 13.7363 16.7567 14.135 16.9664 14.5035C17.1488 14.8124 17.4045 15.0717 17.7107 15.2587C18.0759 15.4647 18.4709 15.6124 18.8817 15.6965C19.4633 15.8213 20.0518 15.9127 20.6439 15.9701C20.6842 15.9731 20.7234 15.9844 20.7592 16.0032C20.7949 16.022 20.8264 16.048 20.8517 16.0795C20.8809 16.1055 20.9038 16.1376 20.9189 16.1736C20.9341 16.2096 20.941 16.2485 20.9393 16.2874C20.9427 16.3282 20.9367 16.3693 20.9215 16.4073C20.9063 16.4453 20.8824 16.4792 20.8517 16.5064C20.8274 16.5381 20.7959 16.5636 20.7597 16.5808C20.7235 16.5979 20.6839 16.6061 20.6439 16.6048C20.0515 16.6652 19.463 16.7602 18.8817 16.8894C18.4695 16.9686 18.0737 17.1166 17.7107 17.3272C17.4058 17.511 17.1502 17.7665 16.9664 18.0714C16.7567 18.4438 16.6055 18.8461 16.5178 19.2644C16.4083 19.7459 16.2988 20.3588 16.2113 21.0374C16.2023 21.1211 16.1635 21.1988 16.1019 21.2562C16.0745 21.2828 16.0417 21.3034 16.0059 21.3166C15.9701 21.3297 15.9319 21.3353 15.8938 21.3329C15.8497 21.3337 15.8059 21.3243 15.766 21.3053C15.7261 21.2863 15.6912 21.2583 15.6641 21.2234L15.686 21.2562ZM14.4821 9.65507C14.4486 9.44871 14.4047 9.24416 14.3508 9.04218C14.3304 8.91548 14.2733 8.79753 14.1866 8.7029C14.0894 8.61302 13.9735 8.54575 13.8472 8.50591C13.6346 8.4502 13.419 8.40636 13.2015 8.37458C13.1828 8.3732 13.1646 8.36815 13.1478 8.35969C13.1311 8.35123 13.1162 8.33952 13.104 8.32528C13.0918 8.31104 13.0826 8.29449 13.0768 8.27665C13.071 8.25882 13.0687 8.24004 13.0702 8.22134C13.0702 8.14473 13.0702 8.10095 13.2015 8.07906C13.4194 8.04456 13.635 7.99705 13.8472 7.93678C13.9744 7.90481 14.0913 7.84077 14.1866 7.75074C14.2713 7.65477 14.3281 7.53743 14.3508 7.41146C14.4057 7.20602 14.4496 6.99777 14.4821 6.78761C14.4874 6.75379 14.5046 6.72295 14.5307 6.70084C14.5569 6.67873 14.5901 6.66683 14.6244 6.66724C14.6416 6.66574 14.6589 6.66767 14.6754 6.67292C14.6919 6.67817 14.7073 6.68664 14.7206 6.69784C14.7338 6.70903 14.7446 6.7227 14.7525 6.73812C14.7604 6.75353 14.7653 6.77035 14.7667 6.78761C14.7992 6.99777 14.843 7.20602 14.898 7.41146C14.917 7.54222 14.9771 7.66354 15.0695 7.75795C15.162 7.85237 15.282 7.91497 15.4124 7.93678C15.6246 7.99705 15.8402 8.04456 16.058 8.07906C16.1456 8.07906 16.1894 8.14473 16.1894 8.22134C16.1909 8.24004 16.1886 8.25882 16.1828 8.27665C16.177 8.29449 16.1678 8.31104 16.1556 8.32528C16.1434 8.33952 16.1285 8.35123 16.1117 8.35969C16.095 8.36815 16.0767 8.3732 16.058 8.37458C15.8405 8.40636 15.625 8.4502 15.4124 8.50591C15.2829 8.54592 15.1635 8.61307 15.0621 8.7029C14.9795 8.8003 14.9232 8.91703 14.898 9.04218C14.844 9.24416 14.8002 9.44871 14.7667 9.65507C14.7667 9.67328 14.763 9.69129 14.7557 9.70798C14.7484 9.72467 14.7377 9.73972 14.7243 9.75207C14.7109 9.76442 14.6952 9.7738 14.678 9.77972C14.6607 9.78564 14.6425 9.78792 14.6244 9.7864C14.5478 9.79735 14.504 9.75357 14.4821 9.65507Z" fill="currentColor"/>
</g>
<defs>
<filter id="filter0_d_2310_74784" x="0.5" y="0" width="29" height="29" filterUnits="userSpaceOnUse" color-interpolation-filters="sRGB">
<feFlood flood-opacity="0" result="BackgroundImageFix"/>
<feColorMatrix in="SourceAlpha" type="matrix" values="0 0 0 0 0 0 0 0 0 0 0 0 0 0 0 0 0 0 127 0" result="hardAlpha"/>
<feMorphology radius="0.5" operator="dilate" in="SourceAlpha" result="effect1_dropShadow_2310_74784"/>
<feOffset dy="0.5"/>
<feGaussianBlur stdDeviation="0.5"/>
<feColorMatrix type="matrix" values="0 0 0 0 0.0235294 0 0 0 0 0.0705882 0 0 0 0 0.286275 0 0 0 0.2 0"/>
<feBlend mode="normal" in2="BackgroundImageFix" result="effect1_dropShadow_2310_74784"/>
<feBlend mode="normal" in="SourceGraphic" in2="effect1_dropShadow_2310_74784" result="shape"/>
</filter>
</defs>
</svg>
