<svg width="30" height="29" viewBox="0 0 30 29" fill="none" xmlns="http://www.w3.org/2000/svg">
<g filter="url(#filter0_d_2310_74725)">
<path d="M2 5C2 2.79086 3.79086 1 6 1H24C26.2091 1 28 2.79086 28 5V23C28 25.2091 26.2091 27 24 27H6C3.79086 27 2 25.2091 2 23V5Z" fill="white"/>
<path d="M18.9807 15.1352V10.5897C18.9807 9.96473 18.4693 9.45337 17.8443 9.45337H9.88978C9.26478 9.45337 8.75342 9.96473 8.75342 10.5897V15.1352C8.75342 15.7602 9.26478 16.2716 9.88978 16.2716H17.8443C18.4693 16.2716 18.9807 15.7602 18.9807 15.1352ZM13.8671 14.567C12.9239 14.567 12.1625 13.8056 12.1625 12.8625C12.1625 11.9193 12.9239 11.1579 13.8671 11.1579C14.8102 11.1579 15.5716 11.9193 15.5716 12.8625C15.5716 13.8056 14.8102 14.567 13.8671 14.567ZM21.2534 11.1579V17.4079C21.2534 18.0329 20.7421 18.5443 20.1171 18.5443H10.458V17.4079H20.1171V11.1579H21.2534Z" fill="currentColor"/>
</g>
<defs>
<filter id="filter0_d_2310_74725" x="0.5" y="0" width="29" height="29" filterUnits="userSpaceOnUse" color-interpolation-filters="sRGB">
<feFlood flood-opacity="0" result="BackgroundImageFix"/>
<feColorMatrix in="SourceAlpha" type="matrix" values="0 0 0 0 0 0 0 0 0 0 0 0 0 0 0 0 0 0 127 0" result="hardAlpha"/>
<feMorphology radius="0.5" operator="dilate" in="SourceAlpha" result="effect1_dropShadow_2310_74725"/>
<feOffset dy="0.5"/>
<feGaussianBlur stdDeviation="0.5"/>
<feColorMatrix type="matrix" values="0 0 0 0 0.0235294 0 0 0 0 0.0705882 0 0 0 0 0.286275 0 0 0 0.2 0"/>
<feBlend mode="normal" in2="BackgroundImageFix" result="effect1_dropShadow_2310_74725"/>
<feBlend mode="normal" in="SourceGraphic" in2="effect1_dropShadow_2310_74725" result="shape"/>
</filter>
</defs>
</svg>
