<svg width="30" height="29" viewBox="0 0 30 29" fill="none" xmlns="http://www.w3.org/2000/svg">
<g filter="url(#filter0_d_2310_74863)">
<path d="M2 5C2 2.79086 3.79086 1 6 1H24C26.2091 1 28 2.79086 28 5V23C28 25.2091 26.2091 27 24 27H6C3.79086 27 2 25.2091 2 23V5Z" fill="white"/>
<path d="M21.6564 12.8352L20.5612 8.70172C20.5277 8.57292 20.4272 8.47233 20.2984 8.43887L16.1649 7.34624C16.0378 7.31139 15.9019 7.34785 15.8093 7.44158L8.44173 14.8066C8.29742 14.9511 8.29742 15.1852 8.44173 15.3297L13.6704 20.5584C13.8149 20.7027 14.049 20.7027 14.1935 20.5584L21.5585 13.1908C21.6529 13.0986 21.6903 12.9627 21.6564 12.8352ZM11.8408 14.5463C11.9853 14.402 12.2194 14.402 12.3639 14.5463L14.4538 16.6362C14.5474 16.7296 14.584 16.8659 14.5498 16.9936C14.5156 17.1214 14.4158 17.2211 14.2881 17.2553C14.1604 17.2895 14.0241 17.2529 13.9307 17.1593L11.8408 15.0694C11.6964 14.9249 11.6964 14.6908 11.8408 14.5463ZM15.7603 15.8528C15.6158 15.9971 15.3817 15.9971 15.2372 15.8528L13.1473 13.7629C13.0538 13.6694 13.0173 13.5332 13.0515 13.4056C13.0857 13.2779 13.1854 13.1782 13.3131 13.144C13.4407 13.1098 13.5769 13.1463 13.6704 13.2398L15.7603 15.3297C15.9046 15.4742 15.9046 15.7083 15.7603 15.8528ZM16.6751 10.6267C17.0187 10.2826 17.5357 10.1795 17.985 10.3654C18.4343 10.5513 18.7273 10.9896 18.7273 11.4758C18.7273 11.962 18.4343 12.4004 17.985 12.5863C17.5357 12.7722 17.0187 12.669 16.6751 12.3249C16.2078 11.8553 16.2078 11.0963 16.6751 10.6267Z" fill="currentColor"/>
</g>
<defs>
<filter id="filter0_d_2310_74863" x="0.5" y="0" width="29" height="29" filterUnits="userSpaceOnUse" color-interpolation-filters="sRGB">
<feFlood flood-opacity="0" result="BackgroundImageFix"/>
<feColorMatrix in="SourceAlpha" type="matrix" values="0 0 0 0 0 0 0 0 0 0 0 0 0 0 0 0 0 0 127 0" result="hardAlpha"/>
<feMorphology radius="0.5" operator="dilate" in="SourceAlpha" result="effect1_dropShadow_2310_74863"/>
<feOffset dy="0.5"/>
<feGaussianBlur stdDeviation="0.5"/>
<feColorMatrix type="matrix" values="0 0 0 0 0.0235294 0 0 0 0 0.0705882 0 0 0 0 0.286275 0 0 0 0.2 0"/>
<feBlend mode="normal" in2="BackgroundImageFix" result="effect1_dropShadow_2310_74863"/>
<feBlend mode="normal" in="SourceGraphic" in2="effect1_dropShadow_2310_74863" result="shape"/>
</filter>
</defs>
</svg>
