<svg width="30" height="29" viewBox="0 0 30 29" fill="none" xmlns="http://www.w3.org/2000/svg">
<g filter="url(#filter0_d_2310_74717)">
<path d="M2 5C2 2.79086 3.79086 1 6 1H24C26.2091 1 28 2.79086 28 5V23C28 25.2091 26.2091 27 24 27H6C3.79086 27 2 25.2091 2 23V5Z" fill="white"/>
<path d="M15.0871 7.33325C13.521 7.33325 12.23 8.60309 12.23 10.1904C12.23 10.5925 12.5686 10.9311 12.9707 10.9311C13.3729 10.9311 13.7115 10.5925 13.7115 10.1904C13.7115 9.42849 14.3252 8.81473 15.0871 8.81473C15.849 8.81473 16.4628 9.42849 16.4628 10.1904V10.7407C16.4628 11.2274 16.3147 11.6295 15.976 11.947C15.1718 12.7512 13.4998 12.9206 12.9072 12.8994C12.7168 12.8994 12.5263 12.9629 12.3781 13.111C12.23 13.2592 12.1665 13.4285 12.1665 13.6401V18.8042C12.1665 19.5449 12.4628 19.9893 12.7379 20.2221C13.1612 20.6031 13.6903 20.6666 13.9443 20.6666C13.9866 20.6666 14.0078 20.6666 14.0289 20.6666H16.23C17.3517 20.6666 17.8385 19.7142 17.902 19.0581C17.902 19.037 17.902 19.0158 17.902 18.9946V10.1904C17.9443 8.60309 16.6744 7.33325 15.0871 7.33325Z" fill="currentColor"/>
</g>
<defs>
<filter id="filter0_d_2310_74717" x="0.5" y="0" width="29" height="29" filterUnits="userSpaceOnUse" color-interpolation-filters="sRGB">
<feFlood flood-opacity="0" result="BackgroundImageFix"/>
<feColorMatrix in="SourceAlpha" type="matrix" values="0 0 0 0 0 0 0 0 0 0 0 0 0 0 0 0 0 0 127 0" result="hardAlpha"/>
<feMorphology radius="0.5" operator="dilate" in="SourceAlpha" result="effect1_dropShadow_2310_74717"/>
<feOffset dy="0.5"/>
<feGaussianBlur stdDeviation="0.5"/>
<feColorMatrix type="matrix" values="0 0 0 0 0.0235294 0 0 0 0 0.0705882 0 0 0 0 0.286275 0 0 0 0.2 0"/>
<feBlend mode="normal" in2="BackgroundImageFix" result="effect1_dropShadow_2310_74717"/>
<feBlend mode="normal" in="SourceGraphic" in2="effect1_dropShadow_2310_74717" result="shape"/>
</filter>
</defs>
</svg>
