<svg width="30" height="29" viewBox="0 0 30 29" fill="none" xmlns="http://www.w3.org/2000/svg">
<g filter="url(#filter0_d_5087_98589)">
<path d="M2 5C2 2.79086 3.79086 1 6 1H24C26.2091 1 28 2.79086 28 5V23C28 25.2091 26.2091 27 24 27H6C3.79086 27 2 25.2091 2 23V5Z" fill="white"/>
<path d="M18.1515 8.54513H19.9697C20.1304 8.54513 20.2845 8.60898 20.3982 8.72264C20.5119 8.8363 20.5757 8.99045 20.5757 9.15119V20.0603C20.5757 20.221 20.5119 20.3752 20.3982 20.4888C20.2845 20.6025 20.1304 20.6663 19.9697 20.6663H10.2727C10.1119 20.6663 9.9578 20.6025 9.84414 20.4888C9.73048 20.3752 9.66663 20.221 9.66663 20.0603V9.15119C9.66663 8.99045 9.73048 8.8363 9.84414 8.72264C9.9578 8.60898 10.1119 8.54513 10.2727 8.54513H12.0909V7.33301H13.303V8.54513H16.9394V7.33301H18.1515V8.54513ZM18.1515 9.75725V10.9694H16.9394V9.75725H13.303V10.9694H12.0909V9.75725H10.8787V19.4542H19.3636V9.75725H18.1515ZM12.0909 12.1815H18.1515V13.3936H12.0909V12.1815ZM12.0909 14.6057H18.1515V15.8179H12.0909V14.6057Z" fill="black"/>
</g>
<defs>
<filter id="filter0_d_5087_98589" x="0.5" y="0" width="29" height="29" filterUnits="userSpaceOnUse" color-interpolation-filters="sRGB">
<feFlood flood-opacity="0" result="BackgroundImageFix"/>
<feColorMatrix in="SourceAlpha" type="matrix" values="0 0 0 0 0 0 0 0 0 0 0 0 0 0 0 0 0 0 127 0" result="hardAlpha"/>
<feMorphology radius="0.5" operator="dilate" in="SourceAlpha" result="effect1_dropShadow_5087_98589"/>
<feOffset dy="0.5"/>
<feGaussianBlur stdDeviation="0.5"/>
<feColorMatrix type="matrix" values="0 0 0 0 0.0235294 0 0 0 0 0.0705882 0 0 0 0 0.286275 0 0 0 0.2 0"/>
<feBlend mode="normal" in2="BackgroundImageFix" result="effect1_dropShadow_5087_98589"/>
<feBlend mode="normal" in="SourceGraphic" in2="effect1_dropShadow_5087_98589" result="shape"/>
</filter>
</defs>
</svg>
