<svg width="30" height="29" viewBox="0 0 30 29" fill="none" xmlns="http://www.w3.org/2000/svg">
<g filter="url(#filter0_d_2310_74812)">
<path d="M2 5C2 2.79086 3.79086 1 6 1H24C26.2091 1 28 2.79086 28 5V23C28 25.2091 26.2091 27 24 27H6C3.79086 27 2 25.2091 2 23V5Z" fill="white"/>
<path d="M13.0437 8.08187C12.4296 8.29096 11.8514 8.5937 11.3296 8.97936C10.807 9.35646 10.3484 9.81508 9.97126 10.3377C9.18047 11.3997 8.75342 12.6884 8.75342 14.0125C8.75342 15.3366 9.18047 16.6253 9.97126 17.6873C10.7409 18.732 11.8095 19.5186 13.0356 19.9431C14.31 20.3744 15.6908 20.3744 16.9651 19.9431C17.5807 19.7373 18.1594 19.4343 18.6792 19.0456C19.2018 18.6685 19.6605 18.2099 20.0376 17.6873C20.4236 17.1565 20.7212 16.5667 20.9189 15.9409C21.3502 14.6693 21.3502 13.291 20.9189 12.0194C20.713 11.4039 20.41 10.8252 20.0214 10.3054C19.6443 9.78273 19.1857 9.32411 18.663 8.94701C18.1413 8.56136 17.5631 8.25861 16.9489 8.04952C15.6757 7.62884 14.3008 7.62884 13.0276 8.04952L13.0437 8.08187ZM20.6359 13.6365H9.37295V14.3966H20.6359V13.6365ZM16.6903 8.90657C17.2219 9.08056 17.7216 9.34 18.1698 9.67469C18.6171 10.0046 19.0123 10.3998 19.3423 10.8471C19.6863 11.2958 19.959 11.7948 20.1508 12.3267C20.5175 13.4206 20.5175 14.6044 20.1508 15.6983C19.7855 16.7596 19.1058 17.6845 18.2022 18.3503C17.7535 18.6943 17.2545 18.967 16.7226 19.1589C15.6259 19.5256 14.4396 19.5256 13.3429 19.1589C12.8121 18.9647 12.3134 18.6922 11.8633 18.3503C11.4186 18.0201 11.0261 17.6249 10.699 17.1779C10.35 16.7325 10.0768 16.2326 9.89042 15.6983C9.52371 14.6044 9.52371 13.4206 9.89042 12.3267C10.0785 11.7932 10.3516 11.2936 10.699 10.8471C11.0311 10.4018 11.4261 10.0069 11.8714 9.67469C12.3206 9.34156 12.8201 9.08225 13.351 8.90657C14.4449 8.53986 15.6287 8.53986 16.7226 8.90657H16.6903ZM13.2135 16.3855C12.6923 16.4708 12.1824 16.6146 11.6934 16.8141C11.2939 16.97 10.9245 17.1944 10.6019 17.4771L11.176 17.9622C11.4751 17.7408 11.8047 17.5638 12.1544 17.4367C12.5741 17.2853 13.0072 17.1743 13.448 17.1052C14.4801 16.9542 15.5287 16.9542 16.5609 17.1052C17.0018 17.1733 17.4351 17.2843 17.8545 17.4367C18.205 17.5621 18.5348 17.7393 18.8329 17.9622L19.415 17.4771C19.0882 17.1961 18.7165 16.9719 18.3154 16.8141C17.8265 16.6146 17.3165 16.4708 16.7954 16.3855C16.2031 16.2788 15.6022 16.2274 15.0004 16.2319C14.4014 16.2284 13.8032 16.2798 13.2135 16.3855V16.3855ZM16.7954 11.6152C17.316 11.5236 17.8255 11.3772 18.3154 11.1786C18.716 11.0233 19.0877 10.8019 19.415 10.5236L18.8329 10.0385C18.5329 10.2585 18.2035 10.4354 17.8545 10.5641C17.4348 10.7136 17.0015 10.8219 16.5609 10.8875C15.5287 11.0385 14.4801 11.0385 13.448 10.8875C13.0075 10.8209 12.5744 10.7126 12.1544 10.5641C11.8053 10.4354 11.476 10.2585 11.176 10.0385L10.6019 10.5236C10.9251 10.8036 11.2944 11.0252 11.6934 11.1786C12.1833 11.3772 12.6929 11.5236 13.2135 11.6152C13.8037 11.7169 14.4015 11.7683 15.0004 11.7688C15.6021 11.7693 16.2026 11.7179 16.7954 11.6152V11.6152ZM13.8118 8.61551C13.4028 8.94528 13.0693 9.35883 12.8335 9.82832C12.5238 10.4108 12.2979 11.0342 12.1625 11.6799C11.9918 12.4415 11.9077 13.2199 11.9118 14.0004C11.9083 14.7835 11.9924 15.5645 12.1625 16.329C12.2979 16.9747 12.5238 17.598 12.8335 18.1805C13.0714 18.6509 13.4046 19.0667 13.8118 19.4014C14.1461 19.6791 14.5659 19.8333 15.0004 19.838C15.4372 19.8319 15.859 19.678 16.1971 19.4014C16.6043 19.0667 16.9375 18.6509 17.1754 18.1805C17.4851 17.598 17.711 16.9747 17.8464 16.329C18.0137 15.5642 18.0951 14.7832 18.089 14.0004C18.0956 13.2202 18.0142 12.4418 17.8464 11.6799C17.711 11.0342 17.4851 10.4108 17.1754 9.82832C16.9396 9.35883 16.606 8.94528 16.1971 8.61551C15.8612 8.32208 15.4303 8.16039 14.9843 8.16039C14.5382 8.16039 14.1073 8.32208 13.7714 8.61551H13.8118ZM14.1352 18.7222C13.8228 18.3962 13.5733 18.0151 13.3995 17.5984C13.1672 17.0803 12.9937 16.5379 12.8821 15.9813C12.757 15.3339 12.6947 14.6759 12.696 14.0165C12.6943 13.3679 12.7566 12.7206 12.8821 12.0841C12.9948 11.5278 13.1683 10.9855 13.3995 10.4671C13.5733 10.0479 13.8227 9.66414 14.1352 9.33509C14.2407 9.20649 14.3733 9.10289 14.5236 9.03174C14.6739 8.9606 14.8382 8.92369 15.0045 8.92369C15.1708 8.92369 15.3349 8.9606 15.4852 9.03174C15.6356 9.10289 15.7682 9.20649 15.8736 9.33509C16.1861 9.66579 16.438 10.049 16.6175 10.4671C16.8423 10.9872 17.013 11.5291 17.1269 12.0841C17.2523 12.7206 17.3146 13.3679 17.3128 14.0165C17.3142 14.6759 17.2519 15.3339 17.1269 15.9813C17.0142 16.5367 16.8435 17.0787 16.6175 17.5984C16.438 18.0141 16.1862 18.3946 15.8736 18.7222C15.7666 18.8483 15.6335 18.9496 15.4834 19.0191C15.3333 19.0886 15.1699 19.1246 15.0045 19.1246C14.8391 19.1246 14.6756 19.0886 14.5255 19.0191C14.3754 18.9496 14.2423 18.8483 14.1352 18.7222V18.7222ZM15.3885 19.7491V8.30017H14.6284V19.7491H15.3885Z" fill="currentColor"/>
</g>
<defs>
<filter id="filter0_d_2310_74812" x="0.5" y="0" width="29" height="29" filterUnits="userSpaceOnUse" color-interpolation-filters="sRGB">
<feFlood flood-opacity="0" result="BackgroundImageFix"/>
<feColorMatrix in="SourceAlpha" type="matrix" values="0 0 0 0 0 0 0 0 0 0 0 0 0 0 0 0 0 0 127 0" result="hardAlpha"/>
<feMorphology radius="0.5" operator="dilate" in="SourceAlpha" result="effect1_dropShadow_2310_74812"/>
<feOffset dy="0.5"/>
<feGaussianBlur stdDeviation="0.5"/>
<feColorMatrix type="matrix" values="0 0 0 0 0.0235294 0 0 0 0 0.0705882 0 0 0 0 0.286275 0 0 0 0.2 0"/>
<feBlend mode="normal" in2="BackgroundImageFix" result="effect1_dropShadow_2310_74812"/>
<feBlend mode="normal" in="SourceGraphic" in2="effect1_dropShadow_2310_74812" result="shape"/>
</filter>
</defs>
</svg>
