<svg width="30" height="29" viewBox="0 0 30 29" fill="none" xmlns="http://www.w3.org/2000/svg">
<g filter="url(#filter0_d_2310_74831)">
<path d="M2 5C2 2.79086 3.79086 1 6 1H24C26.2091 1 28 2.79086 28 5V23C28 25.2091 26.2091 27 24 27H6C3.79086 27 2 25.2091 2 23V5Z" fill="white"/>
<path fill-rule="evenodd" clip-rule="evenodd" d="M8.25484 13.8197C8.25484 10.0543 11.3326 7 15.1274 7C18.9221 7 21.9999 10.0543 22 13.8197C22 17.5852 18.9221 20.6393 15.1274 20.6393C13.9653 20.6402 12.822 20.3479 11.805 19.7898L8 21L9.23998 17.3424C8.61496 16.3142 8.25484 15.1074 8.25484 13.8197ZM11.9476 18.6065C12.8614 19.2031 13.9553 19.5537 15.1274 19.5537L15.124 19.5536C18.3106 19.5536 20.9027 16.9814 20.9027 13.8195C20.9027 10.6575 18.3106 8.08542 15.124 8.08542C11.9375 8.08542 9.34543 10.6575 9.34543 13.8195C9.34543 15.0735 9.753 16.2365 10.446 17.1805L9.72578 19.3109L11.9476 18.6065Z" fill="currentColor"/>
<path d="M13.2822 10.7981C13.1676 10.5243 13.0807 10.5139 12.907 10.5068C12.8411 10.5026 12.7751 10.5003 12.709 10.5C12.4831 10.5 12.2469 10.5658 12.1044 10.7114C11.9308 10.8881 11.5 11.3005 11.5 12.1463C11.5 12.992 12.1184 13.81 12.2017 13.9244C12.2886 14.0387 13.4073 15.7994 15.1442 16.517C16.5026 17.0785 16.9056 17.0265 17.2148 16.9606C17.6664 16.8636 18.2327 16.5307 18.3751 16.1288C18.5176 15.7266 18.5176 15.3835 18.4758 15.3107C18.4341 15.2379 18.3194 15.1965 18.1458 15.1097C17.9722 15.023 17.1279 14.6071 16.9681 14.5516C16.8117 14.4928 16.6624 14.5136 16.5443 14.68C16.3775 14.9122 16.2143 15.1479 16.0822 15.29C15.978 15.4009 15.8077 15.4148 15.6653 15.3558C15.4743 15.2762 14.9393 15.0889 14.2792 14.5031C13.7685 14.0491 13.4211 13.4842 13.3204 13.3144C13.2196 13.1412 13.31 13.0405 13.3898 12.947C13.4767 12.8395 13.56 12.7633 13.6469 12.6628C13.7338 12.5623 13.7824 12.5103 13.838 12.3924C13.8971 12.278 13.8553 12.1602 13.8137 12.0735C13.772 11.9868 13.4246 11.1411 13.2822 10.7981Z" fill="currentColor"/>
</g>
<defs>
<filter id="filter0_d_2310_74831" x="0.5" y="0" width="29" height="29" filterUnits="userSpaceOnUse" color-interpolation-filters="sRGB">
<feFlood flood-opacity="0" result="BackgroundImageFix"/>
<feColorMatrix in="SourceAlpha" type="matrix" values="0 0 0 0 0 0 0 0 0 0 0 0 0 0 0 0 0 0 127 0" result="hardAlpha"/>
<feMorphology radius="0.5" operator="dilate" in="SourceAlpha" result="effect1_dropShadow_2310_74831"/>
<feOffset dy="0.5"/>
<feGaussianBlur stdDeviation="0.5"/>
<feColorMatrix type="matrix" values="0 0 0 0 0.0235294 0 0 0 0 0.0705882 0 0 0 0 0.286275 0 0 0 0.2 0"/>
<feBlend mode="normal" in2="BackgroundImageFix" result="effect1_dropShadow_2310_74831"/>
<feBlend mode="normal" in="SourceGraphic" in2="effect1_dropShadow_2310_74831" result="shape"/>
</filter>
</defs>
</svg>
