<svg width="13" height="18" viewBox="0 0 13 18" fill="none" xmlns="http://www.w3.org/2000/svg">
<path d="M11.4417 11.6084L13 1.50008H9.66667V0.666748H6.33333V1.50008H2.16667C1.25 1.50008 0.5 2.25008 0.5 3.16675V6.50008C0.5 7.41675 1.25 8.16675 2.16667 8.16675H4.025L4.55833 11.6084C3.61667 12.3751 3 13.5251 3 14.8334V15.6667C3 16.5834 3.75 17.3334 4.66667 17.3334H11.3333C12.25 17.3334 13 16.5834 13 15.6667V14.8334C13 13.5251 12.3833 12.3751 11.4417 11.6084ZM2.16667 6.50008V3.16675H3.25833L3.775 6.50008H2.16667ZM8 14.8334C7.54167 14.8334 7.16667 14.4584 7.16667 14.0001C7.16667 13.5417 7.54167 13.1667 8 13.1667C8.45833 13.1667 8.83333 13.5417 8.83333 14.0001C8.83333 14.4584 8.45833 14.8334 8 14.8334ZM9.90833 10.6667H6.1L4.94167 3.16675H11.0583L9.90833 10.6667Z"/>
</svg>
