<svg width="20" height="18" viewBox="0 0 20 18" fill="none" xmlns="http://www.w3.org/2000/svg">
<path d="M10.0928 4.37045V0.666748H0.833496V17.3334H19.352V4.37045H10.0928ZM4.5372 15.4816H2.68535V13.6297H4.5372V15.4816ZM4.5372 11.7779H2.68535V9.92601H4.5372V11.7779ZM4.5372 8.07416H2.68535V6.2223H4.5372V8.07416ZM4.5372 4.37045H2.68535V2.5186H4.5372V4.37045ZM8.2409 15.4816H6.38905V13.6297H8.2409V15.4816ZM8.2409 11.7779H6.38905V9.92601H8.2409V11.7779ZM8.2409 8.07416H6.38905V6.2223H8.2409V8.07416ZM8.2409 4.37045H6.38905V2.5186H8.2409V4.37045ZM17.5002 15.4816H10.0928V13.6297H11.9446V11.7779H10.0928V9.92601H11.9446V8.07416H10.0928V6.2223H17.5002V15.4816ZM15.6483 8.07416H13.7965V9.92601H15.6483V8.07416ZM15.6483 11.7779H13.7965V13.6297H15.6483V11.7779Z" fill="#919EAB"/>
</svg>
