<?xml version="1.0" encoding="UTF-8"?>
<svg width="16px" height="24px" viewBox="0 0 16 24" version="1.1" xmlns="http://www.w3.org/2000/svg" xmlns:xlink="http://www.w3.org/1999/xlink">
    <g id="Symbols" stroke="none" stroke-width="1" fill="none" fill-rule="evenodd">
        <g id="navbar-/-main-/-reduce" transform="translate(-28.000000, -242.000000)">
            <g id="Group" transform="translate(16.000000, 234.000000)" fill="#FFFFFF" fill-rule="nonzero">
                <g id="icon-/-menu-/-logement">
                    <path d="M27.4562252,9.94253804 C27.4562252,9.3537341 26.99138,8.88888889 26.4025761,8.88888889 L13.9137346,8.88888889 C13.3249307,8.88888889 12.8600855,9.3537341 12.8600855,9.94253804 L12.8600855,31.1084902 L17.9423932,31.1084902 L22.2499588,31.1084902 L27.4252355,31.1084902 L27.4562252,9.94253804 Z M18.7791145,26.9868626 C18.7791145,27.0178523 18.7481249,27.048842 18.7171352,27.048842 L15.8041052,27.048842 C15.7731155,27.048842 15.7421258,27.0178523 15.7421258,26.9868626 L15.7421258,24.0738326 C15.7421258,24.0428429 15.7731155,24.0118532 15.8041052,24.0118532 L18.7171352,24.0118532 C18.7481249,24.0118532 18.7791145,24.0428429 18.7791145,24.0738326 L18.7791145,26.9868626 Z M18.7791145,21.6566375 C18.7791145,21.6876272 18.7481249,21.7186168 18.7171352,21.7186168 L15.8041052,21.7186168 C15.7731155,21.7186168 15.7421258,21.6876272 15.7421258,21.6566375 L15.7421258,18.7436075 C15.7421258,18.7126178 15.7731155,18.6816281 15.8041052,18.6816281 L18.7171352,18.6816281 C18.7481249,18.6816281 18.7791145,18.7126178 18.7791145,18.7436075 L18.7791145,21.6566375 Z M18.7791145,16.0784949 C18.7791145,16.1094846 18.7481249,16.1404742 18.7171352,16.1404742 L15.8041052,16.1404742 C15.7731155,16.1404742 15.7421258,16.1094846 15.7421258,16.0784949 L15.7421258,13.1654649 C15.7421258,13.1344752 15.7731155,13.1034855 15.8041052,13.1034855 L18.7171352,13.1034855 C18.7481249,13.1034855 18.7791145,13.1344752 18.7791145,13.1654649 L18.7791145,16.0784949 Z M24.1093397,26.9868626 C24.1093397,27.0178523 24.07835,27.048842 24.0473603,27.048842 L21.1343303,27.048842 C21.1033406,27.048842 21.0723509,27.0178523 21.0723509,26.9868626 L21.0723509,24.0738326 C21.0723509,24.0428429 21.1033406,24.0118532 21.1343303,24.0118532 L24.0473603,24.0118532 C24.07835,24.0118532 24.1093397,24.0428429 24.1093397,24.0738326 L24.1093397,26.9868626 Z M24.1093397,21.6566375 C24.1093397,21.6876272 24.07835,21.7186168 24.0473603,21.7186168 L21.1343303,21.7186168 C21.1033406,21.7186168 21.0723509,21.6876272 21.0723509,21.6566375 L21.0723509,18.7436075 C21.0723509,18.7126178 21.1033406,18.6816281 21.1343303,18.6816281 L24.0473603,18.6816281 C24.07835,18.6816281 24.1093397,18.7126178 24.1093397,18.7436075 L24.1093397,21.6566375 Z M24.1093397,16.0784949 C24.1093397,16.1094846 24.07835,16.1404742 24.0473603,16.1404742 L21.1343303,16.1404742 C21.1033406,16.1404742 21.0723509,16.1094846 21.0723509,16.0784949 L21.0723509,13.1654649 C21.0723509,13.1344752 21.1033406,13.1034855 21.1343303,13.1034855 L24.0473603,13.1034855 C24.07835,13.1034855 24.1093397,13.1344752 24.1093397,13.1654649 L24.1093397,16.0784949 Z" id="Shape"></path>
                </g>
            </g>
        </g>
    </g>
</svg>