<svg width="36px" height="36px" viewBox="0 0 36 36" version="1.1" xmlns="http://www.w3.org/2000/svg" xmlns:xlink="http://www.w3.org/1999/xlink">
    <g id="Review" stroke="none" stroke-width="1" fill="none" fill-rule="evenodd">
        <g id="Menu-/-icons" transform="translate(-323.000000, -22.000000)">
            <g id="icon-/-menu-/-facturation" transform="translate(323.000000, 22.000000)">
                
                <g id="Group" transform="translate(11.500000, 10.000000)">
                    <path d="M0.0373333333,0.401432836 L0.0373333333,15.5985274 C0.0373333333,15.7565771 0.130865672,15.8996617 0.275621891,15.9631045 C0.42041791,16.0265075 0.588975124,15.9982886 0.705154229,15.8911045 L2.08987065,14.6140896 C2.24119403,14.4745473 2.47108458,14.4726368 2.62471642,14.6097512 L3.53245771,15.4198607 C3.9881393,15.8265871 4.67383085,15.8247164 5.12732338,15.415602 L6.02193035,14.6085572 C6.17397015,14.471403 6.40322388,14.4714428 6.55518408,14.6085572 L7.44979104,15.4156418 C7.90332338,15.8248358 8.58901493,15.8266667 9.04461692,15.4199403 L9.95243781,14.609791 C10.1059502,14.4727164 10.3359204,14.4746269 10.4872836,14.6141692 L11.872,15.8911841 C11.9469851,15.9603184 12.0437413,15.9966169 12.1418905,15.9966169 C12.1958209,15.9966169 12.2501891,15.9856716 12.3015323,15.9631841 C12.4463284,15.8997413 12.5398209,15.7566965 12.5398209,15.598607 L12.5398209,0.401432836 C12.5398209,0.18161194 12.361592,0.00342288557 12.1418109,0.00342288557 L0.435343284,0.00342288557 C0.215522388,0.00342288557 0.0373333333,0.18161194 0.0373333333,0.401432836 Z" id="Shape" fill-rule="nonzero" fill="white"></path>
                    <path d="M3.6279801,6.20362189 L8.73627861,6.20362189 C8.9560597,6.20362189 9.13428856,6.02543284 9.13428856,5.80561194 C9.13428856,5.58579104 8.9560597,5.40760199 8.73627861,5.40760199 L3.6279801,5.40760199 C3.408199,5.40760199 3.22997015,5.58579104 3.22997015,5.80561194 C3.22997015,6.02543284 3.408199,6.20362189 3.6279801,6.20362189 Z" id="Path" fill-rule="nonzero" fill="#061249"></path>
                    <path d="M3.6279801,8.97058706 L8.73627861,8.97058706 C8.9560597,8.97058706 9.13428856,8.79239801 9.13428856,8.57257711 C9.13428856,8.35275622 8.9560597,8.17456716 8.73627861,8.17456716 L3.6279801,8.17456716 C3.408199,8.17456716 3.22997015,8.35275622 3.22997015,8.57257711 C3.22997015,8.79239801 3.408199,8.97058706 3.6279801,8.97058706 Z" id="Path" fill="#061249" fill-rule="nonzero"></path>
                </g>
            </g>
        </g>
    </g>
</svg>