<svg width="20" height="20" viewBox="0 0 20 20" fill="none" xmlns="http://www.w3.org/2000/svg">
<path d="M4.37988 2.50488C4.37988 3.54042 3.54042 4.37988 2.50488 4.37988C1.46935 4.37988 0.629883 3.54042 0.629883 2.50488C0.629883 1.46935 1.46935 0.629883 2.50488 0.629883C3.54042 0.629883 4.37988 1.46935 4.37988 2.50488Z" fill="white"/>
<path d="M11.8799 2.50488C11.8799 3.54042 11.0404 4.37988 10.0049 4.37988C8.96935 4.37988 8.12988 3.54042 8.12988 2.50488C8.12988 1.46935 8.96935 0.629883 10.0049 0.629883C11.0404 0.629883 11.8799 1.46935 11.8799 2.50488Z" fill="white"/>
<path d="M19.3799 2.50488C19.3799 3.54042 18.5404 4.37988 17.5049 4.37988C16.4693 4.37988 15.6299 3.54042 15.6299 2.50488C15.6299 1.46935 16.4693 0.629883 17.5049 0.629883C18.5404 0.629883 19.3799 1.46935 19.3799 2.50488Z" fill="white"/>
<path d="M4.37988 10.0049C4.37988 11.0404 3.54042 11.8799 2.50488 11.8799C1.46935 11.8799 0.629883 11.0404 0.629883 10.0049C0.629883 8.96935 1.46935 8.12988 2.50488 8.12988C3.54042 8.12988 4.37988 8.96935 4.37988 10.0049Z" fill="white"/>
<path d="M11.8799 10.0049C11.8799 11.0404 11.0404 11.8799 10.0049 11.8799C8.96935 11.8799 8.12988 11.0404 8.12988 10.0049C8.12988 8.96935 8.96935 8.12988 10.0049 8.12988C11.0404 8.12988 11.8799 8.96935 11.8799 10.0049Z" fill="white"/>
<path d="M19.3799 10.0049C19.3799 11.0404 18.5404 11.8799 17.5049 11.8799C16.4693 11.8799 15.6299 11.0404 15.6299 10.0049C15.6299 8.96935 16.4693 8.12988 17.5049 8.12988C18.5404 8.12988 19.3799 8.96935 19.3799 10.0049Z" fill="white"/>
<path d="M4.37988 17.5049C4.37988 18.5404 3.54042 19.3799 2.50488 19.3799C1.46935 19.3799 0.629883 18.5404 0.629883 17.5049C0.629883 16.4693 1.46935 15.6299 2.50488 15.6299C3.54042 15.6299 4.37988 16.4693 4.37988 17.5049Z" fill="white"/>
<path d="M11.8799 17.5049C11.8799 18.5404 11.0404 19.3799 10.0049 19.3799C8.96935 19.3799 8.12988 18.5404 8.12988 17.5049C8.12988 16.4693 8.96935 15.6299 10.0049 15.6299C11.0404 15.6299 11.8799 16.4693 11.8799 17.5049Z" fill="white"/>
<path d="M19.3799 17.5049C19.3799 18.5404 18.5404 19.3799 17.5049 19.3799C16.4693 19.3799 15.6299 18.5404 15.6299 17.5049C15.6299 16.4693 16.4693 15.6299 17.5049 15.6299C18.5404 15.6299 19.3799 16.4693 19.3799 17.5049Z" fill="white"/>
</svg>
