<?xml version="1.0" encoding="UTF-8"?>
<svg width="21px" height="12px" viewBox="0 0 21 12" version="1.1" xmlns="http://www.w3.org/2000/svg" xmlns:xlink="http://www.w3.org/1999/xlink">
    <defs>
        <filter id="filter-1">
            <feColorMatrix in="SourceGraphic" type="matrix" values="0 0 0 0 1.000000 0 0 0 0 1.000000 0 0 0 0 1.000000 0 0 0 1.000000 0"></feColorMatrix>
        </filter>
    </defs>
    <g id="Symbols" stroke="none" stroke-width="1" fill="none" fill-rule="evenodd">
        <g id="navbar-/-main-/-reduce" transform="translate(-23.000000, -498.000000)">
            <g id="Group" transform="translate(16.000000, 486.000000)">
                <g id="icon-/-menu-/-logement-copy-6" transform="translate(7.000000, 12.000000)" filter="url(#filter-1)">
                    <g>
                        <path d="M17.6788697,7.14816731 C19.0263697,7.15483398 20.1172031,8.22566731 20.1147074,9.53900064 C20.1147074,10.872334 18.9947031,11.947334 17.6347031,11.9306673 C16.2747031,11.9140006 15.2030364,10.854834 15.2047011,9.53566731 C15.2063697,8.19733398 16.3013697,7.13983398 17.6788697,7.14816731 Z M15.7463697,0.359833976 C16.8972031,1.06900064 17.2822031,2.54400064 16.5655364,3.70650064 C15.1005364,6.09261175 13.6147031,8.4670562 12.1080364,10.829834 C11.6438697,11.5606673 10.9397031,11.9131673 10.0213697,11.9265006 C9.13553639,11.904834 8.40470306,11.5140006 7.93803639,10.6981673 C7.45970306,9.85483398 7.48053639,8.99150064 7.99053639,8.16900064 C9.20470306,6.21150064 10.4347031,4.26483398 11.6572031,2.31316731 C11.9072031,1.91400064 12.1513697,1.50900064 12.4130364,1.11733398 C13.1353684,0.00337602699 14.6135487,-0.332540429 15.7463697,0.359833976 Z M8.19756139,0.399500728 C9.31005149,1.11684407 9.65189928,2.58795131 8.96970306,3.72233398 C7.50970306,6.07983398 6.02970306,8.42900064 4.54886973,10.7756673 C4.06803639,11.5365006 3.36053639,11.9131673 2.41303639,11.9265006 C1.51886973,11.904834 0.792203061,11.4965006 0.334703061,10.6840006 C-0.136963605,9.84066731 -0.106963605,8.97566731 0.404703061,8.15316731 C1.71081417,6.05761175 3.02275862,3.96511175 4.34053639,1.87566731 C4.50720306,1.60566731 4.67386973,1.32900064 4.85220306,1.06733398 C5.60399159,-0.0221749583 7.08507128,-0.317842617 8.19756139,0.399500728 Z" id="Combined-Shape" fill="#999DCD" fill-rule="nonzero"></path>
                    </g>
                </g>
            </g>
        </g>
    </g>
</svg>