<?xml version="1.0" encoding="UTF-8"?>
<svg width="18px" height="20px" viewBox="0 0 18 20" version="1.1" xmlns="http://www.w3.org/2000/svg" xmlns:xlink="http://www.w3.org/1999/xlink">
    <g id="Symbols" stroke="none" stroke-width="1" fill="none" fill-rule="evenodd">
        <g id="navbar-/-main-/-reduce" transform="translate(-27.000000, -84.000000)">
            <path d="M34.0909091,86.3879245 C31.26781,87.1141978 29.1818182,89.6759048 29.1818182,92.7269998 L29.1818182,97.0902752 C29.1818182,97.4922869 28.855178,97.8181818 28.4553043,97.8181818 C27.6515619,97.8181818 27,98.4710386 27,99.2727273 L27,100.364716 C27,100.564951 27.1616475,100.727273 27.364563,100.727273 L44.0899825,100.727273 C44.2913251,100.727273 44.4545455,100.562532 44.4545455,100.364716 L44.4545455,99.2727273 C44.4545455,98.469404 43.7999281,97.8181818 42.9992411,97.8181818 C42.5979986,97.8181818 42.2727273,97.4948139 42.2727273,97.0902752 L42.2727273,92.7269998 C42.2727273,89.6771124 40.1871706,87.1144447 37.3636364,86.3879517 L37.3636364,85.6366741 C37.3636364,84.7306356 36.6310114,84 35.7272727,84 C34.825373,84 34.0909091,84.7327639 34.0909091,85.6366741 L34.0909091,86.3879245 Z M33.1818182,101.454545 L38.2727273,101.454545 C38.2727273,102.860361 37.1330884,104 35.7272727,104 C34.321457,104 33.1818182,102.860361 33.1818182,101.454545 Z" id="Shape" fill="#FFFFFF" fill-rule="nonzero"></path>
        </g>
    </g>
</svg>