<?xml version="1.0" encoding="UTF-8"?>
<svg width="20px" height="20px" viewBox="0 0 20 20" version="1.1" xmlns="http://www.w3.org/2000/svg" xmlns:xlink="http://www.w3.org/1999/xlink">
    <g id="Symbols" stroke="none" stroke-width="1">
        <g id="navbar-/-main-/-reduce" transform="translate(-26.000000, -372.000000)">
            <g id="Group" transform="translate(16.000000, 362.000000)">
                <g id="icon-/-menu-/-logement-copy">
                    <path d="M29.9843741,18.252884 L28.341558,12.052709 C28.2913762,11.8595001 28.1405002,11.7086165 27.9472937,11.6584252 L21.7470956,10.019479 C21.5565033,9.96720575 21.3525375,10.021891 21.2136585,10.1624987 L10.1623489,21.2099633 C9.9458837,21.4267349 9.9458837,21.7778662 10.1623489,21.9946379 L18.00534,29.837652 C18.2221212,30.054116 18.5732565,30.054116 18.7900377,29.837652 L29.8374791,18.7863176 C29.9791153,18.6480412 30.0352551,18.4441751 29.9843741,18.252884 Z M15.2608865,20.8195494 C15.4776581,20.6030842 15.8287894,20.6030842 16.045561,20.8195494 L19.1804604,23.9544257 C19.320824,24.0945602 19.3757123,24.2989609 19.3244297,24.4905587 C19.2731471,24.6821565 19.1234936,24.8318101 18.9318958,24.8830926 C18.740298,24.9343752 18.5358973,24.8794869 18.3957628,24.7391233 L15.2608882,21.604224 C15.0444221,21.3874528 15.0444221,21.0363206 15.2608882,20.8195494 L15.2608865,20.8195494 Z M21.1402216,22.7793319 C20.9234504,22.9957981 20.5723183,22.9957981 20.3555471,22.7793319 L17.2206726,19.6444574 C17.0804998,19.5042888 17.0257539,19.2999864 17.0770572,19.1085089 C17.1283604,18.9170315 17.2779185,18.767469 17.4693944,18.7161601 C17.6608704,18.6648513 17.8651744,18.7195912 18.0053471,18.8597598 L21.1402234,21.9946432 C21.3566838,22.2114237 21.3566838,22.562555 21.1402234,22.7793355 L21.1402216,22.7793319 Z M22.5124759,14.9401858 C23.0278028,14.4240806 23.8033483,14.2693587 24.4772693,14.548208 C25.1511902,14.8270574 25.590675,15.4845243 25.590675,16.2138572 C25.590675,16.9431901 25.1511902,17.600657 24.4772693,17.8795064 C23.8033483,18.1583557 23.0278028,18.0036338 22.5124759,17.4875286 C21.811519,16.7830781 21.8115198,15.6446388 22.5124777,14.9401894 L22.5124759,14.9401858 Z" id="Shape"></path>
                </g>
            </g>
        </g>
    </g>
</svg>