<?xml version="1.0" encoding="UTF-8"?>
<svg width="40px" height="40px" viewBox="0 0 40 40" version="1.1" xmlns="http://www.w3.org/2000/svg" xmlns:xlink="http://www.w3.org/1999/xlink">
    <g id="Symbols" stroke="none" stroke-width="1">
        <g id="navbar-/-main-/-reduce" transform="translate(-16.000000, -170.000000)">
            <g id="icon-/-menu-/-logement-copy-2" transform="translate(16.000000, 170.000000)">
                <path d="M20.1455026,8.88888889 C17.5352734,8.88888889 15.3835979,11.005291 15.3835979,13.6507937 C15.3835979,14.3209877 15.9479718,14.8853616 16.6181658,14.8853616 C17.2883598,14.8853616 17.8527337,14.3209877 17.8527337,13.6507937 C17.8527337,12.3809524 18.8756614,11.3580247 20.1455026,11.3580247 C21.4153439,11.3580247 22.4382716,12.3809524 22.4382716,13.6507937 L22.4382716,14.5679012 C22.4382716,15.3791887 22.191358,16.0493827 21.6269841,16.5784832 C20.2865961,17.9188713 17.5,18.2010582 16.5123457,18.1657848 C16.1948854,18.1657848 15.877425,18.2716049 15.6305115,18.5185185 C15.3835979,18.7654321 15.2777778,19.047619 15.2777778,19.4003527 L15.2777778,28.0070547 C15.2777778,29.2416226 15.7716049,29.9823633 16.2301587,30.3703704 C16.9356261,31.005291 17.8174603,31.1111111 18.2407407,31.1111111 C18.3112875,31.1111111 18.3465608,31.1111111 18.3818342,31.1111111 L22.0502646,31.1111111 C23.9197531,31.1111111 24.7310406,29.5238095 24.8368607,28.4303351 C24.8368607,28.3950617 24.8368607,28.3597884 24.8368607,28.324515 L24.8368607,13.6507937 C24.9074074,11.005291 22.7910053,8.88888889 20.1455026,8.88888889 Z" id="Path"></path>
            </g>
        </g>
    </g>
</svg>