<?xml version="1.0" encoding="UTF-8"?>
<svg width="19px" height="18px" viewBox="0 0 19 18" version="1.1" xmlns="http://www.w3.org/2000/svg" xmlns:xlink="http://www.w3.org/1999/xlink">
    <g id="Symbols" stroke="none" stroke-width="1" fill="none" fill-rule="evenodd">
        <g id="navbar-/-main-/-reduce" transform="translate(-25.000000, -641.000000)">
            <g id="Group" transform="translate(16.000000, 632.000000)" fill="#333333" fill-rule="nonzero">
                <g id="Shape">
                    <path d="M25.2117241,19.9 C25.0717241,20.42 24.8717241,20.9 24.6117241,21.36 L25.5717241,23.7 L24.2717241,25 L21.9317241,24.04 C21.4717241,24.3 20.9917241,24.5 20.4717241,24.64 L19.4717241,27 L17.6317241,27 L16.6517241,24.66 C16.1317241,24.52 15.6517241,24.32 15.1917241,24.06 L12.8517241,25.02 L11.5517241,23.72 L12.5117241,21.38 C12.2517241,20.92 12.0517241,20.44 11.9117241,19.92 L9.55172414,18.92 L9.55172414,17.08 L11.8917241,16.1 C12.0317241,15.58 12.2317241,15.1 12.4917241,14.64 L11.5317241,12.3 L12.8317241,11 L15.1717241,11.96 C15.6317241,11.7 16.1117241,11.5 16.6317241,11.36 L17.6317241,9 L19.4717241,9 L20.4517241,11.34 C20.9717241,11.48 21.4517241,11.68 21.9117241,11.94 L24.2517241,10.98 L25.5517241,12.28 L24.5917241,14.62 C24.8517241,15.08 25.0517241,15.56 25.1917241,16.08 L27.5517241,17.08 L27.5517241,18.92 L25.2117241,19.9 Z M22.0917241,17.94 C22.0917241,15.9573913 20.4743328,14.34 18.4917241,14.34 C16.5091154,14.34 14.8917241,15.9573913 14.8917241,17.94 C14.8917241,19.9226087 16.5091154,21.54 18.4917241,21.54 C20.4743328,21.54 22.0917241,19.9226087 22.0917241,17.94 Z"></path>
                </g>
            </g>
        </g>
    </g>
</svg>