<svg width="56" height="14" viewBox="0 0 56 14" fill="none" xmlns="http://www.w3.org/2000/svg">
<path fill-rule="evenodd" clip-rule="evenodd" d="M40.332 13.3481C39.428 13.4841 38.408 13.5521 37.272 13.5521C36.52 13.5521 35.832 13.4801 35.208 13.3361C34.584 13.1921 34.052 12.9601 33.612 12.6401C33.172 12.3201 32.828 11.9041 32.58 11.3921C32.332 10.8801 32.208 10.2481 32.208 9.49607C32.208 8.77607 32.348 8.16807 32.628 7.67207C32.908 7.17607 33.288 6.77207 33.768 6.46007C34.248 6.14807 34.804 5.92407 35.436 5.78807C36.068 5.65207 36.728 5.58407 37.416 5.58407C37.736 5.58407 38.072 5.60407 38.424 5.64407C38.776 5.68407 39.152 5.75207 39.552 5.84807V5.36807C39.552 5.03207 39.512 4.71207 39.432 4.40807C39.352 4.10407 39.212 3.83607 39.012 3.60407C38.812 3.37207 38.548 3.19207 38.22 3.06407C37.892 2.93607 37.48 2.87207 36.984 2.87207C36.312 2.87207 35.696 2.92007 35.136 3.01607C34.576 3.11207 34.12 3.22407 33.768 3.35207L33.408 1.00007C33.776 0.872072 34.312 0.744072 35.016 0.616072C35.72 0.488072 36.472 0.424072 37.272 0.424072C38.232 0.424072 39.04 0.544072 39.696 0.784072C40.352 1.02407 40.876 1.36007 41.268 1.79207C41.66 2.22407 41.94 2.74807 42.108 3.36407C42.276 3.98007 42.36 4.65607 42.36 5.39207V13.0001C41.912 13.0961 41.236 13.2121 40.332 13.3481ZM16.14 13.2881V3.16007C16.332 3.12807 16.62 3.08807 17.004 3.04007C17.388 2.99207 17.74 2.96807 18.06 2.96807C18.956 2.96807 19.568 3.26007 19.896 3.84407C20.224 4.42807 20.388 5.37607 20.388 6.68807V13.2881H23.292V6.35207C23.292 5.84007 23.268 5.36007 23.22 4.91207C23.172 4.46407 23.084 4.04007 22.956 3.64007C23.164 3.49607 23.476 3.34807 23.892 3.19607C24.308 3.04407 24.748 2.96807 25.212 2.96807C26.124 2.96807 26.74 3.26007 27.06 3.84407C27.38 4.42807 27.54 5.37607 27.54 6.68807V13.2881H30.444V6.23207C30.444 5.38407 30.376 4.60407 30.24 3.89207C30.104 3.18007 29.856 2.57207 29.496 2.06807C29.136 1.56407 28.64 1.17207 28.008 0.892072C27.376 0.612072 26.572 0.472072 25.596 0.472072C25.212 0.472072 24.832 0.512072 24.456 0.592072C24.08 0.672072 23.724 0.772072 23.388 0.892072C23.052 1.01207 22.748 1.14407 22.476 1.28807C22.204 1.43207 21.98 1.56807 21.804 1.69607C21.436 1.32807 20.976 1.03207 20.424 0.808072C19.872 0.584072 19.164 0.472072 18.3 0.472072C17.292 0.472072 16.336 0.544072 15.432 0.688072C14.528 0.832072 13.796 0.984072 13.236 1.14407V13.2881H16.14ZM5.304 13.5761C6.376 13.5761 7.36 13.5001 8.256 13.3481C9.152 13.1961 9.88 13.0481 10.44 12.9041V0.736072H7.536V10.8881C7.344 10.9361 7.052 10.9761 6.66 11.0081C6.268 11.0401 5.896 11.0561 5.544 11.0561C4.568 11.0561 3.884 10.7681 3.492 10.1921C3.1 9.61607 2.904 8.65607 2.904 7.31207V0.736072H0V7.76807C0 8.61607 0.088 9.39607 0.264 10.1081C0.44 10.8201 0.732 11.4321 1.14 11.9441C1.548 12.4561 2.092 12.8561 2.772 13.1441C3.452 13.4321 4.296 13.5761 5.304 13.5761ZM37.512 11.2481C36.776 11.2481 36.192 11.1161 35.76 10.8521C35.328 10.5881 35.112 10.1121 35.112 9.42407C35.112 9.07207 35.192 8.78007 35.352 8.54807C35.512 8.31607 35.724 8.13607 35.988 8.00807C36.252 7.88007 36.548 7.79207 36.876 7.74407C37.204 7.69607 37.528 7.67207 37.848 7.67207C38.216 7.67207 38.552 7.69607 38.856 7.74407C39.16 7.79207 39.392 7.84007 39.552 7.88807V11.1041C39.088 11.2001 38.408 11.2481 37.512 11.2481ZM47.916 3.16007V13.2881H45.012V1.14407C45.572 0.984072 46.3 0.832072 47.196 0.688072C48.092 0.544072 49.084 0.472072 50.172 0.472072C51.196 0.472072 52.052 0.612072 52.74 0.892072C53.428 1.17207 53.976 1.56407 54.384 2.06807C54.792 2.57207 55.08 3.18007 55.248 3.89207C55.416 4.60407 55.5 5.38407 55.5 6.23207V13.2881H52.596V6.68807C52.596 6.01607 52.552 5.44407 52.464 4.97207C52.376 4.50007 52.232 4.11607 52.032 3.82007C51.832 3.52407 51.56 3.30807 51.216 3.17207C50.872 3.03607 50.452 2.96807 49.956 2.96807C49.588 2.96807 49.204 2.99207 48.804 3.04007C48.404 3.08807 48.108 3.12807 47.916 3.16007Z" fill="white"/>
</svg>
