<?xml version="1.0" encoding="UTF-8"?>
<svg width="22px" height="22px" viewBox="0 0 22 22" version="1.1" xmlns="http://www.w3.org/2000/svg" xmlns:xlink="http://www.w3.org/1999/xlink">
    <g id="Symbols" stroke="none" stroke-width="1" fill="none" fill-rule="evenodd">
        <g id="navbar-/-main-/-reduce" transform="translate(-25.000000, -308.000000)">
            <g id="Group" transform="translate(16.000000, 298.000000)" fill="#FFFFFF" fill-rule="nonzero">
                <g id="Group" transform="translate(8.888889, 10.000000)">
                    <path d="M5.84731707,9.92487805 C6.31536585,11.1860976 7.05804878,12.4121951 7.97609756,13.3070732 C8.49439024,13.815122 9.0702439,14.2168293 9.68317073,14.4607317 C10.104878,14.6268293 10.5458537,14.7207317 10.9992683,14.7207317 C11.4502439,14.7207317 11.8912195,14.6282927 12.3126829,14.4607317 C12.9478049,14.207561 13.5426829,13.7868293 14.0756098,13.2546341 C14.9709756,12.3612195 15.6965854,11.1539024 16.1541463,9.91463415 C16.5085366,9.81073171 16.8785366,9.14853659 17.03,8.30243902 C17.1929268,7.38439024 17.0392683,6.58390244 16.6843902,6.45146341 C16.6978049,6.22707317 16.7058537,5.9997561 16.704878,5.76878049 C16.6965854,2.44121951 14.7453659,0.244634146 11.67,0.0385365854 C8.98878049,-0.141707317 6.96829268,0.923658537 6.04829268,2.69414634 C5.73804878,3.29 5.56243902,4.29853659 5.49365854,5.10829268 C5.3902439,5.53 5.3297561,5.96829268 5.3297561,6.42195122 L5.34073171,6.42195122 C5.34073171,6.42609756 5.3402439,6.42926829 5.3395122,6.43219512 C5.33219512,6.43268293 5.32707317,6.43365854 5.3197561,6.43487805 C4.92829268,6.50268293 4.74926829,7.3395122 4.92121951,8.30390244 C5.07926829,9.18853659 5.47731707,9.87292683 5.84731707,9.92487805 Z M5.93463415,7.44609756 C5.97219512,7.33317073 6.02317073,7.24512195 6.0897561,7.19853659 C6.11804878,7.17902439 6.14804878,7.16463415 6.17926829,7.1595122 C6.25243902,7.14707317 6.32853659,7.17536585 6.40341463,7.23512195 C6.40341463,7.23512195 6.40341463,7.23512195 6.40414634,7.23512195 C6.40414634,7.2295122 6.40463415,7.22341463 6.40487805,7.21829268 C6.41926829,7.07804878 6.53097561,6.32487805 7.00073171,5.72731707 C7.36463415,5.26341463 7.94658537,4.89341463 8.86658537,4.97829268 C8.86658537,4.97829268 10.7104878,5.65756098 12.3870732,5.05682927 C12.5673171,5.05317073 12.7436585,5.05170732 12.9056098,5.05731707 C13.5995122,5.08292683 14.0753659,5.44317073 14.5736585,5.67487805 C14.5568293,5.44609756 14.38,5.21243902 14.3887805,5.05682927 C14.4682927,5.0795122 14.5402439,5.11390244 14.61,5.15097561 C14.9687805,5.53317073 15.3163415,6.17439024 15.5912195,7.22121951 C15.5912195,7.22585366 15.5912195,7.23 15.5912195,7.23365854 C15.5939024,7.23317073 15.5939024,7.23317073 15.5953659,7.23268293 C15.5953659,7.23317073 15.5953659,7.23317073 15.5953659,7.23365854 L15.6,7.22902439 C15.6358537,7.20073171 15.6731707,7.1797561 15.7095122,7.16804878 C15.7290244,7.16073171 15.7480488,7.16341463 15.767561,7.16195122 C15.7839024,7.16097561 15.802439,7.15487805 15.8173171,7.15780488 L15.8182927,7.15780488 C15.8358537,7.1604878 15.8541463,7.16707317 15.8702439,7.17365854 C16.0412195,7.25439024 16.1397561,7.57585366 16.1317073,7.9895122 C16.1290244,8.12609756 16.1153659,8.27414634 16.0873171,8.42707317 C16.0807317,8.46780488 16.0704878,8.50268293 16.0607317,8.54170732 C15.9704878,8.95634146 15.8043902,9.29585366 15.6278049,9.44634146 C15.5882927,9.48073171 15.545122,9.50487805 15.504878,9.51829268 C15.4670732,9.5304878 15.43,9.53634146 15.392439,9.5295122 C15.3519512,9.52292683 15.3129268,9.50121951 15.2778049,9.46878049 C14.852439,10.7919512 14.0419512,12.1085366 13.0192683,12.91 C12.8678049,13.0270732 12.7119512,13.1343902 12.5529268,13.2280488 C12.067561,13.5136585 11.5443902,13.6814634 11,13.6814634 C10.2909756,13.6814634 9.61853659,13.4007317 9.01902439,12.9417073 C7.97756098,12.1443902 7.15121951,10.8097561 6.72073171,9.46878049 C6.68560976,9.50121951 6.64634146,9.52219512 6.60463415,9.5295122 C6.51682927,9.54487805 6.42292683,9.5002439 6.33414634,9.41243902 C6.15243902,9.23097561 5.98853659,8.86634146 5.9102439,8.42756098 C5.90512195,8.39878049 5.90121951,8.37121951 5.89829268,8.34219512 C5.9002439,8.03731707 5.91439024,7.7397561 5.93463415,7.44609756 Z" id="Shape"></path>
                    <path d="M21.2975138,18.0360482 C21.0066827,17.5015863 20.7781008,17.068128 20.505122,16.7160976 C19.5256098,15.4512195 18.4963415,15.2478049 18.057561,15.1636585 C18.0036585,15.1539024 17.9590244,15.145122 17.922439,15.1370732 C17.4331707,15.022439 16.8712195,14.9892683 16.3758537,14.9607317 C15.9773171,14.9370732 15.5973171,14.9165854 15.2873171,14.8543902 C14.9270732,15.8073171 13.1573171,16.4997561 10.977561,16.4997561 C8.79682927,16.4997561 7.02829268,15.8073171 6.66829268,14.8543902 C6.35682927,14.9165854 5.97634146,14.9380488 5.57829268,14.9612195 C5.08243902,14.9890244 4.52146341,15.022439 4.03243902,15.1370732 C3.99560976,15.145122 3.9504878,15.1539024 3.89682927,15.1636585 C3.48268293,15.2439024 2.54170732,15.4246341 1.61317073,16.5082927 C1.28679945,16.8894386 0.970074601,17.382028 0.662113313,18.02083 C0.155193701,19.0723299 4.4541029,21.1111111 10.9980479,21.1111111 C17.5419928,21.1111111 21.9078378,19.157644 21.2975138,18.0360482 Z" id="Path"></path>
                </g>
            </g>
        </g>
    </g>
</svg>