<svg width="12" height="16" viewBox="0 0 12 16" fill="none" xmlns="http://www.w3.org/2000/svg">
<path d="M2.30816 8.03288C2.30816 7.60604 2.19869 7.26678 2.14396 7.026C2.10663 6.82129 2.01172 6.63147 1.87035 6.47878C1.70659 6.33908 1.51123 6.2414 1.30121 6.19421C0.961857 6.1111 0.618547 6.04535 0.272493 5.99721C0.130214 5.99721 0.0535223 5.8987 0.0535223 5.77831C0.0520466 5.75099 0.0560374 5.72368 0.0651455 5.69788C0.0742536 5.67209 0.0883947 5.64834 0.106695 5.62801C0.124996 5.60768 0.147061 5.59115 0.171758 5.57938C0.196455 5.56762 0.223262 5.56081 0.250582 5.55941C0.688363 5.47185 1.03853 5.40623 1.29026 5.32962C1.49939 5.28605 1.69477 5.19213 1.85939 5.056C1.99932 4.90507 2.09742 4.72015 2.14396 4.51967C2.19869 4.27889 2.25343 3.95058 2.30816 3.52374C2.30637 3.49502 2.31086 3.46623 2.32138 3.43944C2.33191 3.41266 2.34821 3.38852 2.36908 3.3687C2.38994 3.34888 2.41487 3.33389 2.44216 3.32475C2.46945 3.3156 2.4984 3.31254 2.52699 3.31579C2.55431 3.31432 2.58163 3.31824 2.60742 3.32735C2.63322 3.33646 2.65696 3.3506 2.67729 3.3689C2.69763 3.3872 2.71416 3.40933 2.72592 3.43403C2.73769 3.45873 2.74456 3.48547 2.74596 3.51279C2.74596 3.95057 2.8553 4.28985 2.91003 4.54158C2.93596 4.755 3.03343 4.95334 3.18644 5.10437C3.33946 5.25539 3.53903 5.35023 3.75277 5.37337C4.0045 5.43904 4.35472 5.49374 4.84723 5.55941C4.89656 5.56776 4.94228 5.59062 4.97856 5.62507C4.98943 5.64915 4.99512 5.67527 4.99512 5.70169C4.99512 5.72811 4.98943 5.75424 4.97856 5.77831C4.98166 5.83173 4.96404 5.8843 4.92939 5.92507C4.89474 5.96584 4.8458 5.99167 4.79258 5.99721C4.34386 6.07383 3.99363 6.15045 3.69813 6.21612C3.49123 6.26285 3.29931 6.36063 3.13995 6.50062C2.9946 6.65198 2.89581 6.84193 2.85538 7.04785C2.85538 7.28863 2.74591 7.617 2.69119 8.04383C2.68124 8.09813 2.65449 8.14792 2.61464 8.18612C2.56868 8.20285 2.5183 8.20285 2.47235 8.18612C2.43264 8.18034 2.39561 8.16253 2.36627 8.13515C2.33693 8.10777 2.31666 8.0721 2.30816 8.03288ZM6.68596 15.2562C6.62435 15.1988 6.58552 15.1211 6.57655 15.0374C6.50174 14.4449 6.39575 13.8567 6.25911 13.2753C6.17341 12.8599 6.02189 12.4609 5.81035 12.0933C5.6251 11.7924 5.36982 11.5408 5.0662 11.36C4.70341 11.1547 4.31251 11.0036 3.90601 10.9113C3.42446 10.8018 2.81159 10.7033 2.15492 10.6048C2.11329 10.6065 2.07174 10.5994 2.03307 10.5838C1.99441 10.5683 1.95954 10.5448 1.9306 10.5148C1.90167 10.4849 1.87929 10.4491 1.86514 10.4099C1.85099 10.3707 1.84532 10.329 1.84844 10.2874C1.84665 10.2494 1.85251 10.2114 1.86567 10.1757C1.87883 10.14 1.8991 10.1073 1.92513 10.0795C1.9853 10.0155 2.06729 9.97644 2.15492 9.97008C2.74331 9.91193 3.32793 9.82058 3.90601 9.69647C4.31678 9.61238 4.71196 9.46465 5.07715 9.25866C5.38337 9.07173 5.63886 8.8124 5.8213 8.50349C6.03103 8.13502 6.18244 7.73627 6.27007 7.32146C6.40659 6.73323 6.50895 6.13757 6.57655 5.5375C6.58799 5.45765 6.62662 5.38426 6.68596 5.32962C6.71374 5.30359 6.74644 5.28339 6.78216 5.27023C6.81787 5.25707 6.85582 5.25121 6.89385 5.253C6.93193 5.25056 6.97012 5.2561 7.00594 5.2693C7.04175 5.28249 7.07446 5.30305 7.10186 5.32962C7.1612 5.38426 7.19983 5.45765 7.21128 5.5375C7.29884 6.23795 7.40831 6.8399 7.51776 7.32146C7.60538 7.73627 7.75666 8.13502 7.96639 8.50349C8.14883 8.8124 8.40446 9.07173 8.71067 9.25866C9.07586 9.46465 9.47092 9.61238 9.88168 9.69647C10.4633 9.82134 11.0518 9.9127 11.6439 9.97008C11.6842 9.97313 11.7234 9.98439 11.7592 10.0032C11.7949 10.022 11.8264 10.048 11.8517 10.0795C11.8809 10.1055 11.9038 10.1376 11.9189 10.1736C11.9341 10.2096 11.941 10.2485 11.9393 10.2874C11.9427 10.3282 11.9367 10.3693 11.9215 10.4073C11.9063 10.4453 11.8824 10.4792 11.8517 10.5064C11.8274 10.5381 11.7959 10.5636 11.7597 10.5808C11.7235 10.5979 11.6839 10.6061 11.6439 10.6048C11.0515 10.6652 10.463 10.7602 9.88168 10.8894C9.46954 10.9686 9.07372 11.1166 8.71067 11.3272C8.40576 11.511 8.15024 11.7665 7.96639 12.0714C7.75672 12.4438 7.60548 12.8461 7.51776 13.2644C7.40831 13.7459 7.29884 14.3588 7.21128 15.0374C7.20231 15.1211 7.16348 15.1988 7.10186 15.2562C7.07446 15.2828 7.04175 15.3034 7.00594 15.3166C6.97012 15.3297 6.93193 15.3353 6.89385 15.3329C6.84967 15.3337 6.80588 15.3243 6.76599 15.3053C6.7261 15.2863 6.69124 15.2583 6.66405 15.2234L6.68596 15.2562ZM5.48209 3.65507C5.44858 3.44871 5.40475 3.24416 5.35077 3.04218C5.33037 2.91548 5.27327 2.79753 5.18657 2.7029C5.08939 2.61302 4.97346 2.54575 4.84723 2.50591C4.63458 2.4502 4.41905 2.40636 4.20154 2.37458C4.18283 2.3732 4.16457 2.36815 4.14783 2.35969C4.13109 2.35123 4.11621 2.33952 4.10401 2.32528C4.0918 2.31104 4.08256 2.29449 4.07675 2.27665C4.07095 2.25882 4.06871 2.24004 4.07021 2.22134C4.07021 2.14473 4.0702 2.10095 4.20154 2.07906C4.41943 2.04456 4.63502 1.99705 4.84723 1.93678C4.97438 1.90481 5.09126 1.84077 5.18657 1.75074C5.27126 1.65477 5.32807 1.53743 5.35077 1.41146C5.40571 1.20602 5.44955 0.997768 5.48209 0.787614C5.48736 0.753788 5.50459 0.722954 5.53072 0.700841C5.55686 0.678728 5.59015 0.666834 5.62438 0.667241C5.64164 0.665742 5.6589 0.66767 5.67541 0.672919C5.69192 0.678168 5.70735 0.686645 5.72057 0.697835C5.73379 0.709025 5.74459 0.722703 5.7525 0.738116C5.76041 0.753529 5.76528 0.770346 5.76666 0.787614C5.79921 0.997768 5.84304 1.20602 5.89799 1.41146C5.91704 1.54222 5.97709 1.66354 6.06953 1.75795C6.16198 1.85237 6.28202 1.91497 6.41235 1.93678C6.62456 1.99705 6.84015 2.04456 7.05804 2.07906C7.1456 2.07906 7.18937 2.14473 7.18937 2.22134C7.19086 2.24004 7.18862 2.25882 7.18282 2.27665C7.17702 2.29449 7.16777 2.31104 7.15557 2.32528C7.14336 2.33952 7.12849 2.35123 7.11175 2.35969C7.09501 2.36815 7.07674 2.3732 7.05804 2.37458C6.84053 2.40636 6.62499 2.4502 6.41235 2.50591C6.28293 2.54592 6.16345 2.61307 6.06205 2.7029C5.97953 2.8003 5.92316 2.91703 5.89799 3.04218C5.84401 3.24416 5.80018 3.44871 5.76666 3.65507C5.76673 3.67328 5.76298 3.69129 5.75571 3.70798C5.74843 3.72467 5.73769 3.73972 5.72431 3.75207C5.71093 3.76442 5.69517 3.7738 5.67795 3.77972C5.66073 3.78564 5.64252 3.78792 5.62438 3.7864C5.54777 3.79735 5.50398 3.75357 5.48209 3.65507Z" fill="#1F2B37"/>
</svg>
