<svg width="12" height="14" viewBox="0 0 12 14" fill="none" xmlns="http://www.w3.org/2000/svg">
<path d="M3.25667 6.23622L8.88236 11.8619L8.88248 12.0581C8.82152 12.688 8.37048 13.5909 7.34209 13.6621L7.21052 13.6666H4.9248C4.67084 13.6666 4.14174 13.6031 3.71845 13.2221C3.46166 13.0049 3.18644 12.6032 3.15088 11.9484L3.14703 11.8042V6.64013C3.14703 6.4857 3.18083 6.3538 3.25667 6.23622ZM6.06766 0.333252C7.60828 0.333252 8.84983 1.5295 8.88283 3.05119L8.88219 9.74192L12.0005 12.8603L11.3406 13.5203L0.0268555 2.20655L0.686822 1.54659L4.95146 5.81201C5.59787 5.70196 6.34891 5.47462 6.84689 5.04834L6.95655 4.94701C7.26439 4.65841 7.41481 4.29984 7.43962 3.87132L7.44332 3.74066V3.19039C7.44332 2.42849 6.82957 1.81473 6.06766 1.81473C5.30576 1.81473 4.692 2.42849 4.692 3.19039C4.692 3.59251 4.35338 3.93114 3.95126 3.93114C3.54914 3.93114 3.21052 3.59251 3.21052 3.19039C3.21052 1.60309 4.50152 0.333252 6.06766 0.333252Z" fill="#1F2B37"/>
</svg>
