<?xml version="1.0" standalone="no"?>
<!DOCTYPE svg PUBLIC "-//W3C//DTD SVG 1.1//EN" "http://www.w3.org/Graphics/SVG/1.1/DTD/svg11.dtd" >
<svg xmlns="http://www.w3.org/2000/svg" xmlns:xlink="http://www.w3.org/1999/xlink" version="1.1">
<metadata>
Created by FontForge 20170924 at Tue Mar 12 21:54:05 2019
 By www-data
Copyright 2016 by (URW)++ Design &#38; Development GmbH
</metadata>
<defs>
<font id="URWGeometric-ExtraBold" horiz-adv-x="387" >
  <font-face 
    font-family="URW Geometric ExtBd"
    font-weight="800"
    font-stretch="normal"
    units-per-em="1000"
    panose-1="1 0 0 0 0 0 0 0 0 0"
    ascent="800"
    descent="-200"
    x-height="443"
    cap-height="667"
    bbox="-136 -286 1230 1081"
    underline-thickness="50"
    underline-position="-225"
    unicode-range="U+0020-FB04"
  />
<missing-glyph horiz-adv-x="224" 
 />
    <glyph glyph-name="ff" unicode="ff" horiz-adv-x="530" 
d="M262 328h-74v-328h-128v328h-41v115h41v78q0 74 34 114.5t96 40.5q34 0 70 -9v-115q-27 9 -43 9q-29 0 -29 -42v-76h74v-115zM523 328h-74v-328h-128v328h-41v115h41v78q0 74 34 114.5t96 40.5q34 0 70 -9v-115q-27 9 -43 9q-29 0 -29 -42v-76h74v-115z" />
    <glyph glyph-name="fi" unicode="fi" horiz-adv-x="490" 
d="M262 328h-74v-328h-128v328h-41v115h41v78q0 74 34 114.5t96 40.5q34 0 70 -9v-115q-27 9 -43 9q-29 0 -29 -42v-76h74v-115zM312 443h128v-443h-128v443zM376 671q32 0 55 -22.5t23 -53.5q0 -32 -23 -54t-56 -22q-32 0 -54.5 22.5t-22.5 54.5q0 31 23 53t55 22z" />
    <glyph glyph-name="fl" unicode="fl" horiz-adv-x="500" 
d="M262 328h-74v-328h-128v328h-41v115h41v78q0 74 34 114.5t96 40.5q34 0 70 -9v-115q-27 9 -43 9q-29 0 -29 -42v-76h74v-115zM449 667v-667h-128v667h128z" />
    <glyph glyph-name="ffi" unicode="ffi" horiz-adv-x="751" 
d="M262 328h-74v-328h-128v328h-41v115h41v78q0 74 34 114.5t96 40.5q34 0 70 -9v-115q-27 9 -43 9q-29 0 -29 -42v-76h74v-115zM523 328h-74v-328h-128v328h-41v115h41v78q0 74 34 114.5t96 40.5q34 0 70 -9v-115q-27 9 -43 9q-29 0 -29 -42v-76h74v-115zM573 443h128v-443
h-128v443zM637 671q32 0 55 -22.5t23 -53.5q0 -32 -23 -54t-56 -22q-32 0 -54.5 22.5t-22.5 54.5q0 31 23 53t55 22z" />
    <glyph glyph-name="ffl" unicode="ffl" horiz-adv-x="752" 
d="M262 328h-74v-328h-128v328h-41v115h41v78q0 74 34 114.5t96 40.5q34 0 70 -9v-115q-27 9 -43 9q-29 0 -29 -42v-76h74v-115zM523 328h-74v-328h-128v328h-41v115h41v78q0 74 34 114.5t96 40.5q34 0 70 -9v-115q-27 9 -43 9q-29 0 -29 -42v-76h74v-115zM701 667v-667
h-128v667h128z" />
    <glyph glyph-name=".notdef" horiz-adv-x="224" 
 />
    <glyph glyph-name=".null" horiz-adv-x="0" 
 />
    <glyph glyph-name="nonmarkingreturn" horiz-adv-x="333" 
 />
    <glyph glyph-name="space" unicode=" " horiz-adv-x="224" 
 />
    <glyph glyph-name="exclam" unicode="!" horiz-adv-x="310" 
d="M155 138q32 0 55 -22.5t23 -53.5t-23 -53.5t-55 -22.5q-33 0 -55.5 22.5t-22.5 54.5q0 31 23 53t55 22zM215 178h-120l-11 489h142z" />
    <glyph glyph-name="quotedbl" unicode="&#x22;" horiz-adv-x="353" 
d="M161 693l-14 -310h-103l-14 310h131zM322 693l-14 -310h-103l-14 310h131z" />
    <glyph glyph-name="numbersign" unicode="#" horiz-adv-x="593" 
d="M72 7l36 173h-71l20 99h71l22 105h-71l20 99h71l41 198l104 -24l-35 -174h95l41 198l105 -22l-36 -176h71l-21 -99h-71l-21 -105h71l-21 -99h-71l-40 -197l-105 24l36 173h-96l-40 -197zM238 279h95l22 105h-96z" />
    <glyph glyph-name="dollar" unicode="$" horiz-adv-x="587" 
d="M54 190l130 34q8 -30 13 -44t16 -34t29.5 -28.5t44.5 -8.5q40 0 67.5 26.5t27.5 65.5q0 26 -20 43.5t-70 36.5l-58 23q-151 56 -151 182q0 67 41 117.5t110 70.5v93h131v-93q46 -13 79 -41t66 -82l-109 -69q-30 46 -50.5 61.5t-52.5 15.5q-35 0 -58.5 -21t-23.5 -53
q0 -41 72 -69l61 -23q167 -63 167 -191q0 -70 -41.5 -126.5t-109.5 -78.5v-100h-131v93q-146 32 -180 200z" />
    <glyph glyph-name="percent" unicode="%" horiz-adv-x="896" 
d="M693 404q166 0 166 -207q0 -206 -165 -206q-163 0 -163 209q0 99 41.5 151.5t120.5 52.5zM695 321q-71 0 -71 -117q0 -67 17 -98.5t54 -31.5q71 0 71 122q0 125 -71 125zM199 676q166 0 166 -207q0 -101 -41.5 -153.5t-121.5 -52.5q-165 0 -165 209q0 99 41.5 151.5
t120.5 52.5zM201 593q-71 0 -71 -117q0 -67 17 -98.5t54 -31.5q71 0 71 123q0 124 -71 124zM222 25l380 658l72 -42l-380 -657z" />
    <glyph glyph-name="ampersand" unicode="&#x26;" horiz-adv-x="675" 
d="M351 367l107 -124q13 29 32 82l122 -33l-6 -15q-27 -87 -58 -140l118 -137h-164l-36 43q-80 -59 -173 -59q-100 0 -168 58.5t-68 144.5q0 55 28.5 98t99.5 94q-36 47 -49.5 77t-13.5 64q0 70 48 116.5t120 46.5q70 0 117.5 -45t47.5 -112q0 -44 -24.5 -81.5t-79.5 -77.5z
M385 140l-130 155q-69 -59 -69 -103q0 -38 30 -63t75 -25q51 0 94 36zM280 450q36 29 48 44.5t12 35.5q0 22 -14 35.5t-37 13.5t-37.5 -14.5t-14.5 -37.5q0 -27 43 -77z" />
    <glyph glyph-name="quotesingle" unicode="'" horiz-adv-x="192" 
d="M161 693l-14 -310h-103l-14 310h131z" />
    <glyph glyph-name="parenleft" unicode="(" horiz-adv-x="329" 
d="M164 750l115 -54q-43 -111 -61 -205.5t-18 -214.5t18 -214.5t61 -205.5l-115 -54q-26 57 -27 59q-29 73 -48 189t-19 226t19 225.5t48 188.5q2 5 27 60z" />
    <glyph glyph-name="parenright" unicode=")" horiz-adv-x="329" 
d="M50 696l115 54q10 -21 27 -60q29 -73 48 -188.5t19 -225.5t-19 -226t-48 -189q-2 -3 -3.5 -6.5l-7.5 -17.5t-16 -35l-115 54q43 110 61 205t18 215t-18 215t-61 205z" />
    <glyph glyph-name="asterisk" unicode="*" horiz-adv-x="505" 
d="M92 683l105 -39l-5 112h121l-4 -112l105 39l38 -115l-109 -31l70 -88l-98 -71l-62 93l-62 -93l-99 71l70 88l-108 31z" />
    <glyph glyph-name="plus" unicode="+" horiz-adv-x="556" 
d="M20 370h199v200h118v-200h199v-115h-199v-200h-118v200h-199v115z" />
    <glyph glyph-name="comma" unicode="," horiz-adv-x="271" 
d="M11 -148l101 280l117 -43l-123 -275z" />
    <glyph glyph-name="hyphen" unicode="-" horiz-adv-x="284" 
d="M22 253v118h240v-118h-240z" />
    <glyph glyph-name="period" unicode="." horiz-adv-x="258" 
d="M129 138q32 0 55 -22.5t23 -53.5t-23 -53.5t-55 -22.5q-33 0 -55.5 22.5t-22.5 54.5q0 31 23 53t55 22z" />
    <glyph glyph-name="slash" unicode="/" horiz-adv-x="563" 
d="M146 -17l-104 61l376 640l103 -61z" />
    <glyph glyph-name="zero" unicode="0" horiz-adv-x="582" 
d="M291 683q263 0 263 -350q0 -349 -263 -349q-264 0 -264 354q0 170 67 257.5t197 87.5zM291 560q-52 0 -83 -34q-20 -23 -33 -74.5t-13 -106.5q0 -123 31 -180.5t98 -57.5q128 0 128 229q0 224 -128 224z" />
    <glyph glyph-name="one" unicode="1" horiz-adv-x="334" 
d="M268 667v-667h-133v506l-77 -43l-64 108l170 96h104z" />
    <glyph glyph-name="two" unicode="2" horiz-adv-x="499" 
d="M485 0h-445v103l236 260q63 71 63 126q0 33 -21.5 52t-59.5 19q-44 0 -65 -21t-38 -82l-123 33q19 91 76 142t150 51q95 0 154 -54.5t59 -143.5q0 -95 -72 -175l-169 -187h255v-123z" />
    <glyph glyph-name="three" unicode="3" horiz-adv-x="493" 
d="M231 289h-56v118h56q89 0 89 76q0 35 -23 56t-61 21q-32 0 -53 -14.5t-51 -57.5l-110 60q43 72 92.5 103.5t120.5 31.5q94 0 155 -55.5t61 -141.5q0 -75 -57 -131q72 -62 72 -154q0 -94 -66 -155.5t-167 -61.5q-114 0 -177 77q-32 40 -53 121l128 34q17 -62 38.5 -85.5
t64.5 -23.5q44 0 71.5 26t27.5 69q0 87 -102 87z" />
    <glyph glyph-name="four" unicode="4" horiz-adv-x="522" 
d="M17 244l284 445l109 -67l-232 -365h121v130h132v-130h69v-122h-69v-135h-132v135h-282v109z" />
    <glyph glyph-name="five" unicode="5" horiz-adv-x="541" 
d="M476 544h-223l-18 -88q12 2 31 2q101 0 171 -67.5t70 -165.5q0 -102 -72 -171.5t-178 -69.5q-74 0 -128 33.5t-102 109.5l107 74q26 -47 52.5 -70.5t72.5 -23.5q49 0 82 32.5t33 82.5q0 49 -32.5 82t-80.5 33q-46 0 -87 -42l-102 21l72 351h332v-123z" />
    <glyph glyph-name="six" unicode="6" horiz-adv-x="549" 
d="M84 378l226 311l104 -76l-121 -167q82 -8 134 -48q87 -65 87 -175q0 -100 -70 -169.5t-171 -69.5t-171.5 69.5t-70.5 168.5q0 82 53 156zM274 326q-49 0 -80 -30.5t-31 -77.5t31.5 -79t77.5 -32t78 32.5t32 78.5q0 47 -30.5 77.5t-77.5 30.5z" />
    <glyph glyph-name="seven" unicode="7" horiz-adv-x="457" 
d="M138 -22l-115 60l276 506h-295v123h456v-94z" />
    <glyph glyph-name="eight" unicode="8" horiz-adv-x="520" 
d="M108 356q-61 58 -61 130q0 83 61.5 140t151.5 57t151.5 -56.5t61.5 -139.5q0 -73 -61 -131q44 -37 62.5 -73t18.5 -85q0 -92 -66.5 -153t-166.5 -61t-166.5 61t-66.5 153q0 49 18.5 85t62.5 73zM262 293q-47 0 -75 -25.5t-28 -68.5t28 -69t73 -26t73 26.5t28 68.5
q0 41 -28 67.5t-71 26.5zM260 567q-38 0 -62.5 -23t-24.5 -58q0 -37 24 -59.5t63 -22.5q38 0 62.5 22.5t24.5 58.5t-24.5 59t-62.5 23z" />
    <glyph glyph-name="nine" unicode="9" horiz-adv-x="551" 
d="M464 289l-226 -311l-103 76l120 167q-82 8 -134 48q-87 65 -87 175q0 100 70 169.5t171 69.5t171.5 -69.5t70.5 -168.5q0 -81 -53 -156zM276 560q-46 0 -78 -32.5t-32 -78.5q0 -47 30.5 -77.5t77.5 -30.5q48 0 79.5 30.5t31.5 77.5t-31.5 79t-77.5 32z" />
    <glyph glyph-name="colon" unicode=":" horiz-adv-x="258" 
d="M129 138q32 0 55 -22.5t23 -53.5t-23 -53.5t-55 -22.5q-33 0 -55.5 22.5t-22.5 54.5q0 31 23 53t55 22zM129 430q32 0 55 -22.5t23 -53.5t-23 -53.5t-55 -22.5q-33 0 -55.5 22.5t-22.5 54.5q0 31 23 53t55 22z" />
    <glyph glyph-name="semicolon" unicode=";" horiz-adv-x="265" 
d="M151 430q32 0 55 -22.5t23 -53.5q0 -32 -23 -54t-56 -22q-32 0 -54.5 22.5t-22.5 54.5q0 31 23 53t55 22zM11 -148l101 280l117 -43l-123 -275z" />
    <glyph glyph-name="less" unicode="&#x3c;" horiz-adv-x="584" 
d="M48 386l487 229v-134l-316 -144l316 -145v-133l-487 229v98z" />
    <glyph glyph-name="equal" unicode="=" horiz-adv-x="556" 
d="M49 455h458v-116h-458v116zM49 286h458v-116h-458v116z" />
    <glyph glyph-name="greater" unicode="&#x3e;" horiz-adv-x="584" 
d="M535 287l-487 -228v134l316 144l-316 144v134l487 -229v-99z" />
    <glyph glyph-name="question" unicode="?" horiz-adv-x="441" 
d="M217 138q32 0 55 -22.5t23 -53.5t-23 -53.5t-55 -22.5q-33 0 -55.5 22.5t-22.5 54.5q0 31 23 53t55 22zM283 178h-131v63q0 49 13 76.5t51 58.5l40 34q49 40 49 84q0 30 -20 47.5t-55 17.5t-57.5 -16t-54.5 -65l-98 79q38 65 88 95.5t121 30.5q93 0 150.5 -52.5
t57.5 -136.5q0 -49 -19.5 -87t-67.5 -82l-45 -42q-14 -13 -19 -20q-3 -7 -3 -30v-55z" />
    <glyph glyph-name="at" unicode="@" horiz-adv-x="895" 
d="M503 533h138l-42 -324h3q62 0 96.5 43.5t34.5 121.5q0 117 -68 182t-183 65q-145 0 -232 -81t-87 -216q0 -121 76 -197q81 -81 244 -81q55 0 99.5 7.5t124.5 30.5l33 -90q-133 -43 -260 -43q-107 0 -191.5 31.5t-135.5 89.5q-89 103 -89 251q0 180 116.5 286.5
t298.5 106.5q160 0 256.5 -93t96.5 -247q0 -80 -31 -140.5t-89 -91.5q-52 -30 -141 -30h-131q-85 0 -137 52.5t-52 137.5q0 105 72 171q63 58 180 58zM448 209h50l30 229h-34q-67 0 -104.5 -35t-37.5 -97q0 -46 25 -71.5t71 -25.5z" />
    <glyph glyph-name="A" unicode="A" horiz-adv-x="643" 
d="M508 0l-55 155h-263l-56 -155h-140l249 667h157l249 -667h-141zM233 279h176l-88 246z" />
    <glyph glyph-name="B" unicode="B" horiz-adv-x="531" 
d="M258 0h-191v667h160q99 0 152 -31q42 -24 67 -67t25 -90q0 -68 -55 -122q86 -58 86 -159q0 -53 -27 -97t-76 -71q-52 -30 -141 -30zM197 286v-166h56q119 0 119 83q0 27 -11 44.5t-32 25.5t-40 10.5t-45 2.5h-47zM197 550v-154h41q49 0 70 11q37 21 37 67
q0 45 -28.5 60.5t-78.5 15.5h-41z" />
    <glyph glyph-name="C" unicode="C" horiz-adv-x="674" 
d="M650 556l-94 -90q-47 51 -85.5 71.5t-88.5 20.5q-92 0 -155 -65t-63 -160q0 -94 63.5 -159t155.5 -65q49 0 88 20.5t88 72.5l95 -89q-66 -69 -129 -99t-141 -30q-148 0 -251.5 102t-103.5 247t103.5 247.5t250.5 102.5q77 0 140 -30t127 -97z" />
    <glyph glyph-name="D" unicode="D" horiz-adv-x="620" 
d="M67 0v667h158q167 0 266.5 -90.5t99.5 -242.5t-99.5 -243t-266.5 -91h-158zM229 543h-29v-419h29q107 0 167.5 56t60.5 154q0 97 -61 153t-167 56z" />
    <glyph glyph-name="E" unicode="E" horiz-adv-x="489" 
d="M67 667h382v-123h-249v-145h221v-123h-221v-152h258v-124h-391v667z" />
    <glyph glyph-name="F" unicode="F" horiz-adv-x="452" 
d="M67 667h360v-123h-227v-145h207v-124h-207v-275h-133v667z" />
    <glyph glyph-name="G" unicode="G" horiz-adv-x="728" 
d="M376 250v123h321v-64q0 -146 -85.5 -235.5t-225.5 -89.5q-149 0 -253 101.5t-104 247.5t103.5 248t252.5 102q76 0 137 -28.5t131 -95.5l-94 -89q-49 50 -87 69t-88 19q-94 0 -157 -65t-63 -160t64 -159.5t158 -64.5q81 0 132 55q29 32 40 86h-182z" />
    <glyph glyph-name="H" unicode="H" horiz-adv-x="652" 
d="M67 667h133v-268h252v268h133v-667h-133v275h-252v-275h-133v667z" />
    <glyph glyph-name="I" unicode="I" horiz-adv-x="267" 
d="M67 667h133v-667h-133v667z" />
    <glyph glyph-name="J" unicode="J" horiz-adv-x="427" 
d="M226 667h133v-459q0 -87 -29 -140q-22 -40 -63.5 -62t-92.5 -22q-97 0 -184 91l81 96q55 -62 99 -62q56 0 56 99v459z" />
    <glyph glyph-name="K" unicode="K" horiz-adv-x="604" 
d="M610 667l-263 -283l257 -384h-158l-190 287l-56 -61v-226h-133v667h133v-260l241 260h169z" />
    <glyph glyph-name="L" unicode="L" horiz-adv-x="440" 
d="M67 0v667h133v-543h240v-124h-373z" />
    <glyph glyph-name="M" unicode="M" horiz-adv-x="800" 
d="M200 0h-133v667h123l210 -369l210 369h123v-667h-133v403l-151 -267h-98l-151 267v-403z" />
    <glyph glyph-name="N" unicode="N" horiz-adv-x="708" 
d="M200 0h-133v667h113l328 -434v434h133v-667h-113l-328 434v-434z" />
    <glyph glyph-name="O" unicode="O" horiz-adv-x="762" 
d="M381 683q145 0 248.5 -103t103.5 -247q0 -143 -103.5 -246t-247.5 -103q-147 0 -250 103t-103 251q0 140 105 242.5t247 102.5zM381 558q-89 0 -153 -65.5t-64 -156.5q0 -95 63 -161t154 -66q89 0 153 66t64 158q0 94 -63.5 159.5t-153.5 65.5z" />
    <glyph glyph-name="P" unicode="P" horiz-adv-x="478" 
d="M225 242h-25v-242h-133v667h158q94 0 145 -30q47 -26 73.5 -75t26.5 -107q0 -59 -27 -108t-73 -75q-51 -30 -145 -30zM200 545v-182h34q55 0 80.5 22t25.5 69t-25.5 69t-80.5 22h-34z" />
    <glyph glyph-name="Q" unicode="Q" horiz-adv-x="760" 
d="M700 40l-93 -91l-73 71q-76 -36 -154 -36q-144 0 -247.5 103t-103.5 246q0 144 103.5 247t248.5 103t248.5 -103t103.5 -247q0 -134 -93 -235zM434 117l-39 39l92 91l60 -58q51 60 51 143q0 95 -63 160.5t-154 65.5q-90 0 -153.5 -65.5t-63.5 -159.5q0 -90 63.5 -157
t148.5 -67q20 0 58 8z" />
    <glyph glyph-name="R" unicode="R" horiz-adv-x="561" 
d="M549 0h-150l-136 243h-5l-33 -1h-25v-242h-133v667h158q104 0 158 -32q48 -28 75.5 -76.5t27.5 -106.5q0 -113 -94 -173zM200 545v-182h34q64 0 93 21.5t29 68.5q0 53 -33 72.5t-89 19.5h-34z" />
    <glyph glyph-name="S" unicode="S" horiz-adv-x="525" 
d="M483 551l-109 -69q-30 46 -51 61.5t-52 15.5q-35 0 -58.5 -21.5t-23.5 -53.5q0 -41 72 -68l62 -23q166 -63 166 -191q0 -92 -66.5 -155t-164.5 -63q-54 0 -101.5 21.5t-76.5 58.5q-35 46 -53 125l130 35q7 -27 12.5 -43t16.5 -35t29.5 -28.5t43.5 -9.5q40 0 68 27t28 65
q0 26 -20.5 44t-69.5 37l-58 22q-151 58 -151 182q0 85 62.5 141.5t155.5 56.5q68 0 117 -31t92 -101z" />
    <glyph glyph-name="T" unicode="T" horiz-adv-x="441" 
d="M-6 667h453v-123h-160v-544h-133v544h-160v123z" />
    <glyph glyph-name="U" unicode="U" horiz-adv-x="642" 
d="M67 667h133v-409q0 -72 14 -96q13 -23 43.5 -38t63.5 -15t63.5 15t43.5 38q14 24 14 96v409h133v-427q0 -84 -30 -135q-32 -56 -93 -88.5t-131 -32.5t-131 32.5t-94 88.5q-29 51 -29 135v427z" />
    <glyph glyph-name="V" unicode="V" horiz-adv-x="584" 
d="M-6 667h140l158 -479l158 479h140l-222 -667h-152z" />
    <glyph glyph-name="W" unicode="W" horiz-adv-x="877" 
d="M-6 667h139l123 -427l127 427h111l128 -427l123 427h138l-199 -667h-119l-126 417l-126 -417h-119z" />
    <glyph glyph-name="X" unicode="X" horiz-adv-x="581" 
d="M569 667l-202 -319l221 -348h-153l-144 230l-146 -230h-151l222 347l-203 320h151l128 -203l128 203h149z" />
    <glyph glyph-name="Y" unicode="Y" horiz-adv-x="552" 
d="M209 0v276l-222 391h149l140 -254l140 254h149l-223 -391v-276h-133z" />
    <glyph glyph-name="Z" unicode="Z" horiz-adv-x="513" 
d="M494 667v-101l-310 -442h317v-124h-491v101l315 443h-287v123h456z" />
    <glyph glyph-name="bracketleft" unicode="[" horiz-adv-x="319" 
d="M286 734v-121h-86v-674h86v-121h-216v916h216z" />
    <glyph glyph-name="backslash" unicode="\" horiz-adv-x="549" 
d="M42 631l89 53l375 -648l-89 -53z" />
    <glyph glyph-name="bracketright" unicode="]" horiz-adv-x="319" 
d="M118 613h-86v121h216v-916h-216v121h86v674z" />
    <glyph glyph-name="asciicircum" unicode="^" horiz-adv-x="579" 
d="M289 550l-126 -216h-151l211 365h134l211 -365h-151z" />
    <glyph glyph-name="underscore" unicode="_" horiz-adv-x="528" 
d="M-13 -158v118h553v-118h-553z" />
    <glyph glyph-name="grave" unicode="`" horiz-adv-x="476" 
d="M235 487l-163 158l119 62l130 -172z" />
    <glyph glyph-name="a" unicode="a" horiz-adv-x="543" 
d="M494 443v-443h-128v25q-55 -41 -115 -41q-95 0 -161.5 69.5t-66.5 168.5q0 98 66.5 167.5t161.5 69.5q60 0 115 -41v25h128zM263 344q-50 0 -80.5 -33t-30.5 -88t30 -89.5t79 -34.5q47 0 77 34t30 87q0 55 -29 89.5t-76 34.5z" />
    <glyph glyph-name="b" unicode="b" horiz-adv-x="543" 
d="M178 0h-128v667h128v-249q55 41 115 41q95 0 161.5 -69.5t66.5 -167.5q0 -99 -66.5 -168.5t-161.5 -69.5q-60 0 -115 41v-25zM285 343q-49 0 -78.5 -33t-29.5 -88t29.5 -89t76.5 -34q48 0 78.5 34t30.5 87q0 55 -30 89t-77 34z" />
    <glyph glyph-name="c" unicode="c" horiz-adv-x="461" 
d="M450 371l-82 -85q-32 34 -54 46t-52 12q-51 0 -81 -33.5t-30 -90.5q0 -54 30.5 -87.5t80.5 -33.5q32 0 56 14t52 48l82 -85q-46 -49 -90 -70.5t-100 -21.5q-102 0 -171 68.5t-69 169.5t69 169t171 68q53 0 95.5 -20t92.5 -68z" />
    <glyph glyph-name="d" unicode="d" horiz-adv-x="543" 
d="M494 667v-667h-128v25q-55 -41 -115 -41q-95 0 -161.5 69.5t-66.5 168.5q0 98 66.5 167.5t161.5 69.5q59 0 115 -41v249h128zM262 343q-50 0 -80 -33t-30 -88t30 -89t78 -34q47 0 77 34t30 87q0 55 -29 89t-76 34z" />
    <glyph glyph-name="e" unicode="e" horiz-adv-x="493" 
d="M353 154l112 -44q-77 -126 -210 -126q-100 0 -166.5 68t-66.5 169q0 100 66 169t161 69q97 0 160 -70t63 -177q0 -16 -1 -35h-318q25 -80 101 -80q63 0 99 57zM153 266h192q-26 81 -96 81q-73 0 -96 -81z" />
    <glyph glyph-name="f" unicode="f" horiz-adv-x="269" 
d="M262 328h-74v-328h-128v328h-41v115h41v78q0 74 34 114.5t96 40.5q34 0 70 -9v-115q-27 9 -43 9q-29 0 -29 -42v-76h74v-115z" />
    <glyph glyph-name="g" unicode="g" horiz-adv-x="543" 
d="M366 -9v34q-57 -41 -115 -41q-95 0 -161.5 69.5t-66.5 168.5q0 98 66.5 167.5t161.5 69.5q58 0 115 -41v25h128v-452q0 -107 -67 -173.5t-174 -66.5q-73 0 -123.5 29t-101.5 89l86 82q10 -12 11 -13q3 -4 9 -10q51 -61 118 -61q55 0 84.5 32.5t29.5 91.5zM262 344
q-49 0 -79.5 -33.5t-30.5 -87.5q0 -55 30 -89.5t78 -34.5t77.5 34t29.5 89q0 54 -29.5 88t-75.5 34z" />
    <glyph glyph-name="h" unicode="h" horiz-adv-x="510" 
d="M50 667h128v-245q45 37 101 37q47 0 89 -23.5t64 -63.5q28 -49 28 -133v-239h-128v232q0 62 -16 86.5t-56 24.5q-28 0 -45.5 -9.5t-25 -28.5t-9.5 -36.5t-2 -45.5v-223h-128v667z" />
    <glyph glyph-name="i" unicode="i" horiz-adv-x="229" 
d="M51 443h128v-443h-128v443zM115 671q32 0 55 -22.5t23 -53.5q0 -32 -23 -54t-56 -22q-32 0 -54.5 22.5t-22.5 54.5q0 31 23 53t55 22z" />
    <glyph glyph-name="j" unicode="j" horiz-adv-x="237" 
d="M58 443h128v-532q0 -73 -33.5 -114t-93.5 -41q-31 0 -73 13v119q36 -13 53 -13q19 0 19 39v529zM123 671q32 0 55 -22.5t23 -53.5t-23 -53.5t-55 -22.5q-33 0 -55.5 22.5t-22.5 54.5q0 31 23 53t55 22z" />
    <glyph glyph-name="k" unicode="k" horiz-adv-x="491" 
d="M492 443l-192 -187l202 -256h-159l-132 170l-33 -32v-138h-128v667h128v-365l144 141h170z" />
    <glyph glyph-name="l" unicode="l" horiz-adv-x="230" 
d="M179 667v-667h-128v667h128z" />
    <glyph glyph-name="m" unicode="m" horiz-adv-x="761" 
d="M50 443h127v-21q45 37 97 37q62 0 115 -49q57 49 129 49q115 0 166 -92q27 -46 27 -130v-237h-128v230q0 64 -14 89t-50 25q-21 0 -35.5 -8t-22 -19t-11.5 -29.5t-4.5 -32t-0.5 -34.5v-221h-128v230q0 64 -14.5 89t-50.5 25q-21 0 -35.5 -8t-22 -19t-11.5 -29.5t-4.5 -32
t-0.5 -34.5v-221h-128v443z" />
    <glyph glyph-name="n" unicode="n" horiz-adv-x="510" 
d="M50 443h128v-21q45 37 101 37q47 0 89 -23.5t64 -63.5q28 -49 28 -133v-239h-128v232q0 63 -16 87.5t-56 24.5q-22 0 -38 -7t-24.5 -17.5t-13 -28t-5.5 -32t-1 -36.5v-223h-128v443z" />
    <glyph glyph-name="o" unicode="o" horiz-adv-x="520" 
d="M264 459q97 0 166 -69.5t69 -167.5q0 -100 -68.5 -169t-169.5 -69t-170 69t-69 171q0 100 69.5 167.5t172.5 67.5zM262 343q-50 0 -80.5 -33t-30.5 -88t30.5 -89t79.5 -34q48 0 78.5 34t30.5 87q0 55 -30 89t-78 34z" />
    <glyph glyph-name="p" unicode="p" horiz-adv-x="543" 
d="M50 -233v676h128v-25q55 41 115 41q95 0 161.5 -69.5t66.5 -168.5t-66.5 -168t-161.5 -69q-60 0 -115 41v-258h-128zM283 344q-47 0 -76.5 -34t-29.5 -88q0 -55 29 -89t76 -34q49 0 79.5 33.5t30.5 87.5q0 55 -30 89.5t-79 34.5z" />
    <glyph glyph-name="q" unicode="q" horiz-adv-x="543" 
d="M366 443h128v-676h-128v258q-55 -41 -115 -41q-95 0 -161.5 69.5t-66.5 167.5q0 99 66.5 168.5t161.5 69.5q60 0 115 -41v25zM260 344q-48 0 -78 -34.5t-30 -89.5q0 -53 30.5 -87t77.5 -34q48 0 77.5 33.5t29.5 87.5q0 56 -29.5 90t-77.5 34z" />
    <glyph glyph-name="r" unicode="r" horiz-adv-x="311" 
d="M50 443h128v-24q38 27 81 27q14 0 44 -3v-114q-24 2 -44 2q-46 0 -63.5 -25t-17.5 -92v-214h-128v443z" />
    <glyph glyph-name="s" unicode="s" horiz-adv-x="389" 
d="M17 120l108 40q18 -35 34 -49t38 -14q19 0 30.5 10t11.5 27q0 12 -8.5 19.5t-36.5 17.5l-59 24q-91 35 -91 120q0 61 46.5 102.5t114.5 41.5q104 0 160 -104l-102 -48q-27 40 -59 40q-37 0 -37 -29q0 -10 8.5 -16.5t35.5 -17.5l51 -20q105 -39 105 -125q0 -65 -49 -110
t-122 -45q-127 0 -179 136z" />
    <glyph glyph-name="t" unicode="t" horiz-adv-x="274" 
d="M249 328h-67v-180q0 -38 19 -38q16 0 54 13v-119q-36 -13 -73 -13q-61 0 -94.5 40.5t-33.5 114.5v182h-45v115h45v92l128 50v-142h67v-115z" />
    <glyph glyph-name="u" unicode="u" horiz-adv-x="510" 
d="M460 0h-128v21q-45 -37 -101 -37q-47 0 -89 23.5t-64 63.5q-28 49 -28 133v239h128v-232q0 -62 16 -86.5t56 -24.5q28 0 45.5 9.5t25 28.5t9.5 36.5t2 45.5v223h128v-443z" />
    <glyph glyph-name="v" unicode="v" horiz-adv-x="469" 
d="M-12 443h137l110 -262l109 262h137l-190 -443h-113z" />
    <glyph glyph-name="w" unicode="w" horiz-adv-x="658" 
d="M148 0l-160 443h136l76 -234l80 234h98l80 -234l77 234h136l-161 -443h-102l-79 230l-79 -230h-102z" />
    <glyph glyph-name="x" unicode="x" horiz-adv-x="493" 
d="M489 443l-166 -214l178 -229h-154l-101 132l-100 -132h-154l178 229l-166 214h154l89 -117l89 117h153z" />
    <glyph glyph-name="y" unicode="y" horiz-adv-x="474" 
d="M50 -233l113 256l-175 420h137l108 -264l117 264h137l-302 -676h-135z" />
    <glyph glyph-name="z" unicode="z" horiz-adv-x="418" 
d="M31 443h370v-93l-209 -236h218v-114h-392v92l210 237h-197v114z" />
    <glyph glyph-name="braceleft" unicode="{" horiz-adv-x="321" 
d="M247 -63h42v-118q-25 0 -31 -1h-25q-148 0 -148 159v190q-1 34 -9 43.5t-44 17.5v102l12 3q26 8 33 17t8 37v187q0 82 36.5 121t111.5 39q11 0 56 -1v-119l-31 1h-9q-25 -1 -29 -5t-5 -27v-201q-1 -71 -34 -106q33 -35 34 -109v-198q0 -22 4.5 -26.5t27.5 -5.5z" />
    <glyph glyph-name="bar" unicode="|" horiz-adv-x="529" 
d="M201 -176v904h126v-904h-126z" />
    <glyph glyph-name="braceright" unicode="}" horiz-adv-x="321" 
d="M32 -181v118q8 1 19 1t23 -1q22 0 27 5t5 27v198q1 74 34 109q-33 35 -34 106v201q-1 23 -5 27t-29 5h-9l-31 -1v119q45 1 56 1q75 0 111.5 -39t36.5 -121v-187q1 -28 8 -37t33 -17l12 -3v-102q-36 -8 -44 -17.5t-9 -43.5v-190q0 -159 -148 -159q-20 0 -56 1z" />
    <glyph glyph-name="asciitilde" unicode="~" horiz-adv-x="709" 
d="M167 545l-87 56q17 36 29 56.5t33 46t47.5 37t60.5 11.5q48 0 124 -36q58 -29 86 -29q23 0 36.5 13t44.5 64l88 -52q-36 -73 -60 -97q-50 -52 -113 -52q-28 0 -58.5 10t-97.5 40q-37 15 -56 15q-20 0 -34.5 -16t-42.5 -67z" />
    <glyph glyph-name="uni00A0" unicode="&#xa0;" horiz-adv-x="224" 
 />
    <glyph glyph-name="exclamdown" unicode="&#xa1;" horiz-adv-x="310" 
d="M84 -184l11 489h120l11 -489h-142zM155 496q32 0 55 -22.5t23 -53.5q0 -32 -23 -54t-56 -22q-32 0 -54.5 22.5t-22.5 54.5q0 31 23 53t55 22z" />
    <glyph glyph-name="cent" unicode="&#xa2;" horiz-adv-x="553" 
d="M355 103v-103h-131v106q-76 22 -122.5 84.5t-46.5 142.5q0 81 46 142.5t123 84.5v107h131v-104q69 -18 128 -80l-82 -86q-32 34 -54.5 46t-51.5 12q-50 0 -80.5 -33.5t-30.5 -89.5q0 -55 30.5 -88t80.5 -33q31 0 55 13.5t53 47.5l82 -85q-58 -65 -130 -84z" />
    <glyph glyph-name="sterling" unicode="&#xa3;" horiz-adv-x="569" 
d="M243 395h198v-118h-173q8 -44 8 -74q0 -42 -23 -81h279v-122h-470v108l6 5q47 38 60.5 57t13.5 47q0 20 -9 60h-71v118h47q-5 34 -5 62q0 114 67 172q64 54 150 54q67 0 115 -31.5t88 -100.5l-107 -67q-27 44 -48 60t-52 16q-39 0 -60 -26.5t-21 -75.5q0 -22 7 -63z" />
    <glyph glyph-name="currency" unicode="&#xa4;" horiz-adv-x="750" 
d="M79 559l76 73l87 -89q67 39 133 39t133 -39l88 89l75 -73l-90 -91q38 -71 38 -134q0 -64 -37 -135l89 -90l-74 -75l-89 90q-69 -39 -133 -39t-133 39l-89 -90l-74 75l90 90q-38 71 -38 135q0 63 38 134zM377 469q-57 0 -91.5 -37t-34.5 -98t34.5 -98.5t89.5 -37.5
t89.5 37.5t34.5 98.5q0 59 -34 97t-88 38z" />
    <glyph glyph-name="yen" unicode="&#xa5;" horiz-adv-x="556" 
d="M61 318h125l-15 29h-110v99h53l-125 221h149l139 -253h1l140 253h149l-126 -221h55v-99h-112l-16 -29h128v-99h-152v-219h-133v219h-150v99z" />
    <glyph glyph-name="brokenbar" unicode="&#xa6;" horiz-adv-x="529" 
d="M201 210h126v-386h-126v386zM327 728v-380h-126v380h126z" />
    <glyph glyph-name="section" unicode="&#xa7;" horiz-adv-x="577" 
d="M287 410l62 -23q88 -34 129.5 -81t41.5 -114q0 -68 -46 -132q34 -46 34 -107q0 -89 -62.5 -145t-162.5 -56q-81 0 -139 38t-104 122l112 70q33 -59 63 -82.5t72 -23.5q39 0 63 21t24 56q0 26 -20.5 44.5t-73.5 38.5l-60 23q-153 59 -153 185q0 72 48 128q-37 47 -37 110
q0 86 63.5 143.5t158.5 57.5q69 0 118 -30.5t94 -100.5l-111 -71q-9 15 -14 20l-7 10q-22 28 -39.5 38t-44.5 10q-37 0 -61 -22t-24 -56q0 -42 76 -71zM290 274l-65 25l-2 -2q-24 -27 -24 -53q0 -22 18 -39t58 -32l90 -35q21 28 21 53q0 26 -20 43.5t-76 39.5z" />
    <glyph glyph-name="dieresis" unicode="&#xa8;" horiz-adv-x="476" 
d="M145 668q32 0 53.5 -21t21.5 -52t-22 -52t-54 -21q-31 0 -52.5 21.5t-21.5 52.5q0 29 22 50.5t53 21.5zM331 668q31 0 53 -21.5t22 -51.5t-22 -51.5t-53 -21.5t-53 21.5t-22 52.5q0 29 22 50.5t53 21.5z" />
    <glyph glyph-name="copyright" unicode="&#xa9;" horiz-adv-x="835" 
d="M424 714q153 0 263.5 -112.5t110.5 -267.5q0 -158 -111 -269.5t-269 -111.5q-159 0 -270 111.5t-111 271.5q0 158 113 268t274 110zM422 628q-123 0 -211 -85t-88 -207q0 -124 86 -210.5t209 -86.5q122 0 208 86.5t86 208.5q0 120 -86 207t-204 87zM620 478l-74 -70
q-34 38 -57 51t-56 13q-56 0 -95 -40.5t-39 -98.5t39 -98t95 -40q33 0 55.5 12.5t59.5 51.5l74 -70l-4 -4q-8 -8 -13 -12q-76 -76 -172 -76q-99 0 -169 69t-70 167t70 167.5t170 69.5q58 0 100 -22.5t86 -69.5z" />
    <glyph glyph-name="ordfeminine" unicode="&#xaa;" horiz-adv-x="348" 
d="M317 672v-266h-89v11q-32 -22 -65 -22q-59 0 -101 41.5t-42 100.5q0 60 42 103t101 43q33 0 65 -22v11h89zM170 604q-26 0 -43 -18.5t-17 -48.5q0 -29 16 -46t44 -17q26 0 42.5 18t16.5 46q0 30 -16 48t-43 18z" />
    <glyph glyph-name="guillemotleft" unicode="&#xab;" horiz-adv-x="509" 
d="M289 376l-122 -154l122 -151l-87 -69l-178 219l178 224zM471 377l-122 -155l123 -151l-87 -68l-178 219l178 223z" />
    <glyph glyph-name="logicalnot" unicode="&#xac;" horiz-adv-x="694" 
d="M641 370v-316h-124v199h-463v117h587z" />
    <glyph glyph-name="uni00AD" unicode="&#xad;" horiz-adv-x="284" 
d="M22 253v118h240v-118h-240z" />
    <glyph glyph-name="registered" unicode="&#xae;" horiz-adv-x="835" 
d="M423 714q153 0 263.5 -112.5t110.5 -267.5q0 -158 -111 -269.5t-269 -111.5t-269 111.5t-111 271.5q0 157 112.5 267.5t273.5 110.5zM606 108h-102l-88 158q-9 -1 -23 -1h-14v-157h-103v450h119q70 0 107 -22q33 -19 52 -52.5t19 -73.5q0 -71 -59 -115l101 -179
q45 40 70.5 98t25.5 120q0 122 -86.5 208t-207.5 86q-122 0 -208 -86.5t-86 -208.5q0 -121 86.5 -207.5t207.5 -86.5q105 0 189 69zM379 462v-101h22q37 0 54 12t17 38q0 27 -16.5 39t-54.5 12h-22z" />
    <glyph glyph-name="macron" unicode="&#xaf;" horiz-adv-x="476" 
d="M76 535v110h324v-110h-324z" />
    <glyph glyph-name="degree" unicode="&#xb0;" horiz-adv-x="328" 
d="M200 744q58 0 99.5 -42t41.5 -101q0 -61 -42 -103t-101 -42q-60 0 -102 42t-42 103q0 60 42.5 101.5t103.5 41.5zM198 655q-23 0 -39 -16t-16 -38q0 -23 16 -39.5t39 -16.5q22 0 38 16t16 39q0 22 -16 38.5t-38 16.5z" />
    <glyph glyph-name="plusminus" unicode="&#xb1;" horiz-adv-x="556" 
d="M20 116h516v-116h-516v116zM20 449h199v194h118v-194h199v-115h-199v-194h-118v194h-199v115z" />
    <glyph glyph-name="twosuperior" unicode="&#xb2;" 
d="M336 406h-279v68l143 151q37 38 37 67q0 35 -43 35q-25 0 -36 -11.5t-22 -48.5l-85 22q27 121 143 121q60 0 97 -33t37 -86q0 -59 -45 -105l-92 -97h145v-83z" />
    <glyph glyph-name="threesuperior" unicode="&#xb3;" 
d="M147 572v80h39q48 0 48 38q0 17 -11.5 27.5t-31.5 10.5q-19 0 -30.5 -8t-31.5 -35l-76 40q29 47 59.5 66t77.5 19q58 0 96.5 -34t38.5 -85q0 -43 -32 -75q40 -40 40 -88q0 -57 -41.5 -94t-104.5 -37q-120 0 -144 124l88 22q10 -38 21.5 -50.5t35.5 -12.5t38.5 13t14.5 35
q0 44 -55 44h-39z" />
    <glyph glyph-name="acute" unicode="&#xb4;" horiz-adv-x="476" 
d="M285 707l119 -62l-163 -158l-86 48z" />
    <glyph glyph-name="mu" unicode="&#xb5;" horiz-adv-x="510" 
d="M178 11v-244h-128v676h128v-233q0 -61 16 -85.5t56 -24.5q28 0 45.5 9.5t25 28.5t9.5 36.5t2 45.5v223h128v-443h-128v21q-41 -37 -82 -37q-35 0 -72 27z" />
    <glyph glyph-name="paragraph" unicode="&#xb6;" horiz-adv-x="645" 
d="M383 559v-792h-113v431q-48 7 -75.5 17.5t-55.5 34.5q-85 70 -85 182q0 100 67.5 167.5t166.5 67.5h320v-108h-63v-792h-113v792h-49z" />
    <glyph glyph-name="periodcentered" unicode="&#xb7;" horiz-adv-x="257" 
d="M129 387q32 0 54.5 -21.5t22.5 -52.5t-22.5 -53t-54.5 -22t-54.5 22t-22.5 53t22.5 52.5t54.5 21.5z" />
    <glyph glyph-name="cedilla" unicode="&#xb8;" horiz-adv-x="476" 
d="M242 -19l116 -48l-134 -164l-93 45z" />
    <glyph glyph-name="onesuperior" unicode="&#xb9;" 
d="M256 801v-395h-92v286l-42 -23l-45 73l109 59h70z" />
    <glyph glyph-name="ordmasculine" unicode="&#xba;" horiz-adv-x="341" 
d="M172 683q61 0 104.5 -42t43.5 -101q0 -61 -43.5 -102.5t-106.5 -41.5t-106.5 41.5t-43.5 102.5t43.5 102t108.5 41zM170 603q-27 0 -43.5 -17.5t-16.5 -45.5q0 -29 16.5 -46.5t43.5 -17.5q26 0 43 17.5t17 44.5q0 29 -16.5 47t-43.5 18z" />
    <glyph glyph-name="guillemotright" unicode="&#xbb;" horiz-adv-x="509" 
d="M38 71l122 151l-122 155l87 68l178 -223l-178 -219zM221 71l122 151l-122 154l87 69l178 -224l-179 -219z" />
    <glyph glyph-name="onequarter" unicode="&#xbc;" horiz-adv-x="833" 
d="M613 411l76 -45l-137 -206h56v75h91v-75h41v-82h-41v-78h-91v78h-170v70zM225 666v-394h-92v286l-42 -23l-45 72l109 59h70zM152 25l380 658l72 -42l-380 -657z" />
    <glyph glyph-name="onehalf" unicode="&#xbd;" horiz-adv-x="833" 
d="M151 25l380 658l72 -42l-380 -657zM768 0h-280v68l143 151q38 39 38 67q0 35 -43 35q-25 0 -36 -11t-22 -49l-86 22q27 121 143 121q60 0 97.5 -33t37.5 -86q0 -57 -45 -105l-93 -97h146v-83zM224 666v-394h-92v286l-42 -23l-45 72l109 59h70z" />
    <glyph glyph-name="threequarters" unicode="&#xbe;" horiz-adv-x="833" 
d="M651 411l76 -45l-136 -206h55v75h91v-75h42v-82h-42v-78h-91v78h-169v70zM144 437v80h39q48 0 48 38q0 17 -11.5 27.5t-31.5 10.5t-31.5 -8t-30.5 -35l-76 40q30 48 60.5 67t76.5 19q58 0 96.5 -34t38.5 -85q0 -44 -32 -76q40 -39 40 -88q0 -57 -41.5 -94t-104.5 -37
q-120 0 -144 124l88 22q10 -38 21.5 -50.5t35.5 -12.5t38.5 13t14.5 35q0 44 -55 44h-39zM212 25l380 658l72 -42l-380 -657z" />
    <glyph glyph-name="questiondown" unicode="&#xbf;" horiz-adv-x="441" 
d="M174 305h131v-63q0 -50 -13 -77t-51 -58l-40 -34q-49 -40 -49 -83q0 -31 20 -48.5t54 -17.5q36 0 58.5 16t54.5 65l98 -79q-72 -126 -210 -126q-92 0 -149.5 52.5t-57.5 136.5q0 49 19.5 87t66.5 82l46 42q16 15 18 20q4 0 4 30v55zM241 496q32 0 54.5 -22.5t22.5 -54.5
q0 -31 -23 -53t-55 -22t-55 22.5t-23 53.5q0 32 23 54t56 22z" />
    <glyph glyph-name="Agrave" unicode="&#xc0;" horiz-adv-x="643" 
d="M508 0l-55 155h-263l-56 -155h-140l249 667h157l249 -667h-141zM233 279h176l-88 246zM316 692l-163 157l120 62l129 -172z" />
    <glyph glyph-name="Aacute" unicode="&#xc1;" horiz-adv-x="643" 
d="M508 0l-55 155h-263l-56 -155h-140l249 667h157l249 -667h-141zM233 279h176l-88 246zM368 911l119 -62l-163 -157l-86 47z" />
    <glyph glyph-name="Acircumflex" unicode="&#xc2;" horiz-adv-x="643" 
d="M508 0l-55 155h-263l-56 -155h-140l249 667h157l249 -667h-141zM233 279h176l-88 246zM322 776l-88 -83l-97 47l145 153h79l145 -153l-97 -47z" />
    <glyph glyph-name="Atilde" unicode="&#xc3;" horiz-adv-x="643" 
d="M508 0l-55 155h-263l-56 -155h-140l249 667h157l249 -667h-141zM233 279h176l-88 246zM378 873l107 -24q-9 -125 -105 -125q-40 0 -79 21q-15 9 -25 9q-4 0 -6 -3q-1 -1 -7 -33l-105 23q13 125 108 125q33 0 78 -24q16 -8 24 -8q4 0 5.5 5t4.5 34z" />
    <glyph glyph-name="Adieresis" unicode="&#xc4;" horiz-adv-x="643" 
d="M508 0l-55 155h-263l-56 -155h-140l249 667h157l249 -667h-141zM233 279h176l-88 246zM229 868q32 0 53.5 -21t21.5 -52t-22 -52t-54 -21q-31 0 -52.5 21.5t-21.5 52.5q0 29 22 50.5t53 21.5zM415 868q32 0 53.5 -21t21.5 -52t-22 -52t-54 -21q-31 0 -52.5 21.5
t-21.5 52.5q0 29 22 50.5t53 21.5z" />
    <glyph glyph-name="Aring" unicode="&#xc5;" horiz-adv-x="643" 
d="M508 0l-55 155h-263l-56 -155h-140l249 667h157l249 -667h-141zM233 279h176l-88 246zM322 904q48 0 81.5 -33t33.5 -80t-33.5 -80t-81.5 -33t-81.5 33.5t-33.5 81.5q0 45 34 78t81 33zM322 843q-21 0 -36.5 -15t-15.5 -36q0 -22 15 -37.5t37 -15.5t37 15t15 37t-15 37
t-37 15z" />
    <glyph glyph-name="AE" unicode="&#xc6;" horiz-adv-x="845" 
d="M423 0v155h-200l-80 -155h-149l351 667h460v-123h-249v-145h221v-123h-221v-152h258v-124h-391zM287 279h136v249h-7z" />
    <glyph glyph-name="Ccedilla" unicode="&#xc7;" horiz-adv-x="674" 
d="M650 556l-94 -90q-47 51 -85.5 71.5t-88.5 20.5q-92 0 -155 -65t-63 -160q0 -94 63.5 -159t155.5 -65q49 0 88 20.5t88 72.5l95 -89q-66 -69 -129 -99t-141 -30q-148 0 -251.5 102t-103.5 247t103.5 247.5t250.5 102.5q77 0 140 -30t127 -97zM341 -19l116 -48l-134 -164
l-93 45z" />
    <glyph glyph-name="Egrave" unicode="&#xc8;" horiz-adv-x="489" 
d="M67 667h382v-123h-249v-145h221v-123h-221v-152h258v-124h-391v667zM266 692l-163 157l119 62l130 -172z" />
    <glyph glyph-name="Eacute" unicode="&#xc9;" horiz-adv-x="489" 
d="M67 667h382v-123h-249v-145h221v-123h-221v-152h258v-124h-391v667zM304 911l119 -62l-163 -157l-86 47z" />
    <glyph glyph-name="Ecircumflex" unicode="&#xca;" horiz-adv-x="489" 
d="M67 667h382v-123h-249v-145h221v-123h-221v-152h258v-124h-391v667zM263 776l-87 -83l-98 47l146 153h79l145 -153l-98 -47z" />
    <glyph glyph-name="Edieresis" unicode="&#xcb;" horiz-adv-x="489" 
d="M67 667h382v-123h-249v-145h221v-123h-221v-152h258v-124h-391v667zM170 868q32 0 53.5 -21t21.5 -52t-22 -52t-54 -21q-31 0 -52.5 21.5t-21.5 52.5q0 29 22 50.5t53 21.5zM356 868q32 0 53.5 -21t21.5 -52q0 -30 -22 -51.5t-53 -21.5t-53 21.5t-22 52.5q0 29 22 50.5
t53 21.5z" />
    <glyph glyph-name="Igrave" unicode="&#xcc;" horiz-adv-x="267" 
d="M67 667h133v-667h-133v667zM123 692l-163 157l119 62l130 -172z" />
    <glyph glyph-name="Iacute" unicode="&#xcd;" horiz-adv-x="267" 
d="M67 667h133v-667h-133v667zM184 911l119 -62l-163 -157l-86 47z" />
    <glyph glyph-name="Icircumflex" unicode="&#xce;" horiz-adv-x="267" 
d="M67 667h133v-667h-133v667zM134 776l-88 -83l-97 47l145 153h79l145 -153l-97 -47z" />
    <glyph glyph-name="Idieresis" unicode="&#xcf;" horiz-adv-x="267" 
d="M67 667h133v-667h-133v667zM53 868q32 0 53.5 -21t21.5 -52q0 -30 -22 -51.5t-53 -21.5q-32 0 -53.5 21.5t-21.5 52.5q0 29 22 50.5t53 21.5zM215 868q31 0 53 -21.5t22 -51.5q0 -31 -22 -52t-54 -21q-31 0 -52.5 21.5t-21.5 52.5q0 29 22 50.5t53 21.5z" />
    <glyph glyph-name="Eth" unicode="&#xd0;" horiz-adv-x="632" 
d="M17 418h62v249h159q166 0 265.5 -90.5t99.5 -242.5t-99.5 -243t-265.5 -91h-159v298h-62v120zM212 543v-125h143v-120h-143v-174h29q107 0 167.5 56t60.5 154q0 97 -61 153t-167 56h-29z" />
    <glyph glyph-name="Ntilde" unicode="&#xd1;" horiz-adv-x="708" 
d="M200 0h-133v667h113l328 -434v434h133v-667h-113l-328 434v-434zM414 873l106 -24q-4 -55 -20 -81q-26 -44 -84 -44q-40 0 -79 21q-15 9 -26 9q-7 -5 -13 -36l-104 23q12 125 107 125q34 0 79 -24q16 -8 24 -8q4 0 5.5 5t4.5 34z" />
    <glyph glyph-name="Ograve" unicode="&#xd2;" horiz-adv-x="762" 
d="M381 683q145 0 248.5 -103t103.5 -247q0 -143 -103.5 -246t-247.5 -103q-147 0 -250 103t-103 251q0 140 105 242.5t247 102.5zM381 558q-89 0 -153 -65.5t-64 -156.5q0 -95 63 -161t154 -66q89 0 153 66t64 158q0 94 -63.5 159.5t-153.5 65.5zM377 692l-163 157l119 62
l130 -172z" />
    <glyph glyph-name="Oacute" unicode="&#xd3;" horiz-adv-x="762" 
d="M381 683q145 0 248.5 -103t103.5 -247q0 -143 -103.5 -246t-247.5 -103q-147 0 -250 103t-103 251q0 140 105 242.5t247 102.5zM381 558q-89 0 -153 -65.5t-64 -156.5q0 -95 63 -161t154 -66q89 0 153 66t64 158q0 94 -63.5 159.5t-153.5 65.5zM429 911l120 -62
l-163 -157l-86 47z" />
    <glyph glyph-name="Ocircumflex" unicode="&#xd4;" horiz-adv-x="762" 
d="M381 683q145 0 248.5 -103t103.5 -247q0 -143 -103.5 -246t-247.5 -103q-147 0 -250 103t-103 251q0 140 105 242.5t247 102.5zM381 558q-89 0 -153 -65.5t-64 -156.5q0 -95 63 -161t154 -66q89 0 153 66t64 158q0 94 -63.5 159.5t-153.5 65.5zM381 776l-87 -83l-98 47
l146 153h79l145 -153l-97 -47z" />
    <glyph glyph-name="Otilde" unicode="&#xd5;" horiz-adv-x="762" 
d="M381 683q145 0 248.5 -103t103.5 -247q0 -143 -103.5 -246t-247.5 -103q-147 0 -250 103t-103 251q0 140 105 242.5t247 102.5zM381 558q-89 0 -153 -65.5t-64 -156.5q0 -95 63 -161t154 -66q89 0 153 66t64 158q0 94 -63.5 159.5t-153.5 65.5zM438 873l106 -24
q-10 -125 -104 -125q-40 0 -79 21q-15 9 -26 9q-7 -4 -13 -36l-104 23q12 125 107 125q34 0 79 -24q16 -8 24 -8q4 0 5.5 5t4.5 34z" />
    <glyph glyph-name="Odieresis" unicode="&#xd6;" horiz-adv-x="762" 
d="M381 683q145 0 248.5 -103t103.5 -247q0 -143 -103.5 -246t-247.5 -103q-147 0 -250 103t-103 251q0 140 105 242.5t247 102.5zM381 558q-89 0 -153 -65.5t-64 -156.5q0 -95 63 -161t154 -66q89 0 153 66t64 158q0 94 -63.5 159.5t-153.5 65.5zM288 868q31 0 53 -21.5
t22 -51.5q0 -31 -22 -52t-54 -21q-31 0 -52.5 21.5t-21.5 52.5q0 29 22 50.5t53 21.5zM474 868q32 0 53.5 -21t21.5 -52t-22 -52t-54 -21q-31 0 -52.5 21.5t-21.5 52.5q0 29 22 50.5t53 21.5z" />
    <glyph glyph-name="multiply" unicode="&#xd7;" horiz-adv-x="556" 
d="M55 171l141 141l-141 141l83 82l140 -140l141 140l83 -82l-141 -141l141 -141l-83 -82l-141 140l-140 -140z" />
    <glyph glyph-name="Oslash" unicode="&#xd8;" horiz-adv-x="770" 
d="M656 670l73 -70l-61 -60q69 -95 69 -206q0 -144 -103.5 -247t-248.5 -103q-113 0 -211 71l-60 -58l-73 70l61 60q-69 90 -69 206q0 144 104 247t249 103q114 0 211 -71zM197 220l307 301q-55 37 -119 37q-90 0 -153.5 -65.5t-63.5 -158.5q0 -61 29 -114zM573 447
l-306 -301q54 -37 118 -37q89 0 153 65.5t64 157.5q0 59 -29 115z" />
    <glyph glyph-name="Ugrave" unicode="&#xd9;" horiz-adv-x="642" 
d="M67 667h133v-409q0 -72 14 -96q13 -23 43.5 -38t63.5 -15t63.5 15t43.5 38q14 24 14 96v409h133v-427q0 -84 -30 -135q-32 -56 -93 -88.5t-131 -32.5t-131 32.5t-94 88.5q-29 51 -29 135v427zM320 692l-163 157l119 62l130 -172z" />
    <glyph glyph-name="Uacute" unicode="&#xda;" horiz-adv-x="642" 
d="M67 667h133v-409q0 -72 14 -96q13 -23 43.5 -38t63.5 -15t63.5 15t43.5 38q14 24 14 96v409h133v-427q0 -84 -30 -135q-32 -56 -93 -88.5t-131 -32.5t-131 32.5t-94 88.5q-29 51 -29 135v427zM366 911l119 -62l-163 -157l-86 47z" />
    <glyph glyph-name="Ucircumflex" unicode="&#xdb;" horiz-adv-x="642" 
d="M67 667h133v-409q0 -72 14 -96q13 -23 43.5 -38t63.5 -15t63.5 15t43.5 38q14 24 14 96v409h133v-427q0 -84 -30 -135q-32 -56 -93 -88.5t-131 -32.5t-131 32.5t-94 88.5q-29 51 -29 135v427zM321 776l-87 -83l-98 47l146 153h79l145 -153l-98 -47z" />
    <glyph glyph-name="Udieresis" unicode="&#xdc;" horiz-adv-x="642" 
d="M67 667h133v-409q0 -72 14 -96q13 -23 43.5 -38t63.5 -15t63.5 15t43.5 38q14 24 14 96v409h133v-427q0 -84 -30 -135q-32 -56 -93 -88.5t-131 -32.5t-131 32.5t-94 88.5q-29 51 -29 135v427zM228 868q32 0 53.5 -21t21.5 -52q0 -30 -22 -51.5t-53 -21.5
q-32 0 -53.5 21.5t-21.5 52.5q0 29 22 50.5t53 21.5zM414 868q32 0 53.5 -21t21.5 -52t-22 -52t-54 -21q-31 0 -52.5 21.5t-21.5 52.5q0 29 22 50.5t53 21.5z" />
    <glyph glyph-name="Yacute" unicode="&#xdd;" horiz-adv-x="552" 
d="M209 0v276l-222 391h149l140 -254l140 254h149l-223 -391v-276h-133zM321 911l119 -62l-163 -157l-86 47z" />
    <glyph glyph-name="Thorn" unicode="&#xde;" horiz-adv-x="478" 
d="M200 667v-86h25q94 0 145 -30q47 -26 73.5 -75t26.5 -107q0 -59 -27 -108t-73 -75q-51 -30 -145 -30h-25v-156h-133v667h133zM234 459h-34v-182h34q55 0 80.5 22t25.5 69t-25.5 69t-80.5 22z" />
    <glyph glyph-name="germandbls" unicode="&#xdf;" horiz-adv-x="530" 
d="M264 0h-55v118h58q47 0 75 25.5t28 67.5q0 86 -106 86h-24v116h24q61 0 61 73q0 39 -19.5 61t-53.5 22q-35 0 -54.5 -22t-19.5 -60v-487h-128v487q0 85 55.5 140.5t140.5 55.5q90 0 147 -54t57 -140q0 -64 -42 -115q90 -60 90 -167q0 -92 -65.5 -149.5t-168.5 -57.5z" />
    <glyph glyph-name="agrave" unicode="&#xe0;" horiz-adv-x="543" 
d="M494 443v-443h-128v25q-55 -41 -115 -41q-95 0 -161.5 69.5t-66.5 168.5q0 98 66.5 167.5t161.5 69.5q60 0 115 -41v25h128zM263 344q-50 0 -80.5 -33t-30.5 -88t30 -89.5t79 -34.5q47 0 77 34t30 87q0 55 -29 89.5t-76 34.5zM254 488l-163 157l119 62l129 -172z" />
    <glyph glyph-name="aacute" unicode="&#xe1;" horiz-adv-x="543" 
d="M494 443v-443h-128v25q-55 -41 -115 -41q-95 0 -161.5 69.5t-66.5 168.5q0 98 66.5 167.5t161.5 69.5q60 0 115 -41v25h128zM263 344q-50 0 -80.5 -33t-30.5 -88t30 -89.5t79 -34.5q47 0 77 34t30 87q0 55 -29 89.5t-76 34.5zM312 707l119 -62l-163 -157l-86 47z" />
    <glyph glyph-name="acircumflex" unicode="&#xe2;" horiz-adv-x="543" 
d="M494 443v-443h-128v25q-55 -41 -115 -41q-95 0 -161.5 69.5t-66.5 168.5q0 98 66.5 167.5t161.5 69.5q60 0 115 -41v25h128zM263 344q-50 0 -80.5 -33t-30.5 -88t30 -89.5t79 -34.5q47 0 77 34t30 87q0 55 -29 89.5t-76 34.5zM442 535l-97 -46l-87 85l-88 -85l-96 46
l144 153h79z" />
    <glyph glyph-name="atilde" unicode="&#xe3;" horiz-adv-x="543" 
d="M494 443v-443h-128v25q-55 -41 -115 -41q-95 0 -161.5 69.5t-66.5 168.5q0 98 66.5 167.5t161.5 69.5q60 0 115 -41v25h128zM263 344q-50 0 -80.5 -33t-30.5 -88t30 -89.5t79 -34.5q47 0 77 34t30 87q0 55 -29 89.5t-76 34.5zM314 669l107 -24q-9 -125 -105 -125
q-40 0 -79 21q-15 9 -25 9q-4 0 -6 -3q-1 -1 -7 -33l-105 23q13 125 108 125q33 0 78 -24q16 -8 24 -8q4 0 5.5 5t4.5 34z" />
    <glyph glyph-name="adieresis" unicode="&#xe4;" horiz-adv-x="543" 
d="M494 443v-443h-128v25q-55 -41 -115 -41q-95 0 -161.5 69.5t-66.5 168.5q0 98 66.5 167.5t161.5 69.5q60 0 115 -41v25h128zM263 344q-50 0 -80.5 -33t-30.5 -88t30 -89.5t79 -34.5q47 0 77 34t30 87q0 55 -29 89.5t-76 34.5zM173 668q31 0 53 -21.5t22 -51.5t-22 -51.5
t-53 -21.5q-32 0 -53.5 21.5t-21.5 52.5q0 29 22 50.5t53 21.5zM359 668q32 0 53.5 -21t21.5 -52q0 -30 -22 -51.5t-53 -21.5q-32 0 -53.5 21.5t-21.5 52.5q0 29 22 50.5t53 21.5z" />
    <glyph glyph-name="aring" unicode="&#xe5;" horiz-adv-x="543" 
d="M494 443v-443h-128v25q-55 -41 -115 -41q-95 0 -161.5 69.5t-66.5 168.5q0 98 66.5 167.5t161.5 69.5q60 0 115 -41v25h128zM263 344q-50 0 -80.5 -33t-30.5 -88t30 -89.5t79 -34.5q47 0 77 34t30 87q0 55 -29 89.5t-76 34.5zM269 704q48 0 81.5 -33t33.5 -80t-33.5 -80
t-82.5 -33q-47 0 -80.5 33.5t-33.5 81.5q0 45 34 78t81 33zM269 643q-21 0 -36.5 -15t-15.5 -36q0 -22 15 -37.5t37 -15.5t37 15t15 37t-15 37t-37 15z" />
    <glyph glyph-name="ae" unicode="&#xe6;" horiz-adv-x="801" 
d="M98 300l-67 83q56 41 103.5 58.5t107.5 17.5q108 0 163 -60q65 60 150 60q98 0 161 -70t63 -179q0 -15 -1 -33h-317q25 -80 100 -80q64 0 99 57l112 -44q-76 -126 -212 -126q-86 0 -152 57q-57 -57 -169 -57q-98 0 -157.5 43t-59.5 114q0 68 54 107t149 39h97
q-20 61 -91 61q-62 0 -133 -48zM327 152v46h-89q-89 0 -89 -52q0 -51 89 -51t89 57zM461 266h191q-25 81 -95 81q-76 0 -96 -81z" />
    <glyph glyph-name="ccedilla" unicode="&#xe7;" horiz-adv-x="461" 
d="M450 371l-82 -85q-33 35 -54.5 46.5t-52.5 11.5q-50 0 -80 -34t-30 -90q0 -54 30.5 -87.5t80.5 -33.5q32 0 56 14t52 48l82 -85q-84 -92 -190 -92q-102 0 -171 68.5t-69 169.5t69 169t171 68q54 0 98 -20.5t90 -67.5zM220 -19l116 -48l-134 -164l-93 45z" />
    <glyph glyph-name="egrave" unicode="&#xe8;" horiz-adv-x="493" 
d="M353 154l112 -44q-77 -126 -210 -126q-100 0 -166.5 68t-66.5 169q0 100 66 169t161 69q97 0 160 -70t63 -177q0 -16 -1 -35h-318q25 -80 101 -80q63 0 99 57zM153 266h192q-26 81 -96 81q-73 0 -96 -81zM248 487l-163 158l119 62l130 -172z" />
    <glyph glyph-name="eacute" unicode="&#xe9;" horiz-adv-x="493" 
d="M353 154l112 -44q-77 -126 -210 -126q-100 0 -166.5 68t-66.5 169q0 100 66 169t161 69q97 0 160 -70t63 -177q0 -16 -1 -35h-318q25 -80 101 -80q63 0 99 57zM153 266h192q-26 81 -96 81q-73 0 -96 -81zM290 707l119 -62l-163 -158l-86 48z" />
    <glyph glyph-name="ecircumflex" unicode="&#xea;" horiz-adv-x="493" 
d="M353 154l112 -44q-77 -126 -210 -126q-100 0 -166.5 68t-66.5 169q0 100 66 169t161 69q97 0 160 -70t63 -177q0 -16 -1 -35h-318q25 -80 101 -80q63 0 99 57zM153 266h192q-26 81 -96 81q-73 0 -96 -81zM431 535l-97 -46l-87 85l-88 -85l-97 46l145 153h79z" />
    <glyph glyph-name="edieresis" unicode="&#xeb;" horiz-adv-x="493" 
d="M353 154l112 -44q-77 -126 -210 -126q-100 0 -166.5 68t-66.5 169q0 100 66 169t161 69q97 0 160 -70t63 -177q0 -16 -1 -35h-318q25 -80 101 -80q63 0 99 57zM153 266h192q-26 81 -96 81q-73 0 -96 -81zM154 668q31 0 53 -21.5t22 -51.5q0 -31 -22 -52t-54 -21
q-31 0 -52.5 21.5t-21.5 52.5q0 29 22 50.5t53 21.5zM340 668q31 0 53 -21.5t22 -51.5q0 -31 -22 -52t-54 -21q-31 0 -52.5 21.5t-21.5 52.5q0 29 22 50.5t53 21.5z" />
    <glyph glyph-name="igrave" unicode="&#xec;" horiz-adv-x="229" 
d="M51 443h128v-443h-128v443zM105 487l-163 158l119 62l130 -172z" />
    <glyph glyph-name="iacute" unicode="&#xed;" horiz-adv-x="229" 
d="M51 443h128v-443h-128v443zM169 707l119 -62l-163 -158l-86 48z" />
    <glyph glyph-name="icircumflex" unicode="&#xee;" horiz-adv-x="229" 
d="M50 443h128v-443h-128v443zM299 535l-97 -46l-88 85l-87 -85l-97 46l145 153h79z" />
    <glyph glyph-name="idieresis" unicode="&#xef;" horiz-adv-x="229" 
d="M50 443h128v-443h-128v443zM33 668q32 0 53.5 -21t21.5 -52t-22 -52t-54 -21q-31 0 -52.5 21.5t-21.5 52.5q0 29 22 50.5t53 21.5zM195 668q31 0 53 -21.5t22 -51.5t-22 -51.5t-53 -21.5q-32 0 -53.5 21.5t-21.5 52.5q0 29 22 50.5t53 21.5z" />
    <glyph glyph-name="eth" unicode="&#xf0;" horiz-adv-x="524" 
d="M358 662l46 -59l-52 -28q149 -119 149 -323q0 -98 -39 -161q-31 -50 -84.5 -78.5t-115.5 -28.5q-100 0 -169 68.5t-69 167.5q0 98 64.5 160.5t162.5 62.5q18 0 36 -1q-24 34 -65 62l-99 -54l-46 59l59 32q-23 5 -58 11l18 115q116 -14 184 -47zM263 344
q-49 0 -79.5 -33.5t-30.5 -88.5t30.5 -89t79.5 -34q47 0 78 34t31 86q0 56 -30 90.5t-79 34.5z" />
    <glyph glyph-name="ntilde" unicode="&#xf1;" horiz-adv-x="510" 
d="M50 443h128v-21q45 37 101 37q47 0 89 -23.5t64 -63.5q28 -49 28 -133v-239h-128v232q0 63 -16 87.5t-56 24.5q-22 0 -38 -7t-24.5 -17.5t-13 -28t-5.5 -32t-1 -36.5v-223h-128v443zM313 669l107 -24q-9 -125 -105 -125q-40 0 -79 21q-15 9 -25 9q-5 0 -6 -3
q-1 -1 -7 -33l-105 23q13 125 108 125q33 0 78 -24q16 -8 24 -8q5 0 6 5t4 34z" />
    <glyph glyph-name="ograve" unicode="&#xf2;" horiz-adv-x="520" 
d="M265 459q97 0 165.5 -69.5t68.5 -167.5q0 -100 -68.5 -169t-169.5 -69t-170 69t-69 171q0 100 70 167.5t173 67.5zM262 343q-50 0 -80.5 -33t-30.5 -88t30.5 -89t79.5 -34q48 0 78.5 34t30.5 87q0 55 -30 89t-78 34zM256 488l-162 157l119 62l129 -172z" />
    <glyph glyph-name="oacute" unicode="&#xf3;" horiz-adv-x="520" 
d="M265 459q97 0 165.5 -69.5t68.5 -167.5q0 -100 -68.5 -169t-169.5 -69t-170 69t-69 171q0 100 70 167.5t173 67.5zM262 343q-50 0 -80.5 -33t-30.5 -88t30.5 -89t79.5 -34q48 0 78.5 34t30.5 87q0 55 -30 89t-78 34zM308 707l119 -62l-162 -157l-86 47z" />
    <glyph glyph-name="ocircumflex" unicode="&#xf4;" horiz-adv-x="520" 
d="M265 459q97 0 165.5 -69.5t68.5 -167.5q0 -100 -68.5 -169t-169.5 -69t-170 69t-69 171q0 100 70 167.5t173 67.5zM262 343q-50 0 -80.5 -33t-30.5 -88t30.5 -89t79.5 -34q48 0 78.5 34t30.5 87q0 55 -30 89t-78 34zM445 535l-97 -46l-88 85l-87 -85l-97 46l145 153h79z
" />
    <glyph glyph-name="otilde" unicode="&#xf5;" horiz-adv-x="520" 
d="M265 459q97 0 165.5 -69.5t68.5 -167.5q0 -100 -68.5 -169t-169.5 -69t-170 69t-69 171q0 100 70 167.5t173 67.5zM262 343q-50 0 -80.5 -33t-30.5 -88t30.5 -89t79.5 -34q48 0 78.5 34t30.5 87q0 55 -30 89t-78 34zM317 669l106 -24q-4 -55 -20 -81q-26 -44 -84 -44
q-40 0 -79 21q-15 9 -26 9q-5 -4 -13 -36l-104 23q12 125 107 125q34 0 79 -24q16 -8 24 -8q5 0 6 5t4 34z" />
    <glyph glyph-name="odieresis" unicode="&#xf6;" horiz-adv-x="520" 
d="M265 459q97 0 165.5 -69.5t68.5 -167.5q0 -100 -68.5 -169t-169.5 -69t-170 69t-69 171q0 100 70 167.5t173 67.5zM262 343q-50 0 -80.5 -33t-30.5 -88t30.5 -89t79.5 -34q48 0 78.5 34t30.5 87q0 55 -30 89t-78 34zM166 668q32 0 53.5 -21t21.5 -52q0 -30 -22 -51.5
t-53 -21.5q-32 0 -53.5 21.5t-21.5 52.5q0 29 22 50.5t53 21.5zM352 668q32 0 53.5 -21t21.5 -52q0 -30 -22 -51.5t-53 -21.5t-53 21.5t-22 52.5q0 29 22 50.5t53 21.5z" />
    <glyph glyph-name="divide" unicode="&#xf7;" horiz-adv-x="556" 
d="M37 370h482v-116h-482v116zM279 215q32 0 55.5 -24t23.5 -56q0 -33 -23.5 -56.5t-56.5 -23.5t-56.5 23.5t-23.5 57.5q0 32 23.5 55.5t57.5 23.5zM279 569q32 0 55.5 -24t23.5 -56q0 -33 -23.5 -56.5t-56.5 -23.5t-56.5 23.5t-23.5 57.5q0 32 23.5 55.5t57.5 23.5z" />
    <glyph glyph-name="oslash" unicode="&#xf8;" horiz-adv-x="534" 
d="M91 -3l-63 61l37 35q-37 59 -37 128q0 101 69 169.5t170 68.5q79 0 140 -45l34 32l64 -61l-37 -35q37 -58 37 -129q0 -100 -69 -168.5t-170 -68.5q-80 0 -141 45zM162 184l156 147q-23 13 -52 13q-49 0 -79.5 -33.5t-30.5 -87.5q0 -21 6 -39zM371 260l-157 -148
q25 -13 53 -13q49 0 79.5 34.5t30.5 89.5q0 21 -6 37z" />
    <glyph glyph-name="ugrave" unicode="&#xf9;" horiz-adv-x="510" 
d="M460 0h-128v21q-45 -37 -101 -37q-47 0 -89 23.5t-64 63.5q-28 49 -28 133v239h128v-232q0 -62 16 -86.5t56 -24.5q28 0 45.5 9.5t25 28.5t9.5 36.5t2 45.5v223h128v-443zM252 487l-162 158l119 62l130 -172z" />
    <glyph glyph-name="uacute" unicode="&#xfa;" horiz-adv-x="510" 
d="M460 0h-128v21q-45 -37 -101 -37q-47 0 -89 23.5t-64 63.5q-28 49 -28 133v239h128v-232q0 -62 16 -86.5t56 -24.5q28 0 45.5 9.5t25 28.5t9.5 36.5t2 45.5v223h128v-443zM298 707l119 -62l-163 -158l-86 48z" />
    <glyph glyph-name="ucircumflex" unicode="&#xfb;" horiz-adv-x="510" 
d="M460 0h-128v21q-45 -37 -101 -37q-47 0 -89 23.5t-64 63.5q-28 49 -28 133v239h128v-232q0 -62 16 -86.5t56 -24.5q28 0 45.5 9.5t25 28.5t9.5 36.5t2 45.5v223h128v-443zM439 535l-97 -46l-87 85l-88 -85l-96 46l145 153h78z" />
    <glyph glyph-name="udieresis" unicode="&#xfc;" horiz-adv-x="510" 
d="M460 0h-128v21q-45 -37 -101 -37q-47 0 -89 23.5t-64 63.5q-28 49 -28 133v239h128v-232q0 -62 16 -86.5t56 -24.5q28 0 45.5 9.5t25 28.5t9.5 36.5t2 45.5v223h128v-443zM162 668q32 0 53.5 -21t21.5 -52q0 -30 -22 -51.5t-53 -21.5q-32 0 -53.5 21.5t-21.5 52.5
q0 29 22 50.5t53 21.5zM348 668q31 0 53 -21.5t22 -51.5q0 -31 -22 -52t-54 -21q-31 0 -52.5 21.5t-21.5 52.5q0 29 22 50.5t53 21.5z" />
    <glyph glyph-name="yacute" unicode="&#xfd;" horiz-adv-x="474" 
d="M50 -233l113 256l-175 420h137l108 -264l117 264h137l-302 -676h-135zM283 707l119 -62l-163 -158l-86 48z" />
    <glyph glyph-name="thorn" unicode="&#xfe;" horiz-adv-x="544" 
d="M51 -233v900h128v-249q55 41 115 41q95 0 161.5 -69.5t66.5 -168.5t-66.5 -168t-161.5 -69q-60 0 -115 41v-258h-128zM284 343q-47 0 -76.5 -33.5t-29.5 -87.5q0 -55 29 -89t76 -34q49 0 79.5 33.5t30.5 87.5q0 55 -30 89t-79 34z" />
    <glyph glyph-name="ydieresis" unicode="&#xff;" horiz-adv-x="474" 
d="M50 -233l113 256l-175 420h137l108 -264l117 264h137l-302 -676h-135zM144 668q31 0 53 -21.5t22 -51.5t-22 -51.5t-53 -21.5q-32 0 -53.5 21.5t-21.5 52.5q0 29 22 50.5t53 21.5zM331 668q32 0 53.5 -21t21.5 -52q0 -30 -22 -51.5t-53 -21.5q-32 0 -53.5 21.5
t-21.5 52.5q0 29 22 50.5t53 21.5z" />
    <glyph glyph-name="Amacron" unicode="&#x100;" horiz-adv-x="643" 
d="M508 0l-55 155h-263l-56 -155h-140l249 667h157l249 -667h-141zM233 279h176l-88 246zM160 740v110h324v-110h-324z" />
    <glyph glyph-name="amacron" unicode="&#x101;" horiz-adv-x="543" 
d="M494 443v-443h-128v25q-55 -41 -115 -41q-95 0 -161.5 69.5t-66.5 168.5q0 98 66.5 167.5t161.5 69.5q60 0 115 -41v25h128zM263 344q-50 0 -80.5 -33t-30.5 -88t30 -89.5t79 -34.5q47 0 77 34t30 87q0 55 -29 89.5t-76 34.5zM108 535v110h324v-110h-324z" />
    <glyph glyph-name="Abreve" unicode="&#x102;" horiz-adv-x="643" 
d="M508 0l-55 155h-263l-56 -155h-140l249 667h157l249 -667h-141zM233 279h176l-88 246zM163 871l111 9l1 -25q3 -51 44 -51q27 0 41 27q3 6 9 49l111 -9q-7 -63 -19 -85q-44 -88 -141 -88q-52 0 -92.5 28t-56.5 74q-7 20 -8 71z" />
    <glyph glyph-name="abreve" unicode="&#x103;" horiz-adv-x="543" 
d="M494 443v-443h-128v25q-55 -41 -115 -41q-95 0 -161.5 69.5t-66.5 168.5q0 98 66.5 167.5t161.5 69.5q60 0 115 -41v25h128zM263 344q-50 0 -80.5 -33t-30.5 -88t30 -89.5t79 -34.5q47 0 77 34t30 87q0 55 -29 89.5t-76 34.5zM102 667l111 9l1 -26q1 -52 44 -52
q28 0 41 27q3 8 9 51l111 -9q-7 -60 -19 -85q-44 -88 -142 -88q-52 0 -92.5 28t-56.5 74q-6 17 -7 71z" />
    <glyph glyph-name="Aogonek" unicode="&#x104;" horiz-adv-x="643" 
d="M243 667h157l249 -667q-32 -41 -32 -59q0 -8 10 -8q16 0 43 12l38 -93q-63 -23 -95 -23q-52 0 -85 28t-33 72q0 33 26 71h-13l-55 155h-263l-56 -155h-140zM233 279h176l-88 246z" />
    <glyph glyph-name="aogonek" unicode="&#x105;" horiz-adv-x="543" 
d="M366 443h128v-443q-32 -41 -32 -59q0 -8 10 -8q16 0 43 12l38 -93q-65 -23 -96 -23q-51 0 -84 28t-33 72q0 31 26 71v25q-55 -41 -115 -41q-95 0 -161.5 69.5t-66.5 168.5q0 98 66.5 167.5t161.5 69.5q60 0 115 -41v25zM263 344q-50 0 -80.5 -33t-30.5 -88t30 -89.5
t79 -34.5q47 0 77 34t30 87q0 55 -29 89.5t-76 34.5z" />
    <glyph glyph-name="Cacute" unicode="&#x106;" horiz-adv-x="674" 
d="M650 556l-94 -90q-47 51 -85.5 71.5t-88.5 20.5q-92 0 -155 -65t-63 -160q0 -94 63.5 -159t155.5 -65q49 0 88 20.5t88 72.5l95 -89q-66 -69 -129 -99t-141 -30q-148 0 -251.5 102t-103.5 247t103.5 247.5t250.5 102.5q77 0 140 -30t127 -97zM434 911l119 -62l-163 -157
l-86 47z" />
    <glyph glyph-name="cacute" unicode="&#x107;" horiz-adv-x="461" 
d="M450 371l-82 -85q-33 35 -54.5 46.5t-52.5 11.5q-50 0 -80 -34t-30 -90q0 -54 30.5 -87.5t80.5 -33.5q32 0 56 14t52 48l82 -85q-84 -92 -190 -92q-102 0 -171 68.5t-69 169.5t69 169t171 68q54 0 98 -20.5t90 -67.5zM296 707l120 -62l-163 -158l-86 48z" />
    <glyph glyph-name="Ccircumflex" unicode="&#x108;" horiz-adv-x="674" 
d="M650 556l-94 -90q-47 51 -85.5 71.5t-88.5 20.5q-92 0 -155 -65t-63 -160q0 -94 63.5 -159t155.5 -65q49 0 88 20.5t88 72.5l95 -89q-66 -69 -129 -99t-141 -30q-148 0 -251.5 102t-103.5 247t103.5 247.5t250.5 102.5q77 0 140 -30t127 -97zM373 776l-88 -83l-97 47
l145 153h79l146 -153l-98 -47z" />
    <glyph glyph-name="ccircumflex" unicode="&#x109;" horiz-adv-x="461" 
d="M450 371l-82 -85q-32 34 -54 46t-52 12q-51 0 -81 -33.5t-30 -90.5q0 -54 30.5 -87.5t80.5 -33.5q32 0 56 14t52 48l82 -85q-46 -49 -90 -70.5t-100 -21.5q-102 0 -171 68.5t-69 169.5t69 169t171 68q53 0 95.5 -20t92.5 -68zM435 535l-97 -46l-87 85l-88 -85l-97 46
l145 153h79z" />
    <glyph glyph-name="Cdotaccent" unicode="&#x10a;" horiz-adv-x="674" 
d="M650 556l-94 -90q-47 51 -85.5 71.5t-88.5 20.5q-92 0 -155 -65t-63 -160q0 -94 63.5 -159t155.5 -65q49 0 88 20.5t88 72.5l95 -89q-66 -69 -129 -99t-141 -30q-148 0 -251.5 102t-103.5 247t103.5 247.5t250.5 102.5q77 0 140 -30t127 -97zM381 871q32 0 55 -22.5
t23 -53.5t-23 -53.5t-55 -22.5q-33 0 -55.5 22.5t-22.5 54.5q0 31 23 53t55 22z" />
    <glyph glyph-name="cdotaccent" unicode="&#x10b;" horiz-adv-x="461" 
d="M450 371l-82 -85q-33 35 -54.5 46.5t-52.5 11.5q-50 0 -80 -34t-30 -90q0 -54 30.5 -87.5t80.5 -33.5q32 0 56 14t52 48l82 -85q-84 -92 -190 -92q-102 0 -171 68.5t-69 169.5t69 169t171 68q54 0 98 -20.5t90 -67.5zM254 671q32 0 55 -22.5t23 -53.5q0 -32 -23 -54
t-56 -22q-32 0 -54.5 22.5t-22.5 54.5q0 31 23 53t55 22z" />
    <glyph glyph-name="Ccaron" unicode="&#x10c;" horiz-adv-x="674" 
d="M650 556l-94 -90q-47 51 -85.5 71.5t-88.5 20.5q-92 0 -155 -65t-63 -160q0 -94 63.5 -159t155.5 -65q49 0 88 20.5t88 72.5l95 -89q-66 -69 -129 -99t-141 -30q-148 0 -251.5 102t-103.5 247t103.5 247.5t250.5 102.5q77 0 140 -30t127 -97zM188 852l97 47l88 -83l87 83
l98 -47l-146 -153h-79z" />
    <glyph glyph-name="ccaron" unicode="&#x10d;" horiz-adv-x="460" 
d="M450 371l-82 -85q-33 35 -54.5 46.5t-52.5 11.5q-50 0 -80 -34t-30 -90q0 -54 30.5 -87.5t80.5 -33.5q32 0 56 14t52 48l82 -85q-84 -92 -190 -92q-102 0 -171 68.5t-69 169.5t69 169t171 68q54 0 98 -20.5t90 -67.5zM251 614l87 85l97 -46l-145 -153h-79l-145 153l97 46
z" />
    <glyph glyph-name="Dcaron" unicode="&#x10e;" horiz-adv-x="620" 
d="M67 0v667h158q167 0 266.5 -90.5t99.5 -242.5t-99.5 -243t-266.5 -91h-158zM229 543h-29v-419h29q107 0 167.5 56t60.5 154q0 97 -61 153t-167 56zM107 852l97 47l87 -83l88 83l97 -47l-145 -153h-79z" />
    <glyph glyph-name="dcaron" unicode="&#x10f;" horiz-adv-x="686" 
d="M494 667v-667h-128v25q-55 -41 -115 -41q-95 0 -161.5 69.5t-66.5 168.5q0 98 66.5 167.5t161.5 69.5q59 0 115 -41v249h128zM262 343q-50 0 -80 -33t-30 -88t30 -89t78 -34q47 0 77 34t30 87q0 55 -29 89t-76 34zM522 507l61 199l121 -36l-86 -192z" />
    <glyph glyph-name="Dcroat" unicode="&#x110;" horiz-adv-x="632" 
d="M17 418h62v249h159q166 0 265.5 -90.5t99.5 -242.5t-99.5 -243t-265.5 -91h-159v298h-62v120zM212 543v-125h143v-120h-143v-174h29q107 0 167.5 56t60.5 154q0 97 -61 153t-167 56h-29z" />
    <glyph glyph-name="dcroat" unicode="&#x111;" horiz-adv-x="546" 
d="M366 418v79h-110v112h110v58h128v-58h55v-112h-55v-497h-128v25q-56 -41 -116 -41q-95 0 -161.5 69.5t-66.5 168.5q0 98 66.5 167.5t161.5 69.5q60 0 116 -41zM262 343q-50 0 -80.5 -33t-30.5 -88t30 -89t79 -34q47 0 77 34t30 87q0 55 -29 89t-76 34z" />
    <glyph glyph-name="Emacron" unicode="&#x112;" horiz-adv-x="489" 
d="M67 667h382v-123h-249v-145h221v-123h-221v-152h258v-124h-391v667zM101 740v110h324v-110h-324z" />
    <glyph glyph-name="emacron" unicode="&#x113;" horiz-adv-x="493" 
d="M353 154l112 -44q-77 -126 -210 -126q-100 0 -166.5 68t-66.5 169q0 100 66 169t161 69q97 0 160 -70t63 -177q0 -16 -1 -35h-318q25 -80 101 -80q63 0 99 57zM153 266h192q-26 81 -96 81q-73 0 -96 -81zM85 535v110h324v-110h-324z" />
    <glyph glyph-name="Ebreve" unicode="&#x114;" horiz-adv-x="489" 
d="M67 667h382v-123h-249v-145h221v-123h-221v-152h258v-124h-391v667zM104 871l111 9l1 -25q3 -51 44 -51q28 0 41 27q3 6 9 49l111 -9q-7 -63 -19 -85q-44 -88 -141 -88q-52 0 -92.5 28t-56.5 74q-7 20 -8 71z" />
    <glyph glyph-name="ebreve" unicode="&#x115;" horiz-adv-x="493" 
d="M353 154l112 -44q-77 -126 -210 -126q-100 0 -166.5 68t-66.5 169q0 100 66 169t161 69q97 0 160 -70t63 -177q0 -16 -1 -35h-318q25 -80 101 -80q63 0 99 57zM153 266h192q-26 81 -96 81q-73 0 -96 -81zM88 667l111 9q1 -12 1 -26q3 -52 44 -52q29 0 41 27q3 6 10 51
l111 -9q-7 -60 -19 -85q-46 -88 -142 -88q-52 0 -92.5 28t-56.5 74q-7 20 -8 71z" />
    <glyph glyph-name="Edotaccent" unicode="&#x116;" horiz-adv-x="489" 
d="M67 667h382v-123h-249v-145h221v-123h-221v-152h258v-124h-391v667zM263 871q32 0 55 -22.5t23 -53.5t-23 -53.5t-55 -22.5q-33 0 -55.5 22.5t-22.5 54.5q0 31 23 53t55 22z" />
    <glyph glyph-name="edotaccent" unicode="&#x117;" horiz-adv-x="493" 
d="M353 154l112 -44q-77 -126 -210 -126q-100 0 -166.5 68t-66.5 169q0 100 66 169t161 69q97 0 160 -70t63 -177q0 -16 -1 -35h-318q25 -80 101 -80q63 0 99 57zM153 266h192q-26 81 -96 81q-73 0 -96 -81zM246 671q32 0 55 -22.5t23 -53.5q0 -32 -23 -54t-56 -22
q-32 0 -54.5 22.5t-22.5 54.5q0 31 23 53t55 22z" />
    <glyph glyph-name="Eogonek" unicode="&#x118;" horiz-adv-x="489" 
d="M200 124h258v-124q-32 -41 -32 -59q0 -8 10 -8q16 0 43 12l38 -93q-63 -23 -96 -23q-51 0 -84 28t-33 72q0 33 26 71h-263v667h382v-123h-249v-145h221v-123h-221v-152z" />
    <glyph glyph-name="eogonek" unicode="&#x119;" horiz-adv-x="493" 
d="M353 154l112 -45q-58 -97 -158 -119q-25 -33 -25 -49q0 -8 10 -8q16 0 43 12l38 -93q-64 -23 -95 -23q-52 0 -85 28t-33 72q0 28 23 66q-73 22 -117 84t-44 142q0 100 66 169t161 69q97 0 160 -70t63 -177q0 -16 -1 -35h-318q25 -79 101 -79q64 0 99 56zM153 266h192
q-26 81 -96 81q-73 0 -96 -81z" />
    <glyph glyph-name="Ecaron" unicode="&#x11a;" horiz-adv-x="489" 
d="M67 667h382v-123h-249v-145h221v-123h-221v-152h258v-124h-391v667zM78 852l98 47l87 -83l87 83l98 -47l-145 -153h-79z" />
    <glyph glyph-name="ecaron" unicode="&#x11b;" horiz-adv-x="493" 
d="M353 154l112 -44q-77 -126 -210 -126q-100 0 -166.5 68t-66.5 169q0 100 66 169t161 69q97 0 160 -70t63 -177q0 -16 -1 -35h-318q25 -80 101 -80q63 0 99 57zM153 266h192q-26 81 -96 81q-73 0 -96 -81zM247 614l87 85l97 -46l-145 -153h-79l-145 153l97 46z" />
    <glyph glyph-name="Gcircumflex" unicode="&#x11c;" horiz-adv-x="728" 
d="M376 250v123h321v-64q0 -146 -85.5 -235.5t-225.5 -89.5q-149 0 -253 101.5t-104 247.5t103.5 248t252.5 102q76 0 137 -28.5t131 -95.5l-94 -89q-49 50 -87 69t-88 19q-94 0 -157 -65t-63 -160t64 -159.5t158 -64.5q81 0 132 55q29 32 40 86h-182zM369 776l-87 -83
l-97 47l145 153h79l145 -153l-97 -47z" />
    <glyph glyph-name="gcircumflex" unicode="&#x11d;" horiz-adv-x="543" 
d="M366 -9v34q-57 -41 -115 -41q-95 0 -161.5 69.5t-66.5 168.5q0 98 66.5 167.5t161.5 69.5q58 0 115 -41v25h128v-452q0 -107 -67 -173.5t-174 -66.5q-73 0 -123.5 29t-101.5 89l86 82q10 -12 11 -13q3 -4 9 -10q51 -61 118 -61q55 0 84.5 32.5t29.5 91.5zM262 344
q-49 0 -79.5 -33.5t-30.5 -87.5q0 -55 30 -89.5t78 -34.5t77.5 34t29.5 89q0 54 -29.5 88t-75.5 34zM442 535l-97 -46l-87 85l-88 -85l-97 46l145 153h79z" />
    <glyph glyph-name="Gbreve" unicode="&#x11e;" horiz-adv-x="728" 
d="M376 250v123h321v-64q0 -146 -85.5 -235.5t-225.5 -89.5q-149 0 -253 101.5t-104 247.5t103.5 248t252.5 102q76 0 137 -28.5t131 -95.5l-94 -89q-49 50 -87 69t-88 19q-94 0 -157 -65t-63 -160t64 -159.5t158 -64.5q81 0 132 55q29 32 40 86h-182zM230 871l111 9l1 -25
q2 -51 44 -51q28 0 41 27q3 7 9 49l111 -9q-7 -63 -19 -85q-44 -88 -141 -88q-53 0 -93.5 28t-56.5 74q-6 20 -7 71z" />
    <glyph glyph-name="gbreve" unicode="&#x11f;" horiz-adv-x="543" 
d="M366 -9v34q-57 -41 -115 -41q-95 0 -161.5 69.5t-66.5 168.5q0 98 66.5 167.5t161.5 69.5q58 0 115 -41v25h128v-452q0 -107 -67 -173.5t-174 -66.5q-73 0 -123.5 29t-101.5 89l86 82q10 -12 11 -13q3 -4 9 -10q51 -61 118 -61q55 0 84.5 32.5t29.5 91.5zM262 344
q-49 0 -79.5 -33.5t-30.5 -87.5q0 -55 30 -89.5t78 -34.5t77.5 34t29.5 89q0 54 -29.5 88t-75.5 34zM102 667l111 9l1 -26q1 -52 44 -52q28 0 41 27q3 8 9 51l111 -9q-7 -63 -19 -85q-44 -88 -141 -88q-53 0 -93.5 28t-55.5 74q-7 20 -8 71z" />
    <glyph glyph-name="Gdotaccent" unicode="&#x120;" horiz-adv-x="728" 
d="M376 250v123h321v-64q0 -146 -85.5 -235.5t-225.5 -89.5q-149 0 -253 101.5t-104 247.5t103.5 248t252.5 102q76 0 137 -28.5t131 -95.5l-94 -89q-49 50 -87 69t-88 19q-94 0 -157 -65t-63 -160t64 -159.5t158 -64.5q81 0 132 55q29 32 40 86h-182zM386 871
q32 0 55 -22.5t23 -53.5t-23 -53.5t-55 -22.5q-33 0 -55.5 22.5t-22.5 54.5q0 31 23 53t55 22z" />
    <glyph glyph-name="gdotaccent" unicode="&#x121;" horiz-adv-x="543" 
d="M366 -9v34q-57 -41 -115 -41q-95 0 -161.5 69.5t-66.5 168.5q0 98 66.5 167.5t161.5 69.5q58 0 115 -41v25h128v-452q0 -107 -67 -173.5t-174 -66.5q-73 0 -123.5 29t-101.5 89l86 82q10 -12 11 -13q3 -4 9 -10q51 -61 118 -61q55 0 84.5 32.5t29.5 91.5zM262 344
q-49 0 -79.5 -33.5t-30.5 -87.5q0 -55 30 -89.5t78 -34.5t77.5 34t29.5 89q0 54 -29.5 88t-75.5 34zM258 671q32 0 55 -22.5t23 -53.5q0 -32 -23 -54t-56 -22q-32 0 -54.5 22.5t-22.5 54.5q0 31 23 53t55 22z" />
    <glyph glyph-name="Gcommaaccent" unicode="&#x122;" horiz-adv-x="728" 
d="M376 250v123h321v-64q0 -146 -85.5 -235.5t-225.5 -89.5q-149 0 -253 101.5t-104 247.5t103.5 248t252.5 102q76 0 137 -28.5t131 -95.5l-94 -89q-49 50 -87 69t-88 19q-94 0 -157 -65t-63 -160t64 -159.5t158 -64.5q81 0 132 55q29 32 40 86h-182zM273 -218l61 199
l120 -36l-86 -192z" />
    <glyph glyph-name="gcommaaccent" unicode="&#x123;" horiz-adv-x="543" 
d="M366 -9v34q-57 -41 -115 -41q-95 0 -161.5 69.5t-66.5 168.5q0 98 66.5 167.5t161.5 69.5q58 0 115 -41v25h128v-452q0 -107 -67 -173.5t-174 -66.5q-73 0 -123.5 29t-101.5 89l86 82q10 -12 11 -13q3 -4 9 -10q51 -61 118 -61q55 0 84.5 32.5t29.5 91.5zM262 344
q-49 0 -79.5 -33.5t-30.5 -87.5q0 -55 30 -89.5t78 -34.5t77.5 34t29.5 89q0 54 -29.5 88t-75.5 34zM374 676l-61 -198l-121 35l86 192z" />
    <glyph glyph-name="Hcircumflex" unicode="&#x124;" horiz-adv-x="652" 
d="M67 667h133v-268h252v268h133v-667h-133v275h-252v-275h-133v667zM326 776l-87 -83l-98 47l146 153h79l145 -153l-98 -47z" />
    <glyph glyph-name="hcircumflex" unicode="&#x125;" horiz-adv-x="510" 
d="M50 667h128v-245q45 37 101 37q47 0 89 -23.5t64 -63.5q28 -49 28 -133v-239h-128v232q0 62 -16 86.5t-56 24.5q-28 0 -45.5 -9.5t-25 -28.5t-9.5 -36.5t-2 -45.5v-223h-128v667zM257 776l-87 -83l-98 47l146 153h79l145 -153l-97 -47z" />
    <glyph glyph-name="Hbar" unicode="&#x126;" horiz-adv-x="648" 
d="M198 609h252v58h133v-58h55v-113h-55v-496h-133v275h-252v-275h-133v496h-56v113h56v58h133v-58zM450 399v97h-252v-97h252z" />
    <glyph glyph-name="hbar" unicode="&#x127;" horiz-adv-x="506" 
d="M46 0v497h-56v112h56v58h128v-58h111v-112h-111v-75q45 37 100 37q47 0 89 -23.5t64 -63.5q28 -49 28 -133v-239h-128v232q0 62 -16 86.5t-56 24.5q-27 0 -44.5 -9.5t-25 -29t-9.5 -37t-2 -44.5v-223h-128z" />
    <glyph glyph-name="Itilde" unicode="&#x128;" horiz-adv-x="267" 
d="M67 667h133v-667h-133v667zM190 873l106 -24q-4 -55 -20 -81q-26 -44 -84 -44q-40 0 -79 21q-15 9 -26 9q-7 -5 -13 -36l-104 23q12 125 107 125q34 0 79 -24q16 -8 24 -8q4 0 5.5 5t4.5 34z" />
    <glyph glyph-name="itilde" unicode="&#x129;" horiz-adv-x="229" 
d="M50 443h128v-443h-128v443zM171 669l106 -24q-4 -55 -20 -81q-26 -44 -84 -44q-40 0 -79 21q-15 9 -26 9q-5 -4 -13 -36l-104 23q12 125 107 125q34 0 79 -24q16 -8 24 -8q5 0 6 5t4 34z" />
    <glyph glyph-name="Imacron" unicode="&#x12a;" horiz-adv-x="267" 
d="M67 667h133v-667h-133v667zM-28 740v110h324v-110h-324z" />
    <glyph glyph-name="imacron" unicode="&#x12b;" horiz-adv-x="229" 
d="M51 443h128v-443h-128v443zM-47 535v110h324v-110h-324z" />
    <glyph glyph-name="Ibreve" unicode="&#x12c;" horiz-adv-x="267" 
d="M67 667h133v-667h-133v667zM-25 871l111 9q1 -11 1 -25q3 -51 44 -51q27 0 41 27q2 5 10 49l110 -9q-7 -63 -19 -85q-44 -88 -141 -88q-52 0 -92.5 28t-56.5 74q-7 20 -8 71z" />
    <glyph glyph-name="ibreve" unicode="&#x12d;" horiz-adv-x="229" 
d="M51 443h128v-443h-128v443zM-44 667l111 9q1 -12 1 -26q3 -52 44 -52q28 0 41 27q3 6 10 51l110 -9q-7 -63 -19 -85q-44 -88 -141 -88q-52 0 -92.5 28t-56.5 74q-7 20 -8 71z" />
    <glyph glyph-name="Iogonek" unicode="&#x12e;" horiz-adv-x="267" 
d="M67 667h133v-667q-32 -40 -32 -58q0 -8 10 -8q16 0 43 12l38 -93q-65 -23 -96 -23q-51 0 -84 28t-33 72q0 32 26 70h-5v667z" />
    <glyph glyph-name="iogonek" unicode="&#x12f;" horiz-adv-x="229" 
d="M50 443h128v-443q-1 -2 -4 -6q-28 -35 -28 -53q0 -8 10 -8q16 0 43 12l38 -93q-65 -23 -96 -23q-51 0 -84 28t-33 72q0 32 26 71v443zM114 671q32 0 55 -22.5t23 -53.5t-23 -53.5t-55 -22.5q-33 0 -55.5 22.5t-22.5 54.5q0 31 23 53t55 22z" />
    <glyph glyph-name="Idotaccent" unicode="&#x130;" horiz-adv-x="267" 
d="M67 667h133v-667h-133v667zM134 871q32 0 55 -22.5t23 -53.5t-23 -53.5t-55 -22.5q-33 0 -55.5 22.5t-22.5 54.5q0 31 23 53t55 22z" />
    <glyph glyph-name="dotlessi" unicode="&#x131;" horiz-adv-x="229" 
d="M51 443h128v-443h-128v443z" />
    <glyph glyph-name="IJ" unicode="&#x132;" horiz-adv-x="691" 
d="M67 667h133v-667h-133v667zM491 667h133v-459q0 -87 -29 -140q-22 -40 -63.5 -62t-92.5 -22t-94 21t-90 70l81 96q55 -62 99 -62q56 0 56 99v459z" />
    <glyph glyph-name="ij" unicode="&#x133;" horiz-adv-x="463" 
d="M51 443h128v-443h-128v443zM285 443h128v-532q0 -73 -33.5 -114t-93.5 -41q-32 0 -74 13v119q36 -13 54 -13q19 0 19 39v529zM115 671q32 0 55 -22.5t23 -53.5q0 -32 -23 -54t-56 -22q-32 0 -54.5 22.5t-22.5 54.5q0 31 23 53t55 22zM349 671q32 0 55 -22.5t23 -53.5
t-23 -53.5t-55 -22.5q-33 0 -55.5 22.5t-22.5 54.5q0 31 23 53t55 22z" />
    <glyph glyph-name="Jcircumflex" unicode="&#x134;" horiz-adv-x="427" 
d="M226 667h133v-459q0 -87 -29 -140q-22 -40 -63.5 -62t-92.5 -22q-97 0 -184 91l81 96q55 -62 99 -62q56 0 56 99v459zM258 776l-88 -83l-97 47l145 153h79l145 -153l-97 -47z" />
    <glyph glyph-name="jcircumflex" unicode="&#x135;" horiz-adv-x="237" 
d="M59 443h128v-532q0 -73 -33.5 -114t-93.5 -41q-32 0 -74 13v119q36 -13 54 -13q19 0 19 39v529zM295 535l-97 -46l-88 85l-87 -85l-97 46l145 153h79z" />
    <glyph glyph-name="Kcommaaccent" unicode="&#x136;" horiz-adv-x="604" 
d="M610 667l-263 -283l257 -384h-158l-190 287l-56 -61v-226h-133v667h133v-260l241 260h169zM223 -218l61 199l121 -36l-86 -192z" />
    <glyph glyph-name="kcommaaccent" unicode="&#x137;" horiz-adv-x="491" 
d="M492 443l-192 -187l202 -256h-159l-132 170l-33 -32v-138h-128v667h128v-365l144 141h170zM153 -218l61 199l121 -36l-86 -192z" />
    <glyph glyph-name="kgreenlandic" unicode="&#x138;" horiz-adv-x="491" 
d="M492 443l-192 -187l202 -256h-159l-132 170l-33 -32v-138h-128v443h128v-141l144 141h170z" />
    <glyph glyph-name="Lacute" unicode="&#x139;" horiz-adv-x="437" 
d="M67 0v667h133v-543h240v-124h-373zM188 911l119 -62l-163 -157l-86 47z" />
    <glyph glyph-name="lacute" unicode="&#x13a;" horiz-adv-x="230" 
d="M179 667v-667h-128v667h128zM169 918l119 -61l-163 -158l-86 47z" />
    <glyph glyph-name="Lcommaaccent" unicode="&#x13b;" horiz-adv-x="440" 
d="M67 0v667h133v-543h240v-124h-373zM170 -218l61 199l120 -36l-86 -192z" />
    <glyph glyph-name="lcommaaccent" unicode="&#x13c;" horiz-adv-x="230" 
d="M180 667v-667h-128v667h128zM10 -218l61 199l121 -36l-86 -192z" />
    <glyph glyph-name="Lcaron" unicode="&#x13d;" horiz-adv-x="440" 
d="M67 0v667h133v-543h240v-124h-373zM250 499l61 199l120 -35l-86 -192z" />
    <glyph glyph-name="lcaron" unicode="&#x13e;" horiz-adv-x="371" 
d="M179 667v-667h-128v667h128zM208 507l61 199l121 -36l-86 -192z" />
    <glyph glyph-name="Ldot" unicode="&#x13f;" horiz-adv-x="440" 
d="M67 0v667h133v-543h240v-124h-373zM345 409q32 0 55 -22.5t23 -53.5t-23 -53.5t-55 -22.5q-33 0 -55.5 22.5t-22.5 54.5q0 31 23 53t55 22z" />
    <glyph glyph-name="ldot" unicode="&#x140;" horiz-adv-x="382" 
d="M179 667v-667h-128v667h128zM306 409q32 0 55 -22.5t23 -53.5t-23 -53.5t-55 -22.5q-33 0 -55.5 22.5t-22.5 54.5q0 31 23 53t55 22z" />
    <glyph glyph-name="Lslash" unicode="&#x141;" horiz-adv-x="453" 
d="M212 667v-215l106 66v-132l-106 -66v-196h240v-124h-373v237l-64 -40v132l64 40v298h133z" />
    <glyph glyph-name="lslash" unicode="&#x142;" horiz-adv-x="273" 
d="M72 0v245l-60 -39v133l60 39v289h128v-207l60 39v-133l-60 -39v-327h-128z" />
    <glyph glyph-name="Nacute" unicode="&#x143;" horiz-adv-x="708" 
d="M200 0h-133v667h113l328 -434v434h133v-667h-113l-328 434v-434zM419 911l119 -62l-163 -157l-86 47z" />
    <glyph glyph-name="nacute" unicode="&#x144;" horiz-adv-x="510" 
d="M50 443h128v-21q45 37 101 37q47 0 89 -23.5t64 -63.5q28 -49 28 -133v-239h-128v232q0 63 -16 87.5t-56 24.5q-22 0 -38 -7t-24.5 -17.5t-13 -28t-5.5 -32t-1 -36.5v-223h-128v443zM314 707l120 -62l-163 -158l-86 48z" />
    <glyph glyph-name="Ncommaaccent" unicode="&#x145;" horiz-adv-x="708" 
d="M200 0h-133v667h113l328 -434v434h133v-667h-113l-328 434v-434zM264 -218l61 199l120 -36l-86 -192z" />
    <glyph glyph-name="ncommaaccent" unicode="&#x146;" horiz-adv-x="510" 
d="M50 443h128v-21q45 37 101 37q47 0 89 -23.5t64 -63.5q28 -49 28 -133v-239h-128v232q0 63 -16 87.5t-56 24.5q-22 0 -38 -7t-24.5 -17.5t-13 -28t-5.5 -32t-1 -36.5v-223h-128v443zM165 -218l61 199l120 -36l-85 -192z" />
    <glyph glyph-name="Ncaron" unicode="&#x147;" horiz-adv-x="708" 
d="M200 0h-133v667h113l328 -434v434h133v-667h-113l-328 434v-434zM186 852l97 47l87 -83l88 83l97 -47l-145 -153h-79z" />
    <glyph glyph-name="ncaron" unicode="&#x148;" horiz-adv-x="510" 
d="M50 443h128v-21q45 37 101 37q47 0 89 -23.5t64 -63.5q28 -49 28 -133v-239h-128v232q0 63 -16 87.5t-56 24.5q-22 0 -38 -7t-24.5 -17.5t-13 -28t-5.5 -32t-1 -36.5v-223h-128v443zM260 614l87 85l97 -46l-145 -153h-79l-144 153l96 46z" />
    <glyph glyph-name="napostrophe" unicode="&#x149;" horiz-adv-x="609" 
d="M149 443h128v-21q45 37 101 37q47 0 89 -23.5t64 -63.5q28 -49 28 -133v-239h-128v232q0 63 -15.5 87.5t-56.5 24.5q-22 0 -38 -7t-24.5 -17.5t-13 -28t-5.5 -32t-1 -36.5v-223h-128v443zM-13 420l100 267l115 -40l-122 -263z" />
    <glyph glyph-name="Eng" unicode="&#x14a;" horiz-adv-x="708" 
d="M508 667h133v-667q-1 -73 -34 -113t-93 -40q-35 0 -74 12v120q38 -13 54 -13q19 0 19 38v16l-313 414v-434h-133v667h113l328 -434v434z" />
    <glyph glyph-name="eng" unicode="&#x14b;" horiz-adv-x="510" 
d="M50 443h128v-21q45 37 101 37q65 0 115.5 -42t59.5 -104q10 -63 10 -229q0 -132 -25 -179q-14 -26 -43 -42t-63 -16q-36 0 -74 13v119q36 -13 54 -13q19 0 19 37v229q0 63 -16 87.5t-57 24.5q-22 0 -37.5 -7t-24 -17.5t-13 -28t-5.5 -32t-1 -36.5v-223h-128v443z" />
    <glyph glyph-name="Omacron" unicode="&#x14c;" horiz-adv-x="762" 
d="M381 683q145 0 248.5 -103t103.5 -247q0 -143 -103.5 -246t-247.5 -103q-147 0 -250 103t-103 251q0 140 105 242.5t247 102.5zM381 558q-89 0 -153 -65.5t-64 -156.5q0 -95 63 -161t154 -66q89 0 153 66t64 158q0 94 -63.5 159.5t-153.5 65.5zM219 740v110h324v-110
h-324z" />
    <glyph glyph-name="omacron" unicode="&#x14d;" horiz-adv-x="520" 
d="M264 459q97 0 166 -69.5t69 -167.5q0 -100 -68.5 -169t-169.5 -69t-170 69t-69 171q0 100 69.5 167.5t172.5 67.5zM262 343q-50 0 -80.5 -33t-30.5 -88t30.5 -89t79.5 -34q48 0 78.5 34t30.5 87q0 55 -30 89t-78 34zM98 535v110h324v-110h-324z" />
    <glyph glyph-name="Obreve" unicode="&#x14e;" horiz-adv-x="762" 
d="M381 683q145 0 248.5 -103t103.5 -247q0 -143 -103.5 -246t-247.5 -103q-147 0 -250 103t-103 251q0 140 105 242.5t247 102.5zM381 558q-89 0 -153 -65.5t-64 -156.5q0 -95 63 -161t154 -66q89 0 153 66t64 158q0 94 -63.5 159.5t-153.5 65.5zM222 871l111 9
q2 -22 2 -25q1 -51 44 -51q28 0 40 27q4 9 10 49l111 -9q-7 -60 -19 -85q-44 -88 -142 -88q-52 0 -92.5 28t-56.5 74q-6 16 -8 71z" />
    <glyph glyph-name="obreve" unicode="&#x14f;" horiz-adv-x="520" 
d="M264 459q97 0 166 -69.5t69 -167.5q0 -100 -68.5 -169t-169.5 -69t-170 69t-69 171q0 100 69.5 167.5t172.5 67.5zM262 343q-50 0 -80.5 -33t-30.5 -88t30.5 -89t79.5 -34q48 0 78.5 34t30.5 87q0 55 -30 89t-78 34zM102 667l111 9l1 -26q1 -52 44 -52q28 0 41 27
q3 8 9 51l111 -9q-7 -60 -19 -85q-44 -88 -142 -88q-52 0 -92.5 28t-56.5 74q-6 17 -7 71z" />
    <glyph glyph-name="Ohungarumlaut" unicode="&#x150;" horiz-adv-x="762" 
d="M381 683q145 0 248.5 -103t103.5 -247q0 -143 -103.5 -246t-247.5 -103q-147 0 -250 103t-103 251q0 140 105 242.5t247 102.5zM381 558q-89 0 -153 -65.5t-64 -156.5q0 -95 63 -161t154 -66q89 0 153 66t64 158q0 94 -63.5 159.5t-153.5 65.5zM368 910l108 -58l42 58
l105 -60l-163 -157l-69 41l84 117l-164 -158l-72 46z" />
    <glyph glyph-name="ohungarumlaut" unicode="&#x151;" horiz-adv-x="530" 
d="M265 459q97 0 165.5 -69.5t68.5 -167.5q0 -100 -68.5 -169t-169.5 -69t-170 69t-69 171q0 100 70 167.5t173 67.5zM262 343q-50 0 -80.5 -33t-30.5 -88t30.5 -89t79.5 -34q48 0 78.5 34t30.5 87q0 55 -30 89t-78 34zM253 705l108 -59l42 59l105 -61l-162 -157l-70 42
l84 116l-163 -158l-73 47z" />
    <glyph glyph-name="OE" unicode="&#x152;" horiz-adv-x="1021" 
d="M990 124v-124h-391v61q-96 -77 -215 -77q-146 0 -250.5 102.5t-104.5 246.5t104.5 247t250.5 103q119 0 215 -77v61h382v-123h-250v-145h222v-123h-222v-152h259zM381 558q-89 0 -153 -65t-64 -156q0 -95 63 -161.5t153 -66.5q91 0 155 65.5t64 158.5q0 94 -63.5 159.5
t-154.5 65.5z" />
    <glyph glyph-name="oe" unicode="&#x153;" horiz-adv-x="841" 
d="M700 154l113 -45q-78 -125 -212 -125q-101 0 -168 73q-73 -73 -171 -73q-101 0 -170.5 69t-69.5 169t69 168.5t170 68.5q102 0 172 -73q69 72 162 72q98 0 161 -69.5t63 -176.5v-35h-318q23 -79 100 -79q65 0 99 56zM262 344q-50 0 -80.5 -33t-30.5 -88t30.5 -89
t79.5 -34q48 0 78.5 34t30.5 87q0 55 -30 89t-78 34zM501 266h191q-26 80 -95 80q-73 0 -96 -80z" />
    <glyph glyph-name="Racute" unicode="&#x154;" horiz-adv-x="561" 
d="M549 0h-150l-136 243h-5l-33 -1h-25v-242h-133v667h158q104 0 158 -32q48 -28 75.5 -76.5t27.5 -106.5q0 -113 -94 -173zM200 545v-182h34q64 0 93 21.5t29 68.5q0 53 -33 72.5t-89 19.5h-34zM308 911l119 -62l-162 -157l-87 47z" />
    <glyph glyph-name="racute" unicode="&#x155;" horiz-adv-x="311" 
d="M50 443h128v-24q38 27 81 27q14 0 44 -3v-114q-24 2 -44 2q-46 0 -63.5 -25t-17.5 -92v-214h-128v443zM198 707l119 -62l-163 -158l-86 48z" />
    <glyph glyph-name="Rcommaaccent" unicode="&#x156;" horiz-adv-x="561" 
d="M549 0h-150l-136 243h-5l-33 -1h-25v-242h-133v667h158q104 0 158 -32q48 -28 75.5 -76.5t27.5 -106.5q0 -113 -94 -173zM200 545v-182h34q64 0 93 21.5t29 68.5q0 53 -33 72.5t-89 19.5h-34zM193 -218l61 199l121 -36l-86 -192z" />
    <glyph glyph-name="rcommaaccent" unicode="&#x157;" horiz-adv-x="311" 
d="M50 443h128v-24q38 27 81 27q14 0 44 -3v-114q-24 2 -44 2q-46 0 -63.5 -25t-17.5 -92v-214h-128v443zM2 -218l61 199l121 -36l-86 -192z" />
    <glyph glyph-name="Rcaron" unicode="&#x158;" horiz-adv-x="561" 
d="M549 0h-150l-136 243h-5l-33 -1h-25v-242h-133v667h158q104 0 158 -32q48 -28 75.5 -76.5t27.5 -106.5q0 -113 -94 -173zM200 545v-182h34q64 0 93 21.5t29 68.5q0 53 -33 72.5t-89 19.5h-34zM77 852l97 47l88 -83l87 83l97 -47l-145 -153h-79z" />
    <glyph glyph-name="rcaron" unicode="&#x159;" horiz-adv-x="311" 
d="M50 443h128v-24q38 27 81 27q14 0 44 -3v-114q-24 2 -44 2q-46 0 -63.5 -25t-17.5 -92v-214h-128v443zM177 614l88 85l97 -46l-145 -153h-79l-145 153l97 46z" />
    <glyph glyph-name="Sacute" unicode="&#x15a;" horiz-adv-x="525" 
d="M483 551l-109 -69q-30 46 -51 61.5t-52 15.5q-35 0 -58.5 -21.5t-23.5 -53.5q0 -41 72 -68l62 -23q166 -63 166 -191q0 -92 -66.5 -155t-164.5 -63q-54 0 -101.5 21.5t-76.5 58.5q-35 46 -53 125l130 35q7 -27 12.5 -43t16.5 -35t29.5 -28.5t43.5 -9.5q40 0 68 27t28 65
q0 26 -20.5 44t-69.5 37l-58 22q-151 58 -151 182q0 85 62.5 141.5t155.5 56.5q68 0 117 -31t92 -101zM325 911l120 -62l-163 -157l-87 47z" />
    <glyph glyph-name="sacute" unicode="&#x15b;" horiz-adv-x="389" 
d="M17 120l108 40q18 -35 34 -49t38 -14q19 0 30.5 10t11.5 27q0 12 -8.5 19.5t-36.5 17.5l-59 24q-91 35 -91 120q0 61 46.5 102.5t114.5 41.5q104 0 160 -104l-102 -48q-27 40 -59 40q-37 0 -37 -29q0 -10 8.5 -16.5t35.5 -17.5l51 -20q105 -39 105 -125q0 -65 -49 -110
t-122 -45q-127 0 -179 136zM245 707l119 -62l-163 -158l-86 48z" />
    <glyph glyph-name="Scircumflex" unicode="&#x15c;" horiz-adv-x="525" 
d="M483 551l-109 -69q-30 46 -51 61.5t-52 15.5q-35 0 -58.5 -21.5t-23.5 -53.5q0 -41 72 -68l62 -23q166 -63 166 -191q0 -92 -66.5 -155t-164.5 -63q-54 0 -101.5 21.5t-76.5 58.5q-35 46 -53 125l130 35q7 -27 12.5 -43t16.5 -35t29.5 -28.5t43.5 -9.5q40 0 68 27t28 65
q0 26 -20.5 44t-69.5 37l-58 22q-151 58 -151 182q0 85 62.5 141.5t155.5 56.5q68 0 117 -31t92 -101zM259 776l-87 -83l-97 47l145 153h79l145 -153l-97 -47z" />
    <glyph glyph-name="scircumflex" unicode="&#x15d;" horiz-adv-x="396" 
d="M18 120l108 40q18 -35 34 -49t39 -14q19 0 30 10t11 27q0 12 -8.5 19.5t-36.5 17.5l-59 24q-91 37 -91 121q0 61 46.5 102t114.5 41q104 0 160 -104l-101 -48q-28 40 -60 40q-37 0 -37 -29q0 -10 8.5 -16.5t35.5 -17.5l51 -20q105 -39 105 -125q0 -65 -49 -110t-122 -45
q-65 0 -108.5 33t-70.5 103zM383 535l-97 -46l-88 85l-87 -85l-97 46l145 153h79z" />
    <glyph glyph-name="Scedilla" unicode="&#x15e;" horiz-adv-x="525" 
d="M483 551l-109 -69q-30 46 -51 61.5t-52 15.5q-35 0 -58.5 -21.5t-23.5 -53.5q0 -41 72 -68l62 -23q166 -63 166 -191q0 -92 -66.5 -155t-164.5 -63q-54 0 -101.5 21.5t-76.5 58.5q-35 46 -53 125l130 35q7 -27 12.5 -43t16.5 -35t29.5 -28.5t43.5 -9.5q40 0 68 27t28 65
q0 26 -20.5 44t-69.5 37l-58 22q-151 58 -151 182q0 85 62.5 141.5t155.5 56.5q68 0 117 -31t92 -101zM258 -19l116 -48l-134 -164l-93 45z" />
    <glyph glyph-name="scedilla" unicode="&#x15f;" horiz-adv-x="389" 
d="M17 120l108 40q18 -35 34 -49t38 -14q19 0 30.5 10t11.5 27q0 12 -8.5 19.5t-36.5 17.5l-59 24q-91 35 -91 120q0 61 46.5 102.5t114.5 41.5q104 0 160 -104l-102 -48q-27 40 -59 40q-37 0 -37 -29q0 -10 8.5 -16.5t35.5 -17.5l51 -20q105 -39 105 -125q0 -65 -49 -110
t-122 -45q-127 0 -179 136zM187 -19l116 -48l-134 -164l-92 45z" />
    <glyph glyph-name="Scaron" unicode="&#x160;" horiz-adv-x="525" 
d="M483 551l-109 -69q-30 46 -51 61.5t-52 15.5q-35 0 -58.5 -21.5t-23.5 -53.5q0 -41 72 -68l62 -23q166 -63 166 -191q0 -92 -66.5 -155t-164.5 -63q-54 0 -101.5 21.5t-76.5 58.5q-35 46 -53 125l130 35q7 -27 12.5 -43t16.5 -35t29.5 -28.5t43.5 -9.5q40 0 68 27t28 65
q0 26 -20.5 44t-69.5 37l-58 22q-151 58 -151 182q0 85 62.5 141.5t155.5 56.5q68 0 117 -31t92 -101zM75 852l97 47l87 -83l88 83l97 -47l-145 -153h-79z" />
    <glyph glyph-name="scaron" unicode="&#x161;" horiz-adv-x="396" 
d="M18 120l108 40q18 -35 34 -49t39 -14q19 0 30 10t11 27q0 12 -8.5 19.5t-36.5 17.5l-59 24q-91 37 -91 121q0 61 46.5 102t114.5 41q104 0 160 -104l-101 -48q-28 40 -60 40q-37 0 -37 -29q0 -10 8.5 -16.5t35.5 -17.5l51 -20q105 -39 105 -125q0 -65 -49 -110t-122 -45
q-65 0 -108.5 33t-70.5 103zM198 614l88 85l97 -46l-145 -153h-79l-145 153l97 46z" />
    <glyph glyph-name="Tcommaaccent" unicode="&#x162;" horiz-adv-x="441" 
d="M-6 667h453v-123h-160v-544h-133v544h-160v123zM120 -218l61 199l121 -36l-86 -192z" />
    <glyph glyph-name="tcommaaccent" unicode="&#x163;" horiz-adv-x="274" 
d="M249 328h-67v-180q0 -38 19 -38q16 0 54 13v-119q-36 -13 -73 -13q-61 0 -94.5 40.5t-33.5 114.5v182h-45v115h45v92l128 50v-142h67v-115zM42 -218l61 199l121 -36l-86 -192z" />
    <glyph glyph-name="Tcaron" unicode="&#x164;" horiz-adv-x="441" 
d="M-6 667h453v-123h-160v-544h-133v544h-160v123zM36 852l97 47l87 -83l88 83l97 -47l-145 -153h-79z" />
    <glyph glyph-name="tcaron" unicode="&#x165;" horiz-adv-x="374" 
d="M249 328h-67v-180q0 -38 19 -38q16 0 54 13v-119q-36 -13 -73 -13q-61 0 -94.5 40.5t-33.5 114.5v182h-45v115h45v92l128 50v-142h67v-115zM211 507l61 199l121 -36l-86 -192z" />
    <glyph glyph-name="Tbar" unicode="&#x166;" horiz-adv-x="441" 
d="M154 0v327h-99v116h99v101h-160v123h453v-123h-160v-101h98v-116h-98v-327h-133z" />
    <glyph glyph-name="tbar" unicode="&#x167;" horiz-adv-x="274" 
d="M9 443h45v92l128 50v-142h67v-104h-67v-28h67v-104h-67v-59q0 -38 19 -38q16 0 54 13v-119q-36 -13 -73 -13q-61 0 -94.5 40.5t-33.5 114.5v61h-45v104h45v28h-45v104z" />
    <glyph glyph-name="Utilde" unicode="&#x168;" horiz-adv-x="642" 
d="M67 667h133v-409q0 -72 14 -96q13 -23 43.5 -38t63.5 -15t63.5 15t43.5 38q14 24 14 96v409h133v-427q0 -84 -30 -135q-32 -56 -93 -88.5t-131 -32.5t-131 32.5t-94 88.5q-29 51 -29 135v427zM377 873l107 -24q-10 -125 -104 -125q-40 0 -79 21q-15 9 -26 9q-5 0 -6 -3
l-1 -4q-1 -4 -2.5 -12t-3.5 -17l-104 23q12 125 107 125q34 0 79 -24q16 -8 23 -8q5 0 6.5 5t3.5 34z" />
    <glyph glyph-name="utilde" unicode="&#x169;" horiz-adv-x="510" 
d="M460 0h-128v21q-45 -37 -101 -37q-47 0 -89 23.5t-64 63.5q-28 49 -28 133v239h128v-232q0 -62 16 -86.5t56 -24.5q28 0 45.5 9.5t25 28.5t9.5 36.5t2 45.5v223h128v-443zM311 669l107 -24q-9 -125 -105 -125q-39 0 -78 21q-17 9 -26 9q-5 0 -6 -3l-1 -4q-1 -4 -2.5 -12
t-3.5 -17l-104 23q12 125 107 125q33 0 79 -24q14 -8 23 -8q5 0 6 5t4 34z" />
    <glyph glyph-name="Umacron" unicode="&#x16a;" horiz-adv-x="642" 
d="M67 667h133v-409q0 -72 14 -96q13 -23 43.5 -38t63.5 -15t63.5 15t43.5 38q14 24 14 96v409h133v-427q0 -84 -30 -135q-32 -56 -93 -88.5t-131 -32.5t-131 32.5t-94 88.5q-29 51 -29 135v427zM159 740v110h324v-110h-324z" />
    <glyph glyph-name="umacron" unicode="&#x16b;" horiz-adv-x="510" 
d="M460 0h-128v21q-45 -37 -101 -37q-47 0 -89 23.5t-64 63.5q-28 49 -28 133v239h128v-232q0 -62 16 -86.5t56 -24.5q28 0 45.5 9.5t25 28.5t9.5 36.5t2 45.5v223h128v-443zM93 535v110h324v-110h-324z" />
    <glyph glyph-name="Ubreve" unicode="&#x16c;" horiz-adv-x="642" 
d="M67 667h133v-409q0 -72 14 -96q13 -23 43.5 -38t63.5 -15t63.5 15t43.5 38q14 24 14 96v409h133v-427q0 -84 -30 -135q-32 -56 -93 -88.5t-131 -32.5t-131 32.5t-94 88.5q-29 51 -29 135v427zM162 871l111 9q0 -4 0.5 -10t1 -9.5t0.5 -5.5q1 -51 43 -51q29 0 41 27
q4 9 10 49l111 -9q-7 -60 -19 -85q-44 -88 -142 -88q-52 0 -92.5 28t-56.5 74q-7 20 -8 71z" />
    <glyph glyph-name="ubreve" unicode="&#x16d;" horiz-adv-x="510" 
d="M460 0h-128v21q-45 -37 -101 -37q-47 0 -89 23.5t-64 63.5q-28 49 -28 133v239h128v-232q0 -62 16 -86.5t56 -24.5q28 0 45.5 9.5t25 28.5t9.5 36.5t2 45.5v223h128v-443zM97 667l111 9l1 -26q1 -52 44 -52q27 0 41 27q3 8 9 51l111 -9q-7 -64 -19 -85q-44 -88 -141 -88
q-53 0 -93.5 28t-55.5 74q-7 20 -8 71z" />
    <glyph glyph-name="Uring" unicode="&#x16e;" horiz-adv-x="642" 
d="M67 667h133v-409q0 -72 14 -96q13 -23 43.5 -38t63.5 -15t63.5 15t43.5 38q14 24 14 96v409h133v-427q0 -84 -30 -135q-32 -56 -93 -88.5t-131 -32.5t-131 32.5t-94 88.5q-29 51 -29 135v427zM321 909q48 0 81.5 -33t33.5 -80t-33.5 -80t-82.5 -33q-47 0 -80.5 33.5
t-33.5 81.5q0 45 34 78t81 33zM321 848q-21 0 -36.5 -15t-15.5 -36q0 -22 15 -37.5t37 -15.5t37 15t15 37t-15 37t-37 15z" />
    <glyph glyph-name="uring" unicode="&#x16f;" horiz-adv-x="510" 
d="M460 0h-128v21q-45 -37 -101 -37q-47 0 -89 23.5t-64 63.5q-28 49 -28 133v239h128v-232q0 -62 16 -86.5t56 -24.5q28 0 45.5 9.5t25 28.5t9.5 36.5t2 45.5v223h128v-443zM255 704q48 0 81.5 -33t33.5 -80t-33.5 -80t-82.5 -33q-47 0 -80.5 33.5t-33.5 81.5q0 45 34 78
t81 33zM255 643q-21 0 -36.5 -15t-15.5 -36q0 -22 15 -37.5t37 -15.5t37 15t15 37t-15 37t-37 15z" />
    <glyph glyph-name="Uhungarumlaut" unicode="&#x170;" horiz-adv-x="644" 
d="M67 667h133v-409q0 -72 14 -96q13 -23 43.5 -38t63.5 -15t63.5 15t43.5 38q14 24 14 96v409h133v-427q0 -84 -30 -135q-32 -56 -93 -88.5t-131 -32.5t-131 32.5t-94 88.5q-29 51 -29 135v427zM301 910l108 -58l42 58l105 -60l-162 -157l-70 41l84 117l-163 -158l-73 46z
" />
    <glyph glyph-name="uhungarumlaut" unicode="&#x171;" horiz-adv-x="510" 
d="M460 0h-128v21q-45 -37 -101 -37q-47 0 -89 23.5t-64 63.5q-28 49 -28 133v239h128v-232q0 -62 16 -86.5t56 -24.5q28 0 45.5 9.5t25 28.5t9.5 36.5t2 45.5v223h128v-443zM232 705l107 -59l42 59l105 -61l-162 -157l-69 42l84 116l-164 -158l-72 47z" />
    <glyph glyph-name="Uogonek" unicode="&#x172;" horiz-adv-x="642" 
d="M446 667h133v-427q3 -95 -45 -158.5t-142 -88.5q-26 -36 -26 -51q0 -8 10 -8q16 0 43 12l38 -93q-64 -23 -96 -23q-51 0 -84 28t-33 72q0 29 20 62q-96 22 -146 87t-47 161v427h133v-409q0 -71 14 -96q13 -23 43.5 -38t63.5 -15t63 15t44 38q14 25 14 96v409z" />
    <glyph glyph-name="uogonek" unicode="&#x173;" horiz-adv-x="510" 
d="M460 443v-443l-4 -5q-28 -35 -28 -54q0 -8 10 -8q15 0 43 12l38 -93q-63 -23 -95 -23q-52 0 -85 28t-33 72q0 33 26 71v21q-45 -37 -101 -37q-47 0 -89 23.5t-64 63.5q-28 49 -28 133v239h128v-232q0 -62 16 -86.5t56 -24.5q28 0 45.5 9.5t25 28.5t9.5 36.5t2 45.5v223
h128z" />
    <glyph glyph-name="Wcircumflex" unicode="&#x174;" horiz-adv-x="877" 
d="M-6 667h139l123 -427l127 427h111l128 -427l123 427h138l-199 -667h-119l-126 417l-126 -417h-119zM439 776l-88 -83l-97 47l145 153h79l145 -153l-97 -47z" />
    <glyph glyph-name="wcircumflex" unicode="&#x175;" horiz-adv-x="658" 
d="M148 0l-160 443h136l76 -234l80 234h98l80 -234l77 234h136l-161 -443h-102l-79 230l-79 -230h-102zM514 535l-97 -46l-88 85l-87 -85l-97 46l145 153h79z" />
    <glyph glyph-name="Ycircumflex" unicode="&#x176;" horiz-adv-x="552" 
d="M209 0v276l-222 391h149l140 -254l140 254h149l-223 -391v-276h-133zM276 776l-87 -83l-97 47l145 153h79l145 -153l-97 -47z" />
    <glyph glyph-name="ycircumflex" unicode="&#x177;" horiz-adv-x="474" 
d="M50 -233l113 256l-175 420h137l108 -264l117 264h137l-302 -676h-135zM422 535l-96 -46l-88 85l-87 -85l-97 46l145 153h79z" />
    <glyph glyph-name="Ydieresis" unicode="&#x178;" horiz-adv-x="552" 
d="M209 0v276l-222 391h149l140 -254l140 254h149l-223 -391v-276h-133zM183 868q32 0 53.5 -21t21.5 -52q0 -30 -22 -51.5t-53 -21.5t-53 21.5t-22 52.5q0 29 22 50.5t53 21.5zM369 868q32 0 53.5 -21t21.5 -52q0 -30 -22 -51.5t-53 -21.5q-32 0 -53.5 21.5t-21.5 52.5
q0 29 22 50.5t53 21.5z" />
    <glyph glyph-name="Zacute" unicode="&#x179;" horiz-adv-x="513" 
d="M494 667v-101l-310 -442h317v-124h-491v101l315 443h-287v123h456zM300 911l119 -62l-163 -157l-86 47z" />
    <glyph glyph-name="zacute" unicode="&#x17a;" horiz-adv-x="418" 
d="M31 443h370v-93l-209 -236h218v-114h-392v92l210 237h-197v114zM255 707l119 -62l-163 -158l-86 48z" />
    <glyph glyph-name="Zdotaccent" unicode="&#x17b;" horiz-adv-x="513" 
d="M494 667v-101l-310 -442h317v-124h-491v101l315 443h-287v123h456zM271 871q32 0 55 -22.5t23 -53.5q0 -32 -23 -54t-56 -22q-32 0 -54.5 22.5t-22.5 54.5q0 31 23 53t55 22z" />
    <glyph glyph-name="zdotaccent" unicode="&#x17c;" horiz-adv-x="418" 
d="M31 443h370v-93l-209 -236h218v-114h-392v92l210 237h-197v114zM214 671q32 0 55 -22.5t23 -53.5q0 -32 -23 -54t-56 -22q-32 0 -54.5 22.5t-22.5 54.5q0 31 23 53t55 22z" />
    <glyph glyph-name="Zcaron" unicode="&#x17d;" horiz-adv-x="513" 
d="M494 667v-101l-310 -442h317v-124h-491v101l315 443h-287v123h456zM87 852l97 47l88 -83l87 83l98 -47l-146 -153h-79z" />
    <glyph glyph-name="zcaron" unicode="&#x17e;" horiz-adv-x="418" 
d="M30 443h370v-93l-209 -236h218v-114h-392v92l210 237h-197v114zM213 614l87 85l97 -46l-145 -153h-79l-144 153l96 46z" />
    <glyph glyph-name="longs" unicode="&#x17f;" horiz-adv-x="248" 
d="M186 519v-519h-128v328h-41v115h41v78q0 74 34 114.5t96 40.5q34 0 70 -9v-115q-27 9 -43 9q-29 0 -29 -42z" />
    <glyph glyph-name="uni018F" unicode="&#x18f;" horiz-adv-x="754" 
d="M29 386h553q-20 79 -77 126t-134 47q-129 0 -190 -129l-118 63q98 190 307 190q150 0 252 -100.5t102 -248.5q0 -145 -102 -247.5t-245 -102.5q-92 0 -173 46t-127 124q-48 80 -48 232zM584 285h-412q14 -80 70 -128.5t135 -48.5q53 0 99.5 25t75.5 69q17 27 32 83z" />
    <glyph glyph-name="florin" unicode="&#x192;" horiz-adv-x="493" 
d="M-5 -186l25 118q6 -1 26 -8q18 -4 24 -4q23 0 32 46l76 362h-43l24 115h43l16 80q15 73 56 114t99 41q32 0 82 -15l-24 -118q-41 11 -50 11q-23 0 -33 -45l-14 -68h77l-24 -115h-77l-78 -375q-15 -73 -56 -113.5t-99 -40.5q-32 0 -82 15z" />
    <glyph glyph-name="Ohorn" unicode="&#x1a0;" horiz-adv-x="776" 
d="M589 724l99 49q39 -28 58.5 -58t19.5 -75q0 -79 -79 -135q46 -82 46 -173q0 -142 -104 -245t-248 -103q-145 0 -248.5 103t-103.5 246q0 144 104 247t249 103q134 0 233 -90q37 19 37 47q0 21 -11.5 36.5t-51.5 47.5zM381 558q-89 0 -153 -65.5t-64 -156.5q0 -95 63 -161
t154 -66q89 0 153 66t64 158q0 94 -63.5 159.5t-153.5 65.5z" />
    <glyph glyph-name="ohorn" unicode="&#x1a1;" horiz-adv-x="569" 
d="M389 500l98 49q40 -28 59.5 -58t19.5 -75q0 -78 -76 -132q9 -32 9 -62q0 -100 -68.5 -169t-169.5 -69t-170 68.5t-69 169.5q0 100 69 168.5t170 68.5q104 0 175 -76q16 13 16 34q0 20 -11.5 35.5t-51.5 47.5zM262 344q-50 0 -80.5 -33.5t-30.5 -88.5t30.5 -89t79.5 -34
q48 0 78.5 34t30.5 87q0 55 -30 89.5t-78 34.5z" />
    <glyph glyph-name="Uhorn" unicode="&#x1af;" horiz-adv-x="704" 
d="M442 667h133v-67q25 18 25 41q0 20 -11.5 35.5t-51.5 47.5l98 49q22 -16 37 -29q42 -42 42 -105q0 -106 -128 -158l-11 -5v-236q0 -84 -30 -135q-32 -56 -93 -88.5t-131 -32.5t-131 32.5t-94 88.5q-29 51 -29 135v427h133v-409q0 -72 14 -96q13 -23 43.5 -38t63.5 -15
t63.5 15t43.5 38q14 24 14 96v409z" />
    <glyph glyph-name="uhorn" unicode="&#x1b0;" horiz-adv-x="605" 
d="M332 443h128v-69q28 17 28 43q0 20 -11.5 35.5t-51.5 47.5l98 49q40 -28 59.5 -58t19.5 -75q0 -56 -33.5 -95t-108.5 -70v-251h-128v21q-45 -37 -101 -37q-47 0 -89 23.5t-64 63.5q-28 49 -28 133v239h128v-232q0 -62 16 -86.5t56 -24.5q28 0 45.5 9.5t25 28.5t9.5 36.5
t2 45.5v223z" />
    <glyph glyph-name="uni01C4" unicode="&#x1c4;" horiz-adv-x="1128" 
d="M67 0v667h158q167 0 266.5 -90.5t99.5 -242.5t-99.5 -243t-266.5 -91h-158zM229 543h-29v-419h29q107 0 167.5 56t60.5 154q0 97 -61 153t-167 56zM1115 667v-101l-311 -442h317v-124h-490v101l315 443h-288v123h457zM708 852l97 47l87 -83l88 83l97 -47l-145 -153h-79z
" />
    <glyph glyph-name="uni01C5" unicode="&#x1c5;" horiz-adv-x="1038" 
d="M67 0v667h158q167 0 266.5 -90.5t99.5 -242.5t-99.5 -243t-266.5 -91h-158zM229 543h-29v-419h29q107 0 167.5 56t60.5 154q0 97 -61 153t-167 56zM650 443h370v-93l-209 -236h218v-114h-392v92l210 237h-197v114zM833 614l87 85l97 -46l-145 -153h-79l-145 153l97 46z
" />
    <glyph glyph-name="uni01C6" unicode="&#x1c6;" horiz-adv-x="961" 
d="M493 667v-667h-128v25q-55 -41 -115 -41q-95 0 -161.5 69.5t-66.5 168.5q0 98 66.5 167.5t161.5 69.5q59 0 115 -41v249h128zM261 343q-50 0 -80 -33t-30 -88t30 -89t78 -34q47 0 77 34t30 87q0 55 -29 89t-76 34zM574 443h370v-93l-209 -236h217v-114h-391v92l210 237
h-197v114zM756 614l88 85l97 -46l-145 -153h-79l-145 153l97 46z" />
    <glyph glyph-name="uni01C7" unicode="&#x1c7;" horiz-adv-x="884" 
d="M67 0v667h133v-543h240v-124h-373zM684 667h133v-459q0 -87 -29 -140q-22 -40 -63.5 -62t-92.5 -22t-94 21t-90 70l81 96q55 -62 99 -62q56 0 56 99v459z" />
    <glyph glyph-name="uni01C8" unicode="&#x1c8;" horiz-adv-x="677" 
d="M499 443h128v-532q0 -73 -33.5 -114t-93.5 -41q-32 0 -74 13v119q36 -13 54 -13q19 0 19 39v529zM67 0v667h133v-543h240v-124h-373zM563 671q32 0 55 -22.5t23 -53.5t-23 -53.5t-55 -22.5q-33 0 -55.5 22.5t-22.5 54.5q0 31 23 53t55 22z" />
    <glyph glyph-name="uni01C9" unicode="&#x1c9;" horiz-adv-x="467" 
d="M289 443h128v-532q0 -73 -33.5 -114t-93.5 -41q-32 0 -74 13v119q36 -13 54 -13q19 0 19 39v529zM179 667v-667h-128v667h128zM353 671q32 0 55 -22.5t23 -53.5t-23 -53.5t-55 -22.5q-33 0 -55.5 22.5t-22.5 54.5q0 31 23 53t55 22z" />
    <glyph glyph-name="uni01CA" unicode="&#x1ca;" horiz-adv-x="1135" 
d="M200 0h-133v667h113l327 -434v434h133v-667h-113l-327 434v-434zM935 667h133v-459q0 -87 -29 -140q-22 -40 -63.5 -62t-92.5 -22t-94 21t-90 70l81 96q55 -62 99 -62q56 0 56 99v459z" />
    <glyph glyph-name="uni01CB" unicode="&#x1cb;" horiz-adv-x="945" 
d="M766 443h128v-532q0 -73 -33.5 -114t-93.5 -41q-31 0 -73 13v119q36 -13 53 -13q19 0 19 39v529zM200 0h-133v667h113l328 -434v434h133v-667h-113l-328 434v-434zM830 671q32 0 55 -22.5t23 -53.5t-23 -53.5t-55 -22.5q-33 0 -55.5 22.5t-22.5 54.5q0 31 23 53t55 22z
" />
    <glyph glyph-name="uni01CC" unicode="&#x1cc;" horiz-adv-x="747" 
d="M50 443h128v-21q45 37 101 37q47 0 89 -23.5t64 -63.5q28 -49 28 -133v-239h-128v232q0 63 -16 87.5t-56 24.5q-22 0 -38 -7t-24.5 -17.5t-13 -28t-5.5 -32t-1 -36.5v-223h-128v443zM568 443h128v-532q0 -73 -33.5 -114t-93.5 -41q-31 0 -73 13v119q36 -13 53 -13
q19 0 19 39v529zM632 671q32 0 55 -22.5t23 -53.5t-23 -53.5t-55 -22.5q-33 0 -55.5 22.5t-22.5 54.5q0 31 23 53t55 22z" />
    <glyph glyph-name="uni01CD" unicode="&#x1cd;" horiz-adv-x="643" 
d="M508 0l-55 155h-263l-56 -155h-140l249 667h157l249 -667h-141zM233 279h176l-88 246zM137 852l97 47l88 -83l87 83l97 -47l-145 -153h-79z" />
    <glyph glyph-name="uni01CE" unicode="&#x1ce;" horiz-adv-x="543" 
d="M494 443v-443h-128v25q-55 -41 -115 -41q-95 0 -161.5 69.5t-66.5 168.5q0 98 66.5 167.5t161.5 69.5q60 0 115 -41v25h128zM263 344q-50 0 -80.5 -33t-30.5 -88t30 -89.5t79 -34.5q47 0 77 34t30 87q0 55 -29 89.5t-76 34.5zM258 614l87 85l97 -46l-145 -153h-79
l-144 153l96 46z" />
    <glyph glyph-name="uni01CF" unicode="&#x1cf;" horiz-adv-x="267" 
d="M67 667h133v-667h-133v667zM-51 852l97 47l88 -83l87 83l97 -47l-145 -153h-79z" />
    <glyph glyph-name="uni01D0" unicode="&#x1d0;" horiz-adv-x="229" 
d="M50 443h128v-443h-128v443zM114 614l88 85l97 -46l-145 -153h-79l-145 153l97 46z" />
    <glyph glyph-name="uni01D1" unicode="&#x1d1;" horiz-adv-x="762" 
d="M381 683q145 0 248.5 -103t103.5 -247q0 -143 -103.5 -246t-247.5 -103q-147 0 -250 103t-103 251q0 140 105 242.5t247 102.5zM381 558q-89 0 -153 -65.5t-64 -156.5q0 -95 63 -161t154 -66q89 0 153 66t64 158q0 94 -63.5 159.5t-153.5 65.5zM196 852l98 47l87 -83
l88 83l97 -47l-145 -153h-79z" />
    <glyph glyph-name="uni01D2" unicode="&#x1d2;" horiz-adv-x="520" 
d="M264 459q97 0 166 -69.5t69 -167.5q0 -100 -68.5 -169t-169.5 -69t-170 69t-69 171q0 100 69.5 167.5t172.5 67.5zM262 343q-50 0 -80.5 -33t-30.5 -88t30.5 -89t79.5 -34q48 0 78.5 34t30.5 87q0 55 -30 89t-78 34zM260 614l88 85l97 -46l-145 -153h-79l-145 153l97 46z
" />
    <glyph glyph-name="uni01D3" unicode="&#x1d3;" horiz-adv-x="642" 
d="M67 667h133v-409q0 -72 14 -96q13 -23 43.5 -38t63.5 -15t63.5 15t43.5 38q14 24 14 96v409h133v-427q0 -84 -30 -135q-32 -56 -93 -88.5t-131 -32.5t-131 32.5t-94 88.5q-29 51 -29 135v427zM136 852l98 47l87 -83l87 83l98 -47l-145 -153h-79z" />
    <glyph glyph-name="uni01D4" unicode="&#x1d4;" horiz-adv-x="510" 
d="M460 0h-128v21q-45 -37 -101 -37q-47 0 -89 23.5t-64 63.5q-28 49 -28 133v239h128v-232q0 -62 16 -86.5t56 -24.5q28 0 45.5 9.5t25 28.5t9.5 36.5t2 45.5v223h128v-443zM255 614l87 85l97 -46l-145 -153h-78l-145 153l96 46z" />
    <glyph glyph-name="uni01DD" unicode="&#x1dd;" horiz-adv-x="495" 
d="M23 270h318q-15 38 -22 46q-26 32 -75 32q-55 0 -89 -44l-117 44q76 111 204 111q100 0 165.5 -67t65.5 -170q0 -101 -65.5 -169.5t-162.5 -68.5t-160 68.5t-63 173.5q0 8 1 44zM342 184h-193q12 -90 96 -90q42 0 64.5 20.5t32.5 69.5z" />
    <glyph glyph-name="Gcaron" unicode="&#x1e6;" horiz-adv-x="728" 
d="M376 250v123h321v-64q0 -146 -85.5 -235.5t-225.5 -89.5q-149 0 -253 101.5t-104 247.5t103.5 248t252.5 102q76 0 137 -28.5t131 -95.5l-94 -89q-49 50 -87 69t-88 19q-94 0 -157 -65t-63 -160t64 -159.5t158 -64.5q81 0 132 55q29 32 40 86h-182zM201 852l97 47l88 -83
l87 83l98 -47l-145 -153h-79z" />
    <glyph glyph-name="gcaron" unicode="&#x1e7;" horiz-adv-x="543" 
d="M366 -9v34q-57 -41 -115 -41q-95 0 -161.5 69.5t-66.5 168.5q0 98 66.5 167.5t161.5 69.5q58 0 115 -41v25h128v-452q0 -107 -67 -173.5t-174 -66.5q-73 0 -123.5 29t-101.5 89l86 82q10 -12 11 -13q3 -4 9 -10q51 -61 118 -61q55 0 84.5 32.5t29.5 91.5zM262 344
q-49 0 -79.5 -33.5t-30.5 -87.5q0 -55 30 -89.5t78 -34.5t77.5 34t29.5 89q0 54 -29.5 88t-75.5 34zM258 614l87 85l97 -46l-145 -153h-78l-145 153l96 46z" />
    <glyph glyph-name="uni01F4" unicode="&#x1f4;" horiz-adv-x="728" 
d="M376 250v123h321v-64q0 -146 -85.5 -235.5t-225.5 -89.5q-149 0 -253 101.5t-104 247.5t103.5 248t252.5 102q76 0 137 -28.5t131 -95.5l-94 -89q-49 50 -87 69t-88 19q-94 0 -157 -65t-63 -160t64 -159.5t158 -64.5q81 0 132 55q29 32 40 86h-182zM437 911l120 -62
l-163 -157l-86 47z" />
    <glyph glyph-name="uni01F5" unicode="&#x1f5;" horiz-adv-x="543" 
d="M366 -9v34q-57 -41 -115 -41q-95 0 -161.5 69.5t-66.5 168.5q0 98 66.5 167.5t161.5 69.5q58 0 115 -41v25h128v-452q0 -107 -67 -173.5t-174 -66.5q-73 0 -123.5 29t-101.5 89l86 82q10 -12 11 -13q3 -4 9 -10q51 -61 118 -61q55 0 84.5 32.5t29.5 91.5zM262 344
q-49 0 -79.5 -33.5t-30.5 -87.5q0 -55 30 -89.5t78 -34.5t77.5 34t29.5 89q0 54 -29.5 88t-75.5 34zM305 707l119 -62l-163 -158l-86 48z" />
    <glyph glyph-name="Aringacute" unicode="&#x1fa;" horiz-adv-x="643" 
d="M508 0l-55 155h-263l-56 -155h-140l249 667h157l249 -667h-141zM233 279h176l-88 246zM328 1081l119 -59l-121 -114q48 -3 79.5 -34t31.5 -75q0 -45 -33.5 -77t-81.5 -32q-47 0 -81 32t-34 77q0 54 46 87l-55 29zM322 849q-21 0 -36.5 -14.5t-15.5 -34.5q0 -21 15 -36
t37 -15t37 14.5t15 35.5t-15 35.5t-37 14.5z" />
    <glyph glyph-name="aringacute" unicode="&#x1fb;" horiz-adv-x="543" 
d="M494 443v-443h-128v25q-55 -41 -115 -41q-95 0 -161.5 69.5t-66.5 168.5q0 98 66.5 167.5t161.5 69.5q60 0 115 -41v25h128zM263 344q-50 0 -80.5 -33t-30.5 -88t30 -89.5t79 -34.5q47 0 77 34t30 87q0 55 -29 89.5t-76 34.5zM285 911l119 -62l-154 -149q7 2 16 2
q48 0 81.5 -33t33.5 -80t-33.5 -80t-81.5 -33q-47 0 -81 33.5t-34 79.5q0 37 22.5 67t59.5 41l-78 42zM266 641q-21 0 -36.5 -15t-15.5 -36q0 -22 15 -37.5t37 -15.5t37 15t15 37t-15 37t-37 15z" />
    <glyph glyph-name="AEacute" unicode="&#x1fc;" horiz-adv-x="845" 
d="M423 0v155h-200l-80 -155h-149l351 667h460v-123h-249v-145h221v-123h-221v-152h258v-124h-391zM287 279h136v249h-7zM571 911l119 -62l-163 -157l-86 47z" />
    <glyph glyph-name="aeacute" unicode="&#x1fd;" horiz-adv-x="801" 
d="M98 300l-67 83q56 41 103.5 58.5t107.5 17.5q108 0 163 -60q65 60 150 60q98 0 161 -70t63 -179q0 -15 -1 -33h-317q25 -80 100 -80q64 0 99 57l112 -44q-76 -126 -212 -126q-86 0 -152 57q-57 -57 -169 -57q-98 0 -157.5 43t-59.5 114q0 68 54 107t149 39h97
q-20 61 -91 61q-62 0 -133 -48zM327 152v46h-89q-89 0 -89 -52q0 -51 89 -51t89 57zM461 266h191q-25 81 -95 81q-76 0 -96 -81zM443 707l119 -62l-162 -158l-87 48z" />
    <glyph glyph-name="Oslashacute" unicode="&#x1fe;" horiz-adv-x="770" 
d="M656 670l73 -70l-61 -60q69 -95 69 -206q0 -144 -103.5 -247t-248.5 -103q-113 0 -211 71l-60 -58l-73 70l61 60q-69 90 -69 206q0 144 104 247t249 103q114 0 211 -71zM197 220l307 301q-55 37 -119 37q-90 0 -153.5 -65.5t-63.5 -158.5q0 -61 29 -114zM573 447
l-306 -301q54 -37 118 -37q89 0 153 65.5t64 157.5q0 59 -29 115zM435 911l120 -62l-163 -157l-86 47z" />
    <glyph glyph-name="oslashacute" unicode="&#x1ff;" horiz-adv-x="534" 
d="M91 -3l-63 61l37 35q-37 59 -37 128q0 101 69 169.5t170 68.5q79 0 140 -45l34 32l64 -61l-37 -35q37 -58 37 -129q0 -100 -69 -168.5t-170 -68.5q-80 0 -141 45zM162 184l156 147q-23 13 -52 13q-49 0 -79.5 -33.5t-30.5 -87.5q0 -21 6 -39zM371 260l-157 -148
q25 -13 53 -13q49 0 79.5 34.5t30.5 89.5q0 21 -6 37zM313 707l120 -62l-163 -158l-86 48z" />
    <glyph glyph-name="uni0200" unicode="&#x200;" horiz-adv-x="643" 
d="M508 0l-55 155h-263l-56 -155h-140l249 667h157l249 -667h-141zM233 279h176l-88 246zM195 910l40 -56l104 56l129 -171l-78 -46l-128 123l57 -79l-73 -44l-162 157z" />
    <glyph glyph-name="uni0201" unicode="&#x201;" horiz-adv-x="543" 
d="M493 443v-443h-128v25q-55 -41 -115 -41q-95 0 -161.5 69.5t-66.5 168.5q0 98 66.5 167.5t161.5 69.5q60 0 115 -41v25h128zM262 344q-50 0 -80.5 -33t-30.5 -88t30 -89.5t79 -34.5q47 0 77 34t30 87q0 55 -29 89.5t-76 34.5zM117 705l40 -57l104 57l129 -171l-78 -47
l-127 123l57 -79l-74 -44l-162 157z" />
    <glyph glyph-name="Scommaaccent" unicode="&#x218;" horiz-adv-x="525" 
d="M483 551l-109 -69q-30 46 -51 61.5t-52 15.5q-35 0 -58.5 -21.5t-23.5 -53.5q0 -41 72 -68l62 -23q166 -63 166 -191q0 -92 -66.5 -155t-164.5 -63q-54 0 -101.5 21.5t-76.5 58.5q-35 46 -53 125l130 35q7 -27 12.5 -43t16.5 -35t29.5 -28.5t43.5 -9.5q40 0 68 27t28 65
q0 26 -20.5 44t-69.5 37l-58 22q-151 58 -151 182q0 85 62.5 141.5t155.5 56.5q68 0 117 -31t92 -101zM254 -19l116 -48l-134 -164l-92 45z" />
    <glyph glyph-name="scommaaccent" unicode="&#x219;" horiz-adv-x="389" 
d="M17 120l108 40q18 -35 34 -49t38 -14q19 0 30.5 10t11.5 27q0 12 -8.5 19.5t-36.5 17.5l-59 24q-91 35 -91 120q0 61 46.5 102.5t114.5 41.5q104 0 160 -104l-102 -48q-27 40 -59 40q-37 0 -37 -29q0 -10 8.5 -16.5t35.5 -17.5l51 -20q105 -39 105 -125q0 -65 -49 -110
t-122 -45q-127 0 -179 136zM107 -218l61 199l121 -36l-86 -192z" />
    <glyph glyph-name="uni021A" unicode="&#x21a;" horiz-adv-x="441" 
d="M-6 667h453v-123h-160v-544h-133v544h-160v123zM120 -218l61 199l121 -36l-86 -192z" />
    <glyph glyph-name="uni021B" unicode="&#x21b;" horiz-adv-x="274" 
d="M249 328h-67v-180q0 -38 19 -38q16 0 54 13v-119q-36 -13 -73 -13q-61 0 -94.5 40.5t-33.5 114.5v182h-45v115h45v92l128 50v-142h67v-115zM42 -218l61 199l121 -36l-86 -192z" />
    <glyph glyph-name="uni0226" unicode="&#x226;" horiz-adv-x="643" 
d="M508 0l-55 155h-263l-56 -155h-140l249 667h157l249 -667h-141zM233 279h176l-88 246zM322 871q32 0 55 -22.5t23 -53.5t-23 -53.5t-55 -22.5q-33 0 -55.5 22.5t-22.5 54.5q0 31 23 53t55 22z" />
    <glyph glyph-name="uni0227" unicode="&#x227;" horiz-adv-x="543" 
d="M494 443v-443h-128v25q-55 -41 -115 -41q-95 0 -161.5 69.5t-66.5 168.5q0 98 66.5 167.5t161.5 69.5q60 0 115 -41v25h128zM263 344q-50 0 -80.5 -33t-30.5 -88t30 -89.5t79 -34.5q47 0 77 34t30 87q0 55 -29 89.5t-76 34.5zM258 671q32 0 55 -22.5t23 -53.5
q0 -32 -23 -54t-56 -22q-32 0 -54.5 22.5t-22.5 54.5q0 31 23 53t55 22z" />
    <glyph glyph-name="uni0237" unicode="&#x237;" horiz-adv-x="237" 
d="M58 443h128v-532q0 -73 -33.5 -114t-93.5 -41q-31 0 -73 13v119q36 -13 53 -13q19 0 19 39v529z" />
    <glyph glyph-name="uni0259" unicode="&#x259;" horiz-adv-x="495" 
d="M23 270h318q-15 38 -22 46q-26 32 -75 32q-55 0 -89 -44l-117 44q76 111 204 111q100 0 165.5 -67t65.5 -170q0 -101 -65.5 -169.5t-162.5 -68.5t-160 68.5t-63 173.5q0 8 1 44zM342 184h-193q12 -90 96 -90q42 0 64.5 20.5t32.5 69.5z" />
    <glyph glyph-name="uni02BB" unicode="&#x2bb;" horiz-adv-x="269" 
d="M248 696l-100 -267l-115 40l121 263z" />
    <glyph glyph-name="afii57929" unicode="&#x2bc;" horiz-adv-x="306" 
d="M44 455l101 279l117 -43l-123 -275z" />
    <glyph glyph-name="circumflex" unicode="&#x2c6;" horiz-adv-x="476" 
d="M423 535l-97 -46l-88 85l-87 -85l-97 46l145 153h79z" />
    <glyph glyph-name="caron" unicode="&#x2c7;" horiz-adv-x="476" 
d="M238 614l88 85l97 -46l-145 -153h-79l-145 153l97 46z" />
    <glyph glyph-name="uni02C9" unicode="&#x2c9;" horiz-adv-x="476" 
d="M76 535v110h324v-110h-324z" />
    <glyph glyph-name="breve" unicode="&#x2d8;" horiz-adv-x="476" 
d="M79 667l111 9l1 -26q3 -52 44 -52q27 0 41 27q3 8 9 51l111 -9q-7 -63 -19 -85q-44 -88 -141 -88q-52 0 -92.5 27.5t-56.5 74.5q-7 20 -8 71z" />
    <glyph glyph-name="dotaccent" unicode="&#x2d9;" horiz-adv-x="476" 
d="M238 671q32 0 55 -22.5t23 -53.5q0 -32 -23 -54t-56 -22q-32 0 -54.5 22.5t-22.5 54.5q0 31 23 53t55 22z" />
    <glyph glyph-name="ring" unicode="&#x2da;" horiz-adv-x="476" 
d="M238 704q48 0 81.5 -33t33.5 -80t-33.5 -80t-81.5 -33t-81.5 33.5t-33.5 81.5q0 45 34 78t81 33zM238 643q-21 0 -36.5 -15t-15.5 -36q0 -22 15 -37.5t37 -15.5t37 15t15 37t-15 37t-37 15z" />
    <glyph glyph-name="ogonek" unicode="&#x2db;" horiz-adv-x="476" 
d="M323 0h128q-32 -44 -32 -59q0 -8 10 -8q16 0 43 12l38 -93q-65 -23 -95 -23q-52 0 -85 28t-33 72q0 32 26 71z" />
    <glyph glyph-name="tilde" unicode="&#x2dc;" horiz-adv-x="476" 
d="M295 669l106 -24q-4 -55 -20 -81q-26 -44 -84 -44q-40 0 -79 21q-15 9 -26 9q-5 -4 -13 -36l-104 23q12 125 107 125q34 0 79 -24q16 -8 24 -8q5 0 6 5t4 34z" />
    <glyph glyph-name="hungarumlaut" unicode="&#x2dd;" horiz-adv-x="476" 
d="M216 705l108 -59l42 59l105 -61l-163 -157l-69 42l84 116l-164 -158l-72 47z" />
    <glyph glyph-name="uni0309" unicode="&#x309;" horiz-adv-x="476" 
d="M326 714v-10h-115q1 36 4 48t14 27q13 15 13 21t-10 6q-9 0 -26 -6q-14 -5 -17 -6l-38 93q62 23 97 23q52 0 84 -25t32 -65q0 -31 -19 -59l-16 -24q-3 -3 -3 -23z" />
    <glyph glyph-name="uni0312" unicode="&#x312;" horiz-adv-x="476" 
d="M433 676l-61 -198l-121 35l86 192z" />
    <glyph glyph-name="uni0313" unicode="&#x313;" horiz-adv-x="476" 
d="M251 507l61 199l121 -36l-86 -192z" />
    <glyph glyph-name="uni031B" unicode="&#x31b;" horiz-adv-x="476" 
d="M251 507l61 199l121 -36l-86 -192z" />
    <glyph glyph-name="uni0323" unicode="&#x323;" horiz-adv-x="476" 
d="M238 -38q32 0 55 -22.5t23 -53.5q0 -32 -23 -54t-56 -22q-32 0 -54.5 22.5t-22.5 54.5q0 31 23 53t55 22z" />
    <glyph glyph-name="uni0374" unicode="&#x374;" horiz-adv-x="234" 
d="M122 440h-98l66 270h126z" />
    <glyph glyph-name="uni0375" unicode="&#x375;" horiz-adv-x="234" 
d="M112 -119h-98l66 270h126z" />
    <glyph glyph-name="uni037A" unicode="&#x37a;" horiz-adv-x="467" 
d="M201 -71v71h103v-38q0 -42 10 -52q10 -12 30 -12q8 0 47 3l7 -78q-45 -9 -89 -9q-68 0 -93 31q-15 19 -15 84z" />
    <glyph glyph-name="uni037E" unicode="&#x37e;" horiz-adv-x="265" 
d="M151 430q32 0 55 -22.5t23 -53.5q0 -32 -23 -54t-56 -22q-32 0 -54.5 22.5t-22.5 54.5q0 31 23 53t55 22zM11 -148l101 280l117 -43l-123 -275z" />
    <glyph glyph-name="tonos" unicode="&#x384;" horiz-adv-x="485" 
d="M288 518h-90l-16 204h122z" />
    <glyph glyph-name="dieresistonos" unicode="&#x385;" horiz-adv-x="485" 
d="M90 677q30 0 50.5 -21t20.5 -51t-20.5 -51t-49.5 -21q-30 0 -50.5 21t-20.5 52q0 29 20.5 50t49.5 21zM288 514h-91l-16 211h123zM396 677q29 0 49.5 -21t20.5 -51t-20.5 -51t-49.5 -21q-30 0 -50.5 21t-20.5 52q0 29 21 50t50 21z" />
    <glyph glyph-name="Alphatonos" unicode="&#x386;" horiz-adv-x="645" 
d="M505 0l-55 152h-264l-55 -152h-141l256 667h144l256 -667h-141zM228 276h179l-89 244zM110 498h-91l-16 227h123z" />
    <glyph glyph-name="uni0387" unicode="&#x387;" horiz-adv-x="257" 
d="M129 387q32 0 54.5 -21.5t22.5 -52.5t-22.5 -53t-54.5 -22t-54.5 22t-22.5 53t22.5 52.5t54.5 21.5z" />
    <glyph glyph-name="Epsilontonos" unicode="&#x388;" horiz-adv-x="644" 
d="M610 0h-392v667h383v-122h-251v-146h223v-123h-223v-152h260v-124zM118 498h-91l-16 227h123z" />
    <glyph glyph-name="Etatonos" unicode="&#x389;" horiz-adv-x="805" 
d="M351 0h-133v667h133v-268h253v268h133v-667h-133v275h-253v-275zM118 498h-91l-16 227h123z" />
    <glyph glyph-name="Iotatonos" unicode="&#x38a;" horiz-adv-x="419" 
d="M351 0h-133v667h133v-667zM118 498h-91l-16 227h123z" />
    <glyph glyph-name="Omicrontonos" unicode="&#x38c;" horiz-adv-x="888" 
d="M506 683q145 0 248.5 -102.5t103.5 -246.5t-103.5 -247t-248.5 -103q-148 0 -250.5 103t-102.5 251q0 141 104.5 243t248.5 102zM506 559q-91 0 -155 -65t-64 -158q0 -97 63 -162.5t157 -65.5q91 0 154.5 66t63.5 160t-64 159.5t-155 65.5zM118 498h-91l-16 227h123z" />
    <glyph glyph-name="Upsilontonos" unicode="&#x38e;" horiz-adv-x="724" 
d="M514 0h-133v276l-223 391h150l140 -253l140 253h149l-223 -391v-276zM118 498h-91l-16 227h123z" />
    <glyph glyph-name="Omegatonos" unicode="&#x38f;" horiz-adv-x="890" 
d="M446 0h-287v124h154v20q-150 68 -150 232q0 137 93.5 219.5t250.5 82.5t251 -82.5t94 -220.5q0 -113 -73 -184q-23 -22 -77 -47v-20h154v-124h-287v174q68 19 107.5 67.5t39.5 113.5q0 88 -56 139t-153 51t-152.5 -51t-55.5 -139q0 -64 39.5 -113t107.5 -68v-174z
M118 498h-91l-16 227h123z" />
    <glyph glyph-name="iotadieresistonos" unicode="&#x390;" horiz-adv-x="258" 
d="M51 176v267h128v-273q0 -38 6 -50t25 -12q13 0 40 12l6 -115q-48 -14 -83 -14q-73 0 -104 59q-18 35 -18 126zM-38 677q30 0 50.5 -21t20.5 -51t-20.5 -51t-49.5 -21q-30 0 -50.5 21t-20.5 52q0 29 20.5 50t49.5 21zM160 514h-91l-16 211h123zM268 677q29 0 49.5 -21
t20.5 -51t-20.5 -51t-49.5 -21q-30 0 -50.5 21t-20.5 52q0 29 21 50t50 21z" />
    <glyph glyph-name="Alpha" unicode="&#x391;" horiz-adv-x="645" 
d="M509 0l-55 152h-264l-55 -152h-141l256 667h144l256 -667h-141zM232 276h179l-89 244z" />
    <glyph glyph-name="Beta" unicode="&#x392;" horiz-adv-x="533" 
d="M259 0h-191v667h160q111 0 169 -42q34 -25 54.5 -64.5t20.5 -81.5q0 -38 -14.5 -65t-51.5 -58q97 -64 97 -159q0 -90 -75 -149q-63 -48 -169 -48zM196 289v-171h58q122 0 122 85q0 48 -37 69q-26 17 -94 17h-49zM196 552v-159h43q61 0 83 20q26 21 26 61q0 42 -25 60
t-84 18h-43z" />
    <glyph glyph-name="Gamma" unicode="&#x393;" horiz-adv-x="460" 
d="M201 0h-133v667h377v-124h-244v-543z" />
    <glyph glyph-name="uni0394" unicode="&#x394;" horiz-adv-x="639" 
d="M619 97v-97h-599v97l227 570h145zM166 123h307l-153 399z" />
    <glyph glyph-name="Epsilon" unicode="&#x395;" horiz-adv-x="493" 
d="M460 0h-392v667h382v-122h-250v-146h223v-123h-223v-152h260v-124z" />
    <glyph glyph-name="Zeta" unicode="&#x396;" horiz-adv-x="515" 
d="M503 0h-492v96l313 447h-285v124h457v-96l-309 -447h316v-124z" />
    <glyph glyph-name="Eta" unicode="&#x397;" horiz-adv-x="654" 
d="M201 0h-133v667h133v-268h253v268h133v-667h-133v275h-253v-275z" />
    <glyph glyph-name="Theta" unicode="&#x398;" horiz-adv-x="765" 
d="M383 683q145 0 248.5 -102.5t103.5 -246.5t-103.5 -247t-248.5 -103q-148 0 -250.5 103t-102.5 251q0 141 104.5 243t248.5 102zM383 559q-91 0 -155 -65t-64 -158q0 -97 63 -162.5t156 -65.5q91 0 154.5 65.5t63.5 160.5q0 94 -63.5 159.5t-154.5 65.5zM505 289h-245v93
h245v-93z" />
    <glyph glyph-name="Iota" unicode="&#x399;" horiz-adv-x="268" 
d="M201 0h-133v667h133v-667z" />
    <glyph glyph-name="Kappa" unicode="&#x39a;" horiz-adv-x="610" 
d="M201 0h-133v667h133v-260l240 260h171l-262 -281l255 -386h-157l-189 290l-58 -64v-226z" />
    <glyph glyph-name="Lambda" unicode="&#x39b;" horiz-adv-x="598" 
d="M138 0h-141l234 667h140l231 -667h-142l-159 492z" />
    <glyph glyph-name="Mu" unicode="&#x39c;" horiz-adv-x="802" 
d="M201 0h-133v667h124l209 -367l209 367h124v-667h-133v404l-151 -268h-98l-151 268v-404z" />
    <glyph glyph-name="Nu" unicode="&#x39d;" horiz-adv-x="710" 
d="M201 0h-133v667h113l328 -433v433h133v-667h-113l-328 433v-433z" />
    <glyph glyph-name="Xi" unicode="&#x39e;" horiz-adv-x="585" 
d="M544 0h-503v124h503v-124zM510 279h-435v118h435v-118zM544 543h-503v124h503v-124z" />
    <glyph glyph-name="Omicron" unicode="&#x39f;" horiz-adv-x="765" 
d="M383 683q145 0 248.5 -102.5t103.5 -246.5q0 -145 -103 -247.5t-249 -102.5q-148 0 -250.5 103t-102.5 251q0 141 104.5 243t248.5 102zM383 559q-91 0 -155 -65t-64 -158q0 -97 63 -162.5t156 -65.5q91 0 154.5 65.5t63.5 160.5q0 94 -63.5 159.5t-154.5 65.5z" />
    <glyph glyph-name="Pi" unicode="&#x3a0;" horiz-adv-x="674" 
d="M201 0h-133v667h539v-667h-133v543h-273v-543z" />
    <glyph glyph-name="Rho" unicode="&#x3a1;" horiz-adv-x="480" 
d="M227 237h-26v-237h-133v667h159q119 0 177 -54q68 -60 68 -160t-68 -162q-58 -54 -177 -54zM200 545v-187h35q56 0 82 22.5t26 71.5t-26 71t-82 22h-35z" />
    <glyph glyph-name="Sigma" unicode="&#x3a3;" horiz-adv-x="511" 
d="M477 0h-440v69l181 280l-166 246v72h417v-124h-254l131 -174v-31l-140 -214h271v-124z" />
    <glyph glyph-name="Tau" unicode="&#x3a4;" horiz-adv-x="442" 
d="M287 0h-133v543h-160v124h454v-124h-161v-543z" />
    <glyph glyph-name="Upsilon" unicode="&#x3a5;" horiz-adv-x="554" 
d="M344 0h-133v276l-223 391h150l140 -253l140 253h149l-223 -391v-276z" />
    <glyph glyph-name="Phi" unicode="&#x3a6;" horiz-adv-x="882" 
d="M501 -55h-120v96q-129 9 -203 47q-71 36 -109.5 100t-38.5 144q0 88 45.5 155t127.5 101q67 28 178 35v97h120v-97q129 -9 204 -46q71 -37 109.5 -101t38.5 -144q0 -88 -45 -154.5t-128 -101.5q-69 -28 -179 -35v-96zM381 157v350q-81 -7 -120 -27q-94 -47 -94 -148
q0 -52 28 -92.5t79 -61.5q36 -14 107 -21zM501 507v-350q77 7 121 27q94 46 94 148q0 53 -28 93.5t-80 60.5q-31 14 -107 21z" />
    <glyph glyph-name="Chi" unicode="&#x3a7;" horiz-adv-x="584" 
d="M-6 0l222 347l-203 320h152l127 -203l129 203h150l-203 -319l222 -348h-154l-145 230l-145 -230h-152z" />
    <glyph glyph-name="Psi" unicode="&#x3a8;" horiz-adv-x="813" 
d="M472 0h-129v140q-158 7 -228.5 69t-69.5 193v265h133v-248q-2 -81 34.5 -114t130.5 -35v397h129v-397q95 3 130.5 35.5t34.5 113.5v248h133v-265q1 -131 -70 -193t-228 -69v-140z" />
    <glyph glyph-name="uni03A9" unicode="&#x3a9;" horiz-adv-x="767" 
d="M321 0h-286v124h154v20q-150 66 -150 232q0 138 93.5 220t250.5 82q158 0 251.5 -82t93.5 -221q0 -113 -73 -184q-26 -24 -77 -47v-20h154v-124h-287v174q68 19 107 67.5t39 113.5q0 88 -55.5 139t-152.5 51t-152.5 -51t-55.5 -139q0 -65 39.5 -113.5t106.5 -67.5v-174z
" />
    <glyph glyph-name="Iotadieresis" unicode="&#x3aa;" horiz-adv-x="268" 
d="M201 0h-133v667h133v-667zM40 869q29 0 49 -19.5t20 -47.5t-20 -48t-49 -20t-49.5 20t-20.5 49q0 27 20.5 46.5t49.5 19.5zM229 869q29 0 49 -19.5t20 -47.5t-20 -48t-49 -20t-49.5 20t-20.5 48t20.5 47.5t49.5 19.5z" />
    <glyph glyph-name="Upsilondieresis" unicode="&#x3ab;" horiz-adv-x="554" 
d="M344 0h-133v276l-223 391h150l140 -253l140 253h149l-223 -391v-276zM182 869q29 0 49.5 -19.5t20.5 -47.5t-20.5 -48t-49.5 -20t-49 20t-20 49q0 27 20.5 46.5t48.5 19.5zM371 869q29 0 49.5 -19.5t20.5 -47.5t-20.5 -48t-49.5 -20t-49 20t-20 48t20.5 47.5t48.5 19.5z
" />
    <glyph glyph-name="alphatonos" unicode="&#x3ac;" horiz-adv-x="545" 
d="M494 0h-127v37q-52 -53 -125 -53q-92 0 -156 69.5t-64 168.5q0 98 64.5 167.5t155.5 69.5q71 0 125 -53v37h127v-443zM262 344q-50 0 -80.5 -33.5t-30.5 -88.5t30.5 -89t79.5 -34q47 0 77 33.5t30 86.5q0 57 -29 91t-77 34zM316 518h-90l-16 204h122z" />
    <glyph glyph-name="epsilontonos" unicode="&#x3ad;" horiz-adv-x="454" 
d="M264 266h82v-85h-85q-92 0 -92 -44q0 -47 95 -47q39 0 65 10t57 36l66 -89q-51 -35 -97 -49t-111 -14q-103 0 -157 36t-54 105q0 78 69 107q-58 31 -58 95t51.5 98t148.5 34q113 0 199 -59l-67 -88q-48 40 -113 40q-84 0 -84 -46q0 -40 85 -40zM296 518h-90l-16 204h122z
" />
    <glyph glyph-name="etatonos" unicode="&#x3ae;" horiz-adv-x="511" 
d="M179 0h-128v443h128v-30q30 27 52.5 36.5t57.5 9.5q78 0 128 -59q44 -54 44 -159v-474h-128v466q0 61 -16 86t-55 25q-42 0 -65 -26q-18 -24 -18 -93v-225zM302 518h-90l-16 204h122z" />
    <glyph glyph-name="iotatonos" unicode="&#x3af;" horiz-adv-x="258" 
d="M50 176v267h128v-273q0 -38 6 -50t25 -12q13 0 40 12l6 -115q-48 -14 -83 -14q-73 0 -104 59q-18 33 -18 126zM159 518h-90l-16 204h122z" />
    <glyph glyph-name="upsilondieresistonos" unicode="&#x3b0;" horiz-adv-x="507" 
d="M40 194v249h128v-244q0 -58 16 -81q21 -25 59 -25q24 0 40 8.5t23 25t9 32.5t2 40v244h128v-249q0 -105 -38 -150q-52 -61 -164 -61q-121 0 -172 70q-31 44 -31 141zM90 677q30 0 50.5 -21t20.5 -51t-20.5 -51t-49.5 -21q-30 0 -50.5 21t-20.5 52q0 29 20.5 50t49.5 21z
M288 514h-91l-16 211h123zM395 677q30 0 50.5 -21t20.5 -51t-20.5 -51t-49.5 -21q-30 0 -50.5 21t-20.5 52q0 29 20.5 50t49.5 21z" />
    <glyph glyph-name="alpha" unicode="&#x3b1;" horiz-adv-x="545" 
d="M494 0h-128v28q-53 -44 -123 -44q-92 0 -156.5 69t-64.5 169q0 99 64.5 168t156.5 69q68 0 123 -44v28h128v-443zM261 344q-49 0 -79.5 -33.5t-30.5 -88.5t30.5 -89t78.5 -34q47 0 77.5 34t30.5 86q0 56 -29.5 90.5t-77.5 34.5z" />
    <glyph glyph-name="beta" unicode="&#x3b2;" horiz-adv-x="524" 
d="M179 26v-259h-128v698q0 57 8.5 88.5t32.5 61.5q54 68 158 68q88 0 145 -54t57 -137q0 -65 -45 -118q93 -61 93 -170q0 -95 -55.5 -151.5t-148.5 -56.5q-57 0 -117 30zM179 471v-334q6 -5 9 -6q37 -25 81 -25q46 0 74.5 29t28.5 75q0 89 -116 89h-12v113q44 0 63.5 15
t19.5 59q0 40 -19.5 62t-54.5 22q-43 0 -58.5 -27t-15.5 -72z" />
    <glyph glyph-name="gamma" unicode="&#x3b3;" horiz-adv-x="468" 
d="M166 -233v233l-178 443h134l112 -294l111 294h134l-178 -443v-233h-135z" />
    <glyph glyph-name="delta" unicode="&#x3b4;" horiz-adv-x="523" 
d="M403 667v-111h-78q-44 0 -60.5 -5.5t-16.5 -21.5q0 -14 15 -27t87 -57q52 -31 100 -83q50 -58 50 -144q0 -104 -66 -168.5t-173 -64.5t-173 65.5t-66 172.5q0 65 27 115t76 75q29 15 78 22q-2 1 -3.5 2.5l-2.5 2.5l-2 2t-2 1l-24 20q-53 41 -53 95q0 69 70 95
q36 14 142 14h75zM262 341q-48 0 -78 -33t-30 -86t30 -86.5t77 -33.5t77 33.5t30 86.5q0 52 -30 85.5t-76 33.5z" />
    <glyph glyph-name="epsilon" unicode="&#x3b5;" horiz-adv-x="454" 
d="M264 268h82v-88h-85q-92 0 -92 -43q0 -47 95 -47q39 0 65 10t57 37l66 -90q-51 -35 -96.5 -49t-111.5 -14q-103 0 -157 36t-54 105q0 79 69 108q-58 31 -58 94q0 64 51.5 98t148.5 34q111 0 199 -58l-67 -88q-48 40 -113 40q-84 0 -84 -45q0 -40 85 -40z" />
    <glyph glyph-name="zeta" unicode="&#x3b6;" horiz-adv-x="377" 
d="M214 555h-167v112h320v-74q-113 -174 -154.5 -259t-41.5 -141q0 -43 19 -65t67 -33q50 -12 64.5 -18t28.5 -22q30 -31 30 -79q0 -50 -26.5 -91t-94.5 -96l-72 77q42 30 57 48.5t15 40.5q0 23 -16 31q-10 5 -49 12q-86 14 -122.5 54.5t-36.5 122.5q0 70 34 142t145 238z
" />
    <glyph glyph-name="eta" unicode="&#x3b7;" horiz-adv-x="511" 
d="M179 0h-128v443h128v-22q45 38 110 38q78 0 128 -59q44 -54 44 -159v-474h-128v466q0 61 -16 86t-55 25q-42 0 -65 -26q-18 -24 -18 -93v-225z" />
    <glyph glyph-name="theta" unicode="&#x3b8;" horiz-adv-x="533" 
d="M266 683q67 0 117 -32t77 -85t40 -111.5t13 -121.5q0 -62 -13 -120.5t-40 -111.5t-77 -85t-116 -32q-68 0 -118.5 32.5t-77 86t-39 112t-12.5 122.5q0 61 13 119t40.5 110.5t77 84.5t115.5 32zM384 281h-236q15 -182 118 -182q106 0 118 182zM148 389h237
q-15 179 -119 179q-32 0 -55.5 -17t-36 -46t-18.5 -57t-8 -59z" />
    <glyph glyph-name="iota" unicode="&#x3b9;" horiz-adv-x="258" 
d="M51 176v267h128v-273q0 -38 6 -50t25 -12q13 0 40 12l6 -115q-48 -14 -83 -14q-73 0 -104 59q-18 33 -18 126z" />
    <glyph glyph-name="kappa" unicode="&#x3ba;" horiz-adv-x="495" 
d="M179 0h-128v443h128v-160l154 160h158l-191 -181l206 -262h-150l-140 183l-37 -37v-146z" />
    <glyph glyph-name="lambda" unicode="&#x3bb;" horiz-adv-x="461" 
d="M-8 0l166 437l-94 230h136l274 -667h-137l-113 274l-89 -274h-143z" />
    <glyph glyph-name="uni03BC" unicode="&#x3bc;" horiz-adv-x="511" 
d="M51 -233v676h128v-234q0 -61 16 -85.5t55 -24.5q42 0 65 26q18 24 18 93v225h128v-443h-128v22q-23 -22 -44 -30t-53 -8q-20 0 -27 2.5t-30 16.5v-236h-128z" />
    <glyph glyph-name="nu" unicode="&#x3bd;" horiz-adv-x="468" 
d="M292 0h-116l-188 443h134l112 -269l112 269h134z" />
    <glyph glyph-name="xi" unicode="&#x3be;" horiz-adv-x="389" 
d="M167 555h-116v112h321v-92q-166 -27 -166 -112q0 -84 133 -84h28v-92h-59q-30 0 -50.5 -3t-42 -11.5t-32.5 -28.5t-11 -51q0 -54 39 -79q15 -10 86 -27q90 -21 90 -112q0 -50 -27 -91.5t-94 -94.5l-72 77q43 30 58 48.5t15 40.5q0 23 -17 32q-12 5 -51 11
q-85 14 -123.5 53t-38.5 123q0 118 104 176q-35 22 -48 42.5t-13 54.5q0 38 19 61.5t68 46.5z" />
    <glyph glyph-name="omicron" unicode="&#x3bf;" horiz-adv-x="522" 
d="M261 459q101 0 170 -68.5t69 -168.5t-69 -169t-169 -69q-103 0 -171.5 68.5t-68.5 171.5q0 98 69.5 166.5t169.5 68.5zM261 344q-49 0 -79.5 -34t-30.5 -87q0 -56 30.5 -90t79.5 -34t79.5 34t30.5 89q0 54 -30.5 88t-79.5 34z" />
    <glyph glyph-name="pi" unicode="&#x3c0;" horiz-adv-x="533" 
d="M210 0h-129v331h-64v112h499v-112h-64v-331h-129v331h-113v-331z" />
    <glyph glyph-name="rho" unicode="&#x3c1;" horiz-adv-x="533" 
d="M167 28v-251h-128v391q0 136 53 213t184 77q111 0 173.5 -63.5t62.5 -175.5q0 -105 -51.5 -170t-153.5 -65q-78 0 -140 44zM280 343q-49 0 -79.5 -33t-30.5 -86q0 -56 30 -89t80 -33q47 0 75 32.5t28 87.5q0 56 -28 88.5t-75 32.5z" />
    <glyph glyph-name="uni03C2" unicode="&#x3c2;" horiz-adv-x="452" 
d="M440 383l-77 -88q-48 49 -100 49q-51 0 -81.5 -34.5t-30.5 -92.5q0 -53 24 -79.5t85 -39.5q34 -8 52.5 -14.5t40 -19.5t31 -34.5t9.5 -53.5q0 -50 -27 -91.5t-95 -95.5l-72 77q43 30 58 48t15 41q0 24 -18 32q-9 5 -52 12q-54 9 -83 21.5t-52 35.5q-45 48 -45 148
q0 113 67.5 184t173.5 71q51 0 92 -17.5t85 -58.5z" />
    <glyph glyph-name="sigma" unicode="&#x3c3;" horiz-adv-x="533" 
d="M300 443h238v-111h-80l5 -9q19 -31 25.5 -53t6.5 -55q0 -103 -66 -167t-172 -64q-104 0 -169.5 65.5t-65.5 169.5q0 62 26 112.5t73 79.5q32 20 66.5 26t112.5 6zM323 332h-35q-67 0 -99 -25t-32 -91q0 -55 27 -86t74 -31q51 0 78.5 31.5t27.5 90.5q0 36 -7.5 56.5
t-33.5 54.5z" />
    <glyph glyph-name="tau" unicode="&#x3c4;" horiz-adv-x="385" 
d="M125 176v156h-115v111h364v-111h-121v-162q0 -38 6 -50t25 -12q13 0 40 12l6 -115q-48 -14 -83 -14q-73 0 -104 59q-18 35 -18 126z" />
    <glyph glyph-name="upsilon" unicode="&#x3c5;" horiz-adv-x="507" 
d="M51 194v249h128v-244q0 -58 16 -81q21 -25 59 -25q24 0 40 8.5t23 25t9 32.5t2 40v244h128v-249q0 -105 -38 -150q-54 -61 -162 -61q-124 0 -174 70q-31 42 -31 141z" />
    <glyph glyph-name="phi" unicode="&#x3c6;" horiz-adv-x="661" 
d="M391 -12v-221h-124v221q-116 9 -180.5 69t-64.5 159q0 142 137 200l52 -77q-2 -2 -6 -5t-6 -5q-28 -25 -38.5 -47t-10.5 -56q0 -55 31.5 -89.5t85.5 -39.5v351q38 6 77 6q144 0 219 -59.5t75 -174.5q0 -105 -64 -165t-183 -67zM391 345v-248q57 3 88 35t31 88
q0 57 -31.5 90t-87.5 35z" />
    <glyph glyph-name="chi" unicode="&#x3c7;" horiz-adv-x="496" 
d="M-8 0l178 229l-166 214h155l88 -117l89 117h153l-165 -214l177 -229h-154l-100 131l-101 -131h-154z" />
    <glyph glyph-name="psi" unicode="&#x3c8;" horiz-adv-x="707" 
d="M56 238v205h131v-217q-2 -71 18 -96.5t77 -25.5h14v339h125v-339h14q58 0 78 25.5t18 96.5v217h131v-205q4 -133 -49 -189t-181 -56l-11 -1v-225h-125v225l-11 1q-127 0 -180 56.5t-49 188.5z" />
    <glyph glyph-name="omega" unicode="&#x3c9;" horiz-adv-x="681" 
d="M284 231v82h113v-82q0 -63 9 -89q13 -40 50 -40q32 0 52 32.5t20 85.5q0 57 -18 101t-62 93l107 44q104 -101 104 -253q0 -100 -50.5 -160t-135.5 -60q-94 0 -132 68q-40 -68 -132 -68q-85 0 -136 59.5t-51 160.5q0 152 104 253l107 -44q-44 -49 -62 -93t-18 -101
q0 -53 20 -85.5t52 -32.5q39 0 52 45q7 30 7 84z" />
    <glyph glyph-name="iotadieresis" unicode="&#x3ca;" horiz-adv-x="258" 
d="M50 176v267h128v-273q0 -38 6 -50t25 -12q13 0 40 12l6 -115q-48 -14 -83 -14q-73 0 -104 59q-18 35 -18 126zM35 667q31 0 52 -21t21 -51q0 -29 -21.5 -50t-51.5 -21q-31 0 -52 21t-21 51q0 29 21.5 50t51.5 21zM222 667q30 0 51.5 -21t21.5 -50q0 -30 -21.5 -51
t-51.5 -21q-31 0 -52 21t-21 51q0 29 21.5 50t51.5 21z" />
    <glyph glyph-name="upsilondieresis" unicode="&#x3cb;" horiz-adv-x="507" 
d="M51 194v249h128v-244q0 -58 16 -81q21 -25 59 -25q24 0 40 8.5t23 25t9 32.5t2 40v244h128v-249q0 -105 -38 -150q-54 -61 -162 -61q-124 0 -174 70q-31 42 -31 141zM160 667q30 0 51.5 -21t21.5 -51q0 -29 -21.5 -50t-51.5 -21q-31 0 -52 21t-21 51q0 29 21.5 50
t51.5 21zM347 667q31 0 52 -21t21 -50q0 -30 -21.5 -51t-51.5 -21q-31 0 -52 21t-21 51q0 29 21.5 50t51.5 21z" />
    <glyph glyph-name="omicrontonos" unicode="&#x3cc;" horiz-adv-x="522" 
d="M261 459q101 0 170 -68.5t69 -168.5t-69 -169t-169 -69q-103 0 -171.5 68.5t-68.5 171.5q0 98 69.5 166.5t169.5 68.5zM261 344q-49 0 -79.5 -34t-30.5 -87q0 -56 30.5 -90t79.5 -34t79.5 34t30.5 89q0 54 -30.5 88t-79.5 34zM306 518h-90l-16 204h122z" />
    <glyph glyph-name="upsilontonos" unicode="&#x3cd;" horiz-adv-x="507" 
d="M51 194v249h128v-244q0 -58 16 -81q21 -25 59 -25q24 0 40 8.5t23 25t9 32.5t2 40v244h128v-249q0 -105 -38 -150q-54 -61 -162 -61q-124 0 -174 70q-31 42 -31 141zM299 518h-90l-16 204h122z" />
    <glyph glyph-name="omegatonos" unicode="&#x3ce;" horiz-adv-x="681" 
d="M284 231v82h113v-82q0 -63 9 -89q13 -40 50 -40q32 0 52 32.5t20 85.5q0 57 -18 101t-62 93l107 44q104 -101 104 -253q0 -93 -47.5 -156.5t-137.5 -63.5q-94 0 -133 74q-40 -74 -134 -74q-90 0 -137.5 63.5t-47.5 156.5q0 152 104 253l107 -44q-44 -49 -62 -93t-18 -101
q0 -53 20 -85.5t52 -32.5q39 0 52 45q7 30 7 84zM385 518h-90l-15 204h121z" />
    <glyph glyph-name="theta1" unicode="&#x3d1;" horiz-adv-x="533" 
d="M266 683q67 0 117 -32t77 -85t40 -111.5t13 -121.5q0 -62 -13 -120.5t-40 -111.5t-77 -85t-116 -32q-68 0 -118.5 32.5t-77 86t-39 112t-12.5 122.5q0 61 13 119t40.5 110.5t77 84.5t115.5 32zM384 281h-236q15 -182 118 -182q106 0 118 182zM148 389h237
q-15 179 -119 179q-32 0 -55.5 -17t-36 -46t-18.5 -57t-8 -59z" />
    <glyph glyph-name="phi1" unicode="&#x3d5;" horiz-adv-x="661" 
d="M391 -12v-221h-124v221q-116 9 -180.5 69t-64.5 159q0 142 137 200l52 -77q-2 -2 -6 -5t-6 -5q-28 -25 -38.5 -47t-10.5 -56q0 -55 31.5 -89.5t85.5 -39.5v351q38 6 77 6q144 0 219 -59.5t75 -174.5q0 -105 -64 -165t-183 -67zM391 345v-248q57 3 88 35t31 88
q0 57 -31.5 90t-87.5 35z" />
    <glyph glyph-name="uni0400" unicode="&#x400;" horiz-adv-x="489" 
d="M67 667h382v-123h-249v-145h221v-123h-221v-152h258v-124h-391v667zM266 692l-163 157l119 62l130 -172z" />
    <glyph glyph-name="afii10023" unicode="&#x401;" horiz-adv-x="493" 
d="M460 0h-392v667h382v-122h-250v-146h223v-123h-223v-152h260v-124zM174 869q29 0 49 -20t20 -48t-20 -47.5t-49 -19.5t-49.5 20t-20.5 49q0 27 20.5 46.5t49.5 19.5zM363 869q29 0 49 -19.5t20 -47.5t-20 -48t-49 -20t-49.5 20t-20.5 49q0 27 20.5 46.5t49.5 19.5z" />
    <glyph glyph-name="afii10051" unicode="&#x402;" horiz-adv-x="617" 
d="M262 0h-135v543h-120v124h431v-124h-176v-169q47 46 121 46q83 0 136 -59q47 -53 47 -160v-434h-128v427q0 55 -16 83t-66 28q-55 0 -74.5 -28t-19.5 -85v-192z" />
    <glyph glyph-name="afii10052" unicode="&#x403;" horiz-adv-x="460" 
d="M201 0h-133v667h377v-124h-244v-543zM302 911l119 -58l-163 -149l-85 44z" />
    <glyph glyph-name="afii10053" unicode="&#x404;" horiz-adv-x="670" 
d="M174 396h302v-117h-304q23 -73 51 -103q63 -68 154 -68q95 0 177 89l95 -88q-64 -66 -129 -95.5t-147 -29.5q-149 0 -246 99t-97 249q0 151 98.5 251t247.5 100q79 0 141.5 -28.5t128.5 -95.5l-96 -88q-78 88 -174 88q-153 0 -202 -163z" />
    <glyph glyph-name="afii10054" unicode="&#x405;" horiz-adv-x="525" 
d="M483 551l-109 -69q-30 46 -51 61.5t-52 15.5q-35 0 -58.5 -21.5t-23.5 -53.5q0 -41 72 -68l62 -23q166 -63 166 -191q0 -92 -66.5 -155t-164.5 -63q-54 0 -101.5 21.5t-76.5 58.5q-35 46 -53 125l130 35q7 -27 12.5 -43t16.5 -35t29.5 -28.5t43.5 -9.5q40 0 68 27t28 65
q0 26 -20.5 44t-69.5 37l-58 22q-151 58 -151 182q0 85 62.5 141.5t155.5 56.5q68 0 116.5 -30.5t92.5 -101.5z" />
    <glyph glyph-name="afii10055" unicode="&#x406;" horiz-adv-x="268" 
d="M68 667h133v-667h-133v667z" />
    <glyph glyph-name="afii10056" unicode="&#x407;" horiz-adv-x="268" 
d="M68 667h133v-667h-133v667zM40 869q29 0 49 -19.5t20 -47.5t-20 -48t-49 -20t-49.5 20t-20.5 49q0 27 20.5 46.5t49.5 19.5zM229 869q29 0 49 -19.5t20 -47.5t-20 -48t-49 -20t-49.5 20t-20.5 48t20.5 47.5t49.5 19.5z" />
    <glyph glyph-name="afii10057" unicode="&#x408;" horiz-adv-x="427" 
d="M226 667h133v-459q0 -87 -29 -140q-22 -40 -63.5 -62t-92.5 -22q-97 0 -184 91l81 96q55 -62 99 -62q56 0 56 99v459z" />
    <glyph glyph-name="afii10058" unicode="&#x409;" horiz-adv-x="864" 
d="M615 0h-207v543h-152q-12 -246 -32 -342q-41 -202 -191 -202q-15 0 -41 1v125q11 -2 21 -2q41 0 62.5 36.5t33.5 125.5q18 135 26 382h406v-252h92q103 0 156.5 -51.5t53.5 -150.5q0 -107 -60.5 -160t-167.5 -53zM541 304v-190h53q58 0 88.5 20.5t30.5 74.5t-31 74.5
t-88 20.5h-53z" />
    <glyph glyph-name="afii10059" unicode="&#x40a;" horiz-adv-x="909" 
d="M661 0h-207v283h-253v-283h-133v667h133v-260h253v260h133v-252h92q101 0 155 -51t54 -151q0 -107 -60 -160t-167 -53zM587 304v-190h53q58 0 88 20t30 75q0 54 -30.5 74.5t-87.5 20.5h-53z" />
    <glyph glyph-name="afii10060" unicode="&#x40b;" horiz-adv-x="617" 
d="M262 0h-135v543h-120v124h431v-124h-176v-169q47 46 120 46q84 0 137 -59q47 -53 47 -160v-201h-128v194q0 55 -16 83t-66 28q-55 0 -74.5 -28t-19.5 -85v-192z" />
    <glyph glyph-name="afii10061" unicode="&#x40c;" horiz-adv-x="606" 
d="M201 0h-133v667h133v-260l240 260h171l-262 -281l255 -386h-157l-189 290l-58 -64v-226zM371 911l119 -58l-162 -149l-86 44z" />
    <glyph glyph-name="uni040D" unicode="&#x40d;" horiz-adv-x="649" 
d="M179 0h-111v667h128v-436l276 436h110v-667h-127v434zM323 704l-162 149l119 58l129 -163z" />
    <glyph glyph-name="afii10062" unicode="&#x40e;" horiz-adv-x="565" 
d="M77 0l139 247l-215 420h155l131 -286l133 286h155l-357 -667h-141zM118 873l110 8q2 -43 13.5 -57t45.5 -14t45 13.5t13 57.5l110 -8q-3 -63 -25 -97q-45 -67 -144 -67q-107 0 -148 77q-19 32 -20 87z" />
    <glyph glyph-name="afii10145" unicode="&#x40f;" horiz-adv-x="646" 
d="M264 0h-196v667h133v-543h244v543h133v-667h-195v-128h-119v128z" />
    <glyph glyph-name="afii10017" unicode="&#x410;" horiz-adv-x="645" 
d="M509 0l-55 152h-264l-55 -152h-141l256 667h144l256 -667h-141zM232 276h179l-89 244z" />
    <glyph glyph-name="afii10018" unicode="&#x411;" horiz-adv-x="532" 
d="M272 0h-204v667h389v-124h-261v-139h93q105 0 159 -50t54 -146q0 -106 -61.5 -157t-168.5 -51zM196 294v-180h54q57 0 89.5 18.5t32.5 71.5t-32.5 71.5t-89.5 18.5h-54z" />
    <glyph glyph-name="afii10019" unicode="&#x412;" horiz-adv-x="533" 
d="M259 0h-191v667h160q111 0 169 -42q34 -25 54.5 -64.5t20.5 -81.5q0 -39 -14.5 -66t-52.5 -57q98 -64 98 -159q0 -90 -75 -149q-63 -48 -169 -48zM196 289v-171h58q122 0 122 85q0 48 -37 69q-26 17 -94 17h-49zM196 552v-159h43q61 0 83 20q26 21 26 61q0 41 -25.5 59.5
t-83.5 18.5h-43z" />
    <glyph glyph-name="afii10020" unicode="&#x413;" horiz-adv-x="460" 
d="M201 0h-133v667h377v-124h-244v-543z" />
    <glyph glyph-name="afii10021" unicode="&#x414;" horiz-adv-x="662" 
d="M526 -128v128h-421v-128h-120v252h33q51 2 74.5 36.5t34.5 119.5q21 172 29 387h430v-543h59v-252h-119zM195 124h258v419h-176q-2 -125 -20 -266q-7 -59 -18.5 -87t-43.5 -66z" />
    <glyph glyph-name="afii10022" unicode="&#x415;" horiz-adv-x="493" 
d="M460 0h-392v667h382v-122h-250v-146h223v-123h-223v-152h260v-124z" />
    <glyph glyph-name="afii10024" unicode="&#x416;" horiz-adv-x="901" 
d="M516 0h-131v284h-29l-199 -284h-160l248 343l-227 324h149l184 -269h34v269h131v-269h34l183 269h150l-228 -324l249 -343h-160l-199 284h-29v-284z" />
    <glyph glyph-name="afii10025" unicode="&#x417;" horiz-adv-x="586" 
d="M241 289h-57v110h57q83 0 113 11q55 20 55 67q0 38 -35.5 60t-97.5 22q-57 0 -100.5 -20t-87.5 -66l-93 98q67 61 133 86.5t157 25.5q124 0 192.5 -48.5t68.5 -136.5q0 -103 -103 -147q60 -27 86.5 -66.5t26.5 -101.5q0 -97 -72 -148t-208 -51q-90 0 -156.5 25.5
t-128.5 84.5l92 103q46 -50 88 -69.5t102 -19.5q145 0 145 91q0 47 -42.5 68.5t-134.5 21.5z" />
    <glyph glyph-name="afii10026" unicode="&#x418;" horiz-adv-x="649" 
d="M179 0h-111v667h128v-436l276 436h110v-667h-127v434z" />
    <glyph glyph-name="afii10027" unicode="&#x419;" horiz-adv-x="649" 
d="M179 0h-111v667h128v-436l276 436h110v-667h-127v434zM157 873l110 8q1 -43 12.5 -57t45.5 -14q35 0 46 13.5t12 57.5l110 -8q-3 -63 -25 -97q-44 -67 -143 -67q-80 0 -123.5 42.5t-44.5 121.5z" />
    <glyph glyph-name="afii10028" unicode="&#x41a;" horiz-adv-x="606" 
d="M201 0h-133v667h133v-260l240 260h171l-262 -281l255 -386h-157l-189 290l-58 -64v-226z" />
    <glyph glyph-name="afii10029" unicode="&#x41b;" horiz-adv-x="608" 
d="M135 667h406v-667h-133v543h-152l-1 -18q-13 -266 -40 -362q-46 -164 -182 -164q-15 0 -41 1v125q11 -2 21 -2q41 0 62.5 36.5t33.5 125.5q18 137 26 382z" />
    <glyph glyph-name="afii10030" unicode="&#x41c;" horiz-adv-x="802" 
d="M201 0h-133v667h124l209 -367l209 367h124v-667h-133v404l-151 -268h-98l-151 268v-404z" />
    <glyph glyph-name="afii10031" unicode="&#x41d;" horiz-adv-x="654" 
d="M201 0h-133v667h133v-268h253v268h133v-667h-133v275h-253v-275z" />
    <glyph glyph-name="afii10032" unicode="&#x41e;" horiz-adv-x="765" 
d="M383 683q145 0 248.5 -102.5t103.5 -246.5q0 -145 -103 -247.5t-249 -102.5q-148 0 -250.5 103t-102.5 251q0 141 104.5 243t248.5 102zM383 559q-91 0 -155 -65t-64 -158q0 -97 63 -162.5t156 -65.5q91 0 154.5 65.5t63.5 160.5q0 94 -63.5 159.5t-154.5 65.5z" />
    <glyph glyph-name="afii10033" unicode="&#x41f;" horiz-adv-x="674" 
d="M201 0h-133v667h539v-667h-133v543h-273v-543z" />
    <glyph glyph-name="afii10034" unicode="&#x420;" horiz-adv-x="480" 
d="M227 237h-26v-237h-133v667h159q119 0 177 -54q68 -60 68 -160t-68 -162q-58 -54 -177 -54zM200 545v-187h35q56 0 82 22.5t26 71.5t-26 71t-82 22h-35z" />
    <glyph glyph-name="afii10035" unicode="&#x421;" horiz-adv-x="670" 
d="M646 559l-96 -88q-76 88 -169 88q-91 0 -154 -65.5t-63 -160.5q0 -93 63.5 -159t154.5 -66q93 0 172 89l95 -88q-119 -125 -266 -125q-146 0 -249.5 102.5t-103.5 246.5q0 145 104 247.5t250 102.5q142 0 262 -124z" />
    <glyph glyph-name="afii10036" unicode="&#x422;" horiz-adv-x="442" 
d="M287 0h-133v543h-160v124h454v-124h-161v-543z" />
    <glyph glyph-name="afii10037" unicode="&#x423;" horiz-adv-x="565" 
d="M77 0l139 247l-215 420h155l131 -286l133 286h155l-357 -667h-141z" />
    <glyph glyph-name="afii10038" unicode="&#x424;" horiz-adv-x="882" 
d="M501 -55h-120v96q-129 9 -203 47q-71 36 -109.5 100t-38.5 144q0 88 45.5 155t127.5 101q67 28 178 35v97h120v-97q129 -9 204 -46q71 -37 109.5 -101t38.5 -144q0 -88 -45 -154.5t-128 -101.5q-69 -28 -179 -35v-96zM381 157v350q-81 -7 -120 -27q-94 -47 -94 -148
q0 -52 28 -92.5t79 -61.5q36 -14 107 -21zM501 507v-350q77 7 121 27q94 46 94 148q0 53 -28 93.5t-80 60.5q-31 14 -107 21z" />
    <glyph glyph-name="afii10039" unicode="&#x425;" horiz-adv-x="584" 
d="M-6 0l222 347l-203 320h152l127 -203l129 203h150l-203 -319l222 -348h-154l-145 230l-145 -230h-152z" />
    <glyph glyph-name="afii10040" unicode="&#x426;" horiz-adv-x="653" 
d="M518 0h-450v667h133v-543h244v543h133v-543h59v-252h-119v128z" />
    <glyph glyph-name="afii10041" unicode="&#x427;" horiz-adv-x="613" 
d="M546 0h-133v208q-81 -16 -132 -16q-145 0 -201 94q-33 54 -33 173v208h133v-196q0 -50 5 -74t19 -42q31 -39 104 -39q50 0 105 15v336h133v-667z" />
    <glyph glyph-name="afii10042" unicode="&#x428;" horiz-adv-x="928" 
d="M861 0h-793v667h133v-544h197v544h133v-544h197v544h133v-667z" />
    <glyph glyph-name="afii10043" unicode="&#x429;" horiz-adv-x="935" 
d="M801 0h-733v667h133v-543h197v543h133v-543h197v543h133v-543h59v-252h-119v128z" />
    <glyph glyph-name="afii10044" unicode="&#x42a;" horiz-adv-x="625" 
d="M377 0h-207v543h-166v124h299v-252h92q103 0 156.5 -51.5t53.5 -150.5q0 -107 -60.5 -160t-167.5 -53zM303 305v-191h53q57 0 88 20.5t31 74.5q0 55 -31 75.5t-88 20.5h-53z" />
    <glyph glyph-name="afii10045" unicode="&#x42b;" horiz-adv-x="783" 
d="M275 0h-207v667h133v-252h92q103 0 156.5 -51.5t53.5 -150.5q0 -107 -60.5 -160t-167.5 -53zM201 305v-191h53q57 0 88 20.5t31 74.5q0 55 -31 75.5t-88 20.5h-53zM716 0h-133v667h133v-667z" />
    <glyph glyph-name="afii10046" unicode="&#x42c;" horiz-adv-x="524" 
d="M275 0h-207v667h133v-252h92q103 0 156.5 -51.5t53.5 -150.5q0 -107 -60.5 -160t-167.5 -53zM201 305v-191h53q57 0 88 20.5t31 74.5q0 55 -31 75.5t-88 20.5h-53z" />
    <glyph glyph-name="afii10047" unicode="&#x42d;" horiz-adv-x="670" 
d="M498 279h-304v117h302q-49 163 -202 163q-97 0 -174 -88l-96 88q65 67 127.5 95.5t142.5 28.5q149 0 247.5 -100t98.5 -251q0 -146 -96 -247q-93 -101 -248 -101q-82 0 -147 29.5t-128 95.5l95 88q80 -89 177 -89q101 0 162 78q23 29 43 93z" />
    <glyph glyph-name="afii10048" unicode="&#x42e;" horiz-adv-x="1033" 
d="M201 0h-133v667h133v-268h126q27 128 119 206t216 78q141 0 241.5 -102.5t100.5 -247.5q0 -144 -100.5 -246.5t-241.5 -102.5q-85 0 -161 41.5t-124 114.5q-34 51 -51 136h-125v-276zM663 559q-87 0 -148 -65.5t-61 -157.5q0 -97 60 -162.5t149 -65.5q87 0 147.5 65.5
t60.5 159.5q0 95 -60.5 160.5t-147.5 65.5z" />
    <glyph glyph-name="afii10049" unicode="&#x42f;" horiz-adv-x="553" 
d="M353 0v237h-26q-29 0 -41 2l-131 -239h-150l155 277q-98 67 -98 178q0 55 22.5 102t62.5 73q56 37 166 37h173v-667h-133zM319 358h35v187h-35q-124 0 -124 -96q0 -47 30 -69t94 -22z" />
    <glyph glyph-name="afii10065" unicode="&#x430;" horiz-adv-x="545" 
d="M494 0h-128v28q-53 -44 -123 -44q-92 0 -156.5 69t-64.5 169q0 99 64.5 168t156.5 69q68 0 123 -44v28h128v-443zM261 344q-49 0 -79.5 -33.5t-30.5 -88.5t30.5 -89t78.5 -34q47 0 77.5 34t30.5 86q0 56 -29.5 90.5t-77.5 34.5z" />
    <glyph glyph-name="afii10066" unicode="&#x431;" horiz-adv-x="530" 
d="M440 694l14 -107q-25 -16 -50 -21t-87 -7q-96 -1 -124 -28.5t-35 -128.5q54 55 137 55q94 0 153.5 -64t59.5 -165q0 -108 -68.5 -175t-178.5 -67q-120 0 -178 76t-58 234q0 110 20 193.5t55 121.5q37 39 106 48q29 5 116 10q87 4 118 25zM270 344q-50 0 -81 -34.5
t-31 -90.5q0 -54 29.5 -87.5t77.5 -33.5t79.5 36.5t31.5 91.5q0 52 -30 85t-76 33z" />
    <glyph glyph-name="afii10067" unicode="&#x432;" horiz-adv-x="473" 
d="M279 0h-228v443h224q35 0 60.5 -4t50.5 -15.5t38 -35.5t13 -60q0 -66 -61 -95q77 -22 77 -105q0 -128 -174 -128zM179 348v-79h64q67 0 67 41q0 38 -62 38h-69zM179 184v-88h74q39 0 56.5 10.5t17.5 34.5q0 43 -76 43h-72z" />
    <glyph glyph-name="afii10068" unicode="&#x433;" horiz-adv-x="390" 
d="M179 0h-128v443h325v-111h-197v-332z" />
    <glyph glyph-name="afii10069" unicode="&#x434;" horiz-adv-x="519" 
d="M389 -123v123h-278v-123h-119v234h14q54 4 77.5 78t28.5 254h350v-332h46v-234h-119zM163 111h171v225h-108q-3 -95 -16.5 -143t-46.5 -82z" />
    <glyph glyph-name="afii10070" unicode="&#x435;" horiz-adv-x="495" 
d="M471 182h-318q11 -36 21 -52q27 -35 77 -35q54 0 88 44l117 -44q-76 -111 -203 -111q-100 0 -165.5 67t-65.5 170q0 101 65.5 169.5t162.5 68.5t160 -68.5t63 -173.5q0 -18 -2 -35zM153 268h193q-11 43 -33.5 62t-62.5 19q-79 0 -97 -81z" />
    <glyph glyph-name="afii10072" unicode="&#x436;" horiz-adv-x="678" 
d="M400 0h-123v183h-17l-128 -183h-142l165 229l-149 214h137l115 -177h19v177h123v-177h19l115 177h137l-149 -214l165 -229h-142l-128 183h-17v-183z" />
    <glyph glyph-name="afii10073" unicode="&#x437;" horiz-adv-x="454" 
d="M193 181h-85v85h82q85 0 85 40q0 46 -84 46q-65 0 -113 -40l-67 88q86 59 199 59q97 0 148.5 -34.5t51.5 -99.5q0 -64 -50 -95q60 -29 60 -104q0 -70 -53.5 -106t-157.5 -36q-65 0 -110.5 14t-96.5 49l65 89q32 -26 58 -36t65 -10q94 0 94 47q0 44 -91 44z" />
    <glyph glyph-name="afii10074" unicode="&#x438;" horiz-adv-x="508" 
d="M176 0h-125v443h125v-264l155 264h126v-443h-125v262z" />
    <glyph glyph-name="afii10075" unicode="&#x439;" horiz-adv-x="508" 
d="M176 0h-125v443h125v-264l155 264h126v-443h-125v262zM89 662l110 8q1 -42 12 -56t43 -14t43 13.5t13 56.5l110 -8q-3 -61 -25 -96q-44 -67 -141 -67q-78 0 -121 42t-44 121z" />
    <glyph glyph-name="afii10076" unicode="&#x43a;" horiz-adv-x="495" 
d="M179 0h-128v443h128v-160l154 160h158l-191 -181l206 -262h-150l-140 183l-37 -37v-146z" />
    <glyph glyph-name="afii10077" unicode="&#x43b;" horiz-adv-x="484" 
d="M433 0h-128v332h-97l-1 -19q-5 -97 -10 -136t-15 -71q-16 -51 -55.5 -79t-96.5 -28q-10 0 -33 1v117l5 -1q7 -1 16 -1q26 0 40.5 28t20.5 90q9 107 10 210h344v-443z" />
    <glyph glyph-name="afii10078" unicode="&#x43c;" horiz-adv-x="596" 
d="M163 0h-112v443h124l124 -223l123 223h124v-443h-112v262l-99 -182h-78l-94 182v-262z" />
    <glyph glyph-name="afii10079" unicode="&#x43d;" horiz-adv-x="500" 
d="M179 0h-128v443h128v-160h142v160h128v-443h-128v176h-142v-176z" />
    <glyph glyph-name="afii10080" unicode="&#x43e;" horiz-adv-x="522" 
d="M261 459q101 0 170 -68.5t69 -168.5t-69 -169t-169 -69q-103 0 -171.5 68.5t-68.5 171.5q0 98 69.5 166.5t169.5 68.5zM261 344q-49 0 -79.5 -34t-30.5 -87q0 -56 30.5 -90t79.5 -34t79.5 34t30.5 89q0 54 -30.5 88t-79.5 34z" />
    <glyph glyph-name="afii10081" unicode="&#x43f;" horiz-adv-x="501" 
d="M179 0h-128v443h400v-443h-128v332h-144v-332z" />
    <glyph glyph-name="afii10082" unicode="&#x440;" horiz-adv-x="545" 
d="M179 28v-261h-128v676h128v-28q61 44 123 44q92 0 157 -69t65 -168q0 -100 -65 -169t-159 -69q-36 0 -61.5 9.5t-59.5 34.5zM285 344q-48 0 -78 -34t-30 -87q0 -56 29.5 -90t78.5 -34t79.5 34t30.5 89q0 54 -30.5 88t-79.5 34z" />
    <glyph glyph-name="afii10083" unicode="&#x441;" horiz-adv-x="452" 
d="M440 383l-77 -88q-48 49 -100 49q-51 0 -81.5 -33.5t-30.5 -89.5q0 -55 31 -88.5t82 -33.5q55 0 102 52l77 -88q-44 -43 -85.5 -61t-93.5 -18q-103 0 -172.5 68.5t-69.5 169.5q0 100 69.5 168.5t171.5 68.5q95 0 177 -76z" />
    <glyph glyph-name="afii10084" unicode="&#x442;" horiz-adv-x="384" 
d="M258 0h-131v332h-117v111h365v-111h-117v-332z" />
    <glyph glyph-name="afii10085" unicode="&#x443;" horiz-adv-x="464" 
d="M41 -233l113 254l-166 422h134l102 -266l118 266h134l-302 -676h-133z" />
    <glyph glyph-name="afii10086" unicode="&#x444;" horiz-adv-x="735" 
d="M425 -223h-116v238q-31 -19 -49.5 -25t-47.5 -6q-84 0 -137 66t-53 171q0 106 53 172t137 66q29 0 47.5 -6t49.5 -26v240h116v-240q32 20 50 26t46 6q85 0 138 -66t53 -172q0 -105 -53 -171t-138 -66q-29 0 -47.5 6t-48.5 25v-238zM309 135v172q-34 37 -70 37
q-40 0 -64.5 -34t-24.5 -89t24.5 -88.5t64.5 -33.5q21 0 35 7.5t35 28.5zM425 307v-172q22 -22 35.5 -29t34.5 -7q40 0 64.5 33.5t24.5 88.5t-24.5 89t-64.5 34q-20 0 -34 -7.5t-36 -29.5z" />
    <glyph glyph-name="afii10087" unicode="&#x445;" horiz-adv-x="496" 
d="M-7 0l178 229l-166 214h155l88 -117l89 117h153l-165 -214l177 -229h-154l-100 131l-101 -131h-154z" />
    <glyph glyph-name="afii10088" unicode="&#x446;" horiz-adv-x="500" 
d="M370 0h-319v443h128v-332h136v332h128v-332h46v-234h-119v123z" />
    <glyph glyph-name="afii10089" unicode="&#x447;" horiz-adv-x="482" 
d="M431 0h-128v114q-50 -14 -87 -14q-98 0 -139 48t-41 164v131h128v-141q0 -52 14.5 -71.5t53.5 -19.5q38 0 71 16v216h128v-443z" />
    <glyph glyph-name="afii10090" unicode="&#x448;" horiz-adv-x="734" 
d="M683 0h-632v443h131v-332h122v332h126v-332h122v332h131v-443z" />
    <glyph glyph-name="afii10091" unicode="&#x449;" horiz-adv-x="741" 
d="M611 0h-560v443h131v-332h122v332h126v-332h122v332h131v-332h47v-234h-119v123z" />
    <glyph glyph-name="afii10092" unicode="&#x44a;" horiz-adv-x="494" 
d="M304 0h-208v332h-97v111h225v-137h67q93 0 131 -27q55 -39 55 -123q0 -76 -44.5 -116t-128.5 -40zM224 212v-118h57q43 0 62 13.5t19 45.5q0 31 -19 45t-60 14h-59z" />
    <glyph glyph-name="afii10093" unicode="&#x44b;" horiz-adv-x="653" 
d="M259 0h-208v443h128v-137h67q93 0 131 -27q55 -39 55 -123q0 -76 -44.5 -116t-128.5 -40zM179 212v-118h57q43 0 62 14t19 45t-19 45t-60 14h-59zM603 0h-128v443h128v-443z" />
    <glyph glyph-name="afii10094" unicode="&#x44c;" horiz-adv-x="448" 
d="M259 0h-208v443h128v-137h67q93 0 131 -27q55 -39 55 -123q0 -76 -44.5 -116t-128.5 -40zM179 212v-118h57q43 0 62 14t19 45t-19 45t-60 14h-59z" />
    <glyph glyph-name="afii10095" unicode="&#x44d;" horiz-adv-x="461" 
d="M305 178h-215v93h212q-12 43 -38.5 62.5t-73.5 19.5q-54 0 -103 -40l-70 95q87 51 178 51q113 0 178.5 -64t65.5 -174q0 -111 -67 -174t-185 -63q-101 0 -184 59l76 93q51 -46 108 -46q46 0 77 23.5t41 64.5z" />
    <glyph glyph-name="afii10096" unicode="&#x44e;" horiz-adv-x="743" 
d="M179 0h-128v443h128v-160h88q22 81 82.5 128.5t140.5 47.5q98 0 164.5 -69t66.5 -169t-67 -168.5t-164 -68.5q-86 0 -148 52.5t-78 139.5h-85v-176zM490 344q-46 0 -74.5 -34t-28.5 -87q0 -56 28.5 -90t74.5 -34q45 0 73.5 34t28.5 88q0 55 -28.5 89t-73.5 34z" />
    <glyph glyph-name="afii10097" unicode="&#x44f;" horiz-adv-x="465" 
d="M285 0v145h-31q-25 0 -41 1l-92 -146h-127l112 178q-37 24 -54.5 49.5t-17.5 67.5q0 79 61 119q43 29 130 29h189v-443h-129zM230 237h56v109h-56q-41 0 -59 -13t-18 -42q0 -28 18 -41t59 -13z" />
    <glyph glyph-name="uni0450" unicode="&#x450;" horiz-adv-x="493" 
d="M353 154l112 -44q-77 -126 -210 -126q-100 0 -166.5 68t-66.5 169q0 100 66 169t161 69q97 0 160 -70t63 -177q0 -16 -1 -35h-318q25 -80 101 -80q63 0 99 57zM153 266h192q-26 81 -96 81q-73 0 -96 -81zM248 487l-163 158l119 62l130 -172z" />
    <glyph glyph-name="afii10071" unicode="&#x451;" horiz-adv-x="495" 
d="M471 184h-318q1 -2 2 -5q2 -4 2 -5q6 -18 10 -27q7 -23 31 -37.5t53 -14.5q54 0 88 44l117 -44q-75 -111 -203 -111q-98 0 -164.5 68.5t-66.5 169.5q0 100 66 168.5t162 68.5t159.5 -68.5t63.5 -172.5q0 -18 -2 -34zM153 265h193q-11 45 -33.5 64.5t-63.5 19.5
q-43 0 -62.5 -20t-33.5 -64zM161 663q29 0 49 -20t20 -48t-20 -47.5t-49 -19.5t-49.5 20t-20.5 48t20.5 47.5t49.5 19.5zM351 663q29 0 49 -19.5t20 -47.5t-20 -48t-49 -20t-49.5 20t-20.5 49q0 27 20.5 46.5t49.5 19.5z" />
    <glyph glyph-name="afii10099" unicode="&#x452;" horiz-adv-x="505" 
d="M173 0h-128v509h-55v94h55v64h128v-64h108v-94h-108v-88q45 38 109 38q78 0 128 -59q44 -53 44 -159v-474h-128v466q0 61 -16 86t-55 25q-22 0 -38 -7t-24.5 -17t-13 -27t-5.5 -31.5t-1 -36.5v-225z" />
    <glyph glyph-name="afii10100" unicode="&#x453;" horiz-adv-x="390" 
d="M179 0h-128v443h325v-111h-197v-332zM266 700l118 -58l-162 -149l-85 45z" />
    <glyph glyph-name="afii10101" unicode="&#x454;" horiz-adv-x="461" 
d="M159 271h212v-93h-215q10 -41 41 -64.5t77 -23.5q57 0 108 46l76 -93q-87 -59 -184 -59q-118 0 -185 63t-67 173q0 111 65.5 175t178.5 64q91 0 178 -51l-70 -95q-49 40 -103 40q-47 0 -74 -19.5t-38 -62.5z" />
    <glyph glyph-name="afii10102" unicode="&#x455;" horiz-adv-x="389" 
d="M17 120l108 40q18 -35 34 -49t38 -14q19 0 30.5 10t11.5 27q0 12 -8.5 19.5t-36.5 17.5l-59 24q-91 35 -91 120q0 61 46.5 102.5t114.5 41.5q104 0 160 -104l-102 -48q-27 40 -59 40q-37 0 -37 -29q0 -10 8.5 -16.5t35.5 -17.5l51 -20q105 -39 105 -125q0 -65 -49 -110
t-122 -45q-127 0 -179 136z" />
    <glyph glyph-name="afii10103" unicode="&#x456;" horiz-adv-x="229" 
d="M51 443h128v-443h-128v443zM115 671q32 0 55 -22.5t23 -53.5q0 -32 -23 -54t-56 -22q-32 0 -54.5 22.5t-22.5 54.5q0 31 23 53t55 22z" />
    <glyph glyph-name="afii10104" unicode="&#x457;" horiz-adv-x="238" 
d="M55 443h128v-443h-128v443zM25 667q30 0 51.5 -21t21.5 -51q0 -29 -21.5 -50t-51.5 -21q-31 0 -52 21t-21 51q0 29 21.5 50t51.5 21zM212 667q30 0 51.5 -21t21.5 -51q0 -29 -21.5 -50t-51.5 -21q-31 0 -52 21t-21 51q0 29 21.5 50t51.5 21z" />
    <glyph glyph-name="afii10105" unicode="&#x458;" horiz-adv-x="237" 
d="M58 443h128v-532q0 -73 -33.5 -114t-93.5 -41q-31 0 -73 13v119q36 -13 53 -13q19 0 19 39v529zM123 671q32 0 55 -22.5t23 -53.5t-23 -53.5t-55 -22.5q-33 0 -55.5 22.5t-22.5 54.5q0 31 23 53t55 22z" />
    <glyph glyph-name="afii10106" unicode="&#x459;" horiz-adv-x="702" 
d="M513 0h-208v332h-97l-1 -18q-5 -98 -10 -137t-15 -71q-16 -51 -55.5 -79t-96.5 -28q-10 0 -33 1v117l5 -1q7 -1 16 -1q26 0 40.5 28t20.5 90q9 109 10 210h344v-136h67q93 0 131 -27q55 -39 55 -124q0 -76 -44.5 -116t-128.5 -40zM433 218v-130h57q43 0 62 15t19 50
q0 34 -19 49.5t-60 15.5h-59z" />
    <glyph glyph-name="afii10107" unicode="&#x45a;" horiz-adv-x="708" 
d="M519 0h-208v206h-132v-206h-128v443h128v-138h132v138h128v-137h67q90 0 138 -32t48 -118q0 -76 -44.5 -116t-128.5 -40zM439 212v-118h57q43 0 62 14t19 45t-19 45t-60 14h-59z" />
    <glyph glyph-name="afii10108" unicode="&#x45b;" horiz-adv-x="505" 
d="M173 0h-128v509h-55v94h55v64h128v-64h108v-94h-108v-88q45 38 109 38q78 0 128 -59q44 -53 44 -159v-241h-128v233q0 61 -16 86t-55 25q-22 0 -38 -7t-24.5 -17t-13 -27t-5.5 -31.5t-1 -36.5v-225z" />
    <glyph glyph-name="afii10109" unicode="&#x45c;" horiz-adv-x="495" 
d="M179 0h-128v443h128v-160l154 160h158l-191 -181l206 -262h-150l-140 183l-37 -37v-146zM310 700l119 -58l-162 -149l-86 45z" />
    <glyph glyph-name="uni045D" unicode="&#x45d;" horiz-adv-x="508" 
d="M176 0h-125v443h125v-264l155 264h126v-443h-125v262zM256 493l-162 149l118 58l129 -162z" />
    <glyph glyph-name="afii10110" unicode="&#x45e;" horiz-adv-x="464" 
d="M41 -233l113 254l-166 422h134l102 -266l118 266h134l-302 -676h-133zM67 662l110 8q1 -41 12.5 -55.5t43.5 -14.5t42.5 13t12.5 57l110 -8q-3 -63 -25 -96q-44 -67 -141 -67q-78 0 -120.5 42t-44.5 121z" />
    <glyph glyph-name="afii10193" unicode="&#x45f;" horiz-adv-x="493" 
d="M187 0h-136v443h128v-332h136v332h128v-443h-136v-123h-120v123z" />
    <glyph glyph-name="uni0462" unicode="&#x462;" horiz-adv-x="591" 
d="M331 0h-204v543h-120v124h509v-124h-261v-139h93q105 0 159 -50t54 -146q0 -106 -61.5 -157t-168.5 -51zM255 294v-180h54q57 0 89.5 18.5t32.5 71.5t-32.5 71.5t-89.5 18.5h-54z" />
    <glyph glyph-name="uni0463" unicode="&#x463;" horiz-adv-x="539" 
d="M174 0h-128v509h-56v94h56v64h128v-64h107v-94h-107v-94q55 44 121 44q92 0 157.5 -69.5t65.5 -167.5q0 -100 -65.5 -169t-160.5 -69q-63 0 -118 44v-28zM280 344q-47 0 -77 -33.5t-30 -86.5q0 -56 29.5 -90.5t76.5 -34.5q49 0 79.5 34t30.5 90q0 53 -30.5 87t-78.5 34z
" />
    <glyph glyph-name="afii10050" unicode="&#x490;" horiz-adv-x="460" 
d="M201 0h-133v667h259v104h118v-228h-244v-543z" />
    <glyph glyph-name="afii10098" unicode="&#x491;" horiz-adv-x="390" 
d="M179 0h-128v443h209v105h116v-216h-197v-332z" />
    <glyph glyph-name="uni0492" unicode="&#x492;" horiz-adv-x="460" 
d="M200 0h-133v269h-64v118h64v280h378v-124h-245v-156h162v-118h-162v-269z" />
    <glyph glyph-name="uni0493" unicode="&#x493;" horiz-adv-x="390" 
d="M178 0h-128v136h-47v101h47v206h326v-111h-198v-95h99v-101h-99v-136z" />
    <glyph glyph-name="uni0496" unicode="&#x496;" horiz-adv-x="901" 
d="M516 0h-131v284h-29l-199 -284h-160l248 343l-227 324h149l184 -269h34v269h131v-269h34l184 269h149l-227 -324l162 -219h85v-252h-119v128h-40l-199 284h-29v-284z" />
    <glyph glyph-name="uni0497" unicode="&#x497;" horiz-adv-x="678" 
d="M400 0h-123v183h-17l-128 -183h-142l165 229l-149 214h137l115 -177h19v177h123v-177h19l115 177h137l-149 -214l90 -118h87v-234h-119v123h-35l-128 183h-17v-183z" />
    <glyph glyph-name="uni049A" unicode="&#x49a;" horiz-adv-x="610" 
d="M201 0h-133v667h133v-259l240 259h171l-262 -280l173 -263h94v-252h-120v128h-49l-189 290l-58 -63v-227z" />
    <glyph glyph-name="uni049B" unicode="&#x49b;" horiz-adv-x="495" 
d="M179 0h-128v443h128v-160l154 160h157l-190 -181l118 -151h96v-234h-119v123h-39l-140 182l-37 -36v-146z" />
    <glyph glyph-name="uni049C" unicode="&#x49c;" horiz-adv-x="636" 
d="M201 0h-133v667h133v-319l47 51v149h59v-85l186 202h145l-261 -280l255 -386h-158l-158 242l-9 -5v-115h-59v126l-47 -50v-197z" />
    <glyph glyph-name="uni049D" unicode="&#x49d;" horiz-adv-x="495" 
d="M179 0h-128v443h128v-201l35 36v125h58v-66l103 106h141l-191 -181l206 -262h-150l-107 165h-2v-101h-58v91l-35 -31v-124z" />
    <glyph glyph-name="uni04A2" unicode="&#x4a2;" horiz-adv-x="662" 
d="M201 0h-133v667h133v-268h253v268h133v-543h59v-252h-119v128h-73v275h-253v-275z" />
    <glyph glyph-name="uni04A3" unicode="&#x4a3;" horiz-adv-x="506" 
d="M179 0h-128v443h128v-160h142v160h128v-332h46v-234h-119v123h-55v176h-142v-176z" />
    <glyph glyph-name="uni04AE" unicode="&#x4ae;" horiz-adv-x="554" 
d="M344 0h-133v276l-223 391h150l140 -253l140 253h149l-223 -391v-276z" />
    <glyph glyph-name="uni04AF" unicode="&#x4af;" horiz-adv-x="468" 
d="M166 -233v233l-178 443h134l112 -294l112 294h134l-178 -443l-1 -233h-135z" />
    <glyph glyph-name="uni04B0" unicode="&#x4b0;" horiz-adv-x="554" 
d="M344 0h-133v157h-109v118h109l-223 392h150l140 -253l139 253h149l-222 -392h108v-118h-108v-157z" />
    <glyph glyph-name="uni04B1" unicode="&#x4b1;" horiz-adv-x="468" 
d="M61 0h105l-178 443h134l111 -294l112 294h135l-179 -443h106v-100h-106v-133h-135v133h-105v100z" />
    <glyph glyph-name="uni04B2" unicode="&#x4b2;" horiz-adv-x="584" 
d="M-5 0l222 347l-204 320h152l128 -202l128 202h150l-203 -319l143 -224h108v-252h-119v128h-63l-145 230l-145 -230h-152z" />
    <glyph glyph-name="uni04B3" unicode="&#x4b3;" horiz-adv-x="496" 
d="M-7 0l178 229l-166 214h156l88 -116l88 116h154l-165 -214l91 -118h104v-234h-119v123h-54l-99 131l-100 -131h-156z" />
    <glyph glyph-name="uni04B6" unicode="&#x4b6;" horiz-adv-x="621" 
d="M485 0h-72v208q-86 -16 -132 -16q-145 0 -201 94q-33 54 -33 173v208h133v-196q0 -50 5 -74t19 -42q31 -39 104 -39q52 0 105 16v335h133v-543h59v-252h-120v128z" />
    <glyph glyph-name="uni04B7" unicode="&#x4b7;" horiz-adv-x="489" 
d="M358 0h-55v113q-52 -13 -87 -13q-98 0 -139 48t-41 164v131h128v-141q0 -52 14.5 -71t53.5 -19q36 0 71 15v216h128v-332h46v-234h-119v123z" />
    <glyph glyph-name="uni04B8" unicode="&#x4b8;" horiz-adv-x="613" 
d="M548 0h-133v208q-40 -8 -84 -13v-124h-59v121q-122 8 -173 69t-50 198v208h133v-196q-1 -75 17 -105t73 -46v186h59v-189q48 4 84 14v336h133v-667z" />
    <glyph glyph-name="uni04B9" unicode="&#x4b9;" horiz-adv-x="496" 
d="M446 0h-128v114l-23 -7q-3 0 -10 -1.5t-11 -2.5v-75h-58v72q-100 2 -140 49.5t-40 163.5v130h128v-141q-1 -44 10.5 -63.5t41.5 -25.5v128h58v-126q21 3 44 12v216h128v-443z" />
    <glyph glyph-name="uni04BA" unicode="&#x4ba;" horiz-adv-x="557" 
d="M203 0h-135v667h135v-264q46 45 121 45q83 0 136 -59q47 -53 47 -159v-230h-128v223q0 61 -18.5 85.5t-63.5 24.5q-51 0 -72.5 -25.5t-21.5 -86.5v-221z" />
    <glyph glyph-name="uni04BB" unicode="&#x4bb;" horiz-adv-x="511" 
d="M179 0h-128v667h128v-246q48 38 110 38q78 0 128 -59q44 -53 44 -159v-241h-128v233q0 61 -16 86t-55 25q-52 0 -67.5 -30.5t-15.5 -88.5v-225z" />
    <glyph glyph-name="uni04C0" unicode="&#x4c0;" horiz-adv-x="268" 
d="M68 667h133v-667h-133v667z" />
    <glyph glyph-name="uni04CF" unicode="&#x4cf;" horiz-adv-x="268" 
d="M68 667h133v-667h-133v667z" />
    <glyph glyph-name="uni04D8" unicode="&#x4d8;" horiz-adv-x="754" 
d="M29 386h553q-20 79 -77 126t-134 47q-129 0 -190 -129l-118 63q98 190 307 190q150 0 252 -100.5t102 -248.5q0 -145 -102 -247.5t-245 -102.5q-92 0 -173 46t-127 124q-48 80 -48 232zM584 285h-412q14 -80 70 -128.5t135 -48.5q53 0 99.5 25t75.5 69q17 27 32 83z" />
    <glyph glyph-name="afii10846" unicode="&#x4d9;" horiz-adv-x="495" 
d="M23 270h318q-15 38 -22 46q-26 32 -75 32q-55 0 -89 -44l-117 44q76 111 204 111q100 0 165.5 -67t65.5 -170q0 -101 -65.5 -169.5t-162.5 -68.5t-160 68.5t-63 173.5q0 8 1 44zM342 184h-193q12 -90 96 -90q42 0 64.5 20.5t32.5 69.5z" />
    <glyph glyph-name="uni04E8" unicode="&#x4e8;" horiz-adv-x="765" 
d="M383 683q145 0 248.5 -102.5t103.5 -246.5t-103.5 -247t-248.5 -103q-148 0 -250.5 103t-102.5 251q0 141 104.5 243t248.5 102zM595 286h-425q21 -71 56 -110q65 -68 157 -68q53 0 100.5 25t76.5 68q19 27 35 85zM171 386h423q-20 80 -77 126.5t-135 46.5
q-76 0 -133.5 -47t-77.5 -126z" />
    <glyph glyph-name="uni04E9" unicode="&#x4e9;" horiz-adv-x="522" 
d="M261 459q101 0 170 -68.5t69 -169.5q0 -100 -69 -168.5t-169 -68.5q-103 0 -171.5 68.5t-68.5 171.5q0 98 69.5 166.5t169.5 68.5zM156 272h209q-28 81 -104 81q-38 0 -65 -21t-40 -60zM370 187h-218q23 -97 109 -97q87 0 109 97z" />
    <glyph glyph-name="uni1E1E" unicode="&#x1e1e;" horiz-adv-x="452" 
d="M67 667h360v-123h-227v-145h207v-124h-207v-275h-133v667zM247 871q32 0 55 -22.5t23 -53.5t-23 -53.5t-55 -22.5q-33 0 -55.5 22.5t-22.5 54.5q0 31 23 53t55 22z" />
    <glyph glyph-name="uni1E1F" unicode="&#x1e1f;" horiz-adv-x="269" 
d="M262 328h-74v-328h-128v328h-41v115h41v78q0 74 34 114.5t96 40.5q34 0 70 -9v-115q-27 9 -43 9q-29 0 -29 -42v-76h74v-115zM166 866q32 0 55 -22.5t23 -53.5q0 -32 -23 -54t-56 -22q-32 0 -54.5 22.5t-22.5 54.5q0 31 23 53t55 22z" />
    <glyph glyph-name="Wgrave" unicode="&#x1e80;" horiz-adv-x="877" 
d="M-6 667h139l123 -427l127 427h111l128 -427l123 427h138l-199 -667h-119l-126 417l-126 -417h-119zM437 692l-162 157l119 62l130 -172z" />
    <glyph glyph-name="wgrave" unicode="&#x1e81;" horiz-adv-x="658" 
d="M148 0l-160 443h136l76 -234l80 234h98l80 -234l77 234h136l-161 -443h-102l-79 230l-79 -230h-102zM325 487l-163 158l119 62l130 -172z" />
    <glyph glyph-name="Wacute" unicode="&#x1e82;" horiz-adv-x="877" 
d="M-6 667h139l123 -427l127 427h111l128 -427l123 427h138l-199 -667h-119l-126 417l-126 -417h-119zM489 911l119 -62l-163 -157l-86 47z" />
    <glyph glyph-name="wacute" unicode="&#x1e83;" horiz-adv-x="660" 
d="M148 0l-160 443h136l76 -234l80 234h98l80 -234l77 234h136l-161 -443h-102l-79 230l-79 -230h-102zM345 707l119 -62l-163 -158l-86 48z" />
    <glyph glyph-name="Wdieresis" unicode="&#x1e84;" horiz-adv-x="877" 
d="M-6 667h139l123 -427l127 427h111l128 -427l123 427h138l-199 -667h-119l-126 417l-126 -417h-119zM346 868q31 0 53 -21.5t22 -51.5q0 -31 -22 -52t-54 -21q-31 0 -52.5 21.5t-21.5 52.5q0 29 22 50.5t53 21.5zM532 868q32 0 53.5 -21t21.5 -52q0 -30 -22 -51.5
t-53 -21.5q-32 0 -53.5 21.5t-21.5 52.5q0 29 22 50.5t53 21.5z" />
    <glyph glyph-name="wdieresis" unicode="&#x1e85;" horiz-adv-x="658" 
d="M148 0l-160 443h136l76 -234l80 234h98l80 -234l77 234h136l-161 -443h-102l-79 230l-79 -230h-102zM236 668q31 0 53 -21.5t22 -51.5q0 -31 -22 -52t-54 -21q-31 0 -52.5 21.5t-21.5 52.5q0 29 22 50.5t53 21.5zM423 668q31 0 53 -21.5t22 -51.5q0 -31 -22 -52t-54 -21
q-31 0 -52.5 21.5t-21.5 52.5q0 29 22 50.5t53 21.5z" />
    <glyph glyph-name="uni1EA0" unicode="&#x1ea0;" horiz-adv-x="643" 
d="M508 0l-55 155h-263l-56 -155h-140l249 667h157l249 -667h-141zM233 279h176l-88 246zM322 -38q32 0 55 -22.5t23 -53.5t-23 -53.5t-55 -22.5q-33 0 -55.5 22.5t-22.5 54.5q0 31 23 53t55 22z" />
    <glyph glyph-name="uni1EA1" unicode="&#x1ea1;" horiz-adv-x="543" 
d="M494 443v-443h-128v25q-55 -41 -115 -41q-95 0 -161.5 69.5t-66.5 168.5q0 98 66.5 167.5t161.5 69.5q60 0 115 -41v25h128zM263 344q-50 0 -80.5 -33.5t-30.5 -88.5t30 -89t79 -34q47 0 77 34t30 87q0 55 -29 89.5t-76 34.5zM269 -38q32 0 55 -22.5t23 -53.5t-23 -53.5
t-55 -22.5q-33 0 -55.5 22.5t-22.5 54.5q0 31 23 53t55 22z" />
    <glyph glyph-name="uni1EA2" unicode="&#x1ea2;" horiz-adv-x="643" 
d="M508 0l-55 155h-263l-56 -155h-140l249 667h157l249 -667h-141zM233 279h176l-88 246zM386 714v-10h-115q1 36 4 48t14 27q13 15 13 21t-10 6q-9 0 -26 -6q-14 -5 -17 -6l-38 93q62 23 97 23q52 0 84 -25t32 -65q0 -31 -19 -59l-16 -24q-3 -3 -3 -23z" />
    <glyph glyph-name="uni1EA3" unicode="&#x1ea3;" horiz-adv-x="543" 
d="M494 443v-443h-128v25q-55 -41 -115 -41q-95 0 -161.5 69.5t-66.5 168.5q0 98 66.5 167.5t161.5 69.5q60 0 115 -41v25h128zM263 344q-50 0 -80.5 -33.5t-30.5 -88.5t30 -89t79 -34q47 0 77 34t30 87q0 55 -29 89.5t-76 34.5zM326 509v-12h-115q2 37 4.5 48t14.5 27
q13 17 13 21q0 6 -10 6q-7 0 -44 -12l-38 93q64 23 98 23q52 0 84 -25t32 -65q0 -30 -20 -59l-16 -24q-3 -4 -3 -21z" />
    <glyph glyph-name="uni1EA4" unicode="&#x1ea4;" horiz-adv-x="643" 
d="M508 0l-55 155h-263l-56 -155h-140l249 667h157l249 -667h-141zM233 279h176l-88 246zM592 903l-125 -121l39 -42l-97 -47l-87 85l-88 -85l-97 47l145 153h79l32 -34l79 106z" />
    <glyph glyph-name="uni1EA5" unicode="&#x1ea5;" horiz-adv-x="543" 
d="M494 443v-443h-128v25q-55 -41 -115 -41q-95 0 -161.5 69.5t-66.5 168.5q0 98 66.5 167.5t161.5 69.5q60 0 115 -41v25h128zM263 344q-50 0 -80.5 -33t-30.5 -88t30 -89.5t79 -34.5q47 0 77 34t30 87q0 55 -29 89.5t-76 34.5zM297 677l28 -29l119 158l120 -62l-163 -157
l-38 20l79 -83l-97 -46l-87 85l-88 -85l-96 46l144 153h79z" />
    <glyph glyph-name="uni1EA6" unicode="&#x1ea6;" horiz-adv-x="643" 
d="M508 0l-55 155h-263l-56 -155h-140l249 667h157l249 -667h-141zM233 279h176l-88 246zM495 740l-97 -47l-88 83l-87 -83l-97 47l145 153h79zM519 757l-163 158l120 62l129 -172z" />
    <glyph glyph-name="uni1EA7" unicode="&#x1ea7;" horiz-adv-x="543" 
d="M494 443v-443h-128v25q-55 -41 -115 -41q-95 0 -161.5 69.5t-66.5 168.5q0 98 66.5 167.5t161.5 69.5q60 0 115 -41v25h128zM263 344q-50 0 -80.5 -33t-30.5 -88t30 -89.5t79 -34.5q47 0 77 34t30 87q0 55 -29 89.5t-76 34.5zM207 677h79l145 -153l-97 -46l-87 85
l-88 -85l-97 46zM409 583l-163 157l119 62l130 -172z" />
    <glyph glyph-name="uni1EA8" unicode="&#x1ea8;" horiz-adv-x="643" 
d="M508 0l-55 155h-263l-56 -155h-140l249 667h157l249 -667h-141zM233 279h176l-88 246zM544 767h-64l26 -27l-97 -47l-87 83l-88 -83l-97 47l145 153h79l74 -78l7 16l7 14l5 9h1q5 8 5 10q0 5 -10 5q-9 0 -27 -6l-16 -6l-38 93q64 23 96 23q53 0 85 -25t32 -65
q0 -30 -20 -59l-15 -24q-4 -4 -4 -23v-3z" />
    <glyph glyph-name="uni1EA9" unicode="&#x1ea9;" horiz-adv-x="543" 
d="M494 443v-443h-128v25q-55 -41 -115 -41q-95 0 -161.5 69.5t-66.5 168.5q0 98 66.5 167.5t161.5 69.5q60 0 115 -41v25h128zM263 344q-50 0 -80.5 -33t-30.5 -88t30 -89.5t79 -34.5q47 0 77 34t30 87q0 55 -29 89.5t-76 34.5zM218 677h79l44 -46q8 28 23 47q7 9 7 12
q0 6 -10 6q-9 0 -27 -6q-2 -1 -4.5 -2t-4 -1.5t-3.5 -1t-4 -1.5l-39 93q65 23 98 23q52 0 84 -25t32 -65q0 -30 -20 -59l-16 -24q-3 -5 -3 -21v-12h-78l66 -70l-97 -46l-87 85l-88 -85l-96 46z" />
    <glyph glyph-name="uni1EAA" unicode="&#x1eaa;" horiz-adv-x="643" 
d="M508 0l-55 155h-263l-56 -155h-140l249 667h157l249 -667h-141zM233 279h176l-88 246zM321 762l-87 -80l-97 45l145 147h79l145 -147l-97 -45zM378 1029l107 -23q-9 -120 -105 -120q-41 0 -79 20q-15 9 -25 9q-4 0 -6 -3q-1 -1 -7 -33l-105 23q13 120 108 120
q34 0 78 -22q16 -8 24 -8q4 0 5.5 4.5t4.5 32.5z" />
    <glyph glyph-name="uni1EAB" unicode="&#x1eab;" horiz-adv-x="543" 
d="M494 443v-443h-128v25q-55 -41 -115 -41q-95 0 -161.5 69.5t-66.5 168.5q0 98 66.5 167.5t161.5 69.5q60 0 115 -41v25h128zM263 344q-50 0 -80.5 -33t-30.5 -88t30 -89.5t79 -34.5q47 0 77 34t30 87q0 55 -29 89.5t-76 34.5zM258 564l-88 -81l-97 45l145 148h79
l145 -148l-97 -45zM314 837l107 -23q-9 -120 -105 -120q-41 0 -79 20q-15 9 -25 9q-4 0 -6 -4.5t-7 -31.5l-105 23q13 120 108 120q34 0 78 -22q18 -8 24 -8q4 0 5.5 4.5t4.5 32.5z" />
    <glyph glyph-name="uni1EAC" unicode="&#x1eac;" horiz-adv-x="643" 
d="M508 0l-55 155h-263l-56 -155h-140l249 667h157l249 -667h-141zM233 279h176l-88 246zM322 776l-88 -83l-97 47l145 153h79l145 -153l-97 -47zM322 -38q32 0 55 -22.5t23 -53.5t-23 -53.5t-55 -22.5q-33 0 -55.5 22.5t-22.5 54.5q0 31 23 53t55 22z" />
    <glyph glyph-name="uni1EAD" unicode="&#x1ead;" horiz-adv-x="543" 
d="M494 443v-443h-128v25q-55 -41 -115 -41q-95 0 -161.5 69.5t-66.5 168.5q0 98 66.5 167.5t161.5 69.5q60 0 115 -41v25h128zM263 344q-50 0 -80.5 -33.5t-30.5 -88.5t30 -89t79 -34q47 0 77 34t30 87q0 55 -29 89.5t-76 34.5zM442 535l-97 -46l-87 85l-88 -85l-97 46
l145 153h79zM262 -38q32 0 55 -22.5t23 -53.5q0 -32 -23 -54t-56 -22q-32 0 -54.5 22.5t-22.5 54.5q0 31 23 53t55 22z" />
    <glyph glyph-name="uni1EAE" unicode="&#x1eae;" horiz-adv-x="643" 
d="M508 0l-55 155h-263l-56 -155h-140l249 667h157l249 -667h-141zM233 279h176l-88 246zM164 856l101 8l-31 16l130 166l119 -59l-163 -152l-45 24v-11q2 -32 12.5 -45.5t32.5 -13.5q28 0 40 27q4 9 10 48l111 -8q-7 -58 -19 -82q-20 -41 -57.5 -63.5t-84.5 -22.5
q-52 0 -92.5 27t-56.5 73q-6 16 -7 68z" />
    <glyph glyph-name="uni1EAF" unicode="&#x1eaf;" horiz-adv-x="543" 
d="M494 443v-443h-128v25q-55 -41 -115 -41q-95 0 -161.5 69.5t-66.5 168.5q0 98 66.5 167.5t161.5 69.5q60 0 115 -41v25h128zM263 344q-50 0 -80.5 -33.5t-30.5 -88.5t30 -89t79 -34q47 0 77 34t30 87q0 55 -29 89.5t-76 34.5zM101 653l110 9q2 -22 2 -25q2 -50 44 -50
q27 0 41 27q3 6 9 47l111 -8q-7 -58 -19 -81q-20 -41 -57.5 -63.5t-84.5 -22.5q-52 0 -92.5 27t-56.5 72q-6 16 -7 68zM304 852l120 -59l-163 -152l-86 45z" />
    <glyph glyph-name="uni1EB0" unicode="&#x1eb0;" horiz-adv-x="643" 
d="M508 0l-55 155h-263l-56 -155h-140l249 667h157l249 -667h-141zM233 279h176l-88 246zM369 856l1 6l-53 -27l-162 152l119 59l130 -166l-31 -16l108 -8q-7 -58 -19 -82q-20 -41 -57.5 -63.5t-84.5 -22.5q-52 0 -92.5 27t-56.5 73q-6 16 -7 68l110 8q2 -22 2 -24
q2 -51 44 -51q40 0 47 57q1 8 2 10z" />
    <glyph glyph-name="uni1EB1" unicode="&#x1eb1;" horiz-adv-x="543" 
d="M494 443v-443h-128v25q-55 -41 -115 -41q-95 0 -161.5 69.5t-66.5 168.5q0 98 66.5 167.5t161.5 69.5q60 0 115 -41v25h128zM263 344q-50 0 -80.5 -33.5t-30.5 -88.5t30 -89t79 -34q47 0 77 34t30 87q0 55 -29 89.5t-76 34.5zM252 641l-162 152l119 59l130 -166zM101 653
l110 9q2 -22 2 -25q2 -50 44 -50q27 0 41 27q3 6 9 47l111 -8q-7 -58 -19 -81q-20 -41 -57.5 -63.5t-84.5 -22.5q-52 0 -92.5 27t-56.5 72q-6 16 -7 68z" />
    <glyph glyph-name="uni1EB2" unicode="&#x1eb2;" horiz-adv-x="643" 
d="M508 0l-55 155h-263l-56 -155h-140l249 667h157l249 -667h-141zM233 279h176l-88 246zM163 859l102 8q2 39 18 59q13 17 13 21q0 6 -10 6q-17 0 -43 -12l-38 90q65 22 97 22q52 0 84 -24t32 -63q0 -28 -19 -57l-16 -23q-3 -4 -3 -19l101 -8q-7 -57 -19 -81
q-44 -86 -142 -86q-52 0 -92.5 27t-56.5 72q-6 16 -8 68zM368 854h-93v-4q2 -31 12 -44t33 -13q21 0 32 13t15 44z" />
    <glyph glyph-name="uni1EB3" unicode="&#x1eb3;" horiz-adv-x="543" 
d="M494 443v-443h-128v25q-55 -41 -115 -41q-95 0 -161.5 69.5t-66.5 168.5q0 98 66.5 167.5t161.5 69.5q60 0 115 -41v25h128zM263 344q-50 0 -80.5 -33.5t-30.5 -88.5t30 -89t79 -34q47 0 77 34t30 87q0 55 -29 89.5t-76 34.5zM317 676v-7h-115q1 34 4 45.5t14 26.5
q13 17 13 21q0 6 -10 6q-9 0 -43 -12l-38 90q64 22 96 22q52 0 84.5 -24t32.5 -63q0 -29 -19 -57l-16 -23q-3 -3 -3 -25zM101 653l110 9q2 -22 2 -25q2 -50 44 -50q27 0 41 27q3 6 9 47l111 -8q-7 -58 -19 -81q-20 -41 -57.5 -63.5t-84.5 -22.5q-52 0 -92.5 27t-56.5 72
q-6 16 -7 68z" />
    <glyph glyph-name="uni1EB4" unicode="&#x1eb4;" horiz-adv-x="643" 
d="M508 0l-55 155h-263l-56 -155h-140l249 667h157l249 -667h-141zM233 279h176l-88 246zM163 860l111 8l1 -24q3 -51 44 -51q27 0 41 27q3 6 9 48l111 -9q-7 -60 -18 -81q-44 -86 -142 -86q-52 0 -93 27t-57 72q-6 20 -7 69zM378 1025l107 -23q-9 -120 -105 -120
q-41 0 -79 20q-15 9 -25 9q-4 0 -6 -3q-1 -1 -7 -33l-105 23q14 120 106 120q39 0 78 -21q15 -9 26 -9q4 0 5.5 4.5t4.5 32.5z" />
    <glyph glyph-name="uni1EB5" unicode="&#x1eb5;" horiz-adv-x="543" 
d="M494 443v-443h-128v25q-55 -41 -115 -41q-95 0 -161.5 69.5t-66.5 168.5q0 98 66.5 167.5t161.5 69.5q60 0 115 -41v25h128zM263 344q-50 0 -80.5 -33t-30.5 -88t30 -89.5t79 -34.5q47 0 77 34t30 87q0 55 -29 89.5t-76 34.5zM100 659l111 8q1 -11 1 -24q3 -51 44 -51
q29 0 41 27q2 4 10 48l110 -8q-7 -61 -18 -82q-44 -86 -142 -86q-53 0 -93.5 27t-55.5 72q-7 20 -8 69zM315 831l107 -23q-9 -120 -104 -120q-42 0 -79 20q-16 9 -26 9q-5 0 -6 -3q-1 -2 -7 -33l-104 23q12 120 106 120q38 0 77 -21q15 -9 26 -9q5 0 6 4.5t4 32.5z" />
    <glyph glyph-name="uni1EB6" unicode="&#x1eb6;" horiz-adv-x="643" 
d="M508 0l-55 155h-263l-56 -155h-140l249 667h157l249 -667h-141zM233 279h176l-88 246zM163 871l111 9l1 -25q3 -51 44 -51q27 0 41 27q3 6 9 49l111 -9q-7 -63 -19 -85q-44 -88 -141 -88q-52 0 -92.5 28t-56.5 74q-7 20 -8 71zM322 -38q32 0 55 -22.5t23 -53.5t-23 -53.5
t-55 -22.5q-33 0 -55.5 22.5t-22.5 54.5q0 31 23 53t55 22z" />
    <glyph glyph-name="uni1EB7" unicode="&#x1eb7;" horiz-adv-x="543" 
d="M494 443v-443h-128v25q-55 -41 -115 -41q-95 0 -161.5 69.5t-66.5 168.5q0 98 66.5 167.5t161.5 69.5q60 0 115 -41v25h128zM263 344q-50 0 -80.5 -33t-30.5 -88t30 -89.5t79 -34.5q47 0 77 34t30 87q0 55 -29 89.5t-76 34.5zM99 667l111 9q1 -12 1 -26q3 -52 44 -52
q29 0 41 27q3 6 10 51l110 -9q-4 -44 -7 -55.5t-12 -29.5q-44 -88 -141 -88q-52 0 -92.5 28t-56.5 74q-7 20 -8 71zM262 -38q32 0 55 -22.5t23 -53.5q0 -32 -23 -54t-56 -22q-32 0 -54.5 22.5t-22.5 54.5q0 31 23 53t55 22z" />
    <glyph glyph-name="uni1EB8" unicode="&#x1eb8;" horiz-adv-x="487" 
d="M67 667h382v-123h-249v-145h221v-123h-221v-152h258v-124h-391v667zM272 -38q32 0 55 -22.5t23 -53.5t-23 -53.5t-55 -22.5q-33 0 -55.5 22.5t-22.5 54.5q0 31 23 53t55 22z" />
    <glyph glyph-name="uni1EB9" unicode="&#x1eb9;" horiz-adv-x="493" 
d="M353 154l112 -44q-77 -126 -210 -126q-100 0 -166.5 68t-66.5 169q0 100 66 169t161 69q97 0 160 -70t63 -177q0 -16 -1 -35h-318q25 -80 101 -80q63 0 99 57zM153 266h192q-26 81 -96 81q-73 0 -96 -81zM251 -38q32 0 55 -22.5t23 -53.5q0 -32 -23 -54t-56 -22
q-32 0 -54.5 22.5t-22.5 54.5q0 31 23 53t55 22z" />
    <glyph glyph-name="uni1EBA" unicode="&#x1eba;" horiz-adv-x="487" 
d="M67 667h382v-123h-249v-145h221v-123h-221v-152h258v-124h-391v667zM331 714v-10h-115q1 35 4 47t14 28q13 17 13 21q0 6 -10 6q-7 0 -43 -12l-38 93q62 23 97 23q52 0 84 -25t32 -65q0 -31 -19 -59l-16 -24q-3 -3 -3 -23z" />
    <glyph glyph-name="uni1EBB" unicode="&#x1ebb;" horiz-adv-x="493" 
d="M353 154l112 -44q-77 -126 -210 -126q-100 0 -166.5 68t-66.5 169q0 100 66 169t161 69q97 0 160 -70t63 -177q0 -16 -1 -35h-318q25 -80 101 -80q63 0 99 57zM153 266h192q-26 81 -96 81q-73 0 -96 -81zM315 507v-10h-115q2 37 4.5 48.5t14.5 26.5q13 15 13 21t-10 6
q-9 0 -27 -6l-16 -6l-39 93q64 23 98 23q52 0 84 -25t32 -65q0 -28 -20 -59l-16 -24q-3 -3 -3 -23z" />
    <glyph glyph-name="uni1EBC" unicode="&#x1ebc;" horiz-adv-x="487" 
d="M67 667h382v-123h-249v-145h221v-123h-221v-152h258v-124h-391v667zM300 873l107 -24q-9 -125 -105 -125q-39 0 -78 21q-17 9 -26 9q-4 0 -6 -3l-1 -4q-1 -4 -2.5 -12t-3.5 -17l-104 23q12 125 107 125q33 0 79 -24q14 -8 23 -8q4 0 5.5 5t4.5 34z" />
    <glyph glyph-name="uni1EBD" unicode="&#x1ebd;" horiz-adv-x="493" 
d="M353 154l112 -44q-77 -126 -210 -126q-100 0 -166.5 68t-66.5 169q0 100 66 169t161 69q97 0 160 -70t63 -177q0 -16 -1 -35h-318q25 -80 101 -80q63 0 99 57zM153 266h192q-26 81 -96 81q-73 0 -96 -81zM303 669l107 -24q-10 -125 -104 -125q-40 0 -79 21q-17 9 -26 9
q-5 0 -6 -3l-1 -4q-1 -4 -2.5 -12t-3.5 -17l-104 23q12 125 107 125q33 0 79 -24q16 -8 23 -8q5 0 6 5t4 34z" />
    <glyph glyph-name="uni1EBE" unicode="&#x1ebe;" horiz-adv-x="502" 
d="M68 667h382v-123h-249v-145h221v-123h-221v-152h258v-124h-391v667zM522 903l-125 -121l39 -42l-97 -47l-87 85l-88 -85l-97 47l145 153h79l32 -34l79 106z" />
    <glyph glyph-name="uni1EBF" unicode="&#x1ebf;" horiz-adv-x="493" 
d="M353 154l112 -44q-77 -126 -210 -126q-100 0 -166.5 68t-66.5 169q0 100 66 169t161 69q97 0 160 -70t63 -177q0 -16 -1 -35h-318q25 -80 101 -80q63 0 99 57zM153 266h192q-26 81 -96 81q-73 0 -96 -81zM289 677l27 -29l119 158l120 -62l-162 -156l-62 44l102 -108
l-96 -46l-88 85l-87 -85l-97 46l145 153h79z" />
    <glyph glyph-name="uni1EC0" unicode="&#x1ec0;" horiz-adv-x="520" 
d="M71 667h382v-123h-249v-145h222v-123h-222v-152h259v-124h-392v667zM436 740l-97 -47l-87 83l-88 -83l-97 47l145 153h79zM460 757l-162 158l119 62l130 -172z" />
    <glyph glyph-name="uni1EC1" unicode="&#x1ec1;" horiz-adv-x="493" 
d="M353 154l112 -44q-77 -126 -210 -126q-100 0 -166.5 68t-66.5 169q0 100 66 169t161 69q97 0 160 -70t63 -177q0 -16 -1 -35h-318q25 -80 101 -80q63 0 99 57zM153 266h192q-26 81 -96 81q-73 0 -96 -81zM200 677h79l145 -153l-97 -46l-87 85l-88 -85l-97 46zM401 583
l-162 157l119 62l130 -172z" />
    <glyph glyph-name="uni1EC2" unicode="&#x1ec2;" horiz-adv-x="500" 
d="M74 667h382v-123h-249v-145h221v-123h-221v-152h258v-124h-391v667zM291 893l74 -78l7 16q5 13 16 28q2 10 -8 10q-9 0 -27 -6q-11 -5 -16 -6l-38 93q63 23 96 23q53 0 85 -25t32 -65q0 -30 -20 -59l-15 -24q-2 -2 -4 -23v-3l1 -7h-63l25 -27l-97 -47l-87 83l-88 -83
l-97 47l145 153h79z" />
    <glyph glyph-name="uni1EC3" unicode="&#x1ec3;" horiz-adv-x="493" 
d="M353 154l112 -44q-77 -126 -210 -126q-100 0 -166.5 68t-66.5 169q0 100 66 169t161 69q97 0 160 -70t63 -177q0 -16 -1 -35h-318q25 -80 101 -80q63 0 99 57zM153 266h192q-26 81 -96 81q-73 0 -96 -81zM206 677h79l44 -46q2 11 11 28q3 9 12 19q6 10 6 12q0 6 -10 6
q-9 0 -26 -6q-14 -5 -17 -6l-38 93q64 23 97 23q52 0 84 -25t32 -65q0 -30 -19 -59l-16 -24q-3 -5 -3 -33h-78l66 -70l-97 -46l-88 85l-87 -85l-97 46z" />
    <glyph glyph-name="uni1EC4" unicode="&#x1ec4;" horiz-adv-x="487" 
d="M67 667h382v-123h-249v-145h221v-123h-221v-152h258v-124h-391v667zM254 757l-87 -81l-98 45l146 148h79l145 -148l-97 -45zM312 1025l106 -23q-4 -52 -19 -77q-26 -43 -85 -43q-41 0 -79 20q-15 9 -26 9q-7 -5 -13 -36l-104 23q12 120 106 120q40 0 77 -21q17 -9 26 -9
q5 0 6.5 4.5t4.5 32.5z" />
    <glyph glyph-name="uni1EC5" unicode="&#x1ec5;" horiz-adv-x="493" 
d="M353 154l112 -44q-77 -126 -210 -126q-100 0 -166.5 68t-66.5 169q0 100 66 169t161 69q97 0 160 -70t63 -177q0 -16 -1 -35h-318q25 -80 101 -80q63 0 99 57zM153 266h192q-26 81 -96 81q-73 0 -96 -81zM243 564l-88 -81l-97 45l145 148h79l145 -148l-97 -45zM305 831
l107 -23q-9 -120 -104 -120q-41 0 -79 20q-17 9 -26 9q-5 0 -6 -3q-1 -2 -7 -33l-104 23q12 120 106 120q38 0 77 -21q15 -9 26 -9q5 0 6.5 4.5t3.5 32.5z" />
    <glyph glyph-name="uni1EC6" unicode="&#x1ec6;" horiz-adv-x="487" 
d="M67 667h382v-123h-249v-145h221v-123h-221v-152h258v-124h-391v667zM263 776l-87 -83l-98 47l146 153h79l145 -153l-98 -47zM276 -38q32 0 55 -22.5t23 -53.5t-23 -53.5t-55 -22.5q-33 0 -55.5 22.5t-22.5 54.5q0 31 23 53t55 22z" />
    <glyph glyph-name="uni1EC7" unicode="&#x1ec7;" horiz-adv-x="493" 
d="M353 154l112 -44q-77 -126 -210 -126q-100 0 -166.5 68t-66.5 169q0 100 66 169t161 69q97 0 160 -70t63 -177q0 -16 -1 -35h-318q25 -80 101 -80q63 0 99 57zM153 266h192q-26 81 -96 81q-73 0 -96 -81zM436 535l-97 -46l-88 85l-87 -85l-97 46l145 153h79zM253 -38
q32 0 55 -22.5t23 -53.5q0 -32 -23 -54t-56 -22q-32 0 -54.5 22.5t-22.5 54.5q0 31 23 53t55 22z" />
    <glyph glyph-name="uni1EC8" unicode="&#x1ec8;" horiz-adv-x="267" 
d="M66 667h133v-667h-133v667zM201 714v-10h-115q2 37 4.5 48t13.5 27q13 17 13 21q0 6 -10 6q-7 0 -43 -12l-38 93q62 23 97 23q52 0 84 -25t32 -65q0 -31 -19 -59l-16 -24q-3 -3 -3 -23z" />
    <glyph glyph-name="uni1EC9" unicode="&#x1ec9;" horiz-adv-x="229" 
d="M51 443h128v-443h-128v443zM182 497h-115q2 37 4.5 48t13.5 27q13 17 13 21q0 6 -10 6q-7 0 -43 -12l-38 93q63 23 97 23q52 0 84 -25t32 -65q0 -31 -19 -59l-16 -24q-3 -6 -3 -33z" />
    <glyph glyph-name="uni1ECA" unicode="&#x1eca;" horiz-adv-x="266" 
d="M66 667h133v-667h-133v667zM133 -38q32 0 55 -22.5t23 -53.5q0 -32 -23 -54t-56 -22q-32 0 -54.5 22.5t-22.5 54.5q0 31 23 53t55 22z" />
    <glyph glyph-name="uni1ECB" unicode="&#x1ecb;" horiz-adv-x="229" 
d="M51 443h128v-443h-128v443zM115 671q32 0 55 -22.5t23 -53.5q0 -32 -23 -54t-56 -22q-32 0 -54.5 22.5t-22.5 54.5q0 31 23 53t55 22zM115 -38q32 0 55 -22.5t23 -53.5t-23 -53.5t-55 -22.5q-33 0 -55.5 22.5t-22.5 54.5q0 31 23 53t55 22z" />
    <glyph glyph-name="uni1ECC" unicode="&#x1ecc;" horiz-adv-x="762" 
d="M381 683q145 0 248.5 -103t103.5 -247q0 -143 -103.5 -246t-247.5 -103q-147 0 -250 103t-103 251q0 140 105 242.5t247 102.5zM381 558q-89 0 -153 -65.5t-64 -156.5q0 -95 63 -161t154 -66q89 0 153 66t64 158q0 94 -63.5 159.5t-153.5 65.5zM381 -38q32 0 55 -22.5
t23 -53.5q0 -32 -23 -54t-56 -22q-32 0 -54.5 22.5t-22.5 54.5q0 31 23 53t55 22z" />
    <glyph glyph-name="uni1ECD" unicode="&#x1ecd;" horiz-adv-x="520" 
d="M264 459q97 0 166 -69.5t69 -167.5q0 -100 -68.5 -169t-169.5 -69t-170 69t-69 171q0 100 69.5 167.5t172.5 67.5zM262 343q-50 0 -80.5 -33t-30.5 -88t30.5 -89t79.5 -34q48 0 78.5 34t30.5 87q0 55 -30 89t-78 34zM260 -38q32 0 55 -22.5t23 -53.5t-23 -53.5t-55 -22.5
q-33 0 -55.5 22.5t-22.5 54.5q0 31 23 53t55 22z" />
    <glyph glyph-name="uni1ECE" unicode="&#x1ece;" horiz-adv-x="762" 
d="M381 683q145 0 248.5 -103t103.5 -247q0 -143 -103.5 -246t-247.5 -103q-147 0 -250 103t-103 251q0 140 105 242.5t247 102.5zM381 558q-89 0 -153 -65.5t-64 -156.5q0 -95 63 -161t154 -66q89 0 153 66t64 158q0 94 -63.5 159.5t-153.5 65.5zM449 716v-12h-115
q2 37 4.5 48t14.5 27q13 17 13 21q0 6 -10 6q-7 0 -43 -12l-39 93q63 23 98 23q52 0 84 -25t32 -65q0 -30 -20 -59l-16 -24q-3 -6 -3 -21z" />
    <glyph glyph-name="uni1ECF" unicode="&#x1ecf;" horiz-adv-x="520" 
d="M264 459q97 0 166 -69.5t69 -167.5q0 -100 -68.5 -169t-169.5 -69t-170 69t-69 171q0 100 69.5 167.5t172.5 67.5zM262 343q-50 0 -80.5 -33t-30.5 -88t30.5 -89t79.5 -34q48 0 78.5 34t30.5 87q0 55 -30 89t-78 34zM329 497h-115q1 35 4 47t14 28q13 17 13 21q0 6 -10 6
q-9 0 -27 -6q-3 -1 -5 -2t-3.5 -1.5t-3.5 -1t-4 -1.5l-38 93q63 23 97 23q52 0 84 -25t32 -65q0 -30 -20 -59l-15 -24q-4 -5 -4 -21q0 -7 1 -12z" />
    <glyph glyph-name="uni1ED0" unicode="&#x1ed0;" horiz-adv-x="762" 
d="M381 683q145 0 248.5 -103t103.5 -247q0 -143 -103.5 -246t-247.5 -103q-147 0 -250 103t-103 251q0 140 105 242.5t247 102.5zM381 558q-89 0 -153 -65.5t-64 -156.5q0 -95 63 -161t154 -66q89 0 153 66t64 158q0 94 -63.5 159.5t-153.5 65.5zM651 903l-125 -121l40 -42
l-97 -47l-88 82l-87 -82l-98 47l146 153h79l32 -34l79 106z" />
    <glyph glyph-name="uni1ED1" unicode="&#x1ed1;" horiz-adv-x="520" 
d="M264 459q97 0 166 -69.5t69 -167.5q0 -100 -68.5 -169t-169.5 -69t-170 69t-69 171q0 100 69.5 167.5t172.5 67.5zM262 343q-50 0 -80.5 -33t-30.5 -88t30.5 -89t79.5 -34q48 0 78.5 34t30.5 87q0 55 -30 89t-78 34zM300 677l28 -29l119 158l119 -62l-162 -156l-61 44
l102 -108l-97 -46l-88 85l-87 -85l-97 46l145 153h79z" />
    <glyph glyph-name="uni1ED2" unicode="&#x1ed2;" horiz-adv-x="762" 
d="M381 683q145 0 248.5 -103t103.5 -247q0 -143 -103.5 -246t-247.5 -103q-147 0 -250 103t-103 251q0 140 105 242.5t247 102.5zM381 558q-89 0 -153 -65.5t-64 -156.5q0 -95 63 -161t154 -66q89 0 153 66t64 158q0 94 -63.5 159.5t-153.5 65.5zM566 740l-97 -47l-88 83
l-87 -83l-98 47l146 153h79zM590 757l-163 158l119 62l130 -172z" />
    <glyph glyph-name="uni1ED3" unicode="&#x1ed3;" horiz-adv-x="520" 
d="M264 459q97 0 166 -69.5t69 -167.5q0 -100 -68.5 -169t-169.5 -69t-170 69t-69 171q0 100 69.5 167.5t172.5 67.5zM262 343q-50 0 -80.5 -33t-30.5 -88t30.5 -89t79.5 -34q48 0 78.5 34t30.5 87q0 55 -30 89t-78 34zM221 677h79l145 -153l-97 -46l-88 85l-87 -85l-97 46z
M422 583l-163 157l120 62l129 -172z" />
    <glyph glyph-name="uni1ED4" unicode="&#x1ed4;" horiz-adv-x="762" 
d="M381 683q145 0 248.5 -103t103.5 -247q0 -143 -103.5 -246t-247.5 -103q-147 0 -250 103t-103 251q0 140 105 242.5t247 102.5zM381 558q-89 0 -153 -65.5t-64 -156.5q0 -95 63 -161t154 -66q89 0 153 66t64 158q0 94 -63.5 159.5t-153.5 65.5zM603 767h-63l26 -27
l-97 -47l-88 83l-87 -83l-98 47l146 153h79l73 -78l2 3q2 5 5 10l1 3q4 10 16 28q2 10 -8 10q-9 0 -27 -6q-14 -5 -17 -6l-38 93q64 23 97 23q53 0 85 -25t32 -65q0 -30 -20 -59l-16 -24q-3 -4 -3 -21v-12z" />
    <glyph glyph-name="uni1ED5" unicode="&#x1ed5;" horiz-adv-x="520" 
d="M264 459q97 0 166 -69.5t69 -167.5q0 -100 -68.5 -169t-169.5 -69t-170 69t-69 171q0 100 69.5 167.5t172.5 67.5zM262 343q-50 0 -80.5 -33t-30.5 -88t30.5 -89t79.5 -34q48 0 78.5 34t30.5 87q0 55 -30 89t-78 34zM216 677h79l44 -46q4 12 10 23l8 14q3 8 10 18
q3 10 -8 10q-9 0 -27 -6l-16 -6l-39 93q65 23 98 23q52 0 84 -25t32 -65q0 -30 -20 -59l-16 -24q-3 -5 -3 -21v-12h-78l66 -70l-97 -46l-87 85l-88 -85l-97 46z" />
    <glyph glyph-name="uni1ED6" unicode="&#x1ed6;" horiz-adv-x="762" 
d="M381 683q145 0 248.5 -103t103.5 -247q0 -143 -103.5 -246t-247.5 -103q-147 0 -250 103t-103 251q0 140 105 242.5t247 102.5zM381 558q-89 0 -153 -65.5t-64 -156.5q0 -95 63 -161t154 -66q89 0 153 66t64 158q0 94 -63.5 159.5t-153.5 65.5zM381 762l-87 -80l-98 45
l146 147h79l145 -147l-98 -45zM438 1029l106 -23q-4 -52 -19 -77q-26 -43 -85 -43q-42 0 -79 20q-15 9 -26 9q-5 0 -6.5 -4.5t-6.5 -31.5l-104 23q12 120 107 120q35 0 79 -22q16 -8 24 -8q4 0 5.5 4.5t4.5 32.5z" />
    <glyph glyph-name="uni1ED7" unicode="&#x1ed7;" horiz-adv-x="520" 
d="M264 459q97 0 166 -69.5t69 -167.5q0 -100 -68.5 -169t-169.5 -69t-170 69t-69 171q0 100 69.5 167.5t172.5 67.5zM262 343q-50 0 -80.5 -33t-30.5 -88t30.5 -89t79.5 -34q48 0 78.5 34t30.5 87q0 55 -30 89t-78 34zM260 564l-87 -81l-97 45l145 148h79l145 -148l-97 -45
zM317 837l107 -23q-5 -53 -20 -77q-26 -43 -85 -43q-41 0 -79 20q-15 9 -26 9q-4 0 -6 -4.5t-7 -31.5l-104 23q13 120 107 120q35 0 79 -22q16 -8 24 -8q5 0 6 4.5t4 32.5z" />
    <glyph glyph-name="uni1ED8" unicode="&#x1ed8;" horiz-adv-x="762" 
d="M381 683q145 0 248.5 -103t103.5 -247q0 -143 -103.5 -246t-247.5 -103q-147 0 -250 103t-103 251q0 140 105 242.5t247 102.5zM381 558q-89 0 -153 -65.5t-64 -156.5q0 -95 63 -161t154 -66q89 0 153 66t64 158q0 94 -63.5 159.5t-153.5 65.5zM381 776l-87 -83l-98 47
l146 153h79l145 -153l-97 -47zM381 -38q32 0 55 -22.5t23 -53.5q0 -32 -23 -54t-56 -22q-32 0 -54.5 22.5t-22.5 54.5q0 31 23 53t55 22z" />
    <glyph glyph-name="uni1ED9" unicode="&#x1ed9;" horiz-adv-x="520" 
d="M264 459q97 0 166 -69.5t69 -167.5q0 -100 -68.5 -169t-169.5 -69t-170 69t-69 171q0 100 69.5 167.5t172.5 67.5zM262 343q-50 0 -80.5 -33t-30.5 -88t30.5 -89t79.5 -34q48 0 78.5 34t30.5 87q0 55 -30 89t-78 34zM445 535l-97 -46l-88 85l-87 -85l-97 46l145 153h79z
M260 -38q32 0 55 -22.5t23 -53.5t-23 -53.5t-55 -22.5q-33 0 -55.5 22.5t-22.5 54.5q0 31 23 53t55 22z" />
    <glyph glyph-name="uni1EDA" unicode="&#x1eda;" horiz-adv-x="776" 
d="M589 724l99 49q39 -28 58.5 -58t19.5 -75q0 -79 -79 -135q46 -82 46 -173q0 -142 -104 -245t-248 -103q-145 0 -248.5 103t-103.5 246q0 144 104 247t249 103q134 0 233 -90q37 19 37 47q0 21 -11.5 36.5t-51.5 47.5zM381 558q-89 0 -153 -65.5t-64 -156.5q0 -95 63 -161
t154 -66q89 0 153 66t64 158q0 94 -63.5 159.5t-153.5 65.5zM433 911l120 -62l-163 -157l-86 47z" />
    <glyph glyph-name="uni1EDB" unicode="&#x1edb;" horiz-adv-x="569" 
d="M389 500l98 49q40 -28 59.5 -58t19.5 -75q0 -78 -76 -132q9 -32 9 -62q0 -100 -68.5 -169t-169.5 -69t-170 68.5t-69 169.5q0 100 69 168.5t170 68.5q104 0 175 -76q16 13 16 34q0 20 -11.5 35.5t-51.5 47.5zM262 344q-50 0 -80.5 -33.5t-30.5 -88.5t30.5 -89t79.5 -34
q48 0 78.5 34t30.5 87q0 55 -30 89.5t-78 34.5zM296 707l120 -62l-163 -158l-86 48z" />
    <glyph glyph-name="uni1EDC" unicode="&#x1edc;" horiz-adv-x="776" 
d="M589 724l99 49q39 -28 58.5 -58t19.5 -75q0 -79 -79 -135q46 -82 46 -173q0 -142 -104 -245t-248 -103q-145 0 -248.5 103t-103.5 246q0 144 104 247t249 103q134 0 233 -90q37 19 37 47q0 21 -11.5 36.5t-51.5 47.5zM381 558q-89 0 -153 -65.5t-64 -156.5q0 -95 63 -161
t154 -66q89 0 153 66t64 158q0 94 -63.5 159.5t-153.5 65.5zM372 692l-163 157l120 62l129 -172z" />
    <glyph glyph-name="uni1EDD" unicode="&#x1edd;" horiz-adv-x="569" 
d="M389 500l98 49q40 -28 59.5 -58t19.5 -75q0 -78 -76 -132q9 -32 9 -62q0 -100 -68.5 -169t-169.5 -69t-170 68.5t-69 169.5q0 100 69 168.5t170 68.5q104 0 175 -76q16 13 16 34q0 20 -11.5 35.5t-51.5 47.5zM262 344q-50 0 -80.5 -33.5t-30.5 -88.5t30.5 -89t79.5 -34
q48 0 78.5 34t30.5 87q0 55 -30 89.5t-78 34.5zM257 487l-162 158l119 62l130 -172z" />
    <glyph glyph-name="uni1EDE" unicode="&#x1ede;" horiz-adv-x="776" 
d="M589 724l99 49q39 -28 58.5 -58t19.5 -75q0 -79 -79 -135q46 -82 46 -173q0 -142 -104 -245t-248 -103q-145 0 -248.5 103t-103.5 246q0 144 104 247t249 103q134 0 233 -90q37 19 37 47q0 21 -11.5 36.5t-51.5 47.5zM381 558q-89 0 -153 -65.5t-64 -156.5q0 -95 63 -161
t154 -66q89 0 153 66t64 158q0 94 -63.5 159.5t-153.5 65.5zM458 711v-7h-115q1 36 3.5 47.5t14.5 27.5q13 17 13 21q0 6 -10 6q-7 0 -43 -12l-38 93q62 23 97 23q52 0 84 -25t32 -65q0 -31 -19 -59l-16 -24q-3 -3 -3 -26z" />
    <glyph glyph-name="uni1EDF" unicode="&#x1edf;" horiz-adv-x="569" 
d="M389 500l98 49q40 -28 59.5 -58t19.5 -75q0 -78 -76 -132q9 -32 9 -62q0 -100 -68.5 -169t-169.5 -69t-170 68.5t-69 169.5q0 100 69 168.5t170 68.5q104 0 175 -76q16 13 16 34q0 20 -11.5 35.5t-51.5 47.5zM262 344q-50 0 -80.5 -33.5t-30.5 -88.5t30.5 -89t79.5 -34
q48 0 78.5 34t30.5 87q0 55 -30 89.5t-78 34.5zM332 509v-12h-115q2 37 4.5 48t14.5 27q13 17 13 21q0 6 -10 6q-7 0 -43 -12l-39 93q64 23 98 23q52 0 84 -25t32 -65q0 -30 -20 -59l-16 -24q-3 -4 -3 -21z" />
    <glyph glyph-name="uni1EE0" unicode="&#x1ee0;" horiz-adv-x="776" 
d="M589 724l99 49q39 -28 58.5 -58t19.5 -75q0 -79 -79 -135q46 -82 46 -173q0 -142 -104 -245t-248 -103q-145 0 -248.5 103t-103.5 246q0 144 104 247t249 103q134 0 233 -90q37 19 37 47q0 21 -11.5 36.5t-51.5 47.5zM381 558q-89 0 -153 -65.5t-64 -156.5q0 -95 63 -161
t154 -66q89 0 153 66t64 158q0 94 -63.5 159.5t-153.5 65.5zM436 873l107 -24q-9 -125 -105 -125q-40 0 -79 21q-15 9 -25 9q-4 0 -6 -3q0 -1 -7 -33l-105 23q13 125 108 125q33 0 78 -24q16 -8 24 -8q4 0 5.5 5t4.5 34z" />
    <glyph glyph-name="uni1EE1" unicode="&#x1ee1;" horiz-adv-x="569" 
d="M389 500l98 49q40 -28 59.5 -58t19.5 -75q0 -78 -76 -132q9 -32 9 -62q0 -100 -68.5 -169t-169.5 -69t-170 68.5t-69 169.5q0 100 69 168.5t170 68.5q104 0 175 -76q16 13 16 34q0 20 -11.5 35.5t-51.5 47.5zM262 344q-50 0 -80.5 -33.5t-30.5 -88.5t30.5 -89t79.5 -34
q48 0 78.5 34t30.5 87q0 55 -30 89.5t-78 34.5zM316 669l107 -24q-9 -125 -105 -125q-40 0 -79 21q-15 9 -25 9q-4 0 -6 -3q-1 -1 -7 -33l-105 23q13 125 108 125q33 0 78 -24q16 -8 24 -8q4 0 5.5 5t4.5 34z" />
    <glyph glyph-name="uni1EE2" unicode="&#x1ee2;" horiz-adv-x="776" 
d="M589 724l99 49q39 -28 58.5 -58t19.5 -75q0 -79 -79 -135q46 -82 46 -173q0 -142 -104 -245t-248 -103q-145 0 -248.5 103t-103.5 246q0 144 104 247t249 103q134 0 233 -90q37 19 37 47q0 21 -11.5 36.5t-51.5 47.5zM381 558q-89 0 -153 -65.5t-64 -156.5q0 -95 63 -161
t154 -66q89 0 153 66t64 158q0 94 -63.5 159.5t-153.5 65.5zM381 -38q32 0 55 -22.5t23 -53.5q0 -32 -23 -54t-56 -22q-32 0 -54.5 22.5t-22.5 54.5q0 31 23 53t55 22z" />
    <glyph glyph-name="uni1EE3" unicode="&#x1ee3;" horiz-adv-x="569" 
d="M389 500l98 49q40 -28 59.5 -58t19.5 -75q0 -78 -76 -132q9 -32 9 -62q0 -100 -68.5 -169t-169.5 -69t-170 68.5t-69 169.5q0 100 69 168.5t170 68.5q104 0 175 -76q16 13 16 34q0 20 -11.5 35.5t-51.5 47.5zM262 344q-50 0 -80.5 -33.5t-30.5 -88.5t30.5 -89t79.5 -34
q48 0 78.5 34t30.5 87q0 55 -30 89.5t-78 34.5zM260 -38q32 0 55 -22.5t23 -53.5t-23 -53.5t-55 -22.5q-33 0 -55.5 22.5t-22.5 54.5q0 31 23 53t55 22z" />
    <glyph glyph-name="uni1EE4" unicode="&#x1ee4;" horiz-adv-x="642" 
d="M67 667h133v-409q0 -72 14 -96q13 -23 43.5 -38t63.5 -15t63.5 15t43.5 38q14 24 14 96v409h133v-427q0 -84 -30 -135q-32 -56 -93 -88.5t-131 -32.5t-131 32.5t-94 88.5q-29 51 -29 135v427zM321 -38q32 0 55 -22.5t23 -53.5q0 -32 -23 -54t-56 -22q-32 0 -54.5 22.5
t-22.5 54.5q0 31 23 53t55 22z" />
    <glyph glyph-name="uni1EE5" unicode="&#x1ee5;" horiz-adv-x="510" 
d="M460 0h-128v21q-45 -37 -101 -37q-47 0 -89 23.5t-64 63.5q-28 49 -28 133v239h128v-232q0 -62 16 -86.5t56 -24.5q28 0 45.5 9.5t25 28.5t9.5 36.5t2 45.5v223h128v-443zM255 -38q32 0 55 -22.5t23 -53.5t-23 -53.5t-55 -22.5q-33 0 -55.5 22.5t-22.5 54.5q0 31 23 53
t55 22z" />
    <glyph glyph-name="uni1EE6" unicode="&#x1ee6;" horiz-adv-x="642" 
d="M67 667h133v-409q0 -72 14 -96q13 -23 43.5 -38t63.5 -15t63.5 15t43.5 38q14 24 14 96v409h133v-427q0 -84 -30 -135q-32 -56 -93 -88.5t-131 -32.5t-131 32.5t-94 88.5q-29 51 -29 135v427zM387 714v-10h-115q2 35 5 47.5t14 27.5q13 15 13 21t-10 6q-7 0 -43 -12
l-39 93q62 23 98 23q52 0 84 -25t32 -65q0 -30 -20 -59l-16 -24q-3 -6 -3 -23z" />
    <glyph glyph-name="uni1EE7" unicode="&#x1ee7;" horiz-adv-x="510" 
d="M460 0h-128v21q-45 -37 -101 -37q-47 0 -89 23.5t-64 63.5q-28 49 -28 133v239h128v-232q0 -62 16 -86.5t56 -24.5q28 0 45.5 9.5t25 28.5t9.5 36.5t2 45.5v223h128v-443zM321 509v-12h-115q2 37 4.5 48t14.5 27q13 17 13 21q0 6 -10 6q-7 0 -43 -12l-39 93q64 23 98 23
q52 0 84 -25t32 -65q0 -30 -20 -59l-16 -24q-3 -4 -3 -21z" />
    <glyph glyph-name="uni1EE8" unicode="&#x1ee8;" horiz-adv-x="704" 
d="M442 667h133v-67q25 18 25 41q0 20 -11.5 35.5t-51.5 47.5l98 49q22 -16 37 -29q42 -42 42 -105q0 -106 -128 -158l-11 -5v-236q0 -84 -30 -135q-32 -56 -93 -88.5t-131 -32.5t-131 32.5t-94 88.5q-29 51 -29 135v427h133v-409q0 -72 14 -96q13 -23 43.5 -38t63.5 -15
t63.5 15t43.5 38q14 24 14 96v409zM368 911l120 -62l-163 -157l-86 47z" />
    <glyph glyph-name="uni1EE9" unicode="&#x1ee9;" horiz-adv-x="605" 
d="M332 443h128v-69q28 17 28 43q0 20 -11.5 35.5t-51.5 47.5l98 49q40 -28 59.5 -58t19.5 -75q0 -56 -33.5 -95t-108.5 -70v-251h-128v21q-45 -37 -101 -37q-47 0 -89 23.5t-64 63.5q-28 49 -28 133v239h128v-232q0 -62 16 -86.5t56 -24.5q28 0 45.5 9.5t25 28.5t9.5 36.5
t2 45.5v223zM298 707l119 -62l-163 -158l-86 48z" />
    <glyph glyph-name="uni1EEA" unicode="&#x1eea;" horiz-adv-x="704" 
d="M442 667h133v-67q25 18 25 41q0 20 -11.5 35.5t-51.5 47.5l98 49q22 -16 37 -29q42 -42 42 -105q0 -106 -128 -158l-11 -5v-236q0 -84 -30 -135q-32 -56 -93 -88.5t-131 -32.5t-131 32.5t-94 88.5q-29 51 -29 135v427h133v-409q0 -72 14 -96q13 -23 43.5 -38t63.5 -15
t63.5 15t43.5 38q14 24 14 96v409zM312 692l-162 157l119 62l130 -172z" />
    <glyph glyph-name="uni1EEB" unicode="&#x1eeb;" horiz-adv-x="605" 
d="M332 443h128v-69q28 17 28 43q0 20 -11.5 35.5t-51.5 47.5l98 49q40 -28 59.5 -58t19.5 -75q0 -56 -33.5 -95t-108.5 -70v-251h-128v21q-45 -37 -101 -37q-47 0 -89 23.5t-64 63.5q-28 49 -28 133v239h128v-232q0 -62 16 -86.5t56 -24.5q28 0 45.5 9.5t25 28.5t9.5 36.5
t2 45.5v223zM247 487l-163 158l120 62l129 -172z" />
    <glyph glyph-name="uni1EEC" unicode="&#x1eec;" horiz-adv-x="704" 
d="M442 667h133v-67q25 18 25 41q0 20 -11.5 35.5t-51.5 47.5l98 49q22 -16 37 -29q42 -42 42 -105q0 -106 -128 -158l-11 -5v-236q0 -84 -30 -135q-32 -56 -93 -88.5t-131 -32.5t-131 32.5t-94 88.5q-29 51 -29 135v427h133v-409q0 -72 14 -96q13 -23 43.5 -38t63.5 -15
t63.5 15t43.5 38q14 24 14 96v409zM395 714v-10h-115q1 36 4 48t14 27q13 15 13 21t-10 6q-7 0 -43 -12l-38 93q62 23 97 23q52 0 84 -25t32 -65q0 -29 -19 -59l-16 -24q-3 -3 -3 -23z" />
    <glyph glyph-name="uni1EED" unicode="&#x1eed;" horiz-adv-x="605" 
d="M332 443h128v-69q28 17 28 43q0 20 -11.5 35.5t-51.5 47.5l98 49q40 -28 59.5 -58t19.5 -75q0 -56 -33.5 -95t-108.5 -70v-251h-128v21q-45 -37 -101 -37q-47 0 -89 23.5t-64 63.5q-28 49 -28 133v239h128v-232q0 -62 16 -86.5t56 -24.5q28 0 45.5 9.5t25 28.5t9.5 36.5
t2 45.5v223zM325 507v-10h-115q1 35 4 47.5t15 27.5q13 17 13 21q0 6 -10 6q-9 0 -27 -6q-3 -1 -5 -2t-3.5 -1.5t-3.5 -1t-4 -1.5l-39 93q64 23 98 23q52 0 84 -25t32 -65q0 -28 -20 -59l-16 -24q-3 -3 -3 -23z" />
    <glyph glyph-name="uni1EEE" unicode="&#x1eee;" horiz-adv-x="704" 
d="M442 667h133v-67q25 18 25 41q0 20 -11.5 35.5t-51.5 47.5l98 49q22 -16 37 -29q42 -42 42 -105q0 -106 -128 -158l-11 -5v-236q0 -84 -30 -135q-32 -56 -93 -88.5t-131 -32.5t-131 32.5t-94 88.5q-29 51 -29 135v427h133v-409q0 -72 14 -96q13 -23 43.5 -38t63.5 -15
t63.5 15t43.5 38q14 24 14 96v409zM377 873l107 -24q-10 -125 -104 -125q-40 0 -79 21q-15 9 -26 9q-5 0 -6 -3l-1 -4q-1 -4 -2.5 -12t-3.5 -17l-104 23q12 125 107 125q33 0 79 -24q14 -8 23 -8q5 0 6 5t4 34z" />
    <glyph glyph-name="uni1EEF" unicode="&#x1eef;" horiz-adv-x="605" 
d="M332 443h128v-69q28 17 28 43q0 20 -11.5 35.5t-51.5 47.5l98 49q40 -28 59.5 -58t19.5 -75q0 -56 -33.5 -95t-108.5 -70v-251h-128v21q-45 -37 -101 -37q-47 0 -89 23.5t-64 63.5q-28 49 -28 133v239h128v-232q0 -62 16 -86.5t56 -24.5q28 0 45.5 9.5t25 28.5t9.5 36.5
t2 45.5v223zM309 669l106 -24q-10 -125 -104 -125q-40 0 -79 21q-15 9 -26 9q-7 -4 -13 -36l-104 23q12 125 107 125q34 0 79 -24q16 -8 23 -8q5 0 6.5 5t4.5 34z" />
    <glyph glyph-name="uni1EF0" unicode="&#x1ef0;" horiz-adv-x="704" 
d="M442 667h133v-67q25 18 25 41q0 20 -11.5 35.5t-51.5 47.5l98 49q22 -16 37 -29q42 -42 42 -105q0 -106 -128 -158l-11 -5v-236q0 -84 -30 -135q-32 -56 -93 -88.5t-131 -32.5t-131 32.5t-94 88.5q-29 51 -29 135v427h133v-409q0 -72 14 -96q13 -23 43.5 -38t63.5 -15
t63.5 15t43.5 38q14 24 14 96v409zM321 -38q32 0 55 -22.5t23 -53.5t-23 -53.5t-55 -22.5q-33 0 -55.5 22.5t-22.5 54.5q0 31 23 53t55 22z" />
    <glyph glyph-name="uni1EF1" unicode="&#x1ef1;" horiz-adv-x="605" 
d="M332 443h128v-69q28 17 28 43q0 20 -11.5 35.5t-51.5 47.5l98 49q40 -28 59.5 -58t19.5 -75q0 -56 -33.5 -95t-108.5 -70v-251h-128v21q-45 -37 -101 -37q-47 0 -89 23.5t-64 63.5q-28 49 -28 133v239h128v-232q0 -62 16 -86.5t56 -24.5q28 0 45.5 9.5t25 28.5t9.5 36.5
t2 45.5v223zM255 -38q32 0 55 -22.5t23 -53.5q0 -32 -23 -54t-56 -22q-32 0 -54.5 22.5t-22.5 54.5q0 31 23 53t55 22z" />
    <glyph glyph-name="Ygrave" unicode="&#x1ef2;" horiz-adv-x="552" 
d="M209 0v276l-222 391h149l140 -254l140 254h149l-223 -391v-276h-133zM276 692l-163 157l120 62l129 -172z" />
    <glyph glyph-name="ygrave" unicode="&#x1ef3;" horiz-adv-x="474" 
d="M50 -233l113 256l-175 420h137l108 -264l117 264h137l-302 -676h-135zM240 487l-162 158l119 62l130 -172z" />
    <glyph glyph-name="uni1EF4" unicode="&#x1ef4;" horiz-adv-x="552" 
d="M209 0v276l-222 391h149l140 -254l140 254h149l-223 -391v-276h-133zM276 -38q32 0 55 -22.5t23 -53.5q0 -32 -23 -54t-56 -22q-32 0 -54.5 22.5t-22.5 54.5q0 31 23 53t55 22z" />
    <glyph glyph-name="uni1EF5" unicode="&#x1ef5;" horiz-adv-x="474" 
d="M50 -233l113 256l-175 420h137l108 -264l117 264h137l-302 -676h-135zM358 -38q32 0 55 -22.5t23 -53.5q0 -32 -23 -54t-56 -22q-32 0 -54.5 22.5t-22.5 54.5q0 31 23 53t55 22z" />
    <glyph glyph-name="uni1EF6" unicode="&#x1ef6;" horiz-adv-x="552" 
d="M209 0v276l-222 391h149l140 -254l140 254h149l-223 -391v-276h-133zM344 714v-10h-115q2 35 5 47.5t14 27.5q13 15 13 21t-10 6q-9 0 -27 -6q-2 -1 -4.5 -2t-4 -1.5t-3.5 -1t-4 -1.5l-39 93q63 23 98 23q52 0 84 -25t32 -65q0 -30 -20 -59l-16 -24q-3 -6 -3 -23z" />
    <glyph glyph-name="uni1EF7" unicode="&#x1ef7;" horiz-adv-x="474" 
d="M50 -233l113 256l-175 420h137l108 -264l117 264h137l-302 -676h-135zM306 509v-12h-115q1 35 4 47t14 28q13 17 13 21q0 6 -10 6q-7 0 -43 -12l-38 93q63 23 97 23q52 0 84 -25t32 -65q0 -31 -19 -59l-16 -24q-3 -2 -3 -21z" />
    <glyph glyph-name="uni1EF8" unicode="&#x1ef8;" horiz-adv-x="552" 
d="M209 0v276l-222 391h149l140 -254l140 254h149l-223 -391v-276h-133zM333 873l106 -24q-4 -55 -20 -81q-26 -44 -84 -44q-40 0 -79 21q-15 9 -26 9q-7 -5 -13 -36l-104 23q12 125 107 125q34 0 79 -24q16 -8 24 -8q5 0 6 5t4 34z" />
    <glyph glyph-name="uni1EF9" unicode="&#x1ef9;" horiz-adv-x="474" 
d="M50 -233l113 256l-175 420h137l108 -264l117 264h137l-302 -676h-135zM294 669l107 -24q-10 -125 -105 -125q-40 0 -79 21q-15 9 -26 9q-5 -4 -13 -36l-104 23q12 125 107 125q34 0 79 -24q16 -8 24 -8q4 0 5.5 5t4.5 34z" />
    <glyph glyph-name="uni2002" unicode="&#x2002;" horiz-adv-x="500" 
 />
    <glyph glyph-name="uni2003" unicode="&#x2003;" horiz-adv-x="1000" 
 />
    <glyph glyph-name="uni2004" unicode="&#x2004;" horiz-adv-x="333" 
 />
    <glyph glyph-name="uni2005" unicode="&#x2005;" horiz-adv-x="250" 
 />
    <glyph glyph-name="uni2006" unicode="&#x2006;" horiz-adv-x="67" 
 />
    <glyph glyph-name="uni2007" unicode="&#x2007;" horiz-adv-x="556" 
 />
    <glyph glyph-name="uni2009" unicode="&#x2009;" horiz-adv-x="125" 
 />
    <glyph glyph-name="uni200A" unicode="&#x200a;" horiz-adv-x="33" 
 />
    <glyph glyph-name="uni2011" unicode="&#x2011;" horiz-adv-x="284" 
d="M22 253v118h240v-118h-240z" />
    <glyph glyph-name="figuredash" unicode="&#x2012;" horiz-adv-x="431" 
d="M22 253v118h386v-118h-386z" />
    <glyph glyph-name="endash" unicode="&#x2013;" horiz-adv-x="431" 
d="M22 253v118h386v-118h-386z" />
    <glyph glyph-name="emdash" unicode="&#x2014;" horiz-adv-x="500" 
d="M-20 253v118h540v-118h-540z" />
    <glyph glyph-name="afii00208" unicode="&#x2015;" horiz-adv-x="500" 
d="M-20 253v118h540v-118h-540z" />
    <glyph glyph-name="underscoredbl" unicode="&#x2017;" horiz-adv-x="528" 
d="M-13 -141v105h553v-105h-553zM-13 -286v105h553v-105h-553z" />
    <glyph glyph-name="quoteleft" unicode="&#x2018;" horiz-adv-x="305" 
d="M262 696l-101 -279l-117 42l123 275z" />
    <glyph glyph-name="quoteright" unicode="&#x2019;" horiz-adv-x="272" 
d="M21 455l101 279l117 -43l-123 -275z" />
    <glyph glyph-name="quotesinglbase" unicode="&#x201a;" horiz-adv-x="272" 
d="M21 -148l101 280l117 -43l-123 -275z" />
    <glyph glyph-name="quotereversed" unicode="&#x201b;" horiz-adv-x="272" 
d="M33 691l117 43l101 -279l-95 -39z" />
    <glyph glyph-name="quotedblleft" unicode="&#x201c;" horiz-adv-x="462" 
d="M167 734l95 -38l-101 -280l-117 43zM419 696l-101 -280l-117 43l122 275z" />
    <glyph glyph-name="quotedblright" unicode="&#x201d;" horiz-adv-x="462" 
d="M44 455l101 279l117 -43l-123 -275zM296 416l-95 39l100 279l118 -43z" />
    <glyph glyph-name="quotedblbase" unicode="&#x201e;" horiz-adv-x="462" 
d="M44 -148l101 280l117 -43l-123 -275zM201 -148l100 280l118 -43l-123 -275z" />
    <glyph glyph-name="dagger" unicode="&#x2020;" horiz-adv-x="558" 
d="M214 454v211h130v-211h138v-122h-138v-516h-130v516h-139v122h139z" />
    <glyph glyph-name="daggerdbl" unicode="&#x2021;" horiz-adv-x="558" 
d="M214 -184v211h-139v122h139v183h-139v122h139v211h130v-211h138v-122h-138v-183h138v-122h-138v-211h-130z" />
    <glyph glyph-name="bullet" unicode="&#x2022;" horiz-adv-x="509" 
d="M255 489q77 0 129 -50.5t52 -126.5q0 -75 -52 -126t-129 -51q-79 0 -130.5 51t-51.5 128q0 74 53 124.5t129 50.5z" />
    <glyph glyph-name="ellipsis" unicode="&#x2026;" horiz-adv-x="777" 
d="M140 138q32 0 55 -22.5t23 -53.5t-23 -53.5t-55 -22.5q-33 0 -55.5 22.5t-22.5 54.5q0 31 23 53t55 22zM389 138q32 0 55 -22.5t23 -53.5t-23 -53.5t-55 -22.5q-33 0 -55.5 22.5t-22.5 54.5q0 31 23 53t55 22zM637 138q32 0 55 -22.5t23 -53.5t-23 -53.5t-55 -22.5
q-33 0 -55.5 22.5t-22.5 54.5q0 31 23 53t55 22z" />
    <glyph glyph-name="perthousand" unicode="&#x2030;" horiz-adv-x="1267" 
d="M693 404q166 0 166 -207q0 -206 -165 -206q-163 0 -163 209q0 99 41.5 151.5t120.5 52.5zM695 321q-71 0 -71 -117q0 -67 17 -98.5t54 -31.5q71 0 71 122q0 125 -71 125zM1064 404q166 0 166 -207q0 -206 -165 -206q-164 0 -164 209q0 99 42 151.5t121 52.5zM1066 321
q-72 0 -72 -117q0 -68 17.5 -99t54.5 -31q71 0 71 122q0 125 -71 125zM199 676q166 0 166 -207q0 -101 -41.5 -153.5t-121.5 -52.5q-165 0 -165 209q0 99 41.5 151.5t120.5 52.5zM201 593q-71 0 -71 -117q0 -67 17 -98.5t54 -31.5q71 0 71 123q0 124 -71 124zM222 25
l380 658l72 -42l-380 -657z" />
    <glyph glyph-name="minute" unicode="&#x2032;" horiz-adv-x="214" 
d="M-46 455l100 279l117 -43l-122 -274z" />
    <glyph glyph-name="second" unicode="&#x2033;" horiz-adv-x="371" 
d="M-46 455l100 279l117 -43l-122 -274zM111 455l100 279l116 -43l-122 -274z" />
    <glyph glyph-name="guilsinglleft" unicode="&#x2039;" horiz-adv-x="329" 
d="M291 377l-122 -155l122 -151l-88 -70l-179 220l179 225z" />
    <glyph glyph-name="guilsinglright" unicode="&#x203a;" horiz-adv-x="329" 
d="M38 71l122 151l-122 155l88 69l179 -225l-179 -220z" />
    <glyph glyph-name="uni203E" unicode="&#x203e;" horiz-adv-x="528" 
d="M-13 739v118h553v-118h-553z" />
    <glyph glyph-name="fraction" unicode="&#x2044;" horiz-adv-x="180" 
d="M-136 25l380 658l72 -42l-380 -657z" />
    <glyph glyph-name="zerosuperior" unicode="&#x2070;" 
d="M191 810q166 0 166 -207q0 -206 -165 -206q-163 0 -163 209q0 99 41.5 151.5t120.5 52.5zM193 727q-71 0 -71 -121q0 -126 71 -126t71 122q0 125 -71 125z" />
    <glyph glyph-name="foursuperior" unicode="&#x2074;" 
d="M213 817l76 -45l-136 -207h55v76h91v-76h42v-82h-42v-77h-91v77h-169v70z" />
    <glyph glyph-name="fivesuperior" unicode="&#x2075;" 
d="M318 719h-135l-8 -38q7 1 16 1q60 0 103 -41.5t43 -98.5q0 -61 -45 -103t-111 -42q-46 0 -80.5 21t-66.5 69l75 49q21 -35 34.5 -45.5t38.5 -10.5q27 0 45 17t18 43t-17.5 43t-44.5 17q-26 0 -45 -19q-1 -2 -5 -6l-71 14l46 212h210v-82z" />
    <glyph glyph-name="sixsuperior" unicode="&#x2076;" 
d="M74 633l139 183l72 -51l-70 -92q58 -7 93 -43.5t35 -89.5q0 -59 -44 -101t-107 -42t-107 41.5t-44 101.5q0 50 33 93zM192 593q-26 0 -43 -16t-17 -40q0 -25 17 -41.5t43 -16.5q25 0 42.5 17t17.5 41q0 25 -16.5 40.5t-43.5 15.5z" />
    <glyph glyph-name="sevensuperior" unicode="&#x2077;" 
d="M150 391l-80 40l164 288h-173v82h286v-61z" />
    <glyph glyph-name="eightsuperior" unicode="&#x2078;" 
d="M92 617q-33 33 -33 74q0 50 39 84.5t95 34.5t95 -34.5t39 -84.5q0 -41 -34 -74q26 -23 36 -43t10 -48q0 -55 -42 -92t-104 -37t-104 37t-42 92q0 50 45 91zM194 574q-25 0 -40.5 -13t-15.5 -35t15 -35t40 -13t40 13t15 35t-15 35t-39 13zM193 731q-21 0 -34 -11.5
t-13 -28.5q0 -19 13 -30t34 -11t34 11t13 29t-13 29.5t-34 11.5z" />
    <glyph glyph-name="ninesuperior" unicode="&#x2079;" 
d="M313 574l-139 -183l-72 50l70 93q-58 7 -93 43.5t-35 89.5q0 59 44 101t107 42t107 -41.5t44 -101.5q0 -47 -33 -93zM195 728q-25 0 -42.5 -17t-17.5 -41q0 -25 16.5 -41t42.5 -16t43.5 16t17.5 41t-17 41.5t-43 16.5z" />
    <glyph glyph-name="zeroinferior" unicode="&#x2080;" 
d="M191 275q166 0 166 -207t-165 -207q-163 0 -163 210q0 99 41.5 151.5t120.5 52.5zM193 192q-71 0 -71 -122q0 -126 71 -126t71 123q0 125 -71 125z" />
    <glyph glyph-name="oneinferior" unicode="&#x2081;" 
d="M256 265v-395h-92v286l-42 -23l-45 73l109 59h70z" />
    <glyph glyph-name="twoinferior" unicode="&#x2082;" 
d="M336 -130h-279v68l143 151q37 38 37 67q0 35 -43 35q-25 0 -36 -11.5t-22 -48.5l-85 22q27 121 143 121q60 0 97 -33t37 -86q0 -59 -45 -105l-92 -97h145v-83z" />
    <glyph glyph-name="threeinferior" unicode="&#x2083;" 
d="M147 36v80h39q48 0 48 38q0 17 -11.5 27.5t-31.5 10.5q-19 0 -30.5 -8t-31.5 -35l-76 40q29 47 59.5 66t77.5 19q58 0 96.5 -34t38.5 -85q0 -43 -32 -75q40 -40 40 -88q0 -57 -41.5 -94t-104.5 -37q-120 0 -144 124l88 22q10 -38 21.5 -50.5t35.5 -12.5t38.5 13t14.5 35
q0 44 -55 44h-39z" />
    <glyph glyph-name="fourinferior" unicode="&#x2084;" 
d="M213 281l76 -45l-136 -206h55v75h91v-75h42v-82h-42v-78h-91v78h-169v70z" />
    <glyph glyph-name="fiveinferior" unicode="&#x2085;" 
d="M318 183h-135l-8 -38q7 1 16 1q60 0 103 -41.5t43 -98.5q0 -61 -45 -103t-111 -42q-47 0 -81.5 21t-65.5 69l75 50q21 -36 34.5 -46.5t38.5 -10.5q27 0 45 17t18 43t-17.5 43.5t-44.5 17.5q-26 0 -45 -20l-5 -5l-71 14l46 211h210v-82z" />
    <glyph glyph-name="sixinferior" unicode="&#x2086;" 
d="M74 97l139 184l72 -51l-70 -93q58 -7 93 -43.5t35 -89.5q0 -59 -44 -101t-107 -42t-107 41.5t-44 101.5q0 47 33 93zM192 58q-26 0 -43 -16t-17 -41t17 -41.5t43 -16.5q25 0 42.5 17t17.5 41q0 25 -17 41t-43 16z" />
    <glyph glyph-name="seveninferior" unicode="&#x2087;" 
d="M150 -145l-80 40l164 288h-173v82h286v-61z" />
    <glyph glyph-name="eightinferior" unicode="&#x2088;" 
d="M92 81q-33 33 -33 75q0 50 39 84.5t95 34.5t95 -34.5t39 -84.5q0 -42 -34 -75q46 -41 46 -91q0 -55 -42 -92t-104 -37t-104 37t-42 92q0 50 45 91zM194 38q-25 0 -40.5 -13t-15.5 -35t15 -35t40 -13t40 13t15 35t-15 35t-39 13zM193 196q-20 0 -33.5 -11.5t-13.5 -29.5
q0 -19 13 -30t34 -11t34 11.5t13 28.5q0 19 -13 30.5t-34 11.5z" />
    <glyph glyph-name="nineinferior" unicode="&#x2089;" 
d="M313 39l-139 -184l-72 51l70 92q-58 8 -93 45t-35 89q0 59 44 101t107 42t107 -42t44 -101q0 -47 -33 -93zM195 193q-25 0 -42.5 -17t-17.5 -41q0 -25 16.5 -41t42.5 -16t43.5 16t17.5 41t-17 41.5t-43 16.5z" />
    <glyph glyph-name="franc" unicode="&#x20a3;" horiz-adv-x="758" 
d="M107 667h360v-123h-227v-145h172v-124h-172v-275h-133v667zM445 399h128v-24q38 27 81 27q14 0 44 -3v-114q-30 3 -44 3q-46 0 -63.5 -25t-17.5 -93v-170h-128v399z" />
    <glyph glyph-name="lira" unicode="&#x20a4;" horiz-adv-x="569" 
d="M253 347l6 -29h182v-99h-166q1 -5 1 -14q0 -42 -23 -83h279v-122h-470v108l6 5q8 6 11 9q43 40 51.5 52.5t10.5 44.5h-79v99h63l-6 29h-57v99h42v18q0 98 60 158.5t157 60.5q67 0 115 -31.5t88 -100.5l-107 -67q-28 44 -48.5 60t-51.5 16q-81 0 -81 -106v-8h205v-99h-188
z" />
    <glyph glyph-name="peseta" unicode="&#x20a7;" horiz-adv-x="606" 
d="M255 0h-133v407h-52v94h52v166h159q98 0 158.5 -38t81.5 -128h57v-94h-57q-22 -90 -82 -127.5t-158 -37.5h-26v-242zM386 407h-131v-46h34q43 1 64 10.5t33 35.5zM255 547v-46h131q-12 26 -32.5 35.5t-64.5 10.5h-34z" />
    <glyph glyph-name="uni20AB" unicode="&#x20ab;" horiz-adv-x="553" 
d="M366 418v79h-112v112h112v58h128v-58h55v-112h-55v-497h-128v25q-55 -41 -116 -41q-95 0 -161.5 69.5t-66.5 168.5q0 98 66.5 167.5t161.5 69.5q61 0 116 -41zM262 343q-50 0 -80.5 -33t-30.5 -88t30 -89t79 -34q47 0 77 34t30 87q0 55 -29 89t-76 34zM29 -158v118h516
v-118h-516z" />
    <glyph glyph-name="Euro" unicode="&#x20ac;" horiz-adv-x="804" 
d="M647 347h-369v-29h358l-42 -99h-286q67 -110 190 -110q55 0 106 28t113 91v-166q-1 -1 -3 -2q-2 -2 -3 -2l-18 -14q-35 -27 -88.5 -43.5t-105.5 -16.5q-115 0 -205.5 63t-131.5 172h-108l42 99h47v29h-89l42 99h66q44 113 132.5 175t205.5 62q70 0 124 -22t123 -78
l-51 -121q-61 54 -104.5 75t-95.5 21q-120 0 -189 -112h383z" />
    <glyph glyph-name="uni20B4" unicode="&#x20b4;" horiz-adv-x="624" 
d="M206 483l-109 69q43 70 92 101t117 31q94 0 156 -56.5t62 -140.5q0 -19 -5 -42h31v-91h-90q-14 -11 -45 -28h135v-91h-306q-20 -17 -20 -35q0 -37 28 -63.5t68 -26.5q52 0 78 43q10 15 25 71l130 -34q-18 -79 -53 -124q-29 -37 -77 -58.5t-101 -21.5q-96 0 -164 62
t-68 150q0 18 4 37h-24v91h72q22 21 34 28h-106v91h300q21 18 21 41q0 32 -23.5 53t-58.5 21q-32 0 -52.5 -15.5t-50.5 -61.5z" />
    <glyph glyph-name="uni2101" unicode="&#x2101;" horiz-adv-x="939" 
d="M373 269l-34 90h-150l-34 -90h-98l156 400h103l116 -298zM220 443h88l-44 119zM284 25l380 658l72 -42l-380 -657zM579 117l91 24q10 -40 22 -54.5t37 -14.5q22 0 37 14t15 34q0 12 -11.5 21t-40.5 20l-35 13q-96 34 -96 112q0 52 39.5 87t98.5 35q45 0 81 -22.5
t56 -63.5l-77 -46q-20 30 -31.5 38.5t-31.5 8.5q-17 0 -29.5 -11t-12.5 -26q0 -21 40 -34l38 -14q106 -38 106 -118q0 -56 -43 -94.5t-105 -38.5q-43 0 -77.5 20t-52.5 55q-8 15 -18 55z" />
    <glyph glyph-name="afii61248" unicode="&#x2105;" horiz-adv-x="1049" 
d="M448 598l-66 -60q-30 32 -52.5 43.5t-53.5 11.5q-53 0 -89 -36t-36 -88t36.5 -88t89.5 -36q50 0 94 44l13 13l66 -60l-14 -13q-68 -68 -159 -68t-155.5 61t-64.5 147q0 87 64.5 148t155.5 61t171 -80zM294 25l380 658l72 -42l-380 -657zM773 406q90 0 154.5 -61.5
t64.5 -147.5t-64.5 -147t-156.5 -61q-90 0 -153.5 62t-63.5 150q0 83 65.5 144t153.5 61zM773 322q-52 0 -88.5 -36t-36.5 -86q0 -53 36 -89.5t88 -36.5q53 0 89.5 36t36.5 88t-36.5 88t-88.5 36z" />
    </font>
</defs>
</svg>
