<?xml version="1.0" standalone="no"?>
<!DOCTYPE svg PUBLIC "-//W3C//DTD SVG 1.1//EN" "http://www.w3.org/Graphics/SVG/1.1/DTD/svg11.dtd" >
<svg xmlns="http://www.w3.org/2000/svg" xmlns:xlink="http://www.w3.org/1999/xlink" version="1.1">
<metadata>
Created by FontForge 20170924 at Tue Mar 12 21:53:56 2019
 By www-data
Copyright 2016 by (URW)++ Design &#38; Development GmbH
</metadata>
<defs>
<font id="URWGeometric-SemiBold" horiz-adv-x="476" >
  <font-face 
    font-family="URW Geometric SemBd"
    font-weight="600"
    font-stretch="normal"
    units-per-em="1000"
    panose-1="1 0 0 0 0 0 0 0 0 0"
    ascent="800"
    descent="-200"
    x-height="443"
    cap-height="667"
    bbox="-130 -261 1222 1077"
    underline-thickness="50"
    underline-position="-225"
    unicode-range="U+0020-FB04"
  />
<missing-glyph horiz-adv-x="237" 
 />
    <glyph glyph-name="ff" unicode="ff" horiz-adv-x="508" 
d="M245 443v-90h-77v-353h-100v353h-43v90h43v74q0 71 30.5 109.5t87.5 38.5q27 0 58 -8v-90q-25 7 -39 7q-37 0 -37 -57v-74h77zM496 443v-90h-78v-353h-100v353h-43v90h43v84q0 71 30.5 109.5t87.5 38.5q27 0 58 -8v-90q-24 7 -39 7q-37 0 -37 -57v-84h78z" />
    <glyph glyph-name="fi" unicode="fi" horiz-adv-x="464" 
d="M245 443v-90h-77v-353h-100v353h-43v90h43v84q0 71 30.5 109.5t87.5 38.5q27 0 58 -8v-90q-24 7 -39 7q-37 0 -37 -57v-84h77zM307 443h100v-443h-100v443zM357 657q27 0 46 -18.5t19 -45.5q0 -26 -19 -45t-45 -19q-28 0 -46.5 19t-18.5 46q0 26 19 44.5t45 18.5z" />
    <glyph glyph-name="fl" unicode="fl" horiz-adv-x="465" 
d="M245 443v-90h-77v-353h-100v353h-43v90h43v84q0 71 30.5 109.5t87.5 38.5q27 0 58 -8v-90q-24 7 -39 7q-37 0 -37 -57v-84h77zM408 667v-667h-100v667h100z" />
    <glyph glyph-name="ffi" unicode="ffi" horiz-adv-x="713" 
d="M245 443v-90h-77v-353h-100v353h-43v90h43v74q0 71 30.5 109.5t87.5 38.5q27 0 58 -8v-90q-25 7 -39 7q-37 0 -37 -57v-74h77zM496 443v-90h-78v-353h-100v353h-43v90h43v84q0 71 30.5 109.5t87.5 38.5q27 0 58 -8v-90q-24 7 -39 7q-37 0 -37 -57v-84h78zM556 443h100
v-443h-100v443zM606 657q27 0 46 -18.5t19 -45.5q0 -26 -19 -45t-45 -19q-28 0 -46.5 19t-18.5 46q0 26 19 44.5t45 18.5z" />
    <glyph glyph-name="ffl" unicode="ffl" horiz-adv-x="714" 
d="M245 443v-90h-77v-353h-100v353h-43v90h43v74q0 71 30.5 109.5t87.5 38.5q27 0 58 -8v-90q-25 7 -39 7q-37 0 -37 -57v-74h77zM496 443v-90h-78v-353h-100v353h-43v90h43v84q0 71 30.5 109.5t87.5 38.5q27 0 58 -8v-90q-24 7 -39 7q-37 0 -37 -57v-84h78zM657 667v-667
h-100v667h100z" />
    <glyph glyph-name=".notdef" horiz-adv-x="237" 
 />
    <glyph glyph-name=".null" horiz-adv-x="0" 
 />
    <glyph glyph-name="nonmarkingreturn" horiz-adv-x="333" 
 />
    <glyph glyph-name="space" unicode=" " horiz-adv-x="237" 
 />
    <glyph glyph-name="exclam" unicode="!" horiz-adv-x="295" 
d="M147 114q27 0 45.5 -18.5t18.5 -44.5t-19 -44.5t-46 -18.5q-26 0 -44.5 18.5t-18.5 45.5q0 25 19 43.5t45 18.5zM194 164h-94l-9 503h112z" />
    <glyph glyph-name="quotedbl" unicode="&#x22;" horiz-adv-x="323" 
d="M140 680l-13 -283h-77l-13 283h103zM287 680l-13 -283h-78l-12 283h103z" />
    <glyph glyph-name="numbersign" unicode="#" horiz-adv-x="588" 
d="M78 4l38 184h-73l16 79h73l27 131h-73l16 79h73l41 203l82 -19l-37 -184h125l41 203l83 -18l-38 -185h73l-16 -79h-73l-27 -131h73l-16 -79h-73l-41 -203l-83 19l38 184h-125l-41 -203zM218 267h125l27 131h-125z" />
    <glyph glyph-name="dollar" unicode="$" horiz-adv-x="577" 
d="M345 -103h-102v93q-151 25 -183 188l101 27q13 -48 22 -65q33 -56 97 -56q48 0 81.5 32.5t33.5 78.5q0 33 -23 55t-79 44l-61 23q-144 56 -144 175q0 68 42 117.5t113 65.5v92h102v-92q46 -10 80 -37.5t65 -78.5l-84 -53q-28 44 -53 61t-61 17q-43 0 -72 -26.5t-29 -66.5
q0 -54 85 -86l63 -24q161 -62 161 -185q0 -70 -42.5 -124.5t-112.5 -75.5v-99z" />
    <glyph glyph-name="percent" unicode="%" horiz-adv-x="898" 
d="M694 403q160 0 160 -206q0 -205 -160 -205q-157 0 -157 208q0 99 40 151t117 52zM696 335q-84 0 -84 -131q0 -144 83 -144q84 0 84 137q0 138 -83 138zM200 675q161 0 161 -206q0 -205 -160 -205q-158 0 -158 208q0 99 40 151t117 52zM202 607q-84 0 -84 -131
q0 -144 84 -144t84 138q0 137 -84 137zM229 18l383 663l56 -33l-383 -662z" />
    <glyph glyph-name="ampersand" unicode="&#x26;" horiz-adv-x="654" 
d="M327 370l136 -162q15 29 40 96l93 -25l-5 -16q-25 -78 -59 -136l107 -127h-123l-45 54q-81 -68 -182 -68q-97 0 -161.5 56t-64.5 139q0 56 31 101t106 98l-1 2q-69 79 -69 147q0 65 44.5 108.5t111.5 43.5q65 0 109 -42.5t44 -104.5q0 -45 -24 -80.5t-88 -83.5zM408 130
l-154 185q-50 -40 -70.5 -69t-20.5 -61q0 -46 36 -76.5t90 -30.5q67 0 119 52zM273 434q47 39 61.5 58.5t14.5 44.5q0 27 -18 44.5t-46 17.5t-46.5 -19t-18.5 -48q0 -33 53 -98z" />
    <glyph glyph-name="quotesingle" unicode="'" horiz-adv-x="177" 
d="M140 680l-13 -283h-77l-13 283h103z" />
    <glyph glyph-name="parenleft" unicode="(" horiz-adv-x="311" 
d="M166 742l89 -42q-77 -195 -77 -424q0 -231 77 -424l-89 -42q-17 38 -23 52q-29 71 -47.5 188.5t-18.5 228.5q0 274 89 463z" />
    <glyph glyph-name="parenright" unicode=")" horiz-adv-x="311" 
d="M146 -190l-89 42q77 195 77 424q0 228 -77 424l89 42q89 -187 89 -463q0 -286 -89 -469z" />
    <glyph glyph-name="asterisk" unicode="*" horiz-adv-x="484" 
d="M60 577l29 89l111 -41l-5 118h94l-5 -118l111 41l29 -89l-114 -32l73 -93l-75 -55l-66 99l-66 -99l-75 55l73 93z" />
    <glyph glyph-name="plus" unicode="+" horiz-adv-x="556" 
d="M33 357h199v200h92v-200h198v-89h-198v-200h-92v200h-199v89z" />
    <glyph glyph-name="comma" unicode="," horiz-adv-x="248" 
d="M17 -140l92 255l91 -34l-111 -250z" />
    <glyph glyph-name="hyphen" unicode="-" horiz-adv-x="270" 
d="M26 267v91h218v-91h-218z" />
    <glyph glyph-name="period" unicode="." horiz-adv-x="243" 
d="M121 114q27 0 45.5 -18.5t18.5 -44.5t-19 -44.5t-45 -18.5q-27 0 -45.5 18.5t-18.5 45.5q0 25 19 43.5t45 18.5z" />
    <glyph glyph-name="slash" unicode="/" horiz-adv-x="552" 
d="M48 32l377 650l78 -47l-377 -650z" />
    <glyph glyph-name="zero" unicode="0" horiz-adv-x="576" 
d="M285 681q257 0 257 -348q0 -347 -254 -347q-129 0 -192 87t-63 265q0 69 11.5 126t38 108t78 80t124.5 29zM288 584q-61 0 -97 -41q-23 -26 -37.5 -81.5t-14.5 -116.5q0 -134 36.5 -198t112.5 -64q148 0 148 254q0 247 -148 247z" />
    <glyph glyph-name="one" unicode="1" horiz-adv-x="316" 
d="M243 667v-667h-103v545l-91 -53l-49 85l158 90h85z" />
    <glyph glyph-name="two" unicode="2" horiz-adv-x="489" 
d="M469 0h-426v85l240 267q69 78 69 142q0 41 -27.5 65.5t-74.5 24.5q-53 0 -77 -25.5t-40 -81.5l-95 26q41 178 215 178q90 0 145.5 -52.5t55.5 -137.5q0 -95 -69 -172l-199 -223h283v-96z" />
    <glyph glyph-name="three" unicode="3" horiz-adv-x="481" 
d="M10 164l-1 5l101 27q16 -62 41.5 -87.5t74.5 -25.5q52 0 85 31.5t33 81.5q0 51 -31 78t-90 27h-44v95h44q52 0 80 24.5t28 69.5q0 42 -27.5 68t-73.5 26q-36 0 -60.5 -16t-51.5 -57l-86 47q37 64 84.5 93.5t113.5 29.5q89 0 146 -53.5t57 -135.5q0 -81 -63 -137
q78 -64 78 -159q0 -92 -63 -151t-160 -59q-99 0 -161 67q-36 38 -54 111z" />
    <glyph glyph-name="four" unicode="4" horiz-adv-x="519" 
d="M306 684l84 -52l-248 -395h167v158h103v-158h79v-95h-79v-142h-103v142h-286v92z" />
    <glyph glyph-name="five" unicode="5" horiz-adv-x="530" 
d="M457 667v-95h-227l-26 -130q19 8 51 8q99 0 166.5 -65.5t67.5 -162.5q0 -100 -69.5 -168t-170.5 -68q-70 0 -121.5 32t-94.5 102l82 57q29 -50 56.5 -72.5t78.5 -22.5q58 0 96.5 39t38.5 97q0 59 -38 98t-95 39t-96 -43l-80 17l68 338h313z" />
    <glyph glyph-name="six" unicode="6" horiz-adv-x="545" 
d="M312 684l80 -59l-133 -189q7 3 19 3q95 0 161 -64t66 -156q0 -97 -68 -165t-165 -68q-98 0 -166.5 68t-68.5 165q0 80 52 153zM271 345q-56 0 -93.5 -37t-37.5 -93t38 -94.5t93 -38.5t93 38.5t38 93.5q0 58 -37 94.5t-94 36.5z" />
    <glyph glyph-name="seven" unicode="7" horiz-adv-x="453" 
d="M125 -17l-90 47l293 542h-318v95h440v-76z" />
    <glyph glyph-name="eight" unicode="8" horiz-adv-x="513" 
d="M120 355q-66 62 -66 137q0 80 58 134.5t144 54.5t144 -54.5t58 -134.5q0 -75 -66 -137q87 -67 87 -162q0 -89 -63.5 -148t-159.5 -59t-159.5 59t-63.5 148q0 95 87 162zM258 304q-55 0 -88.5 -30.5t-33.5 -80.5t33.5 -81.5t86.5 -31.5q52 0 86 31.5t34 80.5t-33 80.5
t-85 31.5zM257 590q-47 0 -77 -28t-30 -71t30 -70.5t76 -27.5t76 27.5t30 68.5q0 44 -29.5 72.5t-75.5 28.5z" />
    <glyph glyph-name="nine" unicode="9" horiz-adv-x="548" 
d="M234 -17l-81 59l135 188q-9 -2 -22 -2q-94 0 -159.5 63.5t-65.5 155.5q0 97 68 165.5t165 68.5q98 0 166.5 -68t68.5 -165q0 -80 -53 -154zM276 585q-55 0 -93.5 -38.5t-38.5 -94.5t36.5 -93t93.5 -37t94.5 37t37.5 93t-37.5 94.5t-92.5 38.5z" />
    <glyph glyph-name="colon" unicode=":" horiz-adv-x="243" 
d="M121 114q27 0 45.5 -18.5t18.5 -44.5t-19 -44.5t-45 -18.5q-27 0 -45.5 18.5t-18.5 45.5q0 25 19 43.5t45 18.5zM121 428q27 0 45.5 -18.5t18.5 -44.5t-19 -44.5t-46 -18.5q-26 0 -44.5 18.5t-18.5 45.5q0 25 19 43.5t45 18.5z" />
    <glyph glyph-name="semicolon" unicode=";" horiz-adv-x="245" 
d="M140 428q27 0 45.5 -18.5t18.5 -44.5t-19 -44.5t-46 -18.5q-26 0 -44.5 18.5t-18.5 45.5q0 25 19 43.5t45 18.5zM17 -140l92 255l91 -34l-111 -250z" />
    <glyph glyph-name="less" unicode="&#x3c;" horiz-adv-x="569" 
d="M55 378l460 216v-105l-334 -152l334 -153v-104l-460 216v82z" />
    <glyph glyph-name="equal" unicode="=" horiz-adv-x="556" 
d="M63 432h431v-89h-431v89zM63 282h431v-89h-431v89z" />
    <glyph glyph-name="greater" unicode="&#x3e;" horiz-adv-x="569" 
d="M515 296l-460 -216v104l334 153l-334 153v104l460 -217v-81z" />
    <glyph glyph-name="question" unicode="?" horiz-adv-x="431" 
d="M210 114q27 0 45.5 -18.5t18.5 -44.5t-19 -44.5t-46 -18.5q-26 0 -44.5 18.5t-18.5 45.5q0 25 19 43.5t45 18.5zM261 164h-102v69q1 50 12 73.5t49 56.5l42 35q56 47 56 101q0 39 -25.5 62t-69.5 23q-40 0 -64.5 -17t-55.5 -65l-76 61q64 118 192 118q92 0 147 -50
t55 -132q0 -48 -18.5 -84.5t-65.5 -80.5l-62 -58q-9 -9 -11 -17t-3 -34v-61z" />
    <glyph glyph-name="at" unicode="@" horiz-adv-x="898" 
d="M505 528h129l-43 -334h10q71 0 110 47t39 134q0 124 -72 194t-194 70q-152 0 -244 -86t-92 -229q0 -145 92.5 -220.5t241.5 -75.5q97 0 222 38l26 -72q-120 -41 -249 -41q-148 0 -243 56q-79 45 -123.5 128t-44.5 186q0 179 115 285t296 106q157 0 252 -92t95 -244
q0 -80 -30 -139.5t-86 -90.5q-51 -29 -137 -29h-134q-83 0 -133 50.5t-50 133.5q0 105 70 169q62 56 177 56zM449 194h62l33 259h-48q-74 0 -115.5 -39t-41.5 -109q0 -52 29 -81.5t81 -29.5z" />
    <glyph glyph-name="A" unicode="A" horiz-adv-x="631" 
d="M458 172h-286l-63 -172h-109l251 667h128l252 -667h-110zM315 559l-108 -291h215z" />
    <glyph glyph-name="B" unicode="B" horiz-adv-x="526" 
d="M254 0h-181v667h149q98 0 148 -30q40 -23 63.5 -65t23.5 -89q0 -73 -62 -128q45 -23 70 -66t25 -97q0 -108 -99 -164q-52 -28 -137 -28zM175 297v-202h73q62 0 90 16q49 28 49 85q0 56 -45 83q-33 18 -103 18h-64zM175 573v-187h58q56 0 80 14q45 26 45 81q0 53 -34 72.5
t-91 19.5h-58z" />
    <glyph glyph-name="C" unicode="C" horiz-adv-x="670" 
d="M640 562l-73 -70q-47 50 -88.5 70.5t-95.5 20.5q-103 0 -173 -72t-70 -178q0 -104 70.5 -176.5t172.5 -72.5q58 0 100 23t87 70l73 -71q-64 -64 -124 -92t-134 -28q-146 0 -248 101t-102 246t102 246.5t247 101.5q74 0 135 -28t121 -91z" />
    <glyph glyph-name="D" unicode="D" horiz-adv-x="619" 
d="M73 0v667h148q167 0 264.5 -89.5t97.5 -243.5t-97.5 -244t-264.5 -90h-148zM224 571h-47v-475h47q118 0 186.5 64t68.5 174q0 109 -68.5 173t-186.5 64z" />
    <glyph glyph-name="E" unicode="E" horiz-adv-x="481" 
d="M435 667v-96h-258v-185h230v-96h-230v-194h268v-96h-372v667h362z" />
    <glyph glyph-name="F" unicode="F" horiz-adv-x="443" 
d="M413 667v-96h-236v-185h215v-96h-215v-290h-104v667h340z" />
    <glyph glyph-name="G" unicode="G" horiz-adv-x="727" 
d="M392 263v96h297v-50q0 -146 -83.5 -234.5t-219.5 -88.5q-146 0 -248.5 101t-102.5 246t101.5 246.5t246.5 101.5q79 0 137.5 -29t118.5 -89l-72 -70q-48 50 -89 70t-95 20q-103 0 -173 -72t-70 -178q0 -105 70.5 -177t173.5 -72q102 0 158 72q30 39 40 107h-190z" />
    <glyph glyph-name="H" unicode="H" horiz-adv-x="650" 
d="M73 0v667h104v-281h296v281h104v-667h-104v290h-296v-290h-104z" />
    <glyph glyph-name="I" unicode="I" horiz-adv-x="250" 
d="M73 667h104v-667h-104v667z" />
    <glyph glyph-name="J" unicode="J" horiz-adv-x="416" 
d="M239 667h104v-462q0 -87 -28 -139q-21 -37 -60.5 -58.5t-86.5 -21.5t-86 19t-85 64l65 75q56 -60 105 -60q72 0 72 121v462z" />
    <glyph glyph-name="K" unicode="K" horiz-adv-x="584" 
d="M582 667l-259 -281l259 -386h-122l-207 310l-76 -83v-227h-104v667h104v-300l276 300h129z" />
    <glyph glyph-name="L" unicode="L" horiz-adv-x="432" 
d="M73 667h104v-571h249v-96h-353v667z" />
    <glyph glyph-name="M" unicode="M" horiz-adv-x="804" 
d="M177 0h-104v667h101l228 -406l228 406h101v-667h-104v471l-184 -328h-82l-184 328v-471z" />
    <glyph glyph-name="N" unicode="N" horiz-adv-x="708" 
d="M177 0h-104v667h92l366 -491v491h104v-667h-92l-366 491v-491z" />
    <glyph glyph-name="O" unicode="O" horiz-adv-x="762" 
d="M381 681q142 0 244 -102.5t102 -245.5q0 -142 -102 -244.5t-243 -102.5q-145 0 -246 102.5t-101 249.5q0 139 103 241t243 102zM381 583q-99 0 -170 -72.5t-71 -173.5q0 -106 70 -179.5t171 -73.5q99 0 170 73t71 176q0 104 -70.5 177t-170.5 73z" />
    <glyph glyph-name="P" unicode="P" horiz-adv-x="472" 
d="M73 0v667h148q91 0 141 -28q45 -25 70.5 -72.5t25.5 -103.5t-26 -103.5t-70 -73.5q-52 -28 -141 -28h-44v-258h-104zM177 572v-220h52q127 0 127 111q0 109 -127 109h-52z" />
    <glyph glyph-name="Q" unicode="Q" horiz-adv-x="760" 
d="M623 87l62 -61l-71 -70l-72 71q-79 -41 -162 -41q-141 0 -243 102.5t-102 244.5q0 143 102 245.5t244 102.5t244 -102.5t102 -245.5q0 -142 -104 -246zM466 102l-47 47l71 70l61 -61q71 76 71 174q0 105 -70 178t-171 73q-100 0 -170.5 -73t-70.5 -177
q0 -102 70.5 -175.5t168.5 -73.5q42 0 87 18z" />
    <glyph glyph-name="R" unicode="R" horiz-adv-x="547" 
d="M369 285l160 -285h-117l-144 260q-34 -2 -47 -2h-44v-258h-104v667h148q100 0 154 -31q46 -26 72.5 -73.5t26.5 -102.5q0 -57 -28 -103.5t-77 -71.5zM177 572v-220h52q143 0 143 109q0 111 -143 111h-52z" />
    <glyph glyph-name="S" unicode="S" horiz-adv-x="515" 
d="M463 559l-84 -53q-29 44 -53.5 61t-60.5 17q-43 0 -72 -26.5t-29 -66.5q0 -54 85 -86l63 -25q161 -61 161 -184q0 -88 -64 -149t-157 -61q-108 0 -170 78q-33 42 -49 114l101 27l4 -16q26 -106 115 -106q49 0 82 32.5t33 79.5q0 32 -23 54.5t-79 44.5l-61 23
q-144 56 -144 175q0 81 59 135t148 54q64 0 110 -29t85 -93z" />
    <glyph glyph-name="T" unicode="T" horiz-adv-x="436" 
d="M436 667v-96h-166v-571h-104v571h-166v96h436z" />
    <glyph glyph-name="U" unicode="U" horiz-adv-x="638" 
d="M73 237v430h104v-411q0 -79 17 -109q17 -28 51.5 -45.5t72.5 -17.5q39 0 73.5 17.5t51.5 45.5q17 30 17 109v411h104v-430q0 -83 -29 -134q-32 -53 -90.5 -85t-125.5 -32q-68 0 -126.5 32t-90.5 85q-29 51 -29 134z" />
    <glyph glyph-name="V" unicode="V" horiz-adv-x="565" 
d="M222 0l-222 667h109l173 -526l174 526h109l-222 -667h-121z" />
    <glyph glyph-name="W" unicode="W" horiz-adv-x="878" 
d="M0 667h108l141 -493l146 493h88l146 -493l141 493h108l-200 -667h-98l-141 474l-141 -474h-98z" />
    <glyph glyph-name="X" unicode="X" horiz-adv-x="555" 
d="M421 667h115l-200 -318l219 -349h-118l-160 257l-161 -257h-116l219 348l-200 319h117l142 -229z" />
    <glyph glyph-name="Y" unicode="Y" horiz-adv-x="529" 
d="M421 667h114l-219 -390v-277h-104v277l-219 390h115l156 -286z" />
    <glyph glyph-name="Z" unicode="Z" horiz-adv-x="511" 
d="M485 667v-83l-337 -488h345v-96h-476v83l343 489h-314v95h439z" />
    <glyph glyph-name="bracketleft" unicode="[" horiz-adv-x="305" 
d="M267 638h-89v-724h89v-93h-190v910h190v-93z" />
    <glyph glyph-name="backslash" unicode="\" horiz-adv-x="552" 
d="M48 635l78 47l377 -650l-78 -47z" />
    <glyph glyph-name="bracketright" unicode="]" horiz-adv-x="305" 
d="M127 -86v724h-89v93h190v-910h-190v93h89z" />
    <glyph glyph-name="asciicircum" unicode="^" horiz-adv-x="545" 
d="M332 686l196 -339h-121l-135 229l-134 -229h-120l196 339h118z" />
    <glyph glyph-name="underscore" unicode="_" horiz-adv-x="513" 
d="M-7 -143v91h527v-91h-527z" />
    <glyph glyph-name="grave" unicode="`" 
d="M235 499l-144 145l95 51l115 -158z" />
    <glyph glyph-name="a" unicode="a" horiz-adv-x="545" 
d="M489 443v-443h-100v38q-68 -52 -136 -52q-92 0 -158.5 69.5t-66.5 166.5q0 96 66 165.5t158 69.5q68 0 137 -52v38h100zM263 367q-60 0 -97 -40t-37 -104q0 -65 36.5 -106t95.5 -41q57 0 93.5 41t36.5 105q0 63 -36 104t-92 41z" />
    <glyph glyph-name="b" unicode="b" horiz-adv-x="545" 
d="M156 0h-100v667h100v-262q69 52 137 52q92 0 158 -69.5t66 -165.5q0 -97 -66.5 -166.5t-158.5 -69.5q-68 0 -136 52v-38zM285 366q-58 0 -93.5 -40t-35.5 -105q0 -64 36 -104.5t93 -40.5t94 40.5t37 102.5q0 66 -36 106.5t-95 40.5z" />
    <glyph glyph-name="c" unicode="c" horiz-adv-x="462" 
d="M444 370l-66 -64q-33 35 -57 48t-58 13q-60 0 -97 -40t-37 -105t37 -105.5t97 -40.5q35 0 61 14.5t57 50.5l66 -65q-43 -48 -86.5 -69t-97.5 -21q-100 0 -167.5 68t-67.5 168t67.5 167.5t166.5 67.5q101 0 182 -87z" />
    <glyph glyph-name="d" unicode="d" horiz-adv-x="545" 
d="M489 667v-667h-100v38q-68 -52 -136 -52q-92 0 -158.5 69.5t-66.5 166.5q0 96 66 165.5t158 69.5q68 0 137 -52v262h100zM262 366q-59 0 -96 -40t-37 -104t36.5 -105t94.5 -41q57 0 93 40.5t36 103.5q0 65 -35.5 105.5t-91.5 40.5z" />
    <glyph glyph-name="e" unicode="e" horiz-adv-x="494" 
d="M466 211v-28h-335q10 -51 42.5 -79t81.5 -28q75 0 112 57q0 1 5 8q2 4 4 7l86 -36q-75 -126 -207 -126q-97 0 -162 67.5t-65 167.5q0 99 64 167.5t157 68.5q95 0 156 -69.5t61 -176.5zM131 260h236q-28 108 -117 108q-46 0 -77 -28.5t-42 -79.5z" />
    <glyph glyph-name="f" unicode="f" horiz-adv-x="259" 
d="M245 443v-90h-77v-353h-100v353h-43v90h43v84q0 71 30.5 109.5t87.5 38.5q27 0 58 -8v-90q-24 7 -39 7q-37 0 -37 -57v-84h77z" />
    <glyph glyph-name="g" unicode="g" horiz-adv-x="545" 
d="M389 443h100v-452q0 -106 -65.5 -172t-171.5 -66q-102 0 -172 64q-11 10 -41 45l65 65q8 -10 12 -14q35 -41 63 -55.5t71 -14.5q66 0 102.5 39t36.5 109v47q-56 -52 -132 -52q-95 0 -162 69t-67 167t67 166.5t162 68.5q73 0 132 -52v38zM263 367q-60 0 -97 -40t-37 -104
q0 -65 36.5 -106t95.5 -41q56 0 92.5 40.5t36.5 103.5q0 65 -35.5 106t-91.5 41z" />
    <glyph glyph-name="h" unicode="h" horiz-adv-x="509" 
d="M56 0v667h100v-256q47 46 112 46q50 0 93 -23.5t65 -63.5q27 -45 27 -131v-239h-100v231q0 30 -3 50.5t-12 41.5t-29 31.5t-50 10.5q-28 0 -52 -12t-34 -32q-17 -29 -17 -99v-222h-100z" />
    <glyph glyph-name="i" unicode="i" horiz-adv-x="213" 
d="M57 443h100v-443h-100v443zM106 657q27 0 46 -18.5t19 -45.5q0 -26 -19 -45t-45 -19q-28 0 -46.5 19t-18.5 46q0 26 19 44.5t45 18.5z" />
    <glyph glyph-name="j" unicode="j" horiz-adv-x="223" 
d="M-10 -232v93q32 -9 47 -9q29 0 29 53v538h100v-538q0 -70 -30 -108.5t-86 -38.5q-26 0 -60 10zM116 657q27 0 46 -18.5t19 -45.5t-19 -45.5t-46 -18.5t-45.5 19t-18.5 46q0 26 19 44.5t45 18.5z" />
    <glyph glyph-name="k" unicode="k" 
d="M465 443l-187 -184l203 -259h-123l-148 192l-54 -52v-140h-100v667h100v-401l178 177h131z" />
    <glyph glyph-name="l" unicode="l" horiz-adv-x="214" 
d="M157 667v-667h-100v667h100z" />
    <glyph glyph-name="m" unicode="m" horiz-adv-x="773" 
d="M56 443h100v-32q43 46 106 46q72 0 126 -60q56 60 138 60q53 0 96.5 -23.5t67.5 -66.5q26 -45 26 -128v-239h-100v231q0 29 -2.5 48t-10 41t-26 33.5t-46.5 11.5q-25 0 -46 -11.5t-31 -29.5q-17 -29 -17 -103v-221h-100v231q0 28 -2.5 47.5t-10.5 41.5t-26.5 33.5
t-46.5 11.5q-31 0 -51.5 -12t-29.5 -35.5t-11.5 -44.5t-2.5 -52v-221h-100v443z" />
    <glyph glyph-name="n" unicode="n" horiz-adv-x="509" 
d="M56 0v443h100v-32q47 46 113 46q49 0 92 -23.5t65 -63.5q27 -45 27 -131v-239h-100v231q0 30 -3 50.5t-12 41.5t-29 31.5t-50 10.5q-28 0 -52 -12t-34 -32q-17 -29 -17 -99v-222h-100z" />
    <glyph glyph-name="o" unicode="o" horiz-adv-x="522" 
d="M264 457q96 0 163 -68.5t67 -166.5q0 -100 -67.5 -168t-165.5 -68t-165.5 68t-67.5 168t68 167.5t168 67.5zM263 367q-60 0 -97 -40t-37 -104q0 -65 36.5 -106t95.5 -41q58 0 95 40.5t37 105.5q0 63 -36.5 104t-93.5 41z" />
    <glyph glyph-name="p" unicode="p" horiz-adv-x="545" 
d="M56 -233v676h100v-38q68 52 136 52q92 0 158.5 -69.5t66.5 -166.5q0 -96 -66 -165.5t-158 -69.5q-68 0 -137 52v-271h-100zM285 367q-57 0 -93 -40.5t-36 -104.5q0 -65 35.5 -105.5t91.5 -40.5q59 0 96 40.5t37 105.5q0 64 -36.5 104.5t-94.5 40.5z" />
    <glyph glyph-name="q" unicode="q" horiz-adv-x="545" 
d="M389 443h100v-676h-100v271q-69 -52 -137 -52q-92 0 -158 69.5t-66 165.5q0 97 66.5 166.5t158.5 69.5q68 0 136 -52v38zM260 367q-58 0 -94.5 -41t-36.5 -105q0 -63 36.5 -104t93.5 -41q58 0 94 40t36 104q0 65 -35.5 106t-93.5 41z" />
    <glyph glyph-name="r" unicode="r" horiz-adv-x="302" 
d="M56 0v443h100v-36q27 23 46 30.5t49 7.5q3 0 37 -2v-89q-20 1 -35 1q-26 0 -45 -8.5t-29 -20.5t-15 -32.5t-6.5 -37.5t-1.5 -43v-213h-100z" />
    <glyph glyph-name="s" unicode="s" horiz-adv-x="380" 
d="M23 116l82 33q21 -41 39.5 -57t46.5 -16q27 0 44 15t17 40q0 17 -12.5 27.5t-51.5 25.5l-45 18q-97 36 -97 119q0 58 43.5 97t107.5 39q97 0 148 -97l-78 -39q-18 27 -33.5 37.5t-37.5 10.5q-25 0 -40 -12.5t-15 -32.5q0 -17 11.5 -26.5t51.5 -25.5l42 -16
q56 -22 81 -50.5t25 -70.5q0 -63 -46.5 -106t-115.5 -43q-119 0 -167 130z" />
    <glyph glyph-name="t" unicode="t" horiz-adv-x="260" 
d="M163 443h69v-90h-69v-213q0 -54 29 -54q14 0 47 9v-93q-36 -10 -60 -10q-56 0 -86 38.5t-30 109.5v213h-48v90h48v98l100 40v-138z" />
    <glyph glyph-name="u" unicode="u" horiz-adv-x="509" 
d="M453 443v-443h-100v32q-47 -46 -112 -46q-50 0 -93 23.5t-65 63.5q-27 45 -27 131v239h100v-231q0 -30 3 -50.5t12 -41.5t29 -31.5t50 -10.5q28 0 52 12t34 31q17 29 17 101v221h100z" />
    <glyph glyph-name="v" unicode="v" horiz-adv-x="460" 
d="M185 0l-191 443h108l128 -305l129 305h107l-190 -443h-91z" />
    <glyph glyph-name="w" unicode="w" horiz-adv-x="664" 
d="M-6 443h107l96 -282l95 282h80l96 -282l96 282h106l-163 -443h-80l-95 279l-95 -279h-80z" />
    <glyph glyph-name="x" unicode="x" horiz-adv-x="466" 
d="M338 443h117l-163 -213l175 -230h-118l-116 154l-117 -154h-118l176 229l-163 214h118l104 -138z" />
    <glyph glyph-name="y" unicode="y" horiz-adv-x="463" 
d="M169 -233h-105l112 254l-182 422h108l127 -301l132 301h108z" />
    <glyph glyph-name="z" unicode="z" horiz-adv-x="414" 
d="M395 443v-76l-242 -277h251v-90h-382v76l243 278h-229v89h359z" />
    <glyph glyph-name="braceleft" unicode="{" horiz-adv-x="310" 
d="M271 -88v-90q-30 -1 -41 -1q-71 0 -104 36t-33 115v190q-1 40 -11 54t-44 23v80q33 8 43.5 22t11.5 50v189q0 78 33 114.5t104 36.5q10 0 41 -1v-90h-17q-42 -2 -50.5 -9t-9.5 -43v-201q-2 -45 -11.5 -69.5t-33.5 -41.5q24 -17 33.5 -42.5t11.5 -71.5v-198q0 -35 9.5 -44
t46.5 -9q13 0 21 1z" />
    <glyph glyph-name="bar" unicode="|" horiz-adv-x="514" 
d="M208 -176v904h99v-904h-99z" />
    <glyph glyph-name="braceright" unicode="}" horiz-adv-x="310" 
d="M38 -178v90q8 -1 21 -1q37 0 46.5 9t9.5 44v198q2 46 11.5 71.5t33.5 42.5q-24 17 -33.5 41.5t-11.5 69.5v201q-1 36 -9.5 43t-50.5 9h-17v90q31 1 41 1q71 0 104 -36.5t33 -114.5v-189q1 -36 11.5 -50t43.5 -22v-80q-34 -9 -44 -23t-11 -54v-190q0 -79 -33 -115
t-104 -36q-11 0 -41 1z" />
    <glyph glyph-name="asciitilde" unicode="~" horiz-adv-x="687" 
d="M151 564l-65 42q37 75 70 104t83 29q47 0 118 -35q61 -31 92 -31q25 0 42 14.5t43 57.5l66 -38q-30 -62 -60 -91q-17 -17 -45 -28.5t-51 -11.5q-28 0 -52 8t-98 41q-36 17 -62 17q-22 0 -40 -17.5t-41 -60.5z" />
    <glyph glyph-name="uni00A0" unicode="&#xa0;" horiz-adv-x="237" 
 />
    <glyph glyph-name="exclamdown" unicode="&#xa1;" horiz-adv-x="295" 
d="M91 -184l9 503h94l9 -503h-112zM147 494q26 0 45 -18.5t19 -44.5t-19 -44.5t-46 -18.5q-26 0 -44.5 18.5t-18.5 45.5q0 25 19 43.5t45 18.5z" />
    <glyph glyph-name="cent" unicode="&#xa2;" horiz-adv-x="554" 
d="M342 0h-102v104q-80 19 -129 82.5t-49 146.5q0 84 49 146.5t129 82.5v105h102v-103q74 -15 136 -82l-66 -65q-33 35 -57 48t-58 13q-60 0 -97 -40t-37 -105t37 -105t97 -40q35 0 61 14t57 50l66 -65q-57 -67 -139 -85v-102z" />
    <glyph glyph-name="sterling" unicode="&#xa3;" horiz-adv-x="563" 
d="M225 381h201v-93h-181q10 -50 10 -93q0 -51 -38 -99h303v-96h-452v90l9 8q43 33 58 55.5t15 52.5q0 32 -11 82h-71v93h51q-7 43 -7 82q0 111 64 166q61 52 143 52q119 0 187 -122l-83 -52q-25 42 -49.5 59.5t-58.5 17.5q-47 0 -73.5 -31t-26.5 -85q0 -38 10 -87z" />
    <glyph glyph-name="currency" unicode="&#xa4;" horiz-adv-x="724" 
d="M85 559l56 55l87 -88q62 43 134 43t135 -43l86 88l56 -55l-88 -89q42 -64 42 -136q0 -74 -41 -136l87 -89l-55 -56l-87 88q-64 -43 -135 -43q-70 0 -135 43l-87 -88l-55 56l88 89q-41 61 -41 136q0 71 41 136zM365 483q-62 0 -101 -40.5t-39 -105.5q0 -69 37.5 -111
t99.5 -42q61 0 99.5 42t38.5 108q0 65 -38 107t-97 42z" />
    <glyph glyph-name="yen" unicode="&#xa5;" horiz-adv-x="556" 
d="M226 224h-157v87h138l-25 43h-113v87h64l-126 226h115l156 -287l157 287h114l-126 -226h64v-87h-113l-25 -43h138v-87h-157v-224h-104v224z" />
    <glyph glyph-name="brokenbar" unicode="&#xa6;" horiz-adv-x="514" 
d="M208 210h99v-386h-99v386zM307 728v-380h-99v380h99z" />
    <glyph glyph-name="section" unicode="&#xa7;" horiz-adv-x="560" 
d="M270 402l64 -25q84 -32 123.5 -77.5t39.5 -109.5q0 -78 -52 -135q40 -46 40 -111q0 -86 -58.5 -138.5t-152.5 -52.5q-109 0 -180 80q-17 21 -47 72l85 54q29 -53 61 -81t84 -28q46 0 74.5 26.5t28.5 67.5q0 32 -24 55t-81 45l-61 24q-145 56 -145 177q0 73 55 132
q-44 47 -44 113q0 82 59.5 136.5t148.5 54.5q64 0 109.5 -29t85.5 -94l-85 -54q-29 46 -53 63t-61 17q-43 0 -72 -27.5t-29 -67.5q0 -53 87 -87zM257 156l64 -24l38 -17q32 35 32 74q0 34 -23 56t-82 45l-69 26q-4 2 -7 3q-37 -34 -37 -74q0 -57 84 -89z" />
    <glyph glyph-name="dieresis" unicode="&#xa8;" 
d="M146 657q26 0 45 -18.5t19 -44.5q0 -27 -19 -45.5t-45 -18.5q-27 0 -45.5 18.5t-18.5 45.5q0 26 19 44.5t45 18.5zM330 657q27 0 45.5 -18.5t18.5 -44.5q0 -27 -19 -45.5t-45 -18.5q-27 0 -45.5 19t-18.5 46q0 25 19 43.5t45 18.5z" />
    <glyph glyph-name="copyright" unicode="&#xa9;" horiz-adv-x="843" 
d="M428 712q152 0 262 -112t110 -266q0 -157 -110.5 -268t-267.5 -111q-158 0 -268.5 111t-110.5 270q0 157 112 266.5t273 109.5zM426 641q-129 0 -220.5 -88.5t-91.5 -216.5q0 -129 90 -219.5t218 -90.5q127 0 217 90.5t90 217.5q0 124 -89.5 215.5t-213.5 91.5zM618 483
l-59 -58q-36 38 -60 50.5t-61 12.5q-64 0 -107 -44.5t-43 -110.5q0 -65 43.5 -109.5t106.5 -44.5q35 0 60 13t63 51l59 -58q-43 -43 -85 -64.5t-96 -21.5q-98 0 -167 68.5t-69 165.5q0 98 69 166.5t167 68.5q57 0 95 -20t84 -65z" />
    <glyph glyph-name="ordfeminine" unicode="&#xaa;" horiz-adv-x="352" 
d="M316 672v-266h-71v19q-35 -28 -75 -28q-59 0 -100.5 41t-41.5 99q0 59 42 101.5t101 42.5q39 0 74 -28v19h71zM175 617q-34 0 -54.5 -22t-20.5 -58q0 -34 20.5 -55t52.5 -21t52.5 22t20.5 56t-20 56t-51 22z" />
    <glyph glyph-name="guillemotleft" unicode="&#xab;" horiz-adv-x="467" 
d="M140 221l120 -148l-66 -53l-164 201l164 206l66 -53zM302 221l121 -148l-67 -53l-164 201l164 206l66 -53z" />
    <glyph glyph-name="logicalnot" unicode="&#xac;" horiz-adv-x="680" 
d="M620 357v-289h-97v198h-463v91h560z" />
    <glyph glyph-name="uni00AD" unicode="&#xad;" horiz-adv-x="270" 
d="M26 267v91h218v-91h-218z" />
    <glyph glyph-name="registered" unicode="&#xae;" horiz-adv-x="843" 
d="M426 712q154 0 264 -111.5t110 -266.5q0 -158 -111 -268.5t-268 -110.5q-156 0 -267 110.5t-111 266.5q0 160 111 270t272 110zM426 641q-140 0 -233 -102q-79 -88 -79 -203q0 -129 89.5 -219.5t217.5 -90.5q127 0 217.5 90t90.5 218q0 125 -89.5 216t-213.5 91zM505 296
l108 -188h-94l-96 169q-14 -1 -51 -1v-168h-84v450h117q67 0 102 -21q31 -17 49.5 -49.5t18.5 -70.5q0 -84 -70 -121zM411 480h-39v-126h39q81 0 81 63t-81 63z" />
    <glyph glyph-name="macron" unicode="&#xaf;" 
d="M88 546v89h299v-89h-299z" />
    <glyph glyph-name="degree" unicode="&#xb0;" horiz-adv-x="336" 
d="M204 742q57 0 98 -41.5t41 -99.5q0 -59 -41.5 -101t-99.5 -42q-59 0 -100.5 42t-41.5 101t42 100t102 41zM203 667q-29 0 -48.5 -19.5t-19.5 -47.5t19.5 -47.5t47.5 -19.5q27 0 46.5 19.5t19.5 47.5t-19.5 47.5t-45.5 19.5z" />
    <glyph glyph-name="plusminus" unicode="&#xb1;" horiz-adv-x="556" 
d="M33 89h489v-89h-489v89zM33 418h199v200h92v-200h198v-89h-198v-200h-92v200h-199v89z" />
    <glyph glyph-name="twosuperior" unicode="&#xb2;" horiz-adv-x="387" 
d="M330 406h-268v57l146 155q40 43 40 77q0 22 -14.5 34t-40.5 12q-29 0 -42 -12.5t-25 -49.5l-68 18q25 112 135 112q58 0 93 -31.5t35 -83.5q0 -58 -43 -103l-110 -118h162v-67z" />
    <glyph glyph-name="threesuperior" unicode="&#xb3;" horiz-adv-x="387" 
d="M185 579h-32v66h32q59 0 59 49q0 22 -15 35t-39 13q-21 0 -34.5 -9t-30.5 -35l-63 32q26 42 55.5 60.5t72.5 18.5q55 0 91 -32.5t36 -81.5q0 -46 -34 -79q43 -36 43 -91t-39.5 -91t-99.5 -36q-109 0 -136 111l-1 4l72 19q10 -38 23.5 -52t41.5 -14q29 0 47 16.5t18 42.5
q0 54 -67 54z" />
    <glyph glyph-name="acute" unicode="&#xb4;" 
d="M290 695l95 -51l-144 -145l-66 38z" />
    <glyph glyph-name="mu" unicode="&#xb5;" horiz-adv-x="509" 
d="M453 443v-443h-100v30q-46 -44 -102 -44q-54 0 -95 44v-263h-100v676h100v-233q0 -62 18.5 -97t75.5 -35q28 0 52 12t34 31q17 29 17 101v221h100z" />
    <glyph glyph-name="paragraph" unicode="&#xb6;" horiz-adv-x="643" 
d="M284 -233v440h-4q-91 0 -155.5 67.5t-64.5 162.5q0 97 65.5 163.5t160.5 66.5h314v-86h-64v-814h-90v814h-72v-814h-90z" />
    <glyph glyph-name="periodcentered" unicode="&#xb7;" horiz-adv-x="240" 
d="M121 372q26 0 44 -17.5t18 -42.5t-18 -43t-44 -18t-44.5 18t-18.5 43t18.5 42.5t44.5 17.5z" />
    <glyph glyph-name="cedilla" unicode="&#xb8;" 
d="M150 -184l98 154l91 -40l-118 -150z" />
    <glyph glyph-name="onesuperior" unicode="&#xb9;" horiz-adv-x="387" 
d="M246 801v-395h-74v308l-51 -27l-35 58l101 56h59z" />
    <glyph glyph-name="ordmasculine" unicode="&#xba;" horiz-adv-x="346" 
d="M175 681q60 0 102 -41.5t42 -100.5q0 -60 -42 -101t-104 -41t-104 41t-42 102q0 60 42.5 100.5t105.5 40.5zM174 616q-34 0 -54.5 -21t-20.5 -56q0 -34 20.5 -55.5t53.5 -21.5t53.5 21.5t20.5 55.5t-20.5 55.5t-52.5 21.5z" />
    <glyph glyph-name="guillemotright" unicode="&#xbb;" horiz-adv-x="467" 
d="M111 20l-67 53l120 148l-120 153l67 53l163 -206zM273 20l-67 53l121 148l-120 153l66 53l164 -206z" />
    <glyph glyph-name="onequarter" unicode="&#xbc;" horiz-adv-x="833" 
d="M156 18l383 663l56 -33l-382 -662zM441 81v60l173 266l62 -36l-147 -224h83v92h74v-92h48v-66h-48v-81h-74v81h-171zM213 667v-395h-74v308l-51 -27l-35 58l101 56h59z" />
    <glyph glyph-name="onehalf" unicode="&#xbd;" horiz-adv-x="833" 
d="M156 18l383 663l56 -33l-382 -662zM761 0h-268v57l146 155q40 43 40 77q0 22 -14.5 34t-40.5 12q-29 0 -42 -12.5t-25 -49.5l-68 18q26 112 135 112q58 0 93 -31.5t35 -83.5q0 -58 -43 -103l-110 -118h162v-67zM213 667v-395h-74v308l-51 -27l-35 58l101 56h59z" />
    <glyph glyph-name="threequarters" unicode="&#xbe;" horiz-adv-x="833" 
d="M217 18l383 663l56 -33l-383 -662zM480 81v60l173 266l62 -36l-147 -224h83v92h74v-92h47v-66h-47v-81h-74v81h-171zM180 445h-32v67h32q59 0 59 47q0 22 -14.5 35t-39.5 13q-21 0 -34.5 -9t-30.5 -34l-63 33q26 41 55.5 59.5t72.5 18.5q55 0 91 -32.5t36 -81.5
q0 -48 -34 -79q43 -34 43 -91q0 -55 -39.5 -91t-99.5 -36q-109 0 -136 111l-1 5l72 18q10 -38 23.5 -52t41.5 -14q29 0 47 16.5t18 42.5q0 54 -67 54z" />
    <glyph glyph-name="questiondown" unicode="&#xbf;" horiz-adv-x="431" 
d="M187 319h102v-69q-1 -50 -12 -73.5t-49 -56.5l-42 -35q-56 -47 -56 -101q0 -39 25.5 -62t69.5 -23q40 0 64.5 17t55.5 65l76 -61q-63 -118 -192 -118q-92 0 -147 50t-55 132q0 48 18.5 84.5t65.5 80.5l62 58q9 9 11 17t3 34v61zM239 494q26 0 44.5 -18.5t18.5 -45.5
q0 -25 -19 -43.5t-45 -18.5q-27 0 -45.5 18.5t-18.5 44.5t19 44.5t46 18.5z" />
    <glyph glyph-name="Agrave" unicode="&#xc0;" horiz-adv-x="631" 
d="M458 172h-286l-63 -172h-109l251 667h128l252 -667h-110zM315 559l-108 -291h215zM312 699l-144 145l95 51l115 -158z" />
    <glyph glyph-name="Aacute" unicode="&#xc1;" horiz-adv-x="631" 
d="M458 172h-286l-63 -172h-109l251 667h128l252 -667h-110zM315 559l-108 -291h215zM365 895l95 -51l-144 -145l-66 38z" />
    <glyph glyph-name="Acircumflex" unicode="&#xc2;" horiz-adv-x="631" 
d="M458 172h-286l-63 -172h-109l251 667h128l252 -667h-110zM315 559l-108 -291h215zM405 700l-90 88l-89 -88l-75 37l130 143h68l131 -143z" />
    <glyph glyph-name="Atilde" unicode="&#xc3;" horiz-adv-x="631" 
d="M458 172h-286l-63 -172h-109l251 667h128l252 -667h-110zM315 559l-108 -291h215zM383 857l82 -20q-7 -108 -91 -108q-40 0 -74 21q-24 13 -37 13q-10 0 -17 -38l-81 19q11 108 94 108q32 0 75 -23q20 -11 35 -11q10 0 14 39z" />
    <glyph glyph-name="Adieresis" unicode="&#xc4;" horiz-adv-x="631" 
d="M458 172h-286l-63 -172h-109l251 667h128l252 -667h-110zM315 559l-108 -291h215zM223 854q26 0 45 -18.5t19 -44.5q0 -27 -19 -45.5t-45 -18.5q-27 0 -45.5 19t-18.5 46q0 25 19 43.5t45 18.5zM407 854q27 0 45.5 -18.5t18.5 -44.5q0 -27 -19 -45.5t-45 -18.5
q-27 0 -45.5 19t-18.5 46q0 25 19 43.5t45 18.5z" />
    <glyph glyph-name="Aring" unicode="&#xc5;" horiz-adv-x="631" 
d="M458 172h-286l-63 -172h-109l251 667h128l252 -667h-110zM315 559l-108 -291h215zM315 891q43 0 73 -29.5t30 -70.5q0 -42 -30 -71.5t-72 -29.5q-43 0 -73 29.5t-30 72.5q0 40 30.5 69.5t71.5 29.5zM316 842q-21 0 -36.5 -15t-15.5 -36t15 -36.5t36 -15.5q22 0 37 15
t15 37q0 21 -15 36t-36 15z" />
    <glyph glyph-name="AE" unicode="&#xc6;" horiz-adv-x="839" 
d="M432 0v172h-228l-88 -172h-116l347 667h447v-96h-258v-185h230v-96h-230v-194h268v-96h-372zM253 268h179v303h-24z" />
    <glyph glyph-name="Ccedilla" unicode="&#xc7;" horiz-adv-x="670" 
d="M640 562l-73 -70q-47 50 -88.5 70.5t-95.5 20.5q-103 0 -173 -72t-70 -178q0 -104 70.5 -176.5t172.5 -72.5q58 0 100 23t87 70l73 -71q-64 -64 -124 -92t-134 -28q-146 0 -248 101t-102 246t102 246.5t247 101.5q74 0 135 -28t121 -91zM248 -184l97 154l92 -40
l-118 -150z" />
    <glyph glyph-name="Egrave" unicode="&#xc8;" horiz-adv-x="481" 
d="M435 667v-96h-258v-185h230v-96h-230v-194h268v-96h-372v667h362zM264 699l-144 145l95 51l115 -158z" />
    <glyph glyph-name="Eacute" unicode="&#xc9;" horiz-adv-x="481" 
d="M435 667v-96h-258v-185h230v-96h-230v-194h268v-96h-372v667h362zM304 895l95 -51l-144 -145l-66 38z" />
    <glyph glyph-name="Ecircumflex" unicode="&#xca;" horiz-adv-x="481" 
d="M435 667v-96h-258v-185h230v-96h-230v-194h268v-96h-372v667h362zM349 700l-90 88l-89 -88l-75 37l130 143h69l130 -143z" />
    <glyph glyph-name="Edieresis" unicode="&#xcb;" horiz-adv-x="481" 
d="M435 667v-96h-258v-185h230v-96h-230v-194h268v-96h-372v667h362zM166 854q26 0 45 -18.5t19 -44.5q0 -27 -19 -45.5t-45 -18.5q-27 0 -45.5 18.5t-18.5 45.5q0 26 19 44.5t45 18.5zM350 854q26 0 45 -18.5t19 -44.5t-19 -45t-45 -19q-27 0 -45.5 18.5t-18.5 45.5
q0 26 19 44.5t45 18.5z" />
    <glyph glyph-name="Igrave" unicode="&#xcc;" horiz-adv-x="250" 
d="M73 667h104v-667h-104v667zM120 699l-144 145l95 51l115 -158z" />
    <glyph glyph-name="Iacute" unicode="&#xcd;" horiz-adv-x="250" 
d="M73 667h104v-667h-104v667zM179 895l95 -51l-144 -145l-66 38z" />
    <glyph glyph-name="Icircumflex" unicode="&#xce;" horiz-adv-x="250" 
d="M73 667h104v-667h-104v667zM215 700l-90 88l-89 -88l-75 37l130 143h68l131 -143z" />
    <glyph glyph-name="Idieresis" unicode="&#xcf;" horiz-adv-x="250" 
d="M74 667h104v-667h-104v667zM53 854q26 0 45 -18.5t19 -44.5q0 -27 -19 -45.5t-45 -18.5q-27 0 -45.5 19t-18.5 46q0 25 19 43.5t45 18.5zM198 854q26 0 45 -18.5t19 -44.5q0 -27 -19 -45.5t-45 -18.5q-27 0 -45.5 19t-18.5 46q0 25 19 43.5t45 18.5z" />
    <glyph glyph-name="Eth" unicode="&#xd0;" horiz-adv-x="631" 
d="M86 314h-64v92h64v261h148q167 0 265 -89.5t98 -242.5q0 -154 -98 -244.5t-265 -90.5h-148v314zM190 571v-165h149v-92h-149v-218h47q119 0 187.5 64t68.5 175q0 109 -69 172.5t-187 63.5h-47z" />
    <glyph glyph-name="Ntilde" unicode="&#xd1;" horiz-adv-x="708" 
d="M177 0h-104v667h92l366 -491v491h104v-667h-92l-366 491v-491zM424 857l83 -20q-9 -108 -92 -108q-38 0 -74 21q-24 13 -36 13q-7 0 -10 -7t-7 -31l-81 19q11 108 93 108q32 0 75 -23q20 -11 35 -11q10 0 14 39z" />
    <glyph glyph-name="Ograve" unicode="&#xd2;" horiz-adv-x="762" 
d="M381 681q142 0 244 -102.5t102 -245.5q0 -142 -102 -244.5t-243 -102.5q-145 0 -246 102.5t-101 249.5q0 139 103 241t243 102zM381 583q-99 0 -170 -72.5t-71 -173.5q0 -106 70 -179.5t171 -73.5q99 0 170 73t71 176q0 104 -70.5 177t-170.5 73zM379 699l-145 145l96 51
l115 -158z" />
    <glyph glyph-name="Oacute" unicode="&#xd3;" horiz-adv-x="762" 
d="M381 681q142 0 244 -102.5t102 -245.5q0 -142 -102 -244.5t-243 -102.5q-145 0 -246 102.5t-101 249.5q0 139 103 241t243 102zM381 583q-99 0 -170 -72.5t-71 -173.5q0 -106 70 -179.5t171 -73.5q99 0 170 73t71 176q0 104 -70.5 177t-170.5 73zM432 895l95 -51
l-144 -145l-66 38z" />
    <glyph glyph-name="Ocircumflex" unicode="&#xd4;" horiz-adv-x="762" 
d="M381 681q142 0 244 -102.5t102 -245.5q0 -142 -102 -244.5t-243 -102.5q-145 0 -246 102.5t-101 249.5q0 139 103 241t243 102zM381 583q-99 0 -170 -72.5t-71 -173.5q0 -106 70 -179.5t171 -73.5q99 0 170 73t71 176q0 104 -70.5 177t-170.5 73zM471 700l-90 88l-90 -88
l-74 37l130 143h68l130 -143z" />
    <glyph glyph-name="Otilde" unicode="&#xd5;" horiz-adv-x="762" 
d="M381 681q142 0 244 -102.5t102 -245.5q0 -142 -102 -244.5t-243 -102.5q-145 0 -246 102.5t-101 249.5q0 139 103 241t243 102zM381 583q-99 0 -170 -72.5t-71 -173.5q0 -106 70 -179.5t171 -73.5q99 0 170 73t71 176q0 104 -70.5 177t-170.5 73zM448 857l83 -20
q-7 -108 -92 -108q-39 0 -73 21q-24 13 -37 13q-7 0 -9.5 -6.5t-7.5 -31.5l-81 19q11 108 93 108q32 0 75 -23q22 -11 35 -11q7 0 9.5 7.5t4.5 31.5z" />
    <glyph glyph-name="Odieresis" unicode="&#xd6;" horiz-adv-x="762" 
d="M381 681q142 0 244 -102.5t102 -245.5q0 -142 -102 -244.5t-243 -102.5q-145 0 -246 102.5t-101 249.5q0 139 103 241t243 102zM381 583q-99 0 -170 -72.5t-71 -173.5q0 -106 70 -179.5t171 -73.5q99 0 170 73t71 176q0 104 -70.5 177t-170.5 73zM289 854q26 0 45 -18.5
t19 -44.5q0 -27 -19 -45.5t-45 -18.5q-27 0 -45.5 18.5t-18.5 45.5q0 26 19 44.5t45 18.5zM473 854q26 0 45 -18.5t19 -44.5q0 -27 -19 -45.5t-45 -18.5q-27 0 -45.5 19t-18.5 46q0 25 19 43.5t45 18.5z" />
    <glyph glyph-name="multiply" unicode="&#xd7;" horiz-adv-x="556" 
d="M73 171l141 141l-141 141l64 64l141 -141l141 141l63 -64l-141 -141l141 -141l-63 -64l-141 141l-141 -141z" />
    <glyph glyph-name="Oslash" unicode="&#xd8;" horiz-adv-x="770" 
d="M104 -2l-57 55l67 66q-75 94 -75 214q0 143 102 245.5t244 102.5q120 0 215 -77l66 65l56 -55l-66 -66q75 -95 75 -215q0 -142 -102 -244.5t-244 -102.5q-120 0 -215 77zM187 192l342 341q-66 50 -142 50q-103 0 -173 -73t-70 -180q0 -73 43 -138zM583 475l-342 -341
q68 -50 143 -50q101 0 171.5 73.5t70.5 177.5q0 74 -43 140z" />
    <glyph glyph-name="Ugrave" unicode="&#xd9;" horiz-adv-x="638" 
d="M73 237v430h104v-411q0 -79 17 -109q17 -28 51.5 -45.5t72.5 -17.5q39 0 73.5 17.5t51.5 45.5q17 30 17 109v411h104v-430q0 -83 -29 -134q-32 -53 -90.5 -85t-125.5 -32q-68 0 -126.5 32t-90.5 85q-29 51 -29 134zM323 699l-144 145l95 51l115 -158z" />
    <glyph glyph-name="Uacute" unicode="&#xda;" horiz-adv-x="638" 
d="M73 237v430h104v-411q0 -79 17 -109q17 -28 51.5 -45.5t72.5 -17.5q39 0 73.5 17.5t51.5 45.5q17 30 17 109v411h104v-430q0 -83 -29 -134q-32 -53 -90.5 -85t-125.5 -32q-68 0 -126.5 32t-90.5 85q-29 51 -29 134zM363 895l95 -51l-144 -145l-66 38z" />
    <glyph glyph-name="Ucircumflex" unicode="&#xdb;" horiz-adv-x="638" 
d="M73 237v430h104v-411q0 -79 17 -109q17 -28 51.5 -45.5t72.5 -17.5q39 0 73.5 17.5t51.5 45.5q17 30 17 109v411h104v-430q0 -83 -29 -134q-32 -53 -90.5 -85t-125.5 -32q-68 0 -126.5 32t-90.5 85q-29 51 -29 134zM408 700l-89 88l-90 -88l-75 37l131 143h68l130 -143z
" />
    <glyph glyph-name="Udieresis" unicode="&#xdc;" horiz-adv-x="638" 
d="M73 237v430h104v-411q0 -79 17 -109q17 -28 51.5 -45.5t72.5 -17.5q39 0 73.5 17.5t51.5 45.5q17 30 17 109v411h104v-430q0 -83 -29 -134q-32 -53 -90.5 -85t-125.5 -32q-68 0 -126.5 32t-90.5 85q-29 51 -29 134zM227 854q26 0 45 -18.5t19 -44.5q0 -27 -19 -45.5
t-45 -18.5q-27 0 -45.5 19t-18.5 46q0 25 19 43.5t45 18.5zM410 854q27 0 45.5 -18.5t18.5 -44.5q0 -27 -19 -45.5t-45 -18.5q-27 0 -45.5 19t-18.5 46q0 25 19 43.5t45 18.5z" />
    <glyph glyph-name="Yacute" unicode="&#xdd;" horiz-adv-x="529" 
d="M421 667h114l-219 -390v-277h-104v277l-219 390h115l156 -286zM309 895l95 -51l-145 -145l-66 38z" />
    <glyph glyph-name="Thorn" unicode="&#xde;" horiz-adv-x="472" 
d="M177 667v-94h44q91 0 141 -28q45 -25 70.5 -72.5t25.5 -103.5q0 -57 -26 -104t-70 -73q-52 -28 -141 -28h-44v-164h-104v667h104zM177 478v-220h52q72 0 101 32q26 32 26 79q0 109 -127 109h-52z" />
    <glyph glyph-name="germandbls" unicode="&#xdf;" horiz-adv-x="523" 
d="M156 0h-100v493q0 81 52.5 134.5t132.5 53.5q86 0 139.5 -52t53.5 -135q0 -76 -49 -124q33 -19 46 -33q53 -53 53 -137q0 -89 -62.5 -144.5t-162.5 -55.5h-59v94h62q55 0 88.5 30t33.5 79q0 53 -34.5 79.5t-89.5 26.5h-15v91h15q37 0 56.5 23.5t19.5 67.5
q0 46 -24.5 73.5t-65.5 27.5t-65.5 -27t-24.5 -72v-493z" />
    <glyph glyph-name="agrave" unicode="&#xe0;" horiz-adv-x="545" 
d="M489 443v-443h-100v38q-68 -52 -136 -52q-92 0 -158.5 69.5t-66.5 166.5q0 96 66 165.5t158 69.5q68 0 137 -52v38h100zM263 367q-60 0 -97 -40t-37 -104q0 -65 36.5 -106t95.5 -41q57 0 93.5 41t36.5 105q0 63 -36 104t-92 41zM256 499l-144 145l95 51l115 -158z" />
    <glyph glyph-name="aacute" unicode="&#xe1;" horiz-adv-x="545" 
d="M489 443v-443h-100v38q-68 -52 -136 -52q-92 0 -158.5 69.5t-66.5 166.5q0 96 66 165.5t158 69.5q68 0 137 -52v38h100zM263 367q-60 0 -97 -40t-37 -104q0 -65 36.5 -106t95.5 -41q57 0 93.5 41t36.5 105q0 63 -36 104t-92 41zM316 695l95 -51l-144 -145l-66 38z" />
    <glyph glyph-name="acircumflex" unicode="&#xe2;" horiz-adv-x="545" 
d="M489 443v-443h-100v38q-68 -52 -136 -52q-92 0 -158.5 69.5t-66.5 166.5q0 96 66 165.5t158 69.5q68 0 137 -52v38h100zM263 367q-60 0 -97 -40t-37 -104q0 -65 36.5 -106t95.5 -41q57 0 93.5 41t36.5 105q0 63 -36 104t-92 41zM348 500l-89 88l-90 -88l-75 37l131 143
h68l130 -143z" />
    <glyph glyph-name="atilde" unicode="&#xe3;" horiz-adv-x="545" 
d="M489 443v-443h-100v38q-68 -52 -136 -52q-92 0 -158.5 69.5t-66.5 166.5q0 96 66 165.5t158 69.5q68 0 137 -52v38h100zM263 367q-60 0 -97 -40t-37 -104q0 -65 36.5 -106t95.5 -41q57 0 93.5 41t36.5 105q0 63 -36 104t-92 41zM326 657l82 -19q-8 -108 -91 -108
q-39 0 -74 20q-24 13 -36 13q-7 0 -10.5 -7t-7.5 -31l-81 19q11 108 94 108q34 0 75 -22q20 -11 35 -11q10 0 14 38z" />
    <glyph glyph-name="adieresis" unicode="&#xe4;" horiz-adv-x="545" 
d="M489 443v-443h-100v38q-68 -52 -136 -52q-92 0 -158.5 69.5t-66.5 166.5q0 96 66 165.5t158 69.5q68 0 137 -52v38h100zM263 367q-60 0 -97 -40t-37 -104q0 -65 36.5 -106t95.5 -41q57 0 93.5 41t36.5 105q0 63 -36 104t-92 41zM175 657q26 0 45 -18.5t19 -44.5
q0 -27 -19 -45.5t-45 -18.5q-27 0 -45.5 18.5t-18.5 45.5q0 26 19 44.5t45 18.5zM358 657q26 0 45 -18.5t19 -44.5q0 -27 -19 -45.5t-45 -18.5q-27 0 -45.5 19t-18.5 46q0 25 19 43.5t45 18.5z" />
    <glyph glyph-name="aring" unicode="&#xe5;" horiz-adv-x="545" 
d="M489 443v-443h-100v38q-68 -52 -136 -52q-92 0 -158.5 69.5t-66.5 166.5q0 96 66 165.5t158 69.5q68 0 137 -52v38h100zM263 367q-60 0 -97 -40t-37 -104q0 -65 36.5 -106t95.5 -41q57 0 93.5 41t36.5 105q0 63 -36 104t-92 41zM270 691q43 0 73 -29.5t30 -70.5
q0 -43 -30 -72t-73 -29t-72.5 30t-29.5 72q0 40 30.5 69.5t71.5 29.5zM271 642q-21 0 -36.5 -15t-15.5 -36t15 -36.5t36 -15.5q22 0 37 15t15 37q0 21 -15 36t-36 15z" />
    <glyph glyph-name="ae" unicode="&#xe6;" horiz-adv-x="817" 
d="M699 148l86 -36q-74 -126 -208 -126q-97 0 -163 70q-50 -70 -176 -70q-96 0 -153 42t-57 112t52 110t143 40h122q-18 79 -113 79q-73 0 -138 -51l-51 65q49 40 95 57t104 17q59 0 103.5 -19.5t65.5 -53.5q67 73 160 73q97 0 157.5 -69t60.5 -179q0 -6 -1 -26h-335
q10 -51 43 -79t82 -28q34 0 64.5 15.5t47.5 41.5q0 1 5 8q2 4 4 7zM348 148v65h-111q-109 0 -109 -71q0 -68 111 -68q109 0 109 74zM453 260h236q-12 52 -42.5 80.5t-74.5 28.5q-46 0 -77 -29t-42 -80z" />
    <glyph glyph-name="ccedilla" unicode="&#xe7;" horiz-adv-x="462" 
d="M444 370l-66 -64q-33 35 -57 48t-58 13q-60 0 -97 -40t-37 -105t37 -105.5t97 -40.5q35 0 61 14.5t57 50.5l66 -65q-43 -48 -86.5 -69t-97.5 -21q-100 0 -167.5 68t-67.5 168t67.5 167.5t166.5 67.5q101 0 182 -87zM128 -184l97 154l92 -40l-118 -150z" />
    <glyph glyph-name="egrave" unicode="&#xe8;" horiz-adv-x="494" 
d="M466 211v-28h-335q10 -51 42.5 -79t81.5 -28q75 0 112 57q0 1 5 8q2 4 4 7l86 -36q-75 -126 -207 -126q-97 0 -162 67.5t-65 167.5q0 99 64 167.5t157 68.5q95 0 156 -69.5t61 -176.5zM131 260h236q-28 108 -117 108q-46 0 -77 -28.5t-42 -79.5zM250 499l-144 145l95 51
l115 -158z" />
    <glyph glyph-name="eacute" unicode="&#xe9;" horiz-adv-x="494" 
d="M466 211v-28h-335q10 -51 42.5 -79t81.5 -28q75 0 112 57q0 1 5 8q2 4 4 7l86 -36q-75 -126 -207 -126q-97 0 -162 67.5t-65 167.5q0 99 64 167.5t157 68.5q95 0 156 -69.5t61 -176.5zM131 260h236q-28 108 -117 108q-46 0 -77 -28.5t-42 -79.5zM293 695l96 -51
l-145 -145l-66 38z" />
    <glyph glyph-name="ecircumflex" unicode="&#xea;" horiz-adv-x="494" 
d="M466 211v-28h-335q10 -51 42.5 -79t81.5 -28q75 0 112 57q0 1 5 8q2 4 4 7l86 -36q-75 -126 -207 -126q-97 0 -162 67.5t-65 167.5q0 99 64 167.5t157 68.5q95 0 156 -69.5t61 -176.5zM131 260h236q-28 108 -117 108q-46 0 -77 -28.5t-42 -79.5zM337 500l-90 88l-90 -88
l-75 37l131 143h68l130 -143z" />
    <glyph glyph-name="edieresis" unicode="&#xeb;" horiz-adv-x="494" 
d="M466 211v-28h-335q10 -51 42.5 -79t81.5 -28q75 0 112 57q0 1 5 8q2 4 4 7l86 -36q-75 -126 -207 -126q-97 0 -162 67.5t-65 167.5q0 99 64 167.5t157 68.5q95 0 156 -69.5t61 -176.5zM131 260h236q-28 108 -117 108q-46 0 -77 -28.5t-42 -79.5zM155 657q26 0 45 -18.5
t19 -44.5q0 -27 -19 -45.5t-45 -18.5q-27 0 -45.5 18.5t-18.5 45.5q0 26 19 44.5t45 18.5zM339 657q27 0 45.5 -18.5t18.5 -44.5q0 -27 -19 -45.5t-45 -18.5q-27 0 -45.5 18.5t-18.5 45.5q0 26 19 44.5t45 18.5z" />
    <glyph glyph-name="igrave" unicode="&#xec;" horiz-adv-x="213" 
d="M56 443h100v-443h-100v443zM98 499l-144 145l95 51l115 -158z" />
    <glyph glyph-name="iacute" unicode="&#xed;" horiz-adv-x="213" 
d="M57 443h100v-443h-100v443zM164 695l95 -51l-144 -145l-66 38z" />
    <glyph glyph-name="icircumflex" unicode="&#xee;" horiz-adv-x="213" 
d="M56 443h100v-443h-100v443zM196 500l-90 88l-89 -88l-75 37l130 143h68l131 -143z" />
    <glyph glyph-name="idieresis" unicode="&#xef;" horiz-adv-x="213" 
d="M57 443h100v-443h-100v443zM34 657q26 0 45 -18.5t19 -44.5q0 -27 -19 -45.5t-45 -18.5q-27 0 -45.5 18.5t-18.5 45.5q0 26 19 44.5t45 18.5zM179 657q26 0 45 -18.5t19 -44.5q0 -27 -19 -45.5t-45 -18.5q-27 0 -45.5 19t-18.5 46q0 25 19 43.5t45 18.5z" />
    <glyph glyph-name="eth" unicode="&#xf0;" horiz-adv-x="527" 
d="M355 661l38 -47l-55 -29q77 -55 118.5 -141t41.5 -191q0 -93 -35 -155q-30 -52 -83.5 -82t-116.5 -30q-98 0 -165.5 68t-67.5 167q0 97 65.5 165.5t159.5 68.5q39 0 84 -16q-54 63 -101 92l-96 -53l-39 47l67 36l-5 2q-27 7 -77 15l13 89q104 -13 178 -47zM264 367
q-59 0 -96 -40t-37 -105t37 -105.5t96 -40.5q58 0 95 40.5t37 102.5q0 66 -36.5 107t-95.5 41z" />
    <glyph glyph-name="ntilde" unicode="&#xf1;" horiz-adv-x="509" 
d="M56 0v443h100v-32q47 46 113 46q49 0 92 -23.5t65 -63.5q27 -45 27 -131v-239h-100v231q0 30 -3 50.5t-12 41.5t-29 31.5t-50 10.5q-28 0 -52 -12t-34 -32q-17 -29 -17 -99v-222h-100zM323 657l83 -19q-8 -108 -92 -108q-38 0 -73 20q-24 13 -37 13q-7 0 -9.5 -6.5
t-7.5 -31.5l-81 19q11 108 93 108q34 0 75 -22q22 -11 35 -11q12 0 14 38z" />
    <glyph glyph-name="ograve" unicode="&#xf2;" horiz-adv-x="522" 
d="M265 457q95 0 162 -68.5t67 -166.5q0 -100 -67.5 -168t-165.5 -68q-99 0 -166 68.5t-67 169.5q0 99 68 166t169 67zM263 367q-60 0 -97 -40t-37 -104q0 -65 36.5 -106t95.5 -41q58 0 95 40.5t37 105.5q0 63 -36.5 104t-93.5 41zM259 499l-144 145l95 51l115 -158z" />
    <glyph glyph-name="oacute" unicode="&#xf3;" horiz-adv-x="522" 
d="M265 457q95 0 162 -68.5t67 -166.5q0 -100 -67.5 -168t-165.5 -68q-99 0 -166 68.5t-67 169.5q0 99 68 166t169 67zM263 367q-60 0 -97 -40t-37 -104q0 -65 36.5 -106t95.5 -41q58 0 95 40.5t37 105.5q0 63 -36.5 104t-93.5 41zM313 695l95 -51l-145 -145l-66 38z" />
    <glyph glyph-name="ocircumflex" unicode="&#xf4;" horiz-adv-x="522" 
d="M265 457q95 0 162 -68.5t67 -166.5q0 -100 -67.5 -168t-165.5 -68q-99 0 -166 68.5t-67 169.5q0 99 68 166t169 67zM263 367q-60 0 -97 -40t-37 -106q0 -64 37 -104.5t95 -40.5t95 40.5t37 105.5q0 64 -36.5 104.5t-93.5 40.5zM351 500l-90 88l-89 -88l-75 37l130 143h68
l131 -143z" />
    <glyph glyph-name="otilde" unicode="&#xf5;" horiz-adv-x="522" 
d="M265 457q95 0 162 -68.5t67 -166.5q0 -100 -67.5 -168t-165.5 -68q-99 0 -166 68.5t-67 169.5q0 99 68 166t169 67zM263 367q-60 0 -97 -40t-37 -104q0 -65 36.5 -106t95.5 -41q58 0 95 40.5t37 105.5q0 63 -36.5 104t-93.5 41zM328 657l83 -19q-7 -108 -92 -108
q-38 0 -73 20q-24 13 -37 13q-7 0 -9.5 -6.5t-7.5 -31.5l-81 19q11 108 93 108q34 0 75 -22q22 -11 35 -11q12 0 14 38z" />
    <glyph glyph-name="odieresis" unicode="&#xf6;" horiz-adv-x="522" 
d="M265 457q95 0 162 -68.5t67 -166.5q0 -100 -67.5 -168t-165.5 -68q-99 0 -166 68.5t-67 169.5q0 99 68 166t169 67zM263 367q-60 0 -97 -40t-37 -104q0 -65 36.5 -106t95.5 -41q58 0 95 40.5t37 105.5q0 63 -36.5 104t-93.5 41zM168 657q26 0 45 -18.5t19 -44.5
q0 -27 -19 -45.5t-46 -18.5q-26 0 -44.5 19t-18.5 46q0 25 19 43.5t45 18.5zM352 657q26 0 45 -18.5t19 -44.5t-19 -45t-45 -19q-27 0 -45.5 18.5t-18.5 45.5q0 26 19 44.5t45 18.5z" />
    <glyph glyph-name="divide" unicode="&#xf7;" horiz-adv-x="556" 
d="M50 357h455v-89h-455v89zM278 204q27 0 46.5 -19.5t19.5 -46.5q0 -28 -19.5 -47.5t-47.5 -19.5q-27 0 -46.5 19.5t-19.5 47.5q0 27 19.5 46.5t47.5 19.5zM278 553q27 0 46.5 -19.5t19.5 -46.5q0 -28 -19.5 -47.5t-47.5 -19.5q-27 0 -46.5 19.5t-19.5 47.5q0 27 19.5 46.5
t47.5 19.5z" />
    <glyph glyph-name="oslash" unicode="&#xf8;" horiz-adv-x="536" 
d="M85 -2l-50 48l41 40q-41 61 -41 135q0 100 67.5 168t166.5 68q83 0 143 -49l39 37l50 -48l-41 -40q41 -59 41 -135q0 -100 -67.5 -168t-166.5 -68q-79 0 -143 49zM148 155l197 188q-31 24 -76 24q-59 0 -96 -40t-37 -105q0 -36 12 -67zM388 288l-196 -188q32 -24 75 -24
q59 0 96 41t37 106q0 37 -12 65z" />
    <glyph glyph-name="ugrave" unicode="&#xf9;" horiz-adv-x="509" 
d="M453 443v-443h-100v32q-47 -46 -112 -46q-50 0 -93 23.5t-65 63.5q-27 45 -27 131v239h100v-231q0 -30 3 -50.5t12 -41.5t29 -31.5t50 -10.5q28 0 52 12t34 31q17 29 17 101v221h100zM254 499l-144 145l95 51l115 -158z" />
    <glyph glyph-name="uacute" unicode="&#xfa;" horiz-adv-x="509" 
d="M453 443v-443h-100v32q-47 -46 -112 -46q-50 0 -93 23.5t-65 63.5q-27 45 -27 131v239h100v-231q0 -30 3 -50.5t12 -41.5t29 -31.5t50 -10.5q28 0 52 12t34 31q17 29 17 101v221h100zM301 695l95 -51l-144 -145l-66 38z" />
    <glyph glyph-name="ucircumflex" unicode="&#xfb;" horiz-adv-x="509" 
d="M453 443v-443h-100v32q-47 -46 -112 -46q-50 0 -93 23.5t-65 63.5q-27 45 -27 131v239h100v-231q0 -30 3 -50.5t12 -41.5t29 -31.5t50 -10.5q28 0 52 12t34 31q17 29 17 101v221h100zM344 500l-90 88l-89 -88l-75 37l130 143h68l131 -143z" />
    <glyph glyph-name="udieresis" unicode="&#xfc;" horiz-adv-x="509" 
d="M453 443v-443h-100v32q-47 -46 -112 -46q-50 0 -93 23.5t-65 63.5q-27 45 -27 131v239h100v-231q0 -30 3 -50.5t12 -41.5t29 -31.5t50 -10.5q28 0 52 12t34 31q17 29 17 101v221h100zM162 657q26 0 45 -18.5t19 -44.5q0 -27 -19 -45.5t-45 -18.5q-27 0 -45.5 18.5
t-18.5 45.5q0 26 19 44.5t45 18.5zM346 657q27 0 45.5 -18.5t18.5 -44.5q0 -27 -19 -45.5t-45 -18.5q-27 0 -45.5 19t-18.5 46q0 25 19 43.5t45 18.5z" />
    <glyph glyph-name="yacute" unicode="&#xfd;" horiz-adv-x="463" 
d="M169 -233h-105l112 254l-182 422h108l127 -301l132 301h108zM280 695l95 -51l-144 -145l-66 38z" />
    <glyph glyph-name="thorn" unicode="&#xfe;" horiz-adv-x="546" 
d="M57 -233v900h100v-262q68 52 136 52q92 0 158.5 -69.5t66.5 -166.5q0 -96 -66 -165.5t-158 -69.5q-68 0 -137 52v-271h-100zM286 366q-57 0 -93 -40t-36 -104q0 -65 35.5 -105.5t91.5 -40.5q59 0 96 40t37 105q0 64 -36.5 104.5t-94.5 40.5z" />
    <glyph glyph-name="ydieresis" unicode="&#xff;" horiz-adv-x="463" 
d="M169 -233h-105l112 254l-182 422h108l127 -301l132 301h108zM139 657q26 0 45 -18.5t19 -44.5q0 -27 -19 -45.5t-45 -18.5q-27 0 -45.5 18.5t-18.5 45.5q0 26 19 44.5t45 18.5zM323 657q26 0 45 -18.5t19 -44.5q0 -27 -19 -45.5t-45 -18.5q-27 0 -45.5 19t-18.5 46
q0 25 19 43.5t45 18.5z" />
    <glyph glyph-name="Amacron" unicode="&#x100;" horiz-adv-x="631" 
d="M458 172h-286l-63 -172h-109l251 667h128l252 -667h-110zM315 559l-108 -291h215zM166 746v89h299v-89h-299z" />
    <glyph glyph-name="amacron" unicode="&#x101;" horiz-adv-x="545" 
d="M489 443v-443h-100v38q-68 -52 -136 -52q-92 0 -158.5 69.5t-66.5 166.5q0 96 66 165.5t158 69.5q68 0 137 -52v38h100zM263 367q-60 0 -97 -40t-37 -104q0 -65 36.5 -106t95.5 -41q57 0 93.5 41t36.5 105q0 63 -36 104t-92 41zM121 546v89h299v-89h-299z" />
    <glyph glyph-name="Abreve" unicode="&#x102;" horiz-adv-x="631" 
d="M458 172h-286l-63 -172h-109l251 667h128l252 -667h-110zM315 559l-108 -291h215zM170 859l86 7q2 -37 7 -46q15 -33 50 -33q37 0 52 35q4 8 9 43l87 -7q-6 -49 -18 -75q-42 -81 -129 -81q-47 0 -84 25.5t-52 68.5q-7 18 -8 63z" />
    <glyph glyph-name="abreve" unicode="&#x103;" horiz-adv-x="545" 
d="M489 443v-443h-100v38q-68 -52 -136 -52q-92 0 -158.5 69.5t-66.5 166.5q0 96 66 165.5t158 69.5q68 0 137 -52v38h100zM263 367q-60 0 -97 -40t-37 -104q0 -65 36.5 -106t95.5 -41q57 0 93.5 41t36.5 105q0 63 -36 104t-92 41zM115 659l86 7q1 -23 4.5 -37.5t16.5 -27.5
t36 -13q36 0 53 35q5 14 9 43l86 -7q-6 -49 -18 -75q-42 -81 -129 -81q-47 0 -84 25t-52 68q-7 19 -8 63z" />
    <glyph glyph-name="Aogonek" unicode="&#x104;" horiz-adv-x="631" 
d="M0 0l251 667h128l252 -667l-5 -6q-31 -39 -31 -60q0 -14 18 -14q16 0 46 11l29 -74q-49 -19 -84 -19q-42 0 -71 26.5t-29 64.5q0 33 27 71h-10l-63 172h-286l-63 -172h-109zM315 559l-108 -291h215z" />
    <glyph glyph-name="aogonek" unicode="&#x105;" horiz-adv-x="545" 
d="M389 0v38q-68 -52 -136 -52q-92 0 -158.5 69.5t-66.5 166.5q0 96 66 165.5t158 69.5q68 0 137 -52v38h100v-443q-2 -3 -6 -8q-30 -36 -30 -58q0 -14 18 -14q16 0 46 11l30 -74q-50 -19 -84 -19q-43 0 -72 26.5t-29 64.5q0 33 27 71zM263 367q-60 0 -97 -40t-37 -104
q0 -65 36.5 -106t95.5 -41q57 0 93.5 41t36.5 105q0 63 -36 104t-92 41z" />
    <glyph glyph-name="Cacute" unicode="&#x106;" horiz-adv-x="670" 
d="M640 562l-73 -70q-47 50 -88.5 70.5t-95.5 20.5q-103 0 -173 -72t-70 -178q0 -104 70.5 -176.5t172.5 -72.5q58 0 100 23t87 70l73 -71q-64 -64 -124 -92t-134 -28q-146 0 -248 101t-102 246t102 246.5t247 101.5q74 0 135 -28t121 -91zM441 895l95 -51l-144 -145l-66 38
z" />
    <glyph glyph-name="cacute" unicode="&#x107;" horiz-adv-x="462" 
d="M444 370l-66 -64q-33 35 -57 48t-58 13q-60 0 -97 -40t-37 -105t37 -105.5t97 -40.5q35 0 61 14.5t57 50.5l66 -65q-43 -48 -86.5 -69t-97.5 -21q-100 0 -167.5 68t-67.5 168t67.5 167.5t166.5 67.5q101 0 182 -87zM300 695l96 -51l-145 -145l-66 38z" />
    <glyph glyph-name="Ccircumflex" unicode="&#x108;" horiz-adv-x="670" 
d="M640 562l-73 -70q-47 50 -88.5 70.5t-95.5 20.5q-103 0 -173 -72t-70 -178q0 -104 70.5 -176.5t172.5 -72.5q58 0 100 23t87 70l73 -71q-64 -64 -124 -92t-134 -28q-146 0 -248 101t-102 246t102 246.5t247 101.5q74 0 135 -28t121 -91zM462 700l-89 88l-90 -88l-75 37
l131 143h68l130 -143z" />
    <glyph glyph-name="ccircumflex" unicode="&#x109;" horiz-adv-x="462" 
d="M444 370l-66 -64q-33 35 -57 48t-58 13q-60 0 -97 -40t-37 -105t37 -105.5t97 -40.5q35 0 61 14.5t57 50.5l66 -65q-43 -48 -86.5 -69t-97.5 -21q-100 0 -167.5 68t-67.5 168t67.5 167.5t166.5 67.5q101 0 182 -87zM341 500l-90 88l-90 -88l-74 37l130 143h68l131 -143z
" />
    <glyph glyph-name="Cdotaccent" unicode="&#x10a;" horiz-adv-x="670" 
d="M640 562l-73 -70q-47 50 -88.5 70.5t-95.5 20.5q-103 0 -173 -72t-70 -178q0 -104 70.5 -176.5t172.5 -72.5q58 0 100 23t87 70l73 -71q-64 -64 -124 -92t-134 -28q-146 0 -248 101t-102 246t102 246.5t247 101.5q74 0 135 -28t121 -91zM381 854q26 0 45 -18.5t19 -44.5
q0 -27 -19 -45.5t-45 -18.5q-27 0 -45.5 18.5t-18.5 45.5q0 26 19 44.5t45 18.5z" />
    <glyph glyph-name="cdotaccent" unicode="&#x10b;" horiz-adv-x="462" 
d="M444 370l-66 -64q-33 35 -57 48t-58 13q-60 0 -97 -40t-37 -105t37 -105.5t97 -40.5q35 0 61 14.5t57 50.5l66 -65q-43 -48 -86.5 -69t-97.5 -21q-100 0 -167.5 68t-67.5 168t67.5 167.5t166.5 67.5q101 0 182 -87zM254 657q26 0 45 -18.5t19 -44.5q0 -27 -19 -45.5
t-45 -18.5q-27 0 -45.5 18.5t-18.5 45.5q0 26 19 44.5t45 18.5z" />
    <glyph glyph-name="Ccaron" unicode="&#x10c;" horiz-adv-x="670" 
d="M640 562l-73 -70q-47 50 -88.5 70.5t-95.5 20.5q-103 0 -173 -72t-70 -178q0 -104 70.5 -176.5t172.5 -72.5q58 0 100 23t87 70l73 -71q-64 -64 -124 -92t-134 -28q-146 0 -248 101t-102 246t102 246.5t247 101.5q74 0 135 -28t121 -91zM283 888l90 -88l89 88l75 -37
l-130 -143h-68l-131 143z" />
    <glyph glyph-name="ccaron" unicode="&#x10d;" horiz-adv-x="462" 
d="M444 370l-66 -64q-33 35 -57 48t-58 13q-60 0 -97 -40t-37 -105t37 -105.5t97 -40.5q35 0 61 14.5t57 50.5l66 -65q-43 -48 -86.5 -69t-97.5 -21q-100 0 -167.5 68t-67.5 168t67.5 167.5t166.5 67.5q101 0 182 -87zM161 688l90 -88l90 88l75 -37l-131 -143h-68l-130 143z
" />
    <glyph glyph-name="Dcaron" unicode="&#x10e;" horiz-adv-x="619" 
d="M73 0v667h148q167 0 264.5 -89.5t97.5 -243.5t-97.5 -244t-264.5 -90h-148zM224 571h-47v-475h47q118 0 186.5 64t68.5 174q0 109 -68.5 173t-186.5 64zM201 888l90 -88l89 88l75 -37l-130 -143h-68l-131 143z" />
    <glyph glyph-name="dcaron" unicode="&#x10f;" horiz-adv-x="664" 
d="M489 667v-667h-100v38q-68 -52 -136 -52q-92 0 -158.5 69.5t-66.5 166.5q0 96 66 165.5t158 69.5q68 0 137 -52v262h100zM262 366q-59 0 -96 -40t-37 -104t36.5 -105t94.5 -41q57 0 93 40.5t36 103.5q0 65 -35.5 105.5t-91.5 40.5zM600 489l-73 23l54 182l95 -28z" />
    <glyph glyph-name="Dcroat" unicode="&#x110;" horiz-adv-x="631" 
d="M86 314h-64v92h64v261h148q167 0 265 -89.5t98 -242.5q0 -154 -98 -244.5t-265 -90.5h-148v314zM190 571v-165h149v-92h-149v-218h47q119 0 187.5 64t68.5 175q0 109 -69 172.5t-187 63.5h-47z" />
    <glyph glyph-name="dcroat" unicode="&#x111;" horiz-adv-x="546" 
d="M275 598h114v69h100v-69h58v-90h-58v-508h-100v38q-68 -52 -136 -52q-92 0 -158.5 69.5t-66.5 166.5q0 96 66.5 165.5t158.5 69.5q68 0 136 -52v103h-114v90zM263 366q-60 0 -97 -40t-37 -104q0 -65 37 -105.5t95 -40.5q56 0 92 40.5t36 103.5q0 64 -35 105t-91 41z" />
    <glyph glyph-name="Emacron" unicode="&#x112;" horiz-adv-x="481" 
d="M435 667v-96h-258v-185h230v-96h-230v-194h268v-96h-372v667h362zM110 746v89h299v-89h-299z" />
    <glyph glyph-name="emacron" unicode="&#x113;" horiz-adv-x="494" 
d="M466 211v-28h-335q10 -51 42.5 -79t81.5 -28q75 0 112 57q0 1 5 8q2 4 4 7l86 -36q-75 -126 -207 -126q-97 0 -162 67.5t-65 167.5q0 99 64 167.5t157 68.5q95 0 156 -69.5t61 -176.5zM131 260h236q-28 108 -117 108q-46 0 -77 -28.5t-42 -79.5zM97 546v89h299v-89h-299z
" />
    <glyph glyph-name="Ebreve" unicode="&#x114;" horiz-adv-x="481" 
d="M435 667v-96h-258v-185h230v-96h-230v-194h268v-96h-372v667h362zM114 859l86 7q2 -37 7 -46q15 -33 50 -33q22 0 36 13t18 27t7 38l86 -7q-5 -49 -18 -75q-40 -81 -129 -81q-46 0 -83 25.5t-52 68.5q-8 21 -8 63z" />
    <glyph glyph-name="ebreve" unicode="&#x115;" horiz-adv-x="494" 
d="M466 211v-28h-335q10 -51 42.5 -79t81.5 -28q75 0 112 57q0 1 5 8q2 4 4 7l86 -36q-75 -126 -207 -126q-97 0 -162 67.5t-65 167.5q0 99 64 167.5t157 68.5q95 0 156 -69.5t61 -176.5zM131 260h236q-28 108 -117 108q-46 0 -77 -28.5t-42 -79.5zM103 659l86 7l1 -14
q3 -65 56 -65q37 0 52 35q4 9 9 44l87 -7q-7 -53 -19 -76q-41 -81 -128 -81q-47 0 -84 25.5t-52 68.5q-7 19 -8 63z" />
    <glyph glyph-name="Edotaccent" unicode="&#x116;" horiz-adv-x="481" 
d="M435 667v-96h-258v-185h230v-96h-230v-194h268v-96h-372v667h362zM259 854q26 0 45 -18.5t19 -44.5q0 -27 -19 -45.5t-46 -18.5q-26 0 -44.5 19t-18.5 46q0 25 19 43.5t45 18.5z" />
    <glyph glyph-name="edotaccent" unicode="&#x117;" horiz-adv-x="494" 
d="M466 211v-28h-335q10 -51 42.5 -79t81.5 -28q75 0 112 57q0 1 5 8q2 4 4 7l86 -36q-75 -126 -207 -126q-97 0 -162 67.5t-65 167.5q0 99 64 167.5t157 68.5q95 0 156 -69.5t61 -176.5zM131 260h236q-28 108 -117 108q-46 0 -77 -28.5t-42 -79.5zM246 657q26 0 45 -18.5
t19 -44.5q0 -27 -19 -45.5t-45 -18.5q-27 0 -45.5 18.5t-18.5 45.5q0 26 19 44.5t45 18.5z" />
    <glyph glyph-name="Eogonek" unicode="&#x118;" horiz-adv-x="481" 
d="M177 96h268v-96l-4 -5q-32 -39 -32 -61q0 -14 17 -14t47 11l30 -74q-50 -19 -85 -19q-42 0 -71 26.5t-29 64.5q0 35 28 71h-273v667h362v-96h-258v-185h230v-96h-230v-194z" />
    <glyph glyph-name="eogonek" unicode="&#x119;" horiz-adv-x="494" 
d="M376 148l86 -36q-61 -106 -169 -123q-28 -35 -28 -55q0 -14 18 -14q15 0 47 11l29 -75q-51 -18 -84 -18q-43 0 -72 26t-29 65q0 31 23 64q-75 18 -122 82t-47 147q0 98 64 166.5t157 68.5q95 0 156 -69.5t61 -176.5v-28h-335q10 -51 42.5 -79t81.5 -28q75 0 112 57
q0 1 5 8q2 4 4 7zM131 260h236q-28 108 -117 108q-46 0 -77 -28.5t-42 -79.5z" />
    <glyph glyph-name="Ecaron" unicode="&#x11a;" horiz-adv-x="481" 
d="M435 667v-96h-258v-185h230v-96h-230v-194h268v-96h-372v667h362zM170 888l89 -88l90 88l75 -37l-130 -143h-69l-130 143z" />
    <glyph glyph-name="ecaron" unicode="&#x11b;" horiz-adv-x="494" 
d="M466 211v-28h-335q10 -51 42.5 -79t81.5 -28q75 0 112 57q0 1 5 8q2 4 4 7l86 -36q-75 -126 -207 -126q-97 0 -162 67.5t-65 167.5q0 99 64 167.5t157 68.5q95 0 156 -69.5t61 -176.5zM131 260h236q-28 108 -117 108q-46 0 -77 -28.5t-42 -79.5zM157 688l90 -88l90 88
l74 -37l-130 -143h-68l-131 143z" />
    <glyph glyph-name="Gcircumflex" unicode="&#x11c;" horiz-adv-x="727" 
d="M392 263v96h297v-50q0 -146 -83.5 -234.5t-219.5 -88.5q-146 0 -248.5 101t-102.5 246t101.5 246.5t246.5 101.5q79 0 137.5 -29t118.5 -89l-72 -70q-48 50 -89 70t-95 20q-103 0 -173 -72t-70 -178q0 -105 70.5 -177t173.5 -72q102 0 158 72q30 39 40 107h-190zM458 700
l-89 88l-90 -88l-75 37l131 143h68l130 -143z" />
    <glyph glyph-name="gcircumflex" unicode="&#x11d;" horiz-adv-x="545" 
d="M389 443h100v-452q0 -106 -65.5 -172t-171.5 -66q-102 0 -172 64q-11 10 -41 45l65 65q8 -10 12 -14q35 -41 63 -55.5t71 -14.5q66 0 102.5 39t36.5 109v47q-56 -52 -132 -52q-95 0 -162 69t-67 167t67 166.5t162 68.5q73 0 132 -52v38zM263 367q-60 0 -97 -40t-37 -104
q0 -65 36.5 -106t95.5 -41q56 0 92.5 40.5t36.5 103.5q0 65 -35.5 106t-91.5 41zM348 500l-89 88l-90 -88l-75 37l131 143h68l130 -143z" />
    <glyph glyph-name="Gbreve" unicode="&#x11e;" horiz-adv-x="727" 
d="M392 263v96h297v-50q0 -146 -83.5 -234.5t-219.5 -88.5q-146 0 -248.5 101t-102.5 246t101.5 246.5t246.5 101.5q79 0 137.5 -29t118.5 -89l-72 -70q-48 50 -89 70t-95 20q-103 0 -173 -72t-70 -178q0 -105 70.5 -177t173.5 -72q102 0 158 72q30 39 40 107h-190zM242 859
l86 7l1 -14q3 -65 56 -65q37 0 52 35q4 8 9 43l87 -7q-6 -49 -18 -75q-42 -81 -129 -81q-47 0 -84 25.5t-52 68.5q-7 18 -8 63z" />
    <glyph glyph-name="gbreve" unicode="&#x11f;" horiz-adv-x="545" 
d="M389 443h100v-452q0 -106 -65.5 -172t-171.5 -66q-102 0 -172 64q-11 10 -41 45l65 65q8 -10 12 -14q35 -41 63 -55.5t71 -14.5q66 0 102.5 39t36.5 109v47q-56 -52 -132 -52q-95 0 -162 69t-67 167t67 166.5t162 68.5q73 0 132 -52v38zM263 367q-60 0 -97 -40t-37 -104
q0 -65 36.5 -106t95.5 -41q56 0 92.5 40.5t36.5 103.5q0 65 -35.5 106t-91.5 41zM115 659l87 7v-14q3 -65 57 -65q33 0 44.5 21t16.5 58l86 -7q-6 -53 -18 -76q-42 -81 -129 -81q-46 0 -83 25.5t-53 68.5q-7 18 -8 63z" />
    <glyph glyph-name="Gdotaccent" unicode="&#x120;" horiz-adv-x="727" 
d="M392 263v96h297v-50q0 -146 -83.5 -234.5t-219.5 -88.5q-146 0 -248.5 101t-102.5 246t101.5 246.5t246.5 101.5q79 0 137.5 -29t118.5 -89l-72 -70q-48 50 -89 70t-95 20q-103 0 -173 -72t-70 -178q0 -105 70.5 -177t173.5 -72q102 0 158 72q30 39 40 107h-190zM385 854
q26 0 45 -18.5t19 -44.5q0 -27 -19 -45.5t-46 -18.5q-26 0 -44.5 19t-18.5 46q0 25 19 43.5t45 18.5z" />
    <glyph glyph-name="gdotaccent" unicode="&#x121;" horiz-adv-x="545" 
d="M389 443h100v-452q0 -106 -65.5 -172t-171.5 -66q-102 0 -172 64q-11 10 -41 45l65 65q8 -10 12 -14q35 -41 63 -55.5t71 -14.5q66 0 102.5 39t36.5 109v47q-56 -52 -132 -52q-95 0 -162 69t-67 167t67 166.5t162 68.5q73 0 132 -52v38zM263 367q-60 0 -97 -40t-37 -104
q0 -65 36.5 -106t95.5 -41q56 0 92.5 40.5t36.5 103.5q0 65 -35.5 106t-91.5 41zM259 657q26 0 45 -18.5t19 -44.5q0 -27 -19 -45.5t-45 -18.5q-27 0 -45.5 18.5t-18.5 45.5q0 26 19 44.5t45 18.5z" />
    <glyph glyph-name="Gcommaaccent" unicode="&#x122;" horiz-adv-x="727" 
d="M392 263v96h297v-50q0 -146 -83.5 -234.5t-219.5 -88.5q-146 0 -248.5 101t-102.5 246t101.5 246.5t246.5 101.5q79 0 137.5 -29t118.5 -89l-72 -70q-48 50 -89 70t-95 20q-103 0 -173 -72t-70 -178q0 -105 70.5 -177t173.5 -72q102 0 158 72q30 39 40 107h-190z
M362 -236l-74 23l54 182l96 -28z" />
    <glyph glyph-name="gcommaaccent" unicode="&#x123;" horiz-adv-x="545" 
d="M389 443h100v-452q0 -106 -65.5 -172t-171.5 -66q-102 0 -172 64q-11 10 -41 45l65 65q8 -10 12 -14q35 -41 63 -55.5t71 -14.5q66 0 102.5 39t36.5 109v47q-56 -52 -132 -52q-95 0 -162 69t-67 167t67 166.5t162 68.5q73 0 132 -52v38zM263 367q-60 0 -97 -40t-37 -104
q0 -65 36.5 -106t95.5 -41q56 0 92.5 40.5t36.5 103.5q0 65 -35.5 106t-91.5 41zM285 694l74 -23l-54 -182l-96 29z" />
    <glyph glyph-name="Hcircumflex" unicode="&#x124;" horiz-adv-x="650" 
d="M73 0v667h104v-281h296v281h104v-667h-104v290h-296v-290h-104zM415 700l-90 88l-90 -88l-74 37l130 143h68l130 -143z" />
    <glyph glyph-name="hcircumflex" unicode="&#x125;" horiz-adv-x="509" 
d="M56 0v667h100v-256q47 46 112 46q50 0 93 -23.5t65 -63.5q27 -45 27 -131v-239h-100v231q0 30 -3 50.5t-12 41.5t-29 31.5t-50 10.5q-28 0 -52 -12t-34 -32q-17 -29 -17 -99v-222h-100zM347 700l-89 88l-90 -88l-75 37l131 143h68l130 -143z" />
    <glyph glyph-name="Hbar" unicode="&#x126;" horiz-adv-x="649" 
d="M634 508h-57v-508h-104v290h-296v-290h-104v508h-58v90h58v69h104v-69h296v69h104v-69h57v-90zM473 386v122h-296v-122h296z" />
    <glyph glyph-name="hbar" unicode="&#x127;" horiz-adv-x="508" 
d="M271 508h-117v-97q50 46 113 46q49 0 92 -23.5t65 -63.5q27 -45 27 -131v-239h-100v231q0 29 -3 49.5t-12 41.5t-28.5 32t-49.5 11q-63 0 -87 -44q-17 -29 -17 -99v-222h-100v508h-58v90h58v69h100v-69h117v-90z" />
    <glyph glyph-name="Itilde" unicode="&#x128;" horiz-adv-x="250" 
d="M73 667h104v-667h-104v667zM192 857l83 -20q-7 -108 -92 -108q-39 0 -73 21q-24 13 -37 13q-7 0 -9.5 -6.5t-7.5 -31.5l-81 19q11 108 93 108q32 0 75 -23q22 -11 35 -11q12 0 14 39z" />
    <glyph glyph-name="itilde" unicode="&#x129;" horiz-adv-x="213" 
d="M57 443h100v-443h-100v443zM174 657l83 -19q-7 -108 -92 -108q-38 0 -73 20q-24 13 -37 13q-7 0 -9.5 -6.5t-7.5 -31.5l-81 19q11 108 93 108q34 0 75 -22q22 -11 35 -11q12 0 14 38z" />
    <glyph glyph-name="Imacron" unicode="&#x12a;" horiz-adv-x="250" 
d="M74 667h104v-667h-104v667zM-24 746v89h299v-89h-299z" />
    <glyph glyph-name="imacron" unicode="&#x12b;" horiz-adv-x="213" 
d="M57 443h100v-443h-100v443zM-43 546v89h299v-89h-299z" />
    <glyph glyph-name="Ibreve" unicode="&#x12c;" horiz-adv-x="250" 
d="M74 667h104v-667h-104v667zM-20 859l86 7q2 -37 7 -46q15 -33 50 -33q36 0 53 35q5 13 8 43l87 -7q-6 -49 -18 -75q-42 -81 -129 -81q-47 0 -84 25.5t-52 68.5q-7 18 -8 63z" />
    <glyph glyph-name="ibreve" unicode="&#x12d;" horiz-adv-x="213" 
d="M56 443h100v-443h-100v443zM-39 659l86 7q2 -37 7 -46q15 -33 50 -33q36 0 53 35q5 13 8 44l87 -7q-6 -50 -18 -76q-42 -81 -129 -81q-47 0 -84 25.5t-52 68.5q-7 18 -8 63z" />
    <glyph glyph-name="Iogonek" unicode="&#x12e;" horiz-adv-x="250" 
d="M73 0v667h104v-667q-11 -11 -23.5 -32.5t-12.5 -33.5q0 -14 18 -14q17 0 46 11l30 -74q-50 -19 -84 -19q-43 0 -72 26.5t-29 64.5q0 33 27 71h-4z" />
    <glyph glyph-name="iogonek" unicode="&#x12f;" horiz-adv-x="213" 
d="M57 443h100v-443q-1 -1 -1.5 -2t-2 -3t-2.5 -3q-30 -38 -30 -58q0 -14 18 -14q17 0 46 11l30 -75q-51 -18 -84 -18q-43 0 -72 26t-29 65q0 33 27 71v443zM107 657q27 0 46 -18.5t19 -45.5t-19 -45.5t-46 -18.5t-45.5 19t-18.5 46q0 26 19 44.5t45 18.5z" />
    <glyph glyph-name="Idotaccent" unicode="&#x130;" horiz-adv-x="250" 
d="M73 667h104v-667h-104v667zM125 854q26 0 45 -18.5t19 -44.5t-19 -45t-45 -19q-27 0 -45.5 18.5t-18.5 45.5q0 26 19 44.5t45 18.5z" />
    <glyph glyph-name="dotlessi" unicode="&#x131;" horiz-adv-x="213" 
d="M57 443h100v-443h-100v443z" />
    <glyph glyph-name="IJ" unicode="&#x132;" horiz-adv-x="658" 
d="M73 667h104v-667h-104v667zM480 667h104v-462q0 -87 -28 -139q-21 -37 -60.5 -58.5t-86.5 -21.5t-86 19t-85 64l65 75q56 -60 105 -60q72 0 72 121v462z" />
    <glyph glyph-name="ij" unicode="&#x133;" horiz-adv-x="433" 
d="M57 443h100v-443h-100v443zM200 -232v93q32 -9 47 -9q29 0 29 53v538h100v-538q0 -70 -30 -108.5t-86 -38.5q-26 0 -60 10zM106 657q27 0 46 -18.5t19 -45.5q0 -26 -19 -45t-45 -19q-28 0 -46.5 19t-18.5 46q0 26 19 44.5t45 18.5zM325 657q27 0 46 -18.5t19 -45.5
t-19 -45.5t-46 -18.5t-45.5 19t-18.5 46q0 26 19 44.5t45 18.5z" />
    <glyph glyph-name="Jcircumflex" unicode="&#x134;" horiz-adv-x="416" 
d="M239 667h104v-462q0 -87 -28 -139q-21 -37 -60.5 -58.5t-86.5 -21.5t-86 19t-85 64l65 75q56 -60 105 -60q72 0 72 121v462zM344 700l-90 88l-90 -88l-74 37l130 143h68l131 -143z" />
    <glyph glyph-name="jcircumflex" unicode="&#x135;" horiz-adv-x="223" 
d="M-10 -232v93q32 -9 46 -9q30 0 30 53v538h100v-538q0 -70 -30.5 -108.5t-85.5 -38.5q-26 0 -60 10zM193 500l-90 88l-89 -88l-75 37l130 143h68l131 -143z" />
    <glyph glyph-name="Kcommaaccent" unicode="&#x136;" horiz-adv-x="584" 
d="M582 667l-259 -281l259 -386h-122l-207 310l-76 -83v-227h-104v667h104v-300l276 300h129zM305 -236l-74 23l54 182l96 -28z" />
    <glyph glyph-name="kcommaaccent" unicode="&#x137;" 
d="M465 443l-187 -184l203 -259h-123l-148 192l-54 -52v-140h-100v667h100v-401l178 177h131zM235 -236l-74 23l54 182l96 -28z" />
    <glyph glyph-name="kgreenlandic" unicode="&#x138;" 
d="M465 443l-187 -184l203 -259h-123l-148 192l-54 -52v-140h-100v443h100v-177l178 177h131z" />
    <glyph glyph-name="Lacute" unicode="&#x139;" horiz-adv-x="426" 
d="M73 667h104v-571h249v-96h-353v667zM180 895l95 -51l-144 -145l-66 38z" />
    <glyph glyph-name="lacute" unicode="&#x13a;" horiz-adv-x="214" 
d="M157 667v-667h-100v667h100zM164 907l95 -52l-144 -144l-66 37z" />
    <glyph glyph-name="Lcommaaccent" unicode="&#x13b;" horiz-adv-x="432" 
d="M73 667h104v-571h249v-96h-353v667zM255 -236l-73 23l54 182l95 -28z" />
    <glyph glyph-name="lcommaaccent" unicode="&#x13c;" horiz-adv-x="214" 
d="M157 667v-667h-100v667h100zM89 -236l-73 23l54 182l95 -28z" />
    <glyph glyph-name="Lcaron" unicode="&#x13d;" horiz-adv-x="432" 
d="M73 667h104v-571h249v-96h-353v667zM323 482l-73 23l54 182l95 -29z" />
    <glyph glyph-name="lcaron" unicode="&#x13e;" horiz-adv-x="332" 
d="M157 667v-667h-100v667h100zM268 489l-73 23l54 182l95 -28z" />
    <glyph glyph-name="Ldot" unicode="&#x13f;" horiz-adv-x="432" 
d="M73 667h104v-571h249v-96h-353v667zM331 396q27 0 45.5 -18.5t18.5 -44.5t-18.5 -44.5t-45.5 -18.5t-45.5 18.5t-18.5 45.5q0 25 19 43.5t45 18.5z" />
    <glyph glyph-name="ldot" unicode="&#x140;" horiz-adv-x="355" 
d="M157 667v-667h-100v667h100zM284 396q27 0 45.5 -18.5t18.5 -44.5t-18.5 -44.5t-46.5 -18.5q-26 0 -44.5 18.5t-18.5 45.5q0 25 19 43.5t45 18.5z" />
    <glyph glyph-name="Lslash" unicode="&#x141;" horiz-adv-x="444" 
d="M22 321l64 43v303h104v-241l110 73v-107l-110 -73v-223h249v-96h-353v256l-64 -43v108z" />
    <glyph glyph-name="lslash" unicode="&#x142;" horiz-adv-x="260" 
d="M180 0h-100v264l-62 -42v109l62 42v294h100v-227l62 41v-109l-62 -41v-331z" />
    <glyph glyph-name="Nacute" unicode="&#x143;" horiz-adv-x="708" 
d="M177 0h-104v667h92l366 -491v491h104v-667h-92l-366 491v-491zM415 895l95 -51l-144 -145l-66 38z" />
    <glyph glyph-name="nacute" unicode="&#x144;" horiz-adv-x="509" 
d="M56 0v443h100v-32q47 46 113 46q49 0 92 -23.5t65 -63.5q27 -45 27 -131v-239h-100v231q0 30 -3 50.5t-12 41.5t-29 31.5t-50 10.5q-28 0 -52 -12t-34 -32q-17 -29 -17 -99v-222h-100zM317 695l95 -51l-144 -145l-66 38z" />
    <glyph glyph-name="Ncommaaccent" unicode="&#x145;" horiz-adv-x="708" 
d="M177 0h-104v667h92l366 -491v491h104v-667h-92l-366 491v-491zM353 -236l-73 23l54 182l95 -28z" />
    <glyph glyph-name="ncommaaccent" unicode="&#x146;" horiz-adv-x="509" 
d="M56 0v443h100v-32q47 46 113 46q49 0 92 -23.5t65 -63.5q27 -45 27 -131v-239h-100v231q0 30 -3 50.5t-12 41.5t-29 31.5t-50 10.5q-28 0 -52 -12t-34 -32q-17 -29 -17 -99v-222h-100zM254 -236l-73 23l54 182l95 -28z" />
    <glyph glyph-name="Ncaron" unicode="&#x147;" horiz-adv-x="708" 
d="M177 0h-104v667h92l366 -491v491h104v-667h-92l-366 491v-491zM281 888l89 -88l90 88l75 -37l-130 -143h-69l-130 143z" />
    <glyph glyph-name="ncaron" unicode="&#x148;" horiz-adv-x="509" 
d="M56 0v443h100v-32q47 46 113 46q49 0 92 -23.5t65 -63.5q27 -45 27 -131v-239h-100v231q0 30 -3 50.5t-12 41.5t-29 31.5t-50 10.5q-28 0 -52 -12t-34 -32q-17 -29 -17 -99v-222h-100zM170 688l89 -88l90 88l75 -37l-131 -143h-68l-130 143z" />
    <glyph glyph-name="napostrophe" unicode="&#x149;" horiz-adv-x="599" 
d="M146 0v443h100v-32q47 46 112 46q50 0 93 -23.5t65 -63.5q27 -45 27 -131v-239h-100v231q0 30 -3 50.5t-12 41.5t-29 31.5t-50 10.5q-28 0 -52 -12t-34 -32q-17 -29 -17 -99v-222h-100zM-7 419l91 254l91 -33l-111 -250z" />
    <glyph glyph-name="Eng" unicode="&#x14a;" horiz-adv-x="708" 
d="M531 667h104v-670q0 -71 -30 -109.5t-86 -38.5q-24 0 -60 9v94q32 -9 46 -9q30 0 30 53v15l-358 480v-491h-104v667h92l366 -491v491z" />
    <glyph glyph-name="eng" unicode="&#x14b;" horiz-adv-x="509" 
d="M156 0h-100v443h100v-32q47 46 113 46q49 0 92 -23.5t65 -63.5q27 -45 27 -131v-251q0 -65 -31 -102t-85 -37q-24 0 -60 9v94q32 -9 47 -9q29 0 29 52v236q0 29 -3 49.5t-12 41.5t-28.5 32t-49.5 11q-29 0 -53 -12t-34 -32q-17 -29 -17 -99v-222z" />
    <glyph glyph-name="Omacron" unicode="&#x14c;" horiz-adv-x="762" 
d="M381 681q142 0 244 -102.5t102 -245.5q0 -142 -102 -244.5t-243 -102.5q-145 0 -246 102.5t-101 249.5q0 139 103 241t243 102zM381 583q-99 0 -170 -72.5t-71 -173.5q0 -106 70 -179.5t171 -73.5q99 0 170 73t71 176q0 104 -70.5 177t-170.5 73zM231 746v89h299v-89
h-299z" />
    <glyph glyph-name="omacron" unicode="&#x14d;" horiz-adv-x="522" 
d="M264 457q96 0 163 -68.5t67 -166.5q0 -100 -67.5 -168t-165.5 -68t-165.5 68t-67.5 168t68 167.5t168 67.5zM263 367q-60 0 -97 -40t-37 -104q0 -65 36.5 -106t95.5 -41q58 0 95 40.5t37 105.5q0 63 -36.5 104t-93.5 41zM112 546v89h299v-89h-299z" />
    <glyph glyph-name="Obreve" unicode="&#x14e;" horiz-adv-x="762" 
d="M381 681q142 0 244 -102.5t102 -245.5q0 -142 -102 -244.5t-243 -102.5q-145 0 -246 102.5t-101 249.5q0 139 103 241t243 102zM381 583q-99 0 -170 -72.5t-71 -173.5q0 -106 70 -179.5t171 -73.5q99 0 170 73t71 176q0 104 -70.5 177t-170.5 73zM236 859l86 7l1 -14
q3 -65 56 -65q22 0 36 13t18 27t7 38l86 -7q-6 -52 -18 -75q-40 -81 -129 -81q-46 0 -83 25.5t-53 68.5q-7 22 -7 63z" />
    <glyph glyph-name="obreve" unicode="&#x14f;" horiz-adv-x="522" 
d="M264 457q96 0 163 -68.5t67 -166.5q0 -100 -67.5 -168t-165.5 -68t-165.5 68t-67.5 168t68 167.5t168 67.5zM263 367q-60 0 -97 -40t-37 -104q0 -65 36.5 -106t95.5 -41q58 0 95 40.5t37 105.5q0 63 -36.5 104t-93.5 41zM116 659l86 7q1 -7 1 -14q3 -65 56 -65
q37 0 52 35q4 9 9 44l87 -7q-6 -50 -18 -76q-42 -81 -129 -81q-47 0 -84 25.5t-52 68.5q-7 18 -8 63z" />
    <glyph glyph-name="Ohungarumlaut" unicode="&#x150;" horiz-adv-x="762" 
d="M381 681q142 0 244 -102.5t102 -245.5q0 -142 -102 -244.5t-243 -102.5q-145 0 -246 102.5t-101 249.5q0 139 103 241t243 102zM381 583q-99 0 -170 -72.5t-71 -173.5q0 -106 70 -179.5t171 -73.5q99 0 170 73t71 176q0 104 -70.5 177t-170.5 73zM367 895l88 -49
l-146 -147l-57 38zM513 895l85 -51l-144 -145l-58 36z" />
    <glyph glyph-name="ohungarumlaut" unicode="&#x151;" horiz-adv-x="524" 
d="M265 457q95 0 162 -68.5t67 -166.5q0 -100 -67.5 -168t-165.5 -68q-99 0 -166 68.5t-67 169.5q0 99 68 166t169 67zM263 367q-60 0 -97 -40t-37 -104q0 -65 36.5 -106t95.5 -41q58 0 95 40.5t37 105.5q0 63 -36.5 104t-93.5 41zM258 695l87 -49l-146 -147l-56 38z
M403 695l86 -51l-144 -145l-59 36z" />
    <glyph glyph-name="OE" unicode="&#x152;" horiz-adv-x="1029" 
d="M621 580v87h363v-96h-259v-185h230v-96h-230v-194h268v-96h-372v87q-104 -101 -238 -101q-144 0 -246 102t-102 245t102.5 245.5t245.5 102.5q132 0 238 -101zM380 583q-98 0 -169 -72.5t-71 -173.5q0 -106 70 -180t171 -74q99 0 169.5 73.5t70.5 176.5q0 104 -70.5 177
t-170.5 73z" />
    <glyph glyph-name="oe" unicode="&#x153;" horiz-adv-x="860" 
d="M733 133l9 15l86 -36q-76 -126 -208 -126q-112 0 -177 87q-68 -87 -181 -87q-99 0 -166.5 68t-67.5 168t67.5 167.5t166.5 67.5q111 0 181 -87q70 86 171 86q95 0 156.5 -69t61.5 -176q0 -8 -1 -28h-335q11 -51 43.5 -79t81.5 -28q76 0 112 57zM264 367q-61 0 -98 -39.5
t-37 -104.5t36.5 -106t95.5 -41t96 40.5t37 105.5q0 63 -36.5 104t-93.5 41zM496 260h236q-26 108 -117 108q-45 0 -77 -28.5t-42 -79.5z" />
    <glyph glyph-name="Racute" unicode="&#x154;" horiz-adv-x="547" 
d="M369 285l160 -285h-117l-144 260q-34 -2 -47 -2h-44v-258h-104v667h148q100 0 154 -31q46 -26 72.5 -73.5t26.5 -102.5q0 -57 -28 -103.5t-77 -71.5zM177 572v-220h52q143 0 143 109q0 111 -143 111h-52zM305 895l95 -51l-144 -145l-66 38z" />
    <glyph glyph-name="racute" unicode="&#x155;" horiz-adv-x="302" 
d="M56 0v443h100v-36q27 23 46 30.5t49 7.5q3 0 37 -2v-89q-20 1 -35 1q-26 0 -45 -8.5t-29 -20.5t-15 -32.5t-6.5 -37.5t-1.5 -43v-213h-100zM196 695l96 -51l-145 -145l-66 38z" />
    <glyph glyph-name="Rcommaaccent" unicode="&#x156;" horiz-adv-x="547" 
d="M369 285l160 -285h-117l-144 260q-34 -2 -47 -2h-44v-258h-104v667h148q100 0 154 -31q46 -26 72.5 -73.5t26.5 -102.5q0 -57 -28 -103.5t-77 -71.5zM177 572v-220h52q143 0 143 109q0 111 -143 111h-52zM276 -236l-73 23l54 182l95 -28z" />
    <glyph glyph-name="rcommaaccent" unicode="&#x157;" horiz-adv-x="303" 
d="M56 0v443h100v-36q27 23 46 30.5t49 7.5q3 0 37 -2v-89q-20 1 -35 1q-26 0 -45 -8.5t-29 -20.5t-15 -32.5t-6.5 -37.5t-1.5 -43v-213h-100zM85 -236l-73 23l54 182l95 -28z" />
    <glyph glyph-name="Rcaron" unicode="&#x158;" horiz-adv-x="547" 
d="M369 285l160 -285h-117l-144 260q-34 -2 -47 -2h-44v-258h-104v667h148q100 0 154 -31q46 -26 72.5 -73.5t26.5 -102.5q0 -57 -28 -103.5t-77 -71.5zM177 572v-220h52q143 0 143 109q0 111 -143 111h-52zM169 888l90 -88l89 88l75 -37l-130 -143h-68l-131 143z" />
    <glyph glyph-name="rcaron" unicode="&#x159;" horiz-adv-x="300" 
d="M56 0v443h100v-36q27 23 46 30.5t49 7.5q3 0 37 -2v-89q-20 1 -35 1q-26 0 -45 -8.5t-29 -20.5t-15 -32.5t-6.5 -37.5t-1.5 -43v-213h-100zM83 688l89 -88l90 88l75 -37l-131 -143h-68l-130 143z" />
    <glyph glyph-name="Sacute" unicode="&#x15a;" horiz-adv-x="515" 
d="M463 559l-84 -53q-29 44 -53.5 61t-60.5 17q-43 0 -72 -26.5t-29 -66.5q0 -54 85 -86l63 -25q161 -61 161 -184q0 -88 -64 -149t-157 -61q-108 0 -170 78q-33 42 -49 114l101 27l4 -16q26 -106 115 -106q49 0 82 32.5t33 79.5q0 32 -23 54.5t-79 44.5l-61 23
q-144 56 -144 175q0 81 59 135t148 54q64 0 110 -29t85 -93zM319 895l95 -51l-144 -145l-66 38z" />
    <glyph glyph-name="sacute" unicode="&#x15b;" horiz-adv-x="380" 
d="M23 116l82 33q21 -41 39.5 -57t46.5 -16q27 0 44 15t17 40q0 17 -12.5 27.5t-51.5 25.5l-45 18q-97 36 -97 119q0 58 43.5 97t107.5 39q97 0 148 -97l-78 -39q-18 27 -33.5 37.5t-37.5 10.5q-25 0 -40 -12.5t-15 -32.5q0 -17 11.5 -26.5t51.5 -25.5l42 -16
q56 -22 81 -50.5t25 -70.5q0 -63 -46.5 -106t-115.5 -43q-119 0 -167 130zM241 695l95 -51l-144 -145l-66 38z" />
    <glyph glyph-name="Scircumflex" unicode="&#x15c;" horiz-adv-x="515" 
d="M463 559l-84 -53q-29 44 -53.5 61t-60.5 17q-43 0 -72 -26.5t-29 -66.5q0 -54 85 -86l63 -25q161 -61 161 -184q0 -88 -64 -149t-157 -61q-108 0 -170 78q-33 42 -49 114l101 27l4 -16q26 -106 115 -106q49 0 82 32.5t33 79.5q0 32 -23 54.5t-79 44.5l-61 23
q-144 56 -144 175q0 81 59 135t148 54q64 0 110 -29t85 -93zM344 700l-90 88l-89 -88l-75 37l130 143h68l131 -143z" />
    <glyph glyph-name="scircumflex" unicode="&#x15d;" horiz-adv-x="386" 
d="M23 116l82 33q21 -41 39.5 -57t46.5 -16q27 0 44 15t17 40q0 17 -12.5 27.5t-51.5 25.5l-45 18q-97 36 -97 119q0 58 43.5 97t107.5 39q97 0 148 -97l-78 -39q-18 27 -33.5 37.5t-37.5 10.5q-25 0 -40 -12.5t-15 -32.5q0 -17 11.5 -26.5t51.5 -25.5l42 -16
q56 -22 81 -50.5t25 -70.5q0 -63 -46.5 -106t-115.5 -43q-119 0 -167 130zM280 500l-90 88l-90 -88l-74 37l130 143h68l130 -143z" />
    <glyph glyph-name="Scedilla" unicode="&#x15e;" horiz-adv-x="515" 
d="M463 559l-84 -53q-29 44 -53.5 61t-60.5 17q-43 0 -72 -26.5t-29 -66.5q0 -54 85 -86l63 -25q161 -61 161 -184q0 -88 -64 -149t-157 -61q-108 0 -170 78q-33 42 -49 114l101 27l4 -16q26 -106 115 -106q49 0 82 32.5t33 79.5q0 32 -23 54.5t-79 44.5l-61 23
q-144 56 -144 175q0 81 59 135t148 54q64 0 110 -29t85 -93zM161 -184l97 154l92 -40l-118 -150z" />
    <glyph glyph-name="scedilla" unicode="&#x15f;" horiz-adv-x="380" 
d="M23 116l82 33q21 -41 39.5 -57t46.5 -16q27 0 44 15t17 40q0 17 -12.5 27.5t-51.5 25.5l-45 18q-97 36 -97 119q0 58 43.5 97t107.5 39q97 0 148 -97l-78 -39q-18 27 -33.5 37.5t-37.5 10.5q-25 0 -40 -12.5t-15 -32.5q0 -17 11.5 -26.5t51.5 -25.5l42 -16
q56 -22 81 -50.5t25 -70.5q0 -63 -46.5 -106t-115.5 -43q-119 0 -167 130zM88 -184l98 154l91 -40l-118 -150z" />
    <glyph glyph-name="Scaron" unicode="&#x160;" horiz-adv-x="515" 
d="M463 559l-84 -53q-29 44 -53.5 61t-60.5 17q-43 0 -72 -26.5t-29 -66.5q0 -54 85 -86l63 -25q161 -61 161 -184q0 -88 -64 -149t-157 -61q-108 0 -170 78q-33 42 -49 114l101 27l4 -16q26 -106 115 -106q49 0 82 32.5t33 79.5q0 32 -23 54.5t-79 44.5l-61 23
q-144 56 -144 175q0 81 59 135t148 54q64 0 110 -29t85 -93zM165 888l89 -88l90 88l75 -37l-131 -143h-68l-130 143z" />
    <glyph glyph-name="scaron" unicode="&#x161;" horiz-adv-x="386" 
d="M23 116l82 33q21 -41 39.5 -57t46.5 -16q27 0 44 15t17 40q0 17 -12.5 27.5t-51.5 25.5l-45 18q-97 36 -97 119q0 58 43.5 97t107.5 39q97 0 148 -97l-78 -39q-18 27 -33.5 37.5t-37.5 10.5q-25 0 -40 -12.5t-15 -32.5q0 -17 11.5 -26.5t51.5 -25.5l42 -16
q56 -22 81 -50.5t25 -70.5q0 -63 -46.5 -106t-115.5 -43q-119 0 -167 130zM100 688l90 -88l90 88l74 -37l-130 -143h-68l-130 143z" />
    <glyph glyph-name="Tcommaaccent" unicode="&#x162;" horiz-adv-x="436" 
d="M436 667v-96h-166v-571h-104v571h-166v96h436zM202 -236l-73 23l54 182l95 -28z" />
    <glyph glyph-name="tcommaaccent" unicode="&#x163;" horiz-adv-x="260" 
d="M163 443h69v-90h-69v-213q0 -54 29 -54q14 0 47 9v-93q-36 -10 -60 -10q-56 0 -86 38.5t-30 109.5v213h-48v90h48v98l100 40v-138zM126 -236l-73 23l54 182l95 -28z" />
    <glyph glyph-name="Tcaron" unicode="&#x164;" horiz-adv-x="436" 
d="M436 667v-96h-166v-571h-104v571h-166v96h436zM128 888l90 -88l90 88l74 -37l-130 -143h-68l-130 143z" />
    <glyph glyph-name="tcaron" unicode="&#x165;" horiz-adv-x="337" 
d="M163 443h69v-90h-69v-213q0 -54 29 -54q14 0 47 9v-93q-36 -10 -60 -10q-56 0 -86 38.5t-30 109.5v213h-48v90h48v98l100 40v-138zM273 489l-73 23l54 182l95 -28z" />
    <glyph glyph-name="Tbar" unicode="&#x166;" horiz-adv-x="436" 
d="M372 443v-92h-102v-351h-104v351h-102v92h102v128h-166v96h436v-96h-166v-128h102z" />
    <glyph glyph-name="tbar" unicode="&#x167;" horiz-adv-x="260" 
d="M239 95v-93q-36 -10 -60 -10q-56 0 -86 38.5t-30 108.5v90h-48v89h48v36h-48v89h48v98l100 40v-138h69v-89h-69v-36h69v-89h-69v-90q0 -53 29 -53q14 0 47 9z" />
    <glyph glyph-name="Utilde" unicode="&#x168;" horiz-adv-x="638" 
d="M73 237v430h104v-411q0 -79 17 -109q17 -28 51.5 -45.5t72.5 -17.5q39 0 73.5 17.5t51.5 45.5q17 30 17 109v411h104v-430q0 -83 -29 -134q-32 -53 -90.5 -85t-125.5 -32q-68 0 -126.5 32t-90.5 85q-29 51 -29 134zM386 857l83 -20q-9 -108 -92 -108q-38 0 -74 21
q-23 13 -36 13q-7 0 -10 -7t-7 -31l-81 19q11 108 93 108q32 0 75 -23q20 -11 35 -11q7 0 9.5 7.5t4.5 31.5z" />
    <glyph glyph-name="utilde" unicode="&#x169;" horiz-adv-x="509" 
d="M453 443v-443h-100v32q-47 -46 -112 -46q-50 0 -93 23.5t-65 63.5q-27 45 -27 131v239h100v-231q0 -30 3 -50.5t12 -41.5t29 -31.5t50 -10.5q28 0 52 12t34 31q17 29 17 101v221h100zM322 657l82 -19q-8 -108 -91 -108q-39 0 -74 20q-24 13 -37 13q-10 0 -17 -38l-81 19
q11 108 94 108q34 0 75 -22q20 -11 35 -11q10 0 14 38z" />
    <glyph glyph-name="Umacron" unicode="&#x16a;" horiz-adv-x="638" 
d="M73 237v430h104v-411q0 -79 17 -109q17 -28 51.5 -45.5t72.5 -17.5q39 0 73.5 17.5t51.5 45.5q17 30 17 109v411h104v-430q0 -83 -29 -134q-32 -53 -90.5 -85t-125.5 -32q-68 0 -126.5 32t-90.5 85q-29 51 -29 134zM169 746v89h299v-89h-299z" />
    <glyph glyph-name="umacron" unicode="&#x16b;" horiz-adv-x="509" 
d="M453 443v-443h-100v32q-47 -46 -112 -46q-50 0 -93 23.5t-65 63.5q-27 45 -27 131v239h100v-231q0 -30 3 -50.5t12 -41.5t29 -31.5t50 -10.5q28 0 52 12t34 31q17 29 17 101v221h100zM105 546v89h299v-89h-299z" />
    <glyph glyph-name="Ubreve" unicode="&#x16c;" horiz-adv-x="638" 
d="M73 237v430h104v-411q0 -79 17 -109q17 -28 51.5 -45.5t72.5 -17.5q39 0 73.5 17.5t51.5 45.5q17 30 17 109v411h104v-430q0 -83 -29 -134q-32 -53 -90.5 -85t-125.5 -32q-68 0 -126.5 32t-90.5 85q-29 51 -29 134zM173 859l87 7q1 -37 12 -58t45 -21q22 0 36 13t18 27
t7 38l86 -7q-6 -52 -18 -75q-42 -81 -129 -81q-46 0 -83 25.5t-53 68.5q-7 18 -8 63z" />
    <glyph glyph-name="ubreve" unicode="&#x16d;" horiz-adv-x="509" 
d="M453 443v-443h-100v32q-47 -46 -112 -46q-50 0 -93 23.5t-65 63.5q-27 45 -27 131v239h100v-231q0 -30 3 -50.5t12 -41.5t29 -31.5t50 -10.5q28 0 52 12t34 31q17 29 17 101v221h100zM109 659l86 7q2 -37 7 -46q15 -33 50 -33q37 0 52 35q4 9 9 44l87 -7q-6 -50 -18 -76
q-42 -81 -129 -81q-47 0 -84 25.5t-52 68.5q-7 18 -8 63z" />
    <glyph glyph-name="Uring" unicode="&#x16e;" horiz-adv-x="638" 
d="M73 237v430h104v-411q0 -79 17 -109q17 -28 51.5 -45.5t72.5 -17.5q39 0 73.5 17.5t51.5 45.5q17 30 17 109v411h104v-430q0 -83 -29 -134q-32 -53 -90.5 -85t-125.5 -32q-68 0 -126.5 32t-90.5 85q-29 51 -29 134zM318 891q43 0 73 -29.5t30 -70.5q0 -42 -30 -71.5
t-72 -29.5q-43 0 -73 29.5t-30 72.5q0 40 30.5 69.5t71.5 29.5zM319 842q-21 0 -36.5 -15t-15.5 -36t15 -36.5t36 -15.5q22 0 37 15t15 37q0 21 -15 36t-36 15z" />
    <glyph glyph-name="uring" unicode="&#x16f;" horiz-adv-x="509" 
d="M453 443v-443h-100v32q-47 -46 -112 -46q-50 0 -93 23.5t-65 63.5q-27 45 -27 131v239h100v-231q0 -30 3 -50.5t12 -41.5t29 -31.5t50 -10.5q28 0 52 12t34 31q17 29 17 101v221h100zM254 691q43 0 73 -29.5t30 -70.5q0 -42 -30 -71.5t-72 -29.5q-43 0 -73 29.5t-30 72.5
q0 40 30.5 69.5t71.5 29.5zM255 642q-21 0 -36.5 -15t-15.5 -36t15 -36.5t36 -15.5q22 0 37 15t15 37q0 21 -15 36t-36 15z" />
    <glyph glyph-name="Uhungarumlaut" unicode="&#x170;" horiz-adv-x="638" 
d="M73 237v430h104v-411q0 -79 17 -109q17 -28 51.5 -45.5t72.5 -17.5q39 0 73.5 17.5t51.5 45.5q17 30 17 109v411h104v-430q0 -83 -29 -134q-32 -53 -90.5 -85t-125.5 -32q-68 0 -126.5 32t-90.5 85q-29 51 -29 134zM295 895l88 -49l-146 -147l-57 38zM441 895l85 -51
l-144 -145l-58 36z" />
    <glyph glyph-name="uhungarumlaut" unicode="&#x171;" horiz-adv-x="509" 
d="M453 443v-443h-100v32q-47 -46 -112 -46q-50 0 -93 23.5t-65 63.5q-27 45 -27 131v239h100v-231q0 -30 3 -50.5t12 -41.5t29 -31.5t50 -10.5q28 0 52 12t34 31q17 29 17 101v221h100zM236 695l88 -49l-147 -147l-56 38zM381 695l86 -51l-144 -145l-58 36z" />
    <glyph glyph-name="Uogonek" unicode="&#x172;" horiz-adv-x="638" 
d="M465 667h104v-430q3 -96 -46 -158.5t-144 -85.5q-29 -40 -29 -59q0 -14 18 -14q17 0 46 11l29 -74q-50 -19 -84 -19q-43 0 -71.5 26.5t-28.5 64.5q0 30 20 61q-99 20 -152 84.5t-49 162.5v430h104v-411q0 -79 17 -109q17 -28 51.5 -45.5t72.5 -17.5t73.5 17.5t51.5 45.5
q17 30 17 109v411z" />
    <glyph glyph-name="uogonek" unicode="&#x173;" horiz-adv-x="509" 
d="M353 443h100v-443q-2 -3 -6 -8q-30 -36 -30 -58q0 -14 18 -14q16 0 46 11l30 -74q-50 -19 -85 -19q-42 0 -71 26.5t-29 64.5q0 33 27 71v32q-47 -46 -112 -46q-50 0 -93 23.5t-65 63.5q-27 45 -27 131v239h100v-231q0 -30 3 -50.5t12 -41.5t29 -31.5t50 -10.5q28 0 52 12
t34 31q17 29 17 101v221z" />
    <glyph glyph-name="Wcircumflex" unicode="&#x174;" horiz-adv-x="878" 
d="M0 667h108l141 -493l146 493h88l146 -493l141 493h108l-200 -667h-98l-141 474l-141 -474h-98zM528 700l-89 88l-90 -88l-75 37l131 143h68l130 -143z" />
    <glyph glyph-name="wcircumflex" unicode="&#x175;" horiz-adv-x="664" 
d="M-6 443h107l96 -282l95 282h80l96 -282l96 282h106l-163 -443h-80l-95 279l-95 -279h-80zM422 500l-90 88l-90 -88l-74 37l130 143h68l130 -143z" />
    <glyph glyph-name="Ycircumflex" unicode="&#x176;" horiz-adv-x="529" 
d="M421 667h114l-219 -390v-277h-104v277l-219 390h115l156 -286zM354 700l-90 88l-89 -88l-75 37l130 143h68l131 -143z" />
    <glyph glyph-name="ycircumflex" unicode="&#x177;" horiz-adv-x="463" 
d="M169 -233h-105l112 254l-182 422h108l127 -301l132 301h108zM322 500l-90 88l-89 -88l-75 37l130 143h68l131 -143z" />
    <glyph glyph-name="Ydieresis" unicode="&#x178;" horiz-adv-x="529" 
d="M421 667h114l-219 -390v-277h-104v277l-219 390h115l156 -286zM172 854q26 0 45 -18.5t19 -44.5q0 -27 -19 -45.5t-45 -18.5q-27 0 -45.5 18.5t-18.5 45.5q0 26 19 44.5t45 18.5zM356 854q26 0 45 -18.5t19 -44.5t-19 -45t-45 -19q-27 0 -45.5 18.5t-18.5 45.5
q0 26 19 44.5t45 18.5z" />
    <glyph glyph-name="Zacute" unicode="&#x179;" horiz-adv-x="511" 
d="M485 667v-83l-337 -488h345v-96h-476v83l343 489h-314v95h439zM299 895l95 -51l-144 -145l-66 38z" />
    <glyph glyph-name="zacute" unicode="&#x17a;" horiz-adv-x="414" 
d="M395 443v-76l-242 -277h251v-90h-382v76l243 278h-229v89h359zM258 695l95 -51l-145 -145l-65 38z" />
    <glyph glyph-name="Zdotaccent" unicode="&#x17b;" horiz-adv-x="511" 
d="M485 667v-83l-337 -488h345v-96h-476v83l343 489h-314v95h439zM271 854q26 0 45 -18.5t19 -44.5q0 -27 -19 -45.5t-45 -18.5q-27 0 -45.5 18.5t-18.5 45.5q0 26 19 44.5t45 18.5z" />
    <glyph glyph-name="zdotaccent" unicode="&#x17c;" horiz-adv-x="414" 
d="M395 443v-76l-242 -277h251v-90h-382v76l243 278h-229v89h359zM213 657q26 0 45 -18.5t19 -44.5q0 -27 -19 -45.5t-45 -18.5q-27 0 -45.5 18.5t-18.5 45.5q0 26 19 44.5t45 18.5z" />
    <glyph glyph-name="Zcaron" unicode="&#x17d;" horiz-adv-x="511" 
d="M485 667v-83l-337 -488h345v-96h-476v83l343 489h-314v95h439zM182 888l89 -88l90 88l75 -37l-131 -143h-68l-130 143z" />
    <glyph glyph-name="zcaron" unicode="&#x17e;" horiz-adv-x="414" 
d="M395 443v-76l-242 -277h251v-90h-382v76l243 278h-229v89h359zM123 688l90 -88l90 88l74 -37l-130 -143h-68l-130 143z" />
    <glyph glyph-name="longs" unicode="&#x17f;" horiz-adv-x="235" 
d="M242 667v-90q-24 7 -39 7q-37 0 -37 -57v-527h-100v353h-43v90h43v84q0 71 30.5 109.5t87.5 38.5q27 0 58 -8z" />
    <glyph glyph-name="uni018F" unicode="&#x18f;" horiz-adv-x="758" 
d="M36 376h576q-18 95 -82.5 151.5t-155.5 56.5q-68 0 -124.5 -36.5t-88.5 -101.5l-91 48q45 90 124 138.5t180 48.5q147 0 247.5 -100.5t100.5 -247.5q0 -144 -100 -245.5t-242 -101.5q-92 0 -173 45.5t-124 121.5t-47 223zM613 295h-465q12 -97 75 -154.5t156 -57.5
q61 0 114 29t86 81q19 31 34 102z" />
    <glyph glyph-name="florin" unicode="&#x192;" horiz-adv-x="480" 
d="M2 -188l19 94q35 -9 44 -9q33 0 45 59l82 397h-44l18 90h44l17 84q15 72 52.5 110.5t93.5 38.5q23 0 64 -11l-20 -95q-31 10 -43 10q-34 0 -45 -60l-16 -77h80l-19 -90h-79l-83 -404q-15 -71 -53 -109.5t-93 -38.5q-23 0 -64 11z" />
    <glyph glyph-name="Ohorn" unicode="&#x1a0;" horiz-adv-x="769" 
d="M612 721l74 38q68 -48 68 -118q0 -75 -78 -128q51 -88 51 -180q0 -142 -102 -244.5t-244 -102.5t-244 102.5t-102 244.5q0 143 102 245.5t244 102.5q67 0 130 -26t109 -73q45 22 45 59q0 22 -11 38.5t-42 41.5zM381 583q-99 0 -170 -72.5t-71 -173.5q0 -106 70 -179.5
t171 -73.5q99 0 170 73t71 176q0 104 -70.5 177t-170.5 73z" />
    <glyph glyph-name="ohorn" unicode="&#x1a1;" horiz-adv-x="564" 
d="M412 497l75 38q67 -48 67 -118q0 -73 -70 -123q10 -39 10 -73q0 -99 -67.5 -167t-165.5 -68t-165.5 68t-67.5 168q0 99 67.5 167t166.5 68q113 0 180 -86q23 17 23 46q0 22 -11 38.5t-42 41.5zM263 367q-60 0 -97 -40t-37 -104q0 -65 36.5 -106t95.5 -41q58 0 95 40.5
t37 105.5q0 63 -36.5 104t-93.5 41z" />
    <glyph glyph-name="Uhorn" unicode="&#x1af;" horiz-adv-x="683" 
d="M460 667h104v-79q33 21 33 53q0 22 -11 38.5t-42 41.5l75 38q67 -48 67 -119q0 -99 -122 -149v-254q0 -83 -29 -134q-32 -53 -90.5 -85t-125.5 -32q-68 0 -126.5 32t-90.5 85q-29 51 -29 134v430h104v-411q0 -79 17 -109q17 -28 51.5 -45.5t72.5 -17.5t73.5 17.5
t51.5 45.5q17 30 17 109v411z" />
    <glyph glyph-name="uhorn" unicode="&#x1b0;" horiz-adv-x="586" 
d="M353 443h100v-80q34 21 34 54q0 22 -11 38.5t-42 41.5l75 38q67 -48 67 -119q0 -50 -30 -86t-93 -63v-267h-100v32q-47 -46 -112 -46q-50 0 -93 23.5t-65 63.5q-27 45 -27 131v239h100v-231q0 -30 3 -50.5t12 -41.5t29 -31.5t50 -10.5q28 0 52 12t34 31q17 29 17 101v221
z" />
    <glyph glyph-name="uni01C4" unicode="&#x1c4;" horiz-adv-x="1129" 
d="M73 0v667h148q167 0 264.5 -89.5t97.5 -243.5t-97.5 -244t-264.5 -90h-148zM224 571h-47v-475h47q118 0 186.5 64t68.5 174q0 109 -68.5 173t-186.5 64zM1104 667v-83l-338 -488h345v-96h-476v83l344 489h-315v95h440zM800 888l89 -88l90 88l75 -37l-131 -143h-68
l-130 143z" />
    <glyph glyph-name="uni01C5" unicode="&#x1c5;" horiz-adv-x="1033" 
d="M73 0v667h148q167 0 264.5 -89.5t97.5 -243.5t-97.5 -244t-264.5 -90h-148zM224 571h-47v-475h47q118 0 186.5 64t68.5 174q0 109 -68.5 173t-186.5 64zM1014 443v-76l-242 -277h251v-90h-382v76l243 278h-229v89h359zM742 688l90 -88l89 88l75 -37l-130 -143h-68
l-131 143z" />
    <glyph glyph-name="uni01C6" unicode="&#x1c6;" horiz-adv-x="960" 
d="M489 667v-667h-100v38q-68 -52 -136 -52q-92 0 -158.5 69.5t-66.5 166.5q0 96 66 165.5t158 69.5q68 0 137 -52v262h100zM262 366q-59 0 -96 -40t-37 -104t36.5 -105t94.5 -41q57 0 93 40.5t36 103.5q0 65 -35.5 105.5t-91.5 40.5zM940 443v-76l-242 -277h252v-90h-383
v76l243 278h-229v89h359zM669 688l89 -88l90 88l75 -37l-130 -143h-69l-130 143z" />
    <glyph glyph-name="uni01C7" unicode="&#x1c7;" horiz-adv-x="848" 
d="M73 667h104v-571h249v-96h-353v667zM670 667h104v-462q0 -87 -28 -139q-21 -37 -60.5 -58.5t-86.5 -21.5t-86 19t-85 64l65 75q56 -60 105 -60q72 0 72 121v462z" />
    <glyph glyph-name="uni01C8" unicode="&#x1c8;" horiz-adv-x="655" 
d="M422 -232v93q32 -9 47 -9q29 0 29 53v538h100v-538q0 -70 -30 -108.5t-86 -38.5q-26 0 -60 10zM73 667h104v-571h249v-96h-353v667zM547 657q27 0 46 -18.5t19 -45.5t-19 -45.5t-46 -18.5t-45.5 19t-18.5 46q0 26 19 44.5t45 18.5z" />
    <glyph glyph-name="uni01C9" unicode="&#x1c9;" horiz-adv-x="437" 
d="M204 -232v93q32 -9 47 -9q29 0 29 53v538h100v-538q0 -70 -30 -108.5t-86 -38.5q-26 0 -60 10zM157 667v-667h-100v667h100zM330 657q27 0 46 -18.5t19 -45.5t-19 -45.5t-46 -18.5t-45.5 19t-18.5 46q0 26 19 44.5t45 18.5z" />
    <glyph glyph-name="uni01CA" unicode="&#x1ca;" horiz-adv-x="1124" 
d="M177 0h-104v667h92l366 -491v491h104v-667h-92l-366 491v-491zM946 667h104v-462q0 -87 -28 -139q-21 -37 -60.5 -58.5t-86.5 -21.5t-86 19t-85 64l65 75q56 -60 105 -60q72 0 72 121v462z" />
    <glyph glyph-name="uni01CB" unicode="&#x1cb;" horiz-adv-x="931" 
d="M698 -232v93q32 -9 47 -9q29 0 29 53v538h100v-538q0 -70 -30 -108.5t-86 -38.5q-26 0 -60 10zM177 0h-104v667h92l366 -491v491h104v-667h-92l-366 491v-491zM824 657q27 0 46 -18.5t19 -45.5t-19 -45.5t-46 -18.5t-45.5 19t-18.5 46q0 26 19 44.5t45 18.5z" />
    <glyph glyph-name="uni01CC" unicode="&#x1cc;" horiz-adv-x="732" 
d="M56 0v443h100v-32q47 46 113 46q49 0 92 -23.5t65 -63.5q27 -45 27 -131v-239h-100v231q0 30 -3 50.5t-12 41.5t-29 31.5t-50 10.5q-28 0 -52 -12t-34 -32q-17 -29 -17 -99v-222h-100zM499 -232v93q32 -9 47 -9q29 0 29 53v538h100v-538q0 -70 -30 -108.5t-86 -38.5
q-26 0 -60 10zM625 657q27 0 46 -18.5t19 -45.5t-19 -45.5t-46 -18.5t-45.5 19t-18.5 46q0 26 19 44.5t45 18.5z" />
    <glyph glyph-name="uni01CD" unicode="&#x1cd;" horiz-adv-x="631" 
d="M458 172h-286l-63 -172h-109l251 667h128l252 -667h-110zM315 559l-108 -291h215zM226 888l89 -88l90 88l75 -37l-131 -143h-68l-130 143z" />
    <glyph glyph-name="uni01CE" unicode="&#x1ce;" horiz-adv-x="545" 
d="M489 443v-443h-100v38q-68 -52 -136 -52q-92 0 -158.5 69.5t-66.5 166.5q0 96 66 165.5t158 69.5q68 0 137 -52v38h100zM263 367q-60 0 -97 -40t-37 -104q0 -65 36.5 -106t95.5 -41q57 0 93.5 41t36.5 105q0 63 -36 104t-92 41zM169 688l90 -88l89 88l75 -37l-130 -143
h-68l-131 143z" />
    <glyph glyph-name="uni01CF" unicode="&#x1cf;" horiz-adv-x="250" 
d="M73 667h104v-667h-104v667zM36 888l89 -88l90 88l75 -37l-131 -143h-68l-130 143z" />
    <glyph glyph-name="uni01D0" unicode="&#x1d0;" horiz-adv-x="213" 
d="M56 443h100v-443h-100v443zM17 688l89 -88l90 88l75 -37l-131 -143h-68l-130 143z" />
    <glyph glyph-name="uni01D1" unicode="&#x1d1;" horiz-adv-x="762" 
d="M381 681q142 0 244 -102.5t102 -245.5q0 -142 -102 -244.5t-243 -102.5q-145 0 -246 102.5t-101 249.5q0 139 103 241t243 102zM381 583q-99 0 -170 -72.5t-71 -173.5q0 -106 70 -179.5t171 -73.5q99 0 170 73t71 176q0 104 -70.5 177t-170.5 73zM291 888l90 -88l90 88
l74 -37l-130 -143h-68l-130 143z" />
    <glyph glyph-name="uni01D2" unicode="&#x1d2;" horiz-adv-x="522" 
d="M264 457q96 0 163 -68.5t67 -166.5q0 -100 -67.5 -168t-165.5 -68t-165.5 68t-67.5 168t68 167.5t168 67.5zM263 367q-60 0 -97 -40t-37 -104q0 -65 36.5 -106t95.5 -41q58 0 95 40.5t37 105.5q0 63 -36.5 104t-93.5 41zM172 688l89 -88l90 88l75 -37l-131 -143h-68
l-130 143z" />
    <glyph glyph-name="uni01D3" unicode="&#x1d3;" horiz-adv-x="638" 
d="M73 237v430h104v-411q0 -79 17 -109q17 -28 51.5 -45.5t72.5 -17.5q39 0 73.5 17.5t51.5 45.5q17 30 17 109v411h104v-430q0 -83 -29 -134q-32 -53 -90.5 -85t-125.5 -32q-68 0 -126.5 32t-90.5 85q-29 51 -29 134zM229 888l90 -88l89 88l75 -37l-130 -143h-68l-131 143z
" />
    <glyph glyph-name="uni01D4" unicode="&#x1d4;" horiz-adv-x="509" 
d="M453 443v-443h-100v32q-47 -46 -112 -46q-50 0 -93 23.5t-65 63.5q-27 45 -27 131v239h100v-231q0 -30 3 -50.5t12 -41.5t29 -31.5t50 -10.5q28 0 52 12t34 31q17 29 17 101v221h100zM165 688l89 -88l90 88l75 -37l-131 -143h-68l-130 143z" />
    <glyph glyph-name="uni01DD" unicode="&#x1dd;" horiz-adv-x="496" 
d="M29 264h334q-9 52 -39.5 79t-79.5 27q-68 0 -108 -54l-92 35q76 106 199 106q99 0 161.5 -65t62.5 -168q0 -102 -63.5 -170t-158.5 -68q-93 0 -155 66.5t-62 166.5v20q1 5 1 25zM365 190h-237q2 -55 32.5 -86t83.5 -31q108 0 121 117z" />
    <glyph glyph-name="Gcaron" unicode="&#x1e6;" horiz-adv-x="727" 
d="M392 263v96h297v-50q0 -146 -83.5 -234.5t-219.5 -88.5q-146 0 -248.5 101t-102.5 246t101.5 246.5t246.5 101.5q79 0 137.5 -29t118.5 -89l-72 -70q-48 50 -89 70t-95 20q-103 0 -173 -72t-70 -178q0 -105 70.5 -177t173.5 -72q102 0 158 72q30 39 40 107h-190zM296 888
l89 -88l90 88l75 -37l-131 -143h-68l-130 143z" />
    <glyph glyph-name="gcaron" unicode="&#x1e7;" horiz-adv-x="545" 
d="M389 443h100v-452q0 -106 -65.5 -172t-171.5 -66q-102 0 -172 64q-11 10 -41 45l65 65q8 -10 12 -14q35 -41 63 -55.5t71 -14.5q66 0 102.5 39t36.5 109v47q-56 -52 -132 -52q-95 0 -162 69t-67 167t67 166.5t162 68.5q73 0 132 -52v38zM263 367q-60 0 -97 -40t-37 -104
q0 -65 36.5 -106t95.5 -41q56 0 92.5 40.5t36.5 103.5q0 65 -35.5 106t-91.5 41zM169 688l90 -88l89 88l75 -37l-130 -143h-68l-131 143z" />
    <glyph glyph-name="uni01F4" unicode="&#x1f4;" horiz-adv-x="727" 
d="M392 263v96h297v-50q0 -146 -83.5 -234.5t-219.5 -88.5q-146 0 -248.5 101t-102.5 246t101.5 246.5t246.5 101.5q79 0 137.5 -29t118.5 -89l-72 -70q-48 50 -89 70t-95 20q-103 0 -173 -72t-70 -178q0 -105 70.5 -177t173.5 -72q102 0 158 72q30 39 40 107h-190zM437 895
l95 -51l-145 -145l-66 38z" />
    <glyph glyph-name="uni01F5" unicode="&#x1f5;" horiz-adv-x="545" 
d="M389 443h100v-452q0 -106 -65.5 -172t-171.5 -66q-102 0 -172 64q-11 10 -41 45l65 65q8 -10 12 -14q35 -41 63 -55.5t71 -14.5q66 0 102.5 39t36.5 109v47q-56 -52 -132 -52q-95 0 -162 69t-67 167t67 166.5t162 68.5q73 0 132 -52v38zM263 367q-60 0 -97 -40t-37 -104
q0 -65 36.5 -106t95.5 -41q56 0 92.5 40.5t36.5 103.5q0 65 -35.5 106t-91.5 41zM308 695l96 -51l-145 -145l-66 38z" />
    <glyph glyph-name="Aringacute" unicode="&#x1fa;" horiz-adv-x="631" 
d="M458 172h-286l-63 -172h-109l251 667h128l252 -667h-110zM315 559l-108 -291h215zM274 883l-62 35l115 159l95 -52l-138 -139q14 5 30 5q44 0 74 -29t30 -71t-30 -71.5t-73 -29.5q-42 0 -72 29.5t-30 71.5q0 29 17 54.5t44 37.5zM316 842q-21 0 -36.5 -15t-15.5 -36
t15 -36.5t36 -15.5q22 0 37 15t15 37q0 21 -15 36t-36 15z" />
    <glyph glyph-name="aringacute" unicode="&#x1fb;" horiz-adv-x="545" 
d="M489 443v-443h-100v38q-68 -52 -136 -52q-92 0 -158.5 69.5t-66.5 166.5q0 96 66 165.5t158 69.5q68 0 137 -52v38h100zM263 367q-60 0 -97 -40t-37 -104q0 -65 36.5 -106t95.5 -41q57 0 93.5 41t36.5 105q0 63 -36 104t-92 41zM271 689q43 0 73 -29.5t30 -70.5
q0 -42 -30 -71.5t-72 -29.5q-43 0 -73 29.5t-30 72.5q0 40 30.5 69.5t71.5 29.5zM272 640q-21 0 -36.5 -15t-15.5 -36q0 -22 15 -37t37 -15q21 0 36 15t15 37q0 21 -15 36t-36 15zM283 895l95 -51l-144 -145l-66 38z" />
    <glyph glyph-name="AEacute" unicode="&#x1fc;" horiz-adv-x="839" 
d="M432 0v172h-228l-88 -172h-116l347 667h447v-96h-258v-185h230v-96h-230v-194h268v-96h-372zM253 268h179v303h-24zM570 895l95 -51l-144 -145l-66 38z" />
    <glyph glyph-name="aeacute" unicode="&#x1fd;" horiz-adv-x="817" 
d="M699 148l86 -36q-74 -126 -208 -126q-97 0 -163 70q-50 -70 -176 -70q-96 0 -153 42t-57 112t52 110t143 40h122q-18 79 -113 79q-73 0 -138 -51l-51 65q49 40 95 57t104 17q59 0 103.5 -19.5t65.5 -53.5q67 73 160 73q97 0 157.5 -69t60.5 -179q0 -6 -1 -26h-335
q10 -51 43 -79t82 -28q34 0 64.5 15.5t47.5 41.5q0 1 5 8q2 4 4 7zM348 148v65h-111q-109 0 -109 -71q0 -68 111 -68q109 0 109 74zM453 260h236q-12 52 -42.5 80.5t-74.5 28.5q-46 0 -77 -29t-42 -80zM454 695l96 -51l-145 -145l-66 38z" />
    <glyph glyph-name="Oslashacute" unicode="&#x1fe;" horiz-adv-x="770" 
d="M104 -2l-57 55l67 66q-75 94 -75 214q0 143 102 245.5t244 102.5q120 0 215 -77l66 65l56 -55l-66 -66q75 -95 75 -215q0 -142 -102 -244.5t-244 -102.5q-120 0 -215 77zM187 192l342 341q-66 50 -142 50q-103 0 -173 -73t-70 -180q0 -73 43 -138zM583 475l-342 -341
q68 -50 143 -50q101 0 171.5 73.5t70.5 177.5q0 74 -43 140zM436 895l95 -51l-144 -145l-66 38z" />
    <glyph glyph-name="oslashacute" unicode="&#x1ff;" horiz-adv-x="536" 
d="M85 -2l-50 48l41 40q-41 61 -41 135q0 100 67.5 168t166.5 68q83 0 143 -49l39 37l50 -48l-41 -40q41 -59 41 -135q0 -100 -67.5 -168t-166.5 -68q-79 0 -143 49zM148 155l197 188q-31 24 -76 24q-59 0 -96 -40t-37 -105q0 -36 12 -67zM388 288l-196 -188q32 -24 75 -24
q59 0 96 41t37 106q0 37 -12 65zM320 695l95 -51l-145 -145l-66 38z" />
    <glyph glyph-name="uni0200" unicode="&#x200;" horiz-adv-x="631" 
d="M458 172h-286l-63 -172h-109l251 667h128l252 -667h-110zM315 559l-108 -291h215zM244 699l-144 145l91 51l115 -158zM384 699l-144 145l91 51l115 -158z" />
    <glyph glyph-name="uni0201" unicode="&#x201;" horiz-adv-x="545" 
d="M486 443v-443h-99v38q-68 -52 -136 -52q-92 0 -158.5 69.5t-66.5 166.5q0 96 66 165.5t158 69.5q68 0 137 -52v38h99zM261 367q-60 0 -97 -40t-37 -104q0 -65 36.5 -106t95.5 -41q58 0 93.5 40.5t35.5 105.5q0 64 -35.5 104.5t-91.5 40.5zM162 499l-144 145l91 51
l115 -158zM302 499l-144 145l91 51l115 -158z" />
    <glyph glyph-name="Scommaaccent" unicode="&#x218;" horiz-adv-x="515" 
d="M463 559l-84 -53q-29 44 -53.5 61t-60.5 17q-43 0 -72 -26.5t-29 -66.5q0 -54 85 -86l63 -25q161 -61 161 -184q0 -88 -64 -149t-157 -61q-108 0 -170 78q-33 42 -49 114l101 27l4 -16q26 -106 115 -106q49 0 82 32.5t33 79.5q0 32 -23 54.5t-79 44.5l-61 23
q-144 56 -144 175q0 81 59 135t148 54q64 0 110 -29t85 -93zM155 -184l98 154l91 -40l-117 -150z" />
    <glyph glyph-name="scommaaccent" unicode="&#x219;" horiz-adv-x="380" 
d="M23 116l82 33q21 -41 39.5 -57t46.5 -16q27 0 44 15t17 40q0 17 -12.5 27.5t-51.5 25.5l-45 18q-97 36 -97 119q0 58 43.5 97t107.5 39q97 0 148 -97l-78 -39q-18 27 -33.5 37.5t-37.5 10.5q-25 0 -40 -12.5t-15 -32.5q0 -17 11.5 -26.5t51.5 -25.5l42 -16
q56 -22 81 -50.5t25 -70.5q0 -63 -46.5 -106t-115.5 -43q-119 0 -167 130zM188 -236l-73 23l54 182l95 -28z" />
    <glyph glyph-name="uni021A" unicode="&#x21a;" horiz-adv-x="436" 
d="M436 667v-96h-166v-571h-104v571h-166v96h436zM202 -236l-73 23l54 182l95 -28z" />
    <glyph glyph-name="uni021B" unicode="&#x21b;" horiz-adv-x="260" 
d="M163 443h69v-90h-69v-213q0 -54 29 -54q14 0 47 9v-93q-36 -10 -60 -10q-56 0 -86 38.5t-30 109.5v213h-48v90h48v98l100 40v-138zM126 -236l-73 23l54 182l95 -28z" />
    <glyph glyph-name="uni0226" unicode="&#x226;" horiz-adv-x="631" 
d="M458 172h-286l-63 -172h-109l251 667h128l252 -667h-110zM315 559l-108 -291h215zM315 854q26 0 45 -18.5t19 -44.5q0 -27 -19 -45.5t-46 -18.5q-26 0 -44.5 19t-18.5 46q0 25 19 43.5t45 18.5z" />
    <glyph glyph-name="uni0227" unicode="&#x227;" horiz-adv-x="545" 
d="M489 443v-443h-100v38q-68 -52 -136 -52q-92 0 -158.5 69.5t-66.5 166.5q0 96 66 165.5t158 69.5q68 0 137 -52v38h100zM263 367q-60 0 -97 -40t-37 -104q0 -65 36.5 -106t95.5 -41q57 0 93.5 41t36.5 105q0 63 -36 104t-92 41zM259 657q26 0 45 -18.5t19 -44.5
q0 -27 -19 -45.5t-45 -18.5q-27 0 -45.5 18.5t-18.5 45.5q0 26 19 44.5t45 18.5z" />
    <glyph glyph-name="uni0237" unicode="&#x237;" horiz-adv-x="223" 
d="M-10 -232v93q32 -9 47 -9q29 0 29 53v538h100v-538q0 -70 -30 -108.5t-86 -38.5q-26 0 -60 10z" />
    <glyph glyph-name="uni0259" unicode="&#x259;" horiz-adv-x="496" 
d="M29 264h334q-9 52 -39.5 79t-79.5 27q-68 0 -108 -54l-92 35q76 106 199 106q99 0 161.5 -65t62.5 -168q0 -102 -63.5 -170t-158.5 -68q-93 0 -155 66.5t-62 166.5v20q1 5 1 25zM365 190h-237q2 -55 32.5 -86t83.5 -31q108 0 121 117z" />
    <glyph glyph-name="uni02BB" unicode="&#x2bb;" horiz-adv-x="249" 
d="M222 688l-91 -254l-91 33l111 249z" />
    <glyph glyph-name="afii57929" unicode="&#x2bc;" horiz-adv-x="283" 
d="M50 462l92 255l91 -33l-111 -251z" />
    <glyph glyph-name="circumflex" unicode="&#x2c6;" 
d="M328 500l-90 88l-89 -88l-75 37l130 143h68l131 -143z" />
    <glyph glyph-name="caron" unicode="&#x2c7;" 
d="M149 688l89 -88l90 88l75 -37l-131 -143h-68l-130 143z" />
    <glyph glyph-name="uni02C9" unicode="&#x2c9;" 
d="M88 546v89h299v-89h-299z" />
    <glyph glyph-name="breve" unicode="&#x2d8;" 
d="M93 659l86 7q1 -7 1 -14q3 -65 56 -65q37 0 52 35q4 9 9 44l87 -7q-6 -50 -18 -76q-42 -81 -129 -81q-47 0 -84 25.5t-52 68.5q-7 18 -8 63z" />
    <glyph glyph-name="dotaccent" unicode="&#x2d9;" 
d="M238 657q26 0 45 -18.5t19 -44.5q0 -27 -19 -45.5t-45 -18.5q-27 0 -45.5 18.5t-18.5 45.5q0 26 19 44.5t45 18.5z" />
    <glyph glyph-name="ring" unicode="&#x2da;" 
d="M237 691q43 0 73 -29.5t30 -70.5q0 -42 -30 -71.5t-72 -29.5q-43 0 -73 29.5t-30 72.5q0 40 30.5 69.5t71.5 29.5zM238 642q-21 0 -36.5 -15t-15.5 -36q0 -22 15 -37t37 -15q21 0 36 15t15 37q0 21 -15 36t-36 15z" />
    <glyph glyph-name="ogonek" unicode="&#x2db;" 
d="M338 0h100q-36 -45 -36 -66q0 -14 18 -14q17 0 46 11l30 -74q-50 -19 -85 -19q-42 0 -71 26.5t-29 64.5q0 32 27 71z" />
    <glyph glyph-name="tilde" unicode="&#x2dc;" 
d="M305 657l83 -19q-8 -108 -92 -108q-38 0 -73 20q-24 13 -37 13q-7 0 -9.5 -6.5t-7.5 -31.5l-81 19q11 108 93 108q34 0 75 -22q22 -11 35 -11q12 0 14 38z" />
    <glyph glyph-name="hungarumlaut" unicode="&#x2dd;" 
d="M221 695l88 -49l-147 -147l-56 38zM366 695l86 -51l-144 -145l-58 36z" />
    <glyph glyph-name="uni0309" unicode="&#x309;" 
d="M194 804l-29 74q49 19 87 19q43 0 70.5 -23t27.5 -58q0 -26 -18 -55l-15 -24q-6 -10 -6 -21q0 -5 1 -8h-90q1 37 16 60l10 13q11 17 11 21q0 13 -17 13q-14 0 -48 -11z" />
    <glyph glyph-name="uni0312" unicode="&#x312;" 
d="M343 694l73 -23l-54 -182l-95 29z" />
    <glyph glyph-name="uni0313" unicode="&#x313;" 
d="M340 489l-73 23l54 182l95 -28z" />
    <glyph glyph-name="uni031B" unicode="&#x31b;" 
d="M340 489l-73 23l54 182l95 -28z" />
    <glyph glyph-name="uni0323" unicode="&#x323;" 
d="M238 -47q26 0 45 -19t19 -45q0 -27 -19 -45.5t-46 -18.5t-45.5 19t-18.5 46q0 26 19 44.5t46 18.5z" />
    <glyph glyph-name="uni0374" unicode="&#x374;" horiz-adv-x="211" 
d="M101 440h-76l66 270h100z" />
    <glyph glyph-name="uni0375" unicode="&#x375;" horiz-adv-x="211" 
d="M94 -119h-76l66 270h100z" />
    <glyph glyph-name="uni037A" unicode="&#x37a;" horiz-adv-x="467" 
d="M201 -67v67h82v-43q0 -41 9 -51q11 -11 30 -11q20 0 44 4l6 -63q-36 -9 -77 -9q-59 0 -76.5 23.5t-17.5 82.5z" />
    <glyph glyph-name="uni037E" unicode="&#x37e;" horiz-adv-x="245" 
d="M140 428q27 0 45.5 -18.5t18.5 -44.5t-19 -44.5t-46 -18.5q-26 0 -44.5 18.5t-18.5 45.5q0 25 19 43.5t45 18.5zM17 -140l92 255l91 -34l-111 -250z" />
    <glyph glyph-name="tonos" unicode="&#x384;" horiz-adv-x="490" 
d="M281 515h-70l-13 195h96z" />
    <glyph glyph-name="dieresistonos" unicode="&#x385;" horiz-adv-x="490" 
d="M112 657q27 0 45.5 -18.5t18.5 -44.5q0 -27 -18.5 -45.5t-45.5 -18.5t-45.5 18.5t-18.5 45.5q0 26 19 44.5t45 18.5zM281 507h-72l-13 209h98zM379 657q27 0 45.5 -18.5t18.5 -44.5q0 -27 -18.5 -45.5t-45.5 -18.5t-45.5 18.5t-18.5 45.5q0 26 19 44.5t45 18.5z" />
    <glyph glyph-name="Alphatonos" unicode="&#x386;" horiz-adv-x="633" 
d="M520 0l-63 166h-287l-63 -166h-109l262 668h108l262 -668h-110zM204 262h219l-109 287zM114 497h-71l-14 219h99z" />
    <glyph glyph-name="uni0387" unicode="&#x387;" horiz-adv-x="240" 
d="M121 372q26 0 44 -17.5t18 -42.5t-18 -43t-44 -18t-44.5 18t-18.5 43t18.5 42.5t44.5 17.5z" />
    <glyph glyph-name="Epsilontonos" unicode="&#x388;" horiz-adv-x="617" 
d="M578 0h-373v667h363v-95h-260v-186h231v-96h-231v-193h270v-97zM99 497h-72l-13 219h98z" />
    <glyph glyph-name="Etatonos" unicode="&#x389;" horiz-adv-x="784" 
d="M309 0h-104v667h104v-281h297v281h104v-667h-104v290h-297v-290zM99 497h-72l-13 219h98z" />
    <glyph glyph-name="Iotatonos" unicode="&#x38a;" horiz-adv-x="383" 
d="M309 0h-104v667h104v-667zM99 497h-72l-13 219h98z" />
    <glyph glyph-name="Omicrontonos" unicode="&#x38c;" horiz-adv-x="870" 
d="M488 681q144 0 245 -101.5t101 -245.5q0 -145 -101 -246.5t-245 -101.5q-146 0 -246.5 102t-100.5 250q0 141 102 242t245 101zM488 584q-102 0 -172.5 -71.5t-70.5 -175.5q0 -109 69.5 -181.5t173.5 -72.5q102 0 172 72.5t70 178.5t-70 178t-172 72zM99 497h-72l-13 219
h98z" />
    <glyph glyph-name="Upsilontonos" unicode="&#x38e;" horiz-adv-x="680" 
d="M466 0h-104v277l-220 390h117l155 -283l156 283h116l-220 -390v-277zM99 497h-72l-13 219h98z" />
    <glyph glyph-name="Omegatonos" unicode="&#x38f;" horiz-adv-x="878" 
d="M424 0h-276v96h173v23q-171 67 -171 249q0 139 94.5 224t248.5 85t248 -85t94 -224q0 -122 -80 -196q-30 -28 -90 -53v-23h172v-96h-275v147q60 16 106 60q61 57 61 146q0 102 -63.5 161.5t-172.5 59.5q-110 0 -173.5 -59.5t-63.5 -162.5q0 -76 46.5 -131t121.5 -74v-147
zM99 497h-72l-13 219h98z" />
    <glyph glyph-name="iotadieresistonos" unicode="&#x390;" horiz-adv-x="242" 
d="M57 163v280h100v-285q0 -44 7 -59t29 -15q15 0 39 9l5 -90q-41 -11 -71 -11q-36 0 -59.5 14.5t-33.5 43t-13 53t-3 60.5zM-27 657q27 0 45.5 -18.5t18.5 -44.5q0 -27 -18.5 -45.5t-45.5 -18.5t-45.5 18.5t-18.5 45.5q0 26 19 44.5t45 18.5zM142 507h-72l-13 209h98z
M240 657q27 0 45.5 -18.5t18.5 -44.5q0 -27 -18.5 -45.5t-45.5 -18.5t-45.5 18.5t-18.5 45.5q0 26 19 44.5t45 18.5z" />
    <glyph glyph-name="Alpha" unicode="&#x391;" horiz-adv-x="633" 
d="M523 0l-63 166h-287l-63 -166h-109l262 668h108l262 -668h-110zM207 262h219l-109 287z" />
    <glyph glyph-name="Beta" unicode="&#x392;" horiz-adv-x="529" 
d="M255 0h-181v667h149q112 0 166 -41q32 -23 51.5 -61.5t19.5 -79.5q0 -44 -17.5 -74t-60.5 -58q110 -60 110 -163q0 -88 -72 -143q-61 -47 -165 -47zM174 300v-208h76q74 0 106 26q37 29 37 77q0 105 -152 105h-67zM174 577v-195h60q41 0 61 5t36 19q33 27 33 75
q0 56 -35 76t-95 20h-60z" />
    <glyph glyph-name="Gamma" unicode="&#x393;" horiz-adv-x="458" 
d="M178 0h-104v667h366v-96h-262v-571z" />
    <glyph glyph-name="uni0394" unicode="&#x394;" horiz-adv-x="621" 
d="M604 74v-74h-587v74l240 594h107zM132 95h357l-179 455z" />
    <glyph glyph-name="Epsilon" unicode="&#x395;" horiz-adv-x="486" 
d="M447 0h-373v667h363v-95h-260v-186h231v-96h-231v-193h270v-97z" />
    <glyph glyph-name="Zeta" unicode="&#x396;" horiz-adv-x="513" 
d="M494 0h-477v74l339 497h-310v96h441v-74l-335 -496h342v-97z" />
    <glyph glyph-name="Eta" unicode="&#x397;" horiz-adv-x="653" 
d="M178 0h-104v667h104v-281h297v281h104v-667h-104v290h-297v-290z" />
    <glyph glyph-name="Theta" unicode="&#x398;" horiz-adv-x="765" 
d="M383 681q145 0 246 -101.5t101 -245.5q0 -145 -101.5 -246.5t-244.5 -101.5q-147 0 -247.5 101.5t-100.5 250.5q0 141 102 242t245 101zM383 584q-102 0 -172.5 -71.5t-70.5 -175.5q0 -109 69.5 -181.5t174.5 -72.5q102 0 172 72.5t70 178.5t-70 178t-173 72zM526 292
h-287v92h287v-92z" />
    <glyph glyph-name="Iota" unicode="&#x399;" horiz-adv-x="252" 
d="M178 0h-104v667h104v-667z" />
    <glyph glyph-name="Kappa" unicode="&#x39a;" horiz-adv-x="592" 
d="M178 0h-104v667h104v-299l273 299h133l-256 -278l256 -389h-123l-204 314l-79 -87v-227z" />
    <glyph glyph-name="Lambda" unicode="&#x39b;" horiz-adv-x="577" 
d="M112 0h-110l235 668h104l233 -668h-110l-175 527z" />
    <glyph glyph-name="Mu" unicode="&#x39c;" horiz-adv-x="807" 
d="M179 0h-104v667h101l228 -406l228 406h101v-667h-104v471l-184 -328h-82l-184 328v-471z" />
    <glyph glyph-name="Nu" unicode="&#x39d;" horiz-adv-x="711" 
d="M179 0h-104v667h92l366 -491v491h104v-667h-92l-366 491v-491z" />
    <glyph glyph-name="Xi" unicode="&#x39e;" horiz-adv-x="575" 
d="M530 0h-485v96h485v-96zM499 291h-423v93h423v-93zM530 571h-485v96h485v-96z" />
    <glyph glyph-name="Omicron" unicode="&#x39f;" horiz-adv-x="765" 
d="M383 681q145 0 246 -101.5t101 -245.5q0 -145 -101 -246.5t-245 -101.5q-147 0 -247.5 101.5t-100.5 250.5q0 141 102 242t245 101zM383 584q-102 0 -172.5 -71.5t-70.5 -175.5q0 -109 69.5 -181.5t174.5 -72.5q102 0 172 72.5t70 178.5t-70 178t-173 72z" />
    <glyph glyph-name="Pi" unicode="&#x3a0;" horiz-adv-x="667" 
d="M178 0h-104v667h519v-667h-104v571h-311v-571z" />
    <glyph glyph-name="Rho" unicode="&#x3a1;" horiz-adv-x="474" 
d="M222 251h-44v-251h-104v667h148q116 0 173 -51q65 -60 65 -156q0 -97 -65 -157q-56 -52 -173 -52zM177 572v-226h54q128 0 128 114q0 112 -128 112h-54z" />
    <glyph glyph-name="Sigma" unicode="&#x3a3;" horiz-adv-x="517" 
d="M482 0h-435v54l188 297l-173 260v56h411v-96h-283l146 -204v-25l-157 -246h303v-96z" />
    <glyph glyph-name="Tau" unicode="&#x3a4;" horiz-adv-x="438" 
d="M272 0h-104v571h-167v96h437v-96h-166v-571z" />
    <glyph glyph-name="Upsilon" unicode="&#x3a5;" horiz-adv-x="531" 
d="M318 0h-104v277l-220 390h117l155 -283l156 283h115l-219 -390v-277z" />
    <glyph glyph-name="Phi" unicode="&#x3a6;" horiz-adv-x="867" 
d="M480 -54h-94v97q-130 9 -203 48q-71 37 -109 100t-38 142q0 86 44.5 152t126.5 101q67 29 179 36v98h94v-98q133 -9 204 -48q70 -37 108.5 -99.5t38.5 -141.5q0 -86 -44.5 -152.5t-126.5 -101.5q-69 -29 -180 -36v-97zM386 134v397q-90 -7 -136 -30q-108 -53 -108 -169
q0 -59 33 -105.5t91 -69.5q44 -17 120 -23zM480 531v-397q89 7 137 30q108 52 108 168q0 60 -32.5 106.5t-91.5 69.5q-42 17 -121 23z" />
    <glyph glyph-name="Chi" unicode="&#x3a7;" horiz-adv-x="559" 
d="M1 0l220 348l-200 319h117l143 -228l142 228h117l-201 -318l220 -349h-119l-160 257l-161 -257h-118z" />
    <glyph glyph-name="Psi" unicode="&#x3a8;" horiz-adv-x="787" 
d="M445 0h-101v153q-154 7 -223.5 67t-68.5 188v259h104v-242q-2 -91 39.5 -129t148.5 -41v412h101v-412q107 3 148.5 41t39.5 129v242h104v-259q1 -128 -68.5 -188t-223.5 -67v-153z" />
    <glyph glyph-name="uni03A9" unicode="&#x3a9;" horiz-adv-x="773" 
d="M317 0h-276v96h173v23q-171 67 -171 249q0 139 94.5 224t248.5 85t248 -85t94 -224q0 -122 -80 -196q-31 -28 -91 -53v-23h173v-96h-276v147q60 16 107 60q61 57 61 146q0 102 -64 161.5t-173 59.5t-172.5 -59.5t-63.5 -162.5q0 -76 46.5 -131t121.5 -74v-147z" />
    <glyph glyph-name="Iotadieresis" unicode="&#x3aa;" horiz-adv-x="252" 
d="M178 0h-104v667h104v-667zM32 854q24 0 40.5 -16.5t16.5 -39.5q0 -22 -17 -38.5t-40 -16.5q-24 0 -40.5 16.5t-16.5 39.5q0 22 17 38.5t40 16.5zM220 854q24 0 40.5 -16t16.5 -39t-16.5 -39.5t-40.5 -16.5t-40.5 16.5t-16.5 39.5q0 22 17 38.5t40 16.5z" />
    <glyph glyph-name="Upsilondieresis" unicode="&#x3ab;" horiz-adv-x="531" 
d="M318 0h-104v277l-220 390h117l155 -283l156 283h115l-219 -390v-277zM172 854q23 0 40 -16.5t17 -39.5q0 -22 -17 -38.5t-40 -16.5q-24 0 -40.5 16.5t-16.5 39.5q0 22 17 38.5t40 16.5zM359 854q23 0 40 -16.5t17 -38.5q0 -23 -17 -39.5t-40 -16.5q-24 0 -40.5 16.5
t-16.5 39.5q0 22 17 38.5t40 16.5z" />
    <glyph glyph-name="alphatonos" unicode="&#x3ac;" horiz-adv-x="548" 
d="M491 0h-100v55q-56 -69 -142 -69q-92 0 -156.5 68.5t-64.5 167.5q0 98 64 166.5t156 68.5q45 0 78 -16t65 -53v55h100v-443zM263 367q-60 0 -97 -40t-37 -105q0 -64 37 -105t96 -41q57 0 94 40.5t37 102.5q0 66 -36 107t-94 41zM307 515h-71l-13 195h97z" />
    <glyph glyph-name="epsilontonos" unicode="&#x3ad;" horiz-adv-x="455" 
d="M255 260h92v-69h-93q-107 0 -107 -59q0 -62 110 -62q44 0 73.5 10.5t61.5 38.5l52 -70q-50 -35 -94 -49t-108 -14q-98 0 -149.5 35t-51.5 102q0 80 72 109q-61 30 -61 94q0 63 50 97t143 34q58 0 100 -13t88 -46l-53 -68q-51 43 -122 43q-101 0 -101 -61q0 -28 23 -40
t75 -12zM286 515h-71l-13 195h97z" />
    <glyph glyph-name="etatonos" unicode="&#x3ae;" horiz-adv-x="511" 
d="M157 0h-100v443h100v-45q33 35 58 47t67 12q78 0 128 -58q44 -50 44 -158v-474h-100v466q0 29 -3 50t-12 41.5t-28.5 31.5t-48.5 11q-34 0 -55.5 -11t-32 -32.5t-14 -44t-3.5 -55.5v-224zM293 515h-70l-13 195h96z" />
    <glyph glyph-name="iotatonos" unicode="&#x3af;" horiz-adv-x="242" 
d="M56 163v280h100v-285q0 -44 7.5 -59t29.5 -15q14 0 38 9l5 -90q-41 -11 -71 -11q-36 0 -59.5 14.5t-33.5 43t-13 53t-3 60.5zM141 515h-70l-13 195h96z" />
    <glyph glyph-name="upsilondieresistonos" unicode="&#x3b0;" horiz-adv-x="503" 
d="M36 186v257h100v-251q0 -60 19.5 -90.5t75.5 -30.5q55 0 74.5 31t19.5 90v251h100v-257q0 -102 -42 -147q-51 -54 -155 -54q-108 0 -158 63q-34 42 -34 138zM97 657q27 0 45.5 -18.5t18.5 -44.5q0 -27 -18.5 -45.5t-45.5 -18.5t-45.5 18.5t-18.5 45.5q0 26 19 44.5
t45 18.5zM266 507h-72l-13 209h98zM364 657q27 0 45.5 -18.5t18.5 -44.5q0 -27 -18.5 -45.5t-45.5 -18.5t-45.5 18.5t-18.5 45.5q0 26 19 44.5t45 18.5z" />
    <glyph glyph-name="alpha" unicode="&#x3b1;" horiz-adv-x="548" 
d="M491 0h-99v38q-56 -52 -140 -52q-94 0 -158.5 68t-64.5 168q0 99 64.5 167t158.5 68q80 0 140 -52v38h99v-443zM264 367q-60 0 -97 -40t-37 -105q0 -64 37 -105t96 -41q57 0 93.5 40t36.5 103q0 67 -35.5 107.5t-93.5 40.5z" />
    <glyph glyph-name="beta" unicode="&#x3b2;" horiz-adv-x="520" 
d="M157 32v-265h-100v702q0 56 8 86.5t31 59.5q52 66 151 66q83 0 136.5 -52t53.5 -132q0 -76 -55 -127q105 -56 105 -172q0 -92 -55 -147.5t-147 -55.5q-38 0 -62.5 7t-65.5 30zM157 476v-353l8 -5q37 -37 101 -37q54 0 87.5 33.5t33.5 87.5q0 109 -135 109v88
q47 3 67.5 23.5t20.5 69.5q0 47 -24.5 74t-66.5 27q-53 0 -77 -41q-15 -24 -15 -76z" />
    <glyph glyph-name="gamma" unicode="&#x3b3;" horiz-adv-x="460" 
d="M178 -233v233l-183 443h105l131 -328l130 328h105l-182 -443v-233h-106z" />
    <glyph glyph-name="delta" unicode="&#x3b4;" horiz-adv-x="525" 
d="M398 667v-87h-81q-52 0 -71.5 -7.5t-19.5 -27.5q0 -18 16 -31t93 -58q20 -11 52.5 -36.5t49.5 -43.5q60 -60 60 -157q0 -103 -65.5 -168t-169.5 -65q-103 0 -168.5 66.5t-65.5 170.5q0 65 28.5 117t78.5 78q34 17 88 22q-9 7 -10 7q-6 5 -17.5 13t-14.5 10q-58 40 -58 95
q0 64 66 89q36 13 134 13h75zM264 365q-59 0 -96 -40t-37 -103t37 -103.5t94 -40.5q58 0 95 40.5t37 103.5q0 62 -37 102.5t-93 40.5z" />
    <glyph glyph-name="epsilon" unicode="&#x3b5;" horiz-adv-x="455" 
d="M255 261h92v-74h-93q-107 0 -107 -56q0 -61 110 -61q43 0 72.5 10.5t62.5 38.5l52 -70q-50 -35 -94.5 -49t-107.5 -14q-98 0 -149.5 35t-51.5 102q0 80 72 108q-61 30 -61 95q0 63 50 97t143 34q58 0 100 -13t88 -46l-53 -69q-51 44 -122 44q-101 0 -101 -61
q0 -27 23 -39t75 -12z" />
    <glyph glyph-name="zeta" unicode="&#x3b6;" horiz-adv-x="368" 
d="M239 579h-189v88h312v-56q-128 -195 -172 -283.5t-44 -145.5q0 -59 37 -84q13 -10 26 -13.5t65 -14.5q96 -20 96 -108q0 -48 -25 -85t-91 -87l-55 63q45 31 60.5 50t15.5 45q0 29 -20 38q-12 6 -55 12q-83 12 -121 50t-38 121q0 69 39 150.5t159 259.5z" />
    <glyph glyph-name="eta" unicode="&#x3b7;" horiz-adv-x="511" 
d="M157 0h-100v443h100v-28q48 42 122 42q82 0 131 -58q44 -50 44 -158v-474h-100v466q0 29 -3 50t-12 41.5t-28.5 31.5t-48.5 11q-53 0 -82 -34q-23 -28 -23 -109v-224z" />
    <glyph glyph-name="theta" unicode="&#x3b8;" horiz-adv-x="533" 
d="M267 681q66 0 115 -32t75 -85.5t38 -111t12 -119.5t-12 -119.5t-38 -110.5t-75 -85t-115 -32q-67 0 -116.5 32t-75.5 86t-37.5 112t-11.5 121q0 62 12.5 119t38.5 109.5t75 84t115 31.5zM405 296h-277q12 -220 139 -220q128 0 138 220zM128 381h277q-2 37 -8.5 70
t-21 66.5t-42.5 53.5t-66 20t-66 -20t-42.5 -53.5t-21.5 -66.5t-9 -70z" />
    <glyph glyph-name="iota" unicode="&#x3b9;" horiz-adv-x="242" 
d="M57 163v280h100v-285q0 -44 7.5 -59t29.5 -15q14 0 38 9l5 -90q-41 -11 -71 -11q-36 0 -59.5 14.5t-33.5 43t-13 53t-3 60.5z" />
    <glyph glyph-name="kappa" unicode="&#x3ba;" horiz-adv-x="481" 
d="M157 0h-100v443h100v-190l185 190h124l-186 -179l206 -264h-117l-154 202l-58 -57v-145z" />
    <glyph glyph-name="lambda" unicode="&#x3bb;" horiz-adv-x="441" 
d="M-9 0l174 440l-94 227h105l279 -667h-106l-132 313l-115 -313h-111z" />
    <glyph glyph-name="uni03BC" unicode="&#x3bc;" horiz-adv-x="511" 
d="M57 -233v676h100v-234q0 -29 3 -49.5t12 -41.5t28.5 -31.5t48.5 -10.5q53 0 82 34q23 28 23 109v224h100v-443h-100v28q-27 -24 -51.5 -33t-62.5 -9q-52 0 -83 35v-254h-100z" />
    <glyph glyph-name="nu" unicode="&#x3bd;" horiz-adv-x="460" 
d="M277 0h-93l-189 443h105l131 -310l130 310h105z" />
    <glyph glyph-name="xi" unicode="&#x3be;" horiz-adv-x="377" 
d="M184 579h-132v88h316v-72q-91 -14 -139 -46t-48 -79q0 -95 148 -95h32v-74h-57q-76 0 -108 -21q-50 -30 -50 -97q0 -57 38 -84q14 -10 26.5 -13.5t62.5 -14.5q55 -10 80 -36.5t25 -73.5t-25.5 -84.5t-91.5 -86.5l-55 62q46 31 61.5 50.5t15.5 45.5q0 28 -21 39
q-14 6 -59 12q-87 12 -122 48q-40 42 -40 121q0 66 28 109.5t89 72.5q-43 22 -59.5 45.5t-16.5 61.5q0 43 23 71t79 51z" />
    <glyph glyph-name="omicron" unicode="&#x3bf;" horiz-adv-x="525" 
d="M263 457q99 0 166.5 -68t67.5 -167q0 -100 -67.5 -168t-165.5 -68q-101 0 -168 68t-67 170q0 98 68 165.5t166 67.5zM263 367q-58 0 -95.5 -40.5t-37.5 -103.5q0 -66 37 -106.5t96 -40.5t96 41t37 105t-37.5 104.5t-95.5 40.5z" />
    <glyph glyph-name="pi" unicode="&#x3c0;" horiz-adv-x="528" 
d="M187 0h-100v355h-66v88h486v-88h-66v-355h-100v355h-154v-355z" />
    <glyph glyph-name="rho" unicode="&#x3c1;" horiz-adv-x="534" 
d="M143 37v-270h-100v409q1 126 42 188q63 92 190 92q105 0 168 -64t63 -172q0 -104 -55 -169t-157 -65q-47 0 -80.5 11.5t-70.5 39.5zM277 366q-58 0 -95 -40t-37 -102q0 -66 36.5 -106t95.5 -40q57 0 92.5 40t35.5 104t-35.5 104t-92.5 40z" />
    <glyph glyph-name="uni03C2" unicode="&#x3c2;" horiz-adv-x="452" 
d="M434 386l-61 -69q-49 50 -109 50q-61 0 -97.5 -42t-36.5 -110q0 -77 47 -110q16 -12 32.5 -17t74.5 -17q55 -11 80 -37.5t25 -72.5q0 -48 -25 -85t-92 -86l-55 62q46 32 61.5 51t15.5 44q0 30 -22 39q-11 6 -61 13q-98 14 -140 60.5t-42 145.5q0 111 66 181.5t170 70.5
q91 0 169 -71z" />
    <glyph glyph-name="sigma" unicode="&#x3c3;" horiz-adv-x="532" 
d="M302 443h235v-87h-99q33 -42 43.5 -70t10.5 -72q0 -101 -65.5 -165t-168.5 -64q-101 0 -165 65t-64 168q0 63 26.5 114t73.5 80q32 19 64.5 25t108.5 6zM330 356h-37q-48 0 -72 -6t-43 -23q-44 -38 -44 -111q0 -65 33.5 -103t91.5 -38q62 0 96.5 38.5t34.5 106.5
q0 42 -13 71.5t-47 64.5z" />
    <glyph glyph-name="tau" unicode="&#x3c4;" horiz-adv-x="370" 
d="M129 163v193h-120v87h353v-87h-133v-198q0 -44 7.5 -59t29.5 -15q15 0 39 9l4 -90q-40 -11 -71 -11q-36 0 -59.5 14.5t-33.5 43t-13 53t-3 60.5z" />
    <glyph glyph-name="upsilon" unicode="&#x3c5;" horiz-adv-x="502" 
d="M57 186v257h100v-251q0 -60 19.5 -90.5t75.5 -30.5q55 0 74.5 31t19.5 90v251h100v-257q0 -102 -42 -147q-51 -54 -155 -54q-108 0 -158 63q-34 42 -34 138z" />
    <glyph glyph-name="phi" unicode="&#x3c6;" horiz-adv-x="647" 
d="M371 -12v-221h-97v222q-115 9 -180 69.5t-65 158.5q0 142 137 201l40 -63q-42 -31 -59.5 -57.5t-17.5 -73.5q0 -64 38.5 -103.5t106.5 -45.5v373q31 5 58 5q140 0 213.5 -59.5t73.5 -173.5q0 -104 -64.5 -164.5t-183.5 -67.5zM371 367v-293q72 5 110 42.5t38 104.5
t-38.5 105t-109.5 41z" />
    <glyph glyph-name="chi" unicode="&#x3c7;" horiz-adv-x="470" 
d="M-2 0l176 229l-163 214h118l104 -138l105 138h117l-163 -213l175 -230h-118l-116 154l-117 -154h-118z" />
    <glyph glyph-name="psi" unicode="&#x3c8;" horiz-adv-x="687" 
d="M62 233v210h102v-213q-2 -85 24 -116.5t96 -31.5h16v361h97v-361h16q70 0 96 31.5t24 116.5v213h102v-210q3 -128 -49 -183t-177 -55h-12v-228h-97v228h-12q-125 0 -177.5 55t-48.5 183z" />
    <glyph glyph-name="omega" unicode="&#x3c9;" horiz-adv-x="670" 
d="M290 215v85h89v-85q0 -28 1.5 -44.5t7.5 -41.5t22 -37.5t41 -12.5q40 0 64 37t24 98t-19.5 109t-64.5 97l82 35q104 -99 104 -251q0 -100 -48.5 -158.5t-131.5 -58.5q-87 0 -127 61q-39 -61 -126 -61q-83 0 -131.5 58.5t-48.5 158.5q0 153 104 251l82 -35
q-45 -49 -64.5 -97t-19.5 -109q0 -60 24.5 -97.5t63.5 -37.5q25 0 41 12.5t22 37.5t7.5 41.5t1.5 44.5z" />
    <glyph glyph-name="iotadieresis" unicode="&#x3ca;" horiz-adv-x="242" 
d="M57 163v280h100v-285q0 -44 7.5 -59t29.5 -15q14 0 38 9l5 -90q-40 -11 -70 -11t-51 11t-32.5 26t-17.5 40t-7.5 45t-1.5 49zM29 657q27 0 45.5 -18.5t18.5 -44.5q0 -27 -18.5 -45.5t-45.5 -18.5t-45.5 18.5t-18.5 45.5q0 26 19 44.5t45 18.5zM213 657q27 0 45.5 -18.5
t18.5 -44.5q0 -27 -18.5 -45.5t-45.5 -18.5t-45.5 18.5t-18.5 45.5q0 26 19 44.5t45 18.5z" />
    <glyph glyph-name="upsilondieresis" unicode="&#x3cb;" horiz-adv-x="502" 
d="M57 186v257h100v-251q0 -60 19.5 -90.5t75.5 -30.5q55 0 74.5 31t19.5 90v251h100v-257q0 -102 -42 -147q-51 -54 -155 -54q-108 0 -158 63q-34 42 -34 138zM159 657q26 0 45 -18.5t19 -44.5q0 -27 -19 -45.5t-45 -18.5q-27 0 -45.5 18.5t-18.5 45.5q0 26 19 44.5
t45 18.5zM343 657q26 0 45 -18.5t19 -44.5q0 -27 -19 -45.5t-45 -18.5q-27 0 -45.5 18.5t-18.5 45.5q0 26 19 44.5t45 18.5z" />
    <glyph glyph-name="omicrontonos" unicode="&#x3cc;" horiz-adv-x="525" 
d="M263 457q99 0 166.5 -68t67.5 -167q0 -100 -67.5 -168t-165.5 -68q-101 0 -168 68t-67 170q0 98 68 165.5t166 67.5zM263 367q-58 0 -95.5 -40.5t-37.5 -103.5q0 -66 37 -106.5t96 -40.5t96 41t37 105t-37.5 104.5t-95.5 40.5zM298 515h-70l-13 195h96z" />
    <glyph glyph-name="upsilontonos" unicode="&#x3cd;" horiz-adv-x="502" 
d="M57 186v257h100v-251q0 -60 19.5 -90.5t75.5 -30.5q55 0 74.5 31t19.5 90v251h100v-257q0 -102 -42 -147q-51 -54 -155 -54q-108 0 -158 63q-34 42 -34 138zM287 515h-71l-13 195h97z" />
    <glyph glyph-name="omegatonos" unicode="&#x3ce;" horiz-adv-x="670" 
d="M290 215v85h89v-85q0 -28 1.5 -44.5t7.5 -41.5t22 -37.5t41 -12.5q40 0 64 37t24 98t-19.5 109t-64.5 97l82 35q104 -99 104 -251q0 -99 -48.5 -158t-129.5 -59q-89 0 -129 75q-38 -75 -128 -75q-81 0 -129.5 59t-48.5 158q0 153 104 251l82 -35q-45 -49 -64.5 -97
t-19.5 -109q0 -60 24.5 -97.5t63.5 -37.5q25 0 41 12.5t22 37.5t7.5 41.5t1.5 44.5zM370 515h-71l-13 195h97z" />
    <glyph glyph-name="theta1" unicode="&#x3d1;" horiz-adv-x="533" 
d="M267 681q66 0 115 -32t75 -85.5t38 -111t12 -119.5t-12 -119.5t-38 -110.5t-75 -85t-115 -32q-67 0 -116.5 32t-75.5 86t-37.5 112t-11.5 121q0 62 12.5 119t38.5 109.5t75 84t115 31.5zM405 296h-277q12 -220 139 -220q128 0 138 220zM128 381h277q-2 37 -8.5 70
t-21 66.5t-42.5 53.5t-66 20t-66 -20t-42.5 -53.5t-21.5 -66.5t-9 -70z" />
    <glyph glyph-name="phi1" unicode="&#x3d5;" horiz-adv-x="647" 
d="M371 -12v-221h-97v222q-115 9 -180 69.5t-65 158.5q0 142 137 201l40 -63q-42 -31 -59.5 -57.5t-17.5 -73.5q0 -64 38.5 -103.5t106.5 -45.5v373q31 5 58 5q140 0 213.5 -59.5t73.5 -173.5q0 -104 -64.5 -164.5t-183.5 -67.5zM371 367v-293q72 5 110 42.5t38 104.5
t-38.5 105t-109.5 41z" />
    <glyph glyph-name="uni0400" unicode="&#x400;" horiz-adv-x="481" 
d="M435 667v-96h-258v-185h230v-96h-230v-194h268v-96h-372v667h362zM264 699l-144 145l95 51l115 -158z" />
    <glyph glyph-name="afii10023" unicode="&#x401;" horiz-adv-x="486" 
d="M447 0h-373v667h363v-95h-260v-186h231v-96h-231v-193h270v-97zM169 854q24 0 40.5 -16.5t16.5 -39.5q0 -22 -17 -38.5t-40 -16.5q-24 0 -40.5 16.5t-16.5 39.5q0 22 17 38.5t40 16.5zM356 854q24 0 40.5 -16t16.5 -39t-16.5 -39.5t-40.5 -16.5t-40.5 16.5t-16.5 39.5
q0 22 17 38.5t40 16.5z" />
    <glyph glyph-name="afii10051" unicode="&#x402;" horiz-adv-x="623" 
d="M241 0h-105v571h-127v96h414v-96h-182v-201q48 58 137 58q86 0 140 -57q47 -51 47 -158v-446h-100v438q0 65 -22.5 99t-84.5 34q-66 0 -91.5 -34.5t-25.5 -102.5v-201z" />
    <glyph glyph-name="afii10052" unicode="&#x403;" horiz-adv-x="458" 
d="M178 0h-104v667h366v-96h-262v-571zM305 895l94 -47l-143 -134l-66 34z" />
    <glyph glyph-name="afii10053" unicode="&#x404;" horiz-adv-x="665" 
d="M148 383h325v-91h-327q14 -55 23 -76.5t26 -43.5q72 -89 180 -89q104 0 189 88l73 -69q-115 -116 -264 -116q-145 0 -241 98.5t-96 247.5t97 249t242 100q75 0 136 -26.5t123 -87.5l-74 -69q-83 86 -186 86q-88 0 -146.5 -52t-79.5 -149z" />
    <glyph glyph-name="afii10054" unicode="&#x405;" horiz-adv-x="515" 
d="M463 559l-84 -53q-29 44 -53.5 61t-60.5 17q-43 0 -72 -26.5t-29 -66.5q0 -53 85 -86l63 -25q161 -61 161 -184q0 -88 -64 -149t-157 -61q-108 0 -170 78q-33 42 -49 114l101 27l4 -16q26 -106 115 -106q49 0 82 32.5t33 79.5q0 32 -23 54.5t-79 44.5l-61 23
q-144 56 -144 175q0 81 59 135t148 54q64 0 110 -29t85 -93z" />
    <glyph glyph-name="afii10055" unicode="&#x406;" horiz-adv-x="252" 
d="M74 667h104v-667h-104v667z" />
    <glyph glyph-name="afii10056" unicode="&#x407;" horiz-adv-x="252" 
d="M74 667h104v-667h-104v667zM32 854q24 0 40.5 -16.5t16.5 -39.5q0 -22 -17 -38.5t-40 -16.5q-24 0 -40.5 16.5t-16.5 39.5q0 22 17 38.5t40 16.5zM220 854q24 0 40.5 -16t16.5 -39t-16.5 -39.5t-40.5 -16.5t-40.5 16.5t-16.5 39.5q0 22 17 38.5t40 16.5z" />
    <glyph glyph-name="afii10057" unicode="&#x408;" horiz-adv-x="416" 
d="M239 667h104v-462q0 -87 -28 -139q-21 -37 -60.5 -58.5t-86.5 -21.5t-86 19t-85 64l65 75q56 -60 105 -60q72 0 72 121v462z" />
    <glyph glyph-name="afii10058" unicode="&#x409;" horiz-adv-x="870" 
d="M615 0h-190v571h-185l-1 -19q-14 -276 -38 -378q-41 -175 -174 -175q-17 0 -35 1v98q13 -2 23 -2q62 0 86 87q32 116 43 484h385v-261h98q214 0 214 -199q0 -116 -75 -169q-53 -38 -151 -38zM529 319v-229h68q85 0 113 31q29 31 29 83q0 58 -35 90q-29 25 -107 25h-68z
" />
    <glyph glyph-name="afii10059" unicode="&#x40a;" horiz-adv-x="919" 
d="M665 0h-190v304h-297v-304h-104v667h104v-267h297v267h104v-261h97q215 0 215 -199q0 -116 -75 -169q-53 -38 -151 -38zM579 319v-229h68q83 0 113 31q29 31 29 83q0 66 -36.5 90.5t-105.5 24.5h-68z" />
    <glyph glyph-name="afii10060" unicode="&#x40b;" horiz-adv-x="623" 
d="M241 0h-105v571h-127v96h414v-96h-182v-201q49 58 137 58q86 0 140 -57q47 -51 47 -158v-213h-100v205q0 65 -22.5 99t-84.5 34q-66 0 -91.5 -34.5t-25.5 -102.5v-201z" />
    <glyph glyph-name="afii10061" unicode="&#x40c;" horiz-adv-x="584" 
d="M178 0h-104v667h104v-299l273 299h133l-256 -278l256 -389h-123l-204 314l-79 -87v-227zM361 895l94 -47l-144 -134l-65 34z" />
    <glyph glyph-name="uni040D" unicode="&#x40d;" horiz-adv-x="649" 
d="M159 0h-85v667h100v-485l316 485h85v-667h-100v482zM325 714l-144 134l95 47l114 -147z" />
    <glyph glyph-name="afii10062" unicode="&#x40e;" horiz-adv-x="544" 
d="M72 0l149 260l-216 407h120l151 -303l154 303h120l-368 -667h-110zM122 860l86 7q1 -38 17 -55t49 -17q35 0 50 16t17 56l86 -6q-5 -56 -25 -85q-42 -60 -128 -60q-69 0 -108.5 38t-43.5 106z" />
    <glyph glyph-name="afii10145" unicode="&#x40f;" horiz-adv-x="643" 
d="M274 0h-200v667h104v-571h287v571h104v-667h-201v-128h-94v128z" />
    <glyph glyph-name="afii10017" unicode="&#x410;" horiz-adv-x="633" 
d="M523 0l-63 166h-287l-63 -166h-109l262 668h108l262 -668h-110zM207 262h219l-109 287z" />
    <glyph glyph-name="afii10018" unicode="&#x411;" horiz-adv-x="524" 
d="M261 0h-187v667h368v-96h-268v-172h99q107 0 157 -44q59 -53 59 -151q0 -115 -76 -167q-52 -37 -152 -37zM174 312v-222h69q86 0 115 30q29 31 29 81q0 56 -35 86q-29 25 -109 25h-69z" />
    <glyph glyph-name="afii10019" unicode="&#x412;" horiz-adv-x="529" 
d="M255 0h-181v667h149q111 0 166 -41q32 -23 51.5 -61.5t19.5 -79.5q0 -44 -17.5 -74t-60.5 -58q110 -60 110 -163q0 -86 -72 -143q-61 -47 -165 -47zM174 300v-208h76q74 0 106 26q37 29 37 77q0 105 -152 105h-67zM174 577v-195h60q41 0 61 5t36 19q33 27 33 75
q0 56 -35 76t-95 20h-60z" />
    <glyph glyph-name="afii10020" unicode="&#x413;" horiz-adv-x="458" 
d="M178 0h-104v667h366v-96h-262v-571z" />
    <glyph glyph-name="afii10021" unicode="&#x414;" horiz-adv-x="647" 
d="M527 -128v128h-450v-128h-95v224h31q33 0 60 22.5t38 55.5q14 37 28.5 185.5t18.5 307.5h407v-571h57v-224h-95zM159 96h302v475h-207q-4 -150 -22 -305q-10 -71 -23.5 -102.5t-49.5 -67.5z" />
    <glyph glyph-name="afii10022" unicode="&#x415;" horiz-adv-x="486" 
d="M447 0h-373v667h363v-95h-260v-186h231v-96h-231v-193h270v-97z" />
    <glyph glyph-name="afii10024" unicode="&#x416;" horiz-adv-x="867" 
d="M484 0h-102v298h-31l-222 -298h-126l262 344l-242 323h118l207 -280h34v280h102v-280h34l207 280h118l-242 -323l262 -344h-126l-222 298h-31v-298z" />
    <glyph glyph-name="afii10025" unicode="&#x417;" horiz-adv-x="586" 
d="M247 304h-72v87h72q36 0 59 2t56 10t50.5 29.5t17.5 54.5q0 46 -40.5 71.5t-111.5 25.5q-115 0 -201 -83l-72 77q64 55 129.5 79t150.5 24q118 0 185 -47.5t67 -131.5q0 -108 -113 -150q66 -26 95 -66t29 -105q0 -94 -69.5 -144t-200.5 -50q-88 0 -153 24t-125 79l72 81
q46 -47 93 -67t112 -20q79 0 121 28t42 80q0 112 -193 112z" />
    <glyph glyph-name="afii10026" unicode="&#x418;" horiz-adv-x="649" 
d="M159 0h-85v667h100v-485l316 485h85v-667h-100v482z" />
    <glyph glyph-name="afii10027" unicode="&#x419;" horiz-adv-x="649" 
d="M159 0h-85v667h100v-485l316 485h85v-667h-100v482zM172 860l86 7q1 -38 17 -55t49 -17q35 0 50 16t17 56l86 -6q-5 -55 -25 -85q-42 -60 -128 -60q-69 0 -108.5 38t-43.5 106z" />
    <glyph glyph-name="afii10028" unicode="&#x41a;" horiz-adv-x="584" 
d="M178 0h-104v667h104v-299l273 299h133l-256 -278l256 -389h-123l-204 314l-79 -87v-227z" />
    <glyph glyph-name="afii10029" unicode="&#x41b;" horiz-adv-x="603" 
d="M144 667h385v-667h-104v571h-185l-1 -19q-14 -278 -38 -378q-41 -175 -174 -175q-17 0 -35 1v98q13 -2 23 -2q62 0 86 87q32 116 43 484z" />
    <glyph glyph-name="afii10030" unicode="&#x41c;" horiz-adv-x="807" 
d="M179 0h-104v667h101l228 -406l228 406h101v-667h-104v471l-184 -328h-82l-184 328v-471z" />
    <glyph glyph-name="afii10031" unicode="&#x41d;" horiz-adv-x="653" 
d="M178 0h-104v667h104v-281h297v281h104v-667h-104v290h-297v-290z" />
    <glyph glyph-name="afii10032" unicode="&#x41e;" horiz-adv-x="765" 
d="M383 681q145 0 246 -101.5t101 -245.5q0 -145 -101 -246.5t-245 -101.5q-147 0 -247.5 101.5t-100.5 250.5q0 141 102 242t245 101zM383 584q-102 0 -172.5 -71.5t-70.5 -175.5q0 -109 69.5 -181.5t174.5 -72.5q102 0 172 72.5t70 178.5t-70 178t-173 72z" />
    <glyph glyph-name="afii10033" unicode="&#x41f;" horiz-adv-x="667" 
d="M178 0h-104v667h519v-667h-104v571h-311v-571z" />
    <glyph glyph-name="afii10034" unicode="&#x420;" horiz-adv-x="474" 
d="M222 251h-44v-251h-104v667h148q116 0 173 -51q65 -60 65 -156q0 -97 -65 -157q-56 -52 -173 -52zM177 572v-226h54q128 0 128 114q0 112 -128 112h-54z" />
    <glyph glyph-name="afii10035" unicode="&#x421;" horiz-adv-x="665" 
d="M634 567l-74 -69q-79 86 -179 86q-101 0 -171 -73t-70 -178q0 -104 71 -177t171 -73t182 88l74 -69q-113 -116 -254 -116q-144 0 -246 102t-102 245q0 144 102 246t247 102q135 0 249 -114z" />
    <glyph glyph-name="afii10036" unicode="&#x422;" horiz-adv-x="438" 
d="M272 0h-104v571h-167v96h437v-96h-166v-571z" />
    <glyph glyph-name="afii10037" unicode="&#x423;" horiz-adv-x="544" 
d="M72 0l149 260l-216 407h120l151 -303l154 303h120l-368 -667h-110z" />
    <glyph glyph-name="afii10038" unicode="&#x424;" horiz-adv-x="867" 
d="M480 -54h-94v97q-130 9 -203 48q-71 37 -109 100t-38 142q0 86 44.5 152t126.5 101q67 29 179 36v98h94v-98q133 -9 204 -48q70 -37 108.5 -99.5t38.5 -141.5q0 -86 -44.5 -152.5t-126.5 -101.5q-69 -29 -180 -36v-97zM386 134v397q-90 -7 -136 -30q-108 -53 -108 -169
q0 -59 33 -105.5t91 -69.5q44 -17 120 -23zM480 531v-397q89 7 137 30q108 52 108 168q0 60 -32.5 106.5t-91.5 69.5q-42 17 -121 23z" />
    <glyph glyph-name="afii10039" unicode="&#x425;" horiz-adv-x="559" 
d="M1 0l220 348l-200 319h117l143 -228l142 228h117l-201 -318l220 -349h-119l-160 257l-161 -257h-118z" />
    <glyph glyph-name="afii10040" unicode="&#x426;" horiz-adv-x="651" 
d="M533 0h-459v667h104v-571h287v571h104v-571h58v-224h-94v128z" />
    <glyph glyph-name="afii10041" unicode="&#x427;" horiz-adv-x="600" 
d="M527 0h-104v226q-84 -19 -143 -19q-139 0 -197 84q-36 54 -36 170v206h104v-192q0 -93 30 -132t121 -39q58 0 121 18v345h104v-667z" />
    <glyph glyph-name="afii10042" unicode="&#x428;" horiz-adv-x="910" 
d="M836 0h-762v667h104v-571h225v571h104v-571h225v571h104v-667z" />
    <glyph glyph-name="afii10043" unicode="&#x429;" horiz-adv-x="918" 
d="M800 0h-726v667h104v-571h225v571h104v-571h225v571h104v-571h58v-224h-94v128z" />
    <glyph glyph-name="afii10044" unicode="&#x42a;" horiz-adv-x="627" 
d="M372 0h-190v571h-180v96h284v-261h98q214 0 214 -200q0 -116 -75 -169q-53 -37 -151 -37zM286 319v-230h68q85 0 113 31q29 32 29 84q0 59 -35 89q-29 26 -107 26h-68z" />
    <glyph glyph-name="afii10045" unicode="&#x42b;" horiz-adv-x="752" 
d="M264 0h-190v667h104v-261h98q102 0 158 -49.5t56 -150.5q0 -115 -75 -169q-53 -37 -151 -37zM178 319v-230h68q85 0 113 31q29 32 29 84q0 66 -36.5 90.5t-105.5 24.5h-68zM678 0h-104v667h104v-667z" />
    <glyph glyph-name="afii10046" unicode="&#x42c;" horiz-adv-x="518" 
d="M264 0h-190v667h104v-261h98q102 0 158 -49.5t56 -150.5q0 -115 -75 -169q-53 -37 -151 -37zM178 319v-230h68q85 0 113 31q29 32 29 84q0 66 -36.5 90.5t-105.5 24.5h-68z" />
    <glyph glyph-name="afii10047" unicode="&#x42d;" horiz-adv-x="665" 
d="M518 292h-327v91h325q-20 95 -79.5 148t-147.5 53q-102 0 -185 -86l-74 69q62 60 123 87t136 27q144 0 241.5 -100.5t97.5 -248.5q0 -146 -95.5 -246t-241.5 -100q-151 0 -264 116l74 69q84 -88 188 -88q118 0 189 101q19 29 40 108z" />
    <glyph glyph-name="afii10048" unicode="&#x42e;" horiz-adv-x="1028" 
d="M178 0h-104v667h104v-281h142q18 98 67 162q48 63 118 98t149 35q141 0 240 -101.5t99 -246.5t-99 -246t-240 -101q-86 0 -162 41.5t-123 115.5q-34 55 -50 147h-141v-290zM654 584q-98 0 -166.5 -72t-68.5 -176q0 -108 67.5 -180.5t168.5 -72.5q99 0 166.5 72t67.5 178
t-68 178.5t-167 72.5z" />
    <glyph glyph-name="afii10049" unicode="&#x42f;" horiz-adv-x="542" 
d="M364 0v251h-44l-36 1l-15 2l-139 -254h-117l157 283q-107 59 -107 178q0 53 22 98.5t61 71.5q54 36 163 36h159v-667h-104zM311 346h54v226h-54q-144 0 -144 -115q0 -111 144 -111z" />
    <glyph glyph-name="afii10065" unicode="&#x430;" horiz-adv-x="548" 
d="M491 0h-99v38q-56 -52 -140 -52q-94 0 -158.5 68t-64.5 168q0 99 64.5 167t158.5 68q80 0 140 -52v38h99v-443zM264 367q-60 0 -97 -40t-37 -105q0 -64 37 -105t96 -41q57 0 93.5 40t36.5 103q0 67 -35.5 107.5t-93.5 40.5z" />
    <glyph glyph-name="afii10066" unicode="&#x431;" horiz-adv-x="529" 
d="M436 692l10 -86q-19 -12 -43.5 -16.5t-89.5 -8.5q-110 -3 -141 -37t-36 -155q55 66 152 66q94 0 153.5 -63.5t59.5 -163.5q0 -106 -67.5 -173.5t-173.5 -67.5q-131 0 -190 97q-39 65 -39 204q0 235 67 316q35 41 101 52q29 6 115 12q96 8 122 24zM268 366q-60 0 -97 -41
t-37 -108q0 -63 35.5 -102.5t93.5 -39.5t96.5 43t38.5 108q0 61 -36.5 100.5t-93.5 39.5z" />
    <glyph glyph-name="afii10067" unicode="&#x432;" horiz-adv-x="460" 
d="M268 0h-211v443h199q72 0 114.5 -24t42.5 -90q0 -65 -60 -96q81 -22 81 -109q0 -124 -166 -124zM157 361v-96h78q79 0 79 50q0 46 -72 46h-85zM157 188v-106h91q46 0 66.5 13t20.5 41q0 52 -90 52h-88z" />
    <glyph glyph-name="afii10068" unicode="&#x433;" horiz-adv-x="381" 
d="M157 0h-100v443h311v-87h-211v-356z" />
    <glyph glyph-name="afii10069" unicode="&#x434;" horiz-adv-x="506" 
d="M398 -119v119h-314v-119h-93v206h17q25 -1 47 22t34 62q21 75 28 272h327v-356h47v-206h-93zM139 87h205v271h-138q0 -4 -0.5 -10t-1 -10t-0.5 -6q-3 -106 -17 -159t-48 -86z" />
    <glyph glyph-name="afii10070" unicode="&#x435;" horiz-adv-x="496" 
d="M467 191h-336q16 -118 121 -118q67 0 109 55l91 -35q-74 -107 -199 -107q-98 0 -161 65t-63 168q0 102 63.5 170t158.5 68q94 0 155.5 -67t61.5 -168q0 -8 -1 -31zM132 265h237q-18 106 -117 106q-50 0 -81.5 -27.5t-38.5 -78.5z" />
    <glyph glyph-name="afii10072" unicode="&#x436;" horiz-adv-x="643" 
d="M370 0h-96v192h-21l-149 -192h-112l178 228l-160 215h107l134 -185h23v185h96v-185h23l134 185h108l-161 -215l178 -228h-112l-149 192h-21v-192z" />
    <glyph glyph-name="afii10073" unicode="&#x437;" horiz-adv-x="455" 
d="M200 191h-93v69h92q52 0 75 12t23 40q0 61 -101 61q-71 0 -122 -43l-53 68q46 32 88 45.5t100 13.5q94 0 143.5 -34t49.5 -99q0 -64 -45 -96q56 -26 56 -103q0 -68 -51.5 -103.5t-149.5 -35.5q-64 0 -108.5 14t-93.5 49l52 70q32 -28 61.5 -38.5t73.5 -10.5q110 0 110 62
q0 59 -107 59z" />
    <glyph glyph-name="afii10074" unicode="&#x438;" horiz-adv-x="501" 
d="M153 0h-96v443h98v-300l193 300h96v-443h-98v299z" />
    <glyph glyph-name="afii10075" unicode="&#x439;" horiz-adv-x="501" 
d="M153 0h-96v443h98v-300l193 300h96v-443h-98v299zM101 653l85 6q1 -37 16.5 -54t47.5 -17q33 0 48 16t17 56l86 -7q-5 -55 -25 -84q-40 -60 -126 -60q-68 0 -107 38t-42 106z" />
    <glyph glyph-name="afii10076" unicode="&#x43a;" horiz-adv-x="481" 
d="M157 0h-100v443h100v-190l185 190h124l-186 -179l206 -264h-117l-154 202l-58 -57v-145z" />
    <glyph glyph-name="afii10077" unicode="&#x43b;" horiz-adv-x="472" 
d="M415 0h-100v356h-130q-6 -145 -16 -205q-10 -67 -44.5 -109.5t-98.5 -42.5q-14 0 -33 1v93h5q16 -2 18 -2q41 0 57 73.5t19 278.5h323v-443z" />
    <glyph glyph-name="afii10078" unicode="&#x43c;" horiz-adv-x="598" 
d="M145 0h-88v443h100l142 -242l142 242h100v-443h-88v297l-126 -208h-59l-123 208v-297z" />
    <glyph glyph-name="afii10079" unicode="&#x43d;" horiz-adv-x="499" 
d="M157 0h-100v443h100v-168h185v168h100v-443h-100v190h-185v-190z" />
    <glyph glyph-name="afii10080" unicode="&#x43e;" horiz-adv-x="525" 
d="M263 457q99 0 166.5 -68t67.5 -167q0 -100 -67.5 -168t-165.5 -68q-101 0 -168 68t-67 170q0 98 68 165.5t166 67.5zM263 367q-58 0 -95.5 -40.5t-37.5 -103.5q0 -66 37 -106.5t96 -40.5t96 41t37 105t-37.5 104.5t-95.5 40.5z" />
    <glyph glyph-name="afii10081" unicode="&#x43f;" horiz-adv-x="500" 
d="M157 0h-100v443h387v-443h-100v356h-187v-356z" />
    <glyph glyph-name="afii10082" unicode="&#x440;" horiz-adv-x="548" 
d="M157 38v-271h-100v676h100v-38q64 52 139 52q94 0 159 -68t65 -167q0 -101 -65 -168.5t-162 -67.5q-42 0 -69 10.5t-67 41.5zM286 367q-58 0 -94.5 -40.5t-36.5 -103.5q0 -66 36 -106.5t95 -40.5t96 41t37 105t-37.5 104.5t-95.5 40.5z" />
    <glyph glyph-name="afii10083" unicode="&#x441;" horiz-adv-x="452" 
d="M434 386l-61 -69q-49 50 -108 50q-61 0 -98 -40t-37 -105q0 -66 37.5 -106t98.5 -40t110 53l61 -69q-77 -74 -171 -74q-101 0 -169 67.5t-68 168.5q0 100 68 167.5t168 67.5q91 0 169 -71z" />
    <glyph glyph-name="afii10084" unicode="&#x442;" horiz-adv-x="369" 
d="M236 0h-102v356h-126v87h353v-87h-125v-356z" />
    <glyph glyph-name="afii10085" unicode="&#x443;" horiz-adv-x="452" 
d="M55 -233l110 250l-171 426h105l120 -304l133 304h105l-299 -676h-103z" />
    <glyph glyph-name="afii10086" unicode="&#x444;" horiz-adv-x="733" 
d="M413 -226h-91v252q-30 -24 -52.5 -32.5t-55.5 -8.5q-82 0 -133.5 65.5t-51.5 170.5t51.5 170.5t133.5 65.5q33 0 55.5 -8.5t52.5 -32.5v251h91v-251q31 24 53.5 32.5t54.5 8.5q82 0 133.5 -65.5t51.5 -170.5t-51.5 -170.5t-133.5 -65.5q-32 0 -54.5 8.5t-53.5 32.5v-252z
M322 123v195q-42 49 -89 49q-46 0 -75 -40.5t-29 -105.5q0 -66 29 -106t76 -40t88 48zM413 318v-195q43 -48 88 -48q47 0 76 40t29 106t-28.5 106t-75.5 40t-89 -49z" />
    <glyph glyph-name="afii10087" unicode="&#x445;" horiz-adv-x="470" 
d="M1 0l176 229l-163 214h118l104 -138l105 138h117l-163 -213l175 -230h-118l-116 154l-117 -154h-118z" />
    <glyph glyph-name="afii10088" unicode="&#x446;" horiz-adv-x="494" 
d="M385 0h-328v443h100v-356h175v356h100v-356h47v-206h-94v119z" />
    <glyph glyph-name="afii10089" unicode="&#x447;" 
d="M419 0h-100v132q-60 -20 -106 -20q-92 0 -132.5 45.5t-40.5 148.5v137h100v-140q0 -58 18.5 -80.5t67.5 -22.5q46 0 93 21v222h100v-443z" />
    <glyph glyph-name="afii10090" unicode="&#x448;" horiz-adv-x="729" 
d="M672 0h-615v443h102v-356h156v356h99v-356h156v356h102v-443z" />
    <glyph glyph-name="afii10091" unicode="&#x449;" horiz-adv-x="734" 
d="M626 0h-569v443h102v-355h156v355h99v-355h156v355h102v-355h47v-207h-93v119z" />
    <glyph glyph-name="afii10092" unicode="&#x44a;" horiz-adv-x="483" 
d="M294 0h-189v356h-105v87h205v-149h81q86 0 132.5 -31.5t46.5 -113.5q0 -149 -171 -149zM205 212v-130h72q52 0 74 15t22 50t-22 50t-73 15h-73z" />
    <glyph glyph-name="afii10093" unicode="&#x44b;" horiz-adv-x="625" 
d="M246 0h-189v443h100v-149h81q84 0 131 -32t47 -113q0 -149 -170 -149zM157 212v-130h72q51 0 73 15t22 50t-22 50t-72 15h-73zM568 0h-100v443h100v-443z" />
    <glyph glyph-name="afii10094" unicode="&#x44c;" horiz-adv-x="435" 
d="M246 0h-189v443h100v-149h81q84 0 131 -32t47 -113q0 -149 -170 -149zM157 212v-130h72q51 0 73 15t22 50t-22 50t-72 15h-73z" />
    <glyph glyph-name="afii10095" unicode="&#x44d;" horiz-adv-x="458" 
d="M325 183h-224v84h222q-25 106 -135 106q-57 0 -110 -43l-55 73q80 54 168 54q109 0 174 -64.5t65 -172.5q0 -106 -66.5 -170t-177.5 -64q-92 0 -175 60l60 72q53 -48 115 -48q56 0 92.5 30t46.5 83z" />
    <glyph glyph-name="afii10096" unicode="&#x44e;" horiz-adv-x="740" 
d="M157 0h-100v443h100v-168h104q19 82 80.5 132t141.5 50q97 0 163 -67.5t66 -167.5t-66 -168t-163 -68q-88 0 -150 56t-74 148h-102v-190zM483 367q-56 0 -92 -40.5t-36 -103.5q0 -65 35.5 -106t92.5 -41q56 0 92 41t36 105t-36 104.5t-92 40.5z" />
    <glyph glyph-name="afii10097" unicode="&#x44f;" horiz-adv-x="455" 
d="M298 0v158h-53q-27 0 -44 2l-97 -160h-100l113 184l-10 6q-67 36 -67 112q0 74 59 114q40 27 125 27h174v-443h-100zM226 236h72v125h-73q-92 0 -92 -63q0 -62 93 -62z" />
    <glyph glyph-name="uni0450" unicode="&#x450;" horiz-adv-x="494" 
d="M466 211v-28h-335q10 -51 42.5 -79t81.5 -28q75 0 112 57q0 1 5 8q2 4 4 7l86 -36q-75 -126 -207 -126q-97 0 -162 67.5t-65 167.5q0 99 64 167.5t157 68.5q95 0 156 -69.5t61 -176.5zM131 260h236q-28 108 -117 108q-46 0 -77 -28.5t-42 -79.5zM250 499l-144 145l95 51
l115 -158z" />
    <glyph glyph-name="afii10071" unicode="&#x451;" horiz-adv-x="496" 
d="M467 194h-336l3 -8l10 -38q7 -32 38.5 -53.5t69.5 -21.5q67 0 109 54l91 -35q-74 -106 -198 -106q-96 0 -160.5 67.5t-64.5 167.5t63.5 168t158.5 68q94 0 155.5 -67t61.5 -168q0 -12 -1 -28zM132 259h237q-11 54 -38 82.5t-80 28.5q-71 0 -102 -58q-5 -9 -17 -53z
M164 648q24 0 40.5 -16.5t16.5 -39.5q0 -22 -17 -38.5t-40 -16.5q-24 0 -40.5 16.5t-16.5 39.5q0 22 17 38.5t40 16.5zM351 648q24 0 40.5 -16t16.5 -39t-17 -39.5t-40 -16.5q-24 0 -40.5 16.5t-16.5 39.5q0 22 17 38.5t40 16.5z" />
    <glyph glyph-name="afii10099" unicode="&#x452;" horiz-adv-x="507" 
d="M153 0h-100v517h-57v75h57v75h100v-75h113v-75h-113v-103q49 43 123 43q82 0 130 -58q44 -51 44 -158v-474h-100v466q0 29 -3 50t-12 41.5t-28.5 31.5t-48.5 11q-53 0 -82 -34q-23 -28 -23 -109v-224z" />
    <glyph glyph-name="afii10100" unicode="&#x453;" horiz-adv-x="381" 
d="M157 0h-100v443h311v-87h-211v-356zM263 687l94 -47l-143 -134l-66 34z" />
    <glyph glyph-name="afii10101" unicode="&#x454;" horiz-adv-x="458" 
d="M135 267h222v-84h-224q9 -52 46 -82.5t93 -30.5q60 0 115 48l60 -72q-83 -60 -175 -60q-111 0 -177.5 64t-66.5 170q0 108 65 172.5t174 64.5q88 0 168 -54l-55 -73q-51 43 -110 43q-108 0 -135 -106z" />
    <glyph glyph-name="afii10102" unicode="&#x455;" horiz-adv-x="380" 
d="M23 116l82 33q21 -41 39.5 -57t46.5 -16q27 0 44 15t17 40q0 17 -12.5 27.5t-51.5 25.5l-45 18q-97 36 -97 119q0 58 43.5 97t107.5 39q97 0 148 -97l-78 -39q-18 27 -33.5 37.5t-37.5 10.5q-25 0 -40 -12.5t-15 -32.5q0 -17 11.5 -26.5t51.5 -25.5l42 -16
q56 -22 81 -50.5t25 -70.5q0 -63 -46.5 -106t-115.5 -43q-119 0 -167 130z" />
    <glyph glyph-name="afii10103" unicode="&#x456;" horiz-adv-x="213" 
d="M57 443h100v-443h-100v443zM106 657q27 0 46 -18.5t19 -45.5q0 -26 -19 -45t-45 -19q-28 0 -46.5 18.5t-18.5 46.5q0 26 19 44.5t45 18.5z" />
    <glyph glyph-name="afii10104" unicode="&#x457;" horiz-adv-x="225" 
d="M62 443h100v-443h-100v443zM20 657q27 0 45.5 -18.5t18.5 -44.5q0 -27 -18.5 -45.5t-45.5 -18.5t-45.5 18.5t-18.5 45.5q0 26 19 44.5t45 18.5zM204 657q26 0 45 -18.5t19 -44.5q0 -27 -19 -45.5t-45 -18.5q-27 0 -45.5 18.5t-18.5 45.5q0 26 19 44.5t45 18.5z" />
    <glyph glyph-name="afii10105" unicode="&#x458;" horiz-adv-x="223" 
d="M-10 -232v93q32 -9 47 -9q29 0 29 53v538h100v-538q0 -70 -30 -108.5t-86 -38.5q-26 0 -60 10zM116 657q27 0 46 -18.5t19 -45.5t-19 -45.5t-46 -18.5t-45.5 19t-18.5 46q0 26 19 44.5t45 18.5z" />
    <glyph glyph-name="afii10106" unicode="&#x459;" horiz-adv-x="693" 
d="M504 0h-189v356h-130q-6 -143 -16 -206q-11 -77 -47 -111q-40 -40 -96 -40q-14 0 -33 1v93l5 -1q16 -2 18 -2q41 0 57 73.5t19 279.5h323v-149h81q84 0 131 -32t47 -113q0 -149 -170 -149zM415 223v-153h72q51 0 73 17.5t22 58.5t-22 59t-72 18h-73z" />
    <glyph glyph-name="afii10107" unicode="&#x45a;" horiz-adv-x="700" 
d="M512 0h-189v212h-166v-212h-100v443h100v-150h166v150h100v-149h81q84 0 131 -32t47 -113q0 -149 -170 -149zM423 212v-130h72q51 0 73 15t22 50t-22 50t-72 15h-73z" />
    <glyph glyph-name="afii10108" unicode="&#x45b;" horiz-adv-x="507" 
d="M153 0h-100v517h-57v75h57v75h100v-75h113v-75h-113v-103q49 43 123 43q82 0 130 -58q44 -51 44 -158v-241h-100v233q0 29 -3 50t-12 41.5t-28.5 31.5t-48.5 11q-53 0 -82 -34q-23 -28 -23 -109v-224z" />
    <glyph glyph-name="afii10109" unicode="&#x45c;" horiz-adv-x="481" 
d="M157 0h-100v443h100v-190l185 190h124l-186 -179l206 -264h-117l-154 202l-58 -57v-145zM308 687l94 -47l-144 -134l-65 34z" />
    <glyph glyph-name="uni045D" unicode="&#x45d;" horiz-adv-x="501" 
d="M153 0h-96v443h98v-300l193 300h96v-443h-98v299zM258 506l-144 134l94 47l115 -147z" />
    <glyph glyph-name="afii10110" unicode="&#x45e;" horiz-adv-x="452" 
d="M55 -233l110 250l-171 426h105l120 -304l133 304h105l-299 -676h-103zM77 653l86 6q1 -37 16 -54t48 -17t47.5 16.5t16.5 55.5l86 -7q-4 -55 -25 -84q-40 -60 -126 -60q-68 0 -107 38t-42 106z" />
    <glyph glyph-name="afii10193" unicode="&#x45f;" horiz-adv-x="489" 
d="M197 0h-140v443h100v-356h175v356h100v-443h-141v-119h-94v119z" />
    <glyph glyph-name="uni0462" unicode="&#x462;" horiz-adv-x="586" 
d="M323 0h-187v571h-127v96h495v-96h-268v-172h99q107 0 157 -44q59 -53 59 -151q0 -115 -76 -167q-52 -37 -152 -37zM236 312v-222h69q86 0 115 30q29 31 29 81q0 56 -35 86q-29 25 -109 25h-69z" />
    <glyph glyph-name="uni0463" unicode="&#x463;" horiz-adv-x="544" 
d="M157 0h-100v517h-61v75h61v75h100v-75h109v-75h-109v-112q59 52 135 52q92 0 158.5 -69.5t66.5 -165.5q0 -99 -67 -167.5t-164 -68.5q-41 0 -67.5 11t-61.5 41v-38zM285 367q-56 0 -92 -40t-36 -102q0 -66 35 -107t92 -41q59 0 95.5 41t36.5 106q0 62 -37 102.5t-94 40.5
z" />
    <glyph glyph-name="afii10050" unicode="&#x490;" horiz-adv-x="458" 
d="M178 0h-104v667h273v100h93v-196h-262v-571z" />
    <glyph glyph-name="afii10098" unicode="&#x491;" horiz-adv-x="381" 
d="M157 0h-100v443h220v103h91v-190h-211v-356z" />
    <glyph glyph-name="uni0492" unicode="&#x492;" horiz-adv-x="458" 
d="M177 0h-104v295h-63v92h63v280h366v-96h-262v-184h186v-92h-186v-295z" />
    <glyph glyph-name="uni0493" unicode="&#x493;" horiz-adv-x="381" 
d="M156 0h-100v163h-49v80h49v200h312v-87h-212v-113h110v-80h-110v-163z" />
    <glyph glyph-name="uni0496" unicode="&#x496;" horiz-adv-x="867" 
d="M484 0h-102v298h-31l-222 -298h-126l262 344l-242 323h118l207 -280h34v280h102v-280h34l207 280h118l-242 -323l194 -248h69v-224h-95v128h-32l-222 298h-31v-298z" />
    <glyph glyph-name="uni0497" unicode="&#x497;" horiz-adv-x="643" 
d="M370 0h-96v193h-21l-149 -193h-112l178 229l-160 214h107l134 -185h23v185h96v-185h23l134 185h107l-160 -214l117 -141h74v-207h-93v119h-32l-149 193h-21v-193z" />
    <glyph glyph-name="uni049A" unicode="&#x49a;" horiz-adv-x="592" 
d="M178 0h-104v667h104v-299l272 299h133l-256 -278l192 -293h77v-224h-95v128h-41l-203 314l-79 -87v-227z" />
    <glyph glyph-name="uni049B" unicode="&#x49b;" horiz-adv-x="481" 
d="M157 0h-100v443h100v-190l185 190h123l-185 -179l136 -176h80v-207h-94v119h-34l-154 202l-57 -57v-145z" />
    <glyph glyph-name="uni049C" unicode="&#x49c;" horiz-adv-x="611" 
d="M178 0h-104v667h104v-342l54 59v161h50v-106l207 228h114l-256 -279l256 -388h-123l-182 279l-16 -14v-142h-50v142l-54 -59v-206z" />
    <glyph glyph-name="uni049D" unicode="&#x49d;" horiz-adv-x="481" 
d="M157 0h-100v443h100v-220l36 38v133h60v-71l118 120h111l-186 -179l206 -264h-117l-131 191l-1 -2v-120h-60v95l-36 -36v-128z" />
    <glyph glyph-name="uni04A2" unicode="&#x4a2;" horiz-adv-x="662" 
d="M178 0h-104v667h104v-281h297v281h104v-571h58v-224h-95v128h-67v290h-297v-290z" />
    <glyph glyph-name="uni04A3" unicode="&#x4a3;" horiz-adv-x="504" 
d="M157 0h-100v443h100v-168h185v168h100v-355h47v-207h-93v119h-54v190h-185v-190z" />
    <glyph glyph-name="uni04AE" unicode="&#x4ae;" horiz-adv-x="531" 
d="M318 0h-104v277l-220 390h117l155 -283l156 283h115l-219 -390v-277z" />
    <glyph glyph-name="uni04AF" unicode="&#x4af;" horiz-adv-x="460" 
d="M178 -233v233l-183 443h105l131 -328l130 328h105l-182 -443v-233h-106z" />
    <glyph glyph-name="uni04B0" unicode="&#x4b0;" horiz-adv-x="531" 
d="M318 0h-104v185h-118v92h118l-220 390h116l156 -283l155 283h116l-219 -390h117v-92h-117v-185z" />
    <glyph glyph-name="uni04B1" unicode="&#x4b1;" horiz-adv-x="460" 
d="M58 0h120l-183 443h105l131 -328l131 328h104l-182 -443h119v-80h-119v-153h-106v153h-120v80z" />
    <glyph glyph-name="uni04B2" unicode="&#x4b2;" horiz-adv-x="559" 
d="M0 0l220 348l-201 319h118l142 -228l143 228h117l-201 -318l158 -253h87v-224h-95v128h-50l-160 257l-160 -257h-118z" />
    <glyph glyph-name="uni04B3" unicode="&#x4b3;" horiz-adv-x="470" 
d="M0 0l176 230l-163 213h121l103 -137l103 137h119l-162 -213l107 -142h85v-207h-93v119h-45l-115 154l-115 -154h-121z" />
    <glyph glyph-name="uni04B6" unicode="&#x4b6;" horiz-adv-x="609" 
d="M490 0h-67v225q-87 -18 -143 -18q-139 0 -197 84q-36 54 -36 170v206h104v-192q0 -93 30 -132t121 -39q60 0 121 18v345h104v-571h58v-224h-95v128z" />
    <glyph glyph-name="uni04B7" unicode="&#x4b7;" horiz-adv-x="481" 
d="M373 0h-54v132q-62 -19 -106 -19q-92 0 -132.5 45.5t-40.5 148.5v136h100v-139q0 -58 18.5 -80.5t67.5 -22.5t93 20v222h100v-355h47v-207h-93v119z" />
    <glyph glyph-name="uni04B8" unicode="&#x4b8;" horiz-adv-x="600" 
d="M528 0h-104v226q-50 -12 -107 -17v-128h-50v126q-119 7 -169.5 65.5t-49.5 187.5v207h104v-193q-1 -87 21 -118.5t94 -48.5v191h50v-194q55 3 107 18v345h104v-667z" />
    <glyph glyph-name="uni04B9" unicode="&#x4b9;" horiz-adv-x="487" 
d="M430 0h-100v132q-33 -13 -57 -16v-82h-62v78q-91 1 -131 46.5t-40 147.5v137h100v-140q-1 -51 15 -73.5t56 -27.5v132h62v-130q27 4 57 17v222h100v-443z" />
    <glyph glyph-name="uni04BA" unicode="&#x4ba;" horiz-adv-x="560" 
d="M179 0h-105v667h105v-276q50 58 138 58q85 0 139 -57q47 -51 47 -158v-234h-100v226q0 65 -22.5 99t-84.5 34q-66 0 -91.5 -34.5t-25.5 -102.5v-222z" />
    <glyph glyph-name="uni04BB" unicode="&#x4bb;" horiz-adv-x="511" 
d="M157 0h-100v667h100v-252q54 42 124 42q79 0 129 -58q44 -51 44 -158v-241h-100v233q0 29 -3 50t-12 41.5t-28.5 31.5t-48.5 11q-34 0 -55.5 -11t-32 -32.5t-14 -44t-3.5 -55.5v-224z" />
    <glyph glyph-name="uni04C0" unicode="&#x4c0;" horiz-adv-x="252" 
d="M74 667h104v-667h-104v667z" />
    <glyph glyph-name="uni04CF" unicode="&#x4cf;" horiz-adv-x="252" 
d="M74 667h104v-667h-104v667z" />
    <glyph glyph-name="uni04D8" unicode="&#x4d8;" horiz-adv-x="758" 
d="M36 376h576q-18 95 -82.5 151.5t-155.5 56.5q-68 0 -124.5 -36.5t-88.5 -101.5l-91 48q45 90 124 138.5t180 48.5q147 0 247.5 -100.5t100.5 -247.5q0 -144 -100 -245.5t-242 -101.5q-92 0 -173 45.5t-124 121.5t-47 223zM613 295h-465q12 -97 75 -154.5t156 -57.5
q61 0 114 29t86 81q19 31 34 102z" />
    <glyph glyph-name="afii10846" unicode="&#x4d9;" horiz-adv-x="496" 
d="M29 264h334q-9 52 -39.5 79t-79.5 27q-68 0 -108 -54l-92 35q76 106 199 106q99 0 161.5 -65t62.5 -168q0 -102 -63.5 -170t-158.5 -68q-93 0 -155 66.5t-62 166.5v20q1 5 1 25zM365 190h-237q2 -55 32.5 -86t83.5 -31q108 0 121 117z" />
    <glyph glyph-name="uni04E8" unicode="&#x4e8;" horiz-adv-x="765" 
d="M383 681q145 0 246 -101.5t101 -246.5q0 -144 -101 -245.5t-245 -101.5q-147 0 -247.5 101.5t-100.5 249.5q0 142 102 243t245 101zM620 296h-475q21 -87 55 -129q73 -85 183 -85q61 0 114.5 29t86.5 80q22 32 36 105zM146 376h474q-19 96 -83 152t-155 56
q-89 0 -153.5 -56.5t-82.5 -151.5z" />
    <glyph glyph-name="uni04E9" unicode="&#x4e9;" horiz-adv-x="525" 
d="M263 457q99 0 166.5 -67.5t67.5 -167.5t-67.5 -168t-165.5 -68q-101 0 -168 68t-67 171q0 97 68 164.5t166 67.5zM134 269h258q-31 104 -129 104q-49 0 -82.5 -27t-46.5 -77zM396 196h-266q9 -49 25 -72q38 -54 108 -54q55 0 89.5 33t43.5 93z" />
    <glyph glyph-name="uni1E1E" unicode="&#x1e1e;" horiz-adv-x="443" 
d="M413 667v-96h-236v-185h215v-96h-215v-290h-104v667h340zM243 854q26 0 45 -18.5t19 -44.5q0 -27 -19 -45.5t-46 -18.5q-26 0 -44.5 19t-18.5 46q0 25 19 43.5t45 18.5z" />
    <glyph glyph-name="uni1E1F" unicode="&#x1e1f;" horiz-adv-x="259" 
d="M245 443v-90h-77v-353h-100v353h-43v90h43v84q0 71 30.5 109.5t87.5 38.5q27 0 58 -8v-90q-24 7 -39 7q-37 0 -37 -57v-84h77zM160 851q26 0 45 -18.5t19 -44.5q0 -27 -19 -45.5t-45 -18.5q-27 0 -45.5 18.5t-18.5 45.5q0 26 19 44.5t45 18.5z" />
    <glyph glyph-name="Wgrave" unicode="&#x1e80;" horiz-adv-x="878" 
d="M0 667h108l141 -493l146 493h88l146 -493l141 493h108l-200 -667h-98l-141 474l-141 -474h-98zM443 699l-144 145l95 51l115 -158z" />
    <glyph glyph-name="wgrave" unicode="&#x1e81;" horiz-adv-x="664" 
d="M-6 443h107l96 -282l95 282h80l96 -282l96 282h106l-163 -443h-80l-95 279l-95 -279h-80zM330 499l-144 145l95 51l115 -158z" />
    <glyph glyph-name="Wacute" unicode="&#x1e82;" horiz-adv-x="878" 
d="M0 667h108l141 -493l146 493h88l146 -493l141 493h108l-200 -667h-98l-141 474l-141 -474h-98zM490 895l95 -51l-144 -145l-66 38z" />
    <glyph glyph-name="wacute" unicode="&#x1e83;" horiz-adv-x="666" 
d="M-6 443h107l96 -282l95 282h80l96 -282l96 282h106l-163 -443h-80l-95 279l-95 -279h-80zM353 695l96 -51l-145 -145l-66 38z" />
    <glyph glyph-name="Wdieresis" unicode="&#x1e84;" horiz-adv-x="878" 
d="M0 667h108l141 -493l146 493h88l146 -493l141 493h108l-200 -667h-98l-141 474l-141 -474h-98zM347 854q26 0 45 -18.5t19 -44.5q0 -27 -19 -45.5t-46 -18.5q-26 0 -44.5 19t-18.5 46q0 25 19 43.5t45 18.5zM530 854q27 0 45.5 -18.5t18.5 -44.5q0 -27 -19 -45.5
t-45 -18.5q-27 0 -45.5 19t-18.5 46q0 25 19 43.5t45 18.5z" />
    <glyph glyph-name="wdieresis" unicode="&#x1e85;" horiz-adv-x="664" 
d="M-6 443h107l96 -282l95 282h80l96 -282l96 282h106l-163 -443h-80l-95 279l-95 -279h-80zM240 657q26 0 45 -18.5t19 -44.5q0 -27 -19 -45.5t-45 -18.5q-27 0 -45.5 18.5t-18.5 45.5q0 26 19 44.5t45 18.5zM424 657q27 0 45.5 -18.5t18.5 -44.5q0 -27 -19 -45.5
t-45 -18.5q-27 0 -45.5 19t-18.5 46q0 25 19 43.5t45 18.5z" />
    <glyph glyph-name="uni1EA0" unicode="&#x1ea0;" horiz-adv-x="631" 
d="M458 172h-286l-63 -172h-109l251 667h128l252 -667h-110zM315 559l-108 -291h215zM315 -47q26 0 45 -18.5t19 -45.5q0 -26 -19 -44.5t-45 -18.5q-27 0 -45.5 18.5t-18.5 45.5q0 26 19 44.5t45 18.5z" />
    <glyph glyph-name="uni1EA1" unicode="&#x1ea1;" horiz-adv-x="545" 
d="M489 443v-443h-100v38q-68 -52 -136 -52q-92 0 -158.5 69.5t-66.5 166.5q0 96 66 165.5t158 69.5q68 0 137 -52v38h100zM263 367q-60 0 -97 -40t-37 -104q0 -65 36.5 -106t95.5 -41q57 0 93.5 41t36.5 105q0 63 -36 104t-92 41zM270 -47q26 0 45 -18.5t19 -44.5
q0 -27 -19 -45.5t-46 -18.5q-26 0 -44.5 19t-18.5 46q0 25 19 43.5t45 18.5z" />
    <glyph glyph-name="uni1EA2" unicode="&#x1ea2;" horiz-adv-x="631" 
d="M458 172h-286l-63 -172h-109l251 667h128l252 -667h-110zM315 559l-108 -291h215zM250 804l-29 74q49 19 87 19q43 0 70.5 -23t27.5 -58q0 -28 -18 -55l-15 -24q-6 -10 -6 -20q0 -6 1 -9h-90q1 38 16 60l10 13q11 17 11 21q0 13 -17 13q-14 0 -48 -11z" />
    <glyph glyph-name="uni1EA3" unicode="&#x1ea3;" horiz-adv-x="545" 
d="M489 443v-443h-100v38q-68 -52 -136 -52q-92 0 -158.5 69.5t-66.5 166.5q0 96 66 165.5t158 69.5q68 0 137 -52v38h100zM263 367q-60 0 -97 -40t-37 -104q0 -65 36.5 -106t95.5 -41q57 0 93.5 41t36.5 105q0 63 -36 104t-92 41zM199 598l-30 74q50 19 87 19
q43 0 70.5 -23t27.5 -58q0 -28 -18 -55l-15 -24q-5 -7 -5 -29h-90q1 37 16 60l10 13q11 17 11 21q0 13 -17 13q-14 0 -47 -11z" />
    <glyph glyph-name="uni1EA4" unicode="&#x1ea4;" horiz-adv-x="631" 
d="M458 172h-286l-63 -172h-109l251 667h128l252 -667h-110zM315 559l-108 -291h215zM565 899l-122 -122l37 -40l-75 -37l-90 88l-89 -88l-75 37l130 143h68l39 -42l82 112z" />
    <glyph glyph-name="uni1EA5" unicode="&#x1ea5;" horiz-adv-x="545" 
d="M489 443v-443h-100v38q-68 -52 -136 -52q-92 0 -158.5 69.5t-66.5 166.5q0 96 66 165.5t158 69.5q68 0 137 -52v38h100zM263 367q-60 0 -97 -40t-37 -104q0 -65 36.5 -106t95.5 -41q57 0 93.5 41t36.5 105q0 63 -36 104t-92 41zM348 483l-89 88l-90 -88l-75 37l131 143
h68l130 -143zM445 797l95 -51l-144 -145l-66 38z" />
    <glyph glyph-name="uni1EA6" unicode="&#x1ea6;" horiz-adv-x="631" 
d="M458 172h-286l-63 -172h-109l251 667h128l252 -667h-110zM315 559l-108 -291h215zM405 700l-90 88l-89 -88l-75 37l130 143h68l131 -143zM506 754l-145 145l95 51l116 -158z" />
    <glyph glyph-name="uni1EA7" unicode="&#x1ea7;" horiz-adv-x="545" 
d="M489 443v-443h-100v38q-68 -52 -136 -52q-92 0 -158.5 69.5t-66.5 166.5q0 96 66 165.5t158 69.5q68 0 137 -52v38h100zM263 367q-60 0 -97 -40t-37 -104q0 -65 36.5 -106t95.5 -41q57 0 93.5 41t36.5 105q0 63 -36 104t-92 41zM348 483l-89 88l-90 -88l-75 37l131 143
h68l130 -143zM389 601l-145 145l96 51l115 -158z" />
    <glyph glyph-name="uni1EA8" unicode="&#x1ea8;" horiz-adv-x="631" 
d="M458 172h-286l-63 -172h-109l251 667h128l252 -667h-110zM315 559l-108 -291h215zM349 880l83 -91l3 9q1 7 10 19l9 14q12 16 12 21q0 13 -17 13q-16 0 -48 -12l-29 75q49 19 86 19q43 0 71 -23t28 -58q0 -28 -18 -56l-16 -24q-5 -9 -5 -20v-9h-57l19 -20l-75 -38l-90 88
l-89 -88l-75 38l130 143h68z" />
    <glyph glyph-name="uni1EA9" unicode="&#x1ea9;" horiz-adv-x="545" 
d="M489 443v-443h-100v38q-68 -52 -136 -52q-92 0 -158.5 69.5t-66.5 166.5q0 96 66 165.5t158 69.5q68 0 137 -52v38h100zM263 367q-60 0 -97 -40t-37 -104q0 -65 36.5 -106t95.5 -41q57 0 93.5 41t36.5 105q0 63 -36 104t-92 41zM225 663h68l48 -54q3 34 17 55l10 14
q11 15 11 21q0 13 -17 13q-14 0 -48 -11l-29 74q49 19 87 19q43 0 70.5 -23t27.5 -58q0 -28 -18 -55l-15 -25q-6 -10 -6 -20q0 -6 1 -9h-86l77 -84l-75 -38l-89 88l-90 -88l-75 38z" />
    <glyph glyph-name="uni1EAA" unicode="&#x1eaa;" horiz-adv-x="631" 
d="M458 172h-286l-63 -172h-109l251 667h128l252 -667h-110zM315 559l-108 -291h215zM383 999l82 -19q-7 -108 -91 -108q-40 0 -74 21q-24 13 -37 13q-10 0 -17 -38l-81 19q11 108 94 108q32 0 75 -23q20 -11 35 -11q10 0 14 38zM405 680l-90 88l-89 -88l-75 38l130 142h68
l131 -142z" />
    <glyph glyph-name="uni1EAB" unicode="&#x1eab;" horiz-adv-x="545" 
d="M489 443v-443h-100v38q-68 -52 -136 -52q-92 0 -158.5 69.5t-66.5 166.5q0 96 66 165.5t158 69.5q68 0 137 -52v38h100zM263 367q-60 0 -97 -40t-37 -104q0 -65 36.5 -106t95.5 -41q57 0 93.5 41t36.5 105q0 63 -36 104t-92 41zM326 814l82 -20q-9 -108 -91 -108
q-39 0 -74 21q-24 13 -37 13q-10 0 -17 -38l-81 19q11 108 94 108q33 0 74 -23q22 -11 36 -11q10 0 14 39zM348 483l-90 88l-89 -88l-75 37l130 143h68l131 -143z" />
    <glyph glyph-name="uni1EAC" unicode="&#x1eac;" horiz-adv-x="631" 
d="M458 172h-286l-63 -172h-109l251 667h128l252 -667h-110zM315 559l-108 -291h215zM405 700l-90 88l-89 -88l-75 37l130 143h68l131 -143zM315 -47q26 0 45 -18.5t19 -45.5q0 -26 -19 -44.5t-45 -18.5q-27 0 -45.5 18.5t-18.5 45.5q0 26 19 44.5t45 18.5z" />
    <glyph glyph-name="uni1EAD" unicode="&#x1ead;" horiz-adv-x="545" 
d="M489 443v-443h-100v38q-68 -52 -136 -52q-92 0 -158.5 69.5t-66.5 166.5q0 96 66 165.5t158 69.5q68 0 137 -52v38h100zM263 367q-60 0 -97 -40t-37 -104q0 -65 36.5 -106t95.5 -41q57 0 93.5 41t36.5 105q0 63 -36 104t-92 41zM348 500l-90 88l-89 -88l-75 37l130 143
h69l130 -143zM262 -47q26 0 45 -18.5t19 -44.5t-19 -45t-45 -19q-27 0 -45.5 18.5t-18.5 45.5q0 26 19 44.5t45 18.5z" />
    <glyph glyph-name="uni1EAE" unicode="&#x1eae;" horiz-adv-x="631" 
d="M458 172h-286l-63 -172h-109l251 667h128l252 -667h-110zM315 559l-108 -291h215zM171 841l78 7l114 157l95 -51l-144 -145l-57 32v-2l1 -4q3 -65 56 -65q37 0 52 35q4 8 9 43l86 -7q-5 -49 -18 -75q-41 -81 -129 -81q-46 0 -83 25.5t-52 68.5q-8 21 -8 62z" />
    <glyph glyph-name="uni1EAF" unicode="&#x1eaf;" horiz-adv-x="545" 
d="M489 443v-443h-100v38q-68 -52 -136 -52q-92 0 -158.5 69.5t-66.5 166.5q0 96 66 165.5t158 69.5q68 0 137 -52v38h100zM263 367q-60 0 -97 -40t-37 -104q0 -65 36.5 -106t95.5 -41q57 0 93.5 41t36.5 105q0 63 -36 104t-92 41zM115 642l86 7q1 -23 4.5 -37.5t16.5 -27.5
t36 -13q36 0 53 35q5 14 9 43l86 -7q-6 -49 -18 -75q-42 -81 -129 -81q-47 0 -84 25.5t-52 68.5q-7 18 -8 62zM313 820l95 -52l-144 -145l-66 38z" />
    <glyph glyph-name="uni1EB0" unicode="&#x1eb0;" horiz-adv-x="631" 
d="M458 172h-286l-63 -172h-109l251 667h128l252 -667h-110zM315 559l-108 -291h215zM374 845l-62 -36l-144 145l95 51l114 -157l84 -7q-5 -49 -18 -75q-41 -81 -129 -81q-46 0 -83 25.5t-52 68.5q-8 21 -8 62l86 7q2 -36 7 -45q15 -33 50 -33q26 0 40 17t20 58z" />
    <glyph glyph-name="uni1EB1" unicode="&#x1eb1;" horiz-adv-x="545" 
d="M489 443v-443h-100v38q-68 -52 -136 -52q-92 0 -158.5 69.5t-66.5 166.5q0 96 66 165.5t158 69.5q68 0 137 -52v38h100zM263 367q-60 0 -97 -40t-37 -104q0 -65 36.5 -106t95.5 -41q57 0 93.5 41t36.5 105q0 63 -36 104t-92 41zM253 623l-144 145l95 52l115 -159z
M115 642l86 7q1 -23 4.5 -37.5t16.5 -27.5t36 -13q36 0 53 35q5 14 9 43l86 -7q-6 -49 -18 -75q-42 -81 -129 -81q-47 0 -84 25.5t-52 68.5q-7 18 -8 62z" />
    <glyph glyph-name="uni1EB2" unicode="&#x1eb2;" horiz-adv-x="631" 
d="M458 172h-286l-63 -172h-109l251 667h128l252 -667h-110zM315 559l-108 -291h215zM238 921l-29 74q49 19 87 19q43 0 70.5 -23t27.5 -58q0 -27 -18 -55l-15 -24q-6 -8 -6 -20v-9h-90q1 36 17 60l9 13q12 16 12 21q0 13 -17 13q-14 0 -48 -11zM171 845l86 7l1 -16
q3 -63 56 -63q37 0 52 35q4 9 9 44l86 -7q-5 -50 -18 -76q-41 -81 -129 -81q-46 0 -83 25.5t-53 68.5q-7 22 -7 63z" />
    <glyph glyph-name="uni1EB3" unicode="&#x1eb3;" horiz-adv-x="545" 
d="M489 443v-443h-100v38q-68 -52 -136 -52q-92 0 -158.5 69.5t-66.5 166.5q0 96 66 165.5t158 69.5q68 0 137 -52v38h100zM263 367q-60 0 -97 -40t-37 -104q0 -65 36.5 -106t95.5 -41q57 0 93.5 41t36.5 105q0 63 -36 104t-92 41zM183 745l-30 75q51 18 87 18
q43 0 70.5 -23t27.5 -58q0 -28 -18 -55l-15 -24q-5 -7 -5 -29h-90q1 38 16 60l10 14q11 14 11 21q0 12 -17 12q-16 0 -47 -11zM115 642l86 7q1 -23 4.5 -37.5t16.5 -27.5t36 -13q36 0 53 35q5 14 9 43l86 -7q-6 -49 -18 -75q-42 -81 -129 -81q-47 0 -84 25.5t-52 68.5
q-7 18 -8 62z" />
    <glyph glyph-name="uni1EB4" unicode="&#x1eb4;" horiz-adv-x="631" 
d="M458 172h-286l-63 -172h-109l251 667h128l252 -667h-110zM315 559l-108 -291h215zM383 999l82 -19q-7 -108 -91 -108q-40 0 -74 21q-24 13 -37 13q-10 0 -17 -38l-81 19q11 108 94 108q32 0 75 -23q20 -11 35 -11q10 0 14 38zM170 845l86 7q1 -6 1 -14q3 -65 56 -65
q37 0 52 35q4 9 9 44l87 -7q-6 -50 -18 -76q-42 -81 -129 -81q-47 0 -84 25.5t-52 68.5q-7 18 -8 63z" />
    <glyph glyph-name="uni1EB5" unicode="&#x1eb5;" horiz-adv-x="545" 
d="M489 443v-443h-100v38q-68 -52 -136 -52q-92 0 -158.5 69.5t-66.5 166.5q0 96 66 165.5t158 69.5q68 0 137 -52v38h100zM263 367q-60 0 -97 -40t-37 -104q0 -65 36.5 -106t95.5 -41q57 0 93.5 41t36.5 105q0 63 -36 104t-92 41zM326 814l83 -20q-9 -108 -92 -108
q-38 0 -74 21q-24 13 -36 13q-7 0 -10 -7t-7 -31l-82 19q12 108 94 108q32 0 75 -23q20 -11 35 -11q10 0 14 39zM114 648l86 7l1 -14q3 -65 56 -65q37 0 52 35q4 9 9 44l86 -7q-6 -53 -18 -76q-40 -81 -129 -81q-46 0 -83 25.5t-52 68.5q-8 21 -8 63z" />
    <glyph glyph-name="uni1EB6" unicode="&#x1eb6;" horiz-adv-x="631" 
d="M458 172h-286l-63 -172h-109l251 667h128l252 -667h-110zM315 559l-108 -291h215zM170 859l86 7q2 -37 7 -46q15 -33 50 -33q37 0 52 35q4 8 9 43l87 -7q-6 -49 -18 -75q-42 -81 -129 -81q-47 0 -84 25.5t-52 68.5q-7 18 -8 63zM315 -47q26 0 45 -18.5t19 -45.5
q0 -26 -19 -44.5t-45 -18.5q-27 0 -45.5 18.5t-18.5 45.5q0 26 19 44.5t45 18.5z" />
    <glyph glyph-name="uni1EB7" unicode="&#x1eb7;" horiz-adv-x="545" 
d="M489 443v-443h-100v38q-68 -52 -136 -52q-92 0 -158.5 69.5t-66.5 166.5q0 96 66 165.5t158 69.5q68 0 137 -52v38h100zM263 367q-60 0 -97 -40t-37 -104q0 -65 36.5 -106t95.5 -41q57 0 93.5 41t36.5 105q0 63 -36 104t-92 41zM113 659l86 7l1 -14q3 -65 56 -65
q36 0 53 35q3 8 9 44l86 -7q-6 -50 -18 -76q-42 -81 -129 -81q-47 0 -84 25.5t-52 68.5q-7 19 -8 63zM262 -47q26 0 45 -18.5t19 -44.5t-19 -45t-45 -19q-27 0 -45.5 18.5t-18.5 45.5q0 26 19 44.5t45 18.5z" />
    <glyph glyph-name="uni1EB8" unicode="&#x1eb8;" horiz-adv-x="481" 
d="M435 667v-96h-258v-185h230v-96h-230v-194h268v-96h-372v667h362zM272 -47q26 0 45 -18.5t19 -44.5q0 -27 -19 -45.5t-46 -18.5q-26 0 -44.5 19t-18.5 46q0 25 19 43.5t45 18.5z" />
    <glyph glyph-name="uni1EB9" unicode="&#x1eb9;" horiz-adv-x="494" 
d="M466 211v-28h-335q10 -51 42.5 -79t81.5 -28q75 0 112 57q0 1 5 8q2 4 4 7l86 -36q-75 -126 -207 -126q-97 0 -162 67.5t-65 167.5q0 99 64 167.5t157 68.5q95 0 156 -69.5t61 -176.5zM131 260h236q-28 108 -117 108q-46 0 -77 -28.5t-42 -79.5zM254 -47q26 0 45 -18.5
t19 -45.5q0 -26 -19 -44.5t-46 -18.5q-26 0 -44.5 19t-18.5 46q0 25 19 43.5t45 18.5z" />
    <glyph glyph-name="uni1EBA" unicode="&#x1eba;" horiz-adv-x="481" 
d="M435 667v-96h-258v-185h230v-96h-230v-194h268v-96h-372v667h362zM196 804l-29 74q49 19 86 19q43 0 70.5 -23t27.5 -58q0 -26 -17 -55l-16 -24q-5 -9 -5 -20v-9h-90q1 37 17 60l9 13q11 16 11 22q0 12 -17 12q-14 0 -47 -11z" />
    <glyph glyph-name="uni1EBB" unicode="&#x1ebb;" horiz-adv-x="494" 
d="M466 211v-28h-335q10 -51 42.5 -79t81.5 -28q75 0 112 57q0 1 5 8q2 4 4 7l86 -36q-75 -126 -207 -126q-97 0 -162 67.5t-65 167.5q0 99 64 167.5t157 68.5q95 0 156 -69.5t61 -176.5zM131 260h236q-28 108 -117 108q-46 0 -77 -28.5t-42 -79.5zM187 598l-29 74
q49 19 87 19q43 0 70.5 -23t27.5 -58q0 -26 -18 -55l-15 -24q-6 -8 -6 -21v-8h-89q1 37 16 60l9 13q12 16 12 21q0 13 -17 13q-14 0 -48 -11z" />
    <glyph glyph-name="uni1EBC" unicode="&#x1ebc;" horiz-adv-x="481" 
d="M435 667v-96h-258v-185h230v-96h-230v-194h268v-96h-372v667h362zM307 857l82 -20q-7 -108 -91 -108q-40 0 -74 21q-24 13 -37 13q-10 0 -17 -38l-81 19q12 108 94 108q32 0 75 -23q20 -11 35 -11q10 0 14 39z" />
    <glyph glyph-name="uni1EBD" unicode="&#x1ebd;" horiz-adv-x="494" 
d="M466 211v-28h-335q10 -51 42.5 -79t81.5 -28q75 0 112 57q0 1 5 8q2 4 4 7l86 -36q-75 -126 -207 -126q-97 0 -162 67.5t-65 167.5q0 99 64 167.5t157 68.5q95 0 156 -69.5t61 -176.5zM131 260h236q-28 108 -117 108q-46 0 -77 -28.5t-42 -79.5zM314 657l83 -19
q-7 -108 -92 -108q-38 0 -73 20q-24 13 -37 13q-7 0 -9.5 -6.5t-7.5 -31.5l-81 19q11 108 93 108q34 0 75 -22q22 -11 35 -11q12 0 14 38z" />
    <glyph glyph-name="uni1EBE" unicode="&#x1ebe;" horiz-adv-x="481" 
d="M435 667v-96h-258v-185h230v-96h-230v-194h268v-96h-372v667h362zM497 899l-121 -122l36 -40l-75 -37l-89 88l-90 -88l-75 37l131 143h68l38 -42l82 112z" />
    <glyph glyph-name="uni1EBF" unicode="&#x1ebf;" horiz-adv-x="494" 
d="M466 211v-28h-335q10 -51 42.5 -79t81.5 -28q75 0 112 57q0 1 5 8q2 4 4 7l86 -36q-75 -126 -207 -126q-97 0 -162 67.5t-65 167.5q0 99 64 167.5t157 68.5q95 0 156 -69.5t61 -176.5zM131 260h236q-28 108 -117 108q-46 0 -77 -28.5t-42 -79.5zM339 483l-90 88l-90 -88
l-75 37l131 143h68l130 -143zM435 797l95 -51l-144 -145l-66 38z" />
    <glyph glyph-name="uni1EC0" unicode="&#x1ec0;" horiz-adv-x="481" 
d="M435 667v-96h-258v-185h230v-96h-230v-194h268v-96h-372v667h362zM337 700l-89 88l-90 -88l-75 37l131 143h68l130 -143zM438 754l-144 145l95 51l115 -158z" />
    <glyph glyph-name="uni1EC1" unicode="&#x1ec1;" horiz-adv-x="494" 
d="M466 211v-28h-335q10 -51 42.5 -79t81.5 -28q75 0 112 57q0 1 5 8q2 4 4 7l86 -36q-75 -126 -207 -126q-97 0 -162 67.5t-65 167.5q0 99 64 167.5t157 68.5q95 0 156 -69.5t61 -176.5zM131 260h236q-28 108 -117 108q-46 0 -77 -28.5t-42 -79.5zM339 483l-90 88l-90 -88
l-75 37l131 143h68l130 -143zM379 601l-144 145l95 51l115 -158z" />
    <glyph glyph-name="uni1EC2" unicode="&#x1ec2;" horiz-adv-x="481" 
d="M435 667v-96h-258v-185h230v-96h-230v-194h268v-96h-372v667h362zM214 880h68l82 -90q3 11 13 27l10 14q11 17 11 21q0 13 -17 13q-15 0 -47 -12l-30 75q49 19 87 19q43 0 70.5 -23t27.5 -58q0 -29 -18 -56l-15 -24q-5 -7 -5 -29h-57l18 -20l-75 -38l-89 88l-90 -88
l-75 38z" />
    <glyph glyph-name="uni1EC3" unicode="&#x1ec3;" horiz-adv-x="494" 
d="M466 211v-28h-335q10 -51 42.5 -79t81.5 -28q75 0 112 57q0 1 5 8q2 4 4 7l86 -36q-75 -126 -207 -126q-97 0 -162 67.5t-65 167.5q0 99 64 167.5t157 68.5q95 0 156 -69.5t61 -176.5zM131 260h236q-28 108 -117 108q-46 0 -77 -28.5t-42 -79.5zM215 663h68l49 -54
q1 34 16 55l10 14q11 17 11 21q0 13 -17 13q-14 0 -47 -11l-30 74q49 19 87 19q43 0 70.5 -23t27.5 -58q0 -29 -18 -55l-15 -25q-5 -7 -5 -29h-86l77 -84l-74 -38l-90 88l-90 -88l-75 38z" />
    <glyph glyph-name="uni1EC4" unicode="&#x1ec4;" horiz-adv-x="481" 
d="M435 667v-96h-258v-185h230v-96h-230v-194h268v-96h-372v667h362zM337 680l-89 88l-90 -88l-75 38l131 142h68l130 -142zM315 999l83 -19q-9 -108 -92 -108q-38 0 -74 21q-23 13 -36 13q-7 0 -9.5 -6.5t-7.5 -31.5l-81 19q11 108 93 108q32 0 75 -23q22 -11 35 -11
q7 0 9.5 7t4.5 31z" />
    <glyph glyph-name="uni1EC5" unicode="&#x1ec5;" horiz-adv-x="494" 
d="M466 211v-28h-335q10 -51 42.5 -79t81.5 -28q75 0 112 57q0 1 5 8q2 4 4 7l86 -36q-75 -126 -207 -126q-97 0 -162 67.5t-65 167.5q0 99 64 167.5t157 68.5q95 0 156 -69.5t61 -176.5zM131 260h236q-28 108 -117 108q-46 0 -77 -28.5t-42 -79.5zM339 483l-90 88l-90 -88
l-75 37l131 143h68l130 -143zM316 814l83 -20q-9 -108 -92 -108q-38 0 -74 21q-23 13 -36 13q-7 0 -10 -7t-7 -31l-81 19q11 108 93 108q32 0 75 -23q20 -11 35 -11q7 0 9.5 7.5t4.5 31.5z" />
    <glyph glyph-name="uni1EC6" unicode="&#x1ec6;" horiz-adv-x="481" 
d="M435 667v-96h-258v-185h230v-96h-230v-194h268v-96h-372v667h362zM349 700l-90 88l-89 -88l-75 37l130 143h69l130 -143zM272 -47q26 0 45 -18.5t19 -44.5q0 -27 -19 -45.5t-46 -18.5q-26 0 -44.5 19t-18.5 46q0 25 19 43.5t45 18.5z" />
    <glyph glyph-name="uni1EC7" unicode="&#x1ec7;" horiz-adv-x="494" 
d="M466 211v-28h-335q10 -51 42.5 -79t81.5 -28q75 0 112 57q0 1 5 8q2 4 4 7l86 -36q-75 -126 -207 -126q-97 0 -162 67.5t-65 167.5q0 99 64 167.5t157 68.5q95 0 156 -69.5t61 -176.5zM131 260h236q-28 108 -117 108q-46 0 -77 -28.5t-42 -79.5zM342 500l-90 88l-90 -88
l-74 37l130 143h68l130 -143zM254 -47q26 0 45 -18.5t19 -44.5q0 -27 -19 -45.5t-46 -18.5q-26 0 -44.5 19t-18.5 46q0 25 19 43.5t45 18.5z" />
    <glyph glyph-name="uni1EC8" unicode="&#x1ec8;" horiz-adv-x="250" 
d="M73 667h104v-667h-104v667zM61 804l-29 74q49 19 87 19q43 0 70.5 -23t27.5 -58q0 -28 -18 -55l-15 -24q-6 -10 -6 -21q0 -5 1 -8h-90q1 37 16 60l10 13q11 17 11 21q0 13 -17 13q-14 0 -48 -11z" />
    <glyph glyph-name="uni1EC9" unicode="&#x1ec9;" horiz-adv-x="213" 
d="M57 443h100v-443h-100v443zM42 598l-29 74q49 19 87 19q43 0 70.5 -23t27.5 -58q0 -28 -18 -55l-15 -24q-6 -10 -6 -20q0 -6 1 -9h-90q1 38 16 60l10 13q11 17 11 21q0 13 -17 13q-14 0 -48 -11z" />
    <glyph glyph-name="uni1ECA" unicode="&#x1eca;" horiz-adv-x="250" 
d="M73 667h104v-667h-104v667zM125 -47q26 0 45 -18.5t19 -45.5q0 -26 -19 -44.5t-45 -18.5q-27 0 -45.5 18.5t-18.5 45.5q0 26 19 44.5t45 18.5z" />
    <glyph glyph-name="uni1ECB" unicode="&#x1ecb;" horiz-adv-x="213" 
d="M57 443h100v-443h-100v443zM106 657q27 0 46 -18.5t19 -45.5t-19 -45.5t-46 -18.5t-45.5 19t-18.5 46q0 26 19 44.5t45 18.5zM106 -47q27 0 45.5 -18.5t18.5 -45.5q0 -26 -19 -44.5t-45 -18.5q-27 0 -45.5 18.5t-18.5 45.5q0 26 19 44.5t45 18.5z" />
    <glyph glyph-name="uni1ECC" unicode="&#x1ecc;" horiz-adv-x="762" 
d="M381 681q142 0 244 -102.5t102 -245.5q0 -142 -102 -244.5t-243 -102.5q-145 0 -246 102.5t-101 249.5q0 139 103 241t243 102zM381 583q-99 0 -170 -72.5t-71 -173.5q0 -106 70 -179.5t171 -73.5q99 0 170 73t71 176q0 104 -70.5 177t-170.5 73zM381 -47q26 0 45 -18.5
t19 -45.5q0 -26 -19 -44.5t-45 -18.5q-27 0 -45.5 18.5t-18.5 45.5q0 26 19 44.5t45 18.5z" />
    <glyph glyph-name="uni1ECD" unicode="&#x1ecd;" horiz-adv-x="522" 
d="M264 457q96 0 163 -68.5t67 -166.5q0 -100 -67.5 -168t-165.5 -68t-165.5 68t-67.5 168t68 167.5t168 67.5zM263 367q-60 0 -97 -40t-37 -104q0 -65 36.5 -106t95.5 -41q58 0 95 40.5t37 105.5q0 63 -36.5 104t-93.5 41zM261 -47q26 0 45 -18.5t19 -44.5q0 -27 -19 -45.5
t-46 -18.5q-26 0 -44.5 19t-18.5 46q0 25 19 43.5t45 18.5z" />
    <glyph glyph-name="uni1ECE" unicode="&#x1ece;" horiz-adv-x="762" 
d="M381 681q142 0 244 -102.5t102 -245.5q0 -142 -102 -244.5t-243 -102.5q-145 0 -246 102.5t-101 249.5q0 139 103 241t243 102zM381 583q-99 0 -170 -72.5t-71 -173.5q0 -106 70 -179.5t171 -73.5q99 0 170 73t71 176q0 104 -70.5 177t-170.5 73zM318 804l-29 74
q49 19 86 19q43 0 70.5 -23t27.5 -58q0 -29 -17 -55l-16 -24q-5 -9 -5 -20v-9h-90q1 39 17 60l9 13q11 16 11 21q0 13 -17 13q-14 0 -47 -11z" />
    <glyph glyph-name="uni1ECF" unicode="&#x1ecf;" horiz-adv-x="522" 
d="M264 457q96 0 163 -68.5t67 -166.5q0 -100 -67.5 -168t-165.5 -68t-165.5 68t-67.5 168t68 167.5t168 67.5zM263 367q-60 0 -97 -40t-37 -104q0 -65 36.5 -106t95.5 -41q58 0 95 40.5t37 105.5q0 63 -36.5 104t-93.5 41zM198 598l-29 74q49 19 87 19q43 0 70.5 -23
t27.5 -58q0 -26 -18 -55l-15 -24q-6 -8 -6 -21v-8h-89q1 37 16 60l9 13q12 16 12 21q0 13 -17 13q-14 0 -48 -11z" />
    <glyph glyph-name="uni1ED0" unicode="&#x1ed0;" horiz-adv-x="762" 
d="M381 681q142 0 244 -102.5t102 -245.5q0 -142 -102 -244.5t-243 -102.5q-145 0 -246 102.5t-101 249.5q0 139 103 241t243 102zM381 583q-99 0 -170 -72.5t-71 -173.5q0 -106 70 -179.5t171 -73.5q99 0 170 73t71 176q0 104 -70.5 177t-170.5 73zM631 899l-122 -122
l36 -40l-74 -37l-90 84l-90 -84l-74 37l130 143h68l39 -42l81 112z" />
    <glyph glyph-name="uni1ED1" unicode="&#x1ed1;" horiz-adv-x="522" 
d="M264 457q96 0 163 -68.5t67 -166.5q0 -100 -67.5 -168t-165.5 -68t-165.5 68t-67.5 168t68 167.5t168 67.5zM263 367q-60 0 -97 -40t-37 -104q0 -65 36.5 -106t95.5 -41q58 0 95 40.5t37 105.5q0 63 -36.5 104t-93.5 41zM351 483l-90 88l-89 -88l-75 37l130 143h68
l131 -143zM448 797l95 -51l-145 -145l-66 38z" />
    <glyph glyph-name="uni1ED2" unicode="&#x1ed2;" horiz-adv-x="762" 
d="M381 681q142 0 244 -102.5t102 -245.5q0 -142 -102 -244.5t-243 -102.5q-145 0 -246 102.5t-101 249.5q0 139 103 241t243 102zM381 583q-99 0 -170 -72.5t-71 -173.5q0 -106 70 -179.5t171 -73.5q99 0 170 73t71 176q0 104 -70.5 177t-170.5 73zM471 700l-90 88l-90 -88
l-74 37l130 143h68l130 -143zM571 754l-144 145l95 51l115 -158z" />
    <glyph glyph-name="uni1ED3" unicode="&#x1ed3;" horiz-adv-x="522" 
d="M264 457q96 0 163 -68.5t67 -166.5q0 -100 -67.5 -168t-165.5 -68t-165.5 68t-67.5 168t68 167.5t168 67.5zM263 367q-60 0 -97 -40t-37 -104q0 -65 36.5 -106t95.5 -41q58 0 95 40.5t37 105.5q0 63 -36.5 104t-93.5 41zM351 483l-90 88l-89 -88l-75 37l130 143h68
l131 -143zM391 601l-144 145l95 51l115 -158z" />
    <glyph glyph-name="uni1ED4" unicode="&#x1ed4;" horiz-adv-x="762" 
d="M381 681q142 0 244 -102.5t102 -245.5q0 -142 -102 -244.5t-243 -102.5q-145 0 -246 102.5t-101 249.5q0 139 103 241t243 102zM381 583q-99 0 -170 -72.5t-71 -173.5q0 -106 70 -179.5t171 -73.5q99 0 170 73t71 176q0 104 -70.5 177t-170.5 73zM347 880h68l82 -90
q3 11 13 27l10 14q11 16 11 21q0 13 -17 13q-15 0 -47 -12l-30 75q50 19 87 19q43 0 70.5 -23t27.5 -58q0 -29 -18 -56l-15 -24q-5 -7 -5 -29h-57l18 -20l-74 -38l-90 88l-90 -88l-74 38z" />
    <glyph glyph-name="uni1ED5" unicode="&#x1ed5;" horiz-adv-x="522" 
d="M264 457q96 0 163 -68.5t67 -166.5q0 -100 -67.5 -168t-165.5 -68t-165.5 68t-67.5 168t68 167.5t168 67.5zM263 367q-60 0 -97 -40t-37 -104q0 -65 36.5 -106t95.5 -41q58 0 95 40.5t37 105.5q0 63 -36.5 104t-93.5 41zM227 663h68l49 -54q1 34 17 55l9 14q11 16 11 21
q0 13 -17 13q-14 0 -47 -11l-29 74q49 19 86 19q43 0 70.5 -23t27.5 -58q0 -29 -17 -55l-16 -25q-5 -9 -5 -20v-9h-85l77 -84l-75 -38l-90 88l-89 -88l-75 38z" />
    <glyph glyph-name="uni1ED6" unicode="&#x1ed6;" horiz-adv-x="762" 
d="M381 681q142 0 244 -102.5t102 -245.5q0 -142 -102 -244.5t-243 -102.5q-145 0 -246 102.5t-101 249.5q0 139 103 241t243 102zM381 583q-99 0 -170 -72.5t-71 -173.5q0 -106 70 -179.5t171 -73.5q99 0 170 73t71 176q0 104 -70.5 177t-170.5 73zM471 680l-90 88l-90 -88
l-74 38l130 142h68l130 -142zM448 999l83 -19q-7 -108 -92 -108q-39 0 -73 21q-24 13 -37 13q-7 0 -9.5 -6.5t-7.5 -31.5l-81 19q11 108 93 108q34 0 75 -23q22 -11 35 -11q7 0 9.5 7t4.5 31z" />
    <glyph glyph-name="uni1ED7" unicode="&#x1ed7;" horiz-adv-x="522" 
d="M264 457q96 0 163 -68.5t67 -166.5q0 -100 -67.5 -168t-165.5 -68t-165.5 68t-67.5 168t68 167.5t168 67.5zM263 367q-60 0 -97 -40t-37 -104q0 -65 36.5 -106t95.5 -41q58 0 95 40.5t37 105.5q0 63 -36.5 104t-93.5 41zM328 814l83 -20q-7 -108 -92 -108q-39 0 -73 21
q-24 13 -37 13q-7 0 -9.5 -6.5t-7.5 -31.5l-81 19q11 108 93 108q32 0 75 -23q22 -11 35 -11q12 0 14 39zM351 483l-90 88l-89 -88l-75 37l130 143h68l131 -143z" />
    <glyph glyph-name="uni1ED8" unicode="&#x1ed8;" horiz-adv-x="762" 
d="M381 681q142 0 244 -102.5t102 -245.5q0 -142 -102 -244.5t-243 -102.5q-145 0 -246 102.5t-101 249.5q0 139 103 241t243 102zM381 583q-99 0 -170 -72.5t-71 -173.5q0 -106 70 -179.5t171 -73.5q99 0 170 73t71 176q0 104 -70.5 177t-170.5 73zM471 700l-90 88l-90 -88
l-74 37l130 143h68l130 -143zM381 -47q26 0 45 -18.5t19 -45.5q0 -26 -19 -44.5t-45 -18.5q-27 0 -45.5 18.5t-18.5 45.5q0 26 19 44.5t45 18.5z" />
    <glyph glyph-name="uni1ED9" unicode="&#x1ed9;" horiz-adv-x="522" 
d="M264 457q96 0 163 -68.5t67 -166.5q0 -100 -67.5 -168t-165.5 -68t-165.5 68t-67.5 168t68 167.5t168 67.5zM263 367q-60 0 -97 -40t-37 -104q0 -65 36.5 -106t95.5 -41q58 0 95 40.5t37 105.5q0 63 -36.5 104t-93.5 41zM351 500l-90 88l-89 -88l-75 37l130 143h68
l131 -143zM261 -47q26 0 45 -18.5t19 -44.5q0 -27 -19 -45.5t-46 -18.5q-26 0 -44.5 19t-18.5 46q0 25 19 43.5t45 18.5z" />
    <glyph glyph-name="uni1EDA" unicode="&#x1eda;" horiz-adv-x="769" 
d="M612 721l74 38q68 -48 68 -118q0 -75 -78 -128q51 -88 51 -180q0 -142 -102 -244.5t-244 -102.5t-244 102.5t-102 244.5q0 143 102 245.5t244 102.5q67 0 130 -26t109 -73q45 22 45 59q0 22 -11 38.5t-42 41.5zM381 583q-99 0 -170 -72.5t-71 -173.5q0 -106 70 -179.5
t171 -73.5q99 0 170 73t71 176q0 104 -70.5 177t-170.5 73zM432 895l95 -51l-144 -145l-66 38z" />
    <glyph glyph-name="uni1EDB" unicode="&#x1edb;" horiz-adv-x="564" 
d="M412 497l75 38q67 -48 67 -118q0 -73 -70 -123q10 -39 10 -73q0 -99 -67.5 -167t-165.5 -68t-165.5 68t-67.5 168q0 99 67.5 167t166.5 68q113 0 180 -86q23 17 23 46q0 22 -11 38.5t-42 41.5zM263 367q-60 0 -97 -40t-37 -104q0 -65 36.5 -106t95.5 -41q58 0 95 40.5
t37 105.5q0 63 -36.5 104t-93.5 41zM298 695l95 -51l-144 -145l-66 38z" />
    <glyph glyph-name="uni1EDC" unicode="&#x1edc;" horiz-adv-x="769" 
d="M612 721l74 38q68 -48 68 -118q0 -75 -78 -128q51 -88 51 -180q0 -142 -102 -244.5t-244 -102.5t-244 102.5t-102 244.5q0 143 102 245.5t244 102.5q67 0 130 -26t109 -73q45 22 45 59q0 22 -11 38.5t-42 41.5zM381 583q-99 0 -170 -72.5t-71 -173.5q0 -106 70 -179.5
t171 -73.5q99 0 170 73t71 176q0 104 -70.5 177t-170.5 73zM379 699l-145 145l96 51l115 -158z" />
    <glyph glyph-name="uni1EDD" unicode="&#x1edd;" horiz-adv-x="564" 
d="M412 497l75 38q67 -48 67 -118q0 -73 -70 -123q10 -39 10 -73q0 -99 -67.5 -167t-165.5 -68t-165.5 68t-67.5 168q0 99 67.5 167t166.5 68q113 0 180 -86q23 17 23 46q0 22 -11 38.5t-42 41.5zM263 367q-60 0 -97 -40t-37 -104q0 -65 36.5 -106t95.5 -41q58 0 95 40.5
t37 105.5q0 63 -36.5 104t-93.5 41zM259 499l-144 145l95 51l115 -158z" />
    <glyph glyph-name="uni1EDE" unicode="&#x1ede;" horiz-adv-x="769" 
d="M612 721l74 38q68 -48 68 -118q0 -75 -78 -128q51 -88 51 -180q0 -142 -102 -244.5t-244 -102.5t-244 102.5t-102 244.5q0 143 102 245.5t244 102.5q67 0 130 -26t109 -73q45 22 45 59q0 22 -11 38.5t-42 41.5zM381 583q-99 0 -170 -72.5t-71 -173.5q0 -106 70 -179.5
t171 -73.5q99 0 170 73t71 176q0 104 -70.5 177t-170.5 73zM325 804l-29 74q49 19 86 19q43 0 70.5 -23t27.5 -58q0 -29 -17 -55l-16 -24q-5 -9 -5 -20v-9h-90q1 37 17 60l9 13q11 16 11 21q0 13 -17 13q-13 0 -47 -11z" />
    <glyph glyph-name="uni1EDF" unicode="&#x1edf;" horiz-adv-x="564" 
d="M412 497l75 38q67 -48 67 -118q0 -73 -70 -123q10 -39 10 -73q0 -99 -67.5 -167t-165.5 -68t-165.5 68t-67.5 168q0 99 67.5 167t166.5 68q113 0 180 -86q23 17 23 46q0 22 -11 38.5t-42 41.5zM263 367q-60 0 -97 -40t-37 -104q0 -65 36.5 -106t95.5 -41q58 0 95 40.5
t37 105.5q0 63 -36.5 104t-93.5 41zM204 598l-30 74q50 19 87 19q43 0 70.5 -23t27.5 -58q0 -27 -17 -55l-16 -24q-5 -8 -5 -29h-90q1 38 16 60l10 13q11 17 11 21q0 13 -17 13q-14 0 -47 -11z" />
    <glyph glyph-name="uni1EE0" unicode="&#x1ee0;" horiz-adv-x="769" 
d="M612 721l74 38q68 -48 68 -118q0 -75 -78 -128q51 -88 51 -180q0 -142 -102 -244.5t-244 -102.5t-244 102.5t-102 244.5q0 143 102 245.5t244 102.5q67 0 130 -26t109 -73q45 22 45 59q0 22 -11 38.5t-42 41.5zM381 583q-99 0 -170 -72.5t-71 -173.5q0 -106 70 -179.5
t171 -73.5q99 0 170 73t71 176q0 104 -70.5 177t-170.5 73zM448 857l82 -20q-8 -108 -91 -108q-38 0 -74 21q-24 13 -37 13q-10 0 -17 -38l-81 19q12 108 94 108q32 0 75 -23q20 -11 35 -11q10 0 14 39z" />
    <glyph glyph-name="uni1EE1" unicode="&#x1ee1;" horiz-adv-x="564" 
d="M412 497l75 38q67 -48 67 -118q0 -73 -70 -123q10 -39 10 -73q0 -99 -67.5 -167t-165.5 -68t-165.5 68t-67.5 168q0 99 67.5 167t166.5 68q113 0 180 -86q23 17 23 46q0 22 -11 38.5t-42 41.5zM263 367q-60 0 -97 -40t-37 -104q0 -65 36.5 -106t95.5 -41q58 0 95 40.5
t37 105.5q0 63 -36.5 104t-93.5 41zM328 657l83 -19q-7 -108 -92 -108q-38 0 -73 20q-24 13 -37 13q-7 0 -9.5 -6.5t-7.5 -31.5l-81 19q11 108 93 108q34 0 75 -22q22 -11 35 -11q12 0 14 38z" />
    <glyph glyph-name="uni1EE2" unicode="&#x1ee2;" horiz-adv-x="769" 
d="M612 721l74 38q68 -48 68 -118q0 -75 -78 -128q51 -88 51 -180q0 -142 -102 -244.5t-244 -102.5t-244 102.5t-102 244.5q0 143 102 245.5t244 102.5q67 0 130 -26t109 -73q45 22 45 59q0 22 -11 38.5t-42 41.5zM381 583q-99 0 -170 -72.5t-71 -173.5q0 -106 70 -179.5
t171 -73.5q99 0 170 73t71 176q0 104 -70.5 177t-170.5 73zM381 -47q26 0 45 -18.5t19 -44.5t-19 -45t-45 -19q-27 0 -45.5 18.5t-18.5 45.5q0 26 19 44.5t45 18.5z" />
    <glyph glyph-name="uni1EE3" unicode="&#x1ee3;" horiz-adv-x="564" 
d="M412 497l75 38q67 -48 67 -118q0 -73 -70 -123q10 -39 10 -73q0 -99 -67.5 -167t-165.5 -68t-165.5 68t-67.5 168q0 99 67.5 167t166.5 68q113 0 180 -86q23 17 23 46q0 22 -11 38.5t-42 41.5zM263 367q-60 0 -97 -40t-37 -104q0 -65 36.5 -106t95.5 -41q58 0 95 40.5
t37 105.5q0 63 -36.5 104t-93.5 41zM261 -47q26 0 45 -18.5t19 -44.5q0 -27 -19 -45.5t-46 -18.5q-26 0 -44.5 19t-18.5 46q0 25 19 43.5t45 18.5z" />
    <glyph glyph-name="uni1EE4" unicode="&#x1ee4;" horiz-adv-x="638" 
d="M73 237v430h104v-411q0 -79 17 -109q17 -28 51.5 -45.5t72.5 -17.5q39 0 73.5 17.5t51.5 45.5q17 30 17 109v411h104v-430q0 -83 -29 -134q-32 -53 -90.5 -85t-125.5 -32q-68 0 -126.5 32t-90.5 85q-29 51 -29 134zM319 -47q26 0 45 -18.5t19 -45.5q0 -26 -19 -44.5
t-46 -18.5q-26 0 -44.5 19t-18.5 46q0 25 19 43.5t45 18.5z" />
    <glyph glyph-name="uni1EE5" unicode="&#x1ee5;" horiz-adv-x="509" 
d="M453 443v-443h-100v32q-47 -46 -112 -46q-50 0 -93 23.5t-65 63.5q-27 45 -27 131v239h100v-231q0 -30 3 -50.5t12 -41.5t29 -31.5t50 -10.5q28 0 52 12t34 31q17 29 17 101v221h100zM250 -47q26 0 45 -18.5t19 -45.5q0 -26 -19 -44.5t-46 -18.5q-26 0 -44.5 19t-18.5 46
q0 25 19 43.5t45 18.5z" />
    <glyph glyph-name="uni1EE6" unicode="&#x1ee6;" horiz-adv-x="638" 
d="M73 237v430h104v-411q0 -79 17 -109q17 -28 51.5 -45.5t72.5 -17.5q39 0 73.5 17.5t51.5 45.5q17 30 17 109v411h104v-430q0 -83 -29 -134q-32 -53 -90.5 -85t-125.5 -32q-68 0 -126.5 32t-90.5 85q-29 51 -29 134zM254 804l-30 74q50 19 87 19q43 0 70.5 -23t27.5 -58
q0 -28 -18 -55l-15 -24q-5 -8 -5 -29h-90q1 38 16 60l10 13q11 17 11 21q0 13 -17 13q-14 0 -47 -11z" />
    <glyph glyph-name="uni1EE7" unicode="&#x1ee7;" horiz-adv-x="509" 
d="M453 443v-443h-100v32q-47 -46 -112 -46q-50 0 -93 23.5t-65 63.5q-27 45 -27 131v239h100v-231q0 -30 3 -50.5t12 -41.5t29 -31.5t50 -10.5q28 0 52 12t34 31q17 29 17 101v221h100zM189 598l-29 74q49 19 87 19q43 0 70.5 -23t27.5 -58q0 -28 -18 -55l-15 -24
q-6 -10 -6 -20q0 -6 1 -9h-90q1 38 16 60l10 13q11 17 11 21q0 13 -17 13q-14 0 -48 -11z" />
    <glyph glyph-name="uni1EE8" unicode="&#x1ee8;" horiz-adv-x="683" 
d="M460 667h104v-79q33 21 33 53q0 22 -11 38.5t-42 41.5l75 38q67 -48 67 -119q0 -99 -122 -149v-254q0 -83 -29 -134q-32 -53 -90.5 -85t-125.5 -32q-68 0 -126.5 32t-90.5 85q-29 51 -29 134v430h104v-411q0 -79 17 -109q17 -28 51.5 -45.5t72.5 -17.5t73.5 17.5
t51.5 45.5q17 30 17 109v411zM370 895l95 -51l-144 -145l-66 38z" />
    <glyph glyph-name="uni1EE9" unicode="&#x1ee9;" horiz-adv-x="586" 
d="M353 443h100v-80q34 21 34 54q0 22 -11 38.5t-42 41.5l75 38q67 -48 67 -119q0 -50 -30 -86t-93 -63v-267h-100v32q-47 -46 -112 -46q-50 0 -93 23.5t-65 63.5q-27 45 -27 131v239h100v-231q0 -30 3 -50.5t12 -41.5t29 -31.5t50 -10.5q28 0 52 12t34 31q17 29 17 101v221
zM301 695l95 -51l-144 -145l-66 38z" />
    <glyph glyph-name="uni1EEA" unicode="&#x1eea;" horiz-adv-x="683" 
d="M460 667h104v-79q33 21 33 53q0 22 -11 38.5t-42 41.5l75 38q67 -48 67 -119q0 -99 -122 -149v-254q0 -83 -29 -134q-32 -53 -90.5 -85t-125.5 -32q-68 0 -126.5 32t-90.5 85q-29 51 -29 134v430h104v-411q0 -79 17 -109q17 -28 51.5 -45.5t72.5 -17.5t73.5 17.5
t51.5 45.5q17 30 17 109v411zM316 699l-144 145l95 51l115 -158z" />
    <glyph glyph-name="uni1EEB" unicode="&#x1eeb;" horiz-adv-x="586" 
d="M353 443h100v-80q34 21 34 54q0 22 -11 38.5t-42 41.5l75 38q67 -48 67 -119q0 -50 -30 -86t-93 -63v-267h-100v32q-47 -46 -112 -46q-50 0 -93 23.5t-65 63.5q-27 45 -27 131v239h100v-231q0 -30 3 -50.5t12 -41.5t29 -31.5t50 -10.5q28 0 52 12t34 31q17 29 17 101v221
zM247 499l-144 145l95 51l115 -158z" />
    <glyph glyph-name="uni1EEC" unicode="&#x1eec;" horiz-adv-x="683" 
d="M460 667h104v-79q33 21 33 53q0 22 -11 38.5t-42 41.5l75 38q67 -48 67 -119q0 -99 -122 -149v-254q0 -83 -29 -134q-32 -53 -90.5 -85t-125.5 -32q-68 0 -126.5 32t-90.5 85q-29 51 -29 134v430h104v-411q0 -79 17 -109q17 -28 51.5 -45.5t72.5 -17.5t73.5 17.5
t51.5 45.5q17 30 17 109v411zM261 804l-29 74q49 19 86 19q43 0 71 -23t28 -58q0 -26 -18 -55l-16 -24q-5 -9 -5 -21v-8h-89q1 37 16 60l9 13q12 16 12 21q0 13 -17 13q-14 0 -48 -11z" />
    <glyph glyph-name="uni1EED" unicode="&#x1eed;" horiz-adv-x="586" 
d="M353 443h100v-80q34 21 34 54q0 22 -11 38.5t-42 41.5l75 38q67 -48 67 -119q0 -50 -30 -86t-93 -63v-267h-100v32q-47 -46 -112 -46q-50 0 -93 23.5t-65 63.5q-27 45 -27 131v239h100v-231q0 -30 3 -50.5t12 -41.5t29 -31.5t50 -10.5q28 0 52 12t34 31q17 29 17 101v221
zM192 598l-29 74q49 19 86 19q43 0 70.5 -23t27.5 -58q0 -29 -17 -55l-16 -24q-5 -9 -5 -20v-9h-90q1 39 17 60l9 13q11 16 11 21q0 13 -17 13q-14 0 -47 -11z" />
    <glyph glyph-name="uni1EEE" unicode="&#x1eee;" horiz-adv-x="683" 
d="M460 667h104v-79q33 21 33 53q0 22 -11 38.5t-42 41.5l75 38q67 -48 67 -119q0 -99 -122 -149v-254q0 -83 -29 -134q-32 -53 -90.5 -85t-125.5 -32q-68 0 -126.5 32t-90.5 85q-29 51 -29 134v430h104v-411q0 -79 17 -109q17 -28 51.5 -45.5t72.5 -17.5t73.5 17.5
t51.5 45.5q17 30 17 109v411zM387 857l82 -20q-7 -108 -91 -108q-40 0 -74 21q-24 13 -36 13q-7 0 -10.5 -7t-7.5 -31l-81 19q12 108 94 108q32 0 75 -23q20 -11 35 -11q10 0 14 39z" />
    <glyph glyph-name="uni1EEF" unicode="&#x1eef;" horiz-adv-x="586" 
d="M353 443h100v-80q34 21 34 54q0 22 -11 38.5t-42 41.5l75 38q67 -48 67 -119q0 -50 -30 -86t-93 -63v-267h-100v32q-47 -46 -112 -46q-50 0 -93 23.5t-65 63.5q-27 45 -27 131v239h100v-231q0 -30 3 -50.5t12 -41.5t29 -31.5t50 -10.5q28 0 52 12t34 31q17 29 17 101v221
zM322 657l83 -19q-9 -108 -92 -108q-37 0 -74 20q-24 13 -36 13q-7 0 -10 -7t-7 -31l-81 19q11 108 93 108q34 0 75 -22q20 -11 35 -11q10 0 14 38z" />
    <glyph glyph-name="uni1EF0" unicode="&#x1ef0;" horiz-adv-x="683" 
d="M460 667h104v-79q33 21 33 53q0 22 -11 38.5t-42 41.5l75 38q67 -48 67 -119q0 -99 -122 -149v-254q0 -83 -29 -134q-32 -53 -90.5 -85t-125.5 -32q-68 0 -126.5 32t-90.5 85q-29 51 -29 134v430h104v-411q0 -79 17 -109q17 -28 51.5 -45.5t72.5 -17.5t73.5 17.5
t51.5 45.5q17 30 17 109v411zM319 -47q26 0 45 -18.5t19 -44.5t-19 -45t-45 -19q-27 0 -45.5 18.5t-18.5 45.5q0 26 19 44.5t45 18.5z" />
    <glyph glyph-name="uni1EF1" unicode="&#x1ef1;" horiz-adv-x="586" 
d="M353 443h100v-80q34 21 34 54q0 22 -11 38.5t-42 41.5l75 38q67 -48 67 -119q0 -50 -30 -86t-93 -63v-267h-100v32q-47 -46 -112 -46q-50 0 -93 23.5t-65 63.5q-27 45 -27 131v239h100v-231q0 -30 3 -50.5t12 -41.5t29 -31.5t50 -10.5q28 0 52 12t34 31q17 29 17 101v221
zM254 -47q26 0 45 -18.5t19 -44.5t-19 -45t-45 -19q-27 0 -45.5 18.5t-18.5 45.5q0 26 19 44.5t45 18.5z" />
    <glyph glyph-name="Ygrave" unicode="&#x1ef2;" horiz-adv-x="529" 
d="M421 667h114l-219 -390v-277h-104v277l-219 390h115l156 -286zM269 699l-145 145l96 51l115 -158z" />
    <glyph glyph-name="ygrave" unicode="&#x1ef3;" horiz-adv-x="463" 
d="M169 -233h-105l112 254l-182 422h108l127 -301l132 301h108zM236 499l-144 145l95 51l115 -158z" />
    <glyph glyph-name="uni1EF4" unicode="&#x1ef4;" horiz-adv-x="529" 
d="M421 667h114l-219 -390v-277h-104v277l-219 390h115l156 -286zM264 -47q26 0 45 -18.5t19 -44.5t-19 -45t-45 -19q-27 0 -45.5 18.5t-18.5 45.5q0 26 19 44.5t45 18.5z" />
    <glyph glyph-name="uni1EF5" unicode="&#x1ef5;" horiz-adv-x="463" 
d="M169 -233h-105l112 254l-182 422h108l127 -301l132 301h108zM342 -47q26 0 45 -18.5t19 -44.5t-19 -45t-45 -19q-27 0 -45.5 18.5t-18.5 45.5q0 26 19 44.5t45 18.5z" />
    <glyph glyph-name="uni1EF6" unicode="&#x1ef6;" horiz-adv-x="529" 
d="M421 667h114l-219 -390v-277h-104v277l-219 390h115l156 -286zM201 804l-29 74q49 19 86 19q43 0 70.5 -23t27.5 -58q0 -29 -17 -55l-16 -24q-5 -9 -5 -20v-9h-89q0 37 16 60l9 13q11 16 11 21q0 13 -17 13q-13 0 -47 -11z" />
    <glyph glyph-name="uni1EF7" unicode="&#x1ef7;" horiz-adv-x="463" 
d="M169 -233h-105l112 254l-182 422h108l127 -301l132 301h108zM168 598l-29 74q49 19 87 19q43 0 70.5 -23t27.5 -58q0 -28 -18 -55l-15 -24q-6 -10 -6 -20q0 -6 1 -9h-90q1 38 16 60l10 13q11 17 11 22q0 12 -17 12q-14 0 -48 -11z" />
    <glyph glyph-name="uni1EF8" unicode="&#x1ef8;" horiz-adv-x="529" 
d="M421 667h114l-219 -390v-277h-104v277l-219 390h115l156 -286zM331 857l83 -20q-8 -108 -92 -108q-38 0 -73 21q-24 13 -37 13q-7 0 -9.5 -6.5t-7.5 -31.5l-81 19q11 108 93 108q32 0 75 -23q22 -11 35 -11q12 0 14 39z" />
    <glyph glyph-name="uni1EF9" unicode="&#x1ef9;" horiz-adv-x="463" 
d="M169 -233h-105l112 254l-182 422h108l127 -301l132 301h108zM299 657l82 -19q-7 -108 -91 -108q-39 0 -74 20q-24 13 -37 13q-10 0 -17 -38l-81 19q11 108 94 108q34 0 75 -22q20 -11 35 -11q10 0 14 38z" />
    <glyph glyph-name="uni2002" unicode="&#x2002;" horiz-adv-x="500" 
 />
    <glyph glyph-name="uni2003" unicode="&#x2003;" horiz-adv-x="1000" 
 />
    <glyph glyph-name="uni2004" unicode="&#x2004;" horiz-adv-x="333" 
 />
    <glyph glyph-name="uni2005" unicode="&#x2005;" horiz-adv-x="250" 
 />
    <glyph glyph-name="uni2006" unicode="&#x2006;" horiz-adv-x="67" 
 />
    <glyph glyph-name="uni2007" unicode="&#x2007;" horiz-adv-x="556" 
 />
    <glyph glyph-name="uni2009" unicode="&#x2009;" horiz-adv-x="125" 
 />
    <glyph glyph-name="uni200A" unicode="&#x200a;" horiz-adv-x="33" 
 />
    <glyph glyph-name="uni2011" unicode="&#x2011;" horiz-adv-x="270" 
d="M26 267v91h218v-91h-218z" />
    <glyph glyph-name="figuredash" unicode="&#x2012;" horiz-adv-x="412" 
d="M26 267v91h360v-91h-360z" />
    <glyph glyph-name="endash" unicode="&#x2013;" horiz-adv-x="412" 
d="M26 267v91h360v-91h-360z" />
    <glyph glyph-name="emdash" unicode="&#x2014;" horiz-adv-x="500" 
d="M-20 267v91h540v-91h-540z" />
    <glyph glyph-name="afii00208" unicode="&#x2015;" horiz-adv-x="500" 
d="M-20 267v91h540v-91h-540z" />
    <glyph glyph-name="underscoredbl" unicode="&#x2017;" horiz-adv-x="513" 
d="M-7 -136v78h527v-78h-527zM-7 -261v78h527v-78h-527z" />
    <glyph glyph-name="quoteleft" unicode="&#x2018;" horiz-adv-x="283" 
d="M233 688l-92 -255l-91 34l111 250z" />
    <glyph glyph-name="quoteright" unicode="&#x2019;" horiz-adv-x="250" 
d="M27 462l92 255l91 -33l-111 -251z" />
    <glyph glyph-name="quotesinglbase" unicode="&#x201a;" horiz-adv-x="250" 
d="M27 -140l92 255l91 -34l-111 -250z" />
    <glyph glyph-name="quotereversed" unicode="&#x201b;" horiz-adv-x="250" 
d="M40 684l91 33l92 -255l-72 -29z" />
    <glyph glyph-name="quotedblleft" unicode="&#x201c;" horiz-adv-x="430" 
d="M233 688l-92 -255l-91 34l111 250zM380 688l-92 -255l-92 34l112 250z" />
    <glyph glyph-name="quotedblright" unicode="&#x201d;" horiz-adv-x="430" 
d="M50 462l92 255l91 -33l-111 -251zM197 462l91 255l92 -33l-112 -251z" />
    <glyph glyph-name="quotedblbase" unicode="&#x201e;" horiz-adv-x="430" 
d="M50 -140l92 255l91 -34l-111 -250zM197 -140l91 255l92 -34l-112 -250z" />
    <glyph glyph-name="dagger" unicode="&#x2020;" horiz-adv-x="552" 
d="M82 349v94h144v222h100v-222h145v-94h-145v-533h-100v533h-144z" />
    <glyph glyph-name="daggerdbl" unicode="&#x2021;" horiz-adv-x="552" 
d="M471 131v-94h-145v-221h-100v221h-144v94h144v218h-144v94h144v222h100v-222h145v-94h-145v-218h145z" />
    <glyph glyph-name="bullet" unicode="&#x2022;" horiz-adv-x="495" 
d="M248 481q74 0 124 -48.5t50 -120.5q0 -73 -49.5 -121.5t-123.5 -48.5q-76 0 -125.5 48.5t-49.5 122.5q0 71 50 119.5t124 48.5z" />
    <glyph glyph-name="ellipsis" unicode="&#x2026;" horiz-adv-x="762" 
d="M132 114q27 0 45.5 -18.5t18.5 -44.5t-19 -44.5t-45 -18.5q-27 0 -45.5 18.5t-18.5 45.5q0 25 19 43.5t45 18.5zM381 114q27 0 45.5 -18.5t18.5 -44.5t-19 -44.5t-45 -18.5q-27 0 -45.5 18.5t-18.5 45.5q0 25 19 43.5t45 18.5zM629 114q27 0 45.5 -18.5t18.5 -44.5
t-19 -44.5t-45 -18.5q-27 0 -45.5 18.5t-18.5 45.5q0 25 19 43.5t45 18.5z" />
    <glyph glyph-name="perthousand" unicode="&#x2030;" horiz-adv-x="1265" 
d="M229 18l383 663l56 -33l-383 -662zM694 403q160 0 160 -206q0 -205 -160 -205q-157 0 -157 208q0 99 40 151t117 52zM696 335q-84 0 -84 -131q0 -144 83 -144q84 0 84 137q0 138 -83 138zM1061 403q161 0 161 -206q0 -205 -160 -205q-158 0 -158 208q0 99 40 151t117 52z
M1063 335q-84 0 -84 -131q0 -144 84 -144t84 137q0 138 -84 138zM200 675q161 0 161 -206q0 -205 -160 -205q-158 0 -158 208q0 99 40 151t117 52zM202 607q-84 0 -84 -131q0 -144 84 -144t84 138q0 137 -84 137z" />
    <glyph glyph-name="minute" unicode="&#x2032;" horiz-adv-x="192" 
d="M-40 462l91 254l91 -33l-111 -249z" />
    <glyph glyph-name="second" unicode="&#x2033;" horiz-adv-x="338" 
d="M-40 462l91 254l91 -33l-111 -249zM106 462l92 254l90 -33l-111 -249z" />
    <glyph glyph-name="guilsinglleft" unicode="&#x2039;" horiz-adv-x="305" 
d="M141 222l120 -149l-67 -53l-164 201l164 206l67 -53z" />
    <glyph glyph-name="guilsinglright" unicode="&#x203a;" horiz-adv-x="305" 
d="M111 20l-67 53l121 149l-121 152l67 53l164 -206z" />
    <glyph glyph-name="uni203E" unicode="&#x203e;" horiz-adv-x="513" 
d="M-7 753v91h527v-91h-527z" />
    <glyph glyph-name="fraction" unicode="&#x2044;" horiz-adv-x="179" 
d="M-130 18l383 663l56 -33l-382 -662z" />
    <glyph glyph-name="zerosuperior" unicode="&#x2070;" horiz-adv-x="387" 
d="M192 809q161 0 161 -206q0 -205 -159 -205t-159 208q0 99 40 151t117 52zM194 741q-84 0 -84 -131q0 -144 84 -144q35 0 55 22q12 14 20.5 47.5t8.5 68.5q0 137 -84 137z" />
    <glyph glyph-name="foursuperior" unicode="&#x2074;" horiz-adv-x="387" 
d="M44 488v60l173 265l62 -36l-147 -223h83v91h74v-91h48v-66h-48v-82h-74v82h-171z" />
    <glyph glyph-name="fivesuperior" unicode="&#x2075;" horiz-adv-x="387" 
d="M311 734h-137l-13 -60q18 3 26 3q60 0 101.5 -40t41.5 -97q0 -60 -43 -101t-107 -41q-43 0 -75.5 20t-62.5 65l60 39q28 -57 78 -57q33 0 54.5 20.5t21.5 52.5q0 31 -21 52t-53 21q-18 0 -29 -5t-27 -21l-57 12l44 204h198v-67z" />
    <glyph glyph-name="sixsuperior" unicode="&#x2076;" horiz-adv-x="387" 
d="M79 630l137 184l58 -42l-76 -102q3 1 7 1q53 0 93.5 -39.5t40.5 -92.5q0 -59 -42.5 -100t-103.5 -41t-104 40.5t-43 99.5q0 48 33 92zM192 605q-31 0 -51.5 -20t-20.5 -49q0 -30 20.5 -50.5t51.5 -20.5t52 20.5t21 50.5t-20.5 49.5t-52.5 19.5z" />
    <glyph glyph-name="sevensuperior" unicode="&#x2077;" horiz-adv-x="387" 
d="M79 426l174 308h-187v67h276v-52l-198 -356z" />
    <glyph glyph-name="eightsuperior" unicode="&#x2078;" horiz-adv-x="387" 
d="M103 616q-36 36 -36 78q0 49 36.5 82t90.5 33t90.5 -33t36.5 -82q0 -43 -36 -78q49 -39 49 -93t-40 -89.5t-100 -35.5t-100 35.5t-40 89.5q0 55 49 93zM195 581q-31 0 -49 -16t-18 -43q0 -26 18.5 -42t47.5 -16t47.5 16.5t18.5 42.5q0 25 -18 41.5t-47 16.5zM194 745
q-25 0 -41 -14t-16 -36q0 -23 16 -37t41 -14t41 14t16 36t-16 36.5t-41 14.5z" />
    <glyph glyph-name="ninesuperior" unicode="&#x2079;" horiz-adv-x="387" 
d="M308 577l-137 -184l-58 42l77 103q-4 -1 -7 -1q-54 0 -94.5 39t-40.5 93q0 58 42.5 99t103.5 41t104 -40.5t43 -99.5q0 -47 -33 -92zM195 742q-31 0 -52 -20.5t-21 -49.5q0 -30 20 -49.5t51 -19.5q32 0 53 19.5t21 48.5q0 30 -20.5 50.5t-51.5 20.5z" />
    <glyph glyph-name="zeroinferior" unicode="&#x2080;" horiz-adv-x="387" 
d="M192 273q161 0 161 -206q0 -205 -159 -205t-159 208q0 99 40 151t117 52zM194 205q-84 0 -84 -131q0 -144 84 -144q35 0 55 22q12 14 20.5 47.5t8.5 68.5q0 137 -84 137z" />
    <glyph glyph-name="oneinferior" unicode="&#x2081;" horiz-adv-x="387" 
d="M246 265v-395h-74v308l-51 -27l-35 58l101 56h59z" />
    <glyph glyph-name="twoinferior" unicode="&#x2082;" horiz-adv-x="387" 
d="M330 -130h-268v57l146 155q40 43 40 77q0 22 -14.5 34t-40.5 12q-29 0 -42 -12.5t-25 -49.5l-68 18q25 112 135 112q58 0 93 -31.5t35 -83.5q0 -58 -43 -103l-110 -118h162v-67z" />
    <glyph glyph-name="threeinferior" unicode="&#x2083;" horiz-adv-x="387" 
d="M185 43h-32v67h32q59 0 59 48q0 22 -15 35t-39 13q-21 0 -34.5 -9t-30.5 -35l-63 33q26 41 55.5 59.5t72.5 18.5q55 0 91 -32.5t36 -81.5q0 -47 -34 -78q43 -37 43 -92t-39.5 -91t-99.5 -36q-109 0 -136 111l-1 5l72 18q10 -38 23.5 -52t41.5 -14q29 0 47 16.5t18 42.5
q0 54 -67 54z" />
    <glyph glyph-name="fourinferior" unicode="&#x2084;" horiz-adv-x="387" 
d="M44 -48v60l173 266l62 -36l-147 -224h83v92h74v-92h48v-66h-48v-82h-74v82h-171z" />
    <glyph glyph-name="fiveinferior" unicode="&#x2085;" horiz-adv-x="387" 
d="M311 199h-137l-13 -60q12 2 26 2q59 0 101 -40t42 -97q0 -59 -43 -100t-107 -41q-44 0 -76.5 20t-61.5 64l60 40q27 -57 78 -57q33 0 54.5 20.5t21.5 51.5t-21 52t-53 21q-18 0 -28.5 -5t-27.5 -20l-57 11l44 205h198v-67z" />
    <glyph glyph-name="sixinferior" unicode="&#x2086;" horiz-adv-x="387" 
d="M79 94l137 184l58 -41l-76 -103q3 1 7 1q31 0 69 -20q30 -17 47.5 -47t17.5 -65q0 -59 -42.5 -100t-103.5 -41t-104 40.5t-43 99.5q0 48 33 92zM193 69q-32 0 -52.5 -19.5t-20.5 -49.5t20.5 -50.5t51.5 -20.5t52 20.5t21 49.5q0 31 -20 50.5t-52 19.5z" />
    <glyph glyph-name="seveninferior" unicode="&#x2087;" horiz-adv-x="387" 
d="M79 -110l174 308h-187v67h276v-52l-198 -356z" />
    <glyph glyph-name="eightinferior" unicode="&#x2088;" horiz-adv-x="387" 
d="M103 81q-36 35 -36 78q0 48 36.5 81t90.5 33t90.5 -32.5t36.5 -81.5q0 -43 -36 -78q49 -39 49 -94q0 -54 -40 -89.5t-100 -35.5t-100 35.5t-40 89.5t49 94zM195 45q-31 0 -49 -16t-18 -43q0 -26 18.5 -42t47.5 -16t47.5 16.5t18.5 42.5q0 25 -18 41.5t-47 16.5zM194 209
q-25 0 -41 -14t-16 -36q0 -23 16 -37t41 -14t41 14t16 36t-16 36.5t-41 14.5z" />
    <glyph glyph-name="nineinferior" unicode="&#x2089;" horiz-adv-x="387" 
d="M308 42l-137 -184l-58 41l77 103h-7q-55 0 -95 39t-40 92q0 58 42.5 99t103.5 41t104 -40.5t43 -99.5q0 -47 -33 -91zM195 206q-31 0 -52 -20.5t-21 -49.5q0 -30 20.5 -49t52.5 -19q31 0 51.5 19.5t20.5 48.5q0 30 -20.5 50t-51.5 20z" />
    <glyph glyph-name="franc" unicode="&#x20a3;" horiz-adv-x="727" 
d="M453 667v-96h-236v-185h178v-96h-178v-290h-104v667h340zM428 0v386h100v-36q38 38 96 38q2 0 36 -2v-90q-20 2 -35 2q-26 0 -45 -8.5t-29 -20.5t-15 -32.5t-6.5 -37.5t-1.5 -43v-156h-100z" />
    <glyph glyph-name="lira" unicode="&#x20a4;" horiz-adv-x="563" 
d="M426 441v-86h-196q7 -32 10 -45h186v-86h-173l1 -3q1 -11 1 -21q0 -14 -7 -39t-14 -38q0 -1 -9 -15q0 -1 -1.5 -2.5t-3.5 -4.5t-3 -5h303v-96h-452v90q50 39 66 61.5t16 52.5q0 10 -1 20h-81v86h66q0 2 -6 33l-3 12h-57v86h44v20q0 113 64 168q61 52 144 52
q120 0 186 -121l-83 -52q-25 41 -49.5 58.5t-58.5 17.5q-47 0 -73.5 -31.5t-26.5 -87.5v-24h211z" />
    <glyph glyph-name="peseta" unicode="&#x20a7;" horiz-adv-x="604" 
d="M571 504v-83h-58q-20 -90 -78.5 -126.5t-155.5 -36.5h-44v-258h-104v421h-54v83h54v163h148q98 0 155.5 -36.5t78.5 -126.5h58zM407 421h-172v-69h52q53 1 80.5 16.5t39.5 52.5zM235 572v-68h173q-13 37 -40.5 52t-80.5 16h-52z" />
    <glyph glyph-name="uni20AB" unicode="&#x20ab;" horiz-adv-x="557" 
d="M273 598h116v69h100v-69h58v-90h-58v-508h-100v38q-68 -52 -136 -52q-92 0 -158.5 69.5t-66.5 166.5q0 96 66.5 165.5t158.5 69.5q68 0 136 -52v103h-116v90zM263 366q-60 0 -97 -40t-37 -104q0 -65 37 -105.5t95 -40.5q56 0 92 40.5t36 103.5q0 64 -35 105t-91 41z
M34 -143v91h508v-91h-508z" />
    <glyph glyph-name="Euro" unicode="&#x20ac;" horiz-adv-x="804" 
d="M166 224h-106l36 87h53q0 14 -1 18v16q0 5 1 9h-89l36 87h69q39 111 128 175.5t203 64.5q72 0 129.5 -25.5t114.5 -83.5l-39 -93q-54 55 -103 79.5t-107 24.5q-100 0 -169 -78q-31 -34 -45 -64h409l-37 -87h-395q-1 -11 -1 -22q0 -10 1 -21h377l-36 -87h-318
q34 -65 92 -102.5t125 -37.5q61 0 110 26t107 88v-134q-95 -78 -213 -78q-116 0 -202.5 62t-129.5 176z" />
    </font>
</defs>
</svg>
