<?xml version="1.0" standalone="no"?>
<!DOCTYPE svg PUBLIC "-//W3C//DTD SVG 1.1//EN" "http://www.w3.org/Graphics/SVG/1.1/DTD/svg11.dtd" >
<svg xmlns="http://www.w3.org/2000/svg" xmlns:xlink="http://www.w3.org/1999/xlink" version="1.1">
<metadata>
Created by FontForge 20170924 at Tue Mar 12 21:53:53 2019
 By www-data
Copyright 2016 by (URW)++ Design &#38; Development GmbH
</metadata>
<defs>
<font id="URWGeometric-Medium" horiz-adv-x="547" >
  <font-face 
    font-family="URW Geometric Med"
    font-weight="500"
    font-stretch="normal"
    units-per-em="1000"
    panose-1="1 0 0 0 0 0 0 0 0 0"
    ascent="800"
    descent="-200"
    x-height="443"
    cap-height="667"
    bbox="-127 -246 1219 1068"
    underline-thickness="50"
    underline-position="-225"
    unicode-range="U+0020-FB04"
  />
<missing-glyph horiz-adv-x="243" 
 />
    <glyph glyph-name="ff" unicode="ff" horiz-adv-x="499" 
d="M237 443v-77h-79v-366h-86v366h-44v77h44v77q0 144 112 144q23 0 52 -7v-78q-24 6 -36 6q-42 0 -42 -65v-77h79zM483 443v-77h-80v-366h-86v366h-43v77h43v87q0 144 112 144q24 0 53 -7v-78q-26 6 -36 6q-43 0 -43 -65v-87h80z" />
    <glyph glyph-name="fi" unicode="fi" horiz-adv-x="452" 
d="M237 443v-77h-79v-366h-86v366h-44v77h44v87q0 144 112 144q23 0 52 -7v-78q-26 6 -36 6q-42 0 -42 -65v-87h79zM305 443h86v-443h-86v443zM349 650q24 0 41 -17t17 -41q0 -23 -17 -40t-41 -17t-41 17t-17 41q0 23 17 40t41 17z" />
    <glyph glyph-name="fl" unicode="fl" horiz-adv-x="453" 
d="M237 443v-77h-79v-366h-86v366h-44v77h44v87q0 144 112 144q23 0 52 -7v-78q-26 6 -36 6q-42 0 -42 -65v-87h79zM392 667v-667h-86v667h86z" />
    <glyph glyph-name="ffi" unicode="ffi" horiz-adv-x="696" 
d="M237 443v-77h-79v-366h-86v366h-44v77h44v77q0 144 112 144q23 0 52 -7v-78q-24 6 -36 6q-42 0 -42 -65v-77h79zM483 443v-77h-79v-366h-86v366h-44v77h44v87q0 144 112 144q23 0 52 -7v-78q-26 6 -36 6q-42 0 -42 -65v-87h79zM550 443h86v-443h-86v443zM593 650
q24 0 41 -17t17 -41q0 -23 -17 -40t-41 -17t-41 17t-17 41q0 23 17 40t41 17z" />
    <glyph glyph-name="ffl" unicode="ffl" horiz-adv-x="697" 
d="M237 443v-77h-79v-366h-86v366h-44v77h44v77q0 144 112 144q23 0 52 -7v-78q-24 6 -36 6q-42 0 -42 -65v-77h79zM483 443v-77h-79v-366h-86v366h-44v77h44v87q0 144 112 144q23 0 52 -7v-78q-26 6 -36 6q-42 0 -42 -65v-87h79zM636 667v-667h-86v667h86z" />
    <glyph glyph-name=".notdef" horiz-adv-x="243" 
 />
    <glyph glyph-name=".null" horiz-adv-x="0" 
 />
    <glyph glyph-name="nonmarkingreturn" horiz-adv-x="333" 
 />
    <glyph glyph-name="space" unicode=" " horiz-adv-x="243" 
 />
    <glyph glyph-name="exclam" unicode="!" horiz-adv-x="287" 
d="M144 102q23 0 39.5 -16.5t16.5 -39.5q0 -24 -16.5 -40.5t-39.5 -16.5q-24 0 -40.5 16.5t-16.5 40.5q0 23 17 39.5t40 16.5zM184 157h-81l-8 510h98z" />
    <glyph glyph-name="quotedbl" unicode="&#x22;" horiz-adv-x="315" 
d="M129 673l-12 -270h-65l-12 270h89zM275 673l-12 -270h-65l-12 270h89z" />
    <glyph glyph-name="numbersign" unicode="#" horiz-adv-x="587" 
d="M83 2l38 189h-74l14 68h74l29 147h-73l13 68h74l42 206l71 -17l-39 -189h140l42 206l71 -15l-38 -191h74l-14 -68h-74l-30 -147h74l-14 -68h-74l-41 -205l-71 16l38 189h-140l-41 -205zM209 259h140l30 147h-140z" />
    <glyph glyph-name="dollar" unicode="$" horiz-adv-x="572" 
d="M336 -103h-88v92q-74 10 -122 57t-63 123l87 24q11 -43 21 -61q34 -61 106 -61q53 0 89.5 35t36.5 86q0 36 -25 60.5t-85 48.5l-62 24q-141 54 -141 170q0 69 42.5 117.5t115.5 62.5v92h88v-91q89 -18 143 -109l-72 -46q-28 42 -54.5 59t-64.5 17q-47 0 -78.5 -29.5
t-31.5 -72.5q0 -62 91 -96l65 -25q159 -61 159 -181q0 -70 -44.5 -125.5t-112.5 -72.5v-98z" />
    <glyph glyph-name="percent" unicode="%" horiz-adv-x="899" 
d="M695 402q158 0 158 -205t-156 -205t-156 208q0 99 39 150.5t115 51.5zM697 343q-44 0 -67 -36t-23 -103q0 -153 90 -153t90 146t-90 146zM201 675q158 0 158 -205t-156 -205t-156 208q0 99 39 150.5t115 51.5zM203 616q-90 0 -90 -143q0 -149 90 -149t90 146t-90 146z
M233 15l385 665l49 -29l-385 -664z" />
    <glyph glyph-name="ampersand" unicode="&#x26;" horiz-adv-x="647" 
d="M318 371l151 -180q20 37 43 103l80 -23l-3 -7q-30 -92 -62 -143l102 -121h-106l-48 58q-80 -71 -185 -71q-96 0 -159.5 54.5t-63.5 136.5q0 55 33.5 103t108.5 100l-3 3q-71 88 -71 149q0 63 43 105t107 42q63 0 105.5 -40.5t42.5 -100.5q0 -45 -26 -83.5t-89 -84.5z
M421 124l-165 200q-58 -45 -80.5 -76t-22.5 -66q0 -49 39 -82.5t97 -33.5q77 0 132 58zM270 427q49 38 67.5 62.5t18.5 52.5q0 29 -20 48.5t-51 19.5t-52 -21t-21 -52q0 -41 58 -110z" />
    <glyph glyph-name="quotesingle" unicode="'" horiz-adv-x="169" 
d="M129 673l-12 -270h-65l-12 270h89z" />
    <glyph glyph-name="parenleft" unicode="(" horiz-adv-x="302" 
d="M166 738l76 -36q-75 -199 -75 -426q0 -229 75 -426l-76 -36q-86 187 -86 464q0 129 23 251.5t63 208.5z" />
    <glyph glyph-name="parenright" unicode=")" horiz-adv-x="302" 
d="M136 -186l-76 36q75 197 75 427q0 229 -75 425l76 36q40 -85 63 -207.5t23 -252.5q0 -108 -17.5 -221t-45.5 -191q-9 -22 -23 -52z" />
    <glyph glyph-name="asterisk" unicode="*" horiz-adv-x="474" 
d="M63 581l25 76l114 -42l-5 121h80l-5 -121l114 42l24 -76l-117 -33l76 -95l-65 -47l-67 101l-68 -101l-64 47l75 95z" />
    <glyph glyph-name="plus" unicode="+" horiz-adv-x="556" 
d="M40 350h199v200h78v-200h199v-75h-199v-200h-78v200h-199v75z" />
    <glyph glyph-name="comma" unicode="," horiz-adv-x="238" 
d="M20 -136l87 242l79 -28l-106 -238z" />
    <glyph glyph-name="hyphen" unicode="-" horiz-adv-x="263" 
d="M28 273v78h207v-78h-207z" />
    <glyph glyph-name="period" unicode="." horiz-adv-x="235" 
d="M118 102q23 0 39.5 -16.5t16.5 -39.5q0 -24 -16.5 -40.5t-40.5 -16.5q-23 0 -39.5 17t-16.5 41q0 22 17 38.5t40 16.5z" />
    <glyph glyph-name="slash" unicode="/" horiz-adv-x="550" 
d="M52 26l380 655l67 -40l-380 -655z" />
    <glyph glyph-name="zero" unicode="0" horiz-adv-x="574" 
d="M285 680q253 0 253 -347q0 -346 -250 -346q-127 0 -189 86.5t-62 264.5q0 68 11 124.5t37 108t77 80.5t123 29zM288 597q-64 0 -105 -44q-24 -27 -39.5 -85t-15.5 -122q0 -141 39 -208.5t121 -67.5q159 0 159 267q0 260 -159 260z" />
    <glyph glyph-name="one" unicode="1" horiz-adv-x="308" 
d="M232 667v-667h-89v564l-98 -56l-42 71l152 88h77z" />
    <glyph glyph-name="two" unicode="2" horiz-adv-x="485" 
d="M462 0h-418v75l243 272q72 81 72 150q0 46 -30.5 73t-81.5 27t-79.5 -24.5t-45.5 -82.5l-81 22q17 80 71.5 124t137.5 44q89 0 143 -51t54 -135q0 -94 -68 -171l-216 -241h299v-82z" />
    <glyph glyph-name="three" unicode="3" horiz-adv-x="477" 
d="M15 151l-2 9l87 24q15 -60 44 -86.5t79 -26.5q56 0 92 34.5t36 88.5q0 55 -34 85t-97 30h-36v81h36q56 0 87 27t31 77q0 47 -30 75.5t-79 28.5q-38 0 -64.5 -16.5t-53.5 -56.5l-73 41q67 114 191 114q86 0 141 -52t55 -133q0 -85 -67 -139q82 -60 82 -162q0 -91 -61 -149
t-156 -58t-157 65q-34 37 -51 99z" />
    <glyph glyph-name="four" unicode="4" horiz-adv-x="519" 
d="M310 681l72 -44l-257 -411h193v168h89v-168h80v-81h-80v-145h-89v145h-291v84z" />
    <glyph glyph-name="five" unicode="5" horiz-adv-x="525" 
d="M449 667v-82h-229l-31 -151l9 3q24 8 55 8q97 0 163 -65t66 -160q0 -98 -68 -165.5t-167 -67.5q-131 0 -210 126l71 50q26 -50 59 -72t80 -22q62 0 104 42t42 105q0 64 -41.5 106.5t-102.5 42.5q-62 0 -101 -44l-69 15l67 331h303z" />
    <glyph glyph-name="six" unicode="6" horiz-adv-x="544" 
d="M314 681l69 -51l-141 -200q17 5 38 5q92 0 156 -63t64 -154q0 -96 -67 -163.5t-162 -67.5q-96 0 -163 67t-67 163q0 79 52 152zM270 355q-60 0 -100.5 -40.5t-40.5 -101.5t40.5 -102.5t100.5 -41.5q59 0 100.5 42t41.5 101q0 62 -40 102.5t-102 40.5z" />
    <glyph glyph-name="seven" unicode="7" horiz-adv-x="451" 
d="M119 -15l-77 41l300 559h-329v82h431v-68z" />
    <glyph glyph-name="eight" unicode="8" horiz-adv-x="510" 
d="M128 355q-70 63 -70 140q0 79 56.5 132t140.5 53t140.5 -53t56.5 -132q0 -80 -70 -140q91 -66 91 -165q0 -88 -62 -145.5t-156 -57.5t-156 57.5t-62 145.5q0 99 91 165zM257 311q-59 0 -95.5 -33.5t-36.5 -86.5q0 -54 36.5 -88.5t93.5 -34.5t93.5 34.5t36.5 87.5
q0 52 -36 86.5t-92 34.5zM256 602q-51 0 -83.5 -30t-32.5 -77q0 -46 32.5 -76.5t82.5 -30.5q49 0 82 30t33 75q0 47 -32.5 78t-81.5 31z" />
    <glyph glyph-name="nine" unicode="9" horiz-adv-x="546" 
d="M230 -15l-69 51l143 201q-20 -4 -36 -4q-95 0 -159.5 62t-64.5 154q0 96 67 163.5t162 67.5q96 0 163 -67t67 -163q0 -80 -51 -153zM274 598q-59 0 -100.5 -42t-41.5 -102q0 -62 40 -101.5t102 -39.5q60 0 100.5 40.5t40.5 100.5q0 61 -40.5 102.5t-100.5 41.5z" />
    <glyph glyph-name="colon" unicode=":" horiz-adv-x="235" 
d="M118 102q23 0 39.5 -16.5t16.5 -39.5q0 -24 -16.5 -40.5t-40.5 -16.5q-23 0 -39.5 17t-16.5 41q0 22 17 38.5t40 16.5zM117 427q24 0 40.5 -16.5t16.5 -39.5t-16.5 -39.5t-40.5 -16.5q-23 0 -39.5 16.5t-16.5 40.5q0 22 16.5 38.5t39.5 16.5z" />
    <glyph glyph-name="semicolon" unicode=";" horiz-adv-x="236" 
d="M134 427q24 0 40.5 -16.5t16.5 -39.5t-16.5 -39.5t-39.5 -16.5q-24 0 -40.5 16.5t-16.5 40.5q0 22 16.5 38.5t39.5 16.5zM20 -136l87 242l79 -28l-106 -238z" />
    <glyph glyph-name="less" unicode="&#x3c;" horiz-adv-x="563" 
d="M58 374l447 209v-89l-344 -157l344 -158v-89l-447 210v74z" />
    <glyph glyph-name="equal" unicode="=" horiz-adv-x="556" 
d="M69 421h418v-76h-418v76zM69 280h418v-76h-418v76z" />
    <glyph glyph-name="greater" unicode="&#x3e;" horiz-adv-x="563" 
d="M505 300l-447 -210v90l344 157l-344 157v89l447 -210v-73z" />
    <glyph glyph-name="question" unicode="?" horiz-adv-x="426" 
d="M206 102q23 0 39.5 -16.5t16.5 -39.5q0 -24 -16.5 -40.5t-40.5 -16.5q-23 0 -39.5 17t-16.5 40t17 39.5t40 16.5zM249 157h-87v72q1 49 11 71.5t48 55.5l43 36q60 52 60 109q0 43 -29 69.5t-76 26.5q-41 0 -68 -17.5t-56 -63.5l-65 54q61 110 184 110q90 0 144 -48.5
t54 -129.5q0 -47 -18.5 -83.5t-64.5 -79.5l-48 -46q-23 -20 -27 -29.5t-5 -42.5v-64z" />
    <glyph glyph-name="at" unicode="@" horiz-adv-x="898" 
d="M506 524h123l-44 -337h17q74 0 114.5 49t40.5 139q0 127 -74 200t-199 73q-155 0 -249 -89t-94 -235q0 -67 24 -126.5t68 -99.5q85 -79 249 -79q103 0 220 38l23 -63q-113 -40 -247 -40q-102 0 -185 31t-132 88q-88 101 -88 249q0 178 114 284.5t293 106.5
q154 0 249.5 -90t95.5 -245q0 -79 -29.5 -138t-84.5 -90q-50 -28 -136 -28h-135q-80 0 -129 49.5t-49 130.5q0 105 70 167q60 55 174 55zM449 187h67l35 272h-55q-76 0 -119.5 -41t-43.5 -113q0 -56 30.5 -87t85.5 -31z" />
    <glyph glyph-name="A" unicode="A" horiz-adv-x="625" 
d="M460 180h-297l-67 -180h-93l254 667h111l254 -667h-94zM311 577l-117 -314h235z" />
    <glyph glyph-name="B" unicode="B" horiz-adv-x="524" 
d="M253 0h-176v667h144q97 0 146 -29q39 -23 62.5 -64.5t23.5 -87.5q0 -77 -70 -134q48 -21 75 -64.5t27 -99.5q0 -107 -97 -160q-50 -28 -135 -28zM165 302v-220h83q65 0 95 18q54 30 54 91q0 28 -13.5 53t-36.5 38q-35 20 -108 20h-74zM165 586v-207h67q57 0 86 15
q50 28 50 90q0 59 -45 85q-28 17 -91 17h-67z" />
    <glyph glyph-name="C" unicode="C" horiz-adv-x="666" 
d="M633 567l-62 -60q-46 48 -89 68.5t-98 20.5q-108 0 -181.5 -76t-73.5 -187q0 -110 74 -186t181 -76q55 0 98 20.5t92 70.5l62 -61q-60 -60 -119 -87t-131 -27q-145 0 -246 101t-101 245q0 145 101 246t245 101q72 0 130 -26.5t118 -86.5z" />
    <glyph glyph-name="D" unicode="D" horiz-adv-x="619" 
d="M77 0v667h142q166 0 263.5 -90t97.5 -243q0 -154 -97.5 -244t-263.5 -90h-142zM222 584h-56v-501h56q124 0 196 67.5t72 183.5q0 115 -72 182.5t-196 67.5z" />
    <glyph glyph-name="E" unicode="E" horiz-adv-x="478" 
d="M430 667v-82h-264v-206h234v-83h-234v-213h274v-83h-363v667h353z" />
    <glyph glyph-name="F" unicode="F" horiz-adv-x="440" 
d="M407 667v-82h-241v-206h220v-83h-220v-296h-89v667h330z" />
    <glyph glyph-name="G" unicode="G" horiz-adv-x="727" 
d="M402 269v83h285v-44q0 -145 -82 -233t-217 -88q-146 0 -247.5 100.5t-101.5 245.5t101 246t246 101q71 0 128.5 -26t118.5 -86l-62 -61q-45 48 -88 68.5t-98 20.5q-109 0 -182.5 -75.5t-73.5 -187.5q0 -110 74.5 -186t182.5 -76q111 0 170 81q32 46 39 117h-193z" />
    <glyph glyph-name="H" unicode="H" horiz-adv-x="650" 
d="M77 0v667h89v-288h319v288h89v-667h-89v296h-319v-296h-89z" />
    <glyph glyph-name="I" unicode="I" horiz-adv-x="243" 
d="M77 667h89v-667h-89v667z" />
    <glyph glyph-name="J" unicode="J" horiz-adv-x="409" 
d="M243 667h89v-465q0 -89 -28 -138q-20 -35 -58 -56t-84 -21q-81 0 -162 77l55 65q57 -58 105 -58q83 0 83 131v465z" />
    <glyph glyph-name="K" unicode="K" horiz-adv-x="576" 
d="M568 667l-255 -278l258 -389h-104l-214 323l-87 -95v-228h-89v667h89v-321l293 321h109z" />
    <glyph glyph-name="L" unicode="L" horiz-adv-x="429" 
d="M77 667h89v-584h254v-83h-343v667z" />
    <glyph glyph-name="M" unicode="M" horiz-adv-x="807" 
d="M166 0h-89v667h90l237 -422l237 422h90v-667h-89v505l-200 -359h-75l-201 359v-505z" />
    <glyph glyph-name="N" unicode="N" horiz-adv-x="709" 
d="M166 0h-89v667h80l387 -518v518h89v-667h-80l-387 518v-518z" />
    <glyph glyph-name="O" unicode="O" horiz-adv-x="763" 
d="M382 680q141 0 242 -102t101 -245q0 -142 -101 -244t-241 -102q-143 0 -243.5 102.5t-100.5 248.5q0 138 102 240t241 102zM382 596q-104 0 -178.5 -76t-74.5 -183q0 -111 73.5 -188.5t179.5 -77.5q104 0 178.5 77t74.5 185q0 109 -74 186t-179 77z" />
    <glyph glyph-name="P" unicode="P" horiz-adv-x="469" 
d="M77 0v667h142q92 0 140 -28q44 -25 69 -71.5t25 -101.5q0 -56 -25.5 -102.5t-68.5 -71.5q-48 -28 -140 -28h-53v-264h-89zM166 585v-240h62q137 0 137 120t-137 120h-62z" />
    <glyph glyph-name="Q" unicode="Q" horiz-adv-x="761" 
d="M616 82l63 -62l-60 -60l-72 71q-80 -44 -166 -44q-140 0 -241 102t-101 244q0 143 101 245t242 102t242 -102t101 -245q0 -148 -109 -251zM483 94l-50 51l60 60l62 -62q80 77 80 190q0 110 -73.5 186.5t-179.5 76.5q-105 0 -179 -77t-74 -186q0 -108 74.5 -185t178.5 -77
q52 0 101 23z" />
    <glyph glyph-name="R" unicode="R" horiz-adv-x="540" 
d="M359 287l160 -287h-100l-147 266q-50 -2 -53 -2h-53v-264h-89v667h142q100 0 153 -30q45 -26 71 -72.5t26 -101.5q0 -58 -29 -104.5t-81 -71.5zM166 585v-240h62q153 0 153 118q0 122 -153 122h-62z" />
    <glyph glyph-name="S" unicode="S" horiz-adv-x="510" 
d="M452 567l-71 -46q-28 42 -54.5 59t-64.5 17q-46 0 -78 -29.5t-32 -73.5q0 -60 91 -96l65 -24q158 -61 158 -181q0 -87 -62.5 -146.5t-154.5 -59.5q-83 0 -137.5 47t-74.5 135l87 23q15 -57 43.5 -89t83.5 -32q52 0 88.5 35.5t36.5 85.5q0 36 -25 61t-84 48l-62 24
q-141 53 -141 170q0 79 57.5 132t143.5 53q61 0 106 -27t81 -86z" />
    <glyph glyph-name="T" unicode="T" horiz-adv-x="435" 
d="M431 667v-82h-170v-585h-89v585h-169v82h428z" />
    <glyph glyph-name="U" unicode="U" horiz-adv-x="637" 
d="M77 235v432h89v-412q0 -83 19 -115q17 -31 54.5 -50t79.5 -19q41 0 78.5 19t54.5 50q19 34 19 115v412h89v-432q0 -81 -28 -133q-31 -53 -88.5 -84t-124.5 -31t-125 31t-89 84q-28 49 -28 133z" />
    <glyph glyph-name="V" unicode="V" horiz-adv-x="559" 
d="M226 0l-223 667h93l183 -553l184 553h92l-223 -667h-106z" />
    <glyph glyph-name="W" unicode="W" horiz-adv-x="879" 
d="M3 667h93l153 -526l151 526h78l151 -526l153 526h93l-202 -667h-87l-147 507l-147 -507h-87z" />
    <glyph glyph-name="X" unicode="X" horiz-adv-x="542" 
d="M422 667h97l-199 -318l219 -349h-101l-168 271l-168 -271h-99l218 348l-198 319h99l149 -242z" />
    <glyph glyph-name="Y" unicode="Y" horiz-adv-x="518" 
d="M423 667h98l-217 -389v-278h-89v278l-218 389h98l164 -302z" />
    <glyph glyph-name="Z" unicode="Z" horiz-adv-x="510" 
d="M481 667v-75l-352 -509h359v-83h-468v75l357 510h-328v82h432z" />
    <glyph glyph-name="bracketleft" unicode="[" horiz-adv-x="299" 
d="M257 649h-91v-746h91v-80h-177v906h177v-80z" />
    <glyph glyph-name="backslash" unicode="\" horiz-adv-x="550" 
d="M52 641l67 40l380 -655l-67 -40z" />
    <glyph glyph-name="bracketright" unicode="]" horiz-adv-x="299" 
d="M133 -97v746h-91v80h177v-906h-177v80h91z" />
    <glyph glyph-name="asciicircum" unicode="^" horiz-adv-x="523" 
d="M315 677l186 -322h-101l-139 238l-140 -238h-100l186 322h108z" />
    <glyph glyph-name="underscore" unicode="_" horiz-adv-x="507" 
d="M-3 -137v78h513v-78h-513z" />
    <glyph glyph-name="grave" unicode="`" horiz-adv-x="476" 
d="M236 507l-135 136l83 44l107 -148z" />
    <glyph glyph-name="a" unicode="a" 
d="M487 443v-443h-86v48q-42 -34 -74 -47.5t-70 -13.5q-94 0 -160 69t-66 166t66 165.5t160 68.5q38 0 69.5 -13.5t74.5 -47.5v48h86zM263 379q-65 0 -105.5 -43.5t-40.5 -114.5q0 -69 40.5 -113t103.5 -44t102.5 44t39.5 114q0 68 -39.5 112.5t-100.5 44.5z" />
    <glyph glyph-name="b" unicode="b" 
d="M146 0h-86v667h86v-272q43 34 74.5 47.5t69.5 13.5q94 0 160 -68.5t66 -165.5t-66 -166t-160 -69q-38 0 -70 13.5t-74 47.5v-48zM287 378q-62 0 -101.5 -43.5t-39.5 -113.5q0 -69 39.5 -113t101.5 -44t102.5 44t40.5 111q0 71 -39.5 115t-103.5 44z" />
    <glyph glyph-name="c" unicode="c" horiz-adv-x="460" 
d="M438 375l-57 -56q-30 33 -56.5 46.5t-61.5 13.5q-65 0 -105.5 -43.5t-40.5 -113.5q0 -71 40.5 -114.5t106.5 -43.5q37 0 63.5 14.5t56.5 49.5l57 -57q-78 -84 -177 -84t-166 67.5t-67 167.5q0 99 67 166.5t165 67.5q97 0 175 -81z" />
    <glyph glyph-name="d" unicode="d" 
d="M487 667v-667h-86v48q-42 -34 -74 -47.5t-70 -13.5q-94 0 -160 69t-66 166t66 165.5t160 68.5q38 0 69.5 -13.5t74.5 -47.5v272h86zM263 378q-65 0 -105.5 -43.5t-40.5 -113.5q0 -69 40.5 -113t102.5 -44t101.5 44t39.5 113t-39 113t-99 44z" />
    <glyph glyph-name="e" unicode="e" horiz-adv-x="495" 
d="M463 187h-344q9 -57 45.5 -90t90.5 -33q37 0 70 17t50 46q6 10 8 12l74 -31q-71 -121 -202 -121q-95 0 -159.5 67.5t-64.5 167.5q0 98 63 166t155 68q94 0 154.5 -68.5t60.5 -174.5q0 -6 -1 -26zM119 256h259q-10 58 -44 91t-84 33q-51 0 -86 -33t-45 -91z" />
    <glyph glyph-name="f" unicode="f" horiz-adv-x="254" 
d="M237 443v-77h-79v-366h-86v366h-44v77h44v87q0 144 112 144q23 0 52 -7v-78q-26 6 -36 6q-42 0 -42 -65v-87h79z" />
    <glyph glyph-name="g" unicode="g" 
d="M401 443h86v-451q0 -106 -65 -172t-169 -66q-67 0 -114 25t-94 78l56 56l6 -6q34 -40 64 -57.5t79 -17.5q71 0 111 42t40 118v56q-64 -61 -143 -61q-94 0 -160.5 68.5t-66.5 166.5q0 97 66 165.5t161 68.5q79 0 143 -61v48zM263 379q-65 0 -105.5 -43.5t-40.5 -114.5
q0 -69 40.5 -113t103.5 -44q62 0 101.5 44t39.5 114q0 68 -39 112.5t-100 44.5z" />
    <glyph glyph-name="h" unicode="h" horiz-adv-x="509" 
d="M60 0v667h86v-265q48 54 122 54q49 0 90.5 -23t64.5 -62q27 -45 27 -132v-239h-86v231q0 68 -21 106.5t-83 38.5q-32 0 -58 -13.5t-38 -35.5q-18 -33 -18 -105v-222h-86z" />
    <glyph glyph-name="i" unicode="i" horiz-adv-x="206" 
d="M60 443h86v-443h-86v443zM103 650q24 0 41 -17t17 -41q0 -23 -17 -40t-41 -17t-41 17t-17 41q0 23 17 40t41 17z" />
    <glyph glyph-name="j" unicode="j" horiz-adv-x="216" 
d="M-8 -233v79q28 -7 39 -7q39 0 39 64v540h86v-540q0 -69 -28.5 -106.5t-81.5 -37.5q-26 0 -54 8zM113 650q24 0 41 -16.5t17 -40.5t-17 -41t-41 -17q-25 0 -41.5 17t-16.5 41q0 23 17 40t41 17z" />
    <glyph glyph-name="k" unicode="k" horiz-adv-x="470" 
d="M453 443l-184 -182l204 -261h-106l-156 204l-65 -64v-140h-86v667h86v-419l196 195h111z" />
    <glyph glyph-name="l" unicode="l" horiz-adv-x="207" 
d="M147 667v-667h-86v667h86z" />
    <glyph glyph-name="m" unicode="m" horiz-adv-x="780" 
d="M60 443h86v-41q45 54 115 54q79 0 131 -67q55 67 141 67q53 0 95.5 -23.5t65.5 -65.5q26 -44 26 -128v-239h-86v231q0 24 -1.5 41.5t-7 38.5t-15.5 34t-28 22t-43 9q-28 0 -52 -12.5t-35 -33.5q-18 -33 -18 -109v-221h-86v231q0 31 -3 52.5t-12 45t-29.5 35.5t-51.5 12
q-28 0 -52.5 -13t-35.5 -33q-18 -35 -18 -109v-221h-86v443z" />
    <glyph glyph-name="n" unicode="n" horiz-adv-x="509" 
d="M60 0v443h86v-41q48 54 122 54q49 0 90.5 -23t64.5 -62q27 -45 27 -132v-239h-86v231q0 68 -21 106.5t-83 38.5q-32 0 -58 -13.5t-38 -35.5q-18 -33 -18 -105v-222h-86z" />
    <glyph glyph-name="o" unicode="o" horiz-adv-x="524" 
d="M266 456q95 0 161 -68.5t66 -165.5q0 -99 -67 -167t-164 -68q-98 0 -164.5 68t-66.5 169q0 98 67.5 165t167.5 67zM264 379q-66 0 -106.5 -43.5t-40.5 -114.5q0 -69 40.5 -113t104.5 -44t104.5 44t40.5 114q0 68 -40.5 112.5t-102.5 44.5z" />
    <glyph glyph-name="p" unicode="p" 
d="M60 -233v676h86v-48q42 34 74 47.5t70 13.5q94 0 160 -69t66 -166t-66 -165.5t-160 -68.5q-38 0 -69.5 13.5t-74.5 47.5v-281h-86zM287 379q-62 0 -101.5 -44t-39.5 -114q0 -69 39 -113t99 -44q65 0 105.5 43.5t40.5 114.5q0 68 -40.5 112.5t-102.5 44.5z" />
    <glyph glyph-name="q" unicode="q" 
d="M401 443h86v-676h-86v281q-43 -34 -74.5 -47.5t-69.5 -13.5q-94 0 -160 68.5t-66 165.5t66 166t160 69q38 0 70 -13.5t74 -47.5v48zM260 379q-63 0 -103 -44t-40 -114q0 -68 40 -112.5t102 -44.5q63 0 102.5 43.5t39.5 112.5q0 71 -39 115t-102 44z" />
    <glyph glyph-name="r" unicode="r" horiz-adv-x="298" 
d="M60 0v443h86v-43q32 27 52 35.5t54 8.5q16 0 29 -1v-77q-13 1 -27 1q-35 0 -58 -12t-33 -35.5t-13.5 -47t-3.5 -58.5v-214h-86z" />
    <glyph glyph-name="s" unicode="s" horiz-adv-x="375" 
d="M26 109l72 29q20 -41 40 -57.5t50 -16.5q31 0 51 18t20 46q0 22 -13.5 33.5t-57.5 28.5l-47 18q-94 37 -94 116q0 56 42 94t105 38q92 0 140 -89l-68 -34q-32 47 -74 47q-28 0 -46 -15t-18 -38q0 -22 12 -32.5t58 -28.5l43 -16q103 -40 103 -118q0 -62 -45.5 -103.5
t-112.5 -41.5q-114 0 -160 122z" />
    <glyph glyph-name="t" unicode="t" horiz-adv-x="253" 
d="M153 443h71v-77h-71v-230q0 -63 38 -63q14 0 39 7v-79q-27 -8 -53 -8q-52 0 -81 37.5t-29 105.5v230h-49v77h49v102l86 33v-135z" />
    <glyph glyph-name="u" unicode="u" horiz-adv-x="509" 
d="M450 443v-443h-86v41q-48 -54 -122 -54q-49 0 -90.5 23t-64.5 62q-27 45 -27 132v239h86v-231q0 -68 21 -106.5t83 -38.5q32 0 58 13.5t38 35.5q18 33 18 106v221h86z" />
    <glyph glyph-name="v" unicode="v" horiz-adv-x="456" 
d="M187 0l-190 443h92l139 -331l138 331h92l-189 -443h-82z" />
    <glyph glyph-name="w" unicode="w" horiz-adv-x="666" 
d="M-3 443h92l108 -309l101 309h70l100 -309l109 309h91l-164 -443h-70l-101 306l-101 -306h-70z" />
    <glyph glyph-name="x" unicode="x" horiz-adv-x="454" 
d="M341 443h98l-161 -213l174 -230h-100l-125 165l-124 -165h-101l175 229l-162 214h101l112 -149z" />
    <glyph glyph-name="y" unicode="y" horiz-adv-x="452" 
d="M156 -233h-89l111 253l-181 423h92l134 -319l139 319h92z" />
    <glyph glyph-name="z" unicode="z" horiz-adv-x="417" 
d="M393 443v-68l-258 -298h268v-77h-378v67l259 299h-244v77h353z" />
    <glyph glyph-name="braceleft" unicode="{" horiz-adv-x="304" 
d="M246 -101h17v-76q-18 -1 -34 -1q-69 0 -100 35t-31 112v190q-1 42 -12 59t-44 26v69q32 9 43.5 26t12.5 55v189q0 77 31 112t100 35q16 0 34 -1v-76h-15q-40 0 -52 -11.5t-12 -51.5v-200q-2 -47 -13 -72.5t-39 -41.5q28 -17 39.5 -42.5t12.5 -74.5v-197q0 -39 11.5 -51
t50.5 -12z" />
    <glyph glyph-name="bar" unicode="|" horiz-adv-x="507" 
d="M211 -176v904h86v-904h-86z" />
    <glyph glyph-name="braceright" unicode="}" horiz-adv-x="304" 
d="M42 -177v76h17q39 0 50.5 12t11.5 51v197q1 49 12.5 74.5t39.5 42.5q-28 16 -39 41.5t-13 72.5v200q0 40 -12 51.5t-52 11.5h-15v76q18 1 34 1q69 0 100 -35t31 -112v-189q1 -38 12.5 -55t43.5 -26v-69q-33 -9 -44 -26t-12 -59v-190q0 -77 -31 -112t-100 -35q-16 0 -34 1
z" />
    <glyph glyph-name="asciitilde" unicode="~" horiz-adv-x="677" 
d="M144 573l-54 35q34 70 66 97t79 27q44 0 115 -35q65 -31 94 -31q27 0 45.5 15t42.5 56l55 -33q-27 -56 -61.5 -89t-86.5 -33q-26 0 -51 8.5t-95 40.5q-39 17 -66 17q-42 0 -83 -75z" />
    <glyph glyph-name="uni00A0" unicode="&#xa0;" horiz-adv-x="243" 
 />
    <glyph glyph-name="exclamdown" unicode="&#xa1;" horiz-adv-x="287" 
d="M95 -184l8 510h81l9 -510h-98zM143 494q24 0 40.5 -16.5t16.5 -40.5q0 -23 -16.5 -39.5t-40.5 -16.5q-23 0 -39.5 16.5t-16.5 40.5q0 23 16.5 39.5t39.5 16.5z" />
    <glyph glyph-name="cent" unicode="&#xa2;" horiz-adv-x="552" 
d="M333 0h-88v104q-81 18 -130.5 81t-49.5 148t49.5 148t130.5 81v105h88v-102q78 -14 139 -78l-57 -57q-30 33 -56 46.5t-62 13.5q-65 0 -105.5 -43.5t-40.5 -113.5t40.5 -113.5t106.5 -43.5q36 0 63 14t57 49l57 -57q-55 -62 -142 -80v-102z" />
    <glyph glyph-name="sterling" unicode="&#xa3;" horiz-adv-x="561" 
d="M216 374h204v-80h-187q13 -56 13 -103q0 -57 -48 -109h317v-82h-443v79q50 39 67 64t17 58q0 26 -13 93h-71v80h54q-10 50 -10 93q0 108 63 163q59 50 139 50q117 0 180 -113l-71 -46q-23 40 -49.5 58t-62.5 18q-51 0 -81 -34t-30 -92q0 -37 12 -97z" />
    <glyph glyph-name="currency" unicode="&#xa4;" horiz-adv-x="726" 
d="M88 564l49 47l87 -89q62 46 138 46q77 0 139 -46l87 89l49 -47l-89 -90q44 -62 44 -140t-44 -140l89 -90l-48 -48l-88 89q-61 -46 -138 -46q-76 0 -139 46l-89 -89l-47 48l89 90q-44 62 -44 139q0 80 44 141zM365 493q-66 0 -107.5 -43.5t-41.5 -112.5q0 -73 40.5 -118
t106.5 -45q64 0 105 45t41 115q0 69 -40.5 114t-103.5 45z" />
    <glyph glyph-name="yen" unicode="&#xa5;" horiz-adv-x="556" 
d="M234 228h-160v77h144l-31 55h-113v77h70l-128 230h99l164 -303l164 303h98l-129 -230h71v-77h-114l-30 -55h144v-77h-160v-228h-89v228z" />
    <glyph glyph-name="brokenbar" unicode="&#xa6;" horiz-adv-x="507" 
d="M211 210h86v-386h-86v386zM297 728v-380h-86v380h86z" />
    <glyph glyph-name="section" unicode="&#xa7;" horiz-adv-x="551" 
d="M261 397l65 -25q83 -32 121 -76t38 -106q0 -73 -55 -138q43 -45 43 -113q0 -83 -56.5 -134t-147.5 -51q-75 0 -125 33t-94 110l72 47q33 -58 67 -82.5t83 -24.5t80.5 29t31.5 74q0 35 -25.5 60.5t-85.5 48.5l-62 24q-142 56 -142 172q0 74 60 134q-48 48 -48 115
q0 79 58 132.5t144 53.5q61 0 104.5 -27t80.5 -87l-72 -46q-28 43 -53.5 60t-62.5 17q-46 0 -78 -29.5t-32 -73.5q0 -61 91 -97zM249 148l65 -25q28 -12 43 -20q37 41 37 86q0 37 -24.5 61.5t-85.5 48.5l-66 25q-8 4 -14 6q-46 -37 -46 -85q0 -63 91 -97z" />
    <glyph glyph-name="dieresis" unicode="&#xa8;" horiz-adv-x="476" 
d="M146 648q23 0 40 -16.5t17 -39.5q0 -24 -17 -40.5t-41 -16.5q-23 0 -39.5 17t-16.5 40t17 39.5t40 16.5zM330 648q24 0 40.5 -16.5t16.5 -39.5q0 -24 -16.5 -40.5t-40.5 -16.5t-40.5 17t-16.5 40t17 39.5t40 16.5z" />
    <glyph glyph-name="copyright" unicode="&#xa9;" horiz-adv-x="850" 
d="M432 712q152 0 262 -112t110 -266q0 -157 -110.5 -268t-267.5 -111q-158 0 -268.5 111t-110.5 270q0 157 112 266.5t273 109.5zM431 649q-145 0 -240 -105q-81 -89 -81 -208q0 -133 92 -225.5t224 -92.5q131 0 223 92.5t92 223.5q0 127 -91.5 221t-218.5 94zM615 485
l-52 -50q-33 35 -59 48t-63 13q-66 0 -111.5 -47t-45.5 -116q0 -68 45.5 -115t111.5 -47q36 0 61.5 12.5t62.5 49.5l52 -51l-6 -5q-77 -77 -169 -77q-97 0 -165.5 68t-68.5 165t68 165.5t165 68.5q55 0 93.5 -20t80.5 -62z" />
    <glyph glyph-name="ordfeminine" unicode="&#xaa;" horiz-adv-x="355" 
d="M315 672v-266h-63v24q-38 -32 -81 -32q-59 0 -100 41t-41 99q0 59 41.5 100.5t99.5 41.5q45 0 81 -33v25h63zM175 624q-36 0 -59 -23.5t-23 -60.5q0 -39 22 -62.5t59 -23.5q35 0 57.5 24t22.5 61t-22 61t-57 24z" />
    <glyph glyph-name="guillemotleft" unicode="&#xab;" horiz-adv-x="449" 
d="M126 222l120 -148l-57 -45l-156 193l156 196l57 -44zM282 222l119 -148l-56 -45l-157 193l157 196l56 -44z" />
    <glyph glyph-name="logicalnot" unicode="&#xac;" horiz-adv-x="673" 
d="M610 350v-276h-84v199h-463v77h547z" />
    <glyph glyph-name="uni00AD" unicode="&#xad;" horiz-adv-x="263" 
d="M28 273v78h207v-78h-207z" />
    <glyph glyph-name="registered" unicode="&#xae;" horiz-adv-x="850" 
d="M430 712q153 0 263.5 -111.5t110.5 -266.5q0 -158 -111 -268.5t-268 -110.5q-156 0 -267 110.5t-111 266.5q0 160 111 270t272 110zM431 649q-145 0 -240 -105q-81 -89 -81 -208q0 -133 92 -225.5t224 -92.5q131 0 223 92.5t92 223.5q0 127 -91.5 221t-218.5 94zM500 296
l110 -188h-84l-100 174l-23 -1h-35v-173h-74v450h119q64 0 98 -20q30 -17 48 -49.5t18 -69.5q0 -88 -77 -123zM419 489h-51v-139h51q84 0 84 69q0 70 -84 70z" />
    <glyph glyph-name="macron" unicode="&#xaf;" horiz-adv-x="476" 
d="M95 552v77h286v-77h-286z" />
    <glyph glyph-name="degree" unicode="&#xb0;" horiz-adv-x="341" 
d="M206 741q56 0 97 -41.5t41 -98.5q0 -59 -41 -100.5t-99 -41.5q-59 0 -100 41.5t-41 100.5t41.5 99.5t101.5 40.5zM205 676q-32 0 -54.5 -22t-22.5 -53q0 -32 22 -54.5t54 -22.5q31 0 53 22.5t22 53.5t-22 53.5t-52 22.5z" />
    <glyph glyph-name="plusminus" unicode="&#xb1;" horiz-adv-x="556" 
d="M40 76h476v-76h-476v76zM40 405h199v200h78v-200h199v-75h-199v-201h-78v201h-199v75z" />
    <glyph glyph-name="twosuperior" unicode="&#xb2;" horiz-adv-x="387" 
d="M326 406h-262v51l147 158q42 45 42 82q0 23 -16.5 37t-44.5 14q-30 0 -45 -13.5t-26 -48.5l-60 16q11 50 45 78t86 28q56 0 90.5 -31t34.5 -81q0 -57 -43 -102l-119 -129h171v-59z" />
    <glyph glyph-name="threesuperior" unicode="&#xb3;" horiz-adv-x="387" 
d="M186 583h-28v58h28q31 0 48 14t17 40q0 24 -16.5 38.5t-43.5 14.5q-22 0 -37 -9.5t-32 -33.5l-54 30q44 73 123 73q54 0 89 -31.5t35 -80.5t-37 -80q46 -36 46 -93q0 -55 -38.5 -90t-97.5 -35q-50 0 -84 26t-48 74l-2 10l64 16q9 -36 24.5 -51t44.5 -15q32 0 52 18t20 47
q0 60 -73 60z" />
    <glyph glyph-name="acute" unicode="&#xb4;" horiz-adv-x="476" 
d="M293 687l82 -44l-135 -136l-55 32z" />
    <glyph glyph-name="mu" unicode="&#xb5;" horiz-adv-x="509" 
d="M450 443v-443h-86v37q-48 -50 -114 -50q-60 0 -104 50v-270h-86v676h86v-232q0 -67 21 -105.5t83 -38.5q32 0 58 13.5t38 35.5q18 33 18 106v221h86z" />
    <glyph glyph-name="paragraph" unicode="&#xb6;" horiz-adv-x="642" 
d="M289 -233v447h-8q-91 0 -154.5 66t-63.5 160q0 96 64 161.5t157 65.5h311v-74h-65v-826h-77v826h-87v-826h-77z" />
    <glyph glyph-name="periodcentered" unicode="&#xb7;" horiz-adv-x="232" 
d="M116 366q23 0 39 -16t16 -38t-16 -38t-39 -16t-39 16t-16 39q0 22 16 37.5t39 15.5z" />
    <glyph glyph-name="cedilla" unicode="&#xb8;" horiz-adv-x="476" 
d="M160 -181l91 142l79 -33l-110 -139z" />
    <glyph glyph-name="onesuperior" unicode="&#xb9;" horiz-adv-x="387" 
d="M241 801v-395h-65v320l-55 -31l-31 52l98 54h53z" />
    <glyph glyph-name="ordmasculine" unicode="&#xba;" horiz-adv-x="348" 
d="M176 680q59 0 100.5 -41t41.5 -100t-41.5 -100t-102.5 -41t-102.5 41t-41.5 101q0 59 42 99.5t104 40.5zM175 623q-37 0 -59.5 -23t-22.5 -60q0 -38 22.5 -61.5t58.5 -23.5t58.5 23.5t22.5 60.5t-22.5 60.5t-57.5 23.5z" />
    <glyph glyph-name="guillemotright" unicode="&#xbb;" horiz-adv-x="449" 
d="M103 29l-56 45l120 148l-120 152l56 44l157 -196zM259 29l-57 45l120 148l-120 152l57 44l156 -196z" />
    <glyph glyph-name="onequarter" unicode="&#xbc;" horiz-adv-x="833" 
d="M159 15l384 665l49 -29l-384 -664zM443 83v56l174 266l53 -32l-151 -231h99v96h65v-96h48v-59h-48v-83h-65v83h-175zM208 667v-395h-65v320l-55 -31l-31 52l98 54h53z" />
    <glyph glyph-name="onehalf" unicode="&#xbd;" horiz-adv-x="833" 
d="M158 15l384 665l49 -29l-384 -664zM757 0h-262v51l147 158q42 45 42 82q0 23 -16.5 37t-44.5 14q-30 0 -45 -13.5t-26 -48.5l-60 16q26 106 131 106q56 0 90.5 -31t34.5 -81q0 -57 -43 -102l-119 -129h171v-59zM207 667v-395h-65v320l-55 -31l-31 52l98 54h53z" />
    <glyph glyph-name="threequarters" unicode="&#xbe;" horiz-adv-x="833" 
d="M220 15l384 665l49 -29l-384 -664zM482 83v56l174 266l53 -32l-151 -231h99v96h65v-96h48v-59h-48v-83h-65v83h-175zM181 449h-28v59h28q65 0 65 54q0 24 -16.5 39t-43.5 15q-22 0 -36.5 -9.5t-32.5 -34.5l-54 29q45 74 123 74q54 0 89 -31.5t35 -80.5q0 -50 -37 -81
q46 -34 46 -93q0 -54 -38.5 -89t-97.5 -35q-104 0 -132 100l-2 9l64 17q9 -36 24.5 -51t44.5 -15q32 0 52 17.5t20 46.5q0 60 -73 60z" />
    <glyph glyph-name="questiondown" unicode="&#xbf;" horiz-adv-x="426" 
d="M193 326h87v-72q-1 -49 -11 -71.5t-48 -55.5l-43 -36q-60 -53 -60 -109q0 -43 29 -69t77 -26q40 0 66.5 17t56.5 63l65 -53q-62 -110 -184 -110q-90 0 -144 48.5t-54 129.5q0 47 18.5 83t64.5 79l48 46q23 21 27 30t5 42v64zM237 494q23 0 39.5 -17t16.5 -40t-17 -39.5
t-40 -16.5t-39.5 16.5t-16.5 39.5q0 24 16.5 40.5t40.5 16.5z" />
    <glyph glyph-name="Agrave" unicode="&#xc0;" horiz-adv-x="625" 
d="M460 180h-297l-67 -180h-93l254 667h111l254 -667h-94zM311 577l-117 -314h235zM310 707l-135 135l83 45l107 -148z" />
    <glyph glyph-name="Aacute" unicode="&#xc1;" horiz-adv-x="625" 
d="M460 180h-297l-67 -180h-93l254 667h111l254 -667h-94zM311 577l-117 -314h235zM364 887l83 -45l-135 -135l-55 32z" />
    <glyph glyph-name="Acircumflex" unicode="&#xc2;" horiz-adv-x="625" 
d="M460 180h-297l-67 -180h-93l254 667h111l254 -667h-94zM311 577l-117 -314h235zM403 707l-91 87l-91 -87l-63 32l123 134h63l122 -134z" />
    <glyph glyph-name="Atilde" unicode="&#xc3;" horiz-adv-x="625" 
d="M460 180h-297l-67 -180h-93l254 667h111l254 -667h-94zM311 577l-117 -314h235zM385 849l70 -17q-8 -96 -85 -96q-32 0 -70 19q-26 14 -41 14q-14 0 -21 -36l-69 16q5 46 27.5 71t58.5 25q29 0 73 -21q23 -12 39 -12q15 0 18 37z" />
    <glyph glyph-name="Adieresis" unicode="&#xc4;" horiz-adv-x="625" 
d="M460 180h-297l-67 -180h-93l254 667h111l254 -667h-94zM311 577l-117 -314h235zM220 847q23 0 40 -16.5t17 -39.5q0 -24 -17 -40.5t-41 -16.5q-23 0 -39.5 17t-16.5 40t17 39.5t40 16.5zM404 847q24 0 40.5 -16.5t16.5 -39.5q0 -24 -16.5 -40.5t-40.5 -16.5t-40.5 17
t-16.5 40t17 39.5t40 16.5z" />
    <glyph glyph-name="Aring" unicode="&#xc5;" horiz-adv-x="625" 
d="M460 180h-297l-67 -180h-93l254 667h111l254 -667h-94zM311 577l-117 -314h235zM312 885q40 0 68 -27.5t28 -66.5t-28 -66.5t-68 -27.5t-68 28t-28 68q0 37 28.5 64.5t67.5 27.5zM312 843q-21 0 -36.5 -15t-15.5 -36q0 -22 15 -37.5t37 -15.5t37 15t15 37t-15 37t-37 15z
" />
    <glyph glyph-name="AE" unicode="&#xc6;" horiz-adv-x="840" 
d="M438 0v180h-244l-91 -180h-100l345 667h443v-82h-264v-206h234v-83h-234v-213h274v-83h-363zM237 263h201v322h-38z" />
    <glyph glyph-name="Ccedilla" unicode="&#xc7;" horiz-adv-x="666" 
d="M633 567l-62 -60q-46 48 -89 68.5t-98 20.5q-108 0 -181.5 -76t-73.5 -187q0 -110 74 -186t181 -76q55 0 98 20.5t92 70.5l62 -61q-60 -60 -119 -87t-131 -27q-145 0 -246 101t-101 245q0 145 101 246t245 101q72 0 130 -26.5t118 -86.5zM256 -181l91 142l78 -33
l-109 -139z" />
    <glyph glyph-name="Egrave" unicode="&#xc8;" horiz-adv-x="478" 
d="M430 667v-82h-264v-206h234v-83h-234v-213h274v-83h-363v667h353zM264 707l-134 135l82 45l108 -148z" />
    <glyph glyph-name="Eacute" unicode="&#xc9;" horiz-adv-x="478" 
d="M430 667v-82h-264v-206h234v-83h-234v-213h274v-83h-363v667h353zM305 887l83 -45l-135 -135l-56 32z" />
    <glyph glyph-name="Ecircumflex" unicode="&#xca;" horiz-adv-x="478" 
d="M430 667v-82h-264v-206h234v-83h-234v-213h274v-83h-363v667h353zM349 707l-90 87l-91 -87l-63 32l122 134h63l122 -134z" />
    <glyph glyph-name="Edieresis" unicode="&#xcb;" horiz-adv-x="478" 
d="M430 667v-82h-264v-206h234v-83h-234v-213h274v-83h-363v667h353zM165 847q24 0 40.5 -16.5t16.5 -39.5q0 -24 -17 -40.5t-40 -16.5q-24 0 -40.5 16.5t-16.5 40.5q0 23 17 39.5t40 16.5zM349 847q24 0 40.5 -16.5t16.5 -39.5q0 -24 -16.5 -40.5t-40.5 -16.5t-40.5 16.5
t-16.5 40.5q0 23 17 39.5t40 16.5z" />
    <glyph glyph-name="Igrave" unicode="&#xcc;" horiz-adv-x="243" 
d="M77 667h89v-667h-89v667zM118 707l-135 135l83 45l107 -148z" />
    <glyph glyph-name="Iacute" unicode="&#xcd;" horiz-adv-x="243" 
d="M76 667h89v-667h-89v667zM177 887l82 -45l-135 -135l-55 32z" />
    <glyph glyph-name="Icircumflex" unicode="&#xce;" horiz-adv-x="243" 
d="M76 667h89v-667h-89v667zM212 707l-91 87l-91 -87l-63 32l123 134h62l123 -134z" />
    <glyph glyph-name="Idieresis" unicode="&#xcf;" horiz-adv-x="243" 
d="M77 667h89v-667h-89v667zM52 847q23 0 40 -16.5t17 -39.5q0 -24 -17 -40.5t-41 -16.5q-23 0 -39.5 17t-16.5 40t17 39.5t40 16.5zM191 847q24 0 40.5 -16.5t16.5 -39.5q0 -24 -16.5 -40.5t-40.5 -16.5t-40.5 16.5t-16.5 40.5q0 23 17 39.5t40 16.5z" />
    <glyph glyph-name="Eth" unicode="&#xd0;" horiz-adv-x="633" 
d="M90 319h-65v80h65v268h142q167 0 264.5 -90t97.5 -244q0 -153 -98 -243t-264 -90h-142v319zM179 584v-185h155v-80h-155v-236h56q124 0 196.5 67t72.5 183t-72 183.5t-197 67.5h-56z" />
    <glyph glyph-name="Ntilde" unicode="&#xd1;" horiz-adv-x="709" 
d="M166 0h-89v667h80l387 -518v518h89v-667h-80l-387 518v-518zM434 849l70 -17q-9 -96 -86 -96q-32 0 -70 19q-26 14 -41 14q-14 0 -21 -36l-69 16q5 46 27.5 71t58.5 25q31 0 73 -21q22 -12 39 -12q15 0 19 37z" />
    <glyph glyph-name="Ograve" unicode="&#xd2;" horiz-adv-x="763" 
d="M382 680q141 0 242 -102t101 -245q0 -142 -101 -244t-241 -102q-143 0 -243.5 102.5t-100.5 248.5q0 138 102 240t241 102zM382 596q-104 0 -178.5 -76t-74.5 -183q0 -111 73.5 -188.5t179.5 -77.5q104 0 178.5 77t74.5 185q0 109 -74 186t-179 77zM381 707l-135 135
l83 45l107 -148z" />
    <glyph glyph-name="Oacute" unicode="&#xd3;" horiz-adv-x="763" 
d="M382 680q141 0 242 -102t101 -245q0 -142 -101 -244t-241 -102q-143 0 -243.5 102.5t-100.5 248.5q0 138 102 240t241 102zM382 596q-104 0 -178.5 -76t-74.5 -183q0 -111 73.5 -188.5t179.5 -77.5q104 0 178.5 77t74.5 185q0 109 -74 186t-179 77zM435 887l83 -45
l-135 -135l-55 32z" />
    <glyph glyph-name="Ocircumflex" unicode="&#xd4;" horiz-adv-x="763" 
d="M382 680q141 0 242 -102t101 -245q0 -142 -101 -244t-241 -102q-143 0 -243.5 102.5t-100.5 248.5q0 138 102 240t241 102zM382 596q-104 0 -178.5 -76t-74.5 -183q0 -111 73.5 -188.5t179.5 -77.5q104 0 178.5 77t74.5 185q0 109 -74 186t-179 77zM473 707l-91 87
l-91 -87l-63 32l123 134h62l123 -134z" />
    <glyph glyph-name="Otilde" unicode="&#xd5;" horiz-adv-x="763" 
d="M382 680q141 0 242 -102t101 -245q0 -142 -101 -244t-241 -102q-143 0 -243.5 102.5t-100.5 248.5q0 138 102 240t241 102zM382 596q-104 0 -178.5 -76t-74.5 -183q0 -111 73.5 -188.5t179.5 -77.5q104 0 178.5 77t74.5 185q0 109 -74 186t-179 77zM455 849l70 -17
q-8 -96 -85 -96q-33 0 -71 19q-25 14 -40 14q-16 0 -21 -36l-69 16q4 46 27 71t59 25q30 0 72 -21q24 -12 39 -12q16 0 19 37z" />
    <glyph glyph-name="Odieresis" unicode="&#xd6;" horiz-adv-x="763" 
d="M382 680q141 0 242 -102t101 -245q0 -142 -101 -244t-241 -102q-143 0 -243.5 102.5t-100.5 248.5q0 138 102 240t241 102zM382 596q-104 0 -178.5 -76t-74.5 -183q0 -111 73.5 -188.5t179.5 -77.5q104 0 178.5 77t74.5 185q0 109 -74 186t-179 77zM290 847
q24 0 40.5 -16.5t16.5 -39.5q0 -24 -17 -40.5t-41 -16.5q-23 0 -39.5 17t-16.5 40t17 39.5t40 16.5zM474 847q24 0 40.5 -16.5t16.5 -39.5q0 -24 -16.5 -40.5t-40.5 -16.5t-40.5 16.5t-16.5 40.5q0 23 17 39.5t40 16.5z" />
    <glyph glyph-name="multiply" unicode="&#xd7;" horiz-adv-x="556" 
d="M83 171l141 141l-141 141l54 54l141 -141l141 141l54 -54l-141 -141l141 -141l-54 -54l-141 141l-141 -141z" />
    <glyph glyph-name="Oslash" unicode="&#xd8;" horiz-adv-x="771" 
d="M99 -2l-49 47l70 70q-78 98 -78 218q0 143 101 245t243 102q120 0 216 -80l69 69l49 -47l-70 -70q78 -98 78 -218q0 -143 -101 -245t-243 -102q-122 0 -216 80zM182 177l360 362q-73 57 -155 57q-107 0 -181 -76.5t-74 -188.5q0 -82 50 -154zM588 490l-359 -362
q71 -57 155 -57q106 0 180 77t74 186q0 83 -50 156z" />
    <glyph glyph-name="Ugrave" unicode="&#xd9;" horiz-adv-x="637" 
d="M77 235v432h89v-412q0 -83 19 -115q17 -31 54.5 -50t79.5 -19q41 0 78.5 19t54.5 50q19 34 19 115v412h89v-432q0 -81 -28 -133q-31 -53 -88.5 -84t-124.5 -31t-125 31t-89 84q-28 49 -28 133zM324 707l-134 135l82 45l108 -148z" />
    <glyph glyph-name="Uacute" unicode="&#xda;" horiz-adv-x="637" 
d="M77 235v432h89v-412q0 -83 19 -115q17 -31 54.5 -50t79.5 -19q41 0 78.5 19t54.5 50q19 34 19 115v412h89v-432q0 -81 -28 -133q-31 -53 -88.5 -84t-124.5 -31t-125 31t-89 84q-28 49 -28 133zM365 887l83 -45l-135 -135l-55 32z" />
    <glyph glyph-name="Ucircumflex" unicode="&#xdb;" horiz-adv-x="637" 
d="M77 235v432h89v-412q0 -83 19 -115q17 -31 54.5 -50t79.5 -19q41 0 78.5 19t54.5 50q19 34 19 115v412h89v-432q0 -81 -28 -133q-31 -53 -88.5 -84t-124.5 -31t-125 31t-89 84q-28 49 -28 133zM410 707l-91 87l-91 -87l-63 32l123 134h62l123 -134z" />
    <glyph glyph-name="Udieresis" unicode="&#xdc;" horiz-adv-x="637" 
d="M77 235v432h89v-412q0 -83 19 -115q17 -31 54.5 -50t79.5 -19q41 0 78.5 19t54.5 50q19 34 19 115v412h89v-432q0 -81 -28 -133q-31 -53 -88.5 -84t-124.5 -31t-125 31t-89 84q-28 49 -28 133zM227 847q23 0 40 -16.5t17 -39.5q0 -24 -17 -40.5t-40 -16.5
q-24 0 -40.5 16.5t-16.5 40.5q0 23 17 39.5t40 16.5zM410 847q24 0 40.5 -16.5t16.5 -39.5q0 -24 -16.5 -40.5t-40.5 -16.5t-40.5 17t-16.5 40t17 39.5t40 16.5z" />
    <glyph glyph-name="Yacute" unicode="&#xdd;" horiz-adv-x="518" 
d="M423 667h98l-217 -389v-278h-89v278l-218 389h98l164 -302zM305 887l83 -45l-135 -135l-55 32z" />
    <glyph glyph-name="Thorn" unicode="&#xde;" horiz-adv-x="469" 
d="M166 667v-97h53q92 0 140 -28q44 -25 69 -71.5t25 -101.5q0 -56 -25.5 -102.5t-68.5 -71.5q-48 -28 -140 -28h-53v-167h-89v667h89zM166 488v-240h62q137 0 137 120t-137 120h-62z" />
    <glyph glyph-name="germandbls" unicode="&#xdf;" horiz-adv-x="520" 
d="M146 0h-86v496q0 79 51.5 131.5t128.5 52.5q84 0 136 -51t52 -133t-52 -128q103 -55 103 -172q0 -88 -61 -142t-160 -54h-57v81h60q59 0 95.5 33t36.5 86q0 58 -37.5 87t-96.5 29h-10v77h10q40 0 62.5 26.5t22.5 74.5q0 50 -27 79.5t-72 29.5t-72 -29.5t-27 -77.5v-496z
" />
    <glyph glyph-name="agrave" unicode="&#xe0;" 
d="M487 443v-443h-86v48q-42 -34 -74 -47.5t-70 -13.5q-94 0 -160 69t-66 166t66 165.5t160 68.5q38 0 69.5 -13.5t74.5 -47.5v48h86zM263 379q-65 0 -105.5 -43.5t-40.5 -114.5q0 -69 40.5 -113t103.5 -44t102.5 44t39.5 114q0 68 -39.5 112.5t-100.5 44.5zM258 507
l-135 136l83 44l107 -148z" />
    <glyph glyph-name="aacute" unicode="&#xe1;" 
d="M487 443v-443h-86v48q-42 -34 -74 -47.5t-70 -13.5q-94 0 -160 69t-66 166t66 165.5t160 68.5q38 0 69.5 -13.5t74.5 -47.5v48h86zM263 379q-65 0 -105.5 -43.5t-40.5 -114.5q0 -69 40.5 -113t103.5 -44t102.5 44t39.5 114q0 68 -39.5 112.5t-100.5 44.5zM319 687l82 -44
l-134 -136l-56 32z" />
    <glyph glyph-name="acircumflex" unicode="&#xe2;" 
d="M487 443v-443h-86v48q-42 -34 -74 -47.5t-70 -13.5q-94 0 -160 69t-66 166t66 165.5t160 68.5q38 0 69.5 -13.5t74.5 -47.5v48h86zM263 379q-65 0 -105.5 -43.5t-40.5 -114.5q0 -69 40.5 -113t103.5 -44t102.5 44t39.5 114q0 68 -39.5 112.5t-100.5 44.5zM350 508l-91 87
l-91 -87l-63 31l123 134h62l123 -134z" />
    <glyph glyph-name="atilde" unicode="&#xe3;" 
d="M487 443v-443h-86v48q-42 -34 -74 -47.5t-70 -13.5q-94 0 -160 69t-66 166t66 165.5t160 68.5q38 0 69.5 -13.5t74.5 -47.5v48h86zM263 379q-65 0 -105.5 -43.5t-40.5 -114.5q0 -69 40.5 -113t103.5 -44t102.5 44t39.5 114q0 68 -39.5 112.5t-100.5 44.5zM332 649l70 -16
q-8 -97 -85 -97q-34 0 -71 20q-25 14 -40 14q-16 0 -21 -37l-69 16q5 47 27.5 72t58.5 25q30 0 73 -22q22 -12 39 -12q15 0 18 37z" />
    <glyph glyph-name="adieresis" unicode="&#xe4;" 
d="M487 443v-443h-86v48q-42 -34 -74 -47.5t-70 -13.5q-94 0 -160 69t-66 166t66 165.5t160 68.5q38 0 69.5 -13.5t74.5 -47.5v48h86zM263 379q-65 0 -105.5 -43.5t-40.5 -114.5q0 -69 40.5 -113t103.5 -44t102.5 44t39.5 114q0 68 -39.5 112.5t-100.5 44.5zM176 648
q24 0 40.5 -16.5t16.5 -39.5q0 -24 -17 -40.5t-40 -16.5q-24 0 -40.5 16.5t-16.5 40.5q0 23 17 39.5t40 16.5zM359 648q24 0 40.5 -16.5t16.5 -39.5q0 -24 -16.5 -40.5t-40.5 -16.5t-40.5 17t-16.5 40t17 39.5t40 16.5z" />
    <glyph glyph-name="aring" unicode="&#xe5;" 
d="M487 443v-443h-86v48q-42 -34 -74 -47.5t-70 -13.5q-94 0 -160 69t-66 166t66 165.5t160 68.5q38 0 69.5 -13.5t74.5 -47.5v48h86zM263 379q-65 0 -105.5 -43.5t-40.5 -114.5q0 -69 40.5 -113t103.5 -44t102.5 44t39.5 114q0 68 -39.5 112.5t-100.5 44.5zM271 685
q40 0 68 -27.5t28 -66.5t-28 -66.5t-68 -27.5t-68 28t-28 68q0 37 28.5 64.5t67.5 27.5zM271 643q-21 0 -36.5 -15t-15.5 -36q0 -22 15 -37.5t37 -15.5t37 15t15 37t-15 37t-37 15z" />
    <glyph glyph-name="ae" unicode="&#xe6;" horiz-adv-x="819" 
d="M707 139l75 -31q-73 -121 -203 -121q-101 0 -167 78q-47 -78 -176 -78q-94 0 -149.5 41t-55.5 111t50.5 109.5t139.5 39.5h131q-8 47 -37.5 69.5t-84.5 22.5q-75 0 -140 -51l-42 56q86 71 191 71q125 0 169 -81q64 81 165 81q94 0 154.5 -68.5t60.5 -174.5q0 -12 -1 -26
h-344q10 -57 46.5 -90t89.5 -33q38 0 70.5 17t50.5 46q5 10 7 12zM355 145v74h-120q-119 0 -119 -79q0 -37 31 -57t89 -20q119 0 119 82zM443 256h260q-11 58 -45 91t-84 33q-51 0 -86 -33t-45 -91z" />
    <glyph glyph-name="ccedilla" unicode="&#xe7;" horiz-adv-x="460" 
d="M438 375l-57 -56q-30 33 -56.5 46.5t-61.5 13.5q-65 0 -105.5 -43.5t-40.5 -113.5q0 -71 40.5 -114.5t106.5 -43.5q37 0 63.5 14.5t56.5 49.5l57 -57q-78 -84 -177 -84t-166 67.5t-67 167.5q0 99 67 166.5t165 67.5q97 0 175 -81zM135 -181l91 142l79 -33l-110 -139z" />
    <glyph glyph-name="egrave" unicode="&#xe8;" horiz-adv-x="495" 
d="M463 187h-344q9 -57 45.5 -90t90.5 -33q37 0 70 17t50 46q6 10 8 12l74 -31q-71 -121 -202 -121q-95 0 -159.5 67.5t-64.5 167.5q0 98 63 166t155 68q94 0 154.5 -68.5t60.5 -174.5q0 -6 -1 -26zM119 256h259q-10 58 -44 91t-84 33q-51 0 -86 -33t-45 -91zM251 507
l-134 136l82 44l108 -148z" />
    <glyph glyph-name="eacute" unicode="&#xe9;" horiz-adv-x="495" 
d="M463 187h-344q9 -57 45.5 -90t90.5 -33q37 0 70 17t50 46q6 10 8 12l74 -31q-71 -121 -202 -121q-95 0 -159.5 67.5t-64.5 167.5q0 98 63 166t155 68q94 0 154.5 -68.5t60.5 -174.5q0 -6 -1 -26zM119 256h259q-10 58 -44 91t-84 33q-51 0 -86 -33t-45 -91zM296 687
l82 -44l-134 -136l-56 32z" />
    <glyph glyph-name="ecircumflex" unicode="&#xea;" horiz-adv-x="495" 
d="M463 187h-344q9 -57 45.5 -90t90.5 -33q37 0 70 17t50 46q6 10 8 12l74 -31q-71 -121 -202 -121q-95 0 -159.5 67.5t-64.5 167.5q0 98 63 166t155 68q94 0 154.5 -68.5t60.5 -174.5q0 -6 -1 -26zM119 256h259q-10 58 -44 91t-84 33q-51 0 -86 -33t-45 -91zM338 508
l-91 87l-91 -87l-63 31l123 134h62l123 -134z" />
    <glyph glyph-name="edieresis" unicode="&#xeb;" horiz-adv-x="495" 
d="M463 187h-344q9 -57 45.5 -90t90.5 -33q37 0 70 17t50 46q6 10 8 12l74 -31q-71 -121 -202 -121q-95 0 -159.5 67.5t-64.5 167.5q0 98 63 166t155 68q94 0 154.5 -68.5t60.5 -174.5q0 -6 -1 -26zM119 256h259q-10 58 -44 91t-84 33q-51 0 -86 -33t-45 -91zM155 648
q24 0 40.5 -16.5t16.5 -39.5q0 -24 -17 -40.5t-40 -16.5q-24 0 -40.5 16.5t-16.5 40.5q0 23 17 39.5t40 16.5zM339 648q24 0 40.5 -16.5t16.5 -39.5q0 -24 -16.5 -40.5t-40.5 -16.5t-40.5 16.5t-16.5 40.5q0 23 17 39.5t40 16.5z" />
    <glyph glyph-name="igrave" unicode="&#xec;" horiz-adv-x="206" 
d="M59 443h86v-443h-86v443zM96 507l-135 136l83 44l107 -148z" />
    <glyph glyph-name="iacute" unicode="&#xed;" horiz-adv-x="206" 
d="M61 443h86v-443h-86v443zM163 687l82 -44l-135 -136l-55 32z" />
    <glyph glyph-name="icircumflex" unicode="&#xee;" horiz-adv-x="206" 
d="M60 443h86v-443h-86v443zM194 508l-91 87l-91 -87l-63 31l123 134h62l123 -134z" />
    <glyph glyph-name="idieresis" unicode="&#xef;" horiz-adv-x="206" 
d="M61 443h86v-443h-86v443zM33 648q23 0 40 -16.5t17 -39.5q0 -24 -17 -40.5t-41 -16.5q-23 0 -39.5 17t-16.5 40t17 39.5t40 16.5zM172 648q24 0 40.5 -16.5t16.5 -39.5q0 -24 -16.5 -40.5t-40.5 -16.5t-40.5 17t-16.5 40t17 39.5t40 16.5z" />
    <glyph glyph-name="eth" unicode="&#xf0;" horiz-adv-x="528" 
d="M354 660l33 -40l-57 -31q166 -117 166 -335q0 -94 -36 -156q-30 -52 -82.5 -81.5t-113.5 -29.5q-97 0 -164 68t-67 166q0 97 65.5 165t157.5 68q60 0 103 -29q-6 7 -11 16q-39 60 -104 101l-93 -50l-34 41l67 36q-41 15 -89 21l12 76q101 -13 171 -47zM265 378
q-64 0 -104.5 -43.5t-40.5 -112.5t40 -113t104 -44q62 0 103 43.5t41 110.5q0 71 -39.5 115t-103.5 44z" />
    <glyph glyph-name="ntilde" unicode="&#xf1;" horiz-adv-x="509" 
d="M60 0v443h86v-41q48 54 122 54q49 0 90.5 -23t64.5 -62q27 -45 27 -132v-239h-86v231q0 68 -21 106.5t-83 38.5q-32 0 -58 -13.5t-38 -35.5q-18 -33 -18 -105v-222h-86zM331 649l70 -16q-8 -97 -85 -97q-35 0 -70 20q-26 14 -41 14q-14 0 -21 -37l-69 16q5 47 27.5 72
t58.5 25q30 0 73 -22q22 -12 39 -12q15 0 18 37z" />
    <glyph glyph-name="ograve" unicode="&#xf2;" horiz-adv-x="524" 
d="M265 456q95 0 161.5 -68t66.5 -166q0 -99 -67 -167t-164 -68t-164 68t-67 167q0 100 67 167t167 67zM264 379q-65 0 -106 -43t-41 -111q0 -72 40 -116.5t105 -44.5q64 0 104.5 44t40.5 114q0 68 -40.5 112.5t-102.5 44.5zM261 507l-135 136l83 44l107 -148z" />
    <glyph glyph-name="oacute" unicode="&#xf3;" horiz-adv-x="524" 
d="M265 456q95 0 161.5 -68t66.5 -166q0 -99 -67 -167t-164 -68t-164 68t-67 167q0 100 67 167t167 67zM264 379q-65 0 -106 -43t-41 -111q0 -72 40 -116.5t105 -44.5q64 0 104.5 44t40.5 114q0 68 -40.5 112.5t-102.5 44.5zM315 687l83 -44l-135 -136l-56 32z" />
    <glyph glyph-name="ocircumflex" unicode="&#xf4;" horiz-adv-x="524" 
d="M266 456q95 0 161 -68.5t66 -165.5q0 -100 -66.5 -167.5t-164.5 -67.5t-164.5 68t-66.5 169q0 98 67.5 165t167.5 67zM264 378q-66 0 -106.5 -43.5t-40.5 -114.5q0 -68 40.5 -112t104.5 -44t104.5 44t40.5 113t-40.5 113t-102.5 44zM353 508l-91 87l-91 -87l-63 31
l123 134h62l123 -134z" />
    <glyph glyph-name="otilde" unicode="&#xf5;" horiz-adv-x="524" 
d="M265 456q95 0 161.5 -68t66.5 -166q0 -99 -67 -167t-164 -68t-164 68t-67 167q0 100 67 167t167 67zM264 379q-65 0 -106 -43t-41 -111q0 -72 40 -116.5t105 -44.5q64 0 104.5 44t40.5 114q0 68 -40.5 112.5t-102.5 44.5zM335 649l70 -16q-9 -97 -85 -97q-34 0 -71 20
q-25 14 -40 14q-9 0 -13.5 -8t-8.5 -29l-68 16q5 47 27 72t59 25q31 0 72 -22q23 -12 39 -12q15 0 19 37z" />
    <glyph glyph-name="odieresis" unicode="&#xf6;" horiz-adv-x="524" 
d="M265 456q95 0 161.5 -68t66.5 -166q0 -99 -67 -167t-164 -68t-164 68t-67 167q0 100 67 167t167 67zM264 379q-65 0 -106 -43t-41 -111q0 -72 40 -116.5t105 -44.5q64 0 104.5 44t40.5 114q0 68 -40.5 112.5t-102.5 44.5zM169 648q24 0 40.5 -16.5t16.5 -39.5
q0 -24 -17 -40.5t-40 -16.5q-24 0 -40.5 16.5t-16.5 40.5q0 23 17 39.5t40 16.5zM353 648q24 0 40.5 -16.5t16.5 -39.5q0 -24 -16.5 -40.5t-40.5 -16.5t-40.5 16.5t-16.5 40.5q0 23 17 39.5t40 16.5z" />
    <glyph glyph-name="divide" unicode="&#xf7;" horiz-adv-x="556" 
d="M57 350h442v-76h-442v76zM279 197q24 0 41.5 -17.5t17.5 -42.5t-17.5 -42.5t-42.5 -17.5t-42.5 17.5t-17.5 42.5t18 42.5t43 17.5zM279 546q24 0 41.5 -17.5t17.5 -42.5t-17.5 -42.5t-42.5 -17.5t-42.5 17.5t-17.5 42.5t18 42.5t43 17.5z" />
    <glyph glyph-name="oslash" unicode="&#xf8;" horiz-adv-x="538" 
d="M82 -2l-44 43l44 42q-44 61 -44 138q0 100 67 167.5t165 67.5q81 0 144 -51l41 40l45 -43l-44 -42q44 -63 44 -137q0 -101 -66.5 -168.5t-165.5 -67.5q-82 0 -145 51zM141 140l216 210q-38 29 -87 29q-65 0 -105.5 -43.5t-40.5 -114.5q0 -42 17 -81zM396 303l-216 -210
q40 -29 88 -29q65 0 105.5 43.5t40.5 114.5q0 45 -18 81z" />
    <glyph glyph-name="ugrave" unicode="&#xf9;" horiz-adv-x="509" 
d="M450 443v-443h-86v41q-48 -54 -122 -54q-49 0 -90.5 23t-64.5 62q-27 45 -27 132v239h86v-231q0 -68 21 -106.5t83 -38.5q32 0 58 13.5t38 35.5q18 33 18 106v221h86zM256 507l-135 136l83 44l107 -148z" />
    <glyph glyph-name="uacute" unicode="&#xfa;" horiz-adv-x="509" 
d="M450 443v-443h-86v41q-48 -54 -122 -54q-49 0 -90.5 23t-64.5 62q-27 45 -27 132v239h86v-231q0 -68 21 -106.5t83 -38.5q32 0 58 13.5t38 35.5q18 33 18 106v221h86zM303 687l83 -44l-135 -136l-55 32z" />
    <glyph glyph-name="ucircumflex" unicode="&#xfb;" horiz-adv-x="509" 
d="M450 443v-443h-86v41q-48 -54 -122 -54q-49 0 -90.5 23t-64.5 62q-27 45 -27 132v239h86v-231q0 -68 21 -106.5t83 -38.5q32 0 58 13.5t38 35.5q18 33 18 106v221h86zM346 508l-91 87l-91 -87l-63 31l123 134h62l123 -134z" />
    <glyph glyph-name="udieresis" unicode="&#xfc;" horiz-adv-x="509" 
d="M450 443v-443h-86v41q-48 -54 -122 -54q-49 0 -90.5 23t-64.5 62q-27 45 -27 132v239h86v-231q0 -68 21 -106.5t83 -38.5q32 0 58 13.5t38 35.5q18 33 18 106v221h86zM163 648q23 0 40 -16.5t17 -39.5q0 -24 -17 -40.5t-40 -16.5q-24 0 -40.5 16.5t-16.5 40.5
q0 23 17 39.5t40 16.5zM347 648q24 0 40.5 -16.5t16.5 -39.5q0 -24 -16.5 -40.5t-40.5 -16.5t-40.5 17t-16.5 40t17 39.5t40 16.5z" />
    <glyph glyph-name="yacute" unicode="&#xfd;" horiz-adv-x="452" 
d="M156 -233h-89l111 253l-181 423h92l134 -319l139 319h92zM276 687l83 -44l-135 -136l-55 32z" />
    <glyph glyph-name="thorn" unicode="&#xfe;" horiz-adv-x="548" 
d="M61 -233v900h86v-272q42 34 74 47.5t70 13.5q94 0 160 -69t66 -166t-66 -165.5t-160 -68.5q-38 0 -69.5 13.5t-74.5 47.5v-281h-86zM288 378q-62 0 -101.5 -44t-39.5 -113t39 -113t99 -44q65 0 105.5 43.5t40.5 113.5q0 69 -40.5 113t-102.5 44z" />
    <glyph glyph-name="ydieresis" unicode="&#xff;" horiz-adv-x="452" 
d="M156 -233h-89l111 253l-181 423h92l134 -319l139 319h92zM134 648q24 0 40.5 -16.5t16.5 -39.5q0 -24 -17 -40.5t-40 -16.5q-24 0 -40.5 16.5t-16.5 40.5q0 23 17 39.5t40 16.5zM317 648q24 0 40.5 -16.5t16.5 -39.5q0 -24 -16.5 -40.5t-40.5 -16.5t-40.5 17t-16.5 40
t17 39.5t40 16.5z" />
    <glyph glyph-name="Amacron" unicode="&#x100;" horiz-adv-x="625" 
d="M460 180h-297l-67 -180h-93l254 667h111l254 -667h-94zM311 577l-117 -314h235zM169 752v77h286v-77h-286z" />
    <glyph glyph-name="amacron" unicode="&#x101;" 
d="M487 443v-443h-86v48q-42 -34 -74 -47.5t-70 -13.5q-94 0 -160 69t-66 166t66 165.5t160 68.5q38 0 69.5 -13.5t74.5 -47.5v48h86zM263 379q-65 0 -105.5 -43.5t-40.5 -114.5q0 -69 40.5 -113t103.5 -44t102.5 44t39.5 114q0 68 -39.5 112.5t-100.5 44.5zM128 552v77h286
v-77h-286z" />
    <glyph glyph-name="Abreve" unicode="&#x102;" horiz-adv-x="625" 
d="M460 180h-297l-67 -180h-93l254 667h111l254 -667h-94zM311 577l-117 -314h235zM174 853l73 6l1 -7q3 -70 63 -70q39 0 58 38q4 12 8 39l74 -6q-7 -68 -44 -106t-96 -38q-62 0 -99 39t-38 105z" />
    <glyph glyph-name="abreve" unicode="&#x103;" 
d="M487 443v-443h-86v48q-42 -34 -74 -47.5t-70 -13.5q-94 0 -160 69t-66 166t66 165.5t160 68.5q38 0 69.5 -13.5t74.5 -47.5v48h86zM263 379q-65 0 -105.5 -43.5t-40.5 -114.5q0 -69 40.5 -113t103.5 -44t102.5 44t39.5 114q0 68 -39.5 112.5t-100.5 44.5zM122 653l74 6
q1 -31 7 -41q17 -36 56 -36q57 0 67 77l73 -6q-7 -68 -44 -106t-96 -38q-61 0 -98.5 39t-38.5 105z" />
    <glyph glyph-name="Aogonek" unicode="&#x104;" horiz-adv-x="625" 
d="M3 0l254 667h111l254 -667l-4 -4q-33 -40 -33 -63q0 -20 25 -20q16 0 43 10l24 -63q-41 -16 -75 -16q-41 0 -68 24t-27 61q0 32 29 71h-8l-68 180h-297l-67 -180h-93zM311 577l-117 -314h235z" />
    <glyph glyph-name="aogonek" unicode="&#x105;" 
d="M401 0v48q-42 -34 -74 -47.5t-70 -13.5q-94 0 -160 69t-66 166t66 165.5t160 68.5q38 0 69.5 -13.5t74.5 -47.5v48h86v-443q-37 -45 -37 -67q0 -20 25 -20q16 0 43 10l25 -63q-43 -16 -75 -16q-41 0 -68.5 24t-27.5 61q0 32 29 71zM263 379q-65 0 -105.5 -43.5
t-40.5 -114.5q0 -69 40.5 -113t103.5 -44t102.5 44t39.5 114q0 68 -39.5 112.5t-100.5 44.5z" />
    <glyph glyph-name="Cacute" unicode="&#x106;" horiz-adv-x="666" 
d="M633 567l-62 -60q-46 48 -89 68.5t-98 20.5q-108 0 -181.5 -76t-73.5 -187q0 -110 74 -186t181 -76q55 0 98 20.5t92 70.5l62 -61q-60 -60 -119 -87t-131 -27q-145 0 -246 101t-101 245q0 145 101 246t245 101q72 0 130 -26.5t118 -86.5zM441 887l83 -45l-135 -135
l-55 32z" />
    <glyph glyph-name="cacute" unicode="&#x107;" horiz-adv-x="460" 
d="M438 375l-57 -56q-30 33 -56.5 46.5t-61.5 13.5q-65 0 -105.5 -43.5t-40.5 -113.5q0 -71 40.5 -114.5t106.5 -43.5q37 0 63.5 14.5t56.5 49.5l57 -57q-78 -84 -177 -84t-166 67.5t-67 167.5q0 99 67 166.5t165 67.5q97 0 175 -81zM301 687l82 -44l-134 -136l-56 32z" />
    <glyph glyph-name="Ccircumflex" unicode="&#x108;" horiz-adv-x="666" 
d="M633 567l-62 -60q-46 48 -89 68.5t-98 20.5q-108 0 -181.5 -76t-73.5 -187q0 -110 74 -186t181 -76q55 0 98 20.5t92 70.5l62 -61q-60 -60 -119 -87t-131 -27q-145 0 -246 101t-101 245q0 145 101 246t245 101q72 0 130 -26.5t118 -86.5zM462 707l-91 87l-90 -87l-63 32
l122 134h63l122 -134z" />
    <glyph glyph-name="ccircumflex" unicode="&#x109;" horiz-adv-x="460" 
d="M438 375l-57 -56q-30 33 -56.5 46.5t-61.5 13.5q-65 0 -105.5 -43.5t-40.5 -113.5q0 -71 40.5 -114.5t106.5 -43.5q37 0 63.5 14.5t56.5 49.5l57 -57q-78 -84 -177 -84t-166 67.5t-67 167.5q0 99 67 166.5t165 67.5q97 0 175 -81zM340 508l-90 87l-91 -87l-63 31l122 134
h63l122 -134z" />
    <glyph glyph-name="Cdotaccent" unicode="&#x10a;" horiz-adv-x="666" 
d="M633 567l-62 -60q-46 48 -89 68.5t-98 20.5q-108 0 -181.5 -76t-73.5 -187q0 -110 74 -186t181 -76q55 0 98 20.5t92 70.5l62 -61q-60 -60 -119 -87t-131 -27q-145 0 -246 101t-101 245q0 145 101 246t245 101q72 0 130 -26.5t118 -86.5zM380 847q24 0 40.5 -16.5
t16.5 -39.5q0 -24 -17 -40.5t-40 -16.5q-24 0 -40.5 16.5t-16.5 40.5q0 23 17 39.5t40 16.5z" />
    <glyph glyph-name="cdotaccent" unicode="&#x10b;" horiz-adv-x="460" 
d="M438 375l-57 -56q-30 33 -56.5 46.5t-61.5 13.5q-65 0 -105.5 -43.5t-40.5 -113.5q0 -71 40.5 -114.5t106.5 -43.5q37 0 63.5 14.5t56.5 49.5l57 -57q-78 -84 -177 -84t-166 67.5t-67 167.5q0 99 67 166.5t165 67.5q97 0 175 -81zM253 648q23 0 40 -16.5t17 -39.5
q0 -24 -17 -40.5t-41 -16.5q-23 0 -39.5 17t-16.5 40t17 39.5t40 16.5z" />
    <glyph glyph-name="Ccaron" unicode="&#x10c;" horiz-adv-x="666" 
d="M633 567l-62 -60q-46 48 -89 68.5t-98 20.5q-108 0 -181.5 -76t-73.5 -187q0 -110 74 -186t181 -76q55 0 98 20.5t92 70.5l62 -61q-60 -60 -119 -87t-131 -27q-145 0 -246 101t-101 245q0 145 101 246t245 101q72 0 130 -26.5t118 -86.5zM281 880l90 -87l91 87l63 -32
l-122 -134h-63l-122 134z" />
    <glyph glyph-name="ccaron" unicode="&#x10d;" horiz-adv-x="460" 
d="M438 375l-57 -56q-30 33 -56.5 46.5t-61.5 13.5q-65 0 -105.5 -43.5t-40.5 -113.5q0 -71 40.5 -114.5t106.5 -43.5q37 0 63.5 14.5t56.5 49.5l57 -57q-78 -84 -177 -84t-166 67.5t-67 167.5q0 99 67 166.5t165 67.5q97 0 175 -81zM159 680l91 -87l90 87l63 -31l-122 -135
h-63l-122 135z" />
    <glyph glyph-name="Dcaron" unicode="&#x10e;" horiz-adv-x="619" 
d="M77 0v667h142q166 0 263.5 -90t97.5 -243q0 -154 -97.5 -244t-263.5 -90h-142zM222 584h-56v-501h56q124 0 196 67.5t72 183.5q0 115 -72 182.5t-196 67.5zM200 880l91 -87l91 87l63 -32l-123 -134h-62l-123 134z" />
    <glyph glyph-name="dcaron" unicode="&#x10f;" horiz-adv-x="653" 
d="M487 667v-667h-86v48q-42 -34 -74 -47.5t-70 -13.5q-94 0 -160 69t-66 166t66 165.5t160 68.5q38 0 69.5 -13.5t74.5 -47.5v272h86zM263 378q-65 0 -105.5 -43.5t-40.5 -113.5q0 -69 40.5 -113t102.5 -44t101.5 44t39.5 113t-39 113t-99 44zM591 497l-62 20l51 170
l82 -25z" />
    <glyph glyph-name="Dcroat" unicode="&#x110;" horiz-adv-x="633" 
d="M90 319h-65v80h65v268h142q167 0 264.5 -90t97.5 -244q0 -153 -98 -243t-264 -90h-142v319zM179 584v-185h155v-80h-155v-236h56q124 0 196.5 67t72.5 183t-72 183.5t-197 67.5h-56z" />
    <glyph glyph-name="dcroat" unicode="&#x111;" 
d="M284 591h117v76h86v-76h59v-77h-59v-514h-86v48q-43 -34 -74.5 -47.5t-69.5 -13.5q-94 0 -160 69t-66 166t66 165.5t160 68.5q38 0 69.5 -13.5t74.5 -47.5v119h-117v77zM263 379q-65 0 -105.5 -43.5t-40.5 -114.5q0 -69 40.5 -113t103.5 -44q62 0 101 44t39 114
q0 69 -39 113t-99 44z" />
    <glyph glyph-name="Emacron" unicode="&#x112;" horiz-adv-x="478" 
d="M430 667v-82h-264v-206h234v-83h-234v-213h274v-83h-363v667h353zM115 752v77h287v-77h-287z" />
    <glyph glyph-name="emacron" unicode="&#x113;" horiz-adv-x="495" 
d="M463 187h-344q9 -57 45.5 -90t90.5 -33q37 0 70 17t50 46q6 10 8 12l74 -31q-71 -121 -202 -121q-95 0 -159.5 67.5t-64.5 167.5q0 98 63 166t155 68q94 0 154.5 -68.5t60.5 -174.5q0 -6 -1 -26zM119 256h259q-10 58 -44 91t-84 33q-51 0 -86 -33t-45 -91zM104 552v77
h286v-77h-286z" />
    <glyph glyph-name="Ebreve" unicode="&#x114;" horiz-adv-x="478" 
d="M430 667v-82h-264v-206h234v-83h-234v-213h274v-83h-363v667h353zM120 853l73 6l1 -7q3 -70 63 -70q39 0 58 38q4 12 8 39l74 -6q-7 -68 -44 -106t-96 -38q-62 0 -99 39t-38 105z" />
    <glyph glyph-name="ebreve" unicode="&#x115;" horiz-adv-x="495" 
d="M463 187h-344q9 -57 45.5 -90t90.5 -33q37 0 70 17t50 46q6 10 8 12l74 -31q-71 -121 -202 -121q-95 0 -159.5 67.5t-64.5 167.5q0 98 63 166t155 68q94 0 154.5 -68.5t60.5 -174.5q0 -6 -1 -26zM119 256h259q-10 58 -44 91t-84 33q-51 0 -86 -33t-45 -91zM111 653l74 6
q1 -29 6 -41q19 -36 57 -36q58 0 66 77l74 -6q-7 -67 -44 -105.5t-96 -38.5q-61 0 -98 39t-39 105z" />
    <glyph glyph-name="Edotaccent" unicode="&#x116;" horiz-adv-x="478" 
d="M430 667v-82h-264v-206h234v-83h-234v-213h274v-83h-363v667h353zM258 847q24 0 40.5 -16.5t16.5 -39.5q0 -24 -17 -40.5t-40 -16.5q-24 0 -40.5 16.5t-16.5 40.5q0 23 17 39.5t40 16.5z" />
    <glyph glyph-name="edotaccent" unicode="&#x117;" horiz-adv-x="495" 
d="M463 187h-344q9 -57 45.5 -90t90.5 -33q37 0 70 17t50 46q6 10 8 12l74 -31q-71 -121 -202 -121q-95 0 -159.5 67.5t-64.5 167.5q0 98 63 166t155 68q94 0 154.5 -68.5t60.5 -174.5q0 -6 -1 -26zM119 256h259q-10 58 -44 91t-84 33q-51 0 -86 -33t-45 -91zM247 648
q23 0 40 -16.5t17 -39.5q0 -24 -17 -40.5t-41 -16.5q-23 0 -39.5 17t-16.5 40t17 39.5t40 16.5z" />
    <glyph glyph-name="Eogonek" unicode="&#x118;" horiz-adv-x="478" 
d="M166 83h274v-83q-37 -45 -37 -67q0 -20 25 -20q16 0 43 10l25 -63q-43 -16 -75 -16q-41 0 -68.5 24t-27.5 61q0 33 29 71h-277v667h353v-82h-264v-206h234v-83h-234v-213z" />
    <glyph glyph-name="eogonek" unicode="&#x119;" horiz-adv-x="495" 
d="M383 139l74 -31q-58 -101 -169 -119q-28 -34 -28 -56q0 -20 24 -20q16 0 43 9l25 -62q-43 -16 -75 -16q-41 0 -68 24t-27 60q0 31 24 64q-79 18 -127 81t-48 149q0 98 63 166t155 68q94 0 154.5 -68.5t60.5 -174.5q0 -6 -1 -26h-344q9 -57 45.5 -90t90.5 -33q37 0 70 17
t50 46q6 10 8 12zM119 256h259q-10 58 -44 91t-84 33q-51 0 -86 -33t-45 -91z" />
    <glyph glyph-name="Ecaron" unicode="&#x11a;" horiz-adv-x="478" 
d="M430 667v-82h-264v-206h234v-83h-234v-213h274v-83h-363v667h353zM168 880l91 -87l90 87l63 -32l-122 -134h-63l-122 134z" />
    <glyph glyph-name="ecaron" unicode="&#x11b;" horiz-adv-x="495" 
d="M463 187h-344q9 -57 45.5 -90t90.5 -33q37 0 70 17t50 46q6 10 8 12l74 -31q-71 -121 -202 -121q-95 0 -159.5 67.5t-64.5 167.5q0 98 63 166t155 68q94 0 154.5 -68.5t60.5 -174.5q0 -6 -1 -26zM119 256h259q-10 58 -44 91t-84 33q-51 0 -86 -33t-45 -91zM156 680
l91 -87l91 87l63 -31l-123 -135h-62l-123 135z" />
    <glyph glyph-name="Gcircumflex" unicode="&#x11c;" horiz-adv-x="727" 
d="M402 269v83h285v-44q0 -145 -82 -233t-217 -88q-146 0 -247.5 100.5t-101.5 245.5t101 246t246 101q71 0 128.5 -26t118.5 -86l-62 -61q-45 48 -88 68.5t-98 20.5q-109 0 -182.5 -75.5t-73.5 -187.5q0 -110 74.5 -186t182.5 -76q111 0 170 81q32 46 39 117h-193zM460 707
l-91 87l-90 -87l-63 32l122 134h63l122 -134z" />
    <glyph glyph-name="gcircumflex" unicode="&#x11d;" 
d="M401 443h86v-451q0 -106 -65 -172t-169 -66q-67 0 -114 25t-94 78l56 56l6 -6q34 -40 64 -57.5t79 -17.5q71 0 111 42t40 118v56q-64 -61 -143 -61q-94 0 -160.5 68.5t-66.5 166.5q0 97 66 165.5t161 68.5q79 0 143 -61v48zM263 379q-65 0 -105.5 -43.5t-40.5 -114.5
q0 -69 40.5 -113t103.5 -44q62 0 101.5 44t39.5 114q0 68 -39 112.5t-100 44.5zM350 508l-91 87l-91 -87l-63 31l123 134h62l123 -134z" />
    <glyph glyph-name="Gbreve" unicode="&#x11e;" horiz-adv-x="727" 
d="M402 269v83h285v-44q0 -145 -82 -233t-217 -88q-146 0 -247.5 100.5t-101.5 245.5t101 246t246 101q71 0 128.5 -26t118.5 -86l-62 -61q-45 48 -88 68.5t-98 20.5q-109 0 -182.5 -75.5t-73.5 -187.5q0 -110 74.5 -186t182.5 -76q111 0 170 81q32 46 39 117h-193zM249 853
l74 6q1 -31 7 -41q17 -36 56 -36q57 0 67 77l73 -6q-7 -68 -44 -106t-96 -38q-61 0 -98 39t-39 105z" />
    <glyph glyph-name="gbreve" unicode="&#x11f;" 
d="M401 443h86v-451q0 -106 -65 -172t-169 -66q-67 0 -114 25t-94 78l56 56l6 -6q34 -40 64 -57.5t79 -17.5q71 0 111 42t40 118v56q-64 -61 -143 -61q-94 0 -160.5 68.5t-66.5 166.5q0 97 66 165.5t161 68.5q79 0 143 -61v48zM263 379q-65 0 -105.5 -43.5t-40.5 -114.5
q0 -69 40.5 -113t103.5 -44q62 0 101.5 44t39.5 114q0 68 -39 112.5t-100 44.5zM122 653l74 6q4 -77 63 -77q57 0 67 77l73 -6q-7 -68 -44 -106t-95 -38q-62 0 -99.5 39t-38.5 105z" />
    <glyph glyph-name="Gdotaccent" unicode="&#x120;" horiz-adv-x="727" 
d="M402 269v83h285v-44q0 -145 -82 -233t-217 -88q-146 0 -247.5 100.5t-101.5 245.5t101 246t246 101q71 0 128.5 -26t118.5 -86l-62 -61q-45 48 -88 68.5t-98 20.5q-109 0 -182.5 -75.5t-73.5 -187.5q0 -110 74.5 -186t182.5 -76q111 0 170 81q32 46 39 117h-193zM386 847
q24 0 40.5 -16.5t16.5 -39.5q0 -24 -17 -40.5t-40 -16.5q-24 0 -40.5 16.5t-16.5 40.5q0 23 17 39.5t40 16.5z" />
    <glyph glyph-name="gdotaccent" unicode="&#x121;" 
d="M401 443h86v-451q0 -106 -65 -172t-169 -66q-67 0 -114 25t-94 78l56 56l6 -6q34 -40 64 -57.5t79 -17.5q71 0 111 42t40 118v56q-64 -61 -143 -61q-94 0 -160.5 68.5t-66.5 166.5q0 97 66 165.5t161 68.5q79 0 143 -61v48zM263 379q-65 0 -105.5 -43.5t-40.5 -114.5
q0 -69 40.5 -113t103.5 -44q62 0 101.5 44t39.5 114q0 68 -39 112.5t-100 44.5zM259 648q23 0 40 -16.5t17 -39.5q0 -24 -17 -40.5t-41 -16.5q-23 0 -39.5 17t-16.5 40t17 39.5t40 16.5z" />
    <glyph glyph-name="Gcommaaccent" unicode="&#x122;" horiz-adv-x="727" 
d="M402 269v83h285v-44q0 -145 -82 -233t-217 -88q-146 0 -247.5 100.5t-101.5 245.5t101 246t246 101q71 0 128.5 -26t118.5 -86l-62 -61q-45 48 -88 68.5t-98 20.5q-109 0 -182.5 -75.5t-73.5 -187.5q0 -110 74.5 -186t182.5 -76q111 0 170 81q32 46 39 117h-193z
M359 -228l-62 19l50 170l83 -25z" />
    <glyph glyph-name="gcommaaccent" unicode="&#x123;" 
d="M401 443h86v-451q0 -106 -65 -172t-169 -66q-67 0 -114 25t-94 78l56 56l6 -6q34 -40 64 -57.5t79 -17.5q71 0 111 42t40 118v56q-64 -61 -143 -61q-94 0 -160.5 68.5t-66.5 166.5q0 97 66 165.5t161 68.5q79 0 143 -61v48zM263 379q-65 0 -105.5 -43.5t-40.5 -114.5
q0 -69 40.5 -113t103.5 -44q62 0 101.5 44t39.5 114q0 68 -39 112.5t-100 44.5zM290 687l61 -20l-50 -170l-82 25z" />
    <glyph glyph-name="Hcircumflex" unicode="&#x124;" horiz-adv-x="650" 
d="M77 0v667h89v-288h319v288h89v-667h-89v296h-319v-296h-89zM416 707l-91 87l-90 -87l-63 32l122 134h63l122 -134z" />
    <glyph glyph-name="hcircumflex" unicode="&#x125;" horiz-adv-x="509" 
d="M60 0v667h86v-265q48 54 122 54q49 0 90.5 -23t64.5 -62q27 -45 27 -132v-239h-86v231q0 68 -21 106.5t-83 38.5q-32 0 -58 -13.5t-38 -35.5q-18 -33 -18 -105v-222h-86zM349 707l-91 87l-91 -87l-63 32l123 134h63l122 -134z" />
    <glyph glyph-name="Hbar" unicode="&#x126;" horiz-adv-x="651" 
d="M633 514h-59v-514h-89v296h-319v-296h-89v514h-59v77h59v76h89v-76h319v76h89v-76h59v-77zM485 379v135h-319v-135h319z" />
    <glyph glyph-name="hbar" unicode="&#x127;" horiz-adv-x="509" 
d="M263 514h-118v-112q48 54 122 54q49 0 90.5 -23t64.5 -62q27 -45 27 -132v-239h-86v231q0 32 -3.5 55t-13.5 45t-32 33.5t-55 11.5q-32 0 -58 -13.5t-38 -35.5q-18 -33 -18 -105v-222h-86v514h-59v77h59v76h86v-76h118v-77z" />
    <glyph glyph-name="Itilde" unicode="&#x128;" horiz-adv-x="243" 
d="M76 667h89v-667h-89v667zM194 849l70 -17q-8 -96 -85 -96q-33 0 -71 19q-25 14 -40 14q-16 0 -21 -36l-69 16q5 46 27.5 71t58.5 25q30 0 73 -21q23 -12 39 -12q15 0 18 37z" />
    <glyph glyph-name="itilde" unicode="&#x129;" horiz-adv-x="206" 
d="M60 443h86v-443h-86v443zM176 649l70 -16q-8 -97 -85 -97q-34 0 -71 20q-25 14 -40 14q-16 0 -21 -37l-69 16q5 47 27.5 72t58.5 25q30 0 73 -22q23 -12 39 -12q15 0 18 37z" />
    <glyph glyph-name="Imacron" unicode="&#x12a;" horiz-adv-x="243" 
d="M77 667h89v-667h-89v667zM-22 752v77h286v-77h-286z" />
    <glyph glyph-name="imacron" unicode="&#x12b;" horiz-adv-x="206" 
d="M60 443h86v-443h-86v443zM-40 552v77h286v-77h-286z" />
    <glyph glyph-name="Ibreve" unicode="&#x12c;" horiz-adv-x="243" 
d="M77 667h89v-667h-89v667zM-17 853l74 6v-7q5 -70 63 -70q39 0 58 38q4 8 8 39l74 -6q-7 -68 -44 -106t-96 -38q-62 0 -99 39t-38 105z" />
    <glyph glyph-name="ibreve" unicode="&#x12d;" horiz-adv-x="206" 
d="M61 443h86v-443h-86v443zM-35 653l74 6q1 -30 6 -41q19 -36 57 -36q39 0 58 38q4 8 8 39l74 -6q-7 -68 -44 -106t-96 -38q-62 0 -99 39t-38 105z" />
    <glyph glyph-name="Iogonek" unicode="&#x12e;" horiz-adv-x="243" 
d="M77 0v667h89v-667q-36 -43 -36 -66q0 -20 24 -20q19 0 43 9l25 -62q-43 -16 -75 -16q-41 0 -68 24t-27 60q0 33 29 71h-4z" />
    <glyph glyph-name="iogonek" unicode="&#x12f;" horiz-adv-x="206" 
d="M61 443h86v-443q-37 -46 -37 -67q0 -20 25 -20q16 0 43 10l25 -63q-43 -16 -75 -16q-41 0 -68.5 24t-27.5 61q0 32 29 71v443zM104 650q23 0 40 -17t17 -40q0 -24 -17 -41t-40 -17q-25 0 -41.5 17t-16.5 41q0 23 17 40t41 17z" />
    <glyph glyph-name="Idotaccent" unicode="&#x130;" horiz-adv-x="243" 
d="M76 667h89v-667h-89v667zM121 847q24 0 40.5 -16.5t16.5 -39.5q0 -24 -17 -40.5t-41 -16.5q-23 0 -39.5 16.5t-16.5 40.5q0 23 17 39.5t40 16.5z" />
    <glyph glyph-name="dotlessi" unicode="&#x131;" horiz-adv-x="206" 
d="M60 443h86v-443h-86v443z" />
    <glyph glyph-name="IJ" unicode="&#x132;" horiz-adv-x="643" 
d="M77 667h89v-667h-89v667zM478 667h89v-465q0 -89 -28 -138q-20 -35 -58 -56t-84 -21q-81 0 -162 77l55 65q57 -58 105 -58q83 0 83 131v465z" />
    <glyph glyph-name="ij" unicode="&#x133;" horiz-adv-x="419" 
d="M60 443h86v-443h-86v443zM194 -233v79q28 -7 39 -7q39 0 39 64v540h86v-540q0 -69 -28.5 -106.5t-81.5 -37.5q-26 0 -54 8zM103 650q24 0 41 -17t17 -41q0 -23 -17 -40t-41 -17t-41 17t-17 41q0 23 17 40t41 17zM315 650q24 0 41 -16.5t17 -40.5t-17 -41t-41 -17
q-25 0 -41.5 17t-16.5 41q0 23 17 40t41 17z" />
    <glyph glyph-name="Jcircumflex" unicode="&#x134;" horiz-adv-x="409" 
d="M243 667h89v-465q0 -89 -28 -138q-20 -35 -58 -56t-84 -21q-81 0 -162 77l55 65q57 -58 105 -58q83 0 83 131v465zM341 707l-91 87l-91 -87l-63 32l123 134h63l122 -134z" />
    <glyph glyph-name="jcircumflex" unicode="&#x135;" horiz-adv-x="216" 
d="M-9 -233v79q28 -7 39 -7q39 0 39 64v540h86v-540q0 -69 -28.5 -106.5t-81.5 -37.5q-26 0 -54 8zM190 508l-91 87l-91 -87l-63 31l123 134h62l123 -134z" />
    <glyph glyph-name="Kcommaaccent" unicode="&#x136;" horiz-adv-x="576" 
d="M568 667l-255 -278l258 -389h-104l-214 323l-87 -95v-228h-89v667h89v-321l293 321h109zM298 -228l-62 19l51 170l82 -25z" />
    <glyph glyph-name="kcommaaccent" unicode="&#x137;" horiz-adv-x="470" 
d="M453 443l-184 -182l204 -261h-106l-156 204l-65 -64v-140h-86v667h86v-419l196 195h111zM229 -228l-62 19l50 170l83 -25z" />
    <glyph glyph-name="kgreenlandic" unicode="&#x138;" horiz-adv-x="470" 
d="M453 443l-184 -182l204 -261h-106l-156 204l-65 -64v-140h-86v443h86v-195l196 195h111z" />
    <glyph glyph-name="Lacute" unicode="&#x139;" horiz-adv-x="423" 
d="M76 667h89v-584h255v-83h-344v667zM178 887l82 -45l-135 -135l-55 32z" />
    <glyph glyph-name="lacute" unicode="&#x13a;" horiz-adv-x="207" 
d="M147 667v-667h-86v667h86zM163 898l82 -44l-135 -135l-55 31z" />
    <glyph glyph-name="Lcommaaccent" unicode="&#x13b;" horiz-adv-x="429" 
d="M77 667h89v-584h254v-83h-343v667zM247 -228l-61 19l50 170l82 -25z" />
    <glyph glyph-name="lcommaaccent" unicode="&#x13c;" horiz-adv-x="207" 
d="M147 667v-667h-86v667h86zM83 -228l-62 19l50 170l82 -25z" />
    <glyph glyph-name="Lcaron" unicode="&#x13d;" horiz-adv-x="429" 
d="M77 667h89v-584h254v-83h-343v667zM314 494l-61 19l50 170l82 -25z" />
    <glyph glyph-name="lcaron" unicode="&#x13e;" horiz-adv-x="312" 
d="M147 667v-667h-86v667h86zM250 497l-61 20l50 170l82 -25z" />
    <glyph glyph-name="Ldot" unicode="&#x13f;" horiz-adv-x="429" 
d="M77 667h89v-584h254v-83h-343v667zM325 390q24 0 40.5 -16.5t16.5 -39.5q0 -24 -16.5 -40.5t-39.5 -16.5q-24 0 -40.5 16.5t-16.5 41.5q0 22 16.5 38.5t39.5 16.5z" />
    <glyph glyph-name="ldot" unicode="&#x140;" horiz-adv-x="347" 
d="M147 667v-667h-86v667h86zM276 390q24 0 40.5 -16.5t16.5 -40.5q0 -23 -16.5 -39.5t-39.5 -16.5q-24 0 -40.5 16.5t-16.5 40.5q0 23 16.5 39.5t39.5 16.5z" />
    <glyph glyph-name="Lslash" unicode="&#x141;" horiz-adv-x="443" 
d="M25 318l65 45v304h89v-257l113 77v-92l-113 -77v-235h255v-83h-344v271l-65 -45v92z" />
    <glyph glyph-name="lslash" unicode="&#x142;" horiz-adv-x="255" 
d="M171 0h-86v275l-63 -42v93l63 43v298h86v-241l63 42v-93l-63 -43v-332z" />
    <glyph glyph-name="Nacute" unicode="&#x143;" horiz-adv-x="709" 
d="M166 0h-89v667h80l387 -518v518h89v-667h-80l-387 518v-518zM418 887l83 -45l-135 -135l-56 32z" />
    <glyph glyph-name="nacute" unicode="&#x144;" horiz-adv-x="509" 
d="M60 0v443h86v-41q48 54 122 54q49 0 90.5 -23t64.5 -62q27 -45 27 -132v-239h-86v231q0 68 -21 106.5t-83 38.5q-32 0 -58 -13.5t-38 -35.5q-18 -33 -18 -105v-222h-86zM320 687l82 -44l-134 -136l-56 32z" />
    <glyph glyph-name="Ncommaaccent" unicode="&#x145;" horiz-adv-x="709" 
d="M166 0h-89v667h80l387 -518v518h89v-667h-80l-387 518v-518zM351 -228l-62 19l50 170l83 -25z" />
    <glyph glyph-name="ncommaaccent" unicode="&#x146;" horiz-adv-x="509" 
d="M60 0v443h86v-41q48 54 122 54q49 0 90.5 -23t64.5 -62q27 -45 27 -132v-239h-86v231q0 68 -21 106.5t-83 38.5q-32 0 -58 -13.5t-38 -35.5q-18 -33 -18 -105v-222h-86zM251 -228l-62 19l51 170l82 -25z" />
    <glyph glyph-name="Ncaron" unicode="&#x147;" horiz-adv-x="709" 
d="M166 0h-89v667h80l387 -518v518h89v-667h-80l-387 518v-518zM281 880l91 -87l90 87l63 -32l-122 -134h-63l-122 134z" />
    <glyph glyph-name="ncaron" unicode="&#x148;" horiz-adv-x="509" 
d="M60 0v443h86v-41q48 54 122 54q49 0 90.5 -23t64.5 -62q27 -45 27 -132v-239h-86v231q0 68 -21 106.5t-83 38.5q-32 0 -58 -13.5t-38 -35.5q-18 -33 -18 -105v-222h-86zM169 680l91 -87l91 87l63 -31l-123 -135h-62l-123 135z" />
    <glyph glyph-name="napostrophe" unicode="&#x149;" horiz-adv-x="595" 
d="M145 0v443h86v-41q48 54 122 54q49 0 90.5 -23t64.5 -62q27 -45 27 -132v-239h-86v231q0 32 -3.5 55t-13.5 45t-32 33.5t-55 11.5q-32 0 -58 -13.5t-38 -35.5q-18 -33 -18 -105v-222h-86zM-3 422l87 243l78 -29l-106 -237z" />
    <glyph glyph-name="Eng" unicode="&#x14a;" horiz-adv-x="709" 
d="M544 667h89v-673q0 -70 -28.5 -107t-81.5 -37q-25 0 -54 8v79q28 -7 40 -7q39 0 39 63v14l-382 511v-518h-89v667h80l387 -518v518z" />
    <glyph glyph-name="eng" unicode="&#x14b;" horiz-adv-x="509" 
d="M146 0h-86v443h86v-41q48 54 122 54q49 0 90.5 -23t64.5 -62q27 -45 27 -132v-250q0 -65 -29 -102t-81 -37q-26 0 -54 8v79q28 -7 39 -7q39 0 39 63v238q0 68 -21 106.5t-83 38.5q-32 0 -58 -13.5t-38 -35.5q-18 -33 -18 -105v-222z" />
    <glyph glyph-name="Omacron" unicode="&#x14c;" horiz-adv-x="763" 
d="M382 680q141 0 242 -102t101 -245q0 -142 -101 -244t-241 -102q-143 0 -243.5 102.5t-100.5 248.5q0 138 102 240t241 102zM382 596q-104 0 -178.5 -76t-74.5 -183q0 -111 73.5 -188.5t179.5 -77.5q104 0 178.5 77t74.5 185q0 109 -74 186t-179 77zM239 752v77h286v-77
h-286z" />
    <glyph glyph-name="omacron" unicode="&#x14d;" horiz-adv-x="524" 
d="M266 456q95 0 161 -68.5t66 -165.5q0 -99 -67 -167t-164 -68q-98 0 -164.5 68t-66.5 169q0 98 67.5 165t167.5 67zM264 379q-66 0 -106.5 -43.5t-40.5 -114.5q0 -69 40.5 -113t104.5 -44t104.5 44t40.5 114q0 68 -40.5 112.5t-102.5 44.5zM119 552v77h286v-77h-286z" />
    <glyph glyph-name="Obreve" unicode="&#x14e;" horiz-adv-x="763" 
d="M382 680q141 0 242 -102t101 -245q0 -142 -101 -244t-241 -102q-143 0 -243.5 102.5t-100.5 248.5q0 138 102 240t241 102zM382 596q-104 0 -178.5 -76t-74.5 -183q0 -111 73.5 -188.5t179.5 -77.5q104 0 178.5 77t74.5 185q0 109 -74 186t-179 77zM243 853l74 6
q1 -31 7 -41q17 -36 56 -36q57 0 67 77l73 -6q-7 -68 -44 -106t-95 -38q-62 0 -99.5 39t-38.5 105z" />
    <glyph glyph-name="obreve" unicode="&#x14f;" horiz-adv-x="524" 
d="M266 456q95 0 161 -68.5t66 -165.5q0 -99 -67 -167t-164 -68q-98 0 -164.5 68t-66.5 169q0 98 67.5 165t167.5 67zM264 379q-66 0 -106.5 -43.5t-40.5 -114.5q0 -69 40.5 -113t104.5 -44t104.5 44t40.5 114q0 68 -40.5 112.5t-102.5 44.5zM123 653l74 6q4 -77 63 -77
q57 0 67 77l73 -6q-7 -68 -44 -106t-96 -38q-61 0 -98 39t-39 105z" />
    <glyph glyph-name="Ohungarumlaut" unicode="&#x150;" horiz-adv-x="763" 
d="M382 680q141 0 242 -102t101 -245q0 -142 -101 -244t-241 -102q-143 0 -243.5 102.5t-100.5 248.5q0 138 102 240t241 102zM382 596q-104 0 -178.5 -76t-74.5 -183q0 -111 73.5 -188.5t179.5 -77.5q104 0 178.5 77t74.5 185q0 109 -74 186t-179 77zM370 887l77 -44
l-135 -136l-49 32zM513 887l76 -45l-135 -135l-50 31z" />
    <glyph glyph-name="ohungarumlaut" unicode="&#x151;" horiz-adv-x="525" 
d="M265 456q95 0 161.5 -68t66.5 -166q0 -99 -67 -167t-164 -68t-164 68t-67 167q0 100 67 167t167 67zM264 379q-65 0 -106 -43t-41 -111q0 -72 40 -116.5t105 -44.5q64 0 104.5 44t40.5 114q0 68 -40.5 112.5t-102.5 44.5zM260 687l77 -44l-136 -136l-49 32zM403 687
l76 -45l-135 -135l-50 31z" />
    <glyph glyph-name="OE" unicode="&#x152;" horiz-adv-x="1036" 
d="M635 564v103h352v-82h-263v-206h234v-83h-234v-213h273v-83h-362v103q-102 -116 -252 -116q-141 0 -242.5 102t-101.5 244q0 143 101.5 245t243.5 102q149 0 251 -116zM382 596q-104 0 -178.5 -76.5t-74.5 -183.5q0 -111 73.5 -188t179.5 -77q104 0 178.5 77t74.5 184
q0 110 -74 187t-179 77z" />
    <glyph glyph-name="oe" unicode="&#x153;" horiz-adv-x="870" 
d="M758 139l74 -31q-71 -121 -203 -121q-111 0 -181 96q-70 -96 -186 -96q-98 0 -164.5 67.5t-66.5 167.5q0 99 66.5 166.5t164.5 67.5q118 0 186 -96q67 96 176 96q94 0 154.5 -69t60.5 -176q0 -12 -1 -24h-344q10 -57 46.5 -90t89.5 -33q37 0 70.5 17t50.5 46q5 10 7 12z
M264 378q-66 0 -106.5 -43.5t-40.5 -114.5q0 -68 40.5 -112t104.5 -44q63 0 103.5 44t40.5 113t-40 113t-102 44zM494 256h260q-11 58 -45.5 91t-83.5 33q-51 0 -86.5 -33.5t-44.5 -90.5z" />
    <glyph glyph-name="Racute" unicode="&#x154;" horiz-adv-x="540" 
d="M359 287l160 -287h-100l-147 266q-50 -2 -53 -2h-53v-264h-89v667h142q100 0 153 -30q45 -26 71 -72.5t26 -101.5q0 -58 -29 -104.5t-81 -71.5zM166 585v-240h62q153 0 153 118q0 122 -153 122h-62zM306 887l83 -45l-135 -135l-55 32z" />
    <glyph glyph-name="racute" unicode="&#x155;" horiz-adv-x="298" 
d="M60 0v443h86v-43q32 27 52 35.5t54 8.5q16 0 29 -1v-77q-13 1 -27 1q-35 0 -58 -12t-33 -35.5t-13.5 -47t-3.5 -58.5v-214h-86zM197 687l82 -44l-134 -136l-56 32z" />
    <glyph glyph-name="Rcommaaccent" unicode="&#x156;" horiz-adv-x="540" 
d="M359 287l160 -287h-100l-147 266q-50 -2 -53 -2h-53v-264h-89v667h142q100 0 153 -30q45 -26 71 -72.5t26 -101.5q0 -58 -29 -104.5t-81 -71.5zM166 585v-240h62q153 0 153 118q0 122 -153 122h-62zM272 -228l-61 19l50 170l82 -25z" />
    <glyph glyph-name="rcommaaccent" unicode="&#x157;" horiz-adv-x="298" 
d="M60 0v443h86v-43q32 27 52 35.5t54 8.5q16 0 29 -1v-77q-13 1 -27 1q-35 0 -58 -12t-33 -35.5t-13.5 -47t-3.5 -58.5v-214h-86zM80 -228l-62 19l50 170l82 -25z" />
    <glyph glyph-name="Rcaron" unicode="&#x158;" horiz-adv-x="540" 
d="M359 287l160 -287h-100l-147 266q-50 -2 -53 -2h-53v-264h-89v667h142q100 0 153 -30q45 -26 71 -72.5t26 -101.5q0 -58 -29 -104.5t-81 -71.5zM166 585v-240h62q153 0 153 118q0 122 -153 122h-62zM167 880l91 -87l91 87l63 -32l-123 -134h-62l-123 134z" />
    <glyph glyph-name="rcaron" unicode="&#x159;" horiz-adv-x="298" 
d="M59 0v443h86v-43q32 27 52 35.5t54 8.5q16 0 29 -1v-77q-13 1 -27 1q-35 0 -58 -12t-33 -35.5t-13.5 -47t-3.5 -58.5v-214h-86zM79 680l91 -87l91 87l63 -31l-123 -135h-62l-123 135z" />
    <glyph glyph-name="Sacute" unicode="&#x15a;" horiz-adv-x="510" 
d="M452 567l-71 -46q-28 42 -54.5 59t-64.5 17q-46 0 -78 -29.5t-32 -73.5q0 -60 91 -96l65 -24q158 -61 158 -181q0 -87 -62.5 -146.5t-154.5 -59.5q-83 0 -137.5 47t-74.5 135l87 23q15 -57 43.5 -89t83.5 -32q52 0 88.5 35.5t36.5 85.5q0 36 -25 61t-84 48l-62 24
q-141 53 -141 170q0 79 57.5 132t143.5 53q61 0 106 -27t81 -86zM319 887l82 -45l-135 -135l-55 32z" />
    <glyph glyph-name="sacute" unicode="&#x15b;" horiz-adv-x="375" 
d="M26 109l72 29q20 -41 40 -57.5t50 -16.5q31 0 51 18t20 46q0 22 -13.5 33.5t-57.5 28.5l-47 18q-94 37 -94 116q0 56 42 94t105 38q92 0 140 -89l-68 -34q-32 47 -74 47q-28 0 -46 -15t-18 -38q0 -22 12 -32.5t58 -28.5l43 -16q103 -40 103 -118q0 -62 -45.5 -103.5
t-112.5 -41.5q-114 0 -160 122zM240 687l83 -44l-135 -136l-56 32z" />
    <glyph glyph-name="Scircumflex" unicode="&#x15c;" horiz-adv-x="510" 
d="M452 567l-71 -46q-28 42 -54.5 59t-64.5 17q-46 0 -78 -29.5t-32 -73.5q0 -60 91 -96l65 -24q158 -61 158 -181q0 -87 -62.5 -146.5t-154.5 -59.5q-83 0 -137.5 47t-74.5 135l87 23q15 -57 43.5 -89t83.5 -32q52 0 88.5 35.5t36.5 85.5q0 36 -25 61t-84 48l-62 24
q-141 53 -141 170q0 79 57.5 132t143.5 53q61 0 106 -27t81 -86zM343 707l-91 87l-91 -87l-63 32l123 134h62l123 -134z" />
    <glyph glyph-name="scircumflex" unicode="&#x15d;" horiz-adv-x="379" 
d="M26 109l72 29q20 -41 40 -57.5t50 -16.5q31 0 51 18t20 46q0 22 -13.5 33.5t-57.5 28.5l-47 18q-94 37 -94 116q0 56 42 94t105 38q92 0 140 -89l-68 -34q-32 47 -74 47q-28 0 -46 -15t-18 -38q0 -22 12 -32.5t58 -28.5l43 -16q103 -40 103 -118q0 -62 -45.5 -103.5
t-112.5 -41.5q-114 0 -160 122zM278 508l-91 87l-91 -87l-63 31l123 134h62l123 -134z" />
    <glyph glyph-name="Scedilla" unicode="&#x15e;" horiz-adv-x="510" 
d="M452 567l-71 -46q-28 42 -54.5 59t-64.5 17q-46 0 -78 -29.5t-32 -73.5q0 -60 91 -96l65 -24q158 -61 158 -181q0 -87 -62.5 -146.5t-154.5 -59.5q-83 0 -137.5 47t-74.5 135l87 23q15 -57 43.5 -89t83.5 -32q52 0 88.5 35.5t36.5 85.5q0 36 -25 61t-84 48l-62 24
q-141 53 -141 170q0 79 57.5 132t143.5 53q61 0 106 -27t81 -86zM168 -181l91 142l78 -33l-109 -139z" />
    <glyph glyph-name="scedilla" unicode="&#x15f;" horiz-adv-x="375" 
d="M26 109l72 29q20 -41 40 -57.5t50 -16.5q31 0 51 18t20 46q0 22 -13.5 33.5t-57.5 28.5l-47 18q-94 37 -94 116q0 56 42 94t105 38q92 0 140 -89l-68 -34q-32 47 -74 47q-28 0 -46 -15t-18 -38q0 -22 12 -32.5t58 -28.5l43 -16q103 -40 103 -118q0 -62 -45.5 -103.5
t-112.5 -41.5q-114 0 -160 122zM94 -181l91 142l79 -33l-110 -139z" />
    <glyph glyph-name="Scaron" unicode="&#x160;" horiz-adv-x="510" 
d="M452 567l-71 -46q-28 42 -54.5 59t-64.5 17q-46 0 -78 -29.5t-32 -73.5q0 -60 91 -96l65 -24q158 -61 158 -181q0 -87 -62.5 -146.5t-154.5 -59.5q-83 0 -137.5 47t-74.5 135l87 23q15 -57 43.5 -89t83.5 -32q52 0 88.5 35.5t36.5 85.5q0 36 -25 61t-84 48l-62 24
q-141 53 -141 170q0 79 57.5 132t143.5 53q61 0 106 -27t81 -86zM161 880l91 -87l91 87l63 -32l-123 -134h-62l-123 134z" />
    <glyph glyph-name="scaron" unicode="&#x161;" horiz-adv-x="379" 
d="M26 109l72 29q20 -41 40 -57.5t50 -16.5q31 0 51 18t20 46q0 22 -13.5 33.5t-57.5 28.5l-47 18q-94 37 -94 116q0 56 42 94t105 38q92 0 140 -89l-68 -34q-32 47 -74 47q-28 0 -46 -15t-18 -38q0 -22 12 -32.5t58 -28.5l43 -16q103 -40 103 -118q0 -62 -45.5 -103.5
t-112.5 -41.5q-114 0 -160 122zM96 680l91 -87l91 87l63 -31l-123 -135h-62l-123 135z" />
    <glyph glyph-name="Tcommaaccent" unicode="&#x162;" horiz-adv-x="435" 
d="M431 667v-82h-170v-585h-89v585h-169v82h428zM197 -228l-61 19l50 170l82 -25z" />
    <glyph glyph-name="tcommaaccent" unicode="&#x163;" horiz-adv-x="253" 
d="M153 443h71v-77h-71v-230q0 -63 38 -63q14 0 39 7v-79q-27 -8 -53 -8q-52 0 -81 37.5t-29 105.5v230h-49v77h49v102l86 33v-135zM120 -228l-62 19l51 170l82 -25z" />
    <glyph glyph-name="Tcaron" unicode="&#x164;" horiz-adv-x="435" 
d="M431 667v-82h-170v-585h-89v585h-169v82h428zM126 880l91 -87l91 87l63 -32l-123 -134h-62l-123 134z" />
    <glyph glyph-name="tcaron" unicode="&#x165;" horiz-adv-x="319" 
d="M153 443h71v-77h-71v-230q0 -63 38 -63q14 0 39 7v-79q-27 -8 -53 -8q-52 0 -81 37.5t-29 105.5v230h-49v77h49v102l86 33v-135zM256 497l-61 20l50 170l82 -25z" />
    <glyph glyph-name="Tbar" unicode="&#x166;" horiz-adv-x="435" 
d="M366 443v-78h-105v-365h-89v365h-104v78h104v142h-169v82h428v-82h-170v-142h105z" />
    <glyph glyph-name="tbar" unicode="&#x167;" horiz-adv-x="253" 
d="M230 80v-79q-27 -8 -53 -8q-53 0 -81.5 37.5t-28.5 106.5v111h-49v75h49v45h-49v75h49v102l86 33v-135h71v-75h-71v-45h71v-75h-71v-111q0 -64 38 -64q12 0 39 7z" />
    <glyph glyph-name="Utilde" unicode="&#x168;" horiz-adv-x="637" 
d="M77 235v432h89v-412q0 -83 19 -115q17 -31 54.5 -50t79.5 -19q41 0 78.5 19t54.5 50q19 34 19 115v412h89v-432q0 -81 -28 -133q-31 -53 -88.5 -84t-124.5 -31t-125 31t-89 84q-28 49 -28 133zM392 849l70 -17q-8 -96 -85 -96q-33 0 -71 19q-26 14 -41 14q-14 0 -21 -36
l-68 16q5 46 27 71t59 25q30 0 72 -21q22 -12 39 -12q9 0 13 8t6 29z" />
    <glyph glyph-name="utilde" unicode="&#x169;" horiz-adv-x="509" 
d="M450 443v-443h-86v41q-48 -54 -122 -54q-49 0 -90.5 23t-64.5 62q-27 45 -27 132v239h86v-231q0 -68 21 -106.5t83 -38.5q32 0 58 13.5t38 35.5q18 33 18 106v221h86zM328 649l70 -16q-8 -97 -85 -97q-34 0 -71 20q-25 14 -40 14q-16 0 -21 -37l-69 16q5 47 27.5 72
t58.5 25q30 0 73 -22q22 -12 38 -12t19 37z" />
    <glyph glyph-name="Umacron" unicode="&#x16a;" horiz-adv-x="637" 
d="M77 235v432h89v-412q0 -83 19 -115q17 -31 54.5 -50t79.5 -19q41 0 78.5 19t54.5 50q19 34 19 115v412h89v-432q0 -81 -28 -133q-31 -53 -88.5 -84t-124.5 -31t-125 31t-89 84q-28 49 -28 133zM176 752v77h286v-77h-286z" />
    <glyph glyph-name="umacron" unicode="&#x16b;" horiz-adv-x="509" 
d="M450 443v-443h-86v41q-48 -54 -122 -54q-49 0 -90.5 23t-64.5 62q-27 45 -27 132v239h86v-231q0 -68 21 -106.5t83 -38.5q32 0 58 13.5t38 35.5q18 33 18 106v221h86zM112 552v77h286v-77h-286z" />
    <glyph glyph-name="Ubreve" unicode="&#x16c;" horiz-adv-x="637" 
d="M77 235v432h89v-412q0 -83 19 -115q17 -31 54.5 -50t79.5 -19q41 0 78.5 19t54.5 50q19 34 19 115v412h89v-432q0 -81 -28 -133q-31 -53 -88.5 -84t-124.5 -31t-125 31t-89 84q-28 49 -28 133zM180 853l74 6v-7q5 -70 63 -70q34 0 47 20t20 57l73 -6q-7 -68 -44 -106
t-96 -38q-61 0 -98 39t-39 105z" />
    <glyph glyph-name="ubreve" unicode="&#x16d;" horiz-adv-x="509" 
d="M450 443v-443h-86v41q-48 -54 -122 -54q-49 0 -90.5 23t-64.5 62q-27 45 -27 132v239h86v-231q0 -68 21 -106.5t83 -38.5q32 0 58 13.5t38 35.5q18 33 18 106v221h86zM116 653l74 6q3 -36 16 -56.5t47 -20.5q57 0 67 77l74 -6q-7 -68 -44 -106t-96 -38q-62 0 -99.5 39
t-38.5 105z" />
    <glyph glyph-name="Uring" unicode="&#x16e;" horiz-adv-x="637" 
d="M77 235v432h89v-412q0 -83 19 -115q17 -31 54.5 -50t79.5 -19q41 0 78.5 19t54.5 50q19 34 19 115v412h89v-432q0 -81 -28 -133q-31 -53 -88.5 -84t-124.5 -31t-125 31t-89 84q-28 49 -28 133zM319 885q40 0 68 -27.5t28 -66.5t-28.5 -66.5t-68.5 -27.5q-39 0 -67 28
t-28 67q0 38 28.5 65.5t67.5 27.5zM319 843q-21 0 -36.5 -15t-15.5 -36q0 -22 15 -37.5t37 -15.5t37 15t15 37t-15 37t-37 15z" />
    <glyph glyph-name="uring" unicode="&#x16f;" horiz-adv-x="509" 
d="M450 443v-443h-86v41q-48 -54 -122 -54q-49 0 -90.5 23t-64.5 62q-27 45 -27 132v239h86v-231q0 -68 21 -106.5t83 -38.5q32 0 58 13.5t38 35.5q18 33 18 106v221h86zM255 685q40 0 68 -27.5t28 -66.5t-28 -66.5t-68 -27.5t-68 28t-28 68q0 37 28.5 64.5t67.5 27.5z
M255 643q-21 0 -36.5 -15t-15.5 -36q0 -22 15 -37.5t37 -15.5t37 15t15 37t-15 37t-37 15z" />
    <glyph glyph-name="Uhungarumlaut" unicode="&#x170;" horiz-adv-x="637" 
d="M77 235v432h89v-412q0 -83 19 -115q17 -31 54.5 -50t79.5 -19q41 0 78.5 19t54.5 50q19 34 19 115v412h89v-432q0 -81 -28 -133q-31 -53 -88.5 -84t-124.5 -31t-125 31t-89 84q-28 49 -28 133zM297 887l77 -44l-136 -136l-49 32zM440 887l76 -45l-135 -135l-50 31z" />
    <glyph glyph-name="uhungarumlaut" unicode="&#x171;" horiz-adv-x="509" 
d="M450 443v-443h-86v41q-48 -54 -122 -54q-49 0 -90.5 23t-64.5 62q-27 45 -27 132v239h86v-231q0 -68 21 -106.5t83 -38.5q32 0 58 13.5t38 35.5q18 33 18 106v221h86zM238 687l77 -44l-135 -136l-49 32zM381 687l76 -45l-135 -135l-49 31z" />
    <glyph glyph-name="Uogonek" unicode="&#x172;" horiz-adv-x="637" 
d="M475 667h89v-432q3 -97 -47 -160t-147 -83q-29 -37 -29 -58q0 -20 24 -20q19 0 43 9l25 -62q-43 -16 -75 -16q-41 0 -68 24t-27 60q0 28 21 61q-103 20 -154.5 82.5t-48.5 162.5v432h89v-412q0 -83 19 -115q17 -31 54.5 -50t79.5 -19q41 0 78.5 19.5t54.5 49.5
q19 34 19 115v412z" />
    <glyph glyph-name="uogonek" unicode="&#x173;" horiz-adv-x="509" 
d="M364 443h86v-443q-37 -45 -37 -67q0 -20 25 -20q16 0 43 10l25 -63q-43 -16 -75 -16q-41 0 -68.5 24t-27.5 61q0 32 29 71v41q-48 -54 -122 -54q-49 0 -90.5 23t-64.5 62q-27 45 -27 132v239h86v-231q0 -68 21 -106.5t83 -38.5q32 0 58 13.5t38 35.5q18 33 18 106v221z
" />
    <glyph glyph-name="Wcircumflex" unicode="&#x174;" horiz-adv-x="879" 
d="M3 667h93l153 -526l151 526h78l151 -526l153 526h93l-202 -667h-87l-147 507l-147 -507h-87zM530 707l-91 87l-91 -87l-63 32l123 134h62l123 -134z" />
    <glyph glyph-name="wcircumflex" unicode="&#x175;" horiz-adv-x="666" 
d="M-3 443h92l108 -309l101 309h70l100 -309l109 309h91l-164 -443h-70l-101 306l-101 -306h-70zM424 508l-91 87l-91 -87l-63 31l123 134h62l123 -134z" />
    <glyph glyph-name="Ycircumflex" unicode="&#x176;" horiz-adv-x="518" 
d="M423 667h98l-217 -389v-278h-89v278l-218 389h98l164 -302zM350 707l-91 87l-91 -87l-63 32l123 134h62l123 -134z" />
    <glyph glyph-name="ycircumflex" unicode="&#x177;" horiz-adv-x="452" 
d="M156 -233h-89l111 253l-181 423h92l134 -319l139 319h92zM317 508l-90 87l-91 -87l-63 31l122 134h63l122 -134z" />
    <glyph glyph-name="Ydieresis" unicode="&#x178;" horiz-adv-x="518" 
d="M423 667h98l-217 -389v-278h-89v278l-218 389h98l164 -302zM166 847q24 0 41 -16.5t17 -39.5q0 -24 -17 -40.5t-41 -16.5q-23 0 -39.5 17t-16.5 40t16.5 39.5t39.5 16.5zM351 847q23 0 40 -16.5t17 -39.5q0 -24 -17 -40.5t-40 -16.5q-24 0 -40.5 16.5t-16.5 40.5
q0 23 17 39.5t40 16.5z" />
    <glyph glyph-name="Zacute" unicode="&#x179;" horiz-adv-x="510" 
d="M481 667v-75l-352 -509h359v-83h-468v75l357 510h-328v82h432zM300 887l83 -45l-135 -135l-55 32z" />
    <glyph glyph-name="zacute" unicode="&#x17a;" horiz-adv-x="417" 
d="M393 443v-68l-258 -298h268v-77h-378v67l259 299h-244v77h353zM260 687l83 -44l-135 -136l-55 32z" />
    <glyph glyph-name="Zdotaccent" unicode="&#x17b;" horiz-adv-x="510" 
d="M481 667v-75l-352 -509h359v-83h-468v75l357 510h-328v82h432zM270 847q24 0 40.5 -16.5t16.5 -39.5q0 -24 -17 -40.5t-40 -16.5q-24 0 -40.5 16.5t-16.5 40.5q0 23 17 39.5t40 16.5z" />
    <glyph glyph-name="zdotaccent" unicode="&#x17c;" horiz-adv-x="417" 
d="M393 443v-68l-258 -298h268v-77h-378v67l259 299h-244v77h353zM214 648q24 0 40.5 -16.5t16.5 -39.5q0 -24 -17 -40.5t-40 -16.5q-24 0 -40.5 16.5t-16.5 40.5q0 23 17 39.5t40 16.5z" />
    <glyph glyph-name="Zcaron" unicode="&#x17d;" horiz-adv-x="510" 
d="M481 667v-75l-352 -509h359v-83h-468v75l357 510h-328v82h432zM180 880l91 -87l90 87l63 -32l-122 -134h-63l-122 134z" />
    <glyph glyph-name="zcaron" unicode="&#x17e;" horiz-adv-x="417" 
d="M393 443v-68l-258 -298h268v-77h-378v67l259 299h-244v77h353zM123 680l91 -87l91 87l63 -31l-123 -135h-62l-123 135z" />
    <glyph glyph-name="longs" unicode="&#x17f;" horiz-adv-x="232" 
d="M235 667v-78q-26 6 -36 6q-42 0 -42 -65v-530h-86v366h-44v77h44v87q0 144 112 144q23 0 52 -7z" />
    <glyph glyph-name="uni018F" unicode="&#x18f;" horiz-adv-x="759" 
d="M39 371h587q-16 102 -84.5 164t-165.5 62q-72 0 -131.5 -38t-93.5 -105l-79 40q44 88 124 137t180 49q146 0 245 -100t99 -247q0 -144 -99 -245t-241 -101q-91 0 -170.5 44.5t-123.5 120.5q-44 77 -47 219zM627 300h-492q10 -81 47 -132q73 -98 198 -98q66 0 122 31
t90 87q22 37 35 112z" />
    <glyph glyph-name="florin" unicode="&#x192;" horiz-adv-x="472" 
d="M5 -189l16 79q26 -7 38 -7q40 0 53 67l86 416h-45l16 77h44l18 87q14 70 50.5 107.5t90.5 37.5q21 0 53 -9l-16 -80q-23 7 -37 7q-41 0 -54 -66l-17 -84h80l-15 -77h-81l-86 -420q-14 -70 -50.5 -107t-90.5 -37q-22 0 -53 9z" />
    <glyph glyph-name="Ohorn" unicode="&#x1a0;" horiz-adv-x="767" 
d="M625 720l62 31q61 -44 61 -110q0 -75 -76 -124q53 -84 53 -184q0 -142 -101 -244t-242 -102t-242 102t-101 244q0 143 101 245t242 102q138 0 243 -103q47 23 47 63q0 41 -47 80zM382 596q-104 0 -178.5 -76t-74.5 -183q0 -111 73.5 -188.5t179.5 -77.5q104 0 178.5 77
t74.5 185q0 109 -74 186t-179 77z" />
    <glyph glyph-name="ohorn" unicode="&#x1a1;" horiz-adv-x="562" 
d="M424 496l63 31q61 -45 61 -110q0 -70 -68 -118q13 -38 13 -77q0 -99 -67 -167t-164 -68t-164 68t-67 167t66.5 166.5t164.5 67.5q114 0 183 -91q27 20 27 52q0 41 -48 79zM264 379q-66 0 -106.5 -43.5t-40.5 -114.5q0 -69 40.5 -113t104.5 -44t104.5 44t40.5 114
q0 68 -40.5 112.5t-102.5 44.5z" />
    <glyph glyph-name="Uhorn" unicode="&#x1af;" horiz-adv-x="674" 
d="M471 667h89v-85q38 23 38 59q0 41 -48 79l62 31q62 -45 62 -111q0 -48 -33 -85.5t-81 -55.5v-264q0 -82 -29 -133q-31 -53 -88 -84t-124 -31t-125 31t-89 84q-28 48 -28 133v432h89v-412q0 -83 19 -115q17 -30 54.5 -49.5t78.5 -19.5q42 0 79.5 19t54.5 50q19 32 19 115
v412z" />
    <glyph glyph-name="uhorn" unicode="&#x1b0;" horiz-adv-x="578" 
d="M364 443h86v-86q39 23 39 60q0 41 -48 79l62 31q62 -43 62 -111q0 -93 -110 -139l-5 -2v-275h-86v41q-48 -54 -122 -54q-49 0 -90.5 23t-64.5 62q-27 45 -27 132v239h86v-231q0 -68 21 -106.5t83 -38.5q32 0 58 13.5t38 35.5q18 33 18 106v221z" />
    <glyph glyph-name="uni01C4" unicode="&#x1c4;" horiz-adv-x="1129" 
d="M77 0v667h142q166 0 263.5 -90t97.5 -243q0 -154 -97.5 -244t-263.5 -90h-142zM222 584h-56v-501h56q124 0 196 67.5t72 183.5q0 115 -72 182.5t-196 67.5zM1100 667v-75l-351 -509h358v-83h-468v75l357 510h-327v82h431zM799 880l91 -87l91 87l63 -32l-123 -134h-62
l-123 134z" />
    <glyph glyph-name="uni01C5" unicode="&#x1c5;" horiz-adv-x="1035" 
d="M77 0v667h142q166 0 263.5 -90t97.5 -243q0 -154 -97.5 -244t-263.5 -90h-142zM222 584h-56v-501h56q124 0 196 67.5t72 183.5q0 115 -72 182.5t-196 67.5zM1013 443v-68l-259 -298h268v-77h-378v67l260 299h-245v77h354zM742 680l91 -87l91 87l63 -31l-122 -135h-63
l-123 135z" />
    <glyph glyph-name="uni01C6" unicode="&#x1c6;" horiz-adv-x="964" 
d="M487 667v-667h-86v48q-42 -34 -74 -47.5t-70 -13.5q-94 0 -160 69t-66 166t66 165.5t160 68.5q38 0 69.5 -13.5t74.5 -47.5v272h86zM263 378q-65 0 -105.5 -43.5t-40.5 -113.5q0 -69 40.5 -113t102.5 -44t101.5 44t39.5 113t-39 113t-99 44zM940 443v-68l-258 -298h268
v-77h-378v67l259 299h-244v77h353zM670 680l91 -87l91 87l63 -31l-123 -135h-62l-123 135z" />
    <glyph glyph-name="uni01C7" unicode="&#x1c7;" horiz-adv-x="837" 
d="M77 667h89v-584h254v-83h-343v667zM672 667h89v-465q0 -89 -28 -138q-20 -35 -58 -56t-84 -21q-81 0 -162 77l55 65q57 -58 105 -58q83 0 83 131v465z" />
    <glyph glyph-name="uni01C8" unicode="&#x1c8;" horiz-adv-x="644" 
d="M421 -233v79q27 -7 39 -7q38 0 38 64v540h86v-540q0 -69 -28.5 -106.5t-81.5 -37.5q-25 0 -53 8zM77 667h89v-584h254v-83h-343v667zM542 650q24 0 41 -16.5t17 -40.5t-17 -41t-41 -17q-25 0 -41.5 17t-16.5 41q0 23 17 40t41 17z" />
    <glyph glyph-name="uni01C9" unicode="&#x1c9;" horiz-adv-x="423" 
d="M199 -233v79q28 -7 39 -7q39 0 39 64v540h86v-540q0 -69 -28.5 -106.5t-81.5 -37.5q-26 0 -54 8zM147 667v-667h-86v667h86zM320 650q24 0 41 -16.5t17 -40.5t-17 -41t-41 -17q-25 0 -41.5 17t-16.5 41q0 23 17 40t41 17z" />
    <glyph glyph-name="uni01CA" unicode="&#x1ca;" horiz-adv-x="1118" 
d="M166 0h-89v667h80l387 -518v518h89v-667h-80l-387 518v-518zM952 667h89v-465q0 -89 -28 -138q-20 -35 -58 -56t-84 -21q-81 0 -162 77l55 65q57 -58 105 -58q83 0 83 131v465z" />
    <glyph glyph-name="uni01CB" unicode="&#x1cb;" horiz-adv-x="925" 
d="M701 -233v79q28 -7 39 -7q39 0 39 64v540h86v-540q0 -69 -28.5 -106.5t-81.5 -37.5q-26 0 -54 8zM166 0h-89v667h80l387 -518v518h89v-667h-80l-387 518v-518zM822 650q24 0 41 -16.5t17 -40.5t-17 -41t-41 -17q-25 0 -41.5 17t-16.5 41q0 23 17 40t41 17z" />
    <glyph glyph-name="uni01CC" unicode="&#x1cc;" horiz-adv-x="725" 
d="M60 0v443h86v-41q48 54 122 54q49 0 90.5 -23t64.5 -62q27 -45 27 -132v-239h-86v231q0 68 -21 106.5t-83 38.5q-32 0 -58 -13.5t-38 -35.5q-18 -33 -18 -105v-222h-86zM501 -233v79q28 -7 39 -7q39 0 39 64v540h86v-540q0 -69 -28.5 -106.5t-81.5 -37.5q-26 0 -54 8z
M622 650q24 0 41 -16.5t17 -40.5t-17 -41t-41 -17q-25 0 -41.5 17t-16.5 41q0 23 17 40t41 17z" />
    <glyph glyph-name="uni01CD" unicode="&#x1cd;" horiz-adv-x="625" 
d="M460 180h-297l-67 -180h-93l254 667h111l254 -667h-94zM311 577l-117 -314h235zM221 880l91 -87l91 87l63 -32l-122 -134h-63l-123 134z" />
    <glyph glyph-name="uni01CE" unicode="&#x1ce;" 
d="M487 443v-443h-86v48q-42 -34 -74 -47.5t-70 -13.5q-94 0 -160 69t-66 166t66 165.5t160 68.5q38 0 69.5 -13.5t74.5 -47.5v48h86zM263 379q-65 0 -105.5 -43.5t-40.5 -114.5q0 -69 40.5 -113t103.5 -44t102.5 44t39.5 114q0 68 -39.5 112.5t-100.5 44.5zM168 680l91 -87
l91 87l63 -31l-123 -135h-62l-123 135z" />
    <glyph glyph-name="uni01CF" unicode="&#x1cf;" horiz-adv-x="243" 
d="M76 667h89v-667h-89v667zM30 880l91 -87l91 87l63 -32l-123 -134h-62l-123 134z" />
    <glyph glyph-name="uni01D0" unicode="&#x1d0;" horiz-adv-x="206" 
d="M60 443h86v-443h-86v443zM12 680l91 -87l91 87l63 -31l-123 -135h-62l-123 135z" />
    <glyph glyph-name="uni01D1" unicode="&#x1d1;" horiz-adv-x="763" 
d="M382 680q141 0 242 -102t101 -245q0 -142 -101 -244t-241 -102q-143 0 -243.5 102.5t-100.5 248.5q0 138 102 240t241 102zM382 596q-104 0 -178.5 -76t-74.5 -183q0 -111 73.5 -188.5t179.5 -77.5q104 0 178.5 77t74.5 185q0 109 -74 186t-179 77zM291 880l91 -87l91 87
l63 -32l-123 -134h-62l-123 134z" />
    <glyph glyph-name="uni01D2" unicode="&#x1d2;" horiz-adv-x="524" 
d="M266 456q95 0 161 -68.5t66 -165.5q0 -99 -67 -167t-164 -68q-98 0 -164.5 68t-66.5 169q0 98 67.5 165t167.5 67zM264 379q-66 0 -106.5 -43.5t-40.5 -114.5q0 -69 40.5 -113t104.5 -44t104.5 44t40.5 114q0 68 -40.5 112.5t-102.5 44.5zM171 680l91 -87l91 87l63 -31
l-123 -135h-62l-123 135z" />
    <glyph glyph-name="uni01D3" unicode="&#x1d3;" horiz-adv-x="637" 
d="M77 235v432h89v-412q0 -83 19 -115q17 -31 54.5 -50t79.5 -19q41 0 78.5 19t54.5 50q19 34 19 115v412h89v-432q0 -81 -28 -133q-31 -53 -88.5 -84t-124.5 -31t-125 31t-89 84q-28 49 -28 133zM228 880l91 -87l91 87l63 -32l-123 -134h-62l-123 134z" />
    <glyph glyph-name="uni01D4" unicode="&#x1d4;" horiz-adv-x="509" 
d="M450 443v-443h-86v41q-48 -54 -122 -54q-49 0 -90.5 23t-64.5 62q-27 45 -27 132v239h86v-231q0 -68 21 -106.5t83 -38.5q32 0 58 13.5t38 35.5q18 33 18 106v221h86zM164 680l91 -87l91 87l63 -31l-123 -135h-62l-123 135z" />
    <glyph glyph-name="uni01DD" unicode="&#x1dd;" horiz-adv-x="497" 
d="M33 261h343q-9 57 -43.5 88.5t-87.5 31.5q-73 0 -118 -60l-78 31q74 104 196 104q97 0 159 -65.5t62 -167.5q0 -101 -63 -168.5t-157 -67.5q-93 0 -153.5 66t-60.5 168v19q1 4 1 21zM378 197h-260q3 -65 36 -100t92 -35q117 0 132 135z" />
    <glyph glyph-name="Gcaron" unicode="&#x1e6;" horiz-adv-x="727" 
d="M402 269v83h285v-44q0 -145 -82 -233t-217 -88q-146 0 -247.5 100.5t-101.5 245.5t101 246t246 101q71 0 128.5 -26t118.5 -86l-62 -61q-45 48 -88 68.5t-98 20.5q-109 0 -182.5 -75.5t-73.5 -187.5q0 -110 74.5 -186t182.5 -76q111 0 170 81q32 46 39 117h-193zM295 880
l91 -87l91 87l63 -32l-123 -134h-62l-123 134z" />
    <glyph glyph-name="gcaron" unicode="&#x1e7;" 
d="M401 443h86v-451q0 -106 -65 -172t-169 -66q-67 0 -114 25t-94 78l56 56l6 -6q34 -40 64 -57.5t79 -17.5q71 0 111 42t40 118v56q-64 -61 -143 -61q-94 0 -160.5 68.5t-66.5 166.5q0 97 66 165.5t161 68.5q79 0 143 -61v48zM263 379q-65 0 -105.5 -43.5t-40.5 -114.5
q0 -69 40.5 -113t103.5 -44q62 0 101.5 44t39.5 114q0 68 -39 112.5t-100 44.5zM168 680l91 -87l91 87l63 -31l-123 -135h-62l-123 135z" />
    <glyph glyph-name="uni01F4" unicode="&#x1f4;" horiz-adv-x="727" 
d="M402 269v83h285v-44q0 -145 -82 -233t-217 -88q-146 0 -247.5 100.5t-101.5 245.5t101 246t246 101q71 0 128.5 -26t118.5 -86l-62 -61q-45 48 -88 68.5t-98 20.5q-109 0 -182.5 -75.5t-73.5 -187.5q0 -110 74.5 -186t182.5 -76q111 0 170 81q32 46 39 117h-193zM439 887
l83 -45l-135 -135l-55 32z" />
    <glyph glyph-name="uni01F5" unicode="&#x1f5;" 
d="M401 443h86v-451q0 -106 -65 -172t-169 -66q-67 0 -114 25t-94 78l56 56l6 -6q34 -40 64 -57.5t79 -17.5q71 0 111 42t40 118v56q-64 -61 -143 -61q-94 0 -160.5 68.5t-66.5 166.5q0 97 66 165.5t161 68.5q79 0 143 -61v48zM263 379q-65 0 -105.5 -43.5t-40.5 -114.5
q0 -69 40.5 -113t103.5 -44q62 0 101.5 44t39.5 114q0 68 -39 112.5t-100 44.5zM311 687l82 -44l-134 -136l-56 32z" />
    <glyph glyph-name="Aringacute" unicode="&#x1fa;" horiz-adv-x="625" 
d="M460 180h-297l-67 -180h-93l254 667h111l254 -667h-94zM311 577l-117 -314h235zM313 885q39 0 67 -28t28 -66q0 -39 -28 -66.5t-68 -27.5t-68 27.5t-28 67.5q0 38 28.5 65.5t68.5 27.5zM312 843q-21 0 -36.5 -15t-15.5 -36q0 -22 15 -37.5t37 -15.5t37 15t15 37t-15 37
t-37 15zM326 1068l82 -44l-135 -135l-55 31z" />
    <glyph glyph-name="aringacute" unicode="&#x1fb;" 
d="M487 443v-443h-86v48q-42 -34 -74 -47.5t-70 -13.5q-94 0 -160 69t-66 166t66 165.5t160 68.5q38 0 69.5 -13.5t74.5 -47.5v48h86zM263 379q-65 0 -105.5 -43.5t-40.5 -114.5q0 -69 40.5 -113t103.5 -44t102.5 44t39.5 114q0 68 -39.5 112.5t-100.5 44.5zM272 684
q40 0 68 -27.5t28 -66.5t-28.5 -66.5t-68.5 -27.5q-39 0 -67 28t-28 67q0 38 28.5 65.5t67.5 27.5zM272 642q-21 0 -36.5 -15t-15.5 -36q0 -22 15 -37.5t37 -15.5t37 15t15 37t-15 37t-37 15zM286 887l82 -45l-135 -135l-55 32z" />
    <glyph glyph-name="AEacute" unicode="&#x1fc;" horiz-adv-x="840" 
d="M438 0v180h-244l-91 -180h-100l345 667h443v-82h-264v-206h234v-83h-234v-213h274v-83h-363zM237 263h201v322h-38zM572 887l83 -45l-135 -135l-55 32z" />
    <glyph glyph-name="aeacute" unicode="&#x1fd;" horiz-adv-x="819" 
d="M707 139l75 -31q-73 -121 -203 -121q-101 0 -167 78q-47 -78 -176 -78q-94 0 -149.5 41t-55.5 111t50.5 109.5t139.5 39.5h131q-8 47 -37.5 69.5t-84.5 22.5q-75 0 -140 -51l-42 56q86 71 191 71q125 0 169 -81q64 81 165 81q94 0 154.5 -68.5t60.5 -174.5q0 -12 -1 -26
h-344q10 -57 46.5 -90t89.5 -33q38 0 70.5 17t50.5 46q5 10 7 12zM355 145v74h-120q-119 0 -119 -79q0 -37 31 -57t89 -20q119 0 119 82zM443 256h260q-11 58 -45 91t-84 33q-51 0 -86 -33t-45 -91zM457 687l83 -44l-135 -136l-55 32z" />
    <glyph glyph-name="Oslashacute" unicode="&#x1fe;" horiz-adv-x="771" 
d="M99 -2l-49 47l70 70q-78 98 -78 218q0 143 101 245t243 102q120 0 216 -80l69 69l49 -47l-70 -70q78 -98 78 -218q0 -143 -101 -245t-243 -102q-122 0 -216 80zM182 177l360 362q-73 57 -155 57q-107 0 -181 -76.5t-74 -188.5q0 -82 50 -154zM588 490l-359 -362
q71 -57 155 -57q106 0 180 77t74 186q0 83 -50 156zM438 887l83 -45l-135 -135l-55 32z" />
    <glyph glyph-name="oslashacute" unicode="&#x1ff;" horiz-adv-x="538" 
d="M82 -2l-44 43l44 42q-44 61 -44 138q0 100 67 167.5t165 67.5q81 0 144 -51l41 40l45 -43l-44 -42q44 -63 44 -137q0 -101 -66.5 -168.5t-165.5 -67.5q-82 0 -145 51zM141 140l216 210q-38 29 -87 29q-65 0 -105.5 -43.5t-40.5 -114.5q0 -42 17 -81zM396 303l-216 -210
q40 -29 88 -29q65 0 105.5 43.5t40.5 114.5q0 45 -18 81zM322 687l83 -44l-135 -136l-56 32z" />
    <glyph glyph-name="uni0200" unicode="&#x200;" horiz-adv-x="625" 
d="M460 180h-297l-67 -180h-93l254 667h111l254 -667h-94zM311 577l-117 -314h235zM242 707l-135 135l79 45l108 -148zM382 707l-135 135l79 45l108 -148z" />
    <glyph glyph-name="uni0201" unicode="&#x201;" 
d="M482 443v-443h-86v48q-42 -34 -74 -47.5t-70 -13.5q-94 0 -160 69t-66 166t66 165.5t160 68.5q38 0 69.5 -13.5t74.5 -47.5v48h86zM258 379q-64 0 -105 -43t-41 -111q0 -72 40 -116.5t104 -44.5q63 0 102.5 44t39.5 114q0 68 -39.5 112.5t-100.5 44.5zM162 507l-135 135
l79 45l107 -148zM302 507l-135 135l79 45l107 -148z" />
    <glyph glyph-name="Scommaaccent" unicode="&#x218;" horiz-adv-x="510" 
d="M452 567l-71 -46q-28 42 -54.5 59t-64.5 17q-46 0 -78 -29.5t-32 -73.5q0 -60 91 -96l65 -24q158 -61 158 -181q0 -87 -62.5 -146.5t-154.5 -59.5q-83 0 -137.5 47t-74.5 135l87 23q15 -57 43.5 -89t83.5 -32q52 0 88.5 35.5t36.5 85.5q0 36 -25 61t-84 48l-62 24
q-141 53 -141 170q0 79 57.5 132t143.5 53q61 0 106 -27t81 -86zM162 -181l91 142l79 -33l-110 -139z" />
    <glyph glyph-name="scommaaccent" unicode="&#x219;" horiz-adv-x="375" 
d="M26 109l72 29q20 -41 40 -57.5t50 -16.5q31 0 51 18t20 46q0 22 -13.5 33.5t-57.5 28.5l-47 18q-94 37 -94 116q0 56 42 94t105 38q92 0 140 -89l-68 -34q-32 47 -74 47q-28 0 -46 -15t-18 -38q0 -22 12 -32.5t58 -28.5l43 -16q103 -40 103 -118q0 -62 -45.5 -103.5
t-112.5 -41.5q-114 0 -160 122zM182 -228l-62 19l50 170l82 -25z" />
    <glyph glyph-name="uni021A" unicode="&#x21a;" horiz-adv-x="435" 
d="M431 667v-82h-170v-585h-89v585h-169v82h428zM197 -228l-61 19l50 170l82 -25z" />
    <glyph glyph-name="uni021B" unicode="&#x21b;" horiz-adv-x="253" 
d="M153 443h71v-77h-71v-230q0 -63 38 -63q14 0 39 7v-79q-27 -8 -53 -8q-52 0 -81 37.5t-29 105.5v230h-49v77h49v102l86 33v-135zM120 -228l-62 19l51 170l82 -25z" />
    <glyph glyph-name="uni0226" unicode="&#x226;" horiz-adv-x="625" 
d="M460 180h-297l-67 -180h-93l254 667h111l254 -667h-94zM311 577l-117 -314h235zM312 847q24 0 40.5 -16.5t16.5 -39.5q0 -24 -17 -40.5t-40 -16.5q-24 0 -40.5 16.5t-16.5 40.5q0 23 17 39.5t40 16.5z" />
    <glyph glyph-name="uni0227" unicode="&#x227;" 
d="M487 443v-443h-86v48q-42 -34 -74 -47.5t-70 -13.5q-94 0 -160 69t-66 166t66 165.5t160 68.5q38 0 69.5 -13.5t74.5 -47.5v48h86zM263 379q-65 0 -105.5 -43.5t-40.5 -114.5q0 -69 40.5 -113t103.5 -44t102.5 44t39.5 114q0 68 -39.5 112.5t-100.5 44.5zM259 648
q23 0 40 -16.5t17 -39.5q0 -24 -17 -40.5t-41 -16.5q-23 0 -39.5 17t-16.5 40t17 39.5t40 16.5z" />
    <glyph glyph-name="uni0237" unicode="&#x237;" horiz-adv-x="216" 
d="M-8 -233v79q28 -7 39 -7q39 0 39 64v540h86v-540q0 -69 -28.5 -106.5t-81.5 -37.5q-26 0 -54 8z" />
    <glyph glyph-name="uni0259" unicode="&#x259;" horiz-adv-x="497" 
d="M33 261h343q-9 57 -43.5 88.5t-87.5 31.5q-73 0 -118 -60l-78 31q74 104 196 104q97 0 159 -65.5t62 -167.5q0 -101 -63 -168.5t-157 -67.5q-93 0 -153.5 66t-60.5 168v19q1 4 1 21zM378 197h-260q3 -65 36 -100t92 -35q117 0 132 135z" />
    <glyph glyph-name="uni02BB" unicode="&#x2bb;" horiz-adv-x="238" 
d="M208 684l-87 -242l-78 29l106 237z" />
    <glyph glyph-name="afii57929" unicode="&#x2bc;" horiz-adv-x="272" 
d="M53 466l87 242l79 -28l-106 -238z" />
    <glyph glyph-name="circumflex" unicode="&#x2c6;" horiz-adv-x="476" 
d="M329 508l-91 87l-91 -87l-63 31l123 134h62l123 -134z" />
    <glyph glyph-name="caron" unicode="&#x2c7;" horiz-adv-x="476" 
d="M147 680l91 -87l91 87l63 -31l-123 -135h-62l-123 135z" />
    <glyph glyph-name="uni02C9" unicode="&#x2c9;" horiz-adv-x="476" 
d="M95 552v77h286v-77h-286z" />
    <glyph glyph-name="breve" unicode="&#x2d8;" horiz-adv-x="476" 
d="M99 653l74 6q1 -29 6 -41q19 -36 57 -36q39 0 58 38q4 8 8 39l74 -6q-8 -68 -45 -106t-95 -38q-62 0 -99 39t-38 105z" />
    <glyph glyph-name="dotaccent" unicode="&#x2d9;" horiz-adv-x="476" 
d="M238 648q23 0 40 -16.5t17 -39.5q0 -24 -17 -40.5t-41 -16.5q-23 0 -39.5 17t-16.5 40t17 39.5t40 16.5z" />
    <glyph glyph-name="ring" unicode="&#x2da;" horiz-adv-x="476" 
d="M238 685q40 0 68 -27.5t28 -66.5t-28 -66.5t-68 -27.5t-68 27.5t-28 67.5q0 38 28.5 65.5t67.5 27.5zM238 643q-21 0 -36.5 -15t-15.5 -36q0 -22 15 -37.5t37 -15.5t37 15t15 37t-15 37t-37 15z" />
    <glyph glyph-name="ogonek" unicode="&#x2db;" horiz-adv-x="476" 
d="M347 0h85q-36 -43 -36 -67q0 -20 24 -20q16 0 43 10l25 -63q-43 -16 -75 -16q-41 0 -68 24t-27 61q0 32 29 71z" />
    <glyph glyph-name="tilde" unicode="&#x2dc;" horiz-adv-x="476" 
d="M311 649l70 -16q-8 -97 -85 -97q-34 0 -71 20q-25 14 -40 14q-16 0 -21 -37l-69 16q5 47 27.5 72t58.5 25q30 0 73 -22q23 -12 39 -12q15 0 18 37z" />
    <glyph glyph-name="hungarumlaut" unicode="&#x2dd;" horiz-adv-x="476" 
d="M223 687l78 -44l-136 -136l-49 32zM366 687l76 -45l-134 -135l-50 31z" />
    <glyph glyph-name="uni0309" unicode="&#x309;" horiz-adv-x="476" 
d="M198 812l-25 62q41 16 77 16q41 0 67 -20.5t26 -53.5q0 -26 -17 -52l-15 -24q-6 -10 -6 -22v-4h-77q1 30 15 50l9 13q13 18 13 26q0 18 -23 18q-16 0 -44 -9z" />
    <glyph glyph-name="uni0312" unicode="&#x312;" horiz-adv-x="476" 
d="M346 687l61 -20l-50 -170l-82 25z" />
    <glyph glyph-name="uni0313" unicode="&#x313;" horiz-adv-x="476" 
d="M337 497l-62 20l50 170l82 -25z" />
    <glyph glyph-name="uni031B" unicode="&#x31b;" horiz-adv-x="476" 
d="M337 497l-62 20l50 170l82 -25z" />
    <glyph glyph-name="uni0323" unicode="&#x323;" horiz-adv-x="476" 
d="M237 -54q24 0 41 -17t17 -41q0 -23 -17 -40t-40 -17q-25 0 -41.5 17t-16.5 41q0 23 17 40t40 17z" />
    <glyph glyph-name="uni0374" unicode="&#x374;" horiz-adv-x="199" 
d="M89 440h-64l66 270h87z" />
    <glyph glyph-name="uni0375" unicode="&#x375;" horiz-adv-x="199" 
d="M83 -119h-64l66 270h87z" />
    <glyph glyph-name="uni037A" unicode="&#x37a;" horiz-adv-x="467" 
d="M202 -65v65h71v-45q0 -42 9 -51q9 -11 29 -11q21 0 43 4l5 -55q-33 -9 -70 -9q-56 0 -75 28q-12 16 -12 74z" />
    <glyph glyph-name="uni037E" unicode="&#x37e;" horiz-adv-x="236" 
d="M134 427q24 0 40.5 -16.5t16.5 -39.5t-16.5 -39.5t-39.5 -16.5q-24 0 -40.5 16.5t-16.5 40.5q0 22 16.5 38.5t39.5 16.5zM20 -136l87 242l79 -28l-106 -238z" />
    <glyph glyph-name="tonos" unicode="&#x384;" horiz-adv-x="493" 
d="M277 514h-60l-12 190h84z" />
    <glyph glyph-name="dieresistonos" unicode="&#x385;" horiz-adv-x="493" 
d="M122 648q23 0 39.5 -16.5t16.5 -39.5t-16.5 -39.5t-39.5 -16.5q-24 0 -40.5 16.5t-16.5 40.5q0 22 17 38.5t40 16.5zM277 508h-61l-12 201h85zM373 648q23 0 39.5 -16.5t16.5 -39.5t-16.5 -39.5t-39.5 -16.5q-24 0 -40.5 16.5t-16.5 40.5q0 22 17 38.5t40 16.5z" />
    <glyph glyph-name="Alphatonos" unicode="&#x386;" horiz-adv-x="627" 
d="M527 0l-67 173h-298l-67 -173h-94l266 669h88l266 -669h-94zM191 256h240l-120 307zM115 496h-62l-12 215h87z" />
    <glyph glyph-name="uni0387" unicode="&#x387;" horiz-adv-x="232" 
d="M116 366q23 0 39 -16t16 -38t-16 -38t-39 -16t-39 16t-16 39q0 22 16 37.5t39 15.5z" />
    <glyph glyph-name="Epsilontonos" unicode="&#x388;" horiz-adv-x="604" 
d="M562 0h-364v667h354v-82h-265v-206h235v-82h-235v-214h275v-83zM89 496h-62l-12 215h86z" />
    <glyph glyph-name="Etatonos" unicode="&#x389;" horiz-adv-x="774" 
d="M287 0h-89v667h89v-288h320v288h89v-667h-89v296h-320v-296zM89 496h-62l-12 215h86z" />
    <glyph glyph-name="Iotatonos" unicode="&#x38a;" horiz-adv-x="365" 
d="M287 0h-89v667h89v-667zM89 496h-62l-12 215h86z" />
    <glyph glyph-name="Omicrontonos" unicode="&#x38c;" horiz-adv-x="861" 
d="M478 680q144 0 244 -100.5t100 -245.5t-100 -246t-243 -101q-146 0 -245.5 101t-99.5 250q0 141 101 241.5t243 100.5zM478 597q-107 0 -180.5 -75.5t-73.5 -184.5q0 -115 72.5 -191t182.5 -76q107 0 180 76t73 188t-73 187.5t-181 75.5zM89 496h-62l-12 215h86z" />
    <glyph glyph-name="Upsilontonos" unicode="&#x38e;" horiz-adv-x="658" 
d="M442 0h-89v278l-218 389h100l163 -297l163 297h99l-218 -389v-278zM89 496h-62l-12 215h86z" />
    <glyph glyph-name="Omegatonos" unicode="&#x38f;" horiz-adv-x="872" 
d="M413 0h-270v83h181v25q-181 68 -181 257q0 140 94.5 226t247.5 86t247.5 -86t94.5 -226q0 -127 -84 -202q-35 -31 -97 -55v-25h181v-83h-270v135q63 15 114 62q65 61 65 156q0 108 -68 172t-183 64t-183 -64t-68 -173q0 -101 75 -163q45 -40 104 -54v-135zM89 496h-62
l-12 215h86z" />
    <glyph glyph-name="iotadieresistonos" unicode="&#x390;" horiz-adv-x="234" 
d="M59 156v287h85v-291q0 -43 5 -58q8 -22 35 -22q13 0 38 8l3 -77q-34 -10 -64 -10q-34 0 -56 14t-31 41t-12 50.5t-3 57.5zM-23 648q23 0 39.5 -16.5t16.5 -39.5t-16.5 -39.5t-39.5 -16.5q-24 0 -40.5 16.5t-16.5 40.5q0 22 17 38.5t40 16.5zM132 508h-61l-12 201h85z
M228 648q23 0 39.5 -16.5t16.5 -39.5t-16.5 -39.5t-39.5 -16.5q-24 0 -40.5 16.5t-16.5 40.5q0 22 17 38.5t40 16.5z" />
    <glyph glyph-name="Alpha" unicode="&#x391;" horiz-adv-x="627" 
d="M530 0l-67 173h-298l-67 -173h-94l266 669h88l266 -669h-94zM194 256h240l-120 307z" />
    <glyph glyph-name="Beta" unicode="&#x392;" horiz-adv-x="526" 
d="M254 0h-177v667h144q110 0 164 -40q32 -24 50.5 -61.5t18.5 -77.5q0 -45 -19.5 -77t-64.5 -59q116 -58 116 -165q0 -86 -70 -141q-32 -25 -68.5 -35.5t-93.5 -10.5zM163 306v-227h85q76 0 113 28q40 32 40 85q0 64 -51 94q-35 20 -111 20h-76zM163 589v-212h69
q42 0 63 5.5t39 19.5q37 31 37 82q0 60 -37.5 82.5t-101.5 22.5h-69z" />
    <glyph glyph-name="Gamma" unicode="&#x393;" horiz-adv-x="456" 
d="M166 0h-89v667h360v-83h-271v-584z" />
    <glyph glyph-name="uni0394" unicode="&#x394;" horiz-adv-x="613" 
d="M597 64v-64h-581v64l246 604h89zM115 82h383l-192 482z" />
    <glyph glyph-name="Epsilon" unicode="&#x395;" horiz-adv-x="482" 
d="M440 0h-363v667h354v-82h-265v-206h235v-82h-235v-214h274v-83z" />
    <glyph glyph-name="Zeta" unicode="&#x396;" horiz-adv-x="512" 
d="M489 0h-469v63l350 521h-320v83h432v-63l-346 -521h353v-83z" />
    <glyph glyph-name="Eta" unicode="&#x397;" horiz-adv-x="652" 
d="M166 0h-89v667h89v-288h320v288h89v-667h-89v296h-320v-296z" />
    <glyph glyph-name="Theta" unicode="&#x398;" horiz-adv-x="766" 
d="M383 680q144 0 244 -100.5t100 -245.5t-100 -246t-243 -101q-146 0 -245.5 101t-99.5 250q0 141 101 241.5t243 100.5zM383 597q-107 0 -180.5 -75.5t-73.5 -184.5q0 -115 72.5 -191t182.5 -76q107 0 180 76t73 188t-73 187.5t-181 75.5zM537 298h-308v80h308v-80z" />
    <glyph glyph-name="Iota" unicode="&#x399;" horiz-adv-x="243" 
d="M166 0h-89v667h89v-667z" />
    <glyph glyph-name="Kappa" unicode="&#x39a;" horiz-adv-x="582" 
d="M166 0h-89v667h89v-319l290 319h113l-253 -276l256 -391h-105l-212 326l-89 -98v-228z" />
    <glyph glyph-name="Lambda" unicode="&#x39b;" horiz-adv-x="566" 
d="M99 0h-94l236 668h86l234 -668h-95l-182 545z" />
    <glyph glyph-name="Mu" unicode="&#x39c;" horiz-adv-x="810" 
d="M167 0h-89v667h86l241 -415l241 415h86v-667h-89v497l-204 -349h-68l-204 349v-497z" />
    <glyph glyph-name="Nu" unicode="&#x39d;" horiz-adv-x="711" 
d="M167 0h-89v667h78l389 -514v514h89v-667h-77l-390 515v-515z" />
    <glyph glyph-name="Xi" unicode="&#x39e;" horiz-adv-x="570" 
d="M523 0h-476v83h476v-83zM494 298h-418v80h418v-80zM523 584h-476v83h476v-83z" />
    <glyph glyph-name="Omicron" unicode="&#x39f;" horiz-adv-x="766" 
d="M383 680q144 0 244 -100.5t100 -245.5t-100 -246t-243 -101q-146 0 -245.5 101t-99.5 250q0 141 101 241.5t243 100.5zM383 597q-107 0 -180.5 -75.5t-73.5 -184.5q0 -115 72.5 -191t182.5 -76q107 0 180 76t73 188t-73 187.5t-181 75.5z" />
    <glyph glyph-name="Pi" unicode="&#x3a0;" horiz-adv-x="663" 
d="M166 0h-89v667h509v-667h-89v584h-331v-584z" />
    <glyph glyph-name="Rho" unicode="&#x3a1;" horiz-adv-x="471" 
d="M219 258h-53v-258h-89v667h142q115 0 172 -51q63 -57 63 -152q0 -96 -63 -154q-56 -52 -172 -52zM166 585v-245h62q139 0 139 124q0 121 -139 121h-62z" />
    <glyph glyph-name="Sigma" unicode="&#x3a3;" horiz-adv-x="520" 
d="M485 0h-433v47l192 305l-177 266v49h408v-83h-298l154 -217v-23l-165 -261h319v-83z" />
    <glyph glyph-name="Tau" unicode="&#x3a4;" horiz-adv-x="436" 
d="M263 0h-89v584h-170v83h429v-83h-170v-584z" />
    <glyph glyph-name="Upsilon" unicode="&#x3a5;" horiz-adv-x="520" 
d="M304 0h-89v278l-218 389h100l163 -297l163 297h99l-218 -389v-278z" />
    <glyph glyph-name="Phi" unicode="&#x3a6;" horiz-adv-x="860" 
d="M469 -54h-81v98q-126 7 -203 48q-70 37 -108 99.5t-38 140.5q0 86 44.5 152t125.5 100q66 29 179 37v99h81v-99q129 -7 205 -48q70 -37 108 -99.5t38 -141.5q0 -85 -44.5 -151t-125.5 -101q-73 -30 -181 -36v-98zM388 122v421q-92 -7 -143 -31q-116 -58 -116 -180
q0 -63 35 -112t98 -74q45 -18 126 -24zM469 543v-421q96 7 145 31q116 57 116 179q0 64 -35 113t-98 74q-45 18 -128 24z" />
    <glyph glyph-name="Chi" unicode="&#x3a7;" 
d="M4 0l219 348l-199 319h101l149 -241l150 241h100l-200 -318l220 -349h-103l-168 271l-168 -271h-101z" />
    <glyph glyph-name="Psi" unicode="&#x3a8;" horiz-adv-x="774" 
d="M432 0h-87v160q-153 6 -221.5 65.5t-67.5 184.5v257h89v-238q-2 -98 42 -138t158 -44v420h87v-420q113 4 157 44t42 138v238h89v-257q1 -125 -67.5 -184.5t-220.5 -65.5v-160z" />
    <glyph glyph-name="uni03A9" unicode="&#x3a9;" horiz-adv-x="776" 
d="M314 0h-270v83h181v25q-181 68 -181 257q0 140 99 230q93 82 244 82q153 0 247.5 -86t94.5 -226q0 -127 -84 -202q-35 -31 -97 -55v-25h181v-83h-270v135q63 15 114 62q65 61 65 156q0 108 -68.5 172t-183.5 64t-183 -64t-68 -173q0 -101 75 -163q45 -40 104 -54v-135z
" />
    <glyph glyph-name="Iotadieresis" unicode="&#x3aa;" horiz-adv-x="243" 
d="M166 0h-89v667h89v-667zM28 847q21 0 36 -14.5t15 -35.5q0 -20 -15 -35t-36 -15t-36 15t-15 36q0 20 15 34.5t36 14.5zM215 847q21 0 36 -14.5t15 -35.5q0 -20 -15 -35t-36 -15t-36 15t-15 36q0 20 15 34.5t36 14.5z" />
    <glyph glyph-name="Upsilondieresis" unicode="&#x3ab;" horiz-adv-x="520" 
d="M304 0h-89v278l-218 389h100l163 -297l163 297h99l-218 -389v-278zM166 847q21 0 36 -14.5t15 -35.5q0 -20 -15 -35t-36 -15t-36 15t-15 36q0 20 15 34.5t36 14.5zM353 847q21 0 36 -14.5t15 -35.5q0 -20 -15 -35t-36 -15t-36 15t-15 36q0 20 15 34.5t36 14.5z" />
    <glyph glyph-name="alphatonos" unicode="&#x3ac;" horiz-adv-x="549" 
d="M489 0h-85v64q-58 -77 -151 -77t-157 68t-64 167q0 98 64 166t157 68q48 0 82.5 -18t68.5 -59v64h85v-443zM265 379q-65 0 -105.5 -43.5t-40.5 -113.5t40.5 -114t104.5 -44q62 0 102 44t40 111q0 71 -39 115.5t-102 44.5zM301 514h-60l-12 190h84z" />
    <glyph glyph-name="epsilontonos" unicode="&#x3ad;" horiz-adv-x="456" 
d="M250 255h97v-60h-97q-116 0 -116 -67q0 -69 119 -69q46 0 77 11.5t64 39.5l46 -60q-49 -35 -93 -49t-107 -14q-95 0 -145.5 35t-50.5 100q0 80 75 108q-63 29 -63 95q0 63 49 97t140 34q57 0 96.5 -13t86.5 -46l-47 -60q-52 46 -126 46q-109 0 -109 -70q0 -31 24.5 -44.5
t79.5 -13.5zM281 514h-61l-11 190h83z" />
    <glyph glyph-name="etatonos" unicode="&#x3ae;" horiz-adv-x="511" 
d="M145 0h-85v443h85v-52q32 37 59 51t74 14q80 0 130 -57q43 -50 43 -158v-474h-85v466q0 68 -21.5 107t-82.5 39q-69 0 -93 -41t-24 -115v-223zM289 514h-60l-12 190h84z" />
    <glyph glyph-name="iotatonos" unicode="&#x3af;" horiz-adv-x="234" 
d="M58 156v287h85v-291q0 -47 8 -63.5t32 -16.5q13 0 38 8l3 -77q-34 -10 -64 -10q-34 0 -56 14t-31 41t-12 50.5t-3 57.5zM131 514h-61l-11 190h84z" />
    <glyph glyph-name="upsilondieresistonos" unicode="&#x3b0;" horiz-adv-x="500" 
d="M41 181v262h85v-255q0 -62 22.5 -94t82.5 -32t82.5 31.5t22.5 94.5v255h85v-262q0 -101 -43 -143q-50 -51 -147 -51q-100 0 -145 47.5t-45 146.5zM105 648q24 0 40.5 -16.5t16.5 -39.5t-16.5 -39.5t-39.5 -16.5q-24 0 -40.5 16.5t-16.5 40.5q0 22 16.5 38.5t39.5 16.5z
M262 508h-62l-12 201h86zM357 648q23 0 39.5 -16.5t16.5 -39.5t-16.5 -39.5t-39.5 -16.5q-24 0 -40.5 16.5t-16.5 40.5q0 22 17 38.5t40 16.5z" />
    <glyph glyph-name="alpha" unicode="&#x3b1;" horiz-adv-x="549" 
d="M489 0h-85v51q-58 -64 -149 -64q-94 0 -158.5 68t-64.5 167t64.5 166.5t158.5 67.5q86 0 149 -63v50h85v-443zM265 379q-65 0 -105.5 -43.5t-40.5 -113.5t40.5 -114t104.5 -44q62 0 102 44t40 111q0 71 -39 115.5t-102 44.5z" />
    <glyph glyph-name="beta" unicode="&#x3b2;" horiz-adv-x="517" 
d="M145 35v-268h-85v704q0 57 8 86.5t30 57.5q51 65 146 65q80 0 132.5 -51t52.5 -129q0 -84 -60 -132q111 -53 111 -173q0 -91 -55 -146t-147 -55q-41 0 -66 8t-67 33zM145 479v-362l26 -22q34 -27 93 -27q58 0 94 36t36 94q0 119 -139 119v76q36 3 53 13q37 24 37 88
q0 50 -27 80t-73 30q-56 0 -84 -45q-16 -27 -16 -80z" />
    <glyph glyph-name="gamma" unicode="&#x3b3;" horiz-adv-x="456" 
d="M183 -233v233l-185 443h91l140 -345l140 345h90l-185 -443v-233h-91z" />
    <glyph glyph-name="delta" unicode="&#x3b4;" horiz-adv-x="527" 
d="M396 667v-76h-82q-57 0 -78 -8.5t-21 -31.5q0 -20 16.5 -33.5t95.5 -58.5q63 -38 104 -77q65 -62 65 -162q0 -102 -65.5 -167.5t-167.5 -65.5q-101 0 -166 66t-65 169q0 66 29 118.5t81 78.5q32 17 92 23q-9 6 -10 7l-36 24q-61 39 -61 95q0 63 64 86q35 13 130 13h75z
M266 376q-64 0 -105 -43.5t-41 -111.5t40.5 -111.5t103.5 -43.5t103.5 44t40.5 112q0 67 -40 110.5t-102 43.5z" />
    <glyph glyph-name="epsilon" unicode="&#x3b5;" horiz-adv-x="456" 
d="M250 257h97v-65h-97q-61 0 -88.5 -15.5t-27.5 -48.5q0 -69 119 -69q46 0 77 11.5t64 39.5l46 -60q-49 -35 -93 -49t-107 -14q-95 0 -145.5 35t-50.5 100q0 80 75 108q-63 30 -63 95q0 63 49 97t140 34q57 0 97 -13t86 -46l-47 -59q-52 45 -126 45q-52 0 -80.5 -18
t-28.5 -51q0 -30 24.5 -43.5t79.5 -13.5z" />
    <glyph glyph-name="zeta" unicode="&#x3b6;" horiz-adv-x="364" 
d="M251 591h-200v76h308v-47q-137 -210 -181.5 -297.5t-44.5 -145.5q0 -59 37 -86q14 -11 27 -15t65 -14q103 -19 103 -107q0 -46 -24.5 -81.5t-89.5 -82.5l-47 55q47 32 63 51.5t16 47.5q0 30 -22 41q-11 7 -58 13q-82 10 -121 47.5t-39 119.5q0 69 41 153t167 272z" />
    <glyph glyph-name="eta" unicode="&#x3b7;" horiz-adv-x="511" 
d="M145 0h-85v443h85v-39q52 52 132 52q81 0 131 -57q43 -50 43 -158v-474h-85v466q0 68 -21.5 107t-82.5 39q-69 0 -93 -41t-24 -115v-223z" />
    <glyph glyph-name="theta" unicode="&#x3b8;" horiz-adv-x="530" 
d="M265 680q53 0 95 -21.5t68 -56.5t43.5 -81.5t24 -92.5t6.5 -94q0 -61 -11.5 -118t-37 -110.5t-74 -86t-113.5 -32.5q-67 0 -115.5 32.5t-73.5 87t-36.5 112t-11.5 119.5q0 60 12 117t38 109.5t74 84t112 31.5zM414 304h-297q10 -239 148 -239q139 0 149 239zM117 378h297
q-14 224 -149 224q-41 0 -71 -21.5t-45.5 -57t-22.5 -71t-9 -74.5z" />
    <glyph glyph-name="iota" unicode="&#x3b9;" horiz-adv-x="234" 
d="M60 156v287h85v-291q0 -47 8 -63.5t32 -16.5q13 0 38 8l3 -77q-34 -10 -64 -10q-34 0 -56 14t-31 41t-12 50.5t-3 57.5z" />
    <glyph glyph-name="kappa" unicode="&#x3ba;" horiz-adv-x="474" 
d="M145 0h-85v443h85v-205l201 205h106l-183 -178l206 -265h-101l-161 211l-68 -67v-144z" />
    <glyph glyph-name="lambda" unicode="&#x3bb;" horiz-adv-x="431" 
d="M-10 0l178 442l-95 225h91l281 -667h-91l-142 333l-127 -333h-95z" />
    <glyph glyph-name="uni03BC" unicode="&#x3bc;" horiz-adv-x="511" 
d="M60 -233v676h85v-235q0 -66 21.5 -105t82.5 -39t91 38q26 31 26 118v223h85v-443h-85v39q-28 -30 -55 -41t-70 -11q-61 0 -96 43v-263h-85z" />
    <glyph glyph-name="nu" unicode="&#x3bd;" horiz-adv-x="457" 
d="M269 0h-81l-190 443h91l140 -331l140 331h90z" />
    <glyph glyph-name="xi" unicode="&#x3be;" horiz-adv-x="371" 
d="M197 590h-145v77h313v-63q-197 -33 -197 -132q0 -100 157 -100h34v-64h-56q-78 0 -115 -23q-54 -35 -54 -107q0 -60 31 -81.5t97 -32.5q59 -11 84.5 -36t25.5 -73q0 -47 -24 -82t-89 -82l-47 55q47 31 63 51t16 47q0 30 -24 43q-16 6 -62 12q-87 11 -123 47
q-39 42 -39 120q0 67 29.5 111.5t93.5 72.5q-47 22 -65.5 46.5t-18.5 65.5q0 53 28.5 78.5t86.5 49.5z" />
    <glyph glyph-name="omicron" unicode="&#x3bf;" horiz-adv-x="527" 
d="M264 456q98 0 164.5 -67.5t66.5 -166.5q0 -100 -66.5 -167.5t-164.5 -67.5q-100 0 -166 67.5t-66 169.5q0 98 67 165t165 67zM264 379q-63 0 -104 -44t-41 -112q0 -71 40.5 -115t104.5 -44q63 0 103.5 44t40.5 114q0 69 -40.5 113t-103.5 44z" />
    <glyph glyph-name="pi" unicode="&#x3c0;" horiz-adv-x="525" 
d="M176 0h-86v367h-67v76h479v-76h-67v-367h-86v367h-173v-367z" />
    <glyph glyph-name="rho" unicode="&#x3c1;" horiz-adv-x="535" 
d="M132 51v-284h-86l1 413q0 121 40 182q63 93 188 93q103 0 166 -64.5t63 -170.5t-58 -169.5t-154 -63.5q-50 0 -84 13.5t-76 50.5zM277 377q-63 0 -103 -43t-40 -111q0 -70 40 -113.5t104 -43.5q62 0 100.5 43t38.5 112q0 70 -39 113t-101 43z" />
    <glyph glyph-name="uni03C2" unicode="&#x3c2;" horiz-adv-x="452" 
d="M430 387l-52 -59q-50 50 -113 50q-66 0 -106 -45t-40 -119q0 -80 46 -115q17 -14 35.5 -20t73.5 -16q61 -11 87 -36.5t26 -73.5q0 -46 -24.5 -81.5t-89.5 -81.5l-47 55q47 31 63 51t16 47q0 32 -25 43q-12 6 -65 13q-97 12 -139 57q-44 51 -44 150q0 110 65 180t168 70
q90 0 165 -69z" />
    <glyph glyph-name="sigma" unicode="&#x3c3;" horiz-adv-x="532" 
d="M303 443h233v-76h-108q35 -41 48 -74t13 -79q0 -101 -64 -164.5t-167 -63.5q-100 0 -163 64.5t-63 166.5q0 63 26.5 114t74.5 81q31 19 63 25t107 6zM334 367h-39q-53 0 -78 -6t-47 -25q-48 -42 -48 -121q0 -70 37 -111t100 -41q67 0 104.5 41.5t37.5 114.5q0 45 -15 78
t-52 70z" />
    <glyph glyph-name="tau" unicode="&#x3c4;" horiz-adv-x="363" 
d="M131 156v212h-123v75h347v-75h-139v-216q0 -43 5 -58q8 -22 35 -22q14 0 38 8l4 -77q-35 -10 -65 -10q-34 0 -56 14t-31 41t-12 50.5t-3 57.5z" />
    <glyph glyph-name="upsilon" unicode="&#x3c5;" horiz-adv-x="500" 
d="M60 181v262h85v-255q0 -63 22 -94.5t83 -31.5q60 0 82.5 31.5t22.5 94.5v255h85v-262q0 -101 -43 -143q-50 -51 -147 -51q-100 0 -145 47.5t-45 146.5z" />
    <glyph glyph-name="phi" unicode="&#x3c6;" horiz-adv-x="640" 
d="M361 -11v-222h-84v222q-115 9 -180 70t-65 159q0 141 136 201l35 -56q-47 -34 -66 -61.5t-19 -78.5q0 -68 42.5 -110.5t116.5 -49.5v386q33 3 49 3q137 0 210 -59.5t73 -172.5q0 -104 -65 -164.5t-183 -66.5zM361 378v-315q162 11 162 157q0 73 -41.5 113.5t-120.5 44.5z
" />
    <glyph glyph-name="chi" unicode="&#x3c7;" horiz-adv-x="458" 
d="M2 0l175 230l-162 213h101l112 -149l112 149h100l-162 -213l175 -230h-101l-125 165l-124 -165h-101z" />
    <glyph glyph-name="psi" unicode="&#x3c8;" horiz-adv-x="677" 
d="M64 231v212h87v-210q-2 -92 26.5 -127t105.5 -35h17v372h84v-372h17q78 0 106.5 34.5t26.5 127.5v210h87v-212q3 -127 -49 -181t-176 -54h-12v-229h-84v229h-12q-124 0 -175.5 54.5t-48.5 180.5z" />
    <glyph glyph-name="omega" unicode="&#x3c9;" horiz-adv-x="665" 
d="M294 207v87h77v-87q0 -67 11 -92q17 -47 67 -47q43 0 69.5 39.5t26.5 103.5q0 119 -86 212l70 31q104 -98 104 -250q0 -99 -47.5 -157.5t-128.5 -58.5q-87 0 -124 64q-40 -64 -125 -64q-81 0 -128.5 58.5t-47.5 157.5q0 152 104 250l70 -31q-86 -93 -86 -212
q0 -64 26.5 -103.5t69.5 -39.5q27 0 44 13t23.5 37.5t8.5 42.5t2 46z" />
    <glyph glyph-name="iotadieresis" unicode="&#x3ca;" horiz-adv-x="234" 
d="M59 156v287h85v-291q0 -47 8 -63.5t32 -16.5q13 0 38 8l3 -77q-34 -10 -64 -10q-34 0 -56 14t-31 41t-12 50.5t-3 57.5zM25 648q23 0 39.5 -16.5t16.5 -39.5t-16.5 -39.5t-39.5 -16.5q-24 0 -40.5 16.5t-16.5 40.5q0 22 17 38.5t40 16.5zM209 648q23 0 39.5 -16.5
t16.5 -39.5t-16.5 -39.5t-39.5 -16.5q-24 0 -40.5 16.5t-16.5 40.5q0 22 17 38.5t40 16.5z" />
    <glyph glyph-name="upsilondieresis" unicode="&#x3cb;" horiz-adv-x="500" 
d="M60 181v262h85v-255q0 -63 22 -94.5t83 -31.5q60 0 82.5 31.5t22.5 94.5v255h85v-262q0 -101 -43 -143q-50 -51 -147 -51q-100 0 -145 47.5t-45 146.5zM159 648q23 0 39.5 -16.5t16.5 -39.5t-16.5 -39.5t-39.5 -16.5q-24 0 -40.5 16.5t-16.5 40.5q0 22 17 38.5t40 16.5z
M342 648q24 0 40.5 -16.5t16.5 -39.5t-16.5 -39.5t-39.5 -16.5q-24 0 -40.5 16.5t-16.5 40.5q0 22 16.5 38.5t39.5 16.5z" />
    <glyph glyph-name="omicrontonos" unicode="&#x3cc;" horiz-adv-x="527" 
d="M264 456q98 0 164.5 -67.5t66.5 -166.5q0 -100 -66.5 -167.5t-164.5 -67.5q-100 0 -166 67.5t-66 169.5q0 98 67 165t165 67zM264 379q-63 0 -104 -44t-41 -112q0 -71 40.5 -115t104.5 -44q63 0 103.5 44t40.5 114q0 69 -40.5 113t-103.5 44zM294 514h-61l-11 190h83z
" />
    <glyph glyph-name="upsilontonos" unicode="&#x3cd;" horiz-adv-x="500" 
d="M60 181v262h85v-255q0 -63 22 -94.5t83 -31.5q60 0 82.5 31.5t22.5 94.5v255h85v-262q0 -101 -43 -143q-50 -51 -147 -51q-100 0 -145 47.5t-45 146.5zM280 514h-60l-12 190h84z" />
    <glyph glyph-name="omegatonos" unicode="&#x3ce;" horiz-adv-x="665" 
d="M294 207v87h77v-87q0 -67 11 -92q17 -47 67 -47q43 0 69.5 39.5t26.5 103.5q0 119 -86 212l70 31q104 -98 104 -250q0 -99 -47.5 -157.5t-127.5 -58.5q-88 0 -125 75q-40 -75 -126 -75q-80 0 -127.5 58.5t-47.5 157.5q0 152 104 250l70 -31q-86 -93 -86 -212
q0 -64 26.5 -103.5t69.5 -39.5q27 0 44 13t23.5 37.5t8.5 42.5t2 46zM363 514h-61l-11 190h83z" />
    <glyph glyph-name="theta1" unicode="&#x3d1;" horiz-adv-x="530" 
d="M265 680q53 0 95 -21.5t68 -56.5t43.5 -81.5t24 -92.5t6.5 -94q0 -61 -11.5 -118t-37 -110.5t-74 -86t-113.5 -32.5q-67 0 -115.5 32.5t-73.5 87t-36.5 112t-11.5 119.5q0 60 12 117t38 109.5t74 84t112 31.5zM414 304h-297q10 -239 148 -239q139 0 149 239zM117 378h297
q-14 224 -149 224q-41 0 -71 -21.5t-45.5 -57t-22.5 -71t-9 -74.5z" />
    <glyph glyph-name="phi1" unicode="&#x3d5;" horiz-adv-x="640" 
d="M361 -11v-222h-84v222q-115 9 -180 70t-65 159q0 141 136 201l35 -56q-47 -34 -66 -61.5t-19 -78.5q0 -68 42.5 -110.5t116.5 -49.5v386q33 3 49 3q137 0 210 -59.5t73 -172.5q0 -104 -65 -164.5t-183 -66.5zM361 378v-315q162 11 162 157q0 73 -41.5 113.5t-120.5 44.5z
" />
    <glyph glyph-name="uni0400" unicode="&#x400;" horiz-adv-x="478" 
d="M430 667v-82h-264v-206h234v-83h-234v-213h274v-83h-363v667h353zM264 707l-134 135l82 45l108 -148z" />
    <glyph glyph-name="afii10023" unicode="&#x401;" horiz-adv-x="482" 
d="M440 0h-363v667h354v-82h-265v-206h235v-82h-235v-214h274v-83zM167 847q21 0 36 -14.5t15 -35.5q0 -20 -15 -35t-36 -15t-36 15t-15 36q0 20 15 34.5t36 14.5zM354 847q21 0 36 -14.5t15 -35.5q0 -20 -15 -35t-36 -15t-36 15t-15 36q0 20 15 34.5t36 14.5z" />
    <glyph glyph-name="afii10051" unicode="&#x402;" horiz-adv-x="625" 
d="M231 0h-90v584h-131v83h406v-83h-185v-216q51 65 145 65q87 0 140 -56q48 -51 48 -159v-451h-86v443q0 70 -25.5 107.5t-92.5 37.5q-66 0 -101 -38q-28 -31 -28 -112v-205z" />
    <glyph glyph-name="afii10052" unicode="&#x403;" horiz-adv-x="456" 
d="M166 0h-89v667h360v-83h-271v-584zM306 887l83 -41l-135 -127l-55 29z" />
    <glyph glyph-name="afii10053" unicode="&#x404;" horiz-adv-x="663" 
d="M135 377h337v-79h-339q13 -57 22 -81t27 -48q74 -99 193 -99q107 0 194 87l63 -59q-114 -111 -259 -111q-144 0 -239 98t-95 246q0 149 96 249t240 100q139 0 253 -110l-63 -59q-83 86 -191 86q-99 0 -160.5 -60.5t-78.5 -159.5z" />
    <glyph glyph-name="afii10054" unicode="&#x405;" horiz-adv-x="510" 
d="M452 567l-71 -46q-28 42 -54.5 59t-64.5 17q-46 0 -78 -29.5t-32 -73.5q0 -60 91 -96l65 -24q158 -61 158 -181q0 -87 -62.5 -146.5t-154.5 -59.5q-83 0 -137.5 47t-74.5 135l87 23q15 -57 43.5 -89t83.5 -32q52 0 88.5 35.5t36.5 85.5q0 36 -25 61t-84 48l-62 24
q-141 55 -141 170q0 79 57.5 132t143.5 53q62 0 106.5 -27t80.5 -86z" />
    <glyph glyph-name="afii10055" unicode="&#x406;" horiz-adv-x="243" 
d="M77 667h89v-667h-89v667z" />
    <glyph glyph-name="afii10056" unicode="&#x407;" horiz-adv-x="243" 
d="M77 667h89v-667h-89v667zM28 847q21 0 36 -14.5t15 -35.5q0 -20 -15 -35t-36 -15t-36 15t-15 36q0 20 15 34.5t36 14.5zM215 847q21 0 36 -14.5t15 -35.5q0 -20 -15 -35t-36 -15t-36 15t-15 36q0 20 15 34.5t36 14.5z" />
    <glyph glyph-name="afii10057" unicode="&#x408;" horiz-adv-x="409" 
d="M243 667h89v-465q0 -89 -28 -138q-20 -35 -58 -56t-84 -21q-81 0 -162 77l55 65q57 -58 105 -58q83 0 83 131v465z" />
    <glyph glyph-name="afii10058" unicode="&#x409;" horiz-adv-x="873" 
d="M616 0h-181v584h-202l-1 -20q-14 -282 -37 -386q-20 -93 -61 -136.5t-109 -43.5q-17 0 -32 2v84q18 -3 24 -3q63 0 89 93q34 120 45 493h373v-265h101q107 0 156 -45q60 -52 60 -153q0 -115 -75 -168q-52 -36 -150 -36zM524 326v-248h75q93 0 123 34q31 34 31 90
q0 62 -37 96q-31 28 -117 28h-75z" />
    <glyph glyph-name="afii10059" unicode="&#x40a;" horiz-adv-x="924" 
d="M666 0h-180v314h-320v-314h-89v667h89v-270h320v270h89v-265h100q107 0 157 -45q60 -54 60 -153q0 -115 -75 -168q-53 -36 -151 -36zM575 326v-248h75q93 0 123 34q31 33 31 90q0 62 -37 96q-32 28 -117 28h-75z" />
    <glyph glyph-name="afii10060" unicode="&#x40b;" horiz-adv-x="625" 
d="M231 0h-90v584h-131v83h406v-83h-185v-216q51 65 145 65q87 0 140 -56q48 -51 48 -159v-218h-86v210q0 70 -25.5 107.5t-92.5 37.5q-66 0 -101 -38q-28 -31 -28 -112v-205z" />
    <glyph glyph-name="afii10061" unicode="&#x40c;" horiz-adv-x="573" 
d="M166 0h-89v667h89v-319l290 319h113l-253 -276l256 -391h-105l-212 326l-89 -98v-228zM355 887l83 -41l-135 -127l-55 29z" />
    <glyph glyph-name="uni040D" unicode="&#x40d;" horiz-adv-x="649" 
d="M150 0h-73v667h86v-509l336 507h73v-665h-86v506zM326 719l-135 127l83 41l107 -139z" />
    <glyph glyph-name="afii10062" unicode="&#x40e;" horiz-adv-x="533" 
d="M69 0l154 266l-216 401h103l161 -312l165 312h102l-375 -667h-94zM125 854l73 6q4 -72 71 -72q34 0 50.5 17t19.5 55l74 -6q-5 -50 -25 -78q-39 -56 -120 -56q-64 0 -101.5 35.5t-41.5 98.5z" />
    <glyph glyph-name="afii10145" unicode="&#x40f;" horiz-adv-x="642" 
d="M280 0h-203v667h89v-584h310v584h89v-667h-203v-128h-82v128z" />
    <glyph glyph-name="afii10017" unicode="&#x410;" horiz-adv-x="627" 
d="M530 0l-67 173h-298l-67 -173h-94l266 669h88l266 -669h-94zM194 256h240l-120 307z" />
    <glyph glyph-name="afii10018" unicode="&#x411;" horiz-adv-x="520" 
d="M256 0h-179v667h357v-83h-271v-188h102q217 0 217 -195q0 -113 -75 -165q-50 -36 -151 -36zM163 320v-242h76q92 0 124 33q31 33 31 88q0 63 -38 94q-31 27 -117 27h-76z" />
    <glyph glyph-name="afii10019" unicode="&#x412;" horiz-adv-x="526" 
d="M253 0h-176v667h144q110 0 163 -40q31 -23 50 -61t19 -78q0 -45 -19.5 -77t-63.5 -59q116 -58 116 -165q0 -86 -70 -141q-32 -25 -68.5 -35.5t-94.5 -10.5zM163 306v-227h85q76 0 113 28q40 32 40 85q0 64 -51 94q-35 20 -111 20h-76zM163 589v-212h69q71 0 101 25
q37 31 37 82q0 105 -138 105h-69z" />
    <glyph glyph-name="afii10020" unicode="&#x413;" horiz-adv-x="456" 
d="M166 0h-89v667h360v-83h-271v-584z" />
    <glyph glyph-name="afii10021" unicode="&#x414;" horiz-adv-x="640" 
d="M530 -128v128h-467v-128h-82v211h30q34 0 62 25t39 59q15 37 29 186t19 314h394v-584h58v-211h-82zM141 83h324v501h-223q-3 -162 -23 -324q-10 -75 -25 -109t-53 -68z" />
    <glyph glyph-name="afii10022" unicode="&#x415;" horiz-adv-x="482" 
d="M440 0h-363v667h354v-82h-265v-206h235v-82h-235v-214h274v-83z" />
    <glyph glyph-name="afii10024" unicode="&#x416;" horiz-adv-x="850" 
d="M470 0h-88v305h-32l-234 -305h-109l268 345l-248 322h102l218 -285h35v285h88v-285h34l219 285h101l-248 -322l268 -345h-108l-234 305h-32v-305z" />
    <glyph glyph-name="afii10025" unicode="&#x417;" horiz-adv-x="586" 
d="M250 311h-79v76h80q29 0 49 1t49 6.5t47 16t31.5 31.5t13.5 50q0 49 -42.5 77t-118.5 28q-121 0 -207 -82l-62 66q63 53 127.5 76t147.5 23q116 0 181.5 -47t65.5 -130q0 -111 -117 -151q68 -26 98 -66.5t30 -106.5q0 -93 -68 -142t-197 -49q-86 0 -150.5 24t-123.5 77
l61 68q47 -46 96.5 -66t116.5 -20q83 0 127.5 30t44.5 87q0 123 -201 123z" />
    <glyph glyph-name="afii10026" unicode="&#x418;" horiz-adv-x="649" 
d="M150 0h-73v667h86v-509l336 507h73v-665h-86v506z" />
    <glyph glyph-name="afii10027" unicode="&#x419;" horiz-adv-x="649" 
d="M150 0h-73v667h86v-509l336 507h73v-665h-86v506zM180 854l74 6q3 -72 70 -72q34 0 51 17t20 55l74 -6q-15 -134 -145 -134q-64 0 -101.5 35.5t-42.5 98.5z" />
    <glyph glyph-name="afii10028" unicode="&#x41a;" horiz-adv-x="573" 
d="M166 0h-89v667h89v-319l290 319h113l-253 -276l256 -391h-105l-212 326l-89 -98v-228z" />
    <glyph glyph-name="afii10029" unicode="&#x41b;" horiz-adv-x="601" 
d="M151 667h373v-667h-89v584h-202l-1 -19q-14 -283 -37 -386q-20 -94 -61 -137.5t-109 -43.5q-17 0 -32 2v84q19 -3 24 -3q63 0 89 93q33 118 45 493z" />
    <glyph glyph-name="afii10030" unicode="&#x41c;" horiz-adv-x="810" 
d="M167 0h-89v667h86l241 -415l241 415h86v-667h-89v497l-204 -349h-68l-204 349v-497z" />
    <glyph glyph-name="afii10031" unicode="&#x41d;" horiz-adv-x="652" 
d="M166 0h-89v667h89v-288h320v288h89v-667h-89v296h-320v-296z" />
    <glyph glyph-name="afii10032" unicode="&#x41e;" horiz-adv-x="766" 
d="M383 680q144 0 244 -100.5t100 -245.5t-100 -246t-243 -101q-146 0 -245.5 101t-99.5 250q0 141 101 241.5t243 100.5zM383 597q-107 0 -180.5 -75.5t-73.5 -184.5q0 -115 72.5 -191t182.5 -76q107 0 180 76t73 188t-73 187.5t-181 75.5z" />
    <glyph glyph-name="afii10033" unicode="&#x41f;" horiz-adv-x="663" 
d="M166 0h-89v667h509v-667h-89v584h-331v-584z" />
    <glyph glyph-name="afii10034" unicode="&#x420;" horiz-adv-x="471" 
d="M219 258h-53v-258h-89v667h142q115 0 172 -51q63 -57 63 -152q0 -96 -63 -154q-56 -52 -172 -52zM166 585v-245h62q139 0 139 124q0 121 -139 121h-62z" />
    <glyph glyph-name="afii10035" unicode="&#x421;" horiz-adv-x="663" 
d="M628 570l-63 -59q-79 86 -183 86q-106 0 -179.5 -77t-73.5 -187q0 -109 74 -186t180 -77q104 0 186 88l63 -59q-108 -112 -248 -112q-143 0 -244 101.5t-101 244.5q0 144 101.5 245.5t245.5 101.5q133 0 242 -110z" />
    <glyph glyph-name="afii10036" unicode="&#x422;" horiz-adv-x="436" 
d="M263 0h-89v584h-170v83h429v-83h-170v-584z" />
    <glyph glyph-name="afii10037" unicode="&#x423;" horiz-adv-x="533" 
d="M69 0l154 266l-216 401h103l161 -312l165 312h102l-375 -667h-94z" />
    <glyph glyph-name="afii10038" unicode="&#x424;" horiz-adv-x="860" 
d="M469 -54h-81v98q-126 7 -203 48q-70 37 -108 99.5t-38 140.5q0 86 44.5 152t125.5 100q66 29 179 37v99h81v-99q129 -7 205 -48q70 -37 108 -99.5t38 -141.5q0 -85 -44.5 -151t-125.5 -101q-73 -30 -181 -36v-98zM388 122v421q-92 -7 -143 -31q-116 -58 -116 -180
q0 -63 35 -112t98 -74q45 -18 126 -24zM469 543v-421q96 7 145 31q116 57 116 179q0 64 -35 113t-98 74q-45 18 -128 24z" />
    <glyph glyph-name="afii10039" unicode="&#x425;" 
d="M4 0l219 348l-199 319h101l149 -241l150 241h100l-200 -318l220 -349h-103l-168 271l-168 -271h-101z" />
    <glyph glyph-name="afii10040" unicode="&#x426;" horiz-adv-x="651" 
d="M540 0h-463v667h89v-584h310v584h89v-584h57v-211h-82v128z" />
    <glyph glyph-name="afii10041" unicode="&#x427;" horiz-adv-x="594" 
d="M517 0h-89v235q-88 -21 -149 -21q-137 0 -195 79q-38 53 -38 168v206h89v-190q0 -58 7 -88.5t25 -50.5q38 -41 131 -41q62 0 130 21v349h89v-667z" />
    <glyph glyph-name="afii10042" unicode="&#x428;" horiz-adv-x="901" 
d="M824 0h-747v667h89v-584h240v584h89v-584h240v584h89v-667z" />
    <glyph glyph-name="afii10043" unicode="&#x429;" horiz-adv-x="910" 
d="M799 0h-722v667h89v-584h240v584h89v-584h240v584h89v-584h57v-211h-82v128z" />
    <glyph glyph-name="afii10044" unicode="&#x42a;" horiz-adv-x="627" 
d="M370 0h-181v584h-187v83h276v-265h101q107 0 156 -45q60 -52 60 -153q0 -115 -75 -168q-52 -36 -150 -36zM278 327v-250h75q93 0 123 34q31 34 31 91q0 65 -37 97q-31 28 -117 28h-75z" />
    <glyph glyph-name="afii10045" unicode="&#x42b;" horiz-adv-x="737" 
d="M258 0h-181v667h89v-265h101q107 0 156 -45q60 -52 60 -153q0 -115 -75 -168q-52 -36 -150 -36zM166 327v-250h75q92 0 123 34t31 91q0 65 -37 97q-31 28 -117 28h-75zM660 0h-89v667h89v-667z" />
    <glyph glyph-name="afii10046" unicode="&#x42c;" horiz-adv-x="516" 
d="M258 0h-181v667h89v-265h101q107 0 156 -45q60 -52 60 -153q0 -115 -75 -168q-52 -36 -150 -36zM166 327v-250h75q92 0 123 34t31 91q0 65 -37 97q-31 28 -117 28h-75z" />
    <glyph glyph-name="afii10047" unicode="&#x42d;" horiz-adv-x="663" 
d="M529 298h-339v79h337q-19 103 -82.5 161.5t-156.5 58.5q-108 0 -191 -86l-63 59q113 110 253 110q143 0 239.5 -100t96.5 -248q0 -146 -94.5 -245.5t-239.5 -99.5q-147 0 -259 111l63 59q87 -87 194 -87q62 0 114.5 29.5t87.5 83.5q22 34 40 115z" />
    <glyph glyph-name="afii10048" unicode="&#x42e;" horiz-adv-x="1026" 
d="M166 0h-89v667h89v-288h150q17 103 66 167q48 64 118 99t149 35q141 0 239.5 -101t98.5 -246t-98 -245.5t-240 -100.5q-87 0 -162 41.5t-122 115.5q-36 57 -50 153h-149v-297zM649 597q-104 0 -176 -75.5t-72 -184.5q0 -115 71 -191t178 -76q104 0 175.5 75.5t71.5 187.5
t-71.5 188t-176.5 76z" />
    <glyph glyph-name="afii10049" unicode="&#x42f;" horiz-adv-x="536" 
d="M370 0v259h-54l-38 1l-12 2h-6l-143 -262h-100l158 287q-112 54 -112 177q0 52 22 96.5t60 70.5q52 36 163 36h151v-667h-89zM307 340h63v245h-63q-155 0 -155 -125q0 -120 155 -120z" />
    <glyph glyph-name="afii10065" unicode="&#x430;" horiz-adv-x="549" 
d="M489 0h-85v51q-58 -64 -149 -64q-94 0 -158.5 68t-64.5 167t64.5 166.5t158.5 67.5q86 0 149 -63v50h85v-443zM265 379q-65 0 -105.5 -43.5t-40.5 -113.5t40.5 -114t104.5 -44q62 0 102 44t40 111q0 71 -39 115.5t-102 44.5z" />
    <glyph glyph-name="afii10066" unicode="&#x431;" horiz-adv-x="529" 
d="M435 691l7 -75q-16 -11 -40.5 -15t-89.5 -8q-118 -4 -150 -41.5t-38 -175.5q31 43 68.5 61t92.5 18q94 0 153.5 -63.5t59.5 -162.5q0 -106 -67 -174t-172 -68q-130 0 -187 97q-38 62 -38 200q0 236 63 316q33 42 99 55q29 5 114 13q95 7 125 23zM268 379q-65 0 -105 -45
t-40 -118q0 -68 38.5 -110.5t100.5 -42.5t104.5 47t42.5 117q0 67 -39.5 109.5t-101.5 42.5z" />
    <glyph glyph-name="afii10067" unicode="&#x432;" horiz-adv-x="454" 
d="M265 0h-205v443h189q80 0 117.5 -27.5t37.5 -86.5q0 -64 -60 -95q40 -10 61.5 -39.5t21.5 -72.5q0 -122 -162 -122zM146 372v-111h87q85 0 85 58q0 53 -76 53h-96zM146 194v-123h103q49 0 71 14.5t22 47.5q0 61 -98 61h-98z" />
    <glyph glyph-name="afii10068" unicode="&#x433;" horiz-adv-x="376" 
d="M146 0h-86v443h304v-76h-218v-367z" />
    <glyph glyph-name="afii10069" unicode="&#x434;" horiz-adv-x="500" 
d="M402 -118v118h-331v-118h-80v193h18q26 -1 48.5 23t34.5 65q22 78 27 280h317v-368h47v-193h-81zM128 75h222v295h-154l-5 -106q-9 -139 -63 -189z" />
    <glyph glyph-name="afii10070" unicode="&#x435;" horiz-adv-x="497" 
d="M465 197h-345q7 -66 41 -100.5t91 -34.5q74 0 119 60l78 -30q-73 -105 -196 -105q-97 0 -159 65.5t-62 167.5q0 101 63 168.5t157 67.5q92 0 153 -66t61 -165q0 -14 -1 -28zM121 261h259q-18 120 -128 120q-55 0 -89 -31.5t-42 -88.5z" />
    <glyph glyph-name="afii10072" unicode="&#x436;" horiz-adv-x="626" 
d="M354 0h-82v196h-23l-160 -196h-97l185 228l-167 215h94l143 -189h25v189h82v-189h25l143 189h93l-167 -215l185 -228h-97l-159 196h-23v-196z" />
    <glyph glyph-name="afii10073" unicode="&#x437;" horiz-adv-x="456" 
d="M205 195h-97v60h97q55 0 79.5 14t24.5 45q0 69 -108 69q-74 0 -127 -46l-47 60q47 33 87 46t97 13q91 0 139.5 -34t48.5 -99q0 -66 -49 -96q61 -27 61 -104q0 -66 -50.5 -101t-146.5 -35q-62 0 -106 14t-93 49l46 60q33 -29 63.5 -40t76.5 -11q119 0 119 69q0 67 -115 67
z" />
    <glyph glyph-name="afii10074" unicode="&#x438;" horiz-adv-x="498" 
d="M140 0h-80v443h84v-318l214 318h80v-443h-84v316z" />
    <glyph glyph-name="afii10075" unicode="&#x439;" horiz-adv-x="498" 
d="M140 0h-80v443h84v-318l214 318h80v-443h-84v316zM106 649l74 5q4 -72 69 -72q33 0 49.5 17t19.5 55l73 -5q-14 -135 -143 -135q-63 0 -100 35.5t-42 99.5z" />
    <glyph glyph-name="afii10076" unicode="&#x43a;" horiz-adv-x="474" 
d="M145 0h-85v443h85v-205l201 205h106l-183 -178l206 -265h-101l-161 211l-68 -67v-144z" />
    <glyph glyph-name="afii10077" unicode="&#x43b;" horiz-adv-x="467" 
d="M407 0h-86v368h-147l-1 -26q-8 -173 -22 -228q-13 -54 -47 -85t-81 -31q-13 0 -32 2v81l5 -1q16 -2 20 -2q55 0 68 139q8 92 10 226h313v-443z" />
    <glyph glyph-name="afii10078" unicode="&#x43c;" horiz-adv-x="598" 
d="M137 0h-77v443h85l154 -252l155 252h84v-443h-76v315l-139 -222h-49l-137 222v-315z" />
    <glyph glyph-name="afii10079" unicode="&#x43d;" horiz-adv-x="499" 
d="M146 0h-86v443h86v-173h207v173h86v-443h-86v197h-207v-197z" />
    <glyph glyph-name="afii10080" unicode="&#x43e;" horiz-adv-x="527" 
d="M264 456q98 0 164.5 -67.5t66.5 -166.5q0 -100 -66.5 -167.5t-164.5 -67.5q-100 0 -166 67.5t-66 169.5q0 98 67 165t165 67zM264 379q-63 0 -104 -44t-41 -112q0 -71 40.5 -115t104.5 -44q63 0 103.5 44t40.5 114q0 69 -40.5 113t-103.5 44z" />
    <glyph glyph-name="afii10081" unicode="&#x43f;" horiz-adv-x="500" 
d="M146 0h-86v443h380v-443h-86v368h-208v-368z" />
    <glyph glyph-name="afii10082" unicode="&#x440;" horiz-adv-x="549" 
d="M145 51v-284h-85v676h85v-50q42 37 72.5 50t76.5 13q94 0 158.5 -68t64.5 -166q0 -100 -65 -167.5t-161 -67.5q-50 0 -77 13.5t-69 50.5zM285 379q-62 0 -102 -43.5t-40 -111.5q0 -71 39.5 -115t103.5 -44q63 0 103.5 44t40.5 113t-40.5 113t-104.5 44z" />
    <glyph glyph-name="afii10083" unicode="&#x441;" horiz-adv-x="452" 
d="M430 387l-52 -59q-51 51 -113 51q-65 0 -105.5 -43.5t-40.5 -113.5q0 -71 40.5 -114.5t106.5 -43.5t115 55l53 -60q-75 -72 -168 -72q-100 0 -167 67.5t-67 167.5t67 167t167 67q89 0 164 -69z" />
    <glyph glyph-name="afii10084" unicode="&#x442;" horiz-adv-x="362" 
d="M224 0h-87v367h-130v76h348v-76h-131v-367z" />
    <glyph glyph-name="afii10085" unicode="&#x443;" horiz-adv-x="446" 
d="M62 -233l109 248l-173 428h91l129 -324l140 324h91l-298 -676h-89z" />
    <glyph glyph-name="afii10086" unicode="&#x444;" horiz-adv-x="732" 
d="M405 -227h-78v258q-53 -45 -113 -45q-81 0 -131.5 65.5t-50.5 169.5t50.5 169.5t131.5 65.5q34 0 58.5 -10t54.5 -35v256h78v-256q30 25 54.5 35t58.5 10q81 0 131.5 -65.5t50.5 -169.5t-50.5 -169.5t-131.5 -65.5q-34 0 -58.5 10t-54.5 35v-258zM327 118v206
q-45 54 -97 54q-50 0 -81 -43.5t-31 -113.5t31 -113.5t81 -43.5q53 0 97 54zM405 324v-206q44 -54 97 -54q50 0 81 43.5t31 113.5t-31 113.5t-81 43.5q-52 0 -97 -54z" />
    <glyph glyph-name="afii10087" unicode="&#x445;" horiz-adv-x="458" 
d="M3 0l175 230l-162 213h101l112 -149l112 149h100l-162 -213l175 -230h-101l-125 165l-124 -165h-101z" />
    <glyph glyph-name="afii10088" unicode="&#x446;" horiz-adv-x="491" 
d="M393 0h-333v443h86v-368h195v368h86v-368h47v-193h-81v118z" />
    <glyph glyph-name="afii10089" unicode="&#x447;" horiz-adv-x="474" 
d="M414 0h-86v141q-63 -23 -115 -23q-90 0 -130.5 44t-40.5 141v140h86v-139q0 -62 21 -86t74 -24q55 0 105 24v225h86v-443z" />
    <glyph glyph-name="afii10090" unicode="&#x448;" horiz-adv-x="726" 
d="M666 0h-606v443h87v-368h174v368h85v-368h173v368h87v-443z" />
    <glyph glyph-name="afii10091" unicode="&#x449;" horiz-adv-x="730" 
d="M633 0h-573v443h87v-368h174v368h85v-368h173v368h87v-368h47v-193h-80v118z" />
    <glyph glyph-name="afii10092" unicode="&#x44a;" horiz-adv-x="477" 
d="M289 0h-180v368h-109v75h195v-156h88q82 0 128.5 -31.5t46.5 -110.5q0 -145 -169 -145zM195 216v-145h80q56 0 79.5 16.5t23.5 55.5q0 40 -23.5 56.5t-78.5 16.5h-81z" />
    <glyph glyph-name="afii10093" unicode="&#x44b;" horiz-adv-x="612" 
d="M240 0h-180v443h86v-156h88q82 0 128.5 -31.5t46.5 -110.5q0 -145 -169 -145zM146 216v-145h79q56 0 80 16.5t24 55.5q0 40 -23.5 56.5t-79.5 16.5h-80zM551 0h-86v443h86v-443z" />
    <glyph glyph-name="afii10094" unicode="&#x44c;" horiz-adv-x="428" 
d="M240 0h-180v443h86v-156h88q82 0 128.5 -31.5t46.5 -110.5q0 -145 -169 -145zM146 216v-145h79q56 0 80 16.5t24 55.5q0 40 -23.5 56.5t-79.5 16.5h-80z" />
    <glyph glyph-name="afii10095" unicode="&#x44d;" horiz-adv-x="457" 
d="M335 189h-229v73h227q-26 122 -146 122q-63 0 -113 -46l-49 63q78 55 164 55q107 0 171.5 -65t64.5 -171q0 -104 -66.5 -168.5t-173.5 -64.5q-92 0 -170 61l52 61q54 -50 118 -50q62 0 102 35t48 95z" />
    <glyph glyph-name="afii10096" unicode="&#x44e;" horiz-adv-x="739" 
d="M146 0h-86v443h86v-173h112q19 84 80 135t142 51q97 0 162.5 -67.5t65.5 -166.5q0 -100 -65.5 -167.5t-162.5 -67.5q-90 0 -152 58t-72 152h-110v-197zM481 379q-61 0 -101 -43.5t-40 -111.5q0 -71 39 -115t102 -44q62 0 101 44t39 113t-39 113t-101 44z" />
    <glyph glyph-name="afii10097" unicode="&#x44f;" horiz-adv-x="450" 
d="M304 0v164h-63q-14 0 -46 2l-100 -166h-86l113 187q-40 20 -59.5 47t-19.5 71q0 74 57 112q40 26 123 26h167v-443h-86zM224 232h80v140h-81q-100 0 -100 -70t101 -70z" />
    <glyph glyph-name="uni0450" unicode="&#x450;" horiz-adv-x="495" 
d="M463 187h-344q9 -57 45.5 -90t90.5 -33q37 0 70 17t50 46q6 10 8 12l74 -31q-71 -121 -202 -121q-95 0 -159.5 67.5t-64.5 167.5q0 98 63 166t155 68q94 0 154.5 -68.5t60.5 -174.5q0 -6 -1 -26zM119 256h259q-10 58 -44 91t-84 33q-51 0 -86 -33t-45 -91zM251 507
l-134 136l82 44l108 -148z" />
    <glyph glyph-name="afii10071" unicode="&#x451;" horiz-adv-x="497" 
d="M465 200h-345l2 -7q4 -15 10 -43q7 -37 42 -62.5t79 -25.5q73 0 118 60l78 -30q-73 -105 -195 -105q-95 0 -158.5 67t-63.5 168q0 100 63 167t157 67q92 0 153 -65.5t61 -164.5q0 -13 -1 -26zM121 257h259q-9 47 -22 70q-35 54 -107 54q-78 0 -113 -66q-5 -12 -17 -58z
M163 642q21 0 36 -14.5t15 -35.5q0 -20 -15 -35t-36 -15t-36 15t-15 36q0 20 15 34.5t36 14.5zM350 642q21 0 36 -15t15 -35t-15 -35t-36 -15t-36 15t-15 36q0 20 15 34.5t36 14.5z" />
    <glyph glyph-name="afii10099" unicode="&#x452;" horiz-adv-x="508" 
d="M142 0h-85v522h-58v65h58v80h85v-80h117v-65h-117v-119q30 30 51 38q37 15 82 15q81 0 130 -57q43 -50 43 -158v-474h-85v466q0 85 -28 114q-27 31 -76 31q-59 0 -91 -38q-26 -31 -26 -117v-223z" />
    <glyph glyph-name="afii10100" unicode="&#x453;" horiz-adv-x="376" 
d="M146 0h-86v443h304v-76h-218v-367zM262 681l82 -41l-134 -127l-56 29z" />
    <glyph glyph-name="afii10101" unicode="&#x454;" horiz-adv-x="457" 
d="M124 262h227v-73h-229q9 -61 49 -95.5t101 -34.5q62 0 118 50l52 -61q-79 -61 -170 -61q-107 0 -173.5 64.5t-66.5 168.5q0 106 65 171t171 65q86 0 164 -55l-49 -63q-50 46 -113 46q-120 0 -146 -122z" />
    <glyph glyph-name="afii10102" unicode="&#x455;" horiz-adv-x="375" 
d="M26 109l72 29q20 -41 40 -57.5t50 -16.5q31 0 51 18t20 46q0 22 -13.5 33.5t-57.5 28.5l-47 18q-94 37 -94 116q0 56 42 94t105 38q92 0 140 -89l-68 -34q-32 47 -74 47q-28 0 -46 -15t-18 -38q0 -22 12 -32.5t58 -28.5l43 -16q103 -40 103 -118q0 -62 -45.5 -103.5
t-112.5 -41.5q-114 0 -160 122z" />
    <glyph glyph-name="afii10103" unicode="&#x456;" horiz-adv-x="206" 
d="M60 443h86v-443h-86v443zM103 650q24 0 41 -17t17 -41q0 -23 -17 -40t-41 -17t-41 17t-17 41q0 23 17 40t41 17z" />
    <glyph glyph-name="afii10104" unicode="&#x457;" horiz-adv-x="218" 
d="M67 443h86v-443h-86v443zM18 648q23 0 39.5 -16.5t16.5 -39.5t-16.5 -39.5t-39.5 -16.5q-24 0 -40.5 16.5t-16.5 40.5q0 22 17 38.5t40 16.5zM202 648q23 0 39.5 -16.5t16.5 -39.5t-16.5 -39.5t-39.5 -16.5q-24 0 -40.5 16.5t-16.5 40.5q0 22 17 38.5t40 16.5z" />
    <glyph glyph-name="afii10105" unicode="&#x458;" horiz-adv-x="216" 
d="M-8 -233v79q28 -7 39 -7q39 0 39 64v540h86v-540q0 -69 -28.5 -106.5t-81.5 -37.5q-26 0 -54 8zM113 650q24 0 41 -16.5t17 -40.5t-17 -41t-41 -17q-25 0 -41.5 17t-16.5 41q0 23 17 40t41 17z" />
    <glyph glyph-name="afii10106" unicode="&#x459;" horiz-adv-x="689" 
d="M501 0h-180v368h-147q-6 -146 -15 -214q-11 -76 -44 -113q-38 -43 -92 -43q-13 0 -32 2v81q21 -3 25 -3q55 0 68 139q8 90 10 226h313v-156h88q82 0 128.5 -31.5t46.5 -110.5q0 -145 -169 -145zM407 225v-163h80q56 0 79.5 19t23.5 63t-24 62.5t-79 18.5h-80z" />
    <glyph glyph-name="afii10107" unicode="&#x45a;" horiz-adv-x="696" 
d="M508 0h-180v216h-182v-216h-86v443h86v-156h182v156h86v-156h88q82 0 128.5 -31.5t46.5 -110.5q0 -145 -169 -145zM414 216v-145h79q56 0 80 16.5t24 55.5q0 40 -23.5 56.5t-79.5 16.5h-80z" />
    <glyph glyph-name="afii10108" unicode="&#x45b;" horiz-adv-x="508" 
d="M142 0h-85v522h-58v65h58v80h85v-80h117v-65h-117v-119q30 30 51 38q37 15 82 15q81 0 130 -57q43 -50 43 -158v-241h-85v233q0 85 -28 114q-27 31 -76 31q-59 0 -91 -38q-26 -31 -26 -117v-223z" />
    <glyph glyph-name="afii10109" unicode="&#x45c;" horiz-adv-x="474" 
d="M145 0h-85v443h85v-205l201 205h106l-183 -178l206 -265h-101l-161 211l-68 -67v-144zM307 681l82 -41l-135 -127l-55 29z" />
    <glyph glyph-name="uni045D" unicode="&#x45d;" horiz-adv-x="498" 
d="M140 0h-80v443h84v-318l214 318h80v-443h-84v316zM259 513l-135 127l83 41l107 -139z" />
    <glyph glyph-name="afii10110" unicode="&#x45e;" horiz-adv-x="446" 
d="M62 -233l109 248l-173 428h91l129 -324l140 324h91l-298 -676h-89zM83 649l73 5q4 -72 69 -72t69 72l74 -5q-7 -54 -25 -79q-39 -56 -118 -56q-63 0 -100.5 35.5t-41.5 99.5z" />
    <glyph glyph-name="afii10193" unicode="&#x45f;" horiz-adv-x="487" 
d="M203 0h-143v443h86v-368h195v368h86v-443h-142v-118h-82v118z" />
    <glyph glyph-name="uni0462" unicode="&#x462;" horiz-adv-x="583" 
d="M320 0h-179v584h-131v83h488v-83h-271v-188h102q107 0 157 -44q60 -52 60 -151q0 -113 -75 -165q-50 -36 -151 -36zM227 320v-242h76q92 0 124 33q31 33 31 88q0 63 -38 94q-31 27 -117 27h-76z" />
    <glyph glyph-name="uni0463" unicode="&#x463;" horiz-adv-x="546" 
d="M146 0h-86v522h-61v65h61v80h86v-80h113v-65h-113v-130q37 36 69.5 50t77.5 14q92 0 158 -69t66 -165q0 -98 -66.5 -166.5t-163.5 -68.5q-49 0 -76 13.5t-65 50.5v-51zM286 378q-62 0 -101.5 -43t-39.5 -110q0 -71 39 -115.5t101 -44.5q64 0 104.5 44t40.5 114
q0 68 -40.5 111.5t-103.5 43.5z" />
    <glyph glyph-name="afii10050" unicode="&#x490;" horiz-adv-x="456" 
d="M166 0h-89v667h280v98h80v-181h-271v-584z" />
    <glyph glyph-name="afii10098" unicode="&#x491;" horiz-adv-x="376" 
d="M146 0h-86v443h225v102h79v-178h-218v-367z" />
    <glyph glyph-name="uni0492" unicode="&#x492;" horiz-adv-x="456" 
d="M166 0h-89v306h-63v80h63v281h360v-83h-271v-198h198v-80h-198v-306z" />
    <glyph glyph-name="uni0493" unicode="&#x493;" horiz-adv-x="376" 
d="M146 0h-86v176h-51v69h51v198h304v-76h-218v-122h114v-69h-114v-176z" />
    <glyph glyph-name="uni0496" unicode="&#x496;" horiz-adv-x="850" 
d="M470 0h-88v305h-32l-234 -305h-109l268 345l-248 322h102l218 -285h35v285h88v-285h34l218 285h102l-248 -322l209 -262h60v-211h-82v128h-28l-233 305h-32v-305z" />
    <glyph glyph-name="uni0497" unicode="&#x497;" horiz-adv-x="626" 
d="M354 0h-82v196h-23l-160 -196h-97l185 228l-167 215h94l143 -189h25v189h82v-189h25l143 189h94l-168 -215l132 -153h68v-193h-80v118h-31l-160 196h-23v-196z" />
    <glyph glyph-name="uni049A" unicode="&#x49a;" horiz-adv-x="582" 
d="M166 0h-89v667h89v-319l290 319h113l-253 -276l202 -308h68v-211h-82v128h-37l-212 326l-89 -98v-228z" />
    <glyph glyph-name="uni049B" unicode="&#x49b;" horiz-adv-x="474" 
d="M145 0h-85v443h85v-206l201 206h107l-184 -178l147 -190h71v-193h-81v118h-32l-161 211l-68 -67v-144z" />
    <glyph glyph-name="uni049C" unicode="&#x49c;" horiz-adv-x="598" 
d="M166 0h-89v667h89v-354l57 64v166h46v-117l217 241h99l-254 -277l257 -390h-105l-195 298l-19 -19v-155h-46v149l-57 -62v-211z" />
    <glyph glyph-name="uni049D" unicode="&#x49d;" horiz-adv-x="474" 
d="M145 0h-85v443h85v-229l42 43v133h53v-78l129 131h97l-183 -177l205 -266h-100l-143 203l-5 -5v-126h-53v100l-42 -41v-131z" />
    <glyph glyph-name="uni04A2" unicode="&#x4a2;" horiz-adv-x="661" 
d="M166 0h-89v667h89v-288h320v288h89v-584h57v-211h-82v128h-64v296h-320v-296z" />
    <glyph glyph-name="uni04A3" unicode="&#x4a3;" horiz-adv-x="503" 
d="M146 0h-86v443h86v-172h207v172h86v-368h46v-193h-81v118h-51v197h-207v-197z" />
    <glyph glyph-name="uni04AE" unicode="&#x4ae;" horiz-adv-x="520" 
d="M304 0h-89v278l-218 389h100l163 -297l163 297h99l-218 -389v-278z" />
    <glyph glyph-name="uni04AF" unicode="&#x4af;" horiz-adv-x="457" 
d="M183 -233v233l-185 443h91l140 -345l140 345h90l-185 -443v-233h-91z" />
    <glyph glyph-name="uni04B0" unicode="&#x4b0;" horiz-adv-x="520" 
d="M304 0h-89v198h-122v80h122l-218 389h100l163 -297l163 297h99l-218 -389h122v-80h-122v-198z" />
    <glyph glyph-name="uni04B1" unicode="&#x4b1;" horiz-adv-x="457" 
d="M56 0h127l-185 443h90l141 -345l140 345h90l-185 -443h127v-69h-127v-164h-91v164h-127v69z" />
    <glyph glyph-name="uni04B2" unicode="&#x4b2;" 
d="M4 0l219 348l-199 319h101l149 -240l150 240h100l-200 -317l167 -267h75v-211h-82v128h-43l-168 271l-168 -271h-101z" />
    <glyph glyph-name="uni04B3" unicode="&#x4b3;" horiz-adv-x="458" 
d="M3 0l175 230l-162 213h104l110 -148l110 148h103l-162 -213l117 -155h75v-193h-80v118h-41l-122 164l-123 -164h-104z" />
    <glyph glyph-name="uni04B6" unicode="&#x4b6;" horiz-adv-x="603" 
d="M492 0h-64v235q-91 -21 -149 -21q-137 0 -195 79q-38 53 -38 168v206h89v-190q0 -58 7 -88.5t25 -50.5q38 -41 131 -41q62 0 130 21v349h89v-584h57v-211h-82v128z" />
    <glyph glyph-name="uni04B7" unicode="&#x4b7;" horiz-adv-x="478" 
d="M380 0h-52v141q-64 -23 -115 -23q-90 0 -130.5 44t-40.5 141v140h86v-139q0 -62 21 -86t74 -24q55 0 105 24v225h86v-368h46v-193h-80v118z" />
    <glyph glyph-name="uni04B8" unicode="&#x4b8;" horiz-adv-x="594" 
d="M518 0h-89v234q-56 -14 -120 -18v-130h-45v128q-118 7 -168 64t-49 183v206h89v-191q-1 -93 23.5 -126.5t104.5 -49.5v194h45v-196q65 3 120 19v350h89v-667z" />
    <glyph glyph-name="uni04B9" unicode="&#x4b9;" horiz-adv-x="482" 
d="M422 0h-86v141q-35 -14 -71 -20v-84h-55v81q-88 1 -128 45t-40 141v139h86v-138q-1 -56 17.5 -80.5t64.5 -28.5v135h55v-133q38 5 71 20v225h86v-443z" />
    <glyph glyph-name="uni04BA" unicode="&#x4ba;" horiz-adv-x="562" 
d="M168 0h-91v667h91v-282q51 65 145 65q87 0 140 -56q48 -51 48 -159v-235h-86v227q0 85 -32 114q-31 31 -86 31q-66 0 -101 -38q-28 -31 -28 -112v-222z" />
    <glyph glyph-name="uni04BB" unicode="&#x4bb;" horiz-adv-x="511" 
d="M145 0h-85v667h85v-263q37 32 63 42t70 10q80 0 130 -57q43 -50 43 -158v-241h-85v233q0 67 -21.5 106t-82.5 39q-59 0 -91 -38q-26 -31 -26 -117v-223z" />
    <glyph glyph-name="uni04C0" unicode="&#x4c0;" horiz-adv-x="243" 
d="M77 667h89v-667h-89v667z" />
    <glyph glyph-name="uni04CF" unicode="&#x4cf;" horiz-adv-x="243" 
d="M77 667h89v-667h-89v667z" />
    <glyph glyph-name="uni04D8" unicode="&#x4d8;" horiz-adv-x="759" 
d="M39 371h587q-16 102 -84.5 164t-165.5 62q-72 0 -131.5 -38t-93.5 -105l-79 40q44 88 124 137t180 49q146 0 245 -100t99 -247q0 -144 -99 -245t-241 -101q-91 0 -170.5 44.5t-123.5 120.5q-44 77 -47 219zM627 300h-492q10 -81 47 -132q73 -98 198 -98q66 0 122 31
t90 87q22 37 35 112z" />
    <glyph glyph-name="afii10846" unicode="&#x4d9;" horiz-adv-x="497" 
d="M33 261h343q-9 57 -43.5 88.5t-87.5 31.5q-73 0 -118 -60l-78 31q74 104 196 104q97 0 159 -65.5t62 -167.5q0 -101 -63 -168.5t-157 -67.5q-93 0 -153.5 66t-60.5 168v19q1 4 1 21zM378 197h-260q3 -65 36 -100t92 -35q117 0 132 135z" />
    <glyph glyph-name="uni04E8" unicode="&#x4e8;" horiz-adv-x="766" 
d="M383 680q144 0 244 -101t100 -246q0 -144 -100 -245t-243 -101q-146 0 -245.5 101t-99.5 249q0 142 101 242.5t243 100.5zM633 302h-501q12 -55 23.5 -83.5t32.5 -54.5q76 -94 195 -94q66 0 122.5 31t90.5 86q24 37 37 115zM133 371h499q-16 104 -84 165t-166 61
q-96 0 -164 -62t-85 -164z" />
    <glyph glyph-name="uni04E9" unicode="&#x4e9;" horiz-adv-x="527" 
d="M264 456q98 0 164.5 -67.5t66.5 -167.5q0 -99 -66.5 -166.5t-164.5 -67.5q-100 0 -166 67.5t-66 169.5q0 98 67 165t165 67zM408 201h-289q7 -52 26 -81q42 -61 119 -61q61 0 99 37.5t45 104.5zM123 265h282q-14 57 -50.5 87.5t-90.5 30.5q-55 0 -91.5 -31t-49.5 -87z
" />
    <glyph glyph-name="uni1E1E" unicode="&#x1e1e;" horiz-adv-x="440" 
d="M407 667v-82h-241v-206h220v-83h-220v-296h-89v667h330zM242 847q24 0 40.5 -16.5t16.5 -39.5q0 -24 -17 -40.5t-40 -16.5q-24 0 -40.5 16.5t-16.5 40.5q0 23 17 39.5t40 16.5z" />
    <glyph glyph-name="uni1E1F" unicode="&#x1e1f;" horiz-adv-x="254" 
d="M237 443v-77h-79v-366h-86v366h-44v77h44v87q0 144 112 144q23 0 52 -7v-78q-26 6 -36 6q-42 0 -42 -65v-87h79zM158 845q24 0 40.5 -16.5t16.5 -39.5q0 -24 -17 -40.5t-41 -16.5q-23 0 -39.5 17t-16.5 40t17 39.5t40 16.5z" />
    <glyph glyph-name="Wgrave" unicode="&#x1e80;" horiz-adv-x="879" 
d="M3 667h93l153 -526l151 526h78l151 -526l153 526h93l-202 -667h-87l-147 507l-147 -507h-87zM445 707l-135 135l83 45l107 -148z" />
    <glyph glyph-name="wgrave" unicode="&#x1e81;" horiz-adv-x="666" 
d="M-3 443h92l108 -309l101 309h70l100 -309l109 309h91l-164 -443h-70l-101 306l-101 -306h-70zM332 507l-135 136l83 44l107 -148z" />
    <glyph glyph-name="Wacute" unicode="&#x1e82;" horiz-adv-x="879" 
d="M3 667h93l153 -526l151 526h78l151 -526l153 526h93l-202 -667h-87l-147 507l-147 -507h-87zM492 887l83 -45l-135 -135l-55 32z" />
    <glyph glyph-name="wacute" unicode="&#x1e83;" horiz-adv-x="667" 
d="M-3 443h92l108 -309l101 309h70l100 -309l109 309h91l-164 -443h-70l-101 306l-101 -306h-70zM356 687l83 -44l-135 -136l-56 32z" />
    <glyph glyph-name="Wdieresis" unicode="&#x1e84;" horiz-adv-x="879" 
d="M3 667h93l153 -526l151 526h78l151 -526l153 526h93l-202 -667h-87l-147 507l-147 -507h-87zM347 847q24 0 40.5 -16.5t16.5 -39.5q0 -24 -17 -40.5t-40 -16.5q-24 0 -40.5 16.5t-16.5 40.5q0 23 17 39.5t40 16.5zM531 847q24 0 40.5 -16.5t16.5 -39.5q0 -24 -16.5 -40.5
t-40.5 -16.5t-40.5 16.5t-16.5 40.5q0 23 17 39.5t40 16.5z" />
    <glyph glyph-name="wdieresis" unicode="&#x1e85;" horiz-adv-x="666" 
d="M-3 443h92l108 -309l101 309h70l100 -309l109 309h91l-164 -443h-70l-101 306l-101 -306h-70zM241 648q23 0 40 -16.5t17 -39.5q0 -24 -17 -40.5t-41 -16.5q-23 0 -39.5 17t-16.5 40t17 39.5t40 16.5zM424 648q24 0 40.5 -16.5t16.5 -39.5q0 -24 -16.5 -40.5t-40.5 -16.5
t-40.5 16.5t-16.5 40.5q0 23 17 39.5t40 16.5z" />
    <glyph glyph-name="uni1EA0" unicode="&#x1ea0;" horiz-adv-x="625" 
d="M460 180h-297l-67 -180h-93l254 667h111l254 -667h-94zM311 577l-117 -314h235zM312 -54q23 0 40 -16.5t17 -39.5q0 -24 -17 -40.5t-40 -16.5q-24 0 -40.5 16.5t-16.5 40.5q0 23 17 39.5t40 16.5z" />
    <glyph glyph-name="uni1EA1" unicode="&#x1ea1;" 
d="M487 443v-443h-86v48q-42 -34 -74 -47.5t-70 -13.5q-94 0 -160 69t-66 166t66 165.5t160 68.5q38 0 69.5 -13.5t74.5 -47.5v48h86zM263 379q-65 0 -105.5 -43.5t-40.5 -114.5q0 -69 40.5 -113t103.5 -44t102.5 44t39.5 114q0 68 -39.5 112.5t-100.5 44.5zM271 -54
q24 0 40.5 -16.5t16.5 -39.5q0 -24 -17 -40.5t-41 -16.5q-23 0 -39.5 17t-16.5 40t17 39.5t40 16.5z" />
    <glyph glyph-name="uni1EA2" unicode="&#x1ea2;" horiz-adv-x="625" 
d="M460 180h-297l-67 -180h-93l254 667h111l254 -667h-94zM311 577l-117 -314h235zM251 812l-25 62q43 16 77 16q41 0 67 -21t26 -53q0 -26 -16 -52l-16 -24q-6 -10 -6 -22v-4h-77q1 29 15 50l10 13q12 18 12 26q0 18 -23 18q-15 0 -44 -9z" />
    <glyph glyph-name="uni1EA3" unicode="&#x1ea3;" 
d="M487 443v-443h-86v48q-42 -34 -74 -47.5t-70 -13.5q-94 0 -160 69t-66 166t66 165.5t160 68.5q38 0 69.5 -13.5t74.5 -47.5v48h86zM263 379q-65 0 -105.5 -43.5t-40.5 -114.5q0 -69 40.5 -113t103.5 -44t102.5 44t39.5 114q0 68 -39.5 112.5t-100.5 44.5zM205 607l-25 62
q41 16 77 16q41 0 67 -21t26 -53q0 -25 -16 -52l-16 -24q-6 -10 -6 -22v-4h-77q1 29 15 50l10 13q12 18 12 26q0 18 -23 18q-15 0 -44 -9z" />
    <glyph glyph-name="uni1EA4" unicode="&#x1ea4;" horiz-adv-x="625" 
d="M460 180h-297l-67 -180h-93l254 667h111l254 -667h-94zM311 577l-117 -314h235zM551 897l-120 -120l35 -38l-63 -32l-91 87l-91 -87l-63 32l123 134h63l42 -46l83 115z" />
    <glyph glyph-name="uni1EA5" unicode="&#x1ea5;" 
d="M487 443v-443h-86v48q-42 -34 -74 -47.5t-70 -13.5q-94 0 -160 69t-66 166t66 165.5t160 68.5q38 0 69.5 -13.5t74.5 -47.5v48h86zM263 379q-65 0 -105.5 -43.5t-40.5 -114.5q0 -69 40.5 -113t103.5 -44t102.5 44t39.5 114q0 68 -39.5 112.5t-100.5 44.5zM350 490l-91 87
l-91 -87l-63 32l123 134h62l123 -134zM447 789l83 -44l-135 -136l-55 32z" />
    <glyph glyph-name="uni1EA6" unicode="&#x1ea6;" horiz-adv-x="625" 
d="M460 180h-297l-67 -180h-93l254 667h111l254 -667h-94zM311 577l-117 -314h235zM403 707l-91 87l-91 -87l-63 32l123 134h63l122 -134zM493 762l-135 135l82 45l108 -148z" />
    <glyph glyph-name="uni1EA7" unicode="&#x1ea7;" 
d="M487 443v-443h-86v48q-42 -34 -74 -47.5t-70 -13.5q-94 0 -160 69t-66 166t66 165.5t160 68.5q38 0 69.5 -13.5t74.5 -47.5v48h86zM263 379q-65 0 -105.5 -43.5t-40.5 -114.5q0 -69 40.5 -113t103.5 -44t102.5 44t39.5 114q0 68 -39.5 112.5t-100.5 44.5zM350 490l-91 87
l-91 -87l-63 32l123 134h62l123 -134zM388 609l-135 136l83 44l107 -148z" />
    <glyph glyph-name="uni1EA8" unicode="&#x1ea8;" horiz-adv-x="625" 
d="M460 180h-297l-67 -180h-93l254 667h111l254 -667h-94zM311 577l-117 -314h235zM281 873h63l88 -98q4 22 15 38l10 14q12 18 12 26q0 18 -23 18q-17 0 -44 -10l-25 63q41 16 77 16q41 0 67 -21t26 -54q0 -26 -17 -52l-15 -24q-6 -10 -6 -22v-4h-65l22 -25l-63 -31l-91 87
l-91 -87l-63 31z" />
    <glyph glyph-name="uni1EA9" unicode="&#x1ea9;" 
d="M487 443v-443h-86v48q-42 -34 -74 -47.5t-70 -13.5q-94 0 -160 69t-66 166t66 165.5t160 68.5q38 0 69.5 -13.5t74.5 -47.5v48h86zM263 379q-65 0 -105.5 -43.5t-40.5 -114.5q0 -69 40.5 -113t103.5 -44t102.5 44t39.5 114q0 68 -39.5 112.5t-100.5 44.5zM350 490l-91 87
l-91 -87l-63 32l123 134h62l123 -134zM319 709l-25 62q41 16 77 16q41 0 67 -20.5t26 -53.5q0 -26 -17 -52l-15 -24q-6 -10 -6 -22v-4h-77q1 29 15 50l9 13q13 17 13 26q0 18 -23 18q-15 0 -44 -9z" />
    <glyph glyph-name="uni1EAA" unicode="&#x1eaa;" horiz-adv-x="625" 
d="M460 180h-297l-67 -180h-93l254 667h111l254 -667h-94zM311 577l-117 -314h235zM403 685l-91 88l-91 -88l-63 32l123 134h63l122 -134zM385 979l70 -16q-8 -97 -85 -97q-35 0 -70 20q-26 14 -41 14q-14 0 -21 -37l-69 16q5 47 27.5 72t58.5 25q30 0 73 -22q23 -12 39 -12
q15 0 18 37z" />
    <glyph glyph-name="uni1EAB" unicode="&#x1eab;" 
d="M487 443v-443h-86v48q-42 -34 -74 -47.5t-70 -13.5q-94 0 -160 69t-66 166t66 165.5t160 68.5q38 0 69.5 -13.5t74.5 -47.5v48h86zM263 379q-65 0 -105.5 -43.5t-40.5 -114.5q0 -69 40.5 -113t103.5 -44t102.5 44t39.5 114q0 68 -39.5 112.5t-100.5 44.5zM332 797l70 -16
q-8 -96 -85 -96q-33 0 -71 19q-25 14 -40 14q-16 0 -21 -37l-69 17q5 46 27 71t59 25q30 0 72 -21q24 -12 39 -12q16 0 19 36zM350 490l-91 87l-91 -87l-63 32l123 134h62l123 -134z" />
    <glyph glyph-name="uni1EAC" unicode="&#x1eac;" horiz-adv-x="625" 
d="M460 180h-297l-67 -180h-93l254 667h111l254 -667h-94zM311 577l-117 -314h235zM403 707l-91 87l-91 -87l-63 32l123 134h63l122 -134zM312 -54q23 0 40 -16.5t17 -39.5q0 -24 -17 -40.5t-40 -16.5q-24 0 -40.5 16.5t-16.5 40.5q0 23 17 39.5t40 16.5z" />
    <glyph glyph-name="uni1EAD" unicode="&#x1ead;" 
d="M487 443v-443h-86v48q-42 -34 -74 -47.5t-70 -13.5q-94 0 -160 69t-66 166t66 165.5t160 68.5q38 0 69.5 -13.5t74.5 -47.5v48h86zM263 379q-65 0 -105.5 -43.5t-40.5 -114.5q0 -69 40.5 -113t103.5 -44t102.5 44t39.5 114q0 68 -39.5 112.5t-100.5 44.5zM350 508l-91 87
l-91 -87l-63 31l123 134h62l123 -134zM267 -54q24 0 40.5 -16.5t16.5 -39.5q0 -24 -17 -40.5t-41 -16.5q-23 0 -39.5 17t-16.5 40t17 39.5t40 16.5z" />
    <glyph glyph-name="uni1EAE" unicode="&#x1eae;" horiz-adv-x="625" 
d="M460 180h-297l-67 -180h-93l254 667h111l254 -667h-94zM311 577l-117 -314h235zM174 831l74 6q1 -18 3 -31q5 -20 22 -33t38 -13q23 0 37.5 12t20 26.5t9.5 38.5l73 -6q-8 -68 -45 -106t-95 -38q-61 0 -98 39t-39 105zM362 981l83 -44l-135 -135l-55 31z" />
    <glyph glyph-name="uni1EAF" unicode="&#x1eaf;" 
d="M487 443v-443h-86v48q-42 -34 -74 -47.5t-70 -13.5q-94 0 -160 69t-66 166t66 165.5t160 68.5q38 0 69.5 -13.5t74.5 -47.5v48h86zM263 379q-65 0 -105.5 -43.5t-40.5 -114.5q0 -69 40.5 -113t103.5 -44t102.5 44t39.5 114q0 68 -39.5 112.5t-100.5 44.5zM122 636l74 6
v-7q5 -70 63 -70q57 0 67 77l73 -6q-7 -68 -44 -106t-96 -38q-61 0 -98.5 39t-38.5 105zM316 800l82 -44l-134 -136l-56 32z" />
    <glyph glyph-name="uni1EB0" unicode="&#x1eb0;" horiz-adv-x="625" 
d="M460 180h-297l-67 -180h-93l254 667h111l254 -667h-94zM311 577l-117 -314h235zM310 802l-135 135l83 44l107 -148zM174 831l74 6q1 -29 7 -41q17 -36 56 -36q55 0 67 77l73 -6q-8 -68 -45 -106t-95 -38q-61 0 -98 39t-39 105z" />
    <glyph glyph-name="uni1EB1" unicode="&#x1eb1;" 
d="M487 443v-443h-86v48q-42 -34 -74 -47.5t-70 -13.5q-94 0 -160 69t-66 166t66 165.5t160 68.5q38 0 69.5 -13.5t74.5 -47.5v48h86zM263 379q-65 0 -105.5 -43.5t-40.5 -114.5q0 -69 40.5 -113t103.5 -44t102.5 44t39.5 114q0 68 -39.5 112.5t-100.5 44.5zM255 620
l-135 136l83 44l107 -148zM122 636l74 6v-7q5 -70 63 -70q57 0 67 77l73 -6q-7 -68 -44 -106t-96 -38q-61 0 -98.5 39t-38.5 105z" />
    <glyph glyph-name="uni1EB2" unicode="&#x1eb2;" horiz-adv-x="625" 
d="M460 180h-297l-67 -180h-93l254 667h111l254 -667h-94zM311 577l-117 -314h235zM239 908l-25 62q43 16 77 16q41 0 67 -21t26 -53q0 -26 -17 -52l-15 -24q-6 -10 -6 -22v-4h-77q1 29 15 50l10 13q12 19 12 26q0 18 -23 18q-15 0 -44 -9zM174 833l74 6v-8q5 -69 63 -69
q23 0 37.5 12t20 26.5t9.5 38.5l73 -6q-8 -68 -44.5 -106t-95.5 -38q-61 0 -98 39t-39 105z" />
    <glyph glyph-name="uni1EB3" unicode="&#x1eb3;" 
d="M487 443v-443h-86v48q-42 -34 -74 -47.5t-70 -13.5q-94 0 -160 69t-66 166t66 165.5t160 68.5q38 0 69.5 -13.5t74.5 -47.5v48h86zM263 379q-65 0 -105.5 -43.5t-40.5 -114.5q0 -69 40.5 -113t103.5 -44t102.5 44t39.5 114q0 68 -39.5 112.5t-100.5 44.5zM187 731l-25 62
q43 16 77 16q41 0 67 -20.5t26 -53.5q0 -25 -16 -52l-16 -24q-6 -10 -6 -22v-4h-77q1 29 15 50l10 13q12 18 12 26q0 18 -24 18q-14 0 -43 -9zM122 636l74 6v-7q5 -70 63 -70q57 0 67 77l73 -6q-7 -68 -44 -106t-96 -38q-61 0 -98.5 39t-38.5 105z" />
    <glyph glyph-name="uni1EB4" unicode="&#x1eb4;" horiz-adv-x="625" 
d="M460 180h-297l-67 -180h-93l254 667h111l254 -667h-94zM311 577l-117 -314h235zM385 979l70 -16q-8 -97 -85 -97q-35 0 -70 20q-26 14 -41 14q-14 0 -21 -37l-69 16q5 47 27.5 72t58.5 25q30 0 73 -22q23 -12 39 -12q15 0 18 37zM174 833l74 6q1 -29 6 -41q17 -36 57 -36
q39 0 58 39q5 12 8 38l74 -6q-8 -68 -45 -106t-95 -38q-62 0 -99 39t-38 105z" />
    <glyph glyph-name="uni1EB5" unicode="&#x1eb5;" 
d="M487 443v-443h-86v48q-42 -34 -74 -47.5t-70 -13.5q-94 0 -160 69t-66 166t66 165.5t160 68.5q38 0 69.5 -13.5t74.5 -47.5v48h86zM263 379q-65 0 -105.5 -43.5t-40.5 -114.5q0 -69 40.5 -113t103.5 -44t102.5 44t39.5 114q0 68 -39.5 112.5t-100.5 44.5zM332 797l70 -16
q-8 -96 -85 -96q-33 0 -71 19q-25 14 -40 14q-16 0 -21 -37l-69 17q5 46 27.5 71t58.5 25q30 0 73 -21q22 -12 38 -12t19 36zM121 639l74 6q4 -77 63 -77q57 0 67 77l73 -6q-7 -68 -44 -106t-95 -38q-62 0 -99.5 39t-38.5 105z" />
    <glyph glyph-name="uni1EB6" unicode="&#x1eb6;" horiz-adv-x="625" 
d="M460 180h-297l-67 -180h-93l254 667h111l254 -667h-94zM311 577l-117 -314h235zM174 853l73 6l1 -7q3 -70 63 -70q39 0 58 38q4 12 8 39l74 -6q-7 -68 -44 -106t-96 -38q-62 0 -99 39t-38 105zM312 -54q23 0 40 -16.5t17 -39.5q0 -24 -17 -40.5t-40 -16.5
q-24 0 -40.5 16.5t-16.5 40.5q0 23 17 39.5t40 16.5z" />
    <glyph glyph-name="uni1EB7" unicode="&#x1eb7;" 
d="M487 443v-443h-86v48q-42 -34 -74 -47.5t-70 -13.5q-94 0 -160 69t-66 166t66 165.5t160 68.5q38 0 69.5 -13.5t74.5 -47.5v48h86zM263 379q-65 0 -105.5 -43.5t-40.5 -114.5q0 -69 40.5 -113t103.5 -44t102.5 44t39.5 114q0 68 -39.5 112.5t-100.5 44.5zM121 653l73 6
q4 -77 63 -77q57 0 67 77l74 -6q-8 -68 -45 -106t-95 -38q-62 0 -99 39t-38 105zM267 -54q24 0 40.5 -16.5t16.5 -39.5q0 -24 -17 -40.5t-41 -16.5q-23 0 -39.5 17t-16.5 40t17 39.5t40 16.5z" />
    <glyph glyph-name="uni1EB8" unicode="&#x1eb8;" horiz-adv-x="478" 
d="M430 667v-82h-264v-206h234v-83h-234v-213h274v-83h-363v667h353zM272 -54q24 0 40.5 -16.5t16.5 -39.5q0 -24 -17 -40.5t-41 -16.5q-23 0 -39.5 17t-16.5 40t17 39.5t40 16.5z" />
    <glyph glyph-name="uni1EB9" unicode="&#x1eb9;" horiz-adv-x="495" 
d="M463 187h-344q9 -57 45.5 -90t90.5 -33q37 0 70 17t50 46q6 10 8 12l74 -31q-71 -121 -202 -121q-95 0 -159.5 67.5t-64.5 167.5q0 98 63 166t155 68q94 0 154.5 -68.5t60.5 -174.5q0 -6 -1 -26zM119 256h259q-10 58 -44 91t-84 33q-51 0 -86 -33t-45 -91zM254 -54
q23 0 40 -16.5t17 -39.5q0 -24 -17 -40.5t-40 -16.5q-24 0 -40.5 16.5t-16.5 40.5q0 23 17 39.5t40 16.5z" />
    <glyph glyph-name="uni1EBA" unicode="&#x1eba;" horiz-adv-x="478" 
d="M430 667v-82h-264v-206h234v-83h-234v-213h274v-83h-363v667h353zM198 812l-25 62q43 16 77 16q41 0 67 -20.5t26 -53.5q0 -26 -16 -52l-16 -24q-6 -10 -6 -22v-4h-77q1 29 15 50l10 13q12 18 12 26q0 18 -23 18q-16 0 -44 -9z" />
    <glyph glyph-name="uni1EBB" unicode="&#x1ebb;" horiz-adv-x="495" 
d="M463 187h-344q9 -57 45.5 -90t90.5 -33q37 0 70 17t50 46q6 10 8 12l74 -31q-71 -121 -202 -121q-95 0 -159.5 67.5t-64.5 167.5q0 98 63 166t155 68q94 0 154.5 -68.5t60.5 -174.5q0 -6 -1 -26zM119 256h259q-10 58 -44 91t-84 33q-51 0 -86 -33t-45 -91zM193 607
l-24 62q41 16 77 16q41 0 67 -20.5t26 -53.5q0 -24 -17 -52l-15 -24q-7 -11 -7 -22v-4h-76q1 29 15 50l9 13q13 18 13 26q0 18 -24 18q-14 0 -44 -9z" />
    <glyph glyph-name="uni1EBC" unicode="&#x1ebc;" horiz-adv-x="478" 
d="M430 667v-82h-264v-206h234v-83h-234v-213h274v-83h-363v667h353zM311 849l70 -17q-8 -96 -85 -96q-34 0 -70 19q-26 14 -41 14q-16 0 -21 -36l-69 16q5 46 27.5 71t58.5 25q29 0 73 -21q23 -12 39 -12q15 0 18 37z" />
    <glyph glyph-name="uni1EBD" unicode="&#x1ebd;" horiz-adv-x="495" 
d="M463 187h-344q9 -57 45.5 -90t90.5 -33q37 0 70 17t50 46q6 10 8 12l74 -31q-71 -121 -202 -121q-95 0 -159.5 67.5t-64.5 167.5q0 98 63 166t155 68q94 0 154.5 -68.5t60.5 -174.5q0 -6 -1 -26zM119 256h259q-10 58 -44 91t-84 33q-51 0 -86 -33t-45 -91zM320 649
l70 -16q-8 -97 -85 -97q-35 0 -70 20q-26 14 -41 14q-16 0 -21 -37l-69 16q5 47 27.5 72t58.5 25q30 0 73 -22q23 -12 39 -12q15 0 18 37z" />
    <glyph glyph-name="uni1EBE" unicode="&#x1ebe;" horiz-adv-x="478" 
d="M430 667v-82h-264v-206h234v-83h-234v-213h274v-83h-363v667h353zM486 897l-120 -120l35 -38l-63 -32l-91 87l-91 -87l-63 32l123 134h62l42 -46l83 115z" />
    <glyph glyph-name="uni1EBF" unicode="&#x1ebf;" horiz-adv-x="495" 
d="M463 187h-344q9 -57 45.5 -90t90.5 -33q37 0 70 17t50 46q6 10 8 12l74 -31q-71 -121 -202 -121q-95 0 -159.5 67.5t-64.5 167.5q0 98 63 166t155 68q94 0 154.5 -68.5t60.5 -174.5q0 -6 -1 -26zM119 256h259q-10 58 -44 91t-84 33q-51 0 -86 -33t-45 -91zM340 490
l-91 87l-91 -87l-63 32l123 134h62l123 -134zM437 789l83 -44l-135 -136l-55 32z" />
    <glyph glyph-name="uni1EC0" unicode="&#x1ec0;" horiz-adv-x="478" 
d="M430 667v-82h-264v-206h234v-83h-234v-213h274v-83h-363v667h353zM338 707l-91 87l-91 -87l-63 32l123 134h62l123 -134zM427 762l-135 135l83 45l107 -148z" />
    <glyph glyph-name="uni1EC1" unicode="&#x1ec1;" horiz-adv-x="495" 
d="M463 187h-344q9 -57 45.5 -90t90.5 -33q37 0 70 17t50 46q6 10 8 12l74 -31q-71 -121 -202 -121q-95 0 -159.5 67.5t-64.5 167.5q0 98 63 166t155 68q94 0 154.5 -68.5t60.5 -174.5q0 -6 -1 -26zM119 256h259q-10 58 -44 91t-84 33q-51 0 -86 -33t-45 -91zM340 490
l-91 87l-91 -87l-63 32l123 134h62l123 -134zM378 609l-135 136l83 44l107 -148z" />
    <glyph glyph-name="uni1EC2" unicode="&#x1ec2;" horiz-adv-x="478" 
d="M430 667v-82h-264v-206h234v-83h-234v-213h274v-83h-363v667h353zM216 873h62l89 -97q5 22 15 37l9 14q13 19 13 26q0 18 -23 18q-18 0 -45 -10l-24 63q41 16 77 16q41 0 67 -21t26 -54q0 -24 -17 -52l-15 -24q-6 -9 -7 -22v-1l1 -3h-66l23 -25l-63 -31l-91 87l-91 -87
l-63 31z" />
    <glyph glyph-name="uni1EC3" unicode="&#x1ec3;" horiz-adv-x="495" 
d="M463 187h-344q9 -57 45.5 -90t90.5 -33q37 0 70 17t50 46q6 10 8 12l74 -31q-71 -121 -202 -121q-95 0 -159.5 67.5t-64.5 167.5q0 98 63 166t155 68q94 0 154.5 -68.5t60.5 -174.5q0 -6 -1 -26zM119 256h259q-10 58 -44 91t-84 33q-51 0 -86 -33t-45 -91zM340 490
l-91 87l-91 -87l-63 32l123 134h62l123 -134zM309 709l-25 62q41 16 77 16q41 0 67 -20.5t26 -53.5q0 -26 -17 -52l-15 -24q-6 -10 -6 -22v-4h-77q1 29 15 50l10 13q12 20 12 26q0 18 -23 18q-15 0 -44 -9z" />
    <glyph glyph-name="uni1EC4" unicode="&#x1ec4;" horiz-adv-x="478" 
d="M430 667v-82h-264v-206h234v-83h-234v-213h274v-83h-363v667h353zM338 685l-91 88l-91 -88l-63 32l123 134h62l123 -134zM320 979l70 -16q-8 -97 -85 -97q-34 0 -71 20q-25 14 -40 14q-16 0 -21 -37l-69 16q5 47 27 72t59 25q31 0 72 -22q24 -12 39 -12q16 0 19 37z" />
    <glyph glyph-name="uni1EC5" unicode="&#x1ec5;" horiz-adv-x="495" 
d="M463 187h-344q9 -57 45.5 -90t90.5 -33q37 0 70 17t50 46q6 10 8 12l74 -31q-71 -121 -202 -121q-95 0 -159.5 67.5t-64.5 167.5q0 98 63 166t155 68q94 0 154.5 -68.5t60.5 -174.5q0 -6 -1 -26zM119 256h259q-10 58 -44 91t-84 33q-51 0 -86 -33t-45 -91zM322 797
l70 -16q-8 -96 -85 -96q-33 0 -71 19q-25 14 -40 14q-16 0 -21 -37l-69 17q5 46 27.5 71t58.5 25q30 0 73 -21q23 -12 39 -12q15 0 18 36zM340 490l-91 87l-91 -87l-63 32l123 134h62l123 -134z" />
    <glyph glyph-name="uni1EC6" unicode="&#x1ec6;" horiz-adv-x="478" 
d="M430 667v-82h-264v-206h234v-83h-234v-213h274v-83h-363v667h353zM349 707l-90 87l-91 -87l-63 32l122 134h63l122 -134zM272 -54q24 0 40.5 -16.5t16.5 -39.5q0 -24 -17 -40.5t-41 -16.5q-23 0 -39.5 17t-16.5 40t17 39.5t40 16.5z" />
    <glyph glyph-name="uni1EC7" unicode="&#x1ec7;" horiz-adv-x="495" 
d="M463 187h-344q9 -57 45.5 -90t90.5 -33q37 0 70 17t50 46q6 10 8 12l74 -31q-71 -121 -202 -121q-95 0 -159.5 67.5t-64.5 167.5q0 98 63 166t155 68q94 0 154.5 -68.5t60.5 -174.5q0 -6 -1 -26zM119 256h259q-10 58 -44 91t-84 33q-51 0 -86 -33t-45 -91zM342 508
l-91 87l-91 -87l-63 31l123 134h62l123 -134zM254 -54q24 0 40.5 -16.5t16.5 -39.5q0 -24 -17 -40.5t-41 -16.5q-23 0 -39.5 17t-16.5 40t17 39.5t40 16.5z" />
    <glyph glyph-name="uni1EC8" unicode="&#x1ec8;" horiz-adv-x="243" 
d="M77 667h89v-667h-89v667zM60 812l-25 62q41 16 77 16q41 0 67 -20.5t26 -53.5q0 -26 -17 -52l-15 -24q-6 -10 -6 -22v-4h-77q1 30 15 50l9 13q13 17 13 26q0 18 -23 18q-16 0 -44 -9z" />
    <glyph glyph-name="uni1EC9" unicode="&#x1ec9;" horiz-adv-x="206" 
d="M61 443h86v-443h-86v443zM41 607l-25 62q41 16 77 16q41 0 67 -20.5t26 -53.5q0 -26 -17 -52l-15 -24q-6 -10 -6 -22v-4h-77q1 29 15 50l9 13q13 17 13 26q0 18 -23 18q-15 0 -44 -9z" />
    <glyph glyph-name="uni1ECA" unicode="&#x1eca;" horiz-adv-x="243" 
d="M76 667h89v-667h-89v667zM121 -54q23 0 40 -16.5t17 -39.5q0 -24 -17 -40.5t-41 -16.5q-23 0 -39.5 17t-16.5 40t17 39.5t40 16.5z" />
    <glyph glyph-name="uni1ECB" unicode="&#x1ecb;" horiz-adv-x="206" 
d="M60 443h86v-443h-86v443zM103 650q24 0 41 -17t17 -41q0 -23 -17 -40t-41 -17t-41 17t-17 41q0 23 17 40t41 17zM103 -54q23 0 40 -16.5t17 -39.5q0 -24 -17 -40.5t-40 -16.5q-24 0 -40.5 16.5t-16.5 40.5q0 23 17 39.5t40 16.5z" />
    <glyph glyph-name="uni1ECC" unicode="&#x1ecc;" horiz-adv-x="763" 
d="M382 680q141 0 242 -102t101 -245q0 -142 -101 -244t-241 -102q-143 0 -243.5 102.5t-100.5 248.5q0 138 102 240t241 102zM382 596q-104 0 -178.5 -76t-74.5 -183q0 -111 73.5 -188.5t179.5 -77.5q104 0 178.5 77t74.5 185q0 109 -74 186t-179 77zM382 -54
q23 0 40 -16.5t17 -39.5q0 -24 -17 -40.5t-41 -16.5q-23 0 -39.5 17t-16.5 40t17 39.5t40 16.5z" />
    <glyph glyph-name="uni1ECD" unicode="&#x1ecd;" horiz-adv-x="524" 
d="M266 456q95 0 161 -68.5t66 -165.5q0 -99 -67 -167t-164 -68q-98 0 -164.5 68t-66.5 169q0 98 67.5 165t167.5 67zM264 379q-66 0 -106.5 -43.5t-40.5 -114.5q0 -69 40.5 -113t104.5 -44t104.5 44t40.5 114q0 68 -40.5 112.5t-102.5 44.5zM262 -54q24 0 40.5 -16.5
t16.5 -39.5q0 -24 -17 -40.5t-41 -16.5q-23 0 -39.5 17t-16.5 40t17 39.5t40 16.5z" />
    <glyph glyph-name="uni1ECE" unicode="&#x1ece;" horiz-adv-x="763" 
d="M382 680q141 0 242 -102t101 -245q0 -142 -101 -244t-241 -102q-143 0 -243.5 102.5t-100.5 248.5q0 138 102 240t241 102zM382 596q-104 0 -178.5 -76t-74.5 -183q0 -111 73.5 -188.5t179.5 -77.5q104 0 178.5 77t74.5 185q0 109 -74 186t-179 77zM322 812l-25 62
q41 16 77 16q41 0 67 -20.5t26 -53.5q0 -26 -17 -52l-15 -24q-6 -10 -6 -22v-4h-77q1 30 15 50l9 13q13 17 13 26q0 18 -23 18q-16 0 -44 -9z" />
    <glyph glyph-name="uni1ECF" unicode="&#x1ecf;" horiz-adv-x="524" 
d="M266 456q95 0 161 -68.5t66 -165.5q0 -99 -67 -167t-164 -68q-98 0 -164.5 68t-66.5 169q0 98 67.5 165t167.5 67zM264 379q-66 0 -106.5 -43.5t-40.5 -114.5q0 -69 40.5 -113t104.5 -44t104.5 44t40.5 114q0 68 -40.5 112.5t-102.5 44.5zM202 607l-25 62q41 16 77 16
q41 0 67 -20.5t26 -53.5q0 -26 -17 -52l-15 -24q-6 -10 -6 -22v-4h-77q1 29 15 50l9 13q13 18 13 26q0 18 -23 18q-16 0 -44 -9z" />
    <glyph glyph-name="uni1ED0" unicode="&#x1ed0;" horiz-adv-x="763" 
d="M382 680q141 0 242 -102t101 -245q0 -142 -101 -244t-241 -102q-143 0 -243.5 102.5t-100.5 248.5q0 138 102 240t241 102zM382 596q-104 0 -178.5 -76t-74.5 -183q0 -111 73.5 -188.5t179.5 -77.5q104 0 178.5 77t74.5 185q0 109 -74 186t-179 77zM621 897l-120 -120
l35 -38l-63 -32l-91 86l-91 -86l-63 32l123 134h62l42 -46l83 115z" />
    <glyph glyph-name="uni1ED1" unicode="&#x1ed1;" horiz-adv-x="524" 
d="M266 456q95 0 161 -68.5t66 -165.5q0 -99 -67 -167t-164 -68q-98 0 -164.5 68t-66.5 169q0 98 67.5 165t167.5 67zM264 379q-66 0 -106.5 -43.5t-40.5 -114.5q0 -69 40.5 -113t104.5 -44t104.5 44t40.5 114q0 68 -40.5 112.5t-102.5 44.5zM353 490l-91 87l-91 -87l-63 32
l123 134h62l123 -134zM450 789l83 -44l-135 -136l-56 32z" />
    <glyph glyph-name="uni1ED2" unicode="&#x1ed2;" horiz-adv-x="763" 
d="M382 680q141 0 242 -102t101 -245q0 -142 -101 -244t-241 -102q-143 0 -243.5 102.5t-100.5 248.5q0 138 102 240t241 102zM382 596q-104 0 -178.5 -76t-74.5 -183q0 -111 73.5 -188.5t179.5 -77.5q104 0 178.5 77t74.5 185q0 109 -74 186t-179 77zM473 707l-91 87
l-91 -87l-63 32l123 134h62l123 -134zM562 762l-135 135l83 45l108 -148z" />
    <glyph glyph-name="uni1ED3" unicode="&#x1ed3;" horiz-adv-x="524" 
d="M266 456q95 0 161 -68.5t66 -165.5q0 -99 -67 -167t-164 -68q-98 0 -164.5 68t-66.5 169q0 98 67.5 165t167.5 67zM264 379q-66 0 -106.5 -43.5t-40.5 -114.5q0 -69 40.5 -113t104.5 -44t104.5 44t40.5 114q0 68 -40.5 112.5t-102.5 44.5zM353 490l-91 87l-91 -87l-63 32
l123 134h62l123 -134zM390 609l-134 136l82 44l108 -148z" />
    <glyph glyph-name="uni1ED4" unicode="&#x1ed4;" horiz-adv-x="763" 
d="M382 680q141 0 242 -102t101 -245q0 -142 -101 -244t-241 -102q-143 0 -243.5 102.5t-100.5 248.5q0 138 102 240t241 102zM382 596q-104 0 -178.5 -76t-74.5 -183q0 -111 73.5 -188.5t179.5 -77.5q104 0 178.5 77t74.5 185q0 109 -74 186t-179 77zM351 873h62l89 -97
q5 22 15 37l9 14q13 17 13 26q0 18 -23 18q-18 0 -44 -10l-25 63q41 16 77 16q41 0 67 -21t26 -54q0 -24 -17 -52l-15 -24q-6 -10 -6 -22v-4h-66l23 -25l-63 -31l-91 87l-91 -87l-63 31z" />
    <glyph glyph-name="uni1ED5" unicode="&#x1ed5;" horiz-adv-x="524" 
d="M266 456q95 0 161 -68.5t66 -165.5q0 -99 -67 -167t-164 -68q-98 0 -164.5 68t-66.5 169q0 98 67.5 165t167.5 67zM264 379q-66 0 -106.5 -43.5t-40.5 -114.5q0 -69 40.5 -113t104.5 -44t104.5 44t40.5 114q0 68 -40.5 112.5t-102.5 44.5zM353 490l-91 87l-91 -87l-63 32
l123 134h62l123 -134zM321 709l-24 62q41 16 77 16q41 0 67 -20.5t26 -53.5q0 -24 -17 -52l-15 -24q-6 -9 -7 -22v-4h-77q1 27 16 50l9 13q13 18 13 26q0 18 -24 18q-14 0 -44 -9z" />
    <glyph glyph-name="uni1ED6" unicode="&#x1ed6;" horiz-adv-x="763" 
d="M382 680q141 0 242 -102t101 -245q0 -142 -101 -244t-241 -102q-143 0 -243.5 102.5t-100.5 248.5q0 138 102 240t241 102zM382 596q-104 0 -178.5 -76t-74.5 -183q0 -111 73.5 -188.5t179.5 -77.5q104 0 178.5 77t74.5 185q0 109 -74 186t-179 77zM473 685l-91 88
l-91 -88l-63 32l123 134h62l123 -134zM455 979l70 -16q-8 -97 -85 -97q-34 0 -71 20q-25 14 -40 14q-16 0 -21 -37l-69 16q5 47 27 72t59 25q31 0 72 -22q24 -12 39 -12q16 0 19 37z" />
    <glyph glyph-name="uni1ED7" unicode="&#x1ed7;" horiz-adv-x="524" 
d="M266 456q95 0 161 -68.5t66 -165.5q0 -99 -67 -167t-164 -68q-98 0 -164.5 68t-66.5 169q0 98 67.5 165t167.5 67zM264 379q-66 0 -106.5 -43.5t-40.5 -114.5q0 -69 40.5 -113t104.5 -44t104.5 44t40.5 114q0 68 -40.5 112.5t-102.5 44.5zM335 797l70 -16q-8 -96 -85 -96
q-33 0 -71 19q-25 14 -40 14q-9 0 -13.5 -8t-8.5 -29l-68 17q5 46 27 71t59 25q30 0 72 -21q23 -12 39 -12q15 0 19 36zM353 490l-91 87l-91 -87l-63 32l123 134h62l123 -134z" />
    <glyph glyph-name="uni1ED8" unicode="&#x1ed8;" horiz-adv-x="763" 
d="M382 680q141 0 242 -102t101 -245q0 -142 -101 -244t-241 -102q-143 0 -243.5 102.5t-100.5 248.5q0 138 102 240t241 102zM382 596q-104 0 -178.5 -76t-74.5 -183q0 -111 73.5 -188.5t179.5 -77.5q104 0 178.5 77t74.5 185q0 109 -74 186t-179 77zM473 707l-91 87
l-91 -87l-63 32l123 134h62l123 -134zM382 -54q23 0 40 -16.5t17 -39.5q0 -24 -17 -40.5t-41 -16.5q-23 0 -39.5 17t-16.5 40t17 39.5t40 16.5z" />
    <glyph glyph-name="uni1ED9" unicode="&#x1ed9;" horiz-adv-x="524" 
d="M266 456q95 0 161 -68.5t66 -165.5q0 -99 -67 -167t-164 -68q-98 0 -164.5 68t-66.5 169q0 98 67.5 165t167.5 67zM264 379q-66 0 -106.5 -43.5t-40.5 -114.5q0 -69 40.5 -113t104.5 -44t104.5 44t40.5 114q0 68 -40.5 112.5t-102.5 44.5zM353 508l-91 87l-91 -87l-63 31
l123 134h62l123 -134zM262 -54q24 0 40.5 -16.5t16.5 -39.5q0 -24 -17 -40.5t-41 -16.5q-23 0 -39.5 17t-16.5 40t17 39.5t40 16.5z" />
    <glyph glyph-name="uni1EDA" unicode="&#x1eda;" horiz-adv-x="767" 
d="M625 720l62 31q61 -44 61 -110q0 -75 -76 -124q53 -84 53 -184q0 -142 -101 -244t-242 -102t-242 102t-101 244q0 143 101 245t242 102q138 0 243 -103q47 23 47 63q0 41 -47 80zM382 596q-104 0 -178.5 -76t-74.5 -183q0 -111 73.5 -188.5t179.5 -77.5q104 0 178.5 77
t74.5 185q0 109 -74 186t-179 77zM435 887l83 -45l-135 -135l-55 32z" />
    <glyph glyph-name="uni1EDB" unicode="&#x1edb;" horiz-adv-x="562" 
d="M424 496l63 31q61 -45 61 -110q0 -70 -68 -118q13 -38 13 -77q0 -99 -67 -167t-164 -68t-164 68t-67 167t66.5 166.5t164.5 67.5q114 0 183 -91q27 20 27 52q0 41 -48 79zM264 379q-66 0 -106.5 -43.5t-40.5 -114.5q0 -69 40.5 -113t104.5 -44t104.5 44t40.5 114
q0 68 -40.5 112.5t-102.5 44.5zM301 687l82 -44l-134 -136l-56 32z" />
    <glyph glyph-name="uni1EDC" unicode="&#x1edc;" horiz-adv-x="767" 
d="M625 720l62 31q61 -44 61 -110q0 -75 -76 -124q53 -84 53 -184q0 -142 -101 -244t-242 -102t-242 102t-101 244q0 143 101 245t242 102q138 0 243 -103q47 23 47 63q0 41 -47 80zM382 596q-104 0 -178.5 -76t-74.5 -183q0 -111 73.5 -188.5t179.5 -77.5q104 0 178.5 77
t74.5 185q0 109 -74 186t-179 77zM381 707l-135 135l83 45l107 -148z" />
    <glyph glyph-name="uni1EDD" unicode="&#x1edd;" horiz-adv-x="562" 
d="M424 496l63 31q61 -45 61 -110q0 -70 -68 -118q13 -38 13 -77q0 -99 -67 -167t-164 -68t-164 68t-67 167t66.5 166.5t164.5 67.5q114 0 183 -91q27 20 27 52q0 41 -48 79zM264 379q-66 0 -106.5 -43.5t-40.5 -114.5q0 -69 40.5 -113t104.5 -44t104.5 44t40.5 114
q0 68 -40.5 112.5t-102.5 44.5zM261 507l-135 136l83 44l107 -148z" />
    <glyph glyph-name="uni1EDE" unicode="&#x1ede;" horiz-adv-x="767" 
d="M625 720l62 31q61 -44 61 -110q0 -75 -76 -124q53 -84 53 -184q0 -142 -101 -244t-242 -102t-242 102t-101 244q0 143 101 245t242 102q138 0 243 -103q47 23 47 63q0 41 -47 80zM382 596q-104 0 -178.5 -76t-74.5 -183q0 -111 73.5 -188.5t179.5 -77.5q104 0 178.5 77
t74.5 185q0 109 -74 186t-179 77zM330 812l-25 62q41 16 77 16q41 0 67 -20.5t26 -53.5q0 -26 -17 -52l-15 -24q-6 -10 -6 -22v-4h-77q1 30 15 50l10 13q12 17 12 26q0 18 -23 18q-16 0 -44 -9z" />
    <glyph glyph-name="uni1EDF" unicode="&#x1edf;" horiz-adv-x="562" 
d="M424 496l63 31q61 -45 61 -110q0 -70 -68 -118q13 -38 13 -77q0 -99 -67 -167t-164 -68t-164 68t-67 167t66.5 166.5t164.5 67.5q114 0 183 -91q27 20 27 52q0 41 -48 79zM264 379q-66 0 -106.5 -43.5t-40.5 -114.5q0 -69 40.5 -113t104.5 -44t104.5 44t40.5 114
q0 68 -40.5 112.5t-102.5 44.5zM208 607l-25 62q43 16 77 16q41 0 67 -21t26 -53q0 -25 -16 -52l-16 -24q-6 -10 -6 -22v-4h-77q1 27 15 50l10 13q12 18 12 26q0 18 -23 18q-16 0 -44 -9z" />
    <glyph glyph-name="uni1EE0" unicode="&#x1ee0;" horiz-adv-x="767" 
d="M625 720l62 31q61 -44 61 -110q0 -75 -76 -124q53 -84 53 -184q0 -142 -101 -244t-242 -102t-242 102t-101 244q0 143 101 245t242 102q138 0 243 -103q47 23 47 63q0 41 -47 80zM382 596q-104 0 -178.5 -76t-74.5 -183q0 -111 73.5 -188.5t179.5 -77.5q104 0 178.5 77
t74.5 185q0 109 -74 186t-179 77zM455 849l70 -17q-8 -96 -85 -96q-33 0 -71 19q-26 14 -41 14q-14 0 -21 -36l-68 16q5 46 27 71t59 25q30 0 72 -21q23 -12 39 -12q9 0 13 8t6 29z" />
    <glyph glyph-name="uni1EE1" unicode="&#x1ee1;" horiz-adv-x="562" 
d="M424 496l63 31q61 -45 61 -110q0 -70 -68 -118q13 -38 13 -77q0 -99 -67 -167t-164 -68t-164 68t-67 167t66.5 166.5t164.5 67.5q114 0 183 -91q27 20 27 52q0 41 -48 79zM264 379q-66 0 -106.5 -43.5t-40.5 -114.5q0 -69 40.5 -113t104.5 -44t104.5 44t40.5 114
q0 68 -40.5 112.5t-102.5 44.5zM335 649l70 -16q-9 -97 -85 -97q-34 0 -71 20q-25 14 -40 14q-9 0 -13.5 -8t-8.5 -29l-68 16q5 47 27 72t59 25q31 0 72 -22q23 -12 39 -12q15 0 19 37z" />
    <glyph glyph-name="uni1EE2" unicode="&#x1ee2;" horiz-adv-x="767" 
d="M625 720l62 31q61 -44 61 -110q0 -75 -76 -124q53 -84 53 -184q0 -142 -101 -244t-242 -102t-242 102t-101 244q0 143 101 245t242 102q138 0 243 -103q47 23 47 63q0 41 -47 80zM382 596q-104 0 -178.5 -76t-74.5 -183q0 -111 73.5 -188.5t179.5 -77.5q104 0 178.5 77
t74.5 185q0 109 -74 186t-179 77zM382 -54q24 0 40.5 -16.5t16.5 -39.5q0 -24 -17 -40.5t-40 -16.5q-24 0 -40.5 16.5t-16.5 40.5q0 23 17 39.5t40 16.5z" />
    <glyph glyph-name="uni1EE3" unicode="&#x1ee3;" horiz-adv-x="562" 
d="M424 496l63 31q61 -45 61 -110q0 -70 -68 -118q13 -38 13 -77q0 -99 -67 -167t-164 -68t-164 68t-67 167t66.5 166.5t164.5 67.5q114 0 183 -91q27 20 27 52q0 41 -48 79zM264 379q-66 0 -106.5 -43.5t-40.5 -114.5q0 -69 40.5 -113t104.5 -44t104.5 44t40.5 114
q0 68 -40.5 112.5t-102.5 44.5zM262 -54q24 0 40.5 -16.5t16.5 -39.5q0 -24 -17 -40.5t-41 -16.5q-23 0 -39.5 17t-16.5 40t17 39.5t40 16.5z" />
    <glyph glyph-name="uni1EE4" unicode="&#x1ee4;" horiz-adv-x="637" 
d="M77 235v432h89v-412q0 -83 19 -115q17 -31 54.5 -50t79.5 -19q41 0 78.5 19t54.5 50q19 34 19 115v412h89v-432q0 -81 -28 -133q-31 -53 -88.5 -84t-124.5 -31t-125 31t-89 84q-28 49 -28 133zM319 -54q23 0 40 -16.5t17 -39.5q0 -24 -17 -40.5t-40 -16.5
q-24 0 -40.5 16.5t-16.5 40.5q0 23 17 39.5t40 16.5z" />
    <glyph glyph-name="uni1EE5" unicode="&#x1ee5;" horiz-adv-x="509" 
d="M450 443v-443h-86v41q-48 -54 -122 -54q-49 0 -90.5 23t-64.5 62q-27 45 -27 132v239h86v-231q0 -68 21 -106.5t83 -38.5q32 0 58 13.5t38 35.5q18 33 18 106v221h86zM247 -54q23 0 40 -16.5t17 -39.5q0 -24 -17 -40.5t-40 -16.5q-24 0 -40.5 16.5t-16.5 40.5
q0 23 17 39.5t40 16.5z" />
    <glyph glyph-name="uni1EE6" unicode="&#x1ee6;" horiz-adv-x="637" 
d="M77 235v432h89v-412q0 -83 19 -115q17 -31 54.5 -50t79.5 -19q41 0 78.5 19t54.5 50q19 34 19 115v412h89v-432q0 -81 -28 -133q-31 -53 -88.5 -84t-124.5 -31t-125 31t-89 84q-28 49 -28 133zM257 812l-24 62q41 16 77 16q41 0 67 -20.5t26 -53.5q0 -24 -17 -52l-15 -24
q-6 -9 -7 -22v-1l1 -3h-77q1 30 15 50l9 13q13 18 13 26q0 18 -23 18q-15 0 -45 -9z" />
    <glyph glyph-name="uni1EE7" unicode="&#x1ee7;" horiz-adv-x="509" 
d="M450 443v-443h-86v41q-48 -54 -122 -54q-49 0 -90.5 23t-64.5 62q-27 45 -27 132v239h86v-231q0 -68 21 -106.5t83 -38.5q32 0 58 13.5t38 35.5q18 33 18 106v221h86zM194 607l-25 62q41 16 77 16q41 0 67 -21t26 -53q0 -26 -17 -52l-15 -24q-6 -10 -6 -22v-4h-77
q1 29 15 50l10 13q12 20 12 26q0 18 -23 18q-16 0 -44 -9z" />
    <glyph glyph-name="uni1EE8" unicode="&#x1ee8;" horiz-adv-x="674" 
d="M471 667h89v-85q38 23 38 59q0 41 -48 79l62 31q62 -45 62 -111q0 -48 -33 -85.5t-81 -55.5v-264q0 -82 -29 -133q-31 -53 -88 -84t-124 -31t-125 31t-89 84q-28 48 -28 133v432h89v-412q0 -83 19 -115q17 -30 54.5 -49.5t78.5 -19.5q42 0 79.5 19t54.5 50q19 32 19 115
v412zM372 887l82 -45l-134 -135l-56 32z" />
    <glyph glyph-name="uni1EE9" unicode="&#x1ee9;" horiz-adv-x="578" 
d="M364 443h86v-86q39 23 39 60q0 41 -48 79l62 31q62 -43 62 -111q0 -93 -110 -139l-5 -2v-275h-86v41q-48 -54 -122 -54q-49 0 -90.5 23t-64.5 62q-27 45 -27 132v239h86v-231q0 -68 21 -106.5t83 -38.5q32 0 58 13.5t38 35.5q18 33 18 106v221zM303 687l83 -44l-135 -136
l-55 32z" />
    <glyph glyph-name="uni1EEA" unicode="&#x1eea;" horiz-adv-x="674" 
d="M471 667h89v-85q38 23 38 59q0 41 -48 79l62 31q62 -45 62 -111q0 -48 -33 -85.5t-81 -55.5v-264q0 -82 -29 -133q-31 -53 -88 -84t-124 -31t-125 31t-89 84q-28 48 -28 133v432h89v-412q0 -83 19 -115q17 -30 54.5 -49.5t78.5 -19.5q42 0 79.5 19t54.5 50q19 32 19 115
v412zM318 707l-135 135l82 45l108 -148z" />
    <glyph glyph-name="uni1EEB" unicode="&#x1eeb;" horiz-adv-x="578" 
d="M364 443h86v-86q39 23 39 60q0 41 -48 79l62 31q62 -43 62 -111q0 -93 -110 -139l-5 -2v-275h-86v41q-48 -54 -122 -54q-49 0 -90.5 23t-64.5 62q-27 45 -27 132v239h86v-231q0 -68 21 -106.5t83 -38.5q32 0 58 13.5t38 35.5q18 33 18 106v221zM249 507l-135 136l83 44
l107 -148z" />
    <glyph glyph-name="uni1EEC" unicode="&#x1eec;" horiz-adv-x="674" 
d="M471 667h89v-85q38 23 38 59q0 41 -48 79l62 31q62 -45 62 -111q0 -48 -33 -85.5t-81 -55.5v-264q0 -82 -29 -133q-31 -53 -88 -84t-124 -31t-125 31t-89 84q-28 48 -28 133v432h89v-412q0 -83 19 -115q17 -30 54.5 -49.5t78.5 -19.5q42 0 79.5 19t54.5 50q19 32 19 115
v412zM265 812l-25 62q41 16 77 16q41 0 67 -20.5t26 -53.5q0 -26 -17 -52l-15 -24q-6 -10 -6 -22v-4h-77q1 30 15 50l10 13q12 17 12 26q0 18 -23 18q-15 0 -44 -9z" />
    <glyph glyph-name="uni1EED" unicode="&#x1eed;" horiz-adv-x="578" 
d="M364 443h86v-86q39 23 39 60q0 41 -48 79l62 31q62 -43 62 -111q0 -93 -110 -139l-5 -2v-275h-86v41q-48 -54 -122 -54q-49 0 -90.5 23t-64.5 62q-27 45 -27 132v239h86v-231q0 -68 21 -106.5t83 -38.5q32 0 58 13.5t38 35.5q18 33 18 106v221zM196 607l-24 62
q41 16 77 16q41 0 67 -21t26 -53q0 -24 -17 -52l-16 -24q-6 -10 -6 -22v-4h-76q0 27 15 50l9 13q13 18 13 26q0 18 -24 18q-14 0 -44 -9z" />
    <glyph glyph-name="uni1EEE" unicode="&#x1eee;" horiz-adv-x="674" 
d="M471 667h89v-85q38 23 38 59q0 41 -48 79l62 31q62 -45 62 -111q0 -48 -33 -85.5t-81 -55.5v-264q0 -82 -29 -133q-31 -53 -88 -84t-124 -31t-125 31t-89 84q-28 48 -28 133v432h89v-412q0 -83 19 -115q17 -30 54.5 -49.5t78.5 -19.5q42 0 79.5 19t54.5 50q19 32 19 115
v412zM392 849l70 -17q-8 -96 -85 -96q-33 0 -71 19q-25 14 -40 14q-16 0 -21 -36l-69 16q5 46 27.5 71t58.5 25q30 0 73 -21q22 -12 38 -12t19 37z" />
    <glyph glyph-name="uni1EEF" unicode="&#x1eef;" horiz-adv-x="578" 
d="M364 443h86v-86q39 23 39 60q0 41 -48 79l62 31q62 -43 62 -111q0 -93 -110 -139l-5 -2v-275h-86v41q-48 -54 -122 -54q-49 0 -90.5 23t-64.5 62q-27 45 -27 132v239h86v-231q0 -68 21 -106.5t83 -38.5q32 0 58 13.5t38 35.5q18 33 18 106v221zM328 649l70 -16
q-8 -97 -85 -97q-34 0 -71 20q-25 14 -40 14q-16 0 -21 -37l-69 16q5 47 27.5 72t58.5 25q30 0 73 -22q22 -12 39 -12q15 0 18 37z" />
    <glyph glyph-name="uni1EF0" unicode="&#x1ef0;" horiz-adv-x="674" 
d="M471 667h89v-85q38 23 38 59q0 41 -48 79l62 31q62 -45 62 -111q0 -48 -33 -85.5t-81 -55.5v-264q0 -82 -29 -133q-31 -53 -88 -84t-124 -31t-125 31t-89 84q-28 48 -28 133v432h89v-412q0 -83 19 -115q17 -30 54.5 -49.5t78.5 -19.5q42 0 79.5 19t54.5 50q19 32 19 115
v412zM319 -54q24 0 40.5 -16.5t16.5 -39.5q0 -24 -17 -40.5t-41 -16.5q-23 0 -39.5 17t-16.5 40t17 39.5t40 16.5z" />
    <glyph glyph-name="uni1EF1" unicode="&#x1ef1;" horiz-adv-x="578" 
d="M364 443h86v-86q39 23 39 60q0 41 -48 79l62 31q62 -43 62 -111q0 -93 -110 -139l-5 -2v-275h-86v41q-48 -54 -122 -54q-49 0 -90.5 23t-64.5 62q-27 45 -27 132v239h86v-231q0 -68 21 -106.5t83 -38.5q32 0 58 13.5t38 35.5q18 33 18 106v221zM255 -54q24 0 40.5 -16.5
t16.5 -39.5q0 -24 -17 -40.5t-40 -16.5q-24 0 -40.5 16.5t-16.5 40.5q0 23 17 39.5t40 16.5z" />
    <glyph glyph-name="Ygrave" unicode="&#x1ef2;" horiz-adv-x="518" 
d="M423 667h98l-217 -389v-278h-89v278l-218 389h98l164 -302zM264 707l-134 135l82 45l108 -148z" />
    <glyph glyph-name="ygrave" unicode="&#x1ef3;" horiz-adv-x="452" 
d="M156 -233h-89l111 253l-181 423h92l134 -319l139 319h92zM231 507l-134 136l82 44l108 -148z" />
    <glyph glyph-name="uni1EF4" unicode="&#x1ef4;" horiz-adv-x="518" 
d="M423 667h98l-217 -389v-278h-89v278l-218 389h98l164 -302zM258 -54q24 0 41 -16.5t17 -39.5q0 -24 -17 -40.5t-41 -16.5q-23 0 -39.5 17t-16.5 40t16.5 39.5t39.5 16.5z" />
    <glyph glyph-name="uni1EF5" unicode="&#x1ef5;" horiz-adv-x="452" 
d="M156 -233h-89l111 253l-181 423h92l134 -319l139 319h92zM333 -54q24 0 40.5 -16.5t16.5 -39.5q0 -24 -17 -40.5t-40 -16.5q-24 0 -40.5 16.5t-16.5 40.5q0 23 17 39.5t40 16.5z" />
    <glyph glyph-name="uni1EF6" unicode="&#x1ef6;" horiz-adv-x="518" 
d="M423 667h98l-217 -389v-278h-89v278l-218 389h98l164 -302zM199 812l-25 62q41 16 76 16q42 0 68 -20.5t26 -53.5q0 -26 -17 -52l-15 -24q-6 -10 -6 -22v-4h-77q1 30 15 50l9 13q13 19 13 26q0 18 -24 18q-14 0 -43 -9z" />
    <glyph glyph-name="uni1EF7" unicode="&#x1ef7;" horiz-adv-x="452" 
d="M156 -233h-89l111 253l-181 423h92l134 -319l139 319h92zM165 607l-24 62q41 16 77 16q41 0 67 -21t26 -53q0 -24 -17 -52l-15 -24q-6 -9 -7 -22v-1l1 -3h-77q1 29 15 50l9 13q13 19 13 26q0 18 -23 18q-15 0 -45 -9z" />
    <glyph glyph-name="uni1EF8" unicode="&#x1ef8;" horiz-adv-x="518" 
d="M423 667h98l-217 -389v-278h-89v278l-218 389h98l164 -302zM332 849l70 -17q-8 -96 -85 -96q-33 0 -71 19q-25 14 -40 14q-9 0 -13.5 -8t-8.5 -28l-68 16q5 46 27 71t59 25q30 0 72 -21q24 -12 39 -12q16 0 19 37z" />
    <glyph glyph-name="uni1EF9" unicode="&#x1ef9;" horiz-adv-x="452" 
d="M156 -233h-89l111 253l-181 423h92l134 -319l139 319h92zM299 649l70 -16q-8 -97 -85 -97q-34 0 -71 20q-26 14 -41 14q-14 0 -21 -37l-68 16q5 47 27 72t59 25q31 0 72 -22q22 -12 39 -12q15 0 19 37z" />
    <glyph glyph-name="uni2002" unicode="&#x2002;" horiz-adv-x="500" 
 />
    <glyph glyph-name="uni2003" unicode="&#x2003;" horiz-adv-x="1000" 
 />
    <glyph glyph-name="uni2004" unicode="&#x2004;" horiz-adv-x="333" 
 />
    <glyph glyph-name="uni2005" unicode="&#x2005;" horiz-adv-x="250" 
 />
    <glyph glyph-name="uni2006" unicode="&#x2006;" horiz-adv-x="67" 
 />
    <glyph glyph-name="uni2007" unicode="&#x2007;" horiz-adv-x="556" 
 />
    <glyph glyph-name="uni2009" unicode="&#x2009;" horiz-adv-x="125" 
 />
    <glyph glyph-name="uni200A" unicode="&#x200a;" horiz-adv-x="33" 
 />
    <glyph glyph-name="uni2011" unicode="&#x2011;" horiz-adv-x="263" 
d="M28 273v78h207v-78h-207z" />
    <glyph glyph-name="figuredash" unicode="&#x2012;" horiz-adv-x="403" 
d="M28 273v78h347v-78h-347z" />
    <glyph glyph-name="endash" unicode="&#x2013;" horiz-adv-x="403" 
d="M28 273v78h347v-78h-347z" />
    <glyph glyph-name="emdash" unicode="&#x2014;" horiz-adv-x="500" 
d="M-20 273v78h540v-78h-540z" />
    <glyph glyph-name="afii00208" unicode="&#x2015;" horiz-adv-x="500" 
d="M-20 273v78h540v-78h-540z" />
    <glyph glyph-name="underscoredbl" unicode="&#x2017;" horiz-adv-x="507" 
d="M-3 -126v65h513v-65h-513zM-3 -241v65h513v-65h-513z" />
    <glyph glyph-name="quoteleft" unicode="&#x2018;" horiz-adv-x="272" 
d="M219 684l-88 -242l-78 28l106 238z" />
    <glyph glyph-name="quoteright" unicode="&#x2019;" horiz-adv-x="239" 
d="M30 466l87 242l79 -28l-106 -238z" />
    <glyph glyph-name="quotesinglbase" unicode="&#x201a;" horiz-adv-x="239" 
d="M30 -136l87 242l79 -28l-106 -238z" />
    <glyph glyph-name="quotereversed" unicode="&#x201b;" horiz-adv-x="239" 
d="M43 680l78 28l88 -242l-60 -24z" />
    <glyph glyph-name="quotedblleft" unicode="&#x201c;" horiz-adv-x="419" 
d="M219 684l-88 -242l-78 28l106 238zM365 684l-87 -242l-79 28l106 238z" />
    <glyph glyph-name="quotedblright" unicode="&#x201d;" horiz-adv-x="419" 
d="M53 466l87 242l79 -28l-106 -238zM199 466l88 242l78 -28l-106 -238z" />
    <glyph glyph-name="quotedblbase" unicode="&#x201e;" horiz-adv-x="419" 
d="M53 -136l87 242l79 -28l-106 -238zM199 -136l88 242l78 -28l-106 -238z" />
    <glyph glyph-name="dagger" unicode="&#x2020;" horiz-adv-x="551" 
d="M85 361v82h147v222h86v-222h148v-82h-148v-545h-86v545h-147z" />
    <glyph glyph-name="daggerdbl" unicode="&#x2021;" horiz-adv-x="551" 
d="M466 119v-82h-148v-221h-86v221h-147v82h147v242h-147v82h147v222h86v-222h148v-82h-148v-242h148z" />
    <glyph glyph-name="bullet" unicode="&#x2022;" horiz-adv-x="488" 
d="M244 477q73 0 121.5 -47t48.5 -118t-48.5 -118.5t-121.5 -47.5t-121.5 47.5t-48.5 119.5q0 69 49 116.5t121 47.5z" />
    <glyph glyph-name="ellipsis" unicode="&#x2026;" horiz-adv-x="754" 
d="M129 102q23 0 39.5 -16.5t16.5 -39.5q0 -24 -16.5 -40.5t-40.5 -16.5q-23 0 -39.5 17t-16.5 41q0 22 17 38.5t40 16.5zM378 102q23 0 39.5 -16.5t16.5 -39.5q0 -24 -16.5 -40.5t-40.5 -16.5q-23 0 -39.5 17t-16.5 41q0 22 17 38.5t40 16.5zM626 102q23 0 39.5 -16.5
t16.5 -39.5q0 -24 -16.5 -40.5t-39.5 -16.5q-24 0 -40.5 16.5t-16.5 40.5q0 23 17 39.5t40 16.5z" />
    <glyph glyph-name="perthousand" unicode="&#x2030;" horiz-adv-x="1265" 
d="M233 15l385 665l49 -29l-385 -664zM695 402q158 0 158 -205t-156 -205t-156 208q0 99 39 150.5t115 51.5zM697 343q-44 0 -67 -36t-23 -103q0 -153 90 -153t90 146t-90 146zM1061 402q158 0 158 -205t-156 -205q-157 0 -157 208q0 99 39.5 150.5t115.5 51.5zM1063 343
q-44 0 -67.5 -35.5t-23.5 -103.5q0 -153 90 -153q91 0 91 146t-90 146zM201 675q158 0 158 -205t-156 -205t-156 208q0 99 39 150.5t115 51.5zM203 616q-90 0 -90 -143q0 -149 90 -149t90 146t-90 146z" />
    <glyph glyph-name="minute" unicode="&#x2032;" horiz-adv-x="182" 
d="M-37 466l87 242l78 -28l-106 -238z" />
    <glyph glyph-name="second" unicode="&#x2033;" horiz-adv-x="328" 
d="M-37 466l87 242l78 -28l-106 -238zM109 466l88 242l77 -28l-105 -238z" />
    <glyph glyph-name="guilsinglleft" unicode="&#x2039;" horiz-adv-x="294" 
d="M127 222l119 -148l-56 -45l-157 193l157 196l56 -44z" />
    <glyph glyph-name="guilsinglright" unicode="&#x203a;" horiz-adv-x="294" 
d="M104 29l-57 45l120 148l-120 152l57 44l156 -196z" />
    <glyph glyph-name="uni203E" unicode="&#x203e;" horiz-adv-x="507" 
d="M-3 760v78h513v-78h-513z" />
    <glyph glyph-name="fraction" unicode="&#x2044;" horiz-adv-x="180" 
d="M-127 15l384 665l49 -29l-384 -664z" />
    <glyph glyph-name="zerosuperior" unicode="&#x2070;" horiz-adv-x="387" 
d="M191 808q158 0 158 -205t-157 -205q-155 0 -155 208q0 99 39 150.5t115 51.5zM193 749q-90 0 -90 -143q0 -149 90 -149t90 146t-90 146z" />
    <glyph glyph-name="foursuperior" unicode="&#x2074;" horiz-adv-x="387" 
d="M46 489v56l174 266l53 -32l-151 -231h99v96h65v-96h48v-59h-48v-83h-65v83h-175z" />
    <glyph glyph-name="fivesuperior" unicode="&#x2075;" horiz-adv-x="387" 
d="M307 742h-139l-15 -72q19 4 32 4q59 0 100.5 -39.5t41.5 -96.5q0 -59 -43 -99.5t-105 -40.5q-81 0 -134 80l53 36q27 -57 81 -57q35 0 59 22.5t24 56.5t-23 57t-58 23q-32 0 -59 -26l-50 11l42 200h193v-59z" />
    <glyph glyph-name="sixsuperior" unicode="&#x2076;" horiz-adv-x="387" 
d="M80 628l137 184l51 -36l-80 -108h14q54 0 94 -39t40 -92q0 -58 -42 -98.5t-101 -40.5q-61 0 -103 40.5t-42 98.5q0 48 32 91zM193 610q-35 0 -57.5 -21.5t-22.5 -54.5t22.5 -55t56.5 -22q33 0 56 22.5t23 54.5q0 33 -22 54.5t-56 21.5z" />
    <glyph glyph-name="sevensuperior" unicode="&#x2077;" horiz-adv-x="387" 
d="M83 424l178 318h-193v59h271v-47l-199 -359z" />
    <glyph glyph-name="eightsuperior" unicode="&#x2078;" horiz-adv-x="387" 
d="M107 616q-38 35 -38 80q0 47 36 79.5t88 32.5t88 -32.5t36 -79.5q0 -45 -38 -80q51 -40 51 -95q0 -53 -39 -88t-98 -35t-98 35t-39 88q0 55 51 95zM195 584q-34 0 -54 -17.5t-20 -46.5q0 -28 20 -45.5t52 -17.5t52 18t20 46t-19.5 45.5t-50.5 17.5zM193 751
q-27 0 -45 -15.5t-18 -39.5q0 -25 17.5 -40.5t45.5 -15.5t45.5 15.5t17.5 39.5q0 25 -17.5 40.5t-45.5 15.5z" />
    <glyph glyph-name="ninesuperior" unicode="&#x2079;" horiz-adv-x="387" 
d="M306 579l-136 -184l-51 36l81 110q-7 -1 -15 -1q-55 0 -94.5 38.5t-39.5 91.5q0 57 42 97.5t101 40.5q61 0 103 -40t42 -98q0 -48 -33 -91zM195 749q-33 0 -56 -22t-23 -54q0 -33 22 -54t56 -21t57 21.5t23 53.5t-22.5 54t-56.5 22z" />
    <glyph glyph-name="zeroinferior" unicode="&#x2080;" horiz-adv-x="387" 
d="M191 273q158 0 158 -205t-156 -205t-156 208q0 99 39 150.5t115 51.5zM193 214q-44 0 -67 -36t-23 -103q0 -153 90 -153t90 146t-90 146z" />
    <glyph glyph-name="oneinferior" unicode="&#x2081;" horiz-adv-x="387" 
d="M241 265v-395h-65v320l-55 -31l-31 52l98 54h53z" />
    <glyph glyph-name="twoinferior" unicode="&#x2082;" horiz-adv-x="387" 
d="M326 -130h-262v51l147 158q42 45 42 82q0 23 -16.5 37t-44.5 14q-30 0 -45 -13.5t-26 -48.5l-60 16q11 50 45 78t86 28q56 0 90.5 -31t34.5 -81q0 -57 -43 -102l-119 -129h171v-59z" />
    <glyph glyph-name="threeinferior" unicode="&#x2083;" horiz-adv-x="387" 
d="M186 47h-28v59h28q65 0 65 54q0 24 -16.5 38.5t-43.5 14.5q-22 0 -37 -9t-32 -34l-54 29q46 74 123 74q54 0 89 -31.5t35 -80.5t-37 -80q46 -37 46 -93q0 -55 -38.5 -90t-97.5 -35q-50 0 -84 26t-48 74l-2 10l64 16q9 -36 24.5 -51t44.5 -15q32 0 52 17.5t20 46.5
q0 60 -73 60z" />
    <glyph glyph-name="fourinferior" unicode="&#x2084;" horiz-adv-x="387" 
d="M46 -46v56l174 266l53 -32l-151 -231h99v96h65v-96h48v-59h-48v-84h-65v84h-175z" />
    <glyph glyph-name="fiveinferior" unicode="&#x2085;" horiz-adv-x="387" 
d="M307 206h-139l-15 -72q19 4 32 4q59 0 100.5 -39.5t41.5 -95.5q0 -59 -43 -99.5t-105 -40.5q-80 0 -134 80l53 35q29 -56 81 -56q35 0 59 22.5t24 56.5t-23 56.5t-58 22.5q-20 0 -31.5 -5t-27.5 -21l-50 11l42 200h193v-59z" />
    <glyph glyph-name="sixinferior" unicode="&#x2086;" horiz-adv-x="387" 
d="M80 92l137 184l51 -36l-80 -108q6 1 14 1q54 0 94 -39t40 -92q0 -58 -42 -98.5t-101 -40.5q-61 0 -103 40t-42 98q0 48 32 91zM192 75q-34 0 -56.5 -22t-22.5 -54q0 -33 22.5 -55t56.5 -22q33 0 56 22.5t23 54.5q0 33 -22.5 54.5t-56.5 21.5z" />
    <glyph glyph-name="seveninferior" unicode="&#x2087;" horiz-adv-x="387" 
d="M83 -112l178 318h-193v59h271v-47l-199 -359z" />
    <glyph glyph-name="eightinferior" unicode="&#x2088;" horiz-adv-x="387" 
d="M107 81q-38 35 -38 79q0 48 35.5 80.5t88.5 32.5q52 0 88 -32.5t36 -79.5q0 -45 -38 -80q51 -40 51 -95q0 -53 -39 -88t-98 -35t-98 35t-39 88q0 55 51 95zM194 49q-33 0 -53 -17.5t-20 -45.5t20 -46t52 -18t52 18t20 46t-20 45.5t-51 17.5zM193 216q-27 0 -45 -15.5
t-18 -39.5q0 -25 17.5 -40.5t45.5 -15.5t45.5 15.5t17.5 39.5q0 25 -17.5 40.5t-45.5 15.5z" />
    <glyph glyph-name="nineinferior" unicode="&#x2089;" horiz-adv-x="387" 
d="M306 43l-136 -184l-51 37l81 109q-6 -1 -14 -1q-56 0 -95.5 38t-39.5 92q0 58 42 98.5t101 40.5q61 0 103 -40.5t42 -98.5q0 -48 -33 -91zM195 214q-33 0 -56 -22.5t-23 -54.5q0 -33 22 -54t57 -21q34 0 56.5 21.5t22.5 53.5q0 33 -22.5 55t-56.5 22z" />
    <glyph glyph-name="franc" unicode="&#x20a3;" horiz-adv-x="708" 
d="M447 667v-82h-241v-206h178v-83h-178v-296h-89v667h330zM417 0v379h86v-43q41 44 107 44q16 0 28 -1v-77q-13 1 -27 1q-35 0 -58 -12t-33 -35.5t-13.5 -47t-3.5 -58.5v-150h-86z" />
    <glyph glyph-name="lira" unicode="&#x20a4;" horiz-adv-x="561" 
d="M420 362h-201v-1l12 -56v-1h189v-74h-177q3 -22 3 -32q0 -58 -48 -116h317v-82h-443v79q50 39 67 64.5t17 60.5q0 4 -2 26h-82v74h69l-7 34q-2 7 -3 11.5t-2 8t-1 4.5h-56v74h45q-1 11 -1 29q0 109 63 165q59 50 139 50q116 0 180 -113l-71 -46q-23 40 -49.5 58t-62.5 18
q-53 0 -82 -35t-29 -99q0 -7 2 -27h214v-74z" />
    <glyph glyph-name="peseta" unicode="&#x20a7;" horiz-adv-x="603" 
d="M566 502v-73h-58q-19 -91 -76.5 -128t-154.5 -37h-53v-264h-89v429h-55v73h55v165h142q98 0 155.5 -37t75.5 -128h58zM418 429h-194v-84h62q59 1 89 20t43 64zM224 585v-83h194q-13 45 -43 63.5t-89 19.5h-62z" />
    <glyph glyph-name="uni20AB" unicode="&#x20ab;" horiz-adv-x="560" 
d="M283 591h118v76h86v-76h59v-77h-59v-514h-86v48q-43 -34 -74.5 -47.5t-69.5 -13.5q-94 0 -160 69t-66 166t66 165.5t160 68.5q38 0 69.5 -13.5t74.5 -47.5v119h-118v77zM263 379q-65 0 -105.5 -43.5t-40.5 -114.5q0 -69 40.5 -113t103.5 -44q62 0 101 44t39 114
q0 69 -39 113t-99 44zM37 -137v78h504v-78h-504z" />
    <glyph glyph-name="Euro" unicode="&#x20ac;" horiz-adv-x="800" 
d="M166 228h-103l31 77h56v36q-1 1 1 19h-88l31 77h71q38 112 126.5 177.5t203.5 65.5q133 0 238 -104l-33 -81q-54 54 -103 77.5t-108 23.5q-76 0 -135.5 -43.5t-93.5 -115.5h416l-31 -77h-404q-1 -11 -1 -30q0 -16 1 -25h382l-32 -77h-330q16 -37 49 -73q72 -84 182 -84
q60 0 108 24t105 82v-115q-93 -75 -209 -75q-115 0 -205 65.5t-125 175.5z" />
    <glyph glyph-name="uni20B4" unicode="&#x20b4;" horiz-adv-x="614" 
d="M80 231v73h68q36 36 92 58h-160v73h311q28 27 28 59q0 44 -32 73.5t-79 29.5q-37 0 -63.5 -17t-54.5 -59l-72 46q71 113 187 113q86 0 144 -52.5t58 -130.5q0 -32 -12 -62h37v-73h-95q-28 -20 -66 -35l-42 -17l-14 -6h217v-73h-329q-8 -22 -8 -41q0 -49 36.5 -84
t88.5 -35q78 0 111 71q6 13 16 50l87 -23q-21 -88 -75.5 -135t-137.5 -47q-91 0 -153.5 59.5t-62.5 145.5q0 22 4 39h-29z" />
    <glyph glyph-name="uni2101" unicode="&#x2101;" horiz-adv-x="944" 
d="M301 15l384 665l49 -29l-384 -664zM862 335l4 -5l-54 -33q-17 25 -32 35.5t-37 10.5q-25 0 -42.5 -15t-17.5 -38q0 -30 50 -50l39 -14q99 -36 99 -110q0 -52 -39.5 -88t-96.5 -36q-108 0 -135 115l64 16q10 -38 26.5 -54.5t45.5 -16.5t49 18.5t20 45.5q0 19 -14 31.5
t-48 25.5l-37 14q-88 33 -88 103q0 49 36 81t91 32q74 0 117 -68zM346 375h-170l-40 -104h-69l157 396h75l129 -325l-41 -71zM261 593l-61 -158h122z" />
    <glyph glyph-name="afii61248" unicode="&#x2105;" horiz-adv-x="1053" 
d="M307 15l384 665l49 -29l-384 -664zM774 403q87 0 149.5 -60.5t62.5 -145.5q0 -84 -62.5 -144.5t-148.5 -60.5q-89 0 -151 60.5t-62 147.5q0 83 63 143t149 60zM774 343q-60 0 -103 -42t-43 -101q0 -61 42.5 -104.5t102.5 -43.5q61 0 104 42.5t43 102.5q0 61 -42.5 103.5
t-103.5 42.5zM439 604l-46 -43q-30 30 -55 42t-57 12q-63 0 -105.5 -42t-42.5 -104q0 -61 43 -103t105 -42q33 0 55.5 11t58.5 44l46 -43q-75 -72 -159 -72q-90 0 -152.5 59.5t-62.5 145.5t62.5 146t151.5 60q84 0 158 -71z" />
    <glyph glyph-name="afii61352" unicode="&#x2116;" horiz-adv-x="1060" 
d="M166 0h-89v667h80l387 -518v518h89v-667h-80l-387 518v-518zM985 279h-253v62h253v-62zM861 680q59 0 100 -41t41 -100t-41.5 -100t-101.5 -41q-61 0 -102.5 41t-41.5 101q0 59 42 99.5t104 40.5zM857 621q-34 0 -56 -23t-22 -59t22.5 -59t57.5 -23t57 23t22 60
q0 36 -22.5 58.5t-58.5 22.5z" />
    <glyph glyph-name="uni2117" unicode="&#x2117;" horiz-adv-x="850" 
d="M432 712q152 0 262 -112t110 -266q0 -157 -110.5 -268t-267.5 -111q-158 0 -268.5 111t-110.5 270q0 157 112 266.5t273 109.5zM431 649q-145 0 -240 -105q-81 -89 -81 -208q0 -133 92 -225.5t224 -92.5q131 0 223 92.5t92 223.5q0 127 -91.5 221t-218.5 94zM427 282h-44
v-174h-74v450h118q63 0 95 -19q31 -17 48.5 -49.5t17.5 -70.5q0 -37 -17.5 -69t-47.5 -49q-34 -19 -96 -19zM383 489v-139h50q82 0 82 70q0 69 -82 69h-50z" />
    <glyph glyph-name="trademark" unicode="&#x2122;" horiz-adv-x="685" 
d="M270 673v-42h-80v-270h-46v270h-81v42h207zM352 361h-46v312h46l112 -194l111 194h46v-312h-46v228l-93 -161h-37l-93 161v-228z" />
    <glyph glyph-name="uni2126" unicode="&#x2126;" horiz-adv-x="798" 
d="M725 83v-83h-262v132q88 26 138 86.5t50 140.5q0 99 -73.5 168t-178.5 69t-178.5 -69t-73.5 -168q0 -80 50.5 -141t137.5 -86v-132h-262v83h155v2q-79 42 -125 116t-46 158q0 132 101 226.5t241 94.5t241 -94.5t101 -226.5q0 -84 -46 -158t-125 -116v-2h155z" />
    </font>
</defs>
</svg>
