<svg width="24" height="24" viewBox="0 0 24 24" fill="none" xmlns="http://www.w3.org/2000/svg">
<path d="M15.1665 6.7876H8.83545V17.2106H15.1665V6.7876Z" fill="#FF5F00"/>
<path d="M9.48737 12C9.48658 10.9963 9.7123 10.0056 10.1474 9.1029C10.5826 8.20017 11.2157 7.40903 11.999 6.78936C11.0289 6.02089 9.86386 5.54302 8.63707 5.41037C7.41028 5.27772 6.17121 5.49565 5.06148 6.03925C3.95176 6.58284 3.01614 7.43017 2.36156 8.48439C1.70699 9.53861 1.35986 10.7572 1.35986 12.0009C1.35986 13.2445 1.70699 14.4631 2.36156 15.5174C3.01614 16.5716 3.95176 17.4189 5.06148 17.9625C6.17121 18.5061 7.41028 18.724 8.63707 18.5914C9.86386 18.4587 11.0289 17.9809 11.999 17.2124C11.2155 16.5925 10.5822 15.8011 10.147 14.898C9.71189 13.9949 9.4863 13.0039 9.48737 12Z" fill="#EB001B"/>
<path d="M22.0108 16.1079V15.8943H22.1021V15.8501H21.8848V15.8943H21.9706V16.1079H22.0108ZM22.4328 16.1079V15.8501H22.367L22.2903 16.0342L22.2136 15.8501H22.1478V16.1079H22.1953V15.9127L22.2665 16.0802H22.3158L22.3871 15.9127V16.1079H22.4328Z" fill="#F79E1B"/>
<path d="M22.6391 12.0001C22.6391 13.2439 22.2919 14.4625 21.6372 15.5168C20.9825 16.5711 20.0467 17.4184 18.9369 17.9619C17.827 18.5054 16.5878 18.7232 15.3609 18.5904C14.1341 18.4575 12.9691 17.9794 11.999 17.2107C12.782 16.5905 13.4149 15.7991 13.8502 14.8963C14.2854 13.9936 14.5116 13.0029 14.5116 11.9992C14.5116 10.9955 14.2854 10.0048 13.8502 9.10204C13.4149 8.19926 12.782 7.40791 11.999 6.78769C12.9691 6.01897 14.1341 5.54087 15.3609 5.40803C16.5878 5.2752 17.827 5.49298 18.9369 6.0365C20.0467 6.58002 20.9825 7.42733 21.6372 8.48159C22.2919 9.53585 22.6391 10.7545 22.6391 11.9983V12.0001Z" fill="#F79E1B"/>
</svg>
