<svg width="24" height="24" viewBox="0 0 24 24" fill="none" xmlns="http://www.w3.org/2000/svg">
<path d="M12.9786 17.9265C13.8644 17.9048 14.5953 17.514 15.0619 16.6982C15.5403 15.8548 15.5194 14.9915 15.0094 14.169C14.1835 12.8374 13.3502 11.5108 12.5169 10.1842C12.1253 9.56073 11.7336 8.93711 11.3428 8.31317C11.2757 8.20616 11.2091 8.09873 11.1425 7.99125C10.9606 7.69791 10.7784 7.4039 10.5869 7.11733C9.86459 6.00338 8.38641 5.66746 7.25359 6.35983C6.10276 7.069 5.71776 8.544 6.43443 9.7065C7.89943 12.0926 9.38526 14.4671 10.8919 16.8298C11.3561 17.5607 12.0603 17.9132 12.9786 17.9265Z" fill="#1F2B37"/>
<path d="M20.5869 17.9265C21.4811 17.9048 22.2078 17.4965 22.6653 16.684C23.1369 15.8407 23.1069 14.9757 22.5953 14.1532C21.2891 12.0576 19.9772 9.96511 18.6594 7.87567L18.5774 7.74236C18.4378 7.51531 18.2968 7.28608 18.1478 7.06733C17.396 5.97783 15.9149 5.68216 14.8024 6.3995C13.6899 7.11684 13.3481 8.58795 14.0303 9.72233C15.4903 12.0798 16.9703 14.429 18.4511 16.7757C18.9319 17.5365 19.6394 17.9132 20.5869 17.9265Z" fill="#1F2B37"/>
<path d="M2.88526 15.539C2.88276 14.2257 3.97359 13.1548 5.32109 13.1482C6.69859 13.1398 7.79359 14.1973 7.79526 15.5357C7.79693 16.8548 6.72526 17.914 5.36526 17.9307C4.00526 17.9473 2.88526 16.8723 2.88526 15.539Z" fill="#1F2B37"/>
</svg>
