<svg width="24" height="24" viewBox="0 0 24 24" fill="none" xmlns="http://www.w3.org/2000/svg">
<path d="M3.40174 8.9856H1.64182C1.52137 8.9856 1.41896 9.07311 1.40016 9.19204L0.688372 13.7049C0.674215 13.7939 0.743196 13.8743 0.833507 13.8743H1.67372C1.79415 13.8743 1.89656 13.7868 1.91535 13.6676L2.10732 12.4504C2.12586 12.3313 2.22853 12.2438 2.34871 12.2438H2.90584C4.06515 12.2438 4.73422 11.6828 4.90897 10.5711C4.9877 10.0847 4.9123 9.70257 4.68455 9.43494C4.43442 9.14103 3.99077 8.9856 3.40174 8.9856ZM3.60478 10.6339C3.50853 11.2654 3.02602 11.2654 2.55947 11.2654H2.2939L2.48021 10.086C2.49128 10.0147 2.55303 9.96222 2.62509 9.96222H2.7468C3.06461 9.96222 3.36443 9.96222 3.51933 10.1434C3.61172 10.2515 3.64004 10.412 3.60478 10.6339Z" fill="#283B82"/>
<path d="M8.66244 10.6135H7.8197C7.74791 10.6135 7.6859 10.666 7.67478 10.7373L7.63752 10.9731L7.57857 10.8876C7.39612 10.6228 6.98924 10.5343 6.58317 10.5343C5.65188 10.5343 4.85645 11.2396 4.70154 12.2291C4.621 12.7227 4.73552 13.1946 5.01549 13.5237C5.27231 13.8264 5.63978 13.9525 6.07702 13.9525C6.82742 13.9525 7.24353 13.47 7.24353 13.47L7.20594 13.7042C7.19177 13.7937 7.26076 13.874 7.35059 13.874H8.10968C8.23038 13.874 8.33229 13.7865 8.35135 13.6674L8.80682 10.7829C8.82126 10.6941 8.75254 10.6135 8.66244 10.6135ZM7.48772 12.2538C7.40643 12.7353 7.02425 13.0585 6.53689 13.0585C6.29216 13.0585 6.09656 12.98 5.97097 12.8313C5.84643 12.6836 5.79907 12.4733 5.83871 12.2391C5.91462 11.7618 6.30322 11.428 6.78312 11.428C7.02248 11.428 7.217 11.5075 7.34517 11.6575C7.4736 11.8091 7.5245 12.0207 7.48772 12.2538Z" fill="#283B82"/>
<path d="M13.1509 10.6135H12.304C12.2232 10.6135 12.1473 10.6537 12.1015 10.7209L10.9334 12.4414L10.4384 10.788C10.4072 10.6846 10.3117 10.6135 10.2037 10.6135H9.37144C9.27029 10.6135 9.20006 10.7124 9.23222 10.8076L10.1651 13.5451L9.28806 14.7832C9.21906 14.8807 9.28854 15.0148 9.40774 15.0148H10.2536C10.3339 15.0148 10.409 14.9757 10.4546 14.9098L13.2713 10.8439C13.3388 10.7466 13.2696 10.6135 13.1509 10.6135Z" fill="#283B82"/>
<path d="M15.955 8.98532H14.1948C14.0746 8.98532 13.9722 9.07284 13.9534 9.19177L13.2416 13.7047C13.2275 13.7937 13.2964 13.874 13.3862 13.874H14.2895C14.3734 13.874 14.4452 13.8128 14.4583 13.7294L14.6603 12.4502C14.6788 12.331 14.7815 12.2435 14.9017 12.2435H15.4586C16.6181 12.2435 17.2869 11.6825 17.4619 10.5708C17.541 10.0844 17.465 9.7023 17.2373 9.43467C16.9874 9.14076 16.544 8.98532 15.955 8.98532ZM16.158 10.6336C16.062 11.2651 15.5795 11.2651 15.1127 11.2651H14.8474L15.034 10.0857C15.045 10.0144 15.1062 9.96195 15.1786 9.96195H15.3003C15.6179 9.96195 15.9179 9.96195 16.0728 10.1431C16.1652 10.2512 16.1932 10.4118 16.158 10.6336Z" fill="#469BDB"/>
<path d="M21.2155 10.6133H20.3732C20.3009 10.6133 20.2393 10.6658 20.2286 10.7371L20.1912 10.9728L20.1321 10.8873C19.9496 10.6225 19.543 10.534 19.1369 10.534C18.2056 10.534 17.4105 11.2394 17.2555 12.2288C17.1753 12.7224 17.2892 13.1944 17.5693 13.5235C17.8266 13.8261 18.1935 13.9522 18.6307 13.9522C19.3811 13.9522 19.7972 13.4697 19.7972 13.4697L19.7597 13.7039C19.7455 13.7934 19.8145 13.8737 19.9048 13.8737H20.6637C20.7839 13.8737 20.8863 13.7862 20.9051 13.6671L21.3609 10.7826C21.3747 10.6938 21.3058 10.6133 21.2155 10.6133ZM20.0407 12.2535C19.9599 12.735 19.5772 13.0582 19.0899 13.0582C18.8456 13.0582 18.6495 12.9797 18.5239 12.831C18.3994 12.6833 18.3526 12.473 18.3917 12.2389C18.4681 11.7615 18.8562 11.4278 19.3361 11.4278C19.5754 11.4278 19.77 11.5073 19.8981 11.6573C20.027 11.8088 20.078 12.0204 20.0407 12.2535Z" fill="#469BDB"/>
<path d="M22.209 9.10914L21.4867 13.7047C21.4725 13.7937 21.5415 13.874 21.6313 13.874H22.3575C22.4782 13.874 22.5806 13.7865 22.5992 13.6674L23.3114 9.15472C23.3256 9.06564 23.2567 8.98511 23.1668 8.98511H22.3536C22.2818 8.98532 22.2201 9.03789 22.209 9.10914Z" fill="#469BDB"/>
</svg>
