<svg width="24" height="24" viewBox="0 0 24 24" fill="none" xmlns="http://www.w3.org/2000/svg">
<path d="M10.4666 15.399H8.60347L9.76882 8.62282H11.6319L10.4666 15.399Z" fill="#00579F"/>
<path d="M17.2209 8.78849C16.8534 8.65138 16.2706 8.5 15.5498 8.5C13.7099 8.5 12.4142 9.42267 12.4063 10.7418C12.391 11.7151 13.3339 12.2556 14.0392 12.5801C14.76 12.9117 15.0051 13.1282 15.0051 13.4238C14.9977 13.8777 14.4226 14.087 13.8862 14.087C13.1423 14.087 12.7437 13.9791 12.138 13.7265L11.8927 13.6183L11.632 15.1394C12.0689 15.3266 12.874 15.4927 13.7099 15.5C15.6649 15.5 16.9376 14.5916 16.9527 13.1859C16.9601 12.4145 16.4622 11.8234 15.3887 11.3404C14.7371 11.0304 14.338 10.8213 14.338 10.5041C14.3457 10.2157 14.6756 9.92031 15.4112 9.92031C16.0169 9.90584 16.4619 10.0428 16.799 10.1798L16.9676 10.2517L17.2209 8.78849Z" fill="#00579F"/>
<path d="M19.6972 12.9984C19.8506 12.6092 20.441 11.1025 20.441 11.1025C20.4333 11.117 20.5942 10.7061 20.6862 10.4538L20.8164 11.0377C20.8164 11.0377 21.1692 12.6597 21.2458 12.9984C20.9546 12.9984 20.0652 12.9984 19.6972 12.9984ZM21.997 8.62282H20.5559C20.1114 8.62282 19.7738 8.74527 19.582 9.18505L16.8146 15.3989H18.7695C18.7695 15.3989 19.0914 14.5626 19.1605 14.3824C19.375 14.3824 21.2768 14.3824 21.5527 14.3824C21.6062 14.6203 21.775 15.3989 21.775 15.3989H23.5001L21.997 8.62282Z" fill="#00579F"/>
<path d="M7.04749 8.62282L5.22284 13.2435L5.02345 12.3064C4.68612 11.2251 3.62815 10.0502 2.44751 9.46606L4.11882 15.3918H6.08906L9.01763 8.62282H7.04749Z" fill="#00579F"/>
<path d="M3.52831 8.6228H0.530667L0.5 8.75972C2.83835 9.32204 4.38699 10.6775 5.02326 12.3067L4.37161 9.1924C4.26433 8.75962 3.93463 8.63708 3.52831 8.6228Z" fill="#FAA61A"/>
</svg>
