<svg width="24px" height="24px" viewBox="0 0 96 96" fill="none" xmlns="http://www.w3.org/2000/svg">
<rect width="96" height="96" fill="#139BD7"/>
<path fill-rule="evenodd" clip-rule="evenodd" d="M40.9822 42.1158C40.8278 42.1158 40.7043 42.085 40.5499 42.0232L26.9646 35.354L13.3792 42.0232C13.2557 42.085 13.1013 42.1158 12.9469 42.1158C12.6381 42.1158 12.3603 41.9614 12.175 41.7144C11.8971 41.3131 11.9589 40.7882 12.2985 40.4794L26.2853 26.6779C26.4705 26.4926 26.7175 26.4 26.9646 26.4C27.2116 26.4 27.4586 26.4926 27.6438 26.6779L41.6615 40.4485C42.0011 40.7882 42.032 41.3131 41.785 41.6836C41.5688 41.9614 41.2601 42.1158 40.9822 42.1158ZM48.2071 69.5954C43.6993 69.5954 39.2223 68.2986 35.6407 65.9829C31.6577 63.4202 28.848 59.6842 27.4277 55.2072C27.2733 54.7441 27.4894 54.2809 27.9217 54.0648C28.0452 54.003 28.1996 53.9722 28.3539 53.9722C28.6627 53.9722 28.9406 54.1266 29.1258 54.3736C33.6337 60.6722 40.4882 64.3156 47.991 64.3156C55.4939 64.3156 62.3483 60.7031 66.8253 54.3736C67.0106 54.0957 67.3193 53.9722 67.6281 53.9722C67.7825 53.9722 67.906 54.003 68.0603 54.0648C68.4926 54.2809 68.7087 54.7441 68.5544 55.2072C67.1958 59.746 64.417 63.5128 60.5575 66.0446C56.9759 68.3603 52.7459 69.5954 48.2071 69.5954ZM54.2277 41.7144C54.413 41.9614 54.6909 42.1158 54.9996 42.1158C55.1231 42.1158 55.2775 42.085 55.4628 41.9923L69.0482 35.3231L82.6336 41.9923C82.7879 42.0541 82.9114 42.085 83.0658 42.085C83.3437 42.085 83.6525 41.9306 83.8377 41.6836C84.0847 41.3131 84.0538 40.7882 83.7142 40.4485L69.6966 26.6779C69.5113 26.4926 69.2643 26.4 69.0173 26.4C68.7703 26.4 68.5233 26.4926 68.338 26.6779L54.3512 40.4794C54.0116 40.7882 53.9499 41.3131 54.2277 41.7144Z" fill="white"/>
</svg>
