<svg width="24px" height="24px" viewBox="0 0 96 96" fill="none" xmlns="http://www.w3.org/2000/svg">
<rect width="96" height="96" fill="#7BDA85"/>
<path d="M48 22C33.6185 22 22 33.6894 22 48C22 62.3106 33.6185 74 48 74C62.3815 74 74 62.3815 74 48C74 33.6185 62.3815 22 48 22ZM48 69.7493C36.0273 69.7493 26.2507 59.9728 26.2507 48C26.2507 36.0273 36.0273 26.2507 48 26.2507C59.9728 26.2507 69.7493 36.0273 69.7493 48C69.7493 59.9728 59.9728 69.7493 48 69.7493Z" fill="white"/>
<path d="M50.267 56.8556C48.1417 56.7847 46.0164 55.7929 44.7412 53.3842H51.2589V49.2752H43.6076C43.5368 48.8501 43.5368 48.4251 43.5368 48C43.5368 47.5041 43.6076 47.079 43.6076 46.5831H51.188V42.4741H44.7412C46.0164 40.1362 48.1417 39.1444 50.1962 39.0736C51.7548 39.1444 53.2425 39.6403 54.4469 40.4196L56.3597 36.594C54.5177 35.5313 52.5341 34.9646 50.3379 34.8937H49.9128C48.2834 34.9646 46.7956 35.3188 45.5204 35.9564C44.1035 36.6649 42.8992 37.6567 41.9074 38.9319C41.1281 39.9946 40.4905 41.1281 40.0654 42.4741H36.6649V46.5831H39.2861C39.2153 47.079 39.2153 47.5041 39.2153 48C39.2153 48.4251 39.2861 48.8501 39.2861 49.2752H36.7357V53.3842H40.1362C40.5613 54.7303 41.1989 55.9346 42.0491 56.9973C43.0409 58.2725 44.2452 59.2643 45.6621 59.9728C46.9373 60.6104 48.4251 60.9646 50.0545 61.0354C50.1253 61.0354 50.1962 61.0354 50.267 61.0354H50.4796C52.6049 60.9646 54.6594 60.327 56.5014 59.2643L54.5886 55.5095C53.2425 56.3597 51.8256 56.7847 50.267 56.8556Z" fill="white"/>
</svg>
