<svg width="24px" height="24px" viewBox="0 0 96 96" fill="none" xmlns="http://www.w3.org/2000/svg">
<rect width="96" height="96" fill="#867DFF"/>
<path d="M12 27V68.4971H84V27H12ZM81.8507 66.4305H14.0666V29.0666H81.8507V66.4305Z" fill="white"/>
<path d="M23.8208 54.8576C24.5648 55.8496 25.5568 56.6762 26.6314 57.1722C27.6234 57.6682 28.8633 57.9989 30.1033 57.9989C30.1033 57.9989 30.1859 57.9989 30.2686 57.9989H30.4339C32.0872 57.9162 33.7405 57.4202 35.1458 56.5936L33.6578 53.6177C32.6659 54.279 31.5086 54.6096 30.2686 54.6096C28.6153 54.527 26.8794 53.783 25.8874 51.8817H31.0126V48.6579H25.0608C25.0608 48.3272 24.9781 47.9966 24.9781 47.6659C24.9781 47.2526 24.9781 46.9219 25.0608 46.5913H31.0126V43.3674H25.9701C26.9621 41.5488 28.6153 40.8048 30.2686 40.7222C31.5086 40.8048 32.6659 41.1355 33.5752 41.7968L35.0631 38.7382C33.6578 37.9116 32.0045 37.4156 30.3513 37.4156H30.0206C28.698 37.4156 27.5407 37.7463 26.5487 38.2423C25.4741 38.8209 24.4822 39.5649 23.7382 40.5568C23.1595 41.3835 22.6636 42.2928 22.2502 43.3674H19.605V46.5913H21.6716C21.6716 46.9219 21.5889 47.3353 21.5889 47.6659C21.5889 47.9966 21.5889 48.3272 21.5889 48.6579H19.5223V51.8817H22.3329C22.7462 53.039 23.2422 54.031 23.8208 54.8576Z" fill="white"/>
<path d="M67.7153 36.7543H48.0413V39.0689H67.7153V36.7543Z" fill="white"/>
<path d="M75.2376 43.2847H40.5189V45.5993H75.2376V43.2847Z" fill="white"/>
<path d="M75.2376 49.8978H40.5189V52.2124H75.2376V49.8978Z" fill="white"/>
<path d="M67.7153 56.5109H48.0413V58.8255H67.7153V56.5109Z" fill="white"/>
</svg>
