<svg width="24px" height="24px" viewBox="0 0 96 96" fill="none" xmlns="http://www.w3.org/2000/svg">
<rect width="96" height="96" fill="url(#paint0_linear)"/>
<path d="M41.9967 35.5669C42.1469 34.6216 42.9616 33.9254 43.9187 33.9243L56.1071 33.9243C57.5504 33.9243 58.8968 34.0184 60.127 34.2149C60.7996 34.3231 61.465 34.4719 62.1196 34.6605C62.8631 34.8695 63.5824 35.1561 64.2659 35.5157C64.8775 31.6231 64.2631 28.9759 62.1584 26.5764C59.8406 23.9375 55.6546 22.8056 50.298 22.8056H34.7498C33.6553 22.8064 32.7237 23.6025 32.5523 24.6834L26.079 65.7375C26.0179 66.123 26.1286 66.5158 26.382 66.8126C26.6354 67.1094 27.0061 67.2804 27.3964 67.2804H36.9957L39.4062 51.9896L41.9967 35.5669Z" fill="white"/>
<path d="M64.2676 35.5141C64.2201 35.8185 64.167 36.1221 64.1084 36.4246C62.0591 46.951 55.0433 50.5918 46.0833 50.5918H41.5209C40.4281 50.5926 39.4989 51.3896 39.3318 52.4696L36.996 67.2788L36.3317 71.48C36.2783 71.8175 36.3754 72.1616 36.5974 72.4214C36.8194 72.6812 37.1441 72.8306 37.4858 72.8306H45.5768C46.5344 72.8306 47.348 72.1331 47.4989 71.188L47.5778 70.7756L49.1027 61.1113L49.1996 60.5772C49.3493 59.631 50.1651 58.9344 51.123 58.9346H52.3338C60.1716 58.9346 66.3087 55.7519 68.102 46.5414C68.8493 42.6945 68.4618 39.48 66.483 37.223C65.8547 36.5233 65.1039 35.9442 64.2676 35.5141Z" fill="#ADCFE5"/>
<path d="M62.1211 34.6601C61.8083 34.5674 61.4859 34.4843 61.1538 34.411C60.8217 34.3376 60.4785 34.2726 60.127 34.2173C58.8955 34.0166 57.5504 33.9225 56.1058 33.9225H43.9188C42.9603 33.9213 42.1442 34.6194 41.9967 35.5664L39.4063 51.992L39.3315 52.4694C39.4987 51.3894 40.4279 50.5924 41.5207 50.5916H46.083C55.043 50.5916 62.0588 46.9522 64.1082 36.4244C64.1691 36.113 64.2203 35.8114 64.2673 35.5139C63.7261 35.2307 63.1623 34.9928 62.5819 34.8026C62.431 34.7528 62.2774 34.7057 62.1211 34.6587" fill="#E6EEF6"/>
<defs>
<linearGradient id="paint0_linear" x1="0" y1="0" x2="96" y2="96" gradientUnits="userSpaceOnUse">
<stop stop-color="#004D9E"/>
<stop offset="1" stop-color="#0054A4"/>
</linearGradient>
</defs>
</svg>
