<svg width="24px" height="24px" viewBox="0 0 96 96" fill="none" xmlns="http://www.w3.org/2000/svg">
<rect width="96" height="96" fill="#6772E5"/>
<path fill-rule="evenodd" clip-rule="evenodd" d="M44.2632 37.0813C44.2632 34.7672 46.162 33.8769 49.3076 33.8769C53.8171 33.8769 59.5137 35.2421 64.0237 37.675V23.7296C59.0986 21.7715 54.2327 21 49.3076 21C37.2611 21 29.2501 27.2903 29.2501 37.7939C29.2501 54.1714 51.7994 51.5607 51.7994 58.6225C51.7994 61.3517 49.4261 62.2421 46.1028 62.2421C41.1777 62.2421 34.8874 60.2243 29.9026 57.4947V71.6179C35.4215 73.9915 40.9995 75 46.1028 75C58.4456 75 66.9314 68.8883 66.9314 58.2662C66.8721 40.5827 44.2632 43.7275 44.2632 37.0813Z" fill="white"/>
</svg>
