<svg width="24px" height="24px" viewBox="0 0 96 96" fill="none" xmlns="http://www.w3.org/2000/svg">
<rect width="96" height="96" fill="#2896CC"/>
<path d="M59.158 32H47.5999C46.1623 32.0809 44.0137 32.6339 43.0322 33.6275L37.2817 39.4416C34.4606 42.2932 34.4671 46.9024 37.2962 49.7459C40.1307 52.5947 44.7252 52.5947 47.5597 49.7459L48.6653 48.6343L48.6541 48.6242L49.7251 47.5475C51.3346 45.9246 53.948 45.9208 55.5622 47.539C57.1764 49.1573 57.1802 51.7848 55.5706 53.4077L49.8201 59.2218C48.1186 60.9482 43.2871 60.5391 41.428 60.5481H36.0419C30.0254 60.5241 25.154 55.6263 25.1301 49.5773V46.1178C25.154 40.0688 30.0254 35.1711 36.0419 35.147H36.9799L40.11 32H36.0419C28.3195 32 21.9999 38.3536 21.9999 46.1178V49.5773C21.9999 57.3415 28.3195 63.6952 36.0419 63.6952H43.8673C47.5977 63.7041 50.3388 63.1714 52.0369 61.4416L57.7874 55.6264C60.6079 52.7745 60.6014 48.1659 57.7729 45.3221C54.9384 42.4732 50.3438 42.4732 47.5094 45.3221L46.1679 46.6708L45.3474 47.516C43.7239 49.0361 41.1956 48.994 39.6231 47.4205C38.0506 45.8471 37.9966 43.3054 39.5007 41.6659L45.2523 35.8461C45.6995 35.3966 48.1142 35.147 48.7469 35.147H59.1591C65.1752 35.1717 70.0459 40.0692 70.0698 46.1178V49.5773C70.0459 55.6263 65.1745 60.5241 59.158 60.5481H57.376L54.2459 63.6952H59.158C66.8804 63.6952 73.1999 57.3415 73.1999 49.5773V46.1178C73.1999 38.3536 66.8804 32 59.158 32Z" fill="white"/>
</svg>
