<svg width="24px" height="24px" viewBox="0 0 96 96" fill="none" xmlns="http://www.w3.org/2000/svg">
<rect width="96" height="96" fill="#293760"/>
<path d="M27.7475 24.375C26.8155 24.375 26.06 25.1305 26.06 26.0625V69.9375C26.06 70.8695 26.8155 71.625 27.7475 71.625H58.1225C59.0545 71.625 59.81 70.8695 59.81 69.9375V26.0625C59.81 25.1305 59.0545 24.375 58.1225 24.375H27.7475ZM27.7475 21H58.1225C60.9184 21 63.185 23.2666 63.185 26.0625V69.9375C63.185 72.7334 60.9184 75 58.1225 75H27.7475C24.9516 75 22.685 72.7334 22.685 69.9375V26.0625C22.685 23.2666 24.9516 21 27.7475 21ZM29.435 27.75H56.435V42.9375H29.435V27.75ZM31.1225 46.3125H34.4975C35.4295 46.3125 36.185 47.068 36.185 48V49.6875C36.185 50.6195 35.4295 51.375 34.4975 51.375H31.1225C30.1905 51.375 29.435 50.6195 29.435 49.6875V48C29.435 47.068 30.1905 46.3125 31.1225 46.3125ZM31.1225 54.75H34.4975C35.4295 54.75 36.185 55.5055 36.185 56.4375V58.125C36.185 59.057 35.4295 59.8125 34.4975 59.8125H31.1225C30.1905 59.8125 29.435 59.057 29.435 58.125V56.4375C29.435 55.5055 30.1905 54.75 31.1225 54.75ZM41.2475 46.3125H44.6225C45.5545 46.3125 46.31 47.068 46.31 48V49.6875C46.31 50.6195 45.5545 51.375 44.6225 51.375H41.2475C40.3155 51.375 39.56 50.6195 39.56 49.6875V48C39.56 47.068 40.3155 46.3125 41.2475 46.3125ZM41.2475 54.75H44.6225C45.5545 54.75 46.31 55.5055 46.31 56.4375V58.125C46.31 59.057 45.5545 59.8125 44.6225 59.8125H41.2475C40.3155 59.8125 39.56 59.057 39.56 58.125V56.4375C39.56 55.5055 40.3155 54.75 41.2475 54.75ZM51.3725 46.3125H54.7475C55.6795 46.3125 56.435 47.068 56.435 48V49.6875C56.435 50.6195 55.6795 51.375 54.7475 51.375H51.3725C50.4405 51.375 49.685 50.6195 49.685 49.6875V48C49.685 47.068 50.4405 46.3125 51.3725 46.3125ZM51.3725 54.75H54.7475C55.6795 54.75 56.435 55.5055 56.435 56.4375V58.125C56.435 59.057 55.6795 59.8125 54.7475 59.8125H51.3725C50.4405 59.8125 49.685 59.057 49.685 58.125V56.4375C49.685 55.5055 50.4405 54.75 51.3725 54.75ZM31.1225 63.1875H34.4975C35.4295 63.1875 36.185 63.943 36.185 64.875V66.5625C36.185 67.4945 35.4295 68.25 34.4975 68.25H31.1225C30.1905 68.25 29.435 67.4945 29.435 66.5625V64.875C29.435 63.943 30.1905 63.1875 31.1225 63.1875ZM41.2475 63.1875H54.7475C55.6795 63.1875 56.435 63.943 56.435 64.875V66.5625C56.435 67.4945 55.6795 68.25 54.7475 68.25H41.2475C40.3155 68.25 39.56 67.4945 39.56 66.5625V64.875C39.56 63.943 40.3155 63.1875 41.2475 63.1875ZM64.8725 27.75H68.2475C71.0434 27.75 73.31 30.0166 73.31 32.8125V63.1875C73.31 65.9834 71.0434 68.25 68.2475 68.25H64.8725V27.75Z" fill="white"/>
</svg>
