<svg width="24px" height="24px" viewBox="0 0 96 96" fill="none" xmlns="http://www.w3.org/2000/svg">
<rect width="96" height="96" fill="#00279B"/>
<path d="M72.8097 69.9895H70.2434V66.8733C70.2434 66.6288 70.06 66.3844 69.7545 66.3844H26.249C26.0046 66.3844 25.7602 66.5677 25.7602 66.8733V69.9895H23.1938C22.9494 69.9895 22.705 70.1728 22.705 70.4784V74.5112C22.705 74.7556 22.8883 75 23.1938 75H72.8097C73.0541 75 73.2985 74.8167 73.2985 74.5112V70.4784C73.2374 70.1728 73.0541 69.9895 72.8097 69.9895Z" fill="white"/>
<path d="M72.5653 35.0385L48.735 21.2291C48.2462 20.9236 47.6351 20.9236 47.2074 21.2291L23.3772 35.0385C22.9494 35.2218 22.705 35.6495 22.705 36.1383V37.7881C22.705 38.2769 23.1327 38.7047 23.6216 38.7047H72.2598C72.7486 38.7047 73.1763 38.2769 73.1763 37.7881V36.1383C73.2374 35.7106 72.993 35.2829 72.5653 35.0385Z" fill="white"/>
<path d="M28.7542 62.9016C28.5098 62.9016 28.2654 63.0849 28.2654 63.3904V64.8569C28.2654 65.1013 28.4487 65.3457 28.7542 65.3457H33.7036C33.948 65.3457 34.1924 65.1624 34.1924 64.8569V63.3904C34.1924 63.146 34.0091 62.9016 33.7036 62.9016H33.0925V42.1876H33.7036C33.948 42.1876 34.1924 42.0043 34.1924 41.6987V40.2323C34.1924 39.9879 34.0091 39.7434 33.7036 39.7434H28.7542C28.5098 39.7434 28.2654 39.9267 28.2654 40.2323V41.6987C28.2654 41.9432 28.4487 42.1876 28.7542 42.1876H29.3652V62.9016H28.7542Z" fill="white"/>
<path d="M62.2999 62.9016C62.0555 62.9016 61.8111 63.0849 61.8111 63.3904V64.8569C61.8111 65.1013 61.9944 65.3457 62.2999 65.3457H67.2493C67.4937 65.3457 67.7381 65.1624 67.7381 64.8569V63.3904C67.7381 63.146 67.5548 62.9016 67.2493 62.9016H66.6383V42.1876H67.2493C67.4937 42.1876 67.7381 42.0043 67.7381 41.6987V40.2323C67.7381 39.9879 67.5548 39.7434 67.2493 39.7434H62.2999C62.0555 39.7434 61.8111 39.9267 61.8111 40.2323V41.6987C61.8111 41.9432 61.9944 42.1876 62.2999 42.1876H62.911V62.9016H62.2999Z" fill="white"/>
<path d="M53.9288 62.9016C53.6844 62.9016 53.4399 63.0849 53.4399 63.3904V64.8569C53.4399 65.1013 53.6233 65.3457 53.9288 65.3457H58.8781C59.1225 65.3457 59.367 65.1624 59.367 64.8569V63.3904C59.367 63.146 59.1836 62.9016 58.8781 62.9016H58.2671V42.1876H58.8781C59.1225 42.1876 59.367 42.0043 59.367 41.6987V40.2323C59.367 39.9879 59.1836 39.7434 58.8781 39.7434H53.9288C53.6844 39.7434 53.4399 39.9267 53.4399 40.2323V41.6987C53.4399 41.9432 53.6233 42.1876 53.9288 42.1876H54.5398V62.9016H53.9288Z" fill="white"/>
<path d="M45.5576 62.9016C45.3132 62.9016 45.0688 63.0849 45.0688 63.3904V64.8569C45.0688 65.1013 45.2521 65.3457 45.5576 65.3457H50.4459C50.6903 65.3457 50.9347 65.1624 50.9347 64.8569V63.3904C50.9347 63.146 50.7514 62.9016 50.4459 62.9016H49.8348V42.1876H50.4459C50.6903 42.1876 50.9347 42.0043 50.9347 41.6987V40.2323C50.9347 39.9879 50.7514 39.7434 50.4459 39.7434H45.5576C45.3132 39.7434 45.0688 39.9267 45.0688 40.2323V41.6987C45.0688 41.9432 45.2521 42.1876 45.5576 42.1876H46.1686V62.9016H45.5576Z" fill="white"/>
<path d="M37.1254 62.9016C36.8809 62.9016 36.6365 63.0849 36.6365 63.3904V64.8569C36.6365 65.1013 36.8198 65.3457 37.1254 65.3457H42.0747C42.3191 65.3457 42.5636 65.1624 42.5636 64.8569V63.3904C42.5636 63.146 42.3802 62.9016 42.0747 62.9016H41.4637V42.1876H42.0747C42.3191 42.1876 42.5636 42.0043 42.5636 41.6987V40.2323C42.5636 39.9879 42.3802 39.7434 42.0747 39.7434H37.1254C36.8809 39.7434 36.6365 39.9267 36.6365 40.2323V41.6987C36.6365 41.9432 36.8198 42.1876 37.1254 42.1876H37.7364V62.9016H37.1254Z" fill="white"/>
</svg>
