<svg width="24px" height="24px" viewBox="0 0 96 96" fill="none" xmlns="http://www.w3.org/2000/svg">
<rect width="96" height="96" fill="#00279B"/>
<path d="M43.0153 59.3129H37.5795C37.5475 59.3129 37.5159 59.306 37.4868 59.2925C37.4578 59.2791 37.432 59.2595 37.4112 59.2351C37.3905 59.2107 37.3753 59.1821 37.3667 59.1513C37.3582 59.1205 37.3564 59.0881 37.3616 59.0565L40.9669 36.8992C40.9753 36.8474 41.0018 36.8003 41.0418 36.7664C41.0817 36.7324 41.1324 36.7137 41.1849 36.7138H46.622C46.654 36.7138 46.6856 36.7208 46.7146 36.7342C46.7436 36.7477 46.7693 36.7673 46.79 36.7916C46.8107 36.816 46.8259 36.8446 46.8345 36.8754C46.843 36.9062 46.8448 36.9386 46.8396 36.9701L43.2336 59.1275C43.2253 59.1793 43.1987 59.2265 43.1587 59.2605C43.1186 59.2945 43.0678 59.313 43.0153 59.3129ZM32.3703 36.7138L27.0305 51.5107C27.0141 51.556 26.9833 51.5947 26.9428 51.6208C26.9023 51.647 26.8544 51.6591 26.8063 51.6555C26.7583 51.6518 26.7127 51.6326 26.6767 51.6006C26.6406 51.5686 26.616 51.5257 26.6066 51.4785L26.0973 48.9105L24.1195 38.7553C24.1195 38.7515 24.1195 38.7478 24.1175 38.744C24.1027 38.635 23.8066 36.7138 21.3271 36.7138H12.2206C12.1726 36.7138 12.1259 36.7294 12.0876 36.7584C12.0493 36.7873 12.0215 36.828 12.0084 36.8742C12.0003 36.9026 11.998 36.9324 12.0017 36.9617C12.0053 36.991 12.0148 37.0193 12.0296 37.0449C12.0444 37.0705 12.0642 37.0928 12.0879 37.1106C12.1115 37.1283 12.1384 37.1412 12.1671 37.1483C12.857 37.3197 15.0743 37.9438 17.6587 39.4209C17.798 39.5007 17.9199 39.6077 18.0173 39.7353C18.1147 39.863 18.1856 40.0088 18.2259 40.1642L23.1685 59.1484C23.1808 59.1956 23.2084 59.2374 23.2471 59.2673C23.2857 59.2971 23.3332 59.3133 23.382 59.3132H29.1941C29.2381 59.3136 29.2813 59.3007 29.3179 59.2763C29.3546 59.2518 29.3831 59.2169 29.3997 59.1761L38.5761 37.0191C38.59 36.9854 38.5954 36.9489 38.5917 36.9126C38.5881 36.8764 38.5755 36.8416 38.5551 36.8113C38.5348 36.7811 38.5073 36.7564 38.4751 36.7394C38.4429 36.7224 38.4069 36.7136 38.3705 36.7138H32.3703ZM78.6481 59.3129H83.7791C83.812 59.3128 83.8444 59.3055 83.874 59.2914C83.9036 59.2773 83.9298 59.2567 83.9505 59.2313C83.9712 59.2058 83.9859 59.1761 83.9937 59.1442C84.0015 59.1123 84.0021 59.0791 83.9954 59.0469L79.377 36.8889C79.3667 36.8393 79.3397 36.7947 79.3003 36.7627C79.261 36.7307 79.2118 36.7133 79.1611 36.7134H74.6106C72.5029 36.7134 71.9337 38.282 71.8966 38.3927C71.8966 38.3975 71.8936 38.402 71.8915 38.4064L63.248 59.0068C63.2339 59.0404 63.2283 59.0769 63.2318 59.1131C63.2352 59.1493 63.2476 59.1841 63.2677 59.2144C63.2879 59.2447 63.3152 59.2695 63.3473 59.2867C63.3793 59.3039 63.4152 59.3129 63.4515 59.3129H69.0987C69.144 59.3128 69.1881 59.2989 69.2252 59.273C69.2623 59.2471 69.2905 59.2104 69.3061 59.1679L70.4264 56.101C70.442 56.0585 70.4702 56.0218 70.5073 55.9959C70.5444 55.97 70.5885 55.9561 70.6337 55.956H77.7793C77.8301 55.956 77.8793 55.9735 77.9186 56.0056C77.958 56.0377 77.985 56.0824 77.9952 56.1322L78.6463 59.3129H78.6481ZM72.2829 51.0223L74.9992 43.5917C75.0157 43.5465 75.0464 43.5079 75.0867 43.4818C75.1271 43.4557 75.1749 43.4435 75.2228 43.4471C75.2707 43.4506 75.3162 43.4697 75.3523 43.5014C75.3884 43.5331 75.4131 43.5758 75.4228 43.6228L76.9506 51.0535C76.9573 51.0856 76.9567 51.1188 76.949 51.1506C76.9412 51.1824 76.9265 51.2121 76.9058 51.2375C76.8851 51.2629 76.859 51.2834 76.8294 51.2975C76.7998 51.3115 76.7675 51.3188 76.7347 51.3188H72.4885C72.4531 51.3185 72.4184 51.3097 72.3871 51.2932C72.3558 51.2767 72.329 51.2529 72.3088 51.2239C72.2887 51.1948 72.2758 51.1613 72.2713 51.1263C72.2668 51.0912 72.2707 51.0555 72.2829 51.0223ZM63.5797 42.1485L64.3878 37.478C64.3968 37.4265 64.3872 37.3734 64.3606 37.3283C64.334 37.2832 64.2923 37.2491 64.2429 37.232C63.616 37.0143 61.411 36.3101 59.1275 36.3101C56.2076 36.3101 49.2739 37.5863 49.2739 43.7915C49.2739 49.6299 57.4119 49.7022 57.4119 52.7705C57.4119 55.7271 50.6262 55.3227 47.9815 53.557C47.951 53.5368 47.9158 53.5246 47.8793 53.5214C47.8428 53.5182 47.8061 53.5242 47.7725 53.5388C47.7389 53.5534 47.7095 53.5762 47.6869 53.605C47.6644 53.6339 47.6493 53.6679 47.6433 53.7041L46.8578 58.2597C46.8493 58.3085 46.8576 58.3587 46.8811 58.4022C46.9047 58.4457 46.9422 58.48 46.9877 58.4996C47.6124 58.7686 50.0326 59.7042 53.4701 59.7042C57.4849 59.7042 63.5423 57.6254 63.5423 51.9672C63.5423 46.0914 55.3313 45.5444 55.3313 42.9899C55.3313 40.4353 61.0618 40.7622 63.5797 42.1502V42.1485Z" fill="white"/>
</svg>
