<svg width="24px" height="24px" viewBox="0 0 96 96" fill="none" xmlns="http://www.w3.org/2000/svg">
<rect width="96" height="96" fill="#00E2A9"/>
<path fill-rule="evenodd" clip-rule="evenodd" d="M47.1587 28C38.5524 28 31.2079 31.1165 25.1251 37.3473C19.041 43.5787 16 51.1027 16 59.9171C16 59.9171 16 65.3333 20.4665 65.3333C24.9336 65.3333 24.9023 59.9171 24.9023 59.9171C24.9023 53.6093 27.0729 48.2331 31.4126 43.787C35.7523 39.3417 41.0008 37.119 47.1587 37.119C53.3152 37.119 58.5651 39.3417 62.9048 43.787C67.2445 48.2331 69.4139 53.6093 69.4139 59.9171C69.4139 59.9171 69.5699 65.3333 73.8997 65.3333C78.2299 65.3333 78.3176 59.9171 78.3176 59.9171C78.3176 51.1027 75.2752 43.5787 69.1917 37.3473C63.1075 31.1165 55.7637 28 47.1587 28Z" fill="#FEFEFE"/>
</svg>
