<svg width="43" height="16" viewBox="0 0 43 16" fill="none" xmlns="http://www.w3.org/2000/svg">
  <path d="M0 4C0 1.79086 1.79086 0 4 0H39C41.2091 0 43 1.79086 43 4V12C43 14.2091 41.2091 16 39 16H4C1.79086 16 0 14.2091 0 12V4Z" fill="#F4F6F8"/>
  <path d="M11.16 3.996V4.98H7.992V7.452H10.8V8.448H7.992V11.004H11.28V12H6.924V3.996H11.16ZM12.4505 12V6.684H13.4825V7.176C13.8665 6.744 14.3545 6.528 14.9465 6.528C15.3385 6.528 15.6985 6.62 16.0265 6.804C16.3625 6.988 16.6225 7.236 16.8065 7.548C17.0225 7.908 17.1305 8.436 17.1305 9.132V12H16.0985V9.228C16.0985 8.684 16.0145 8.26 15.8465 7.956C15.6785 7.644 15.3465 7.488 14.8505 7.488C14.5945 7.488 14.3625 7.544 14.1545 7.656C13.9465 7.76 13.7945 7.9 13.6985 8.076C13.5545 8.34 13.4825 8.76 13.4825 9.336V12H12.4505ZM19.6719 6.684H20.5239V7.608H19.6719V10.368C19.6719 10.872 19.8239 11.124 20.1279 11.124C20.2399 11.124 20.3959 11.096 20.5959 11.04V11.988C20.3799 12.052 20.1679 12.084 19.9599 12.084C19.5439 12.084 19.2199 11.936 18.9879 11.64C18.7559 11.336 18.6399 10.912 18.6399 10.368V7.608H18.0519V6.684H18.6399V5.46L19.6719 5.064V6.684ZM21.6145 12V6.684H22.6465V7.2C22.9025 6.984 23.1105 6.844 23.2705 6.78C23.4305 6.708 23.6465 6.672 23.9185 6.672C24.0465 6.672 24.1625 6.676 24.2665 6.684V7.608C24.1625 7.6 24.0545 7.596 23.9425 7.596C23.6625 7.596 23.4305 7.644 23.2465 7.74C23.0625 7.836 22.9305 7.98 22.8505 8.172C22.7705 8.356 22.7145 8.544 22.6825 8.736C22.6585 8.92 22.6465 9.152 22.6465 9.432V12H21.6145ZM29.8607 9.756H25.7327C25.8047 10.212 25.9847 10.572 26.2727 10.836C26.5687 11.1 26.9327 11.232 27.3647 11.232C27.6607 11.232 27.9407 11.164 28.2047 11.028C28.4687 10.892 28.6687 10.708 28.8047 10.476C28.8527 10.396 28.8847 10.348 28.9007 10.332L29.7887 10.704C29.2207 11.672 28.4127 12.156 27.3647 12.156C26.6047 12.156 25.9647 11.888 25.4447 11.352C24.9327 10.808 24.6767 10.136 24.6767 9.336C24.6767 8.552 24.9287 7.888 25.4327 7.344C25.9367 6.8 26.5567 6.528 27.2927 6.528C28.0447 6.528 28.6607 6.804 29.1407 7.356C29.6287 7.9 29.8727 8.596 29.8727 9.444C29.8727 9.492 29.8687 9.596 29.8607 9.756ZM25.7327 8.928H28.8407C28.7607 8.464 28.5847 8.1 28.3127 7.836C28.0407 7.572 27.7047 7.44 27.3047 7.44C26.8967 7.44 26.5527 7.572 26.2727 7.836C25.9927 8.1 25.8127 8.464 25.7327 8.928ZM27.8567 3.756L28.8407 4.284L27.2327 5.916L26.5607 5.532L27.8567 3.756ZM35.8021 9.756H31.6741C31.7461 10.212 31.9261 10.572 32.2141 10.836C32.5101 11.1 32.8741 11.232 33.3061 11.232C33.6021 11.232 33.8821 11.164 34.1461 11.028C34.4101 10.892 34.6101 10.708 34.7461 10.476C34.7941 10.396 34.8261 10.348 34.8421 10.332L35.7301 10.704C35.1621 11.672 34.3541 12.156 33.3061 12.156C32.5461 12.156 31.9061 11.888 31.3861 11.352C30.8741 10.808 30.6181 10.136 30.6181 9.336C30.6181 8.552 30.8701 7.888 31.3741 7.344C31.8781 6.8 32.4981 6.528 33.2341 6.528C33.9861 6.528 34.6021 6.804 35.0821 7.356C35.5701 7.9 35.8141 8.596 35.8141 9.444C35.8141 9.492 35.8101 9.596 35.8021 9.756ZM31.6741 8.928H34.7821C34.7021 8.464 34.5261 8.1 34.2541 7.836C33.9821 7.572 33.6461 7.44 33.2461 7.44C32.8381 7.44 32.4941 7.572 32.2141 7.836C31.9341 8.1 31.7541 8.464 31.6741 8.928Z" fill="#919EAB"/>
</svg>
