<svg width="24px" height="24px" viewBox="0 0 96 96" fill="none" xmlns="http://www.w3.org/2000/svg">
<rect width="96" height="96" fill="#FF5A5F"/>
<path fill-rule="evenodd" clip-rule="evenodd" d="M71.9985 60.7605C71.982 59.2665 71.6351 57.7914 71.0943 56.4057C70.7361 55.4846 70.3283 54.5842 69.9206 53.6844L69.9206 53.6842C69.8535 53.5361 69.7865 53.3881 69.7196 53.2401C65.9551 44.9732 62.0046 36.7937 57.8711 28.7078C57.7459 28.4644 57.6212 28.2207 57.4966 27.977L57.496 27.9759L57.4959 27.9757C57.042 27.0885 56.5882 26.2013 56.1067 25.329C55.5034 24.2439 54.801 23.1993 53.8917 22.35C52.4408 20.9563 50.4941 20.1253 48.4961 20H47.5763C45.5195 20.1023 43.5118 20.9721 42.036 22.4217C41.1602 23.2578 40.4823 24.2772 39.895 25.3319C39.3994 26.2268 38.9339 27.1382 38.4687 28.0488C38.3651 28.2515 38.2616 28.4542 38.1577 28.6566C35.3842 34.0817 32.6923 39.5487 30.083 45.0558C28.5276 48.3515 26.9853 51.6527 25.5019 54.9808C24.8867 56.3673 24.3303 57.8012 24.1209 59.3147C23.7329 61.8703 24.2893 64.5524 25.6441 66.7469C26.8119 68.6531 28.5648 70.1892 30.6081 71.0765C32.2053 71.7711 33.9414 72.0808 35.6783 71.9808C37.9982 71.8567 40.2352 71.0168 42.1981 69.791C44.3877 68.4369 46.2604 66.636 48.0041 64.7507C49.6254 66.5115 51.3606 68.1918 53.3637 69.5088C55.2981 70.7912 57.5039 71.7198 59.8238 71.9407C62.3435 72.2059 64.9541 71.5766 67.0688 70.1632C68.9392 68.9144 70.3877 67.121 71.2213 65.0218C71.758 63.6673 72.0222 62.2188 71.9985 60.7605ZM46.3552 57.5365L46.3551 57.5365L46.2651 57.4068C45.3232 56.0147 44.4668 54.5596 43.778 53.0222C43.2136 51.7465 42.7604 50.4074 42.5835 49.0166C42.4545 47.9132 42.4854 46.7621 42.8873 45.7145C43.247 44.7322 43.9384 43.8812 44.8142 43.3189C46.901 41.9618 49.8755 42.1084 51.7664 43.7546C52.7235 44.5762 53.2951 45.7908 53.439 47.0392C53.6273 48.6986 53.2528 50.3652 52.6778 51.9128C51.5921 54.7847 49.8734 57.359 48.0147 59.7747C47.416 59.0646 46.8849 58.2995 46.3552 57.5365ZM64.8394 67.9057C66.5932 66.9281 67.9336 65.2337 68.4913 63.2943C68.9025 61.8745 68.8894 60.3379 68.493 58.9152C68.2155 57.9288 67.7982 56.9928 67.3818 56.0589C67.3112 55.9005 67.2406 55.7422 67.1707 55.5837C63.9815 48.5469 60.6549 41.5741 57.1928 34.6695L57.0978 34.4803C55.9164 32.1284 54.7341 29.7748 53.5045 27.4475C52.946 26.397 52.324 25.343 51.4033 24.5726C50.4712 23.7834 49.2598 23.3311 48.0412 23.3456C46.8554 23.3237 45.6981 23.7124 44.7625 24.4468C43.8972 25.1094 43.285 26.0359 42.7586 26.9794C42.2259 27.947 41.7237 28.9318 41.2217 29.9164C41.1161 30.1236 41.0104 30.3307 40.9045 30.5377C36.8193 38.5385 32.9131 46.6309 29.1889 54.8086C29.0861 55.0389 28.9819 55.2688 28.8777 55.4988C28.4382 56.4689 27.9981 57.4402 27.6564 58.4501C27.1482 59.9598 27.0534 61.6238 27.4808 63.1651C28.0397 65.2632 29.5215 67.0884 31.4513 68.0575C33.0989 68.8974 35.0372 69.0995 36.8337 68.6932C39.0559 68.2088 41.0175 66.9362 42.732 65.4742C43.8377 64.5217 44.871 63.4871 45.8233 62.3789C43.7115 59.7521 41.7994 56.9203 40.4967 53.7917C39.6204 51.6506 39.0411 49.327 39.2396 46.9978C39.3686 45.3807 39.925 43.7861 40.9012 42.4892C42.0101 41.0016 43.6286 39.9285 45.4006 39.4233C47.2796 38.8835 49.3271 38.9428 51.1689 39.6058C53.1406 40.305 54.8606 41.7503 55.8206 43.6318C56.5539 45.04 56.8492 46.6508 56.8048 48.2326C56.7261 50.7254 55.8972 53.1275 54.8064 55.3445C53.5566 57.8762 51.9204 60.1921 50.1835 62.4058C51.2836 63.6221 52.4319 64.8023 53.7072 65.8349C55.4424 67.2436 57.445 68.4369 59.6769 68.7869C61.4295 69.082 63.2848 68.7818 64.8394 67.9057Z" fill="white"/>
</svg>
