<svg width="24px" height="24px" viewBox="0 0 96 96" fill="none" xmlns="http://www.w3.org/2000/svg">
<rect width="96" height="96" fill="#0C3B7C"/>
<path fill-rule="evenodd" clip-rule="evenodd" d="M46.2266 57.9797L41.3049 57.9747V51.9053C41.3049 50.6085 41.7927 49.9336 42.8687 49.7794H46.2266C48.6213 49.7794 50.1703 51.3365 50.1703 53.8568C50.1703 56.4453 48.6605 57.9772 46.2266 57.9797H46.2266ZM41.3049 41.6093V40.0117C41.3049 38.6138 41.8785 37.949 43.1359 37.863H45.6555C47.8149 37.863 49.109 39.1952 49.109 41.4273C49.109 43.126 48.2217 45.1104 45.734 45.1104H41.3049V41.6093ZM52.5109 47.6661L51.6212 47.1504L52.3982 46.4653C53.3026 45.664 54.8173 43.8616 54.8173 40.7524C54.8173 35.9899 51.2364 32.9186 45.6946 32.9186H39.371V32.916H38.6503C37.0082 32.9792 35.692 34.3569 35.6748 36.0607V63.0835H45.8196C51.9791 63.0835 55.9546 59.6254 55.9546 54.2688C55.9546 51.3846 54.6703 48.9199 52.5109 47.6661Z" fill="white"/>
<path fill-rule="evenodd" clip-rule="evenodd" d="M58.5967 59.3506C58.5967 57.2863 60.211 55.6162 62.2 55.6162C64.194 55.6162 65.8158 57.2863 65.8158 59.3506C65.8158 61.4123 64.194 63.085 62.1999 63.085C60.211 63.085 58.5967 61.4123 58.5967 59.3506" fill="#00BAFC"/>
</svg>
