<svg width="24px" height="24px" viewBox="0 0 96 96" fill="none" xmlns="http://www.w3.org/2000/svg">
<rect width="96" height="96" fill="#3A5F81"/>
<path fill-rule="evenodd" clip-rule="evenodd" d="M62.6668 75.3335C62.6668 76.0699 62.0699 76.6668 61.3335 76.6668H54.0002V54.0002L47.9879 52.2668L42.0002 54.0002V76.6668H34.6668C33.9304 76.6668 33.3335 76.0699 33.3335 75.3335V50.6668L48.0002 45.9386L62.6668 50.6668V75.3335ZM33.3335 20.6668C33.3335 19.9304 33.9304 19.3335 34.6668 19.3335H42.0002V39.3335L48.0002 37.6002L54.0002 39.3335V19.3335H61.3335C62.0699 19.3335 62.6668 19.9304 62.6668 20.6668V46.0002L48.0002 41.272L33.3335 46.0002V20.6668Z" fill="white"/>
</svg>
