<svg width="24px" height="24px" viewBox="0 0 96 96" fill="none" xmlns="http://www.w3.org/2000/svg">
<rect width="96" height="96" fill="#FFBD31"/>
<path d="M56.7926 40.3715C56.7926 43.4728 55.7836 45.8174 53.7932 47.3432C51.785 48.8815 48.6878 49.6618 44.5899 49.6618C43.8015 49.6644 43.0133 49.6341 42.2274 49.5706C41.5686 49.5155 40.9428 49.4342 40.3639 49.3294V34.6912C40.3639 33.1792 40.7553 32.1716 41.5258 31.6974C42.3322 31.2012 43.8649 30.9504 46.0799 30.9504C49.5121 30.9504 52.1861 31.776 54.0289 33.4039C55.8622 35.0276 56.7926 37.3722 56.7926 40.3715ZM57.9118 32.0324C54.7002 30.02 50.1833 29 44.4852 29C44.011 29 43.2805 29.0152 42.1888 29.0524C41.1771 29.0868 40.0358 29.1406 38.7981 29.2109L32 29.5803V31.0469L32.2109 31.0565C33.0062 31.0882 33.5617 31.4218 33.909 32.0737C34.2729 32.7602 34.4576 33.969 34.4576 35.6685V62.9903C34.4576 64.6196 34.2729 65.8036 33.9076 66.5065C33.5617 67.175 33.0076 67.5127 32.215 67.5279L32 67.532V69H42.8229V67.532L42.6065 67.5279C41.8125 67.5141 41.2584 67.1833 40.9125 66.5314C40.5486 65.8463 40.3639 64.6554 40.3639 62.989V51.2784C41.2254 51.4025 42.1034 51.5003 42.9773 51.572C43.9325 51.652 44.907 51.6919 45.8718 51.6919C51.2419 51.6919 55.4445 50.7147 58.3611 48.7891C61.3081 46.8429 62.8022 44.0476 62.8022 40.4776C62.8022 36.9077 61.1564 34.0655 57.9118 32.0324Z" fill="black"/>
</svg>
