<svg width="96" height="96" viewBox="0 0 96 96" fill="none" xmlns="http://www.w3.org/2000/svg">
<rect width="96" height="96" fill="#FF0059"/>
<path d="M25.5255 23L23 25.5237L27.4489 33.2122L30.334 32.7893L47.945 50.3902L46.4428 51.8317C45.6734 52.6006 45.6734 53.7654 46.4428 54.5342L47.2237 55.3165C47.9931 56.0854 49.1702 56.0854 49.7472 55.3165L52.0323 57.5981C51.8399 58.7514 52.0323 60.1218 52.994 61.0829L63.3921 71.4143C65.5078 73.5286 68.97 73.5286 71.0858 71.4143C73.5862 69.1077 73.5632 65.6594 71.4474 63.5451L61.1089 53.1522C60.1472 52.1912 58.7758 51.8067 57.6218 52.1912L55.0963 49.9096C55.6733 49.1408 55.6733 47.9644 55.0963 47.3859L54.375 46.667C54.2002 46.4848 53.9902 46.3398 53.7579 46.2408C53.5255 46.1417 53.2755 46.0906 53.0228 46.0906C52.7702 46.0906 52.5202 46.1417 52.2878 46.2408C52.0554 46.3398 51.8455 46.4848 51.6707 46.667L50.4089 47.9279L32.798 30.329L33.2173 27.4459L25.5235 23L25.5255 23ZM63.0324 23.0596C59.2374 22.7444 54.2057 25.2585 51.8515 27.4439C48.9548 30.3386 49.4279 34.1233 51.7303 37.7772L47.6449 41.8617L50.5301 45.1043C52.0688 43.7589 54.3385 43.7589 55.8772 45.1043L56.66 45.8847L56.8409 46.0654L58.5239 44.3835C62.0014 46.4267 65.6213 46.7208 68.3814 43.9626C71.0742 41.4638 73.994 35.3015 72.6476 31.6495L67.2389 37.2352C66.4695 38.004 65.3039 38.004 64.5346 37.2352L58.9432 31.6495C58.7608 31.4748 58.6157 31.265 58.5166 31.0328C58.4175 30.8006 58.3664 30.5507 58.3664 30.2983C58.3664 30.0458 58.4175 29.796 58.5166 29.5638C58.6157 29.3315 58.7608 29.1218 58.9432 28.947L64.5365 23.3614C64.0556 23.1922 63.5748 23.1057 63.0324 23.0596ZM41.8746 47.0264L34.9003 53.9941C34.1508 53.8277 33.3849 53.7471 32.6172 53.7539C27.2315 53.7539 23 57.9825 23 63.3644C23 68.7464 27.2315 72.975 32.6172 72.975C38.0028 72.975 42.2343 68.7464 42.2343 63.3644C42.2343 62.3784 42.0785 61.4308 41.8131 60.5408L45.9004 56.4563L45.3003 55.676C43.7615 54.1383 43.7731 51.8087 45.1195 50.2691L41.8727 47.0264H41.8746ZM56.7812 55.7971C57.0217 55.7971 57.2486 55.8432 57.441 56.0373L68.8027 67.3893C69.1874 67.7738 69.1874 68.385 68.8027 68.7694C68.418 69.1538 67.8025 69.1538 67.4178 68.7694L56.0599 57.4174C55.6753 57.033 55.6753 56.4217 56.0599 56.0373C56.2523 55.8451 56.5408 55.7971 56.7812 55.7971ZM33.9405 58.3765L37.6065 62.042L36.2832 67.0261L31.2958 68.3485L27.6278 64.683L28.9511 59.699L33.9405 58.3765Z" fill="white"/>
</svg>
