<svg width="96" height="96" viewBox="0 0 96 96" fill="none" xmlns="http://www.w3.org/2000/svg">
<rect width="96" height="96" fill="#EC008C"/>
<path fill-rule="evenodd" clip-rule="evenodd" d="M61.5983 43.505C61.3163 40.4874 60.6224 37.736 59.5365 35.2067C61.3912 31.3425 63.2971 29.9119 63.2971 29.9119C63.2971 29.9119 67.2171 39.9465 63.7779 50.2589C61.6504 56.6396 59.1044 60.4917 57.7394 62.1466C57.4345 62.5158 57.1652 62.6303 57.3315 62.4069C60.5466 58.0722 62.3171 51.1788 61.5983 43.505ZM64.7122 55.6676C63.1242 57.5813 61.5191 59.4375 59.7459 60.8575C59.4911 61.0605 59.33 61.0458 59.5252 60.8325C65.7995 53.984 72.6144 38.8083 63.7816 23.8518C63.7816 23.8518 60.2895 26.263 57.4221 31.2619C54.5952 26.9086 50.4796 23.2601 45.3589 20C45.3589 20 32.4026 34.4406 38.1339 55.3588C21.6061 57.6386 27.6076 70.3993 30.2274 72.2353C30.3488 72.3213 30.453 72.2776 30.284 72.0188C29.3547 70.5939 26.7574 65.6103 32.1116 60.8305C34.9836 58.2666 41.0053 57.598 41.0053 57.598C39.6363 47.5544 39.7329 38.48 46.5961 28.4364C47.4728 29.0173 57.5117 33.4307 57.8889 48.2889C58.7286 57.6078 53.8899 65.0668 49.195 67.9703C40.8731 72.4335 31.5359 74.6229 23.4188 76.5283C22.7298 76.691 22.998 76.7658 23.4576 76.7454C42.7432 75.9342 59.8883 67.2603 66.4801 58.9829C67.75 57.3924 68.3175 55.6394 67.4618 54.6692C66.6065 53.699 65.0581 55.2472 64.7122 55.6676Z" fill="white"/>
</svg>
